<?xml version="1.0" encoding="utf-8"?>
<!-- Generator: Adobe Illustrator 23.0.6, SVG Export Plug-In . SVG Version: 6.00 Build 0)  -->
<svg version="1.1" id="Layer_1" xmlns="http://www.w3.org/2000/svg" xmlns:xlink="http://www.w3.org/1999/xlink" x="0px" y="0px"
	 viewBox="0 0 213.2 270.3" style="enable-background:new 0 0 213.2 270.3;" xml:space="preserve">
<style type="text/css">
	.st0{fill:#638DC9;}
	.st1{fill:#E32B26;}
	.st2{fill:#231F20;}
	.st3{fill:#FFFFFF;}
	.st4{fill:#FFC628;}
	.st5{fill:#636466;}
	.st6{fill:#939598;}
</style>
<title>RMHC of Central Ohio Vertical Logo with Tagline - Blue Text</title>
<path class="st0" d="M164.1,184.7h0.3c0.3,0,0.6-0.1,0.6-0.4s-0.1-0.4-0.6-0.4h-0.3V184.7z M164.1,186h-0.4v-2.4c0.2,0,0.4,0,0.7,0
	c0.3,0,0.5,0,0.7,0.2c0.1,0.1,0.2,0.3,0.2,0.5c0,0.3-0.2,0.5-0.5,0.6l0,0c0.2,0,0.4,0.2,0.4,0.6c0,0.2,0.1,0.4,0.1,0.6h-0.4
	c-0.1-0.2-0.1-0.4-0.2-0.6c0-0.2-0.2-0.4-0.4-0.4c0,0,0,0-0.1,0h-0.3L164.1,186z M164.5,183c-1,0-1.8,0.7-1.9,1.7
	c0,1,0.7,1.8,1.7,1.9s1.8-0.7,1.9-1.7c0,0,0-0.1,0-0.1C166.3,183.8,165.5,183,164.5,183C164.5,183,164.5,183,164.5,183z
	 M164.5,182.7c1.2,0,2.1,0.9,2.1,2.1c0,1.2-0.9,2.1-2.1,2.1l0,0c-1.2,0-2.1-0.9-2.1-2.1C162.4,183.6,163.4,182.7,164.5,182.7z"/>
<path class="st0" d="M55.4,203.3v-20.5h8.9c0.9,0,1.8,0.2,2.6,0.6c0.8,0.4,1.4,0.9,2,1.5c0.6,0.6,1,1.4,1.3,2.1
	c0.3,0.8,0.5,1.6,0.5,2.4c0,0.7-0.1,1.4-0.3,2c-0.2,0.6-0.5,1.2-0.8,1.8c-0.3,0.5-0.8,1-1.3,1.4c-0.5,0.4-1.1,0.7-1.6,0.9l4.8,7.8
	h-3.7l-4.4-7.1h-4.8v7.1H55.4z M58.6,193.3h5.7c0.4,0,0.9-0.1,1.3-0.3c0.4-0.2,0.7-0.5,1-0.8c0.3-0.4,0.5-0.8,0.6-1.2
	c0.2-0.5,0.2-1,0.2-1.5c0-0.5-0.1-1-0.3-1.5c-0.2-0.4-0.4-0.9-0.7-1.2c-0.3-0.3-0.6-0.6-1-0.8c-0.4-0.2-0.8-0.3-1.2-0.3h-5.6
	L58.6,193.3z"/>
<path class="st0" d="M98.4,203.3v-14.8l-6.1,11.2h-1.8l-6.1-11.2v14.8h-3.2v-20.5h3.5l6.8,12.5l6.8-12.5h3.5v20.5H98.4z"/>
<path class="st0" d="M129.8,182.8v20.5h-3.3v-9h-10.4v9h-3.2v-20.5h3.2v8.6h10.4v-8.6H129.8z"/>
<path class="st0" d="M139.7,192.9c0-1.3,0.2-2.5,0.7-3.7c0.4-1.2,1.1-2.3,1.9-3.3c0.9-1,1.9-1.8,3.1-2.4c1.3-0.6,2.7-0.9,4.2-0.9
	c1.7-0.1,3.4,0.4,4.8,1.2c1.3,0.8,2.3,1.9,3,3.2l-2.5,1.7c-0.2-0.6-0.6-1.1-1-1.5c-0.4-0.4-0.8-0.7-1.3-1c-0.5-0.2-1-0.4-1.5-0.5
	c-0.5-0.1-1-0.1-1.5-0.1c-1,0-2,0.2-2.8,0.6c-0.8,0.4-1.5,1-2,1.7c-0.5,0.7-1,1.5-1.2,2.4c-0.3,0.9-0.4,1.8-0.4,2.7
	c0,1,0.2,1.9,0.5,2.9c0.3,0.9,0.8,1.7,1.4,2.4c0.6,0.7,1.3,1.3,2.1,1.7c0.8,0.4,1.7,0.6,2.7,0.6c0.5,0,1-0.1,1.5-0.2
	c1.1-0.3,2.1-0.9,2.9-1.7c0.4-0.4,0.8-1,1-1.5l2.7,1.5c-0.3,0.8-0.8,1.4-1.4,2c-0.6,0.6-1.3,1.1-2,1.5c-0.8,0.4-1.6,0.7-2.4,0.9
	c-0.8,0.2-1.6,0.3-2.5,0.3c-1.4,0-2.8-0.3-4-0.9c-1.2-0.6-2.2-1.4-3.1-2.4c-0.9-1-1.5-2.2-2-3.4C140,195.5,139.8,194.2,139.7,192.9z
	"/>
<path class="st1" d="M159.2,7.6c0.2-5-4.9-5.9-8.5-7.6L150,0.7c-3-0.8-3.8,1.3-5.8,2.5c-0.8-0.7-1.6-1.7-2.6-1.8
	C139,1.6,135,0.7,133,3.6c0.2,0.2,0.5,0.4,0.4,0.8c-0.2,0.6-0.9,1.7-1.8,1.4c-4,7.3,4.4,11.3,8.3,16.3c2.4,5.8-2.8,11.1-1,16.6h2.5
	v-1.4c-0.2,0-0.9,0.1-1-0.4l1.4-1.1c-0.1-2.9,1.4-5,2.9-7.2c2.9-6.9,10.5-5.9,12.9-13.3c1.3-0.1,0.2-2.2,1.8-2.2L159.2,7.6z
	 M155.2,13.8c-0.5,0.8-2.6,1.1-2.6,2.5H152l-8.4,7.6c-0.5-5.5-5.7-6.7-7.9-11.2c-2-0.4-1.6-2.8-1.1-4c1-1.7,2.3-3.2,4-4.3
	c2.2-0.8,4.2,1,4.7,3.2c2.1,0.4,1.7,4.1,4,2.9c1.2-1.1,0.8-2,0.4-3.2c-0.5-0.7-1.5-1.4-0.8-2.5c2.5-1.6,8-2.1,9,1.8
	C156.2,8.7,156.2,11.7,155.2,13.8z"/>
<path class="st2" d="M108,29.3c1.5,4.3,6.1,7,9.5,9.8c4.5,3.1,8.3,6.5,12.7,9.5c3.1-3.4,0.9-9.6,3.8-13.4c2-1.5,3.5,1.7,5.6,2.8
	c2.1-0.4,4.9,0.9,6-1.1c0.7,0.3,1.8,1.1,1.8,1.8c-5.3,3.9-4,11.6-6.7,16.6c0.4,1.8-0.8,2.8-0.4,4.5c4.9,6.1,11.9,10.1,17.9,15.2
	c1-0.4,1.8,0.7,2,1.4c-0.5-0.1-0.7,0.6-1.4,0.4c-2.3,7.4-1.2,14.4-3.1,21.1c1.6,0.9,0,2.3,0,3.5c1.3,7.8-2.7,15.7,0.7,23.5
	c0.4,1.5-0.8,2.6-0.4,3.5c-0.7,4.1,1.4,10.5,0,14.8c0.4,1,0.1,2.8-0.4,4.2c0.4,6.6-0.3,11.9-0.4,17.9c0.3,1,1.6,2.1,2.5,1.1
	c0.2,0.9-1.4,2.3-1.1,3.5c-5.5,0.1-11-0.2-16.5-1.1c-14.4,1.5-30.4,3.4-43.9-0.3c-11.9,1-22.8,1.3-34.5-0.4
	c-0.7,1.3-2.4,0.4-3.5,0.6c-1.1-1.8-2.3,1.1-3.5-1c2.4-4.5-1-8.9,1.1-13.7c0.4-10.5,0.4-22,1.4-32.7h0.4c0.1-7.2,2.4-12.8,1.8-20
	c0.8-6.2,0.1-12.2-0.7-18.7c-0.7-1-2.7-0.3-2.4-2.1c-0.6-2.1,3.5-2.8,2.8-5.6c0.6-0.7,1.7-0.3,2.5-0.4c1.6-3.1,4.5-5.2,6.7-7.8
	c4.2-2.6,5.7-7.3,10.2-9.4c7.4-7.7,16.8-13.2,22.5-21.8c1.8-1.4,3.1-3.4,3.5-5.6c-2.3-0.2-1.3-2-1-3.5h2.4c-0.1,0.4,0.2,0.6,0.4,0.7
	c1.8,0.1,2-2.7,4.2-2.1L108,29.3z"/>
<path class="st3" d="M109.4,35.9c3,1.6,5,4.9,8.5,6c0,1.4,1.8,2.2,2.4,2.8c1.8,2.3,4.6,3.8,6,5.6c4.9,3.3,7.7,7.2,10.2,11.9
	c6.6,4.4,11.1,9.9,17.6,14c-0.5,3.8-0.5,7.7,0,11.6c-0.8,0.7,0.1,2.9-0.7,3.9s-1.5,3.3-0.7,4.9h-0.7c0.3,4.7,0,10.8-1.4,14.8
	c1,3.4-0.6,7.2,1.4,10.5c0.2,14.1-0.1,28.4-1,42.9c-0.5,0.9-2.1-0.4-2.1,1h-0.7c-1-2.1-2.9-0.3-4.9-1c-6.7,0.5-13.2,2.3-20.7,2.1
	c-6.5,0.2-12.9-0.1-19.3-1v-0.4c-4.8-1.4-10.2-0.4-15.1,0c-5.9,1.7-12.5-0.2-19,0.4v-0.4c-1.5-0.5-3.1-0.5-4.5,0v0.4
	c-0.3-1-1.8-0.6-2.8-0.7c0.2,0.7-2-0.1-2.9-0.3c0.3-21.8,2.1-46.8,3.9-69.3c-1.5-6-1.5-12.3,0-18.3c3.4-2.3,4.5-6.3,8.4-8.4
	c9.6-13.3,24.9-19.8,33-34.4C105.8,31,108.2,35,109.4,35.9z"/>
<path class="st3" d="M142.8,40.5c-0.7,2.2-0.3,6-2.4,7.8l-1.8,7.8c-1.2,0.3-0.9-0.4-1.4-1.1c-1.5-2.3-4.2-2.3-5.3-4.9
	c1.1-3.7,1.5-7.6,2.8-11.3C137.9,38.2,139.5,42.4,142.8,40.5z"/>
<path class="st2" d="M121.6,69.4c5.2,6.9,12,11.7,20.6,12.6c1.2,0,2.5-0.1,3.7-0.3c0.5,0,0.8,0.4,0.9,0.9l-0.4,1.1L133.5,103
	c-0.6,1.3-2.4,0.4-2.7,1.8l-0.6,1.2c0.9,1.6,1.1,3.5,0.5,5.2c-1.8,2.8-4.6,4.9-5.6,8.2c0.4,2.4,1.9,4.4,2.6,6.7
	c0.7,1.6,1,3.4,0.9,5.1c1.3-0.5,3.1-1.5,4.3-0.2s0.8,3.1,0.1,4.5c-1,2-3.5,3.1-5.4,4.2c-0.5,1.5-0.5,3.4-2.1,4.3
	c-1.1,0.6-2.3,0.9-3.5,1c-0.3,1.5-1.5,2.7-3,3c-0.1,1.1,0.1,2.6-1,3.3c-0.8,0.7-1.9,1-2.9,0.8c-0.1,1.6-1.1,3-2.6,3.6l-1.6,0.1
	c-1.3,1.4-3.2,1.5-5,1.1c-1-0.3-2-0.9-2.7-1.7c-1.5,0.2-3-0.5-3.9-1.7c-0.5-0.7-0.9-1.5-1.2-2.3c-2.2-0.4-3.9-2-4.3-4.2l-0.4-2.2
	c-3.9-3.5-3.1-9.6-1.5-13.9l1.9-4.2c-1.4-3-3.2-5.7-4.7-8.6c-0.9-0.1-2.1,0-2.7-0.9l-4.3-8c-0.9-0.4-2-0.6-2.5-1.6L68.9,88.1
	c-0.2-0.7-0.1-1.4,0.2-2l1.2-0.8c4-0.6,8.1-1.6,11.1-5c1.4-1.2,2.9-3.6,5-2.5l0.7,0.7L98.4,99c0.2,0.9-0.9,1.3-0.3,2.1l3.6,7.1
	c0.5,1.2-1,2.3,0.2,3.2l0.3-0.5c0.8-2.7,1.9-5.9,1.1-8.8c0.2-3.2,3.8-4.5,6.4-5.2l1.1-2.1c-0.6-0.9-0.8-2-0.4-3.1
	c3.2-7.4,6.4-14.8,9.7-22.2C120.6,69.2,121.2,69.1,121.6,69.4z"/>
<path class="st1" d="M143.1,84.4c-0.2,0.6-0.6,1.2-1,1.7c-8.7,1.2-16.1-4-21.7-10.2c0.2-0.8,0.5-1.5,0.9-2.2
	C127,79.7,133.9,85.2,143.1,84.4z"/>
<path class="st3" d="M140.2,88.6c-0.2,0.6-0.6,1.1-1,1.6c-8.4,0.3-15.3-4.1-20.8-10.1c0.2-0.6,0.4-1.3,0.8-1.8
	C124.8,84.3,131.6,89,140.2,88.6z"/>
<path class="st1" d="M137.6,92.5c-0.3,0.5-0.6,1.7-1.6,1.6c-8-0.1-14.3-4-19.7-9.2c0.1-0.8,0.4-1.5,0.9-2.2
	C122.8,88,129.2,92.8,137.6,92.5z"/>
<path class="st1" d="M95.3,98.7c0.1,2.5-2.8,3.7-4.5,5.1l-3.8,2c-0.3,0.4-0.4,0.9-0.1,1.4c1.5,1.6,3.1-0.6,4.6-1
	c1.7-1,3.3-2.1,4.8-3.4l3.5,6.3c-0.7,2.1-2.9,3.5-4.6,4.5c-2.1,1-4.2,2.4-6.6,1.9c-1.8-2.9-3.3-5.8-5-8.7c-0.9,0-1.8-0.5-2.2-1.3
	l-9.5-17.3c-0.1-0.6,0.6-0.6,0.9-0.9c4.6-0.5,9-3.6,12.3-6.9l0.6,0.1L95.3,98.7z"/>
<path class="st3" d="M135.1,96.1c-0.2,0.7-0.6,1.3-1.1,1.8c-7.8,0.2-14.1-3.6-19.4-8.6c0.1-0.8,0.4-1.6,0.8-2.2
	C120.9,92.1,127.1,96.1,135.1,96.1z"/>
<path class="st1" d="M132.4,99.9c0,0.6-0.5,0.9-0.9,1.4c-7.3,0.1-13.3-3.4-18.5-7.7c-0.3-0.6,0.1-1.4,0.4-1.9
	C118.7,96.1,124.8,99.8,132.4,99.9z"/>
<path class="st1" d="M128.5,103.7c-0.3,1.5-1.3,2.8-2.7,3.5c-2.9,1.6-6.6,1.1-9.5-0.4c-2.2-1.4-4.4-2.8-4.6-5.7c0-1.5,0.4-3,1.3-4.2
	C117.5,100.5,122.8,102.8,128.5,103.7z"/>
<path class="st4" d="M109,100.7c-0.5,3,1.4,5.8,3.8,7.3c3.6,2.7,9.6,3.9,13.8,1.7l1.6-0.9c0.4,0.4,0.5,1,0.2,1.6
	c-1.6,2.9-4.1,5.2-5.4,8.2c-0.6,4.6,3.7,7.9,3.1,12.6c-0.2,3.2-0.5,6.3-1.1,9.4c-0.5-4-2.8-7.6-6.4-9.6c-0.8-0.2-1.7-0.1-2.4,0.4
	c-0.6,0.5-1,1.1-1.3,1.8c-0.9-0.5-1.8,0-2.6,0.2c-1.4,0.8-2.2,2.3-2.1,3.9c-1.3,0.5-2.3,1.6-2.5,3c0.1,0.9-0.1,2,0.3,2.8
	c-2.4,3.1-1.5,7.5,0,10.6l0.9,1.1c-0.7,0.4-1.5,0.4-2.2,0.1c-2.9-1.4-2.8-5-2.6-7.9c-0.1-1.8,1.2-4.1-0.1-5.6
	c-0.5-0.2-1.1,0-1.4,0.6c0,0,0,0.1,0,0.1c-0.9,3.5-1.7,7.6-0.7,11c-2.1-1.4-2.4-4.1-2.2-6.4c0.2-2.9,0.8-5.8,1.6-8.6
	c0-0.5-0.2-0.9-0.6-1.2c-0.6-0.4-1.2,0.2-1.5,0.6c-1.2,3.7-1.7,7.5-1.6,11.4c-1.2-0.3-1.6-1.7-1.9-2.8c-0.5-3.5,0.7-7,1.4-10.3
	c0-0.5,0-1.3-0.7-1.5c-1.9,0.1-1.7,2.4-2.3,3.8l-0.5,3.5c-1.6-2.1-0.8-5.4-0.2-8c2.4-6.5,6.3-12.2,9.5-18.3c1.4-3.5,3.6-6.9,3.3-11
	c-0.3-1.1-0.1-2.2,0.4-3.2c0.7-0.6,1.5-1,2.4-1.1L109,100.7z"/>
<path class="st3" d="M100.7,114.1c-1.6,3.4-3.4,6.7-5.4,10h-0.1l-3.5-6.4c3-1.2,5.7-2.8,8.2-4.9
	C100.3,113.1,100.5,113.8,100.7,114.1z"/>
<path class="st2" d="M107.2,120.7c-0.1,1.2-0.5,2.3-0.5,3.3c1.2-1.7,2.4-3.9,4.3-4.7c0.5,0.1,1,0.5,1.1,1c0.5,4.5-0.8,9-2.2,13
	c-0.5-0.2-1-0.5-1.4-0.9c0.9-3,2.2-6,2.7-9.3c0-0.8,0.6-1.9-0.1-2.5c-1.4,0.8-2,2.3-2.9,3.6c-1,1.8-1.9,3.7-2.7,5.5
	c-0.5-0.6-2.5-1-1.6-2.1c1.4-2.8,2.3-5.9,2.6-9c-0.2-0.2-0.5-0.2-0.6,0c-2.3,2.4-4.1,5.2-5.5,8.2l-1.3-1c2-3.1,3.6-6.8,7.2-8.6
	c0.3,0,0.6,0.1,0.9,0.3C107.7,118.3,107.2,119.6,107.2,120.7z"/>
<path class="st3" d="M131.7,133.3c0.1,1.8-1.8,2.7-3,3.4c-0.1,0-0.5,0.1-0.4-0.1l0.2-2.5c0.9-0.6,1.8-1,2.9-1.2L131.7,133.3z"/>
<path class="st3" d="M121.9,138c0.5,1.3,1.6,3,0.3,4.3c-0.2,0-0.4,0.3-0.6,0.1c-1.1-3-2.8-5.7-5-8c0.1-0.5,0.1-1.1,0.7-1.4
	C119.9,133.2,120.8,136.1,121.9,138z"/>
<path class="st3" d="M117.7,139.2c0.6,2.2,3.7,4.8,1,6.8c-1.6-3.2-3.7-6-6.3-8.4c-0.2-0.6-0.2-1.2,0.1-1.7c0.3-0.4,0.7-0.6,1.1-0.7
	C115.6,135.6,116.6,137.7,117.7,139.2z"/>
<path class="st3" d="M114.9,143.3c1.1,1.6,1.9,3.4,2.2,5.4c-0.1,0.6-0.4,1.1-1,1.4l-1.2-0.2c-0.9-2.6-1.4-6.4-4.7-7.2
	c-0.6-0.9-0.7-1.9-0.3-2.9c0.5-0.4,1.2-0.5,1.7-0.1C113,140.5,114.1,141.8,114.9,143.3z"/>
<path class="st3" d="M111.4,146.3c0.8,1.8,1.2,3.7,1.2,5.7c-0.1,0.5-0.5,1.2-1.2,1.3c-1.9-0.2-2-2.6-2.7-4c-0.4-1.4-0.2-2.8,0.4-4.1
	C110.1,144.5,111.1,145.5,111.4,146.3z"/>
<path class="st2" d="M164.6,162.7c2,0,3.6,1.6,3.6,3.6c0,2-1.6,3.6-3.6,3.6c-2,0-3.6-1.6-3.6-3.6c0,0,0,0,0,0
	C161,164.3,162.5,162.7,164.6,162.7C164.5,162.7,164.6,162.7,164.6,162.7z M164.6,163.2c-1.7-0.1-3.1,1.2-3.2,2.9s1.2,3.1,2.9,3.2
	s3.1-1.2,3.2-2.9c0,0,0-0.1,0-0.1C167.5,164.7,166.2,163.3,164.6,163.2z M163.9,168.4h-0.6v-4c0.4-0.1,0.8-0.1,1.1-0.1
	c0.4,0,0.9,0.1,1.2,0.3c0.2,0.2,0.4,0.5,0.4,0.8c0,0.5-0.3,0.9-0.8,1l0,0c0.4,0.1,0.6,0.4,0.7,1c0,0.3,0.1,0.7,0.2,1h-0.7
	c-0.1-0.3-0.2-0.7-0.3-1c0-0.4-0.4-0.7-0.8-0.7c0,0-0.1,0-0.1,0h-0.4V168.4z M163.9,166.2h0.5c0.5,0,1-0.2,1-0.7s-0.3-0.7-1-0.7
	c-0.2,0-0.3,0-0.5,0V166.2z"/>
<path class="st5" d="M59.1,219.5c0-0.7,0.1-1.3,0.4-1.9c0.2-0.6,0.6-1.2,1-1.7c0.5-0.5,1-0.9,1.6-1.2c0.7-0.3,1.5-0.5,2.2-0.5
	c0.9,0,1.8,0.2,2.5,0.6c0.7,0.4,1.2,1,1.6,1.7l-1.6,1.1c-0.1-0.3-0.3-0.5-0.5-0.8c-0.2-0.2-0.4-0.4-0.6-0.5
	c-0.2-0.1-0.5-0.2-0.7-0.3c-0.2-0.1-0.5-0.1-0.7-0.1c-0.5,0-0.9,0.1-1.4,0.3c-0.4,0.2-0.7,0.5-1,0.8c-0.3,0.3-0.5,0.7-0.6,1.1
	c-0.1,0.4-0.2,0.8-0.2,1.3c0,0.5,0.1,0.9,0.2,1.4c0.1,0.4,0.4,0.8,0.6,1.1c0.3,0.3,0.6,0.6,1,0.8c0.4,0.2,0.8,0.3,1.3,0.3
	c0.3,0,0.5,0,0.8-0.1c0.3-0.1,0.5-0.2,0.7-0.3c0.2-0.1,0.5-0.3,0.6-0.5c0.2-0.2,0.4-0.5,0.5-0.7l1.7,1c-0.2,0.4-0.4,0.8-0.7,1.1
	c-0.3,0.3-0.7,0.6-1.1,0.8c-0.8,0.4-1.7,0.6-2.6,0.6c-0.7,0-1.4-0.2-2.1-0.5c-0.6-0.3-1.2-0.7-1.6-1.2c-0.5-0.5-0.8-1.1-1.1-1.8
	C59.2,220.9,59.1,220.2,59.1,219.5z"/>
<path class="st5" d="M74,225c-0.6,0-1.2-0.1-1.7-0.3c-0.5-0.2-0.9-0.5-1.3-0.9c-0.4-0.4-0.6-0.8-0.8-1.3c-0.2-0.5-0.3-1-0.3-1.5
	c0-0.5,0.1-1.1,0.3-1.6c0.2-0.5,0.5-0.9,0.8-1.3c0.4-0.4,0.8-0.7,1.3-0.9c0.5-0.2,1.1-0.3,1.7-0.3c0.6,0,1.2,0.1,1.7,0.3
	c0.5,0.2,0.9,0.5,1.3,0.9c0.4,0.4,0.6,0.8,0.8,1.3c0.2,0.5,0.3,1,0.3,1.5c0,0.1,0,0.3,0,0.4c0,0.1,0,0.2,0,0.3h-6.1
	c0,0.3,0.1,0.6,0.2,0.8c0.1,0.2,0.3,0.4,0.5,0.6c0.2,0.2,0.4,0.3,0.6,0.4c0.2,0.1,0.5,0.1,0.8,0.1c0.4,0,0.8-0.1,1.1-0.3
	c0.3-0.2,0.6-0.4,0.7-0.8l1.7,0.5c-0.3,0.6-0.8,1.1-1.4,1.5C75.7,224.9,74.9,225.1,74,225z M76,220.3c0-0.5-0.3-1-0.6-1.4
	c-0.4-0.4-0.9-0.5-1.4-0.5c-0.5,0-1,0.2-1.4,0.5c-0.2,0.2-0.3,0.4-0.4,0.6c-0.1,0.2-0.2,0.5-0.2,0.8H76z"/>
<path class="st5" d="M87.2,224.9h-2v-4.4c0-0.5-0.1-1-0.3-1.4c-0.2-0.3-0.6-0.4-0.9-0.4c-0.2,0-0.4,0-0.6,0.1
	c-0.2,0.1-0.4,0.2-0.6,0.3c-0.2,0.2-0.4,0.3-0.5,0.5c-0.1,0.2-0.3,0.4-0.3,0.7v4.6h-2V217h1.8v1.5c0.3-0.5,0.7-0.9,1.3-1.2
	c0.6-0.3,1.2-0.4,1.9-0.4c0.4,0,0.8,0.1,1.2,0.3c0.3,0.2,0.5,0.4,0.7,0.7c0.2,0.3,0.3,0.6,0.4,1c0.1,0.4,0.1,0.8,0.1,1.1L87.2,224.9
	z"/>
<path class="st5" d="M94.1,224.5c-0.3,0.1-0.7,0.3-1,0.4c-0.4,0.1-0.8,0.2-1.2,0.2c-0.3,0-0.5,0-0.8-0.1c-0.2-0.1-0.5-0.2-0.6-0.3
	c-0.2-0.2-0.3-0.4-0.4-0.6c-0.1-0.3-0.2-0.6-0.2-0.9v-4.5h-1V217h1v-2.5h2v2.5h1.6v1.5h-1.6v3.8c0,0.2,0.1,0.4,0.2,0.6
	c0.2,0.1,0.3,0.2,0.5,0.2c0.2,0,0.4,0,0.6-0.1l0.5-0.2L94.1,224.5z"/>
<path class="st5" d="M100.4,218.8c-0.6,0-1.1,0.1-1.6,0.4c-0.4,0.2-0.8,0.6-1,1v4.8h-2V217h1.8v1.7c0.1-0.3,0.3-0.5,0.5-0.7
	c0.2-0.2,0.4-0.4,0.6-0.6c0.2-0.1,0.4-0.3,0.7-0.4c0.2-0.1,0.4-0.1,0.6-0.1h0.4L100.4,218.8z"/>
<path class="st5" d="M104.1,225c-0.4,0-0.7-0.1-1.1-0.2c-0.3-0.1-0.6-0.3-0.9-0.5c-0.2-0.2-0.4-0.5-0.6-0.8c-0.1-0.3-0.2-0.7-0.2-1
	c0-0.3,0.1-0.7,0.2-1c0.2-0.3,0.4-0.6,0.7-0.8c0.3-0.2,0.7-0.4,1.1-0.5c0.4-0.1,0.9-0.2,1.4-0.2c0.3,0,0.7,0,1,0.1
	c0.3,0.1,0.6,0.1,0.9,0.2v-0.5c0-0.4-0.1-0.9-0.4-1.2c-0.4-0.3-0.8-0.5-1.3-0.4c-0.4,0-0.8,0.1-1.2,0.2c-0.4,0.2-0.8,0.4-1.2,0.7
	l-0.6-1.3c1-0.7,2.1-1,3.3-1c0.9-0.1,1.9,0.2,2.6,0.8c0.7,0.6,1,1.5,0.9,2.4v2.4c0,0.2,0,0.3,0.1,0.5c0.1,0.1,0.2,0.2,0.4,0.1v1.7
	c-0.3,0.1-0.6,0.1-0.9,0.1c-0.3,0-0.6-0.1-0.9-0.3c-0.2-0.2-0.3-0.4-0.4-0.7v-0.4c-0.3,0.4-0.8,0.8-1.3,1
	C105.2,224.9,104.6,225.1,104.1,225z M104.6,223.6c0.3,0,0.7-0.1,1-0.2c0.3-0.1,0.5-0.3,0.7-0.5c0.2-0.1,0.3-0.3,0.3-0.6v-0.9
	c-0.3-0.1-0.5-0.2-0.8-0.2c-0.3-0.1-0.5-0.1-0.8-0.1c-0.5,0-0.9,0.1-1.3,0.4c-0.3,0.2-0.5,0.5-0.5,0.9c0,0.3,0.1,0.6,0.4,0.9
	C104,223.5,104.3,223.6,104.6,223.6L104.6,223.6z"/>
<path class="st5" d="M111,213.9h2v8.4c0,0.2,0.1,0.5,0.2,0.7c0.2,0.2,0.4,0.3,0.6,0.2c0.1,0,0.3,0,0.4-0.1c0.1,0,0.3-0.1,0.4-0.1
	l0.3,1.5c-0.3,0.1-0.6,0.2-0.9,0.3c-0.3,0.1-0.7,0.1-1,0.1c-0.5,0-1.1-0.1-1.5-0.5c-0.4-0.4-0.6-0.9-0.5-1.4L111,213.9z"/>
<path class="st5" d="M124.7,225c-0.7,0-1.5-0.1-2.1-0.5c-0.6-0.3-1.2-0.7-1.6-1.2c-0.5-0.5-0.8-1.1-1.1-1.7c-0.2-0.6-0.4-1.3-0.4-2
	c0-0.7,0.1-1.4,0.4-2c0.3-0.6,0.6-1.2,1.1-1.7c0.5-0.5,1-0.9,1.7-1.2c0.7-0.3,1.4-0.4,2.1-0.4c0.7,0,1.5,0.2,2.1,0.5
	c0.6,0.3,1.2,0.7,1.6,1.2c0.5,0.5,0.8,1.1,1.1,1.7c0.2,0.6,0.4,1.3,0.4,2c0,0.7-0.1,1.4-0.4,2c-0.3,0.6-0.6,1.2-1.1,1.7
	c-0.5,0.5-1,0.9-1.6,1.2C126.2,224.8,125.5,225,124.7,225z M121.7,219.6c0,0.5,0.1,0.9,0.2,1.3c0.1,0.4,0.3,0.8,0.6,1.1
	c0.3,0.3,0.6,0.6,1,0.8c0.4,0.2,0.9,0.3,1.3,0.3c0.5,0,0.9-0.1,1.3-0.3c0.4-0.2,0.7-0.5,1-0.8c0.3-0.3,0.5-0.7,0.6-1.1
	c0.1-0.4,0.2-0.9,0.2-1.3c0-0.5-0.1-0.9-0.2-1.3c-0.1-0.4-0.3-0.8-0.6-1.1c-0.3-0.3-0.6-0.6-1-0.8c-0.4-0.2-0.9-0.3-1.3-0.3
	c-0.5,0-0.9,0.1-1.3,0.3c-0.4,0.2-0.7,0.5-1,0.8c-0.3,0.3-0.5,0.7-0.6,1.1C121.7,218.7,121.7,219.1,121.7,219.6z"/>
<path class="st5" d="M139.2,224.9h-2v-4.4c0-0.5-0.1-1-0.4-1.4c-0.2-0.3-0.6-0.5-1-0.4c-0.2,0-0.4,0-0.6,0.1
	c-0.2,0.1-0.4,0.2-0.6,0.3c-0.2,0.2-0.4,0.3-0.5,0.5c-0.1,0.2-0.3,0.4-0.3,0.7v4.6h-2v-10.9h2v4.5c0.3-0.5,0.7-0.9,1.2-1.2
	c0.5-0.3,1.1-0.4,1.6-0.4c0.4,0,0.9,0.1,1.2,0.3c0.3,0.2,0.6,0.4,0.8,0.7c0.2,0.3,0.3,0.6,0.4,1c0.1,0.4,0.1,0.8,0.1,1.1
	L139.2,224.9z"/>
<path class="st5" d="M141.4,215.9v-2h2v2H141.4z M141.4,224.9V217h2v7.9H141.4z"/>
<path class="st5" d="M149.4,225c-0.6,0-1.2-0.1-1.7-0.3c-0.5-0.2-0.9-0.5-1.3-0.9c-0.4-0.4-0.6-0.8-0.8-1.3c-0.2-0.5-0.3-1-0.3-1.5
	c0-0.5,0.1-1.1,0.3-1.6c0.2-0.5,0.5-0.9,0.8-1.3c0.4-0.4,0.8-0.7,1.3-0.9c0.5-0.2,1.1-0.3,1.7-0.3c0.6,0,1.2,0.1,1.7,0.3
	c1,0.4,1.7,1.2,2.1,2.2c0.2,0.5,0.3,1,0.3,1.6c0,0.5-0.1,1-0.3,1.5c-0.2,0.5-0.5,0.9-0.8,1.3c-0.4,0.4-0.8,0.7-1.3,0.9
	C150.6,224.9,150,225,149.4,225z M147.4,221c0,0.3,0,0.7,0.2,1c0.1,0.3,0.2,0.5,0.4,0.7c0.2,0.2,0.4,0.4,0.7,0.5
	c0.5,0.2,1.1,0.2,1.6,0c0.2-0.1,0.5-0.3,0.6-0.5c0.2-0.2,0.3-0.5,0.4-0.8c0.1-0.3,0.2-0.7,0.1-1c0-0.3,0-0.6-0.1-0.9
	c-0.1-0.3-0.2-0.5-0.4-0.8c-0.2-0.2-0.4-0.4-0.6-0.5c-0.3-0.1-0.5-0.2-0.8-0.2c-0.3,0-0.6,0.1-0.8,0.2c-0.2,0.1-0.5,0.3-0.7,0.5
	c-0.2,0.2-0.3,0.5-0.4,0.8C147.4,220.3,147.4,220.7,147.4,221z"/>
<rect y="239.6" class="st6" width="213.2" height="0.9"/>
<path class="st6" d="M3.7,266.4V254h2v6.4l5.8-6.4h2.1l-4.9,5.5l5.2,6.9h-2.2l-4.2-5.7l-1.9,2v3.7L3.7,266.4z"/>
<path class="st6" d="M19.4,266.6c-0.7,0-1.3-0.1-1.9-0.4c-0.6-0.2-1.1-0.6-1.5-1c-0.4-0.4-0.8-0.9-1-1.5c-0.2-0.6-0.3-1.2-0.3-1.8
	c0-0.6,0.1-1.2,0.3-1.8c0.2-0.6,0.6-1.1,1-1.5c0.4-0.4,0.9-0.8,1.5-1c0.6-0.3,1.3-0.4,2-0.4c0.7,0,1.3,0.1,1.9,0.4
	c0.6,0.2,1.1,0.6,1.5,1c0.4,0.4,0.7,0.9,0.9,1.5c0.2,0.6,0.3,1.2,0.3,1.8c0,0.1,0,0.3,0,0.4c0,0.1,0,0.2,0,0.3h-7.3
	c0,0.4,0.1,0.8,0.3,1.1c0.1,0.3,0.4,0.6,0.6,0.8c0.2,0.2,0.5,0.4,0.8,0.5c0.3,0.1,0.7,0.2,1,0.2c0.3,0,0.5,0,0.8-0.1
	c0.2-0.1,0.5-0.2,0.7-0.3c0.2-0.1,0.4-0.3,0.6-0.4c0.2-0.2,0.3-0.4,0.4-0.6l1.6,0.5c-0.3,0.7-0.9,1.3-1.6,1.7
	C21.2,266.4,20.3,266.6,19.4,266.6z M22.2,261.1c0-0.4-0.1-0.7-0.3-1.1c-0.1-0.3-0.3-0.6-0.6-0.8c-0.2-0.2-0.5-0.4-0.9-0.5
	c-0.3-0.1-0.7-0.2-1-0.2c-0.3,0-0.7,0.1-1,0.2c-0.3,0.1-0.6,0.3-0.8,0.5c-0.3,0.2-0.5,0.5-0.6,0.8c-0.2,0.3-0.3,0.7-0.3,1.1H22.2z"
	/>
<path class="st6" d="M30.6,266.6c-0.7,0-1.3-0.1-1.9-0.4c-0.6-0.2-1.1-0.6-1.5-1c-0.4-0.4-0.8-0.9-1-1.5c-0.2-0.6-0.3-1.2-0.3-1.8
	c0-0.6,0.1-1.2,0.3-1.8c0.2-0.6,0.6-1.1,1-1.5c0.4-0.4,0.9-0.8,1.5-1c0.6-0.3,1.3-0.4,1.9-0.4c0.7,0,1.3,0.1,1.9,0.4
	c0.6,0.2,1.1,0.6,1.5,1c0.4,0.4,0.7,0.9,0.9,1.5c0.2,0.6,0.3,1.2,0.3,1.8c0,0.1,0,0.3,0,0.4c0,0.1,0,0.2,0,0.3h-7.4
	c0,0.4,0.1,0.8,0.3,1.1c0.1,0.3,0.4,0.6,0.6,0.8c0.2,0.2,0.5,0.4,0.9,0.5c0.3,0.1,0.7,0.2,1,0.2c0.3,0,0.5,0,0.8-0.1
	c0.2-0.1,0.5-0.2,0.7-0.3c0.2-0.1,0.4-0.3,0.6-0.4c0.2-0.2,0.3-0.4,0.4-0.6l1.6,0.5c-0.3,0.7-0.9,1.3-1.6,1.7
	C32.3,266.4,31.5,266.6,30.6,266.6z M33.4,261.1c0-0.4-0.1-0.7-0.3-1.1c-0.1-0.3-0.3-0.6-0.6-0.8c-0.2-0.2-0.5-0.4-0.9-0.5
	c-0.3-0.1-0.7-0.2-1-0.2c-0.3,0-0.7,0.1-1,0.2c-0.3,0.1-0.6,0.3-0.8,0.5c-0.3,0.2-0.5,0.5-0.6,0.8c-0.2,0.3-0.3,0.7-0.3,1.1H33.4z"
	/>
<path class="st6" d="M42.8,266.6c-0.7,0-1.3-0.2-1.9-0.5c-0.5-0.3-1-0.8-1.3-1.4v5.5h-1.9v-12.9h1.7v1.6c0.3-0.5,0.8-1,1.4-1.3
	c0.6-0.3,1.2-0.5,1.9-0.5c0.6,0,1.2,0.1,1.7,0.4c0.5,0.2,1,0.6,1.4,1c0.4,0.4,0.7,1,0.9,1.5c0.2,0.6,0.3,1.2,0.3,1.8
	c0,0.6-0.1,1.3-0.3,1.9c-0.2,0.5-0.5,1.1-0.8,1.5c-0.4,0.4-0.8,0.8-1.3,1C43.9,266.4,43.3,266.6,42.8,266.6z M42.1,264.9
	c0.4,0,0.8-0.1,1.1-0.3c0.3-0.2,0.6-0.4,0.9-0.7c0.2-0.3,0.4-0.6,0.6-1c0.1-0.4,0.2-0.8,0.2-1.1c0-0.4-0.1-0.8-0.2-1.2
	c-0.1-0.4-0.3-0.7-0.6-1c-0.3-0.3-0.6-0.5-0.9-0.7c-0.4-0.2-0.7-0.2-1.1-0.2c-0.3,0-0.5,0.1-0.8,0.1c-0.3,0.1-0.5,0.2-0.8,0.4
	c-0.2,0.2-0.4,0.4-0.6,0.6c-0.2,0.2-0.3,0.4-0.4,0.7v2.4c0.1,0.3,0.3,0.5,0.4,0.8c0.2,0.2,0.4,0.4,0.6,0.6c0.2,0.2,0.5,0.3,0.7,0.4
	C41.6,264.8,41.9,264.9,42.1,264.9L42.1,264.9z"/>
<path class="st6" d="M49.3,255.8v-2.1h1.9v2.1H49.3z M49.3,266.4v-9.1h1.9v9.1H49.3z"/>
<path class="st6" d="M62.6,266.4h-2v-5.1c0-0.7-0.1-1.3-0.4-1.9c-0.3-0.4-0.7-0.6-1.2-0.6c-0.3,0-0.6,0.1-0.8,0.2
	c-0.3,0.1-0.6,0.3-0.8,0.4c-0.2,0.2-0.5,0.4-0.6,0.7c-0.2,0.3-0.3,0.6-0.4,0.9v5.4h-1.9v-9.1h1.8v1.9c0.4-0.6,0.9-1.1,1.5-1.5
	c0.7-0.4,1.4-0.5,2.2-0.5c0.5,0,0.9,0.1,1.3,0.3c0.3,0.2,0.6,0.5,0.8,0.8c0.2,0.4,0.4,0.8,0.4,1.2c0.1,0.5,0.1,1,0.1,1.4L62.6,266.4
	z"/>
<path class="st6" d="M69.2,266.5c-0.6,0-1.2-0.1-1.7-0.4c-0.5-0.2-1-0.6-1.3-1c-0.4-0.4-0.7-0.9-0.9-1.5c-0.2-0.6-0.3-1.2-0.3-1.8
	c0-0.6,0.1-1.2,0.3-1.8c0.2-0.6,0.5-1.1,0.9-1.5c0.4-0.4,0.8-0.8,1.3-1c0.5-0.3,1.1-0.4,1.7-0.4c0.7,0,1.3,0.2,1.9,0.5
	c0.5,0.4,1,0.8,1.4,1.4v-1.7h1.7v8.8c0,0.6-0.1,1.2-0.4,1.8c-0.2,0.5-0.6,0.9-1,1.3c-0.5,0.4-1,0.6-1.5,0.8
	c-0.6,0.2-1.3,0.3-1.9,0.3c-0.9,0-1.7-0.2-2.5-0.5c-0.7-0.3-1.2-0.8-1.7-1.4l1.1-1c0.3,0.5,0.8,0.9,1.4,1.1c0.6,0.3,1.2,0.4,1.8,0.4
	c0.4,0,0.8,0,1.1-0.2c0.7-0.2,1.3-0.7,1.6-1.3c0.2-0.4,0.2-0.8,0.2-1.2v-1.4c-0.3,0.6-0.8,1-1.3,1.3
	C70.4,266.3,69.8,266.5,69.2,266.5z M69.8,264.9c0.3,0,0.6-0.1,0.8-0.1c0.3-0.1,0.5-0.2,0.7-0.4c0.2-0.2,0.4-0.4,0.6-0.6
	c0.2-0.2,0.3-0.4,0.4-0.7v-2.4c-0.1-0.3-0.3-0.5-0.4-0.8c-0.2-0.2-0.4-0.4-0.6-0.6c-0.2-0.2-0.5-0.3-0.8-0.4
	c-0.3-0.1-0.5-0.1-0.8-0.2c-0.4,0-0.8,0.1-1.1,0.3c-0.3,0.2-0.6,0.4-0.8,0.7c-0.2,0.3-0.4,0.6-0.5,1c-0.1,0.4-0.2,0.8-0.2,1.2
	c0,0.4,0.1,0.8,0.2,1.2c0.1,0.4,0.3,0.7,0.6,1c0.3,0.3,0.6,0.5,0.9,0.7C69,264.9,69.4,264.9,69.8,264.9z"/>
<path class="st6" d="M82.9,266.4V259h-1.2v-1.5h1.2v-0.3c-0.1-1,0.2-1.9,0.8-2.7c0.5-0.7,1.3-1,2.1-1c0.4,0,0.7,0.1,1.1,0.1
	c0.3,0.1,0.7,0.2,1,0.4l-0.4,1.4c-0.2-0.1-0.4-0.2-0.6-0.3c-0.2-0.1-0.5-0.1-0.7-0.1c-0.4,0-0.8,0.2-1,0.5c-0.3,0.4-0.4,1-0.4,1.5
	v0.4h2.3v1.5h-2.3v7.4H82.9z"/>
<path class="st6" d="M91.7,266.6c-0.4,0-0.8-0.1-1.2-0.2c-0.4-0.1-0.7-0.3-1-0.6c-0.3-0.3-0.5-0.6-0.6-0.9c-0.2-0.4-0.2-0.7-0.2-1.1
	c0-0.4,0.1-0.8,0.3-1.2c0.2-0.4,0.5-0.7,0.8-0.9c0.4-0.3,0.8-0.5,1.2-0.6c0.5-0.1,1-0.2,1.6-0.2c0.8,0,1.6,0.1,2.4,0.4v-0.6
	c0-0.6-0.2-1.2-0.6-1.6c-0.5-0.4-1.1-0.6-1.7-0.6c-0.5,0-1,0.1-1.4,0.3c-0.5,0.2-1,0.5-1.4,0.8l-0.6-1.2c1.1-0.8,2.4-1.2,3.7-1.2
	c1.1-0.1,2.1,0.3,2.9,1c0.7,0.7,1.1,1.7,1.1,2.8v3.3c0,0.4,0.2,0.6,0.5,0.6v1.6l-0.5,0.1h-0.4c-0.3,0-0.6-0.1-0.9-0.3
	c-0.2-0.2-0.3-0.4-0.4-0.7l-0.1-0.6c-0.4,0.5-0.9,1-1.5,1.2C93,266.4,92.4,266.6,91.7,266.6z M92.2,265.2c0.5,0,0.9-0.1,1.3-0.3
	c0.4-0.1,0.7-0.4,1-0.7c0.2-0.1,0.4-0.4,0.4-0.7v-1.2c-0.3-0.1-0.7-0.2-1-0.3c-0.4-0.1-0.7-0.1-1.1-0.1c-0.6,0-1.2,0.1-1.7,0.4
	c-0.4,0.3-0.7,0.7-0.6,1.2c0,0.4,0.2,0.8,0.5,1.1C91.3,265,91.8,265.1,92.2,265.2L92.2,265.2z"/>
<path class="st6" d="M113.9,266.4h-1.9v-5.1c0-0.7-0.1-1.3-0.4-1.9c-0.3-0.4-0.7-0.6-1.2-0.6c-0.6,0-1.1,0.2-1.5,0.6
	c-0.5,0.4-0.8,1-1,1.6v5.4h-1.9v-5.1c0-0.7-0.1-1.3-0.4-1.9c-0.3-0.4-0.7-0.6-1.2-0.6c-0.6,0-1.1,0.2-1.5,0.6c-0.5,0.4-0.8,1-1,1.6
	v5.4h-1.9v-9.1h1.8v1.9c0.3-0.6,0.8-1.1,1.4-1.5c0.6-0.3,1.3-0.5,2-0.5c1.3-0.1,2.4,0.8,2.6,2.1c0.3-0.6,0.8-1.2,1.4-1.5
	c0.6-0.4,1.3-0.5,2-0.5c0.5,0,0.9,0.1,1.3,0.3c0.3,0.2,0.6,0.5,0.9,0.8c0.2,0.4,0.4,0.8,0.4,1.2c0.1,0.5,0.1,1,0.1,1.4L113.9,266.4z
	"/>
<path class="st6" d="M116.9,255.8v-2.1h1.9v2.1H116.9z M116.9,266.4v-9.1h1.9v9.1H116.9z"/>
<path class="st6" d="M121.9,253.7h1.9v10.1c0,0.3,0.1,0.6,0.3,0.8c0.2,0.2,0.5,0.3,0.7,0.3c0.1,0,0.3,0,0.4-0.1
	c0.2,0,0.3-0.1,0.5-0.2l0.3,1.5c-0.3,0.1-0.7,0.2-1,0.3c-0.3,0.1-0.7,0.1-1,0.1c-1,0.1-2-0.7-2.1-1.7c0-0.1,0-0.3,0-0.4L121.9,253.7
	z"/>
<path class="st6" d="M127.9,255.8v-2.1h1.9v2.1H127.9z M127.9,266.4v-9.1h1.9v9.1H127.9z"/>
<path class="st6" d="M137.1,266.6c-0.7,0-1.3-0.1-1.9-0.4c-0.6-0.2-1.1-0.6-1.5-1c-0.4-0.4-0.8-0.9-1-1.5c-0.2-0.6-0.3-1.2-0.3-1.8
	c0-0.6,0.1-1.2,0.3-1.8c0.2-0.6,0.6-1.1,1-1.5c0.4-0.4,0.9-0.8,1.5-1c0.6-0.3,1.3-0.4,2-0.4c0.7,0,1.3,0.1,1.9,0.4
	c0.6,0.2,1.1,0.6,1.5,1c0.4,0.4,0.7,0.9,0.9,1.5c0.2,0.6,0.3,1.2,0.3,1.8c0,0.1,0,0.3,0,0.4c0,0.1,0,0.2,0,0.3h-7.3
	c0,0.4,0.1,0.8,0.3,1.1c0.2,0.3,0.4,0.6,0.6,0.8c0.2,0.2,0.5,0.4,0.9,0.5c0.3,0.1,0.7,0.2,1,0.2c0.3,0,0.5,0,0.8-0.1
	c0.2-0.1,0.5-0.2,0.7-0.3c0.2-0.1,0.4-0.3,0.6-0.4c0.2-0.2,0.3-0.4,0.4-0.6l1.6,0.5c-0.3,0.7-0.9,1.3-1.6,1.7
	C138.9,266.4,138,266.6,137.1,266.6z M139.8,261.1c0-0.4-0.1-0.7-0.3-1.1c-0.1-0.3-0.4-0.6-0.6-0.8c-0.2-0.2-0.5-0.4-0.9-0.5
	c-0.3-0.1-0.7-0.2-1-0.2c-0.3,0-0.7,0.1-1,0.2c-0.3,0.1-0.6,0.3-0.9,0.5c-0.3,0.2-0.5,0.5-0.6,0.8c-0.2,0.3-0.3,0.7-0.3,1.1H139.8z"
	/>
<path class="st6" d="M147.4,266.6c-0.7,0-1.5-0.1-2.2-0.4c-0.7-0.2-1.3-0.6-1.9-1l0.8-1.2c0.5,0.4,1,0.7,1.6,0.9
	c0.5,0.2,1.1,0.3,1.6,0.3c0.5,0,0.9-0.1,1.4-0.3c0.3-0.2,0.5-0.6,0.5-0.9c0-0.4-0.2-0.7-0.5-0.8c-0.6-0.2-1.2-0.4-1.8-0.6
	c-0.6-0.1-1.1-0.3-1.5-0.4c-0.4-0.1-0.7-0.3-1-0.5c-0.2-0.2-0.4-0.4-0.6-0.6c-0.1-0.3-0.2-0.6-0.2-0.9c0-0.8,0.3-1.6,1-2.2
	c0.3-0.3,0.7-0.5,1.1-0.6c0.5-0.1,0.9-0.2,1.4-0.2c0.7,0,1.3,0.1,1.9,0.3c0.6,0.2,1.1,0.5,1.6,0.9l-0.8,1.1c-0.8-0.6-1.7-1-2.7-1
	c-0.4,0-0.9,0.1-1.2,0.3c-0.3,0.2-0.5,0.6-0.5,1c0,0.2,0,0.3,0.1,0.5c0.1,0.1,0.2,0.2,0.3,0.3c0.2,0.1,0.4,0.2,0.6,0.2
	c0.2,0.1,0.6,0.2,0.9,0.2c0.6,0.2,1.1,0.3,1.6,0.5c0.4,0.1,0.8,0.3,1.1,0.5c0.3,0.2,0.5,0.4,0.6,0.7c0.1,0.3,0.2,0.7,0.2,1
	c0,0.8-0.4,1.6-1,2.1C149.3,266.4,148.3,266.6,147.4,266.6z"/>
<path class="st6" d="M158,261.8c0-0.6,0.1-1.2,0.3-1.8c0.2-0.6,0.5-1.1,1-1.5c0.4-0.4,0.9-0.8,1.5-1c0.6-0.3,1.3-0.4,2-0.4
	c0.9,0,1.7,0.2,2.4,0.6c0.7,0.4,1.2,1,1.5,1.7l-1.9,0.6c-0.4-0.8-1.2-1.2-2.1-1.2c-0.7,0-1.4,0.3-1.9,0.9c-0.2,0.3-0.4,0.6-0.6,1
	c-0.1,0.4-0.2,0.8-0.2,1.2c0,0.4,0.1,0.8,0.2,1.2c0.1,0.4,0.3,0.7,0.6,1c0.2,0.3,0.5,0.5,0.9,0.7c0.3,0.2,0.7,0.2,1.1,0.2
	c0.2,0,0.5,0,0.7-0.1c0.2-0.1,0.4-0.1,0.6-0.3c0.2-0.1,0.4-0.2,0.5-0.4c0.1-0.1,0.2-0.3,0.3-0.5l1.9,0.6c-0.3,0.7-0.9,1.3-1.5,1.7
	c-0.8,0.5-1.6,0.7-2.5,0.7c-0.7,0-1.3-0.1-1.9-0.4c-0.6-0.2-1.1-0.6-1.5-1c-0.4-0.4-0.8-0.9-1-1.5C158.1,263.1,158,262.5,158,261.8z
	"/>
<path class="st6" d="M169.2,253.7h1.9v10.1c0,0.3,0.1,0.6,0.3,0.8c0.2,0.2,0.5,0.3,0.7,0.3c0.2,0,0.3,0,0.5-0.1
	c0.2,0,0.3-0.1,0.5-0.2l0.3,1.5c-0.3,0.1-0.7,0.2-1,0.3c-0.3,0.1-0.7,0.1-1,0.1c-0.6,0-1.1-0.2-1.5-0.5c-0.4-0.4-0.6-1-0.5-1.5
	L169.2,253.7z"/>
<path class="st6" d="M179.3,266.6c-0.7,0-1.4-0.1-2-0.4c-0.5-0.2-1-0.6-1.5-1c-0.4-0.4-0.7-0.9-0.9-1.5c-0.4-1.2-0.4-2.5,0-3.6
	c0.2-0.6,0.5-1.1,1-1.5c0.4-0.4,0.9-0.8,1.5-1c1.2-0.5,2.6-0.5,3.9,0c0.6,0.2,1.1,0.6,1.5,1c0.4,0.4,0.7,0.9,1,1.5
	c0.5,1.2,0.5,2.5,0,3.6c-0.2,0.6-0.5,1.1-1,1.5c-0.4,0.4-0.9,0.8-1.5,1C180.6,266.4,180,266.6,179.3,266.6z M176.6,261.8
	c0,0.4,0.1,0.8,0.2,1.2c0.1,0.4,0.3,0.7,0.6,1c0.2,0.3,0.5,0.5,0.9,0.6c0.3,0.2,0.7,0.2,1.1,0.2c0.4,0,0.7-0.1,1.1-0.2
	c0.3-0.2,0.6-0.4,0.9-0.7c0.2-0.3,0.4-0.6,0.6-1c0.3-0.8,0.3-1.6,0-2.4c-0.1-0.4-0.3-0.7-0.6-1c-0.2-0.3-0.5-0.5-0.9-0.7
	c-0.3-0.2-0.7-0.2-1.1-0.2c-0.4,0-0.7,0.1-1.1,0.2c-0.3,0.2-0.6,0.4-0.9,0.7c-0.3,0.3-0.5,0.6-0.6,1
	C176.7,261,176.6,261.4,176.6,261.8z"/>
<path class="st6" d="M189.8,266.6c-0.7,0-1.5-0.1-2.2-0.4c-0.7-0.2-1.3-0.5-1.9-1l0.8-1.2c0.5,0.4,1,0.7,1.6,0.9
	c0.5,0.2,1.1,0.3,1.6,0.3c0.5,0,0.9-0.1,1.4-0.3c0.3-0.2,0.5-0.6,0.5-0.9c0-0.4-0.2-0.7-0.6-0.8c-0.6-0.2-1.1-0.4-1.7-0.6
	c-0.6-0.1-1.1-0.3-1.5-0.4c-0.4-0.1-0.7-0.3-1-0.5c-0.2-0.2-0.4-0.4-0.6-0.6c-0.1-0.3-0.2-0.6-0.2-0.9c0-0.4,0.1-0.9,0.3-1.2
	c0.2-0.4,0.4-0.7,0.8-0.9c0.3-0.3,0.7-0.5,1.1-0.6c0.5-0.1,0.9-0.2,1.4-0.2c0.7,0,1.3,0.1,1.9,0.3c0.6,0.2,1.1,0.5,1.6,0.9l-0.8,1.1
	c-0.8-0.6-1.7-1-2.7-1c-0.4,0-0.9,0.1-1.2,0.3c-0.3,0.2-0.5,0.6-0.5,1c0,0.2,0,0.3,0.1,0.5c0.1,0.1,0.2,0.2,0.3,0.3
	c0.2,0.1,0.4,0.2,0.6,0.2c0.2,0.1,0.6,0.2,0.9,0.2c0.6,0.2,1.1,0.3,1.6,0.5c0.4,0.1,0.8,0.3,1.1,0.5c0.3,0.2,0.5,0.4,0.6,0.7
	c0.2,0.3,0.2,0.7,0.2,1c0,0.8-0.4,1.6-1,2.1C191.7,266.4,190.7,266.6,189.8,266.6z"/>
<path class="st6" d="M200.1,266.6c-0.7,0-1.3-0.1-1.9-0.4c-0.6-0.2-1.1-0.6-1.5-1c-0.4-0.4-0.8-0.9-1-1.5c-0.2-0.6-0.3-1.2-0.3-1.8
	c0-0.6,0.1-1.2,0.3-1.8c0.2-0.6,0.6-1.1,1-1.5c0.4-0.4,0.9-0.8,1.5-1c0.6-0.3,1.3-0.4,2-0.4c0.7,0,1.3,0.1,1.9,0.4
	c0.6,0.2,1.1,0.6,1.5,1c0.4,0.4,0.7,0.9,0.9,1.5c0.2,0.6,0.3,1.2,0.3,1.8c0,0.1,0,0.3,0,0.4c0,0.1,0,0.2,0,0.3h-7.3
	c0,0.4,0.1,0.8,0.3,1.1c0.1,0.3,0.4,0.6,0.6,0.8c0.2,0.2,0.5,0.4,0.9,0.5c0.3,0.1,0.7,0.2,1,0.2c0.3,0,0.5,0,0.8-0.1
	c0.2-0.1,0.5-0.2,0.7-0.3c0.2-0.1,0.4-0.3,0.5-0.4c0.2-0.2,0.3-0.4,0.4-0.6l1.6,0.5c-0.3,0.7-0.9,1.3-1.6,1.7
	C201.9,266.4,201,266.6,200.1,266.6z M202.8,261.1c0-0.4-0.1-0.7-0.3-1.1c-0.1-0.3-0.4-0.6-0.6-0.8c-0.2-0.2-0.5-0.4-0.9-0.5
	c-0.3-0.1-0.7-0.2-1-0.2c-0.3,0-0.7,0.1-1,0.2c-0.3,0.1-0.6,0.3-0.9,0.5c-0.3,0.2-0.5,0.5-0.6,0.8c-0.2,0.3-0.3,0.7-0.3,1.1H202.8z"
	/>
<path class="st6" d="M207.7,254.8c1,0,1.9,0.8,1.9,1.8c0,1-0.8,1.9-1.8,1.9c-1,0-1.9-0.8-1.9-1.8c0,0,0,0,0,0
	C205.9,255.7,206.7,254.9,207.7,254.8C207.7,254.8,207.7,254.8,207.7,254.8z M207.7,255.1c-0.9,0-1.6,0.6-1.6,1.5
	c0,0.9,0.6,1.6,1.5,1.6c0.9,0,1.6-0.6,1.6-1.5c0,0,0-0.1,0-0.1C209.2,255.9,208.6,255.2,207.7,255.1
	C207.7,255.1,207.7,255.1,207.7,255.1z M207.4,257.8H207v-2.1c0.2,0,0.4-0.1,0.6,0c0.2,0,0.4,0,0.6,0.2c0.1,0.1,0.2,0.3,0.2,0.4
	c0,0.2-0.2,0.4-0.4,0.5l0,0c0.2,0,0.3,0.2,0.3,0.5c0,0.2,0.1,0.3,0.1,0.5h-0.3c-0.1-0.2-0.1-0.3-0.1-0.5c0-0.2-0.2-0.4-0.4-0.4
	c0,0,0,0,0,0h-0.2V257.8z M207.4,256.6h0.2c0.3,0,0.5-0.1,0.5-0.4s-0.1-0.3-0.5-0.3h-0.2L207.4,256.6z"/>
</svg>
