<svg id="Layer_1" data-name="Layer 1" xmlns="http://www.w3.org/2000/svg" viewBox="0 0 213.17 270.28"><defs><style>.cls-1{fill:#638dc9;}.cls-2{fill:#e32b26;}.cls-3{fill:#fff;}.cls-4{fill:#231f20;}.cls-5{fill:#ffc628;}.cls-6{fill:#636466;}.cls-7{fill:#939598;}</style></defs><title>RMHC of Central Ohio Vertical Logo with Tagline - Blue Text</title><path class="cls-1" d="M273.56,265.57h.27c.31,0,.58-.12.58-.4s-.15-.41-.58-.41h-.27Zm0,1.3h-.37v-2.35a4.08,4.08,0,0,1,.67,0,1.28,1.28,0,0,1,.73.17.61.61,0,0,1,.21.49.58.58,0,0,1-.46.57v0c.21,0,.35.22.39.57a2.4,2.4,0,0,0,.15.58h-.39a1.68,1.68,0,0,1-.16-.6.43.43,0,0,0-.5-.41h-.27Zm.4-3a1.78,1.78,0,1,0,1.69,1.78,1.73,1.73,0,0,0-1.69-1.78Zm0-.33a2.11,2.11,0,0,1,0,4.22,2.11,2.11,0,0,1,0-4.22Z" transform="translate(-109.42 -80.86)"/><path class="cls-1" d="M164.77,284.2V263.67h8.94a5.83,5.83,0,0,1,2.56.58,6.67,6.67,0,0,1,2,1.52,7.23,7.23,0,0,1,1.32,2.14,6.51,6.51,0,0,1,.48,2.44,7,7,0,0,1-.29,2,7.62,7.62,0,0,1-.81,1.76,5.66,5.66,0,0,1-1.27,1.4,5.4,5.4,0,0,1-1.65.89l4.83,7.8H177.2l-4.45-7.14H168v7.14Zm3.24-10h5.67a2.56,2.56,0,0,0,1.26-.31,3,3,0,0,0,1-.84,4.29,4.29,0,0,0,.64-1.22,4.78,4.78,0,0,0,.23-1.48,3.81,3.81,0,0,0-.28-1.47,4.1,4.1,0,0,0-.72-1.22,3.43,3.43,0,0,0-1-.82,2.55,2.55,0,0,0-1.23-.31H168Z" transform="translate(-109.42 -80.86)"/><path class="cls-1" d="M207.79,284.2V269.43l-6.1,11.19H199.9l-6.13-11.19V284.2h-3.24V263.67H194l6.79,12.55,6.8-12.55h3.47V284.2Z" transform="translate(-109.42 -80.86)"/><path class="cls-1" d="M239.19,263.67V284.2h-3.26v-9.05H225.57v9.05h-3.24V263.67h3.24v8.59h10.36v-8.59Z" transform="translate(-109.42 -80.86)"/><path class="cls-1" d="M249.16,273.79a10.57,10.57,0,0,1,.67-3.68,10,10,0,0,1,1.95-3.3,9.74,9.74,0,0,1,3.14-2.35,9.45,9.45,0,0,1,4.19-.9,8.88,8.88,0,0,1,4.8,1.24,8.14,8.14,0,0,1,3,3.24l-2.55,1.7a5.68,5.68,0,0,0-1-1.55,4.92,4.92,0,0,0-1.33-1,5.86,5.86,0,0,0-1.5-.54,8,8,0,0,0-1.51-.15,5.94,5.94,0,0,0-2.83.65,6.29,6.29,0,0,0-2,1.72,7.81,7.81,0,0,0-1.24,2.4,8.74,8.74,0,0,0-.42,2.66,8.27,8.27,0,0,0,.49,2.86,7.69,7.69,0,0,0,1.38,2.4,6.48,6.48,0,0,0,2.09,1.66,5.69,5.69,0,0,0,2.66.62,7,7,0,0,0,1.55-.18,6,6,0,0,0,2.89-1.67,5.08,5.08,0,0,0,1-1.53l2.68,1.53a6,6,0,0,1-1.38,2,8.57,8.57,0,0,1-2,1.49,10,10,0,0,1-2.38.92,9.71,9.71,0,0,1-2.47.33,8.56,8.56,0,0,1-4-.93,10.48,10.48,0,0,1-3.1-2.41,11.18,11.18,0,0,1-2-3.39A10.79,10.79,0,0,1,249.16,273.79Z" transform="translate(-109.42 -80.86)"/><path class="cls-2" d="M268.59,88.46l.3,5.43c-1.58,0-.45,2.11-1.8,2.18-2.41,7.46-10,6.4-12.95,13.33-1.58,2.18-3,4.36-2.94,7.22l-1.43,1.14c.15.45.75.37,1,.37v1.43h-2.48c-1.81-5.49,3.39-10.84,1-16.64-3.84-5-12.27-9-8.28-16.26.91.3,1.58-.83,1.81-1.43.07-.38-.23-.53-.38-.76,2-2.86,6-2,8.66-2.18,1,.15,1.73,1.13,2.56,1.81,2-1.21,2.79-3.32,5.8-2.49l.68-.75C263.7,82.52,268.74,83.42,268.59,88.46Z" transform="translate(-109.42 -80.86)"/><path class="cls-3" d="M265.28,87.41c.3,2.11.38,5.12-.68,7.23-.52.75-2.56,1.13-2.56,2.48h-.67L253,104.73c-.53-5.5-5.65-6.7-7.91-11.22-2-.38-1.58-2.79-1.13-4a12.12,12.12,0,0,1,4-4.29c2.19-.83,4.22,1,4.67,3.23,2.11.38,1.66,4.07,4,2.87,1.21-1.06.83-2,.38-3.24-.53-.68-1.51-1.36-.76-2.49C258.8,84,264.3,83.5,265.28,87.41Z" transform="translate(-109.42 -80.86)"/><path class="cls-4" d="M217.41,110.13c1.54,4.32,6.15,7,9.52,9.81,4.53,3.07,8.34,6.51,12.66,9.52,3.15-3.37.95-9.59,3.81-13.4,2-1.54,3.51,1.68,5.63,2.85,2.06-.37,4.91.88,6-1.1.66.3,1.83,1.1,1.75,1.76-5.34,3.88-4,11.57-6.66,16.55.44,1.75-.8,2.78-.36,4.53,4.9,6.08,11.93,10.11,17.93,15.16,1-.44,1.83.66,2.05,1.39-.51-.07-.73.58-1.39.36-2.27,7.4-1.24,14.43-3.15,21.09,1.61.95,0,2.34,0,3.51,1.32,7.84-2.71,15.74.73,23.5.44,1.46-.8,2.56-.36,3.52-.73,4.1,1.39,10.54,0,14.78.44,1,.14,2.78-.37,4.25.37,6.59-.29,11.93-.36,17.86.29,1,1.61,2.05,2.49,1.1.21.87-1.4,2.34-1.1,3.51a90.23,90.23,0,0,1-16.47-1.1c-14.43,1.54-30.38,3.44-43.93-.29-11.93,1-22.76,1.32-34.47-.36-.66,1.31-2.35.43-3.52.65-1.1-1.75-2.34,1.1-3.52-1,2.35-4.47-1-8.86,1.1-13.69.44-10.47.44-22,1.4-32.72h.36c.15-7.25,2.42-12.81,1.76-20,.8-6.22.07-12.22-.73-18.66-.66-1-2.71-.3-2.42-2.05-.59-2.13,3.51-2.79,2.78-5.64.59-.66,1.69-.29,2.49-.37,1.61-3.07,4.47-5.19,6.66-7.75,4.18-2.64,5.71-7.33,10.18-9.45,7.39-7.69,16.76-13.18,22.47-21.82a9.24,9.24,0,0,0,3.52-5.63c-2.27-.22-1.32-2-1-3.51h2.42c-.08.36.21.58.36.73,1.83.07,2-2.71,4.25-2.13Z" transform="translate(-109.42 -80.86)"/><path class="cls-3" d="M218.8,116.79c3,1.61,5,4.91,8.49,6,0,1.4,1.83,2.2,2.42,2.78,1.83,2.27,4.61,3.81,6,5.64,4.91,3.3,7.69,7.25,10.17,11.94,6.59,4.39,11.14,9.95,17.57,14a43.91,43.91,0,0,0,0,11.57c-.8.66.08,2.85-.73,3.88s-1.46,3.29-.66,4.9h-.73c.29,4.69,0,10.76-1.39,14.79.95,3.37-.59,7.17,1.39,10.54.22,14.05-.14,28.41-1,42.9-.52.87-2.12-.37-2.12,1h-.74c-1-2.12-2.93-.29-4.9-1-6.67.51-13.25,2.26-20.72,2.05a112.35,112.35,0,0,1-19.32-1v-.36c-4.77-1.4-10.18-.37-15.09,0-5.85,1.68-12.51-.23-19,.36v-.36a6.8,6.8,0,0,0-4.54,0v.36c-.29-1-1.83-.59-2.78-.73.22.73-2-.07-2.85-.29.29-21.82,2.05-46.85,3.88-69.26a36.82,36.82,0,0,1,0-18.3c3.36-2.27,4.53-6.29,8.41-8.41,9.59-13.33,24.89-19.77,33-34.41C215.21,111.89,217.63,115.84,218.8,116.79Z" transform="translate(-109.42 -80.86)"/><path class="cls-3" d="M252.18,121.33c-.66,2.2-.29,6-2.41,7.76L248,136.85c-1.17.29-.88-.44-1.39-1.1-1.54-2.34-4.25-2.34-5.27-4.9,1.09-3.67,1.46-7.62,2.78-11.28C247.28,119.06,248.88,123.31,252.18,121.33Z" transform="translate(-109.42 -80.86)"/><path class="cls-4" d="M231,150.26c5.23,6.91,12,11.7,20.6,12.62a27.52,27.52,0,0,0,3.69-.32.9.9,0,0,1,.85.88l-.35,1.05-12.89,19.34c-.63,1.33-2.41.35-2.71,1.81l-.57,1.23a6.59,6.59,0,0,1,.51,5.25c-1.82,2.83-4.6,4.93-5.58,8.19.35,2.42,1.88,4.4,2.64,6.71a12.43,12.43,0,0,1,.92,5.14c1.29-.52,3.12-1.52,4.32-.16s.78,3.1.1,4.47c-1,2-3.49,3.11-5.37,4.16-.46,1.53-.5,3.41-2.07,4.29a8.28,8.28,0,0,1-3.52,1,3.81,3.81,0,0,1-3,3c-.06,1.13.08,2.63-1,3.31a3.3,3.3,0,0,1-2.95.75,4.16,4.16,0,0,1-2.64,3.59l-1.6.13c-1.33,1.4-3.16,1.47-5,1.14a6,6,0,0,1-2.71-1.66,4.28,4.28,0,0,1-3.88-1.73,9.52,9.52,0,0,1-1.2-2.3,5.39,5.39,0,0,1-4.33-4.2l-.37-2.22c-3.91-3.46-3.15-9.57-1.52-13.91l1.86-4.22c-1.38-3-3.19-5.66-4.73-8.59-.92-.14-2.12,0-2.68-.92l-4.34-8c-.9-.43-2-.59-2.51-1.59L178.32,169a2.58,2.58,0,0,1,.25-2l1.22-.82c4-.58,8.13-1.55,11.15-5,1.36-1.25,2.88-3.57,5-2.47l.67.67,11.26,20.44c.16.86-.88,1.34-.26,2.1l3.58,7.14c.52,1.2-1,2.28.22,3.24l.34-.46c.82-2.68,1.94-5.89,1.14-8.79.23-3.25,3.82-4.47,6.37-5.25l1.15-2.11a3.36,3.36,0,0,1-.43-3.07c3.18-7.45,6.44-14.79,9.66-22.19A1,1,0,0,1,231,150.26Z" transform="translate(-109.42 -80.86)"/><path class="cls-2" d="M252.5,165.21a5.75,5.75,0,0,1-1,1.68c-8.69,1.25-16.13-4-21.74-10.21a7.16,7.16,0,0,1,.87-2.24C236.39,160.56,243.35,166.06,252.5,165.21Z" transform="translate(-109.42 -80.86)"/><path class="cls-3" d="M249.59,169.51a5.78,5.78,0,0,1-1,1.59c-8.45.34-15.28-4.07-20.81-10.07a5.67,5.67,0,0,1,.82-1.8C234.24,165.14,241,169.84,249.59,169.51Z" transform="translate(-109.42 -80.86)"/><path class="cls-2" d="M247,173.37c-.34.5-.62,1.71-1.55,1.62-8-.07-14.29-4-19.66-9.21a6.25,6.25,0,0,1,.87-2.19C232.23,168.85,238.63,173.61,247,173.37Z" transform="translate(-109.42 -80.86)"/><path class="cls-2" d="M204.72,179.54c.09,2.53-2.75,3.68-4.48,5.14l-3.76,2a1.26,1.26,0,0,0-.14,1.37c1.47,1.64,3.12-.58,4.56-1a31.09,31.09,0,0,0,4.75-3.43l3.47,6.33c-.66,2.06-2.88,3.48-4.62,4.54-2.08,1-4.25,2.39-6.62,1.9-1.8-2.85-3.28-5.82-5-8.67a2.3,2.3,0,0,1-2.19-1.31l-9.54-17.3c-.14-.61.6-.63.92-.85,4.65-.47,9-3.6,12.33-6.87l.58.15Z" transform="translate(-109.42 -80.86)"/><path class="cls-3" d="M244.48,177a5.56,5.56,0,0,1-1.07,1.77c-7.79.16-14.09-3.65-19.43-8.64a5,5,0,0,1,.82-2.25C230.29,172.91,236.47,177,244.48,177Z" transform="translate(-109.42 -80.86)"/><path class="cls-2" d="M241.82,180.76c0,.6-.54.93-.88,1.39-7.33.06-13.32-3.37-18.53-7.71-.33-.62.09-1.38.39-1.89C228.15,177,234.21,180.63,241.82,180.76Z" transform="translate(-109.42 -80.86)"/><path class="cls-2" d="M237.88,184.57a5.15,5.15,0,0,1-2.74,3.53c-2.93,1.59-6.59,1.07-9.47-.36-2.18-1.4-4.41-2.82-4.57-5.66a7.21,7.21,0,0,1,1.31-4.22A35.09,35.09,0,0,0,237.88,184.57Z" transform="translate(-109.42 -80.86)"/><path class="cls-5" d="M218.43,181.52c-.49,3,1.4,5.78,3.77,7.31,3.64,2.69,9.65,3.94,13.78,1.74l1.58-.94a1.55,1.55,0,0,1,.24,1.57c-1.62,2.85-4.14,5.17-5.43,8.21-.57,4.59,3.7,7.9,3.13,12.59a68.35,68.35,0,0,1-1.15,9.44,12.73,12.73,0,0,0-6.36-9.6,3.51,3.51,0,0,0-2.41.35,4.45,4.45,0,0,0-1.32,1.84c-.89-.48-1.83,0-2.64.18a4.11,4.11,0,0,0-2.12,3.85,3.76,3.76,0,0,0-2.48,3c.1.9-.15,2,.31,2.75-2.44,3.07-1.49,7.47,0,10.64l.88,1.08a2.25,2.25,0,0,1-2.18.07c-2.93-1.38-2.77-5-2.57-7.93-.07-1.79,1.21-4.13-.08-5.55a1.05,1.05,0,0,0-1.4.65c-.9,3.47-1.66,7.61-.67,11-2.14-1.36-2.36-4.1-2.17-6.45a45.91,45.91,0,0,1,1.56-8.61,1.43,1.43,0,0,0-.57-1.2c-.61-.36-1.21.18-1.46.65a32.4,32.4,0,0,0-1.59,11.42c-1.16-.27-1.56-1.74-1.9-2.76-.49-3.47.7-7,1.43-10.26,0-.54,0-1.34-.74-1.46-1.85.12-1.73,2.4-2.31,3.78l-.5,3.46c-1.57-2.13-.79-5.42-.24-8,2.44-6.48,6.28-12.18,9.47-18.3,1.44-3.47,3.57-6.87,3.29-11a4.27,4.27,0,0,1,.42-3.18,5,5,0,0,1,2.39-1.14Z" transform="translate(-109.42 -80.86)"/><path class="cls-3" d="M210.14,195c-1.59,3.45-3.45,6.73-5.37,10l-.15,0-3.46-6.39a32.52,32.52,0,0,0,8.22-4.86C209.75,194,209.88,194.62,210.14,195Z" transform="translate(-109.42 -80.86)"/><path class="cls-4" d="M216.66,201.53c-.07,1.18-.53,2.28-.53,3.32,1.16-1.67,2.37-3.87,4.33-4.71a1.33,1.33,0,0,1,1.09,1c.54,4.46-.76,9-2.2,13a4.71,4.71,0,0,1-1.44-.93c.85-3,2.23-6,2.67-9.29,0-.79.59-1.92-.1-2.49-1.42.8-2,2.33-2.94,3.57-1,1.78-1.85,3.68-2.67,5.47-.49-.59-2.53-1-1.57-2.14a27.5,27.5,0,0,0,2.65-9,.46.46,0,0,0-.64,0,30.81,30.81,0,0,0-5.49,8.21l-1.34-1c2-3.12,3.61-6.76,7.16-8.63a1.13,1.13,0,0,1,.86.33C217.1,199.15,216.67,200.49,216.66,201.53Z" transform="translate(-109.42 -80.86)"/><path class="cls-3" d="M241.12,214.2c.12,1.79-1.76,2.69-3,3.36-.15,0-.51.15-.43-.14l.25-2.5a7.77,7.77,0,0,1,2.85-1.25Z" transform="translate(-109.42 -80.86)"/><path class="cls-3" d="M231.34,218.86c.47,1.28,1.63,3,.32,4.28-.25,0-.38.26-.61.14a21.43,21.43,0,0,0-5-8c.15-.48.12-1.13.74-1.42C229.35,214.1,230.2,217,231.34,218.86Z" transform="translate(-109.42 -80.86)"/><path class="cls-3" d="M227.07,220.06c.62,2.19,3.72,4.83,1,6.84a29.22,29.22,0,0,0-6.33-8.42,2.11,2.11,0,0,1,.12-1.72,1.86,1.86,0,0,1,1.11-.68C225,216.43,226,218.52,227.07,220.06Z" transform="translate(-109.42 -80.86)"/><path class="cls-3" d="M224.28,224.14a14.53,14.53,0,0,1,2.23,5.36,1.68,1.68,0,0,1-1,1.39l-1.17-.22c-.93-2.56-1.43-6.38-4.72-7.16a3.2,3.2,0,0,1-.3-2.9,1.29,1.29,0,0,1,1.69-.08A8.94,8.94,0,0,1,224.28,224.14Z" transform="translate(-109.42 -80.86)"/><path class="cls-3" d="M220.86,227.15a14.66,14.66,0,0,1,1.25,5.72c-.15.53-.52,1.24-1.22,1.26-1.95-.24-2-2.57-2.67-4a5.88,5.88,0,0,1,.41-4.06C219.51,225.33,220.54,226.33,220.86,227.15Z" transform="translate(-109.42 -80.86)"/><path class="cls-4" d="M274,243.55a3.61,3.61,0,1,1-3.58,3.6,3.55,3.55,0,0,1,3.58-3.6Zm0,.56a3.05,3.05,0,1,0,2.9,3.06,3,3,0,0,0-2.9-3.06Zm-.67,5.14h-.64v-4a6.78,6.78,0,0,1,1.14-.1,2.06,2.06,0,0,1,1.24.31,1,1,0,0,1,.37.83,1,1,0,0,1-.78,1v0c.35.06.59.38.67,1a3.37,3.37,0,0,0,.25,1h-.67a3.18,3.18,0,0,1-.27-1,.75.75,0,0,0-.87-.7h-.44Zm0-2.23h.46c.53,0,1-.19,1-.69s-.26-.7-1-.7a4.19,4.19,0,0,0-.46,0Z" transform="translate(-109.42 -80.86)"/><path class="cls-6" d="M168.55,300.35a5.57,5.57,0,0,1,.35-1.92,5.32,5.32,0,0,1,1-1.71,5.19,5.19,0,0,1,1.65-1.21,5.1,5.1,0,0,1,2.22-.47,4.82,4.82,0,0,1,2.54.65,4.09,4.09,0,0,1,1.6,1.68l-1.59,1.09a2.61,2.61,0,0,0-.51-.75,2.47,2.47,0,0,0-.65-.49,2.7,2.7,0,0,0-.72-.26,3.1,3.1,0,0,0-.73-.09,2.82,2.82,0,0,0-1.36.32,3,3,0,0,0-1,.82,3.66,3.66,0,0,0-.58,1.13,4.35,4.35,0,0,0-.19,1.27,4.17,4.17,0,0,0,.22,1.36,3.67,3.67,0,0,0,.64,1.15,3.29,3.29,0,0,0,1,.79,2.73,2.73,0,0,0,1.27.3,3.33,3.33,0,0,0,.75-.09,2.76,2.76,0,0,0,.74-.28,2.61,2.61,0,0,0,.65-.51,2.25,2.25,0,0,0,.48-.74l1.7,1a3.2,3.2,0,0,1-.73,1.06,4.8,4.8,0,0,1-1.06.77,5.6,5.6,0,0,1-2.59.64,4.56,4.56,0,0,1-2.09-.48,5.41,5.41,0,0,1-1.62-1.25,5.8,5.8,0,0,1-1.07-1.75A5.64,5.64,0,0,1,168.55,300.35Z" transform="translate(-109.42 -80.86)"/><path class="cls-6" d="M183.46,305.9a4.45,4.45,0,0,1-1.71-.32,3.87,3.87,0,0,1-1.31-.88,4,4,0,0,1-.83-1.29,4.21,4.21,0,0,1-.29-1.54,4.34,4.34,0,0,1,.28-1.58,3.9,3.9,0,0,1,.83-1.31,4.05,4.05,0,0,1,1.31-.89,4.37,4.37,0,0,1,1.73-.33,4.26,4.26,0,0,1,1.72.33,3.84,3.84,0,0,1,1.29.88,3.62,3.62,0,0,1,.81,1.29,4.19,4.19,0,0,1,.28,1.53c0,.13,0,.26,0,.38a1.21,1.21,0,0,1,0,.3h-6.07a2.3,2.3,0,0,0,.22.82,2.08,2.08,0,0,0,.47.62,2,2,0,0,0,.64.39,2.11,2.11,0,0,0,.75.13,2.41,2.41,0,0,0,1.14-.29,1.53,1.53,0,0,0,.72-.77l1.73.48a3.44,3.44,0,0,1-1.39,1.47A4.23,4.23,0,0,1,183.46,305.9Zm2-4.74a2.13,2.13,0,0,0-.65-1.42,2,2,0,0,0-1.41-.53,2.12,2.12,0,0,0-1.38.54,2.17,2.17,0,0,0-.44.62,2.24,2.24,0,0,0-.2.79Z" transform="translate(-109.42 -80.86)"/><path class="cls-6" d="M196.63,305.75h-2v-4.41a2.3,2.3,0,0,0-.33-1.38,1.09,1.09,0,0,0-.92-.43,1.7,1.7,0,0,0-.61.12,2.29,2.29,0,0,0-.59.33,2.79,2.79,0,0,0-.51.52,2,2,0,0,0-.33.66v4.59h-2v-7.86h1.82v1.46a3,3,0,0,1,1.26-1.17,4,4,0,0,1,1.86-.42,2.37,2.37,0,0,1,1.2.27,1.94,1.94,0,0,1,.72.7,2.84,2.84,0,0,1,.35,1,6.09,6.09,0,0,1,.1,1.13Z" transform="translate(-109.42 -80.86)"/><path class="cls-6" d="M203.54,305.35a9,9,0,0,1-1,.36,4.16,4.16,0,0,1-1.23.18,2.77,2.77,0,0,1-.78-.11,1.82,1.82,0,0,1-.65-.33,1.8,1.8,0,0,1-.44-.6,2.22,2.22,0,0,1-.17-.9v-4.51h-1v-1.55h1v-2.55h2v2.55h1.65v1.55h-1.65v3.84a.72.72,0,0,0,.22.59.86.86,0,0,0,.53.17,1.87,1.87,0,0,0,.62-.1l.48-.18Z" transform="translate(-109.42 -80.86)"/><path class="cls-6" d="M209.8,299.63a4.07,4.07,0,0,0-1.64.35,2.09,2.09,0,0,0-1,1v4.75h-2v-7.86H207v1.68a3.41,3.41,0,0,1,.5-.72,3.62,3.62,0,0,1,.61-.57,3.19,3.19,0,0,1,.67-.37,2,2,0,0,1,.65-.12h.41Z" transform="translate(-109.42 -80.86)"/><path class="cls-6" d="M213.49,305.9a2.9,2.9,0,0,1-1.07-.19,2.53,2.53,0,0,1-.85-.52,2.42,2.42,0,0,1-.56-.79,2.31,2.31,0,0,1-.21-1,2.27,2.27,0,0,1,.25-1,2.51,2.51,0,0,1,.69-.8,3.61,3.61,0,0,1,1.06-.52,4.79,4.79,0,0,1,1.35-.18,5.89,5.89,0,0,1,1,.09,4.25,4.25,0,0,1,.89.25v-.45a1.59,1.59,0,0,0-.44-1.2,1.87,1.87,0,0,0-1.32-.42,3.48,3.48,0,0,0-1.23.23,5.71,5.71,0,0,0-1.23.66l-.61-1.28a5.8,5.8,0,0,1,3.27-1,3.84,3.84,0,0,1,2.63.83,3,3,0,0,1,.94,2.41v2.44a.74.74,0,0,0,.11.45.51.51,0,0,0,.37.15v1.71a4.57,4.57,0,0,1-.89.11,1.31,1.31,0,0,1-.87-.26,1.07,1.07,0,0,1-.39-.67l0-.44a3.49,3.49,0,0,1-1.28,1.05A3.64,3.64,0,0,1,213.49,305.9Zm.57-1.47a2.65,2.65,0,0,0,1-.18,1.78,1.78,0,0,0,.71-.48.72.72,0,0,0,.33-.57v-.9a5.51,5.51,0,0,0-.78-.22,4.63,4.63,0,0,0-.81-.08,2.13,2.13,0,0,0-1.28.36,1,1,0,0,0-.49.89,1.09,1.09,0,0,0,.39.85A1.44,1.44,0,0,0,214.06,304.43Z" transform="translate(-109.42 -80.86)"/><path class="cls-6" d="M220.46,294.8h2v8.43a1,1,0,0,0,.21.68.75.75,0,0,0,.6.24,1.49,1.49,0,0,0,.4-.06,2.48,2.48,0,0,0,.41-.15l.27,1.53a3.85,3.85,0,0,1-.94.3,5.17,5.17,0,0,1-1,.1,2,2,0,0,1-1.46-.5,1.91,1.91,0,0,1-.52-1.43Z" transform="translate(-109.42 -80.86)"/><path class="cls-6" d="M234.16,305.83a4.75,4.75,0,0,1-2.12-.46,5.25,5.25,0,0,1-1.64-1.22,5.56,5.56,0,0,1-1.06-1.73,5.48,5.48,0,0,1-.37-2,5.26,5.26,0,0,1,.4-2,5.64,5.64,0,0,1,1.09-1.73,5.36,5.36,0,0,1,1.66-1.19,5,5,0,0,1,2.08-.44,4.77,4.77,0,0,1,2.11.47,5.15,5.15,0,0,1,1.63,1.24,5.7,5.7,0,0,1,1.05,1.74,5.47,5.47,0,0,1,.37,2,5.35,5.35,0,0,1-.39,2,5.52,5.52,0,0,1-1.08,1.71,5,5,0,0,1-1.65,1.18A4.83,4.83,0,0,1,234.16,305.83Zm-3.09-5.4a4.25,4.25,0,0,0,.21,1.33,3.47,3.47,0,0,0,.61,1.14,3,3,0,0,0,1,.8,2.81,2.81,0,0,0,1.31.3,2.84,2.84,0,0,0,1.33-.31,3.11,3.11,0,0,0,1-.82,3.82,3.82,0,0,0,.6-1.15,4.34,4.34,0,0,0,.2-1.29,4,4,0,0,0-.22-1.34,3.67,3.67,0,0,0-.61-1.14,3,3,0,0,0-1-.79,2.92,2.92,0,0,0-1.3-.29,2.75,2.75,0,0,0-1.33.31,2.86,2.86,0,0,0-1,.81,3.74,3.74,0,0,0-.59,1.14A4.41,4.41,0,0,0,231.07,300.43Z" transform="translate(-109.42 -80.86)"/><path class="cls-6" d="M248.59,305.75h-2v-4.41a2.23,2.23,0,0,0-.35-1.37,1.17,1.17,0,0,0-1-.44,1.54,1.54,0,0,0-.57.12,2.35,2.35,0,0,0-.57.33,3.09,3.09,0,0,0-.5.52,2,2,0,0,0-.33.66v4.59h-2V294.8h2v4.55a3.11,3.11,0,0,1,1.18-1.18,3.27,3.27,0,0,1,1.64-.41,2.67,2.67,0,0,1,1.25.26,2,2,0,0,1,.75.7,2.86,2.86,0,0,1,.37,1,6.12,6.12,0,0,1,.11,1.14Z" transform="translate(-109.42 -80.86)"/><path class="cls-6" d="M250.87,296.8v-2h2v2Zm0,8.95v-7.86h2v7.86Z" transform="translate(-109.42 -80.86)"/><path class="cls-6" d="M258.85,305.9a4.34,4.34,0,0,1-1.73-.33,3.86,3.86,0,0,1-1.29-.89,3.93,3.93,0,0,1-.82-1.3,4.21,4.21,0,0,1-.29-1.54,4.28,4.28,0,0,1,.29-1.56,3.93,3.93,0,0,1,.82-1.3,3.86,3.86,0,0,1,1.29-.89,4.34,4.34,0,0,1,1.73-.33,4.29,4.29,0,0,1,1.72.33,3.81,3.81,0,0,1,2.1,2.19,4.28,4.28,0,0,1,.29,1.56,4.21,4.21,0,0,1-.29,1.54,4.07,4.07,0,0,1-.81,1.3,3.86,3.86,0,0,1-1.29.89A4.29,4.29,0,0,1,258.85,305.9Zm-2.06-4.06a2.82,2.82,0,0,0,.16,1,2.57,2.57,0,0,0,.43.74,2.11,2.11,0,0,0,.66.49,2,2,0,0,0,1.62,0,2.07,2.07,0,0,0,.65-.49,2.32,2.32,0,0,0,.44-.75,2.93,2.93,0,0,0,.15-1,2.85,2.85,0,0,0-.15-.94,2.32,2.32,0,0,0-.44-.75,2.07,2.07,0,0,0-.65-.49,2,2,0,0,0-.81-.17,1.85,1.85,0,0,0-.81.18,2.11,2.11,0,0,0-.66.49,2.5,2.5,0,0,0-.43.75A2.91,2.91,0,0,0,256.79,301.84Z" transform="translate(-109.42 -80.86)"/><rect class="cls-7" y="239.6" width="213.17" height="0.94"/><path class="cls-7" d="M113.08,347.24V334.87h2v6.37l5.83-6.39H123l-4.89,5.48,5.17,6.91h-2.18l-4.19-5.7-1.9,2v3.73Z" transform="translate(-109.42 -80.86)"/><path class="cls-7" d="M128.82,347.42a4.87,4.87,0,0,1-1.94-.38,4.49,4.49,0,0,1-1.49-1,4.7,4.7,0,0,1-1-1.5,4.78,4.78,0,0,1-.34-1.81,4.92,4.92,0,0,1,.34-1.83,4.74,4.74,0,0,1,1-1.51,4.54,4.54,0,0,1,1.49-1,4.88,4.88,0,0,1,2-.37,4.78,4.78,0,0,1,1.93.38,4.62,4.62,0,0,1,1.48,1,4.28,4.28,0,0,1,.93,1.48,4.79,4.79,0,0,1,.32,1.77c0,.14,0,.27,0,.39s0,.23,0,.31h-7.31a3.25,3.25,0,0,0,.29,1.1,2.71,2.71,0,0,0,.61.84,2.49,2.49,0,0,0,.85.55,2.67,2.67,0,0,0,1,.2,3.3,3.3,0,0,0,.76-.1,2.78,2.78,0,0,0,.69-.28,2.59,2.59,0,0,0,.55-.44,2,2,0,0,0,.39-.58l1.64.47a3.76,3.76,0,0,1-1.56,1.68A4.83,4.83,0,0,1,128.82,347.42Zm2.77-5.43a2.88,2.88,0,0,0-.29-1.06,2.43,2.43,0,0,0-.6-.83,2.49,2.49,0,0,0-.85-.53,2.78,2.78,0,0,0-1-.2,2.69,2.69,0,0,0-1,.2,2.59,2.59,0,0,0-.85.53,2.55,2.55,0,0,0-.59.83,3.07,3.07,0,0,0-.28,1.06Z" transform="translate(-109.42 -80.86)"/><path class="cls-7" d="M140,347.42a4.87,4.87,0,0,1-1.94-.38,4.49,4.49,0,0,1-1.49-1,4.38,4.38,0,0,1-1-1.5,4.78,4.78,0,0,1-.34-1.81,4.92,4.92,0,0,1,.34-1.83,4.42,4.42,0,0,1,1-1.51,4.54,4.54,0,0,1,1.49-1A4.88,4.88,0,0,1,140,338a4.78,4.78,0,0,1,1.93.38,4.62,4.62,0,0,1,1.48,1,4.28,4.28,0,0,1,.93,1.48,4.8,4.8,0,0,1,.33,1.77c0,.14,0,.27,0,.39s0,.23,0,.31H137.3a3,3,0,0,0,.29,1.1,2.71,2.71,0,0,0,.61.84,2.49,2.49,0,0,0,.85.55,2.67,2.67,0,0,0,1,.2,3.22,3.22,0,0,0,.75-.1,2.5,2.5,0,0,0,.69-.28,2.42,2.42,0,0,0,.56-.44,2.19,2.19,0,0,0,.39-.58l1.64.47a3.81,3.81,0,0,1-1.56,1.68A4.83,4.83,0,0,1,140,347.42Zm2.77-5.43a2.88,2.88,0,0,0-.29-1.06,2.43,2.43,0,0,0-.6-.83,2.49,2.49,0,0,0-.85-.53,2.78,2.78,0,0,0-1-.2,2.74,2.74,0,0,0-1,.2,2.55,2.55,0,0,0-.84.53,2.41,2.41,0,0,0-.59.83,3.07,3.07,0,0,0-.28,1.06Z" transform="translate(-109.42 -80.86)"/><path class="cls-7" d="M152.2,347.42a3.62,3.62,0,0,1-1.93-.52,4,4,0,0,1-1.33-1.36V351H147V338.12h1.69v1.64a3.93,3.93,0,0,1,1.35-1.31,3.61,3.61,0,0,1,1.88-.49,4,4,0,0,1,1.73.38,4.45,4.45,0,0,1,1.36,1,4.85,4.85,0,0,1,.9,1.51,5.07,5.07,0,0,1,.32,1.79,5.62,5.62,0,0,1-.3,1.86,4.37,4.37,0,0,1-.83,1.5,4,4,0,0,1-1.29,1A3.53,3.53,0,0,1,152.2,347.42Zm-.63-1.64a2.39,2.39,0,0,0,1.11-.26,2.79,2.79,0,0,0,.86-.7,3.13,3.13,0,0,0,.55-1,3.43,3.43,0,0,0,.19-1.15,3.18,3.18,0,0,0-.22-1.19,3.08,3.08,0,0,0-.59-1,2.86,2.86,0,0,0-.9-.67,2.7,2.7,0,0,0-1.13-.24,2.37,2.37,0,0,0-.77.14,2.94,2.94,0,0,0-.75.38,3,3,0,0,0-.61.57,1.86,1.86,0,0,0-.37.71v2.39a4.13,4.13,0,0,0,.45.79,3.64,3.64,0,0,0,.62.62,2.88,2.88,0,0,0,.74.42A2.14,2.14,0,0,0,151.57,345.78Z" transform="translate(-109.42 -80.86)"/><path class="cls-7" d="M158.76,336.62v-2.11h1.93v2.11Zm0,10.62v-9.12h1.93v9.12Z" transform="translate(-109.42 -80.86)"/><path class="cls-7" d="M172,347.24H170v-5.11a3.4,3.4,0,0,0-.41-1.88,1.4,1.4,0,0,0-1.21-.58,2.28,2.28,0,0,0-.84.16,2.94,2.94,0,0,0-.79.44,3.51,3.51,0,0,0-.65.68,3.42,3.42,0,0,0-.45.87v5.42h-1.92v-9.12h1.75V340a3.69,3.69,0,0,1,1.52-1.46,4.62,4.62,0,0,1,2.2-.53,2.68,2.68,0,0,1,1.34.3,2.09,2.09,0,0,1,.83.81,3.84,3.84,0,0,1,.43,1.18,8.19,8.19,0,0,1,.12,1.43Z" transform="translate(-109.42 -80.86)"/><path class="cls-7" d="M178.59,347.33a3.77,3.77,0,0,1-1.69-.37,4,4,0,0,1-1.32-1,4.88,4.88,0,0,1-.86-1.49,5.17,5.17,0,0,1-.3-1.76,5.35,5.35,0,0,1,.31-1.84,4.47,4.47,0,0,1,.88-1.5,4.18,4.18,0,0,1,1.33-1,3.9,3.9,0,0,1,1.72-.37,3.62,3.62,0,0,1,1.93.52,4.56,4.56,0,0,1,1.37,1.36v-1.72h1.69V347a4,4,0,0,1-.37,1.77,3.69,3.69,0,0,1-1,1.3,4.71,4.71,0,0,1-1.54.81,6.55,6.55,0,0,1-1.92.28,5.54,5.54,0,0,1-2.52-.52,4.65,4.65,0,0,1-1.68-1.44l1.08-1a3.36,3.36,0,0,0,1.35,1.12,4.23,4.23,0,0,0,1.77.38,3.7,3.7,0,0,0,1.12-.16,2.45,2.45,0,0,0,1.58-1.32,3,3,0,0,0,.23-1.21v-1.39a3.26,3.26,0,0,1-1.34,1.29A3.81,3.81,0,0,1,178.59,347.33Zm.63-1.55a2.4,2.4,0,0,0,.84-.15,3.12,3.12,0,0,0,.74-.4,2.66,2.66,0,0,0,.58-.58,1.88,1.88,0,0,0,.35-.69v-2.39a3.24,3.24,0,0,0-.45-.79,3.13,3.13,0,0,0-.64-.62,3,3,0,0,0-.76-.41,2.22,2.22,0,0,0-.8-.15,2.36,2.36,0,0,0-1.13.27,2.64,2.64,0,0,0-.84.72,3,3,0,0,0-.54,1,3.47,3.47,0,0,0-.19,1.15,3.29,3.29,0,0,0,.21,1.18,3,3,0,0,0,.61,1,3.08,3.08,0,0,0,.89.66A2.66,2.66,0,0,0,179.22,345.78Z" transform="translate(-109.42 -80.86)"/><path class="cls-7" d="M192.36,347.24v-7.41h-1.22v-1.49h1.22V338a4.1,4.1,0,0,1,.79-2.67,2.58,2.58,0,0,1,2.12-1,4.18,4.18,0,0,1,1.11.15,4.73,4.73,0,0,1,1,.41l-.41,1.43a2.69,2.69,0,0,0-.62-.26,2.53,2.53,0,0,0-.69-.11,1.19,1.19,0,0,0-1,.51,2.53,2.53,0,0,0-.36,1.47v.41h2.34v1.49h-2.34v7.41Z" transform="translate(-109.42 -80.86)"/><path class="cls-7" d="M201.12,347.42a3.32,3.32,0,0,1-1.23-.22,2.88,2.88,0,0,1-1-.6,2.78,2.78,0,0,1-.64-.91,2.71,2.71,0,0,1-.24-1.14,2.37,2.37,0,0,1,.28-1.16,2.76,2.76,0,0,1,.8-.91,3.74,3.74,0,0,1,1.22-.59,5.45,5.45,0,0,1,1.56-.21,6.87,6.87,0,0,1,2.41.42v-.63a2.13,2.13,0,0,0-.58-1.58,2.24,2.24,0,0,0-1.66-.57,4,4,0,0,0-1.44.27,7.14,7.14,0,0,0-1.45.78l-.6-1.22a6.51,6.51,0,0,1,3.67-1.19,4.17,4.17,0,0,1,2.93,1,3.55,3.55,0,0,1,1.05,2.76V345c0,.41.16.62.5.63v1.64l-.48.08h-.39a1.2,1.2,0,0,1-.86-.28,1.16,1.16,0,0,1-.38-.71l-.05-.58a4,4,0,0,1-1.51,1.23A4.36,4.36,0,0,1,201.12,347.42Zm.52-1.41a3.41,3.41,0,0,0,1.32-.26,2.18,2.18,0,0,0,1-.71.84.84,0,0,0,.37-.66v-1.2a5.93,5.93,0,0,0-1-.3,5.76,5.76,0,0,0-1.07-.1,3,3,0,0,0-1.69.44,1.36,1.36,0,0,0-.65,1.18,1.51,1.51,0,0,0,.5,1.14A1.84,1.84,0,0,0,201.64,346Z" transform="translate(-109.42 -80.86)"/><path class="cls-7" d="M223.29,347.24h-1.92v-5.11a3.38,3.38,0,0,0-.42-1.87,1.42,1.42,0,0,0-1.22-.59,2.2,2.2,0,0,0-1.5.6,3.36,3.36,0,0,0-1,1.56v5.41h-1.92v-5.11a3.31,3.31,0,0,0-.42-1.88,1.41,1.41,0,0,0-1.21-.58,2.26,2.26,0,0,0-1.5.59,3.39,3.39,0,0,0-1,1.56v5.42h-1.92v-9.12h1.75V340a3.89,3.89,0,0,1,1.42-1.48,4,4,0,0,1,2-.51,2.43,2.43,0,0,1,2.6,2.08,4.18,4.18,0,0,1,1.45-1.55,3.77,3.77,0,0,1,2-.53,2.67,2.67,0,0,1,1.33.3,2.39,2.39,0,0,1,.85.82,3.26,3.26,0,0,1,.43,1.17,8.17,8.17,0,0,1,.13,1.43Z" transform="translate(-109.42 -80.86)"/><path class="cls-7" d="M226.29,336.62v-2.11h1.92v2.11Zm0,10.62v-9.12h1.92v9.12Z" transform="translate(-109.42 -80.86)"/><path class="cls-7" d="M231.31,334.51h1.92v10.1a1.14,1.14,0,0,0,.26.79.93.93,0,0,0,.74.29,1.53,1.53,0,0,0,.44-.07,3.38,3.38,0,0,0,.48-.16l.28,1.51a4.64,4.64,0,0,1-1,.3,5.18,5.18,0,0,1-1,.12,1.91,1.91,0,0,1-2.1-2.08Z" transform="translate(-109.42 -80.86)"/><path class="cls-7" d="M237.33,336.62v-2.11h1.92v2.11Zm0,10.62v-9.12h1.92v9.12Z" transform="translate(-109.42 -80.86)"/><path class="cls-7" d="M246.48,347.42a4.87,4.87,0,0,1-1.94-.38,4.49,4.49,0,0,1-1.49-1,4.7,4.7,0,0,1-1-1.5,4.78,4.78,0,0,1-.34-1.81,4.92,4.92,0,0,1,.34-1.83,4.74,4.74,0,0,1,1-1.51,4.54,4.54,0,0,1,1.49-1,4.89,4.89,0,0,1,2-.37,4.73,4.73,0,0,1,1.92.38,4.62,4.62,0,0,1,1.48,1,4.28,4.28,0,0,1,.93,1.48,4.8,4.8,0,0,1,.33,1.77c0,.14,0,.27,0,.39s0,.23,0,.31h-7.32a3.25,3.25,0,0,0,.29,1.1,2.88,2.88,0,0,0,.61.84,2.44,2.44,0,0,0,.86.55,2.62,2.62,0,0,0,1,.2,3.3,3.3,0,0,0,.76-.1,2.63,2.63,0,0,0,.69-.28,2.37,2.37,0,0,0,.55-.44,2,2,0,0,0,.39-.58l1.64.47a3.7,3.7,0,0,1-1.56,1.68A4.81,4.81,0,0,1,246.48,347.42Zm2.77-5.43a3.07,3.07,0,0,0-.28-1.06,2.59,2.59,0,0,0-.61-.83,2.49,2.49,0,0,0-.85-.53,2.78,2.78,0,0,0-1-.2,2.69,2.69,0,0,0-1,.2,2.59,2.59,0,0,0-.85.53,2.55,2.55,0,0,0-.59.83,3.07,3.07,0,0,0-.28,1.06Z" transform="translate(-109.42 -80.86)"/><path class="cls-7" d="M256.83,347.42a7,7,0,0,1-2.19-.36,5.67,5.67,0,0,1-1.88-1l.77-1.22a7.77,7.77,0,0,0,1.62.9,4.66,4.66,0,0,0,1.64.3,2.42,2.42,0,0,0,1.36-.33,1.06,1.06,0,0,0,.49-.94.88.88,0,0,0-.55-.84,10.21,10.21,0,0,0-1.75-.57c-.57-.15-1.06-.3-1.47-.44a3.65,3.65,0,0,1-1-.49,1.71,1.71,0,0,1-.56-.65,2,2,0,0,1-.18-.88,2.61,2.61,0,0,1,1-2.16,3.38,3.38,0,0,1,1.12-.57,4.84,4.84,0,0,1,1.4-.19,5.94,5.94,0,0,1,1.92.31,5.22,5.22,0,0,1,1.59.91l-.82,1.15a4.33,4.33,0,0,0-2.71-1,2.34,2.34,0,0,0-1.23.3,1.06,1.06,0,0,0-.49,1,1,1,0,0,0,.1.48,1,1,0,0,0,.34.33,2.55,2.55,0,0,0,.61.25c.25.08.56.16.93.25.62.15,1.15.31,1.6.46a4.42,4.42,0,0,1,1.11.53,2,2,0,0,1,.65.72,2.25,2.25,0,0,1,.2,1,2.5,2.5,0,0,1-1,2.07A4.27,4.27,0,0,1,256.83,347.42Z" transform="translate(-109.42 -80.86)"/><path class="cls-7" d="M267.46,342.67a4.77,4.77,0,0,1,.33-1.81,4.51,4.51,0,0,1,.95-1.5,4.67,4.67,0,0,1,1.49-1,4.89,4.89,0,0,1,2-.37,4.62,4.62,0,0,1,2.43.62,3.92,3.92,0,0,1,1.53,1.65l-1.87.59a2.39,2.39,0,0,0-2.13-1.22,2.63,2.63,0,0,0-1.94.86,3.22,3.22,0,0,0-.57,1,3.51,3.51,0,0,0-.21,1.24,3.28,3.28,0,0,0,.22,1.23,3.07,3.07,0,0,0,.59,1,2.61,2.61,0,0,0,.87.65,2.42,2.42,0,0,0,1.06.24,2.47,2.47,0,0,0,.7-.1,2.22,2.22,0,0,0,.63-.27,2.5,2.5,0,0,0,.51-.4,1.54,1.54,0,0,0,.32-.49l1.89.56a3.72,3.72,0,0,1-1.52,1.68,4.68,4.68,0,0,1-2.51.66,4.87,4.87,0,0,1-1.94-.38,4.58,4.58,0,0,1-1.49-1,4.71,4.71,0,0,1-1-1.51A5,5,0,0,1,267.46,342.67Z" transform="translate(-109.42 -80.86)"/><path class="cls-7" d="M278.61,334.51h1.92v10.1a1.14,1.14,0,0,0,.26.79.91.91,0,0,0,.73.29,1.6,1.6,0,0,0,.45-.07,3.86,3.86,0,0,0,.48-.16l.28,1.51a4.57,4.57,0,0,1-1,.3,5.1,5.1,0,0,1-1,.12,2.06,2.06,0,0,1-1.54-.55,2,2,0,0,1-.55-1.53Z" transform="translate(-109.42 -80.86)"/><path class="cls-7" d="M288.73,347.42a4.88,4.88,0,0,1-2-.38,4.69,4.69,0,0,1-1.47-1,4.53,4.53,0,0,1-.94-1.51,5.13,5.13,0,0,1,0-3.62,4.4,4.4,0,0,1,.95-1.51,4.74,4.74,0,0,1,1.48-1,5.09,5.09,0,0,1,3.86,0,4.74,4.74,0,0,1,1.48,1,4.55,4.55,0,0,1,.95,1.51,5,5,0,0,1,0,3.62,4.55,4.55,0,0,1-.95,1.51,4.74,4.74,0,0,1-1.48,1A4.82,4.82,0,0,1,288.73,347.42ZM286,342.71a3.47,3.47,0,0,0,.21,1.22,3.22,3.22,0,0,0,.57,1,2.62,2.62,0,0,0,.87.64,2.43,2.43,0,0,0,1.07.24,2.4,2.4,0,0,0,1.07-.24,2.61,2.61,0,0,0,.87-.65,3.16,3.16,0,0,0,.57-1,3.62,3.62,0,0,0,0-2.43,3.21,3.21,0,0,0-.57-1,2.79,2.79,0,0,0-.87-.66,2.54,2.54,0,0,0-1.07-.23,2.45,2.45,0,0,0-1.06.24,2.81,2.81,0,0,0-.86.67,3.1,3.1,0,0,0-.58,1A3.3,3.3,0,0,0,286,342.71Z" transform="translate(-109.42 -80.86)"/><path class="cls-7" d="M299.23,347.42a6.87,6.87,0,0,1-2.18-.36,5.57,5.57,0,0,1-1.88-1l.77-1.22a7.3,7.3,0,0,0,1.62.9,4.66,4.66,0,0,0,1.64.3,2.41,2.41,0,0,0,1.35-.33,1,1,0,0,0,.5-.94.89.89,0,0,0-.56-.84,9.75,9.75,0,0,0-1.74-.57c-.57-.15-1.06-.3-1.47-.44a3.51,3.51,0,0,1-1-.49,1.63,1.63,0,0,1-.56-.65,2,2,0,0,1-.18-.88,2.73,2.73,0,0,1,.27-1.24,2.58,2.58,0,0,1,.75-.92,3.43,3.43,0,0,1,1.13-.57,4.79,4.79,0,0,1,1.4-.19,6,6,0,0,1,1.92.31,5.22,5.22,0,0,1,1.59.91l-.82,1.15a4.35,4.35,0,0,0-2.71-1,2.34,2.34,0,0,0-1.23.3,1.07,1.07,0,0,0-.5,1,.9.9,0,0,0,.11.48,1,1,0,0,0,.34.33,2.55,2.55,0,0,0,.61.25c.25.08.56.16.93.25.62.15,1.15.31,1.6.46a4.51,4.51,0,0,1,1.1.53,1.85,1.85,0,0,1,.65.72,2.12,2.12,0,0,1,.21,1,2.5,2.5,0,0,1-1,2.07A4.3,4.3,0,0,1,299.23,347.42Z" transform="translate(-109.42 -80.86)"/><path class="cls-7" d="M309.5,347.42a4.87,4.87,0,0,1-1.94-.38,4.49,4.49,0,0,1-1.49-1,4.7,4.7,0,0,1-1-1.5,4.78,4.78,0,0,1-.34-1.81,4.92,4.92,0,0,1,.34-1.83,4.74,4.74,0,0,1,1-1.51,4.54,4.54,0,0,1,1.49-1,4.89,4.89,0,0,1,2-.37,4.73,4.73,0,0,1,1.92.38,4.62,4.62,0,0,1,1.48,1,4.28,4.28,0,0,1,.93,1.48,4.79,4.79,0,0,1,.32,1.77c0,.14,0,.27,0,.39s0,.23,0,.31h-7.31a3.25,3.25,0,0,0,.29,1.1,2.71,2.71,0,0,0,.61.84,2.49,2.49,0,0,0,.85.55,2.67,2.67,0,0,0,1,.2,3.3,3.3,0,0,0,.76-.1,2.63,2.63,0,0,0,.69-.28,2.37,2.37,0,0,0,.55-.44,2,2,0,0,0,.39-.58l1.64.47a3.7,3.7,0,0,1-1.56,1.68A4.83,4.83,0,0,1,309.5,347.42Zm2.77-5.43a3.07,3.07,0,0,0-.28-1.06,2.59,2.59,0,0,0-.61-.83,2.49,2.49,0,0,0-.85-.53,2.78,2.78,0,0,0-1-.2,2.69,2.69,0,0,0-1,.2,2.59,2.59,0,0,0-.85.53,2.55,2.55,0,0,0-.59.83,2.87,2.87,0,0,0-.28,1.06Z" transform="translate(-109.42 -80.86)"/><path class="cls-7" d="M317.12,335.71a1.85,1.85,0,1,1-1.83,1.84,1.81,1.81,0,0,1,1.83-1.84Zm0,.29a1.56,1.56,0,1,0,1.48,1.56,1.51,1.51,0,0,0-1.48-1.56Zm-.34,2.62h-.33v-2.05a3,3,0,0,1,.58-.05,1.08,1.08,0,0,1,.64.16.48.48,0,0,1,.19.42.51.51,0,0,1-.4.5v0c.17,0,.3.19.34.5a1.79,1.79,0,0,0,.13.5h-.34a1.4,1.4,0,0,1-.14-.52.39.39,0,0,0-.44-.36h-.23Zm0-1.14H317c.27,0,.5-.09.5-.35s-.13-.35-.5-.35h-.23Z" transform="translate(-109.42 -80.86)"/></svg>