<svg xmlns="http://www.w3.org/2000/svg" width="200.491" height="100.293" viewBox="0 0 254.491 138.293">
  <g id="Group_349" data-name="Group 349" transform="translate(-52.891 -86.719)">
    <g id="Group_330" data-name="Group 330">
      <path id="Union_3" data-name="Union 3" d="M-78,53a26,26,0,0,1-26-26A26,26,0,0,1-78,1h63.479A26.009,26.009,0,0,1,11.058,22.316L27.223,17.46,10.459,34.234A26.011,26.011,0,0,1-14.522,53Z" transform="translate(164.385 121.605) rotate(8)" fill="#fff" stroke="#000" stroke-linecap="round" stroke-width="2"/>
      <text id="Woof_" data-name="Woof!" transform="translate(70.981 146.571) rotate(8)" fill="#da291c" font-size="28" font-family="System" letter-spacing="0.025em"><tspan x="0" y="0">Woof!</tspan></text>
    </g>
    <g id="Group_269" data-name="Group 269" transform="translate(20.867 44.044)">
      <g id="Group_268" data-name="Group 268" transform="translate(181.133 43.21)">
        <path id="Path_796" data-name="Path 796" d="M209.252,328.077a12.754,12.754,0,0,0,5.995-1.614,7.837,7.837,0,0,0,3.579-7.8,24.387,24.387,0,0,0-1.692-4.93c-.263-.643-.566-1.174-.246-1.882a.792.792,0,0,0-.229-.726c-1.069-.745-1.839-1.857-3.164-2.32a5.764,5.764,0,0,1-1.748-1.48,13.209,13.209,0,0,0-5.742-3.184,23.825,23.825,0,0,0-7.437-.726,23.082,23.082,0,0,0-11.5,3.491,13.039,13.039,0,0,0-6.229,9.292,1.026,1.026,0,0,0,.38.875c.954.446.844,1.234.7,1.99-.195,1.056-.506,2.089-.744,3.137-.545,2.4.371,4.391,2.655,5.2,2.381.849,4.864,1.38,7.346.321a3,3,0,0,1,2.894.243,8.922,8.922,0,0,0,5.479,1.176,14.378,14.378,0,0,0,3.787-1.237,4.417,4.417,0,0,1,2.832-.324C207.274,327.81,208.4,327.944,209.252,328.077Z" transform="translate(-157.007 -193.623)" fill="#fff"/>
        <path id="Path_797" data-name="Path 797" d="M157.4,126.969l-.307-.09.221.175c.464.61.894,1.248,1.4,1.821a1.722,1.722,0,0,1,.335,2c-.338.7-1.058.491-1.663.454a3.706,3.706,0,0,0-3.844,2.032,17.385,17.385,0,0,0-1.156,2.982,4.464,4.464,0,0,1-2.251,2.976c-.734.371-1.429.82-2.17,1.173a2.31,2.31,0,0,0-1.19,1.519c-.437,1.29-.03,2.543.135,3.793.178,1.355.059,1.876-1.037,2.6a18.514,18.514,0,0,0-1.706,1.047,8.566,8.566,0,0,0-1.674,1.77c-.351.53-.014.976.662.9a2.384,2.384,0,0,1,2.567,1.531,2.275,2.275,0,0,1-.113,2.314,13.941,13.941,0,0,0-1.2,6.6,19.185,19.185,0,0,0,1.812,7.116,12.657,12.657,0,0,1,1.032,3.047c.211,1.433.684,2.9-.056,4.361-.615,1.211-.591,1.284.587,2.069a2.521,2.521,0,0,1,1.207,2.3,79.416,79.416,0,0,1-1.056,11.494,6.8,6.8,0,0,0,1.077,4.941,18.685,18.685,0,0,0,1.9,2.22,3.392,3.392,0,0,1,1.184,2.26,4.363,4.363,0,0,0,.3,1.184,2.542,2.542,0,0,0,2.457,1.965,4.74,4.74,0,0,1,3.373,1.258,3.3,3.3,0,0,0,.939.52,21.558,21.558,0,0,0,5.766,1.552,6.161,6.161,0,0,0,3.744-.581,4.688,4.688,0,0,0,2.625-3.6c.165-.909.55-1.415,1.518-1.342l.262.362a6.891,6.891,0,0,1-4.476,6.389c-.894.253-1.078.752-1.1,1.545-.045,1.679.1,3.4-.952,4.9-.045.064.1.384.176.392,1.174.122,2.35.283,3.528.3,6.913.089,13.827.2,20.734-.272.874-.059,1.762.036,2.632-.053,2.4-.247,4.783-.6,7.181-.829a49.564,49.564,0,0,0,9.175-1.833,76.681,76.681,0,0,0,16.863-7.063,34.371,34.371,0,0,0,7.1-5.156c.5-.492.745-.914.347-1.6-.567-.975-1.035-2.008-1.6-2.983a.914.914,0,0,0-.739-.352c-2.471.313-4.794-.469-7.138-.982a5.333,5.333,0,0,1-3.58-2.491c-.285-.481-.424-.972.132-1.358a.92.92,0,0,1,1.377.517A2.81,2.81,0,0,0,225,194.387c1.4.306,2.806.6,4.2.913a5.4,5.4,0,0,0,5.988-2.157,44.314,44.314,0,0,1,3.341-4.521,19.071,19.071,0,0,0,2.047-3.254,6.131,6.131,0,0,0,.734-3.569,35.037,35.037,0,0,0-.559-3.954,15.27,15.27,0,0,0-5.6-9.663,12.5,12.5,0,0,1-4.263-7.112c-.218-.808.347-1.354,1.188-1.27.285.028.575.006.863.006a3.736,3.736,0,0,0-.159-.984,9.121,9.121,0,0,0-.739-1.166,7.9,7.9,0,0,1-1.263-5.851c.361-2.148.2-4.287-1.436-5.929-1.48-1.484-1.691-3.361-1.867-5.232-.263-2.8-.674-5.511-2.466-7.8a1.159,1.159,0,0,1-.221-1.409.8.8,0,0,0-.144-.757,40.861,40.861,0,0,0-4.875-3.223,3.682,3.682,0,0,1-2.119-2.024,3.127,3.127,0,0,0-2.312-2.037,65.765,65.765,0,0,1-10.32-3.543,4.909,4.909,0,0,0-4.431.031,4.753,4.753,0,0,1-3.13.335c-1.467-.306-2.91-1.352-2.044-3.487.058-.143.111-.289.176-.429.235-.511-.1-.538-.422-.435a8.683,8.683,0,0,0-3.655,1.89c-.912.9-1.325.786-1.606-.43a2.237,2.237,0,0,0-1.372-1.542c-.263-.131-.46-.2-.512.205-.437,3.434-2.987,5-6.376,3.891a9.657,9.657,0,0,0-6.765.563,13.7,13.7,0,0,0-3.115,1.636,3.674,3.674,0,0,1-2.829.9,6.452,6.452,0,0,0-3.745.671,2.117,2.117,0,0,0-1.32,1.591,5.628,5.628,0,0,1-1.88,3.113c-.721.7-.99.719-1.634-.08A3.219,3.219,0,0,0,157.4,126.969Z" transform="translate(-140.401 -112.619)" fill="#fff"/>
        <g id="Layer_2" data-name="Layer 2" transform="translate(8.172 2.346)">
          <path id="Path_798" data-name="Path 798" d="M248.329,238.688a61.957,61.957,0,0,0,.374-13.894c-.377-3.309-.535-6.653-1.21-9.922-.71-3.443-2.249-8.086-4.967-10.475-.314-.276-.653-.525-.941-.828-1.417-1.49-2.482-4.656-1.4-6.542,1.126-1.961,3.152-3.2,4.705-4.786,2.686-2.735,4.831-5.931,5.342-9.8.568-4.315.387-9.863-1.85-13.715a28.778,28.778,0,0,0-4.414-5.172,13.638,13.638,0,0,1-4.155-9.114c-.736-9.459-4.085-19.873-10.35-27.192a21.5,21.5,0,0,0-6.46-5.2c-3-1.543-6.241-2-9.509-2.679-2.8-.582-5.579-1.24-8.308-2.086-2.472-.766-4.7-2.507-7.323-2.753a35.509,35.509,0,0,0-13.7,1.827,16.905,16.905,0,0,0-9.348,7.124c-3.968,2.447-6.682,6.877-11.229,8.8-3.529,1.5-4.66,4.831-5.419,8.314a20.11,20.11,0,0,0-1.53,2.067,6.328,6.328,0,0,0-2.7,2.758c-1.116,2.328-.592,5.419.18,8.343.039,1.27.14,2.55.268,3.82-1.742,6.152-.776,12.62,1.091,18.676.487,1.578.984,3.185,1.517,4.792a59.186,59.186,0,0,1-.634,10.356c-.638,4.3-.119,8.765,3.851,11.321a14.7,14.7,0,0,0,4.589,1.628q.665.31,1.375.579c.873.327,1.975.585,2.965.993a5.778,5.778,0,0,1,.664.5,3.628,3.628,0,0,0,1.126.68c.035.04.078.072.11.113,1.318,1.669.458,4.432-.081,6.221-1.356,4.507.763,8.365,5.778,8.322,2.1-.019,4.13-.556,6.248-.5a20.057,20.057,0,0,1,2.1.174,19.848,19.848,0,0,0-6.159,3.491c-3.245,2.71-6.2,7.638-6.245,12.213-.059.171-.118.342-.171.519-.9,3.023-.38,6.757,2.377,8.653a4.349,4.349,0,0,0,5.158-.072,56.964,56.964,0,0,0,6.167,1.547A59.18,59.18,0,0,0,198.7,249.41a12.686,12.686,0,0,0,2.894-.317,9.46,9.46,0,0,0,3.725-.6c3.6-1.577,4.776-5.456,4.581-9.25.058-.265-.039-.283,0-.55m-28.057-81.013a1.319,1.319,0,0,1-.363.522.561.561,0,0,1-.629.106.466.466,0,0,1-.275-.149l-.009-.011a.717.717,0,0,1-.1-.16c-.01-.016-.024-.028-.034-.046a.7.7,0,0,1,.09-.8.626.626,0,0,1,.615-.16l.008,0C181.526,156.859,182,157.267,181.841,157.675Zm25.818-7.269a.718.718,0,0,1,.65-.348.681.681,0,0,1,.657.493.6.6,0,0,1-.1.52.563.563,0,0,1-.141.289.556.556,0,0,1-.655.09.523.523,0,0,1-.4-.259.578.578,0,0,1-.063-.312A.616.616,0,0,1,207.659,150.406Z" transform="translate(-153.297 -114.426)" fill="#a37f71"/>
        </g>
        <path id="Path_799" data-name="Path 799" d="M306.427,291.663c0,.269.011.541,0,.808a5.682,5.682,0,0,1-.09.579,1.409,1.409,0,0,1-.474-.252c-1.4-1.559-2.753-3.209-4.186-4.691-2.169-2.243-4.379-4.4-6.6-6.529-.453-.437-.279-.505.038-.777a44.955,44.955,0,0,0,7.719-7.97c.348-.487.483-.277.639.322a105.573,105.573,0,0,1,2.38,12.75c.252,1.9.423,3.826.631,5.741Z" transform="translate(-206.19 -180.322)" fill="#da291c"/>
        <path id="Path_800" data-name="Path 800" d="M241.533,220.583a61.232,61.232,0,0,0-3.281-15.4c-.664-1.94-1.842-3.677-2.2-5.738a1.588,1.588,0,0,0-.575-1.061c-1.256-.623-1.447-1.956-2.106-2.962-.74-1.13-.656-1.3.33-2.178a8.62,8.62,0,0,0,2.584-3.421,3.46,3.46,0,0,1,.946-1.184,19.313,19.313,0,0,0,3.876-5.913,3.569,3.569,0,0,0,.3-1.351c.258-5.274-.845-10.163-4.266-14.327a23.97,23.97,0,0,0-2.97-2.928,8.483,8.483,0,0,1-2.51-3.828c-.212-.619-.031-.652.556-.6a1.04,1.04,0,0,0,1.293-1.116,5.421,5.421,0,0,0-1.382-3.974,4.457,4.457,0,0,1-1.207-3.05,10.826,10.826,0,0,1,.139-2.621,7.223,7.223,0,0,0-1.746-6.19,7.16,7.16,0,0,1-1.566-4.1c-.039-.307-.062-.616-.1-.924-.275-2.358-.5-4.729-1.861-6.791-.1-.157-.218-.443-.147-.559.748-1.22-.124-1.99-.832-2.673a21.419,21.419,0,0,0-5.783-4.1,2.579,2.579,0,0,1-1.391-1.323,5.2,5.2,0,0,0-3.717-2.975,63.764,63.764,0,0,1-10.073-3.463,5.991,5.991,0,0,0-5.08.065,12.131,12.131,0,0,1-1.737.646,1.32,1.32,0,0,1-1.519-.483,1.229,1.229,0,0,1,.114-1.576,8.035,8.035,0,0,1,1.131-1.032c.747-.649.717-1.289-.194-1.636a3.3,3.3,0,0,0-1.937-.226,33.813,33.813,0,0,0-4.157,1.61.915.915,0,0,1-1.141-.093,52.909,52.909,0,0,0-4.611-2.781c-.2-.109-.7.117-.914.331a.923.923,0,0,0-.049.819,10.53,10.53,0,0,0,.688,1.018,2.392,2.392,0,0,1,0,2.5,2.083,2.083,0,0,1-2.171,1.174c-.765-.076-1.513-.315-2.277-.414a12.182,12.182,0,0,0-3.2-.273,15.8,15.8,0,0,0-7.55,2.955,2.075,2.075,0,0,1-1.693.5,7.279,7.279,0,0,0-4.492.84,3.8,3.8,0,0,0-2.291,2.735,5.226,5.226,0,0,1-.517,1.285c-.182.387-.437.535-.844.223-2.088-1.6-4.474-1.276-6.84-1.019a1.272,1.272,0,0,0-1.244,1c-.092.6.474.839.929,1.1.806.455,1.608.918,2.391,1.41a3.982,3.982,0,0,1,.631.623,2.961,2.961,0,0,1-.786.36,5.42,5.42,0,0,0-3.286,1.887,7.363,7.363,0,0,0-1.852,3.848,3.122,3.122,0,0,1-1.959,2.581,17.362,17.362,0,0,0-1.646.853,4.126,4.126,0,0,0-2.261,3.635,12.466,12.466,0,0,0,.095,2.316c.25,1.829.3,1.867-1.356,2.829a5.783,5.783,0,0,0-3.279,5.675c.04.656-.154,1.445.647,1.745.756.283,1.057-.435,1.467-.875.371-.4.828-.7,1.354-.356.545.354.37.844.172,1.371a20.5,20.5,0,0,0-.978,3.079,18.819,18.819,0,0,0,1.535,11.774,13.32,13.32,0,0,1,1.233,4.923c.028.616.121,1.218-.828,1.333a.728.728,0,0,0-.507,1.191,14.448,14.448,0,0,0,2.02,2.7,1.748,1.748,0,0,1,.653,1.713c-.369,2.707-.586,5.44-1.082,8.122a14.043,14.043,0,0,0,.541,7.157,6.341,6.341,0,0,0,2.408,3.493,2.526,2.526,0,0,1,1.147,1.92,8.762,8.762,0,0,0,.26,1.367,4.4,4.4,0,0,0,4.682,3.453,3.005,3.005,0,0,1,1.565.448c1.981.976,3.932,2.052,6.223,2.175.975.052,1.945.218,2.917.331-.027,1-.085,1.991-.074,2.987a2.6,2.6,0,0,1-1.332,2.588c-.493.271-.786.776-.3,1.277.425.435.239.811.124,1.267-.268,1.057-.647,2.291.027,3.158.895,1.153.768,2.385.914,3.637a10.154,10.154,0,0,0,.453,1.953,1.118,1.118,0,0,1-.272,1.252c-2.39,2.6-2.946,5.826-3.044,9.186a1.409,1.409,0,0,0,.4,1.078c.525.331.519.653.364,1.153a7.826,7.826,0,0,0-.3,1.514,5.853,5.853,0,0,0,4.008,6.555,14.693,14.693,0,0,0,6.567.737,10.812,10.812,0,0,1,5.388.452,9.116,9.116,0,0,0,5.469.32,24.865,24.865,0,0,0,2.767-.987,4.267,4.267,0,0,1,2.853-.236,13.5,13.5,0,0,0,5.374.136c6.947-1.256,10.306-7.511,8.085-13.326-.239-.625-.428-1.269-.66-1.9-.223-.605-.688-1.226.358-1.584.124-.043.206-.715.063-.939a8.981,8.981,0,0,0-1.3-1.52c-.429-.421-.925-.773-1.392-1.156a5.467,5.467,0,0,1-.211-.827c-.06-.608-.327-.9-.911-.576-.778.429-1.268-.107-1.793-.483-1.421-1.016-2.824-2.055-4.227-3.1a2.373,2.373,0,0,1-.371-.451,5.162,5.162,0,0,1,.542-.134c3.7-.518,7.423-.94,11.108-1.568a80.459,80.459,0,0,0,17.341-5.17,6.318,6.318,0,0,0,1.137-.464c1.436-.971,2.658-.47,3.973.35a110.256,110.256,0,0,1,13.4,9.6,5.876,5.876,0,0,0,1.655.688C241.666,222.887,241.614,221.683,241.533,220.583ZM193.662,224a5.764,5.764,0,0,0,1.748,1.48c1.325.464,2.095,1.576,3.164,2.32a.792.792,0,0,1,.229.726c-.32.708-.018,1.239.246,1.882a24.388,24.388,0,0,1,1.692,4.93,7.837,7.837,0,0,1-3.579,7.8,12.754,12.754,0,0,1-5.995,1.614c-.855-.134-1.978-.267-3.082-.5a4.417,4.417,0,0,0-2.832.324,14.378,14.378,0,0,1-3.787,1.237,8.923,8.923,0,0,1-5.479-1.176,3,3,0,0,0-2.894-.243c-2.482,1.059-4.965.528-7.346-.321-2.284-.814-3.2-2.8-2.655-5.2.238-1.048.549-2.082.744-3.137.14-.755.25-1.544-.7-1.99a1.025,1.025,0,0,1-.38-.874,13.038,13.038,0,0,1,6.229-9.293,23.082,23.082,0,0,1,11.5-3.491,23.825,23.825,0,0,1,7.437.726A13.209,13.209,0,0,1,193.662,224Zm-27.518-2.892c1.064,0,2.128,0,3.192,0a1.52,1.52,0,0,1,.3.06,1.385,1.385,0,0,1-.22.3c-1.077.857-2.16,1.7-3.239,2.556-.3.239-.574.277-.657-.171a19.076,19.076,0,0,1-.3-2.111C165.174,221.049,165.463,220.818,166.145,221.105Zm59.215-16.266A76.682,76.682,0,0,1,208.5,211.9a49.566,49.566,0,0,1-9.175,1.833c-2.4.232-4.784.581-7.181.828-.87.09-1.758-.006-2.632.053-6.907.47-13.821.361-20.734.272-1.178-.015-2.354-.176-3.528-.3-.076-.008-.221-.328-.176-.392,1.051-1.493.907-3.216.952-4.9.022-.793.207-1.292,1.1-1.545a6.891,6.891,0,0,0,4.476-6.389l-.262-.362c-.968-.074-1.354.433-1.518,1.342a4.688,4.688,0,0,1-2.625,3.6,6.161,6.161,0,0,1-3.744.581,21.558,21.558,0,0,1-5.766-1.552,3.315,3.315,0,0,1-.939-.52,4.74,4.74,0,0,0-3.373-1.258,2.543,2.543,0,0,1-2.457-1.965,4.362,4.362,0,0,1-.3-1.184,3.388,3.388,0,0,0-1.184-2.26,18.735,18.735,0,0,1-1.9-2.221,6.8,6.8,0,0,1-1.077-4.941,79.414,79.414,0,0,0,1.056-11.494,2.521,2.521,0,0,0-1.207-2.3c-1.177-.784-1.2-.858-.587-2.069.741-1.459.268-2.927.057-4.36a12.656,12.656,0,0,0-1.032-3.047,19.185,19.185,0,0,1-1.812-7.116,13.941,13.941,0,0,1,1.2-6.6,2.275,2.275,0,0,0,.113-2.314,2.384,2.384,0,0,0-2.567-1.531c-.676.081-1.012-.365-.662-.9a8.566,8.566,0,0,1,1.674-1.77,18.515,18.515,0,0,1,1.706-1.047c1.1-.725,1.215-1.245,1.037-2.6-.164-1.25-.572-2.5-.135-3.794a2.31,2.31,0,0,1,1.19-1.518c.741-.354,1.436-.8,2.17-1.173a4.464,4.464,0,0,0,2.251-2.976,17.383,17.383,0,0,1,1.156-2.982A3.707,3.707,0,0,1,155.9,129c.605.038,1.325.248,1.663-.454a1.722,1.722,0,0,0-.335-2c-.506-.572-.936-1.211-1.4-1.821l-.221-.175.307.09a3.219,3.219,0,0,1,2.965,1.3c.643.8.913.781,1.634.08a5.628,5.628,0,0,0,1.88-3.113,2.117,2.117,0,0,1,1.32-1.591,6.452,6.452,0,0,1,3.745-.671,3.674,3.674,0,0,0,2.829-.9,13.7,13.7,0,0,1,3.115-1.636,9.657,9.657,0,0,1,6.765-.563c3.39,1.108,5.94-.456,6.376-3.891.052-.409.249-.336.512-.205A2.237,2.237,0,0,1,188.428,115c.281,1.215.695,1.326,1.606.43a8.683,8.683,0,0,1,3.655-1.89c.321-.1.657-.076.422.435-.065.14-.118.285-.176.429-.866,2.136.576,3.181,2.044,3.487a4.753,4.753,0,0,0,3.13-.335,4.909,4.909,0,0,1,4.431-.031,65.766,65.766,0,0,0,10.32,3.543,3.127,3.127,0,0,1,2.313,2.037,3.682,3.682,0,0,0,2.119,2.024,40.86,40.86,0,0,1,4.875,3.223.8.8,0,0,1,.144.757,1.159,1.159,0,0,0,.221,1.409c1.792,2.294,2.2,5.009,2.466,7.8.176,1.871.388,3.748,1.867,5.232,1.638,1.642,1.8,3.781,1.436,5.929a7.894,7.894,0,0,0,1.263,5.851,9.056,9.056,0,0,1,.739,1.166,3.731,3.731,0,0,1,.159.984c-.288,0-.578.022-.863-.006-.841-.084-1.406.462-1.187,1.27a12.5,12.5,0,0,0,4.263,7.112,15.27,15.27,0,0,1,5.6,9.663,35.034,35.034,0,0,1,.559,3.954,6.127,6.127,0,0,1-.734,3.569,19.1,19.1,0,0,1-2.046,3.254,44.233,44.233,0,0,0-3.341,4.521,5.4,5.4,0,0,1-5.988,2.157c-1.4-.316-2.8-.607-4.2-.913a2.809,2.809,0,0,1-2.262-1.631.92.92,0,0,0-1.377-.517c-.557.386-.417.877-.132,1.358a5.333,5.333,0,0,0,3.58,2.491c2.344.513,4.668,1.3,7.138.982a.914.914,0,0,1,.739.352c.568.974,1.037,2.007,1.6,2.983.4.684.152,1.106-.347,1.6A34.371,34.371,0,0,1,225.359,204.839ZM239.281,219.7a3.038,3.038,0,0,1-.1.443,1.955,1.955,0,0,1-.546-.193c-1.612-1.193-3.175-2.457-4.827-3.592-2.5-1.718-5.05-3.366-7.607-5-.523-.334-.322-.387.043-.595a46.833,46.833,0,0,0,8.9-6.1c.4-.373.556-.213.737.247a57.262,57.262,0,0,1,2.745,9.765c.29,1.456.488,2.93.727,4.4l-.065.013C239.286,219.283,239.3,219.491,239.281,219.7Z" transform="translate(-138.921 -110.298)" stroke="#000" stroke-miterlimit="10" stroke-width="1"/>
        <path id="Path_801" data-name="Path 801" d="M189,235.754l-.344-.277c-.776-.821-1.523-1.67-2.336-2.453a6.034,6.034,0,0,1-1.745-2.856,4.489,4.489,0,0,0-1.267-2.039,13.409,13.409,0,0,1-3.7-7.946,11.958,11.958,0,0,1,.5-5.286,1.462,1.462,0,0,0-.313-1.674,3.29,3.29,0,0,1-.817-2.4c-.291-3.851,1.526-6.832,3.852-9.617.274-.328.588-.6,1.058-.276s.328.709.095,1.068c-.5.776-1.045,1.526-1.555,2.3a11.644,11.644,0,0,0-1.88,6.418,1.936,1.936,0,0,0,.854,1.862c.923.554.857,1.277.524,2.117a10.766,10.766,0,0,0-.749,4.834,10.88,10.88,0,0,0,2.642,6.774,10.2,10.2,0,0,1,2.454,4.131.453.453,0,0,0,.072.137c1.561,2.074,3.26,4,5.8,4.893.962.337,2.011.423,2.978.749a17.275,17.275,0,0,1,2.352,1.115c.44.227.776.444,1.095-.208.3-.613.811-.453,1.313-.155.481.285,1.007.493,1.5.759.7.376,1.2.439,1.533-.506.237-.669,1.054-.782,1.295-.2.708,1.7,2.314,1.613,3.631,1.857a18.541,18.541,0,0,0,12.533-1.991,12.047,12.047,0,0,0,4.4-3.782c.748-1.105,1.593-2.144,2.357-3.238a9.794,9.794,0,0,0,1.209-3.626c.239-1.054.665-1.214,1.658-.73a4.4,4.4,0,0,1,1.773,2.071c.316.563.575.481.852-.006a9.687,9.687,0,0,0,1.272-6.235c-.027-.2-.227-.437-.166-.576a2.477,2.477,0,0,1,.654-.945c.109-.086.5.182.763.3.043.019.069.075.106.111,1.156,1.144,1.143,1.139,1.8-.445a39.253,39.253,0,0,0,1.793-4.251c.733-2.586.284-5.18-.262-7.774a17.492,17.492,0,0,0-4.879-8.593,2.028,2.028,0,0,0-.716-.572,2.5,2.5,0,0,1-1.783-2.341,5.509,5.509,0,0,0-3.152-4.47c-.46-.216-.847-.511-.576-1.064.308-.628.8-.474,1.311-.207a8.208,8.208,0,0,1,4.177,5.456,1.969,1.969,0,0,0,.518,1.015,18.152,18.152,0,0,1,6.948,11.452,26.65,26.65,0,0,1,.24,6.467,9.069,9.069,0,0,1-.79,2.635c-.769,1.953-1.911,3.755-2.31,5.861a.784.784,0,0,1-1.216.542c-.719-.389-.81.054-.871.53a9,9,0,0,1-1.836,4.353,7.067,7.067,0,0,1-1.309,1.277c-.691.534-1.047.463-1.444-.291-.285-.541-.433-1.152-.691-1.709-.1-.211-.331-.36-.5-.537a4.663,4.663,0,0,1-.171.556,22.338,22.338,0,0,1-1.47,3.195,20.516,20.516,0,0,1-5.761,6.346,18.445,18.445,0,0,1-6.946,2.788,23.232,23.232,0,0,1-7.829.075,9.521,9.521,0,0,0-2.1-.022,7.4,7.4,0,0,1-4.164-.9c-.466-.26-.852-.1-.824.476.032.643-.441.794-.846.934-.551.19-.786-.256-1.068-.656a5.918,5.918,0,0,0-3.221-2.207C193.17,237.447,190.909,237.05,189,235.754Z" transform="translate(-156.192 -144.809)"/>
        <path id="Path_802" data-name="Path 802" d="M231.671,223.486a2.6,2.6,0,0,1-1.443,2.791,3.894,3.894,0,0,1-3.532-.937c-.223-.28-.389-.6-.595-.9a1.871,1.871,0,0,0-3.344.131,2.236,2.236,0,0,1-3.784-.158,6.085,6.085,0,0,1,1.476-7.279,15.03,15.03,0,0,1,4.968-2.737,11,11,0,0,1,6.208-.383,5.96,5.96,0,0,1,4.57,5.355,4.025,4.025,0,0,1-.2,1.349,1.209,1.209,0,0,1-1.811.791c-.186-.082-.338-.251-.528-.319a1.406,1.406,0,0,0-2.021,1.368A8.879,8.879,0,0,0,231.671,223.486Zm-5.377-4.033c1.609-.13,2.849-.375,3.779-1.416,1.031-1.155.875-2.077-.566-2.575a5.381,5.381,0,0,0-5.2,1.009,1.356,1.356,0,0,0,.254,2.392A11.227,11.227,0,0,0,226.294,219.453Z" transform="translate(-173.192 -154.929)"/>
        <path id="Path_803" data-name="Path 803" d="M202.493,189.208c-2.189-2.178-4.528-3.682-7.931-3.09-2.71.472-5.414,3.985-5.693,6.076-.068.506-.3,1.257.478,1.43s.827-.578,1.026-1.083c.3-.759.6-1.518.912-2.273a1.024,1.024,0,0,1,.189-.232,1.842,1.842,0,0,1,.215.315,12.813,12.813,0,0,0,.517,1.277,3.892,3.892,0,0,0,3.764,1.92c1.633-.361,2.882-.995,3.26-2.847a7.607,7.607,0,0,0-.224-2.249l-.136-.319.326.132a2.423,2.423,0,0,1,1.78,1.341c.169.254.225.615.442.8.236.2.672.415.888.32a1.269,1.269,0,0,0,.489-.853A.92.92,0,0,0,202.493,189.208Zm-5.7-.128a.561.561,0,0,1-.629.106.465.465,0,0,1-.275-.149l-.009-.011a.717.717,0,0,1-.1-.16c-.01-.016-.024-.028-.034-.046a.7.7,0,0,1,.09-.8.626.626,0,0,1,.615-.16l.008,0c.384-.117.861.291.7.7l0,0,.055.051c-.043.021-.076.041-.115.062A1.355,1.355,0,0,1,196.792,189.08Z" transform="translate(-160.439 -142.961)"/>
        <path id="Path_804" data-name="Path 804" d="M250.48,177.746a2.779,2.779,0,0,0-.646-.85,9.768,9.768,0,0,0-4.529-2.531,7.161,7.161,0,0,0-8.2,3.6c-.566,1.09-1.037,2.231-1.531,3.357-.285.649-.148,1.117.325,1.267s.882-.2,1.015-.879c.03-.149-.024-.319.019-.462a9.572,9.572,0,0,1,1.783-3.715,2.355,2.355,0,0,1,.5-.33c.044.174.092.347.13.523a7.163,7.163,0,0,0,.43,1.915,3.624,3.624,0,0,0,4.453,1.4,3.682,3.682,0,0,0,2.393-3.708.968.968,0,0,1-.072-.3,5.788,5.788,0,0,1,.1-.579c.188.056.426.057.555.177.672.621,1.292,1.3,1.986,1.9a1.159,1.159,0,0,0,.926.246A.714.714,0,0,0,250.48,177.746Zm-6.179-.9a.563.563,0,0,1-.141.289.556.556,0,0,1-.655.09.523.523,0,0,1-.4-.259.578.578,0,0,1-.063-.312.616.616,0,0,1,.057-.473.7.7,0,0,1,.546-.338l.01-.011.005.01a.781.781,0,0,1,.089-.009.681.681,0,0,1,.657.493A.6.6,0,0,1,244.3,176.841Z" transform="translate(-180.566 -137.85)"/>
        <path id="Path_805" data-name="Path 805" d="M200.817,165.9c-2.389.268-3.877,1.186-4.581,3.141a2.786,2.786,0,0,0-.171.586c-.072.582.4,1.4.8,1.28a1.962,1.962,0,0,0,.941-.866c.227-.376.228-.885.438-1.278.121-.226.459-.336.7-.5.066.23.147.457.194.691a15.043,15.043,0,0,0,.284,1.5c.311,1,1.055,1.282,1.68.509,1.293-1.6,2.989-1.6,4.757-1.522.205.009.434.1.609.035.256-.094.613-.256.668-.459a.833.833,0,0,0-.31-.748,3.6,3.6,0,0,0-1.868-.518c-1.186.246-2.513-.123-3.569.737-.054.044-.244.026-.262-.013a.57.57,0,0,1-.072-.4c.107-.229.318-.411.417-.642.147-.344.607-.707.15-1.087A3.244,3.244,0,0,0,200.817,165.9Z" transform="matrix(0.999, -0.035, 0.035, 0.999, -177.341, -126.156)"/>
        <path id="Path_806" data-name="Path 806" d="M238.571,246.884a4.635,4.635,0,0,1-.205,4.259c-1.39,2.542-4.83,1.906-5.893.115a13.915,13.915,0,0,1-.924-2.554,16.411,16.411,0,0,0,4.93-.9C237.19,247.535,237.875,247.192,238.571,246.884Z" transform="translate(-178.894 -169.241)" fill="#da291c"/>
        <path id="Path_807" data-name="Path 807" d="M234.765,162.793a11.46,11.46,0,0,0,.628-1.022c.275-.566.4-.233.515.072a10.531,10.531,0,0,0,.5,1.447,1.132,1.132,0,0,0,.772.533.645.645,0,0,0,.685-.822,13.789,13.789,0,0,0-.892-2.932c-.431-.885-.82-1.112-1.708-.451-.71.529-.979.376-1.393-.27-1.056-1.649-2.876-1.854-4.564-2.238-.262-.059-.751.286-.924.571a.719.719,0,0,0,.408,1.026,3.931,3.931,0,0,0,1.32.391,3.612,3.612,0,0,1,3,2.127,5.944,5.944,0,0,0,.7,1.008A4.724,4.724,0,0,0,234.765,162.793Z" transform="matrix(0.848, -0.53, 0.53, 0.848, -220.103, 16.404)"/>
        <path id="Path_808" data-name="Path 808" d="M161.392,193.29c.253.182.56.307.692.534.086.147-.048.46-.148.669a12.448,12.448,0,0,0-.638,1.21,2.008,2.008,0,0,0-.009.985c.077.4.3.764.366,1.16a3.651,3.651,0,0,0,1.42,2.738,2.455,2.455,0,0,1,.655,1.018.685.685,0,0,1-.4,1.008,1.431,1.431,0,0,1-.967-.159c-.2-.1-.278-.418-.434-.62-.279-.362-.592-.6-1-.155-.342.372-.8.413-1.058.043-.227-.324-.438-.981-.271-1.2.845-1.134.5-2.212.093-3.348a3.68,3.68,0,0,1,.979-3.487A4.958,4.958,0,0,1,161.392,193.29Z" transform="translate(-147.821 -146.113)"/>
        <path id="Path_809" data-name="Path 809" d="M284.783,189.558c.689-1.68-.485-2.778-1.236-3.992-.247-.4-.406-.712-.04-1.084.441-.447.855-.261,1.193.119a7.851,7.851,0,0,1,.908,1.23c.356.612.558,1.3,1.317,1.622a.728.728,0,0,1,.28,1.177c-1.014.986-.332,1.884.013,2.808a6.321,6.321,0,0,0,.471.793c.384.689.374,1.323-.053,1.5-.667.275-1.1-.135-1.4-.638a14.667,14.667,0,0,1-.985-1.915A13.789,13.789,0,0,1,284.783,189.558Z" transform="translate(-201.223 -142.199)"/>
        <path id="Path_810" data-name="Path 810" d="M236.468,242.556c-.7.308-1.381.651-2.092.919a16.411,16.411,0,0,1-4.93.9c-.854-.305-1.711-.6-2.557-.927a.449.449,0,0,1-.213-.354c0-.075.2-.2.316-.214a1.917,1.917,0,0,1,.616.026c5.3,1.02,9.274-1.062,12.328-5.285.15-.207.258-.483.46-.6a2.391,2.391,0,0,1,.785-.164c.031.269.193.641.074.792a39.582,39.582,0,0,1-2.569,3.034A26.635,26.635,0,0,1,236.468,242.556Z" transform="translate(-176.791 -164.913)"/>
        <path id="Path_811" data-name="Path 811" d="M230.363,220.553c1.609-.13,2.849-.375,3.779-1.416,1.031-1.155.875-2.077-.566-2.575a5.381,5.381,0,0,0-5.2,1.009,1.356,1.356,0,0,0,.254,2.392A11.226,11.226,0,0,0,230.363,220.553Z" transform="translate(-177.261 -156.029)" fill="#fff"/>
        <path id="Path_812" data-name="Path 812" d="M317.586,306.694a1.423,1.423,0,0,0-2.741.755,39.8,39.8,0,0,1,1.39,12.289c-.075,1.829,2.767,1.826,2.842,0A42.4,42.4,0,0,0,317.586,306.694Z" transform="translate(-214.815 -194.618)" fill="#070606"/>
      </g>
    </g>
  </g>
</svg>
