<?xml version="1.0" encoding="utf-8"?>
<!-- Generator: Adobe Illustrator 23.0.6, SVG Export Plug-In . SVG Version: 6.00 Build 0)  -->
<svg version="1.1" id="Layer_1" xmlns="http://www.w3.org/2000/svg" xmlns:xlink="http://www.w3.org/1999/xlink" x="0px" y="0px"
	 viewBox="0 0 20.2 24.2" style="enable-background:new 0 0 20.2 24.2;" xml:space="preserve">
<title>Asset 6</title>
<g>
	<path d="M20.1,18.3c-1.4-1.9-1.1-5.2-0.8-7.6c0.1-0.7,0.1-1.4,0.2-2c0.1-2.2-0.8-4.3-2.3-5.9C15.3,1,12.8,0,10,0
		C7.4,0,4.9,1,3.2,2.8C1.6,4.5,0.8,6.6,0.8,8.7c0,0.6,0.1,1.2,0.2,1.9c0.2,2.4,0.6,5.4-0.9,7.6c-0.1,0.2-0.2,0.5,0,0.8
		s0.4,0.4,0.7,0.4h18.7c0.3,0,0.5-0.2,0.7-0.4C20.3,18.8,20.3,18.5,20.1,18.3z M2,18c1-2.4,0.7-5.3,0.5-7.5C2.4,9.8,2.3,9.2,2.3,8.7
		C2.3,6.9,3,5.2,4.3,3.9C5.7,2.3,7.8,1.5,10,1.5c2.4,0,4.5,0.8,6,2.4c1.3,1.3,2,3,1.9,4.8c0,0.5-0.1,1.2-0.2,1.9
		c-0.2,2.2-0.5,5.1,0.4,7.4H2z"/>
	<path d="M7.9,3.8C6.2,4.6,5,6.3,4.9,8.2c0,0.4,0.3,0.8,0.7,0.8c0,0,0,0,0.1,0c0.4,0,0.7-0.3,0.7-0.7c0.1-1.4,1-2.6,2.2-3.2
		C9,5,9.1,4.5,8.9,4.2C8.8,3.8,8.3,3.6,7.9,3.8z"/>
	<path d="M13.5,20c-0.4,0-0.8,0.3-0.8,0.8c0,1-1.2,1.9-2.6,1.9s-2.6-0.8-2.6-1.9c0-0.4-0.3-0.8-0.8-0.8S6,20.4,6,20.8
		c0,1.9,1.9,3.4,4.1,3.4s4.1-1.5,4.1-3.4C14.2,20.4,13.9,20,13.5,20z"/>
</g>
</svg>
