<svg xmlns="http://www.w3.org/2000/svg" width="91.232" height="75.056" viewBox="0 0 91.232 75.056">
  <g id="Group_331" data-name="Group 331" transform="translate(-210.432 -314)">
    <path id="Union_5" data-name="Union 5" d="M0,70S10.447,66.24,13.553,58.56l2.3,1.4C9.093,53.6,4.972,45.122,4.972,35.82,4.972,16.038,23.611,0,46.6,0s41.63,16.038,41.63,35.82S69.593,71.642,46.6,71.642a47.241,47.241,0,0,1-17.172-3.18,33.732,33.732,0,0,1-15.768,3.594A46.453,46.453,0,0,1,0,70Z" transform="translate(211.932 315.5)" fill="#fff" stroke="#000" stroke-linecap="round" stroke-linejoin="round" stroke-width="3"/>
    <path id="Path_394" data-name="Path 394" d="M426.145,401.3c.142-4.816-4.674-5.68-7.981-7.26l-.648.717c-2.875-.791-3.594,1.223-5.533,2.373-.793-.647-1.512-1.58-2.447-1.725-2.588.215-6.4-.648-8.266,2.084.143.217.432.359.357.719-.215.576-.859,1.654-1.725,1.367-3.811,6.9,4.242,10.783,7.908,15.53,2.229,5.535-2.732,10.641-1.008,15.887h2.375v-1.365c-.289,0-.863.072-1.008-.359l1.365-1.078c-.07-2.732,1.3-4.816,2.807-6.9,2.8-6.613,10.063-5.608,12.364-12.725,1.295-.072.217-2.084,1.727-2.084Zm-3.811,5.9c-.5.719-2.443,1.078-2.443,2.371h-.649l-7.981,7.262c-.5-5.248-5.393-6.4-7.549-10.713-1.941-.359-1.51-2.66-1.078-3.811a11.548,11.548,0,0,1,3.811-4.1c2.086-.789,4.023.936,4.457,3.092,2.014.359,1.582,3.883,3.809,2.733,1.152-1.006.793-1.869.361-3.092-.5-.646-1.439-1.293-.719-2.371,2.443-1.51,7.694-2.014,8.627,1.725C423.268,402.308,423.34,405.185,422.334,407.2Z" transform="matrix(0.974, -0.225, 0.225, 0.974, -233.572, 44.992)" fill="#da291c"/>
  </g>
</svg>
