<svg id="Layer_1" data-name="Layer 1" xmlns="http://www.w3.org/2000/svg" viewBox="0 0 142.45 186.82"><defs><style>.cls-1{fill:#fff;}.cls-2{fill:#a37f71;}.cls-3{fill:#da291c;}.cls-4{stroke:#000;stroke-miterlimit:10;}.cls-5{fill:#281b1a;}.cls-6{fill:#070606;}.cls-7{opacity:0.3;}</style></defs><title>henry_landingpage</title><g id="Group_332" data-name="Group 332"><g id="Group_265" data-name="Group 265"><path id="Path_796" data-name="Path 796" class="cls-1" d="M71,182a17.27,17.27,0,0,0,8.09-2.18c4.12-2.33,5.38-7.38,4.83-10.53a33.15,33.15,0,0,0-2.28-6.66c-.36-.87-.77-1.58-.33-2.54a1.08,1.08,0,0,0-.31-1c-1.44-1-2.48-2.5-4.27-3.13a7.58,7.58,0,0,1-2.36-2,17.9,17.9,0,0,0-7.75-4.3,32.39,32.39,0,0,0-10-1,31.2,31.2,0,0,0-15.53,4.71A17.61,17.61,0,0,0,32.67,166a1.41,1.41,0,0,0,.51,1.18c1.29.6,1.14,1.66,1,2.68-.27,1.43-.69,2.82-1,4.24-.74,3.24.5,5.92,3.58,7s6.56,1.87,9.91.44a4,4,0,0,1,3.91.33,12,12,0,0,0,7.4,1.58,19.25,19.25,0,0,0,5.11-1.67,6,6,0,0,1,3.82-.43C68.35,181.68,69.87,181.86,71,182Z" transform="translate(0.01 -0.04)"/><path id="Path_797" data-name="Path 797" class="cls-1" d="M23.44,19.92,23,19.79l.3.24c.62.82,1.2,1.69,1.89,2.46a2.33,2.33,0,0,1,.45,2.7c-.46.95-1.43.66-2.24.61a5,5,0,0,0-5.19,2.74,22.4,22.4,0,0,0-1.56,4,6,6,0,0,1-3,4c-1,.5-1.93,1.1-2.93,1.58a3.14,3.14,0,0,0-1.61,2c-.59,1.74,0,3.43.18,5.12s.08,2.53-1.4,3.51a25.73,25.73,0,0,0-2.3,1.41,11.59,11.59,0,0,0-2.25,2.39c-.48.72,0,1.32.89,1.21,1.74-.2,2.68.64,3.46,2.07a3.06,3.06,0,0,1-.15,3.12A18.75,18.75,0,0,0,5.91,68a26,26,0,0,0,2.44,9.6,17.13,17.13,0,0,1,1.4,4.12c.28,1.93.92,3.91-.08,5.88-.83,1.64-.8,1.73.79,2.79a3.39,3.39,0,0,1,1.63,3.11c.13,5.24-.8,10.37-1.42,15.52a9.22,9.22,0,0,0,1.45,6.67,25.28,25.28,0,0,0,2.57,3,4.59,4.59,0,0,1,1.6,3,5.54,5.54,0,0,0,.41,1.6A3.42,3.42,0,0,0,20,126a6.42,6.42,0,0,1,4.55,1.7,4.51,4.51,0,0,0,1.27.7,28.91,28.91,0,0,0,7.79,2.1,8.32,8.32,0,0,0,5.05-.78,6.3,6.3,0,0,0,3.54-4.87c.23-1.22.75-1.91,2-1.81l.36.49c.12,3.38-2.52,7.63-6,8.63-1.21.34-1.46,1-1.49,2.08-.06,2.27.13,4.59-1.29,6.61-.06.09.14.52.24.53,1.59.16,3.17.38,4.76.4,9.34.12,18.67.26,28-.37,1.18-.08,2.38,0,3.55-.07,3.24-.33,6.46-.8,9.7-1.12a67,67,0,0,0,12.38-2.47,103.3,103.3,0,0,0,22.76-9.54,46,46,0,0,0,9.59-7c.68-.66,1-1.23.47-2.15-.76-1.32-1.4-2.72-2.16-4a1.26,1.26,0,0,0-1-.48c-3.34.43-6.47-.63-9.64-1.32a7.23,7.23,0,0,1-4.83-3.36c-.38-.65-.57-1.32.18-1.84a1.24,1.24,0,0,1,1.71.39.89.89,0,0,1,.15.31,3.77,3.77,0,0,0,3,2.2c1.89.42,3.79.81,5.68,1.23a7.26,7.26,0,0,0,8.08-2.91,60.75,60.75,0,0,1,4.51-6.1,25.31,25.31,0,0,0,2.76-4.39,8.26,8.26,0,0,0,1-4.82,47.79,47.79,0,0,0-.75-5.33,20.64,20.64,0,0,0-7.56-13c-3.26-2.53-4.75-5.87-5.76-9.6-.29-1.09.47-1.82,1.6-1.71a11.42,11.42,0,0,0,1.17,0,5.44,5.44,0,0,0-.22-1.33,12.37,12.37,0,0,0-1-1.58,10.66,10.66,0,0,1-1.7-7.9c.48-2.9.27-5.78-1.94-8-2-2-2.29-4.53-2.52-7.06-.36-3.77-.91-7.44-3.33-10.53a1.55,1.55,0,0,1-.3-1.9,1.08,1.08,0,0,0-.2-1,53.49,53.49,0,0,0-6.58-4.35,5,5,0,0,1-2.86-2.74,4.23,4.23,0,0,0-3.12-2.75,87.75,87.75,0,0,1-13.93-4.78,6.63,6.63,0,0,0-6,0,6.37,6.37,0,0,1-4.23.45c-2-.41-3.92-1.82-2.75-4.7.07-.2.15-.39.23-.58.32-.69-.13-.73-.57-.59a11.76,11.76,0,0,0-4.93,2.55c-1.23,1.21-1.79,1.06-2.17-.58a3,3,0,0,0-1.85-2.08c-.35-.18-.62-.28-.69.28-.59,4.63-4,6.74-8.61,5.25C53,9.32,50,10,47,11.12a18.13,18.13,0,0,0-4.2,2.21A5,5,0,0,1,39,14.54a8.75,8.75,0,0,0-5.05.91,2.85,2.85,0,0,0-1.78,2.15,7.6,7.6,0,0,1-2.54,4.2c-1,.94-1.34,1-2.21-.11A4.31,4.31,0,0,0,23.44,19.92Z" transform="translate(0.01 -0.04)"/><path id="Path_798" data-name="Path 798" class="cls-2" d="M139.5,172.38a83.4,83.4,0,0,0,.5-18.75c-.51-4.47-.72-9-1.63-13.4-1-4.65-3-10.91-6.7-14.14-.42-.37-.88-.71-1.27-1.12-1.91-2-3.35-6.28-1.89-8.83s4.25-4.32,6.35-6.46c3.63-3.69,6.52-8,7.21-13.23.77-5.82.52-13.31-2.5-18.51-1.54-2.65-3.83-4.77-6-7a18.4,18.4,0,0,1-5.6-12.3c-1-12.77-5.52-26.83-14-36.71a29.09,29.09,0,0,0-8.72-7c-4-2.08-8.42-2.7-12.83-3.61C88.71,10.53,85,9.64,81.26,8.5c-3.33-1-6.34-3.38-9.88-3.71A47.94,47.94,0,0,0,52.89,7.25a22.87,22.87,0,0,0-12.62,9.62c-5.36,3.3-9,9.28-15.16,11.88-4.76,2-6.29,6.53-7.31,11.23a25.82,25.82,0,0,0-2.07,2.79,8.5,8.5,0,0,0-3.64,3.72c-1.51,3.14-.8,7.31.24,11.26.05,1.71.19,3.44.36,5.16-2.35,8.3-1,17,1.47,25.21.66,2.13,1.33,4.3,2.05,6.47a78.69,78.69,0,0,1-.86,14c-.86,5.8-.16,11.83,5.2,15.29a20.14,20.14,0,0,0,6.2,2.2q.9.42,1.86.78c1.17.44,2.66.79,4,1.34a8.07,8.07,0,0,1,.9.67,5.19,5.19,0,0,0,1.51.92l.15.15c1.78,2.25.62,6-.11,8.4-1.83,6.08,1,11.29,7.8,11.23,2.84,0,5.58-.75,8.44-.67,1,0,1.89.11,2.83.23a26.67,26.67,0,0,0-8.31,4.72c-4.38,3.65-8.37,10.31-8.43,16.48-.08.23-.16.46-.23.7-1.21,4.08-.51,9.12,3.21,11.68,2.54,1.75,4.83,1.2,7-.1a76.68,76.68,0,0,0,8.32,2.09,79.9,79.9,0,0,0,16.86,2.19,17.08,17.08,0,0,0,3.9-.43,12.67,12.67,0,0,0,5-.82c4.87-2.12,6.45-7.36,6.19-12.48.08-.36-.06-.38,0-.74M49.75,63a1.68,1.68,0,0,1-.49.71.75.75,0,0,1-.85.14.62.62,0,0,1-.37-.2h0a.74.74,0,0,1-.14-.22l0-.06A1,1,0,0,1,48,62.3a.83.83,0,0,1,.83-.21h0C49.32,61.92,50,62.47,49.75,63ZM84.6,53.21a1,1,0,0,1,.88-.47.91.91,0,0,1,.88.67.77.77,0,0,1-.14.7.75.75,0,0,1-.19.39.74.74,0,0,1-.88.12.68.68,0,0,1-.54-.35.78.78,0,0,1-.09-.42A.85.85,0,0,1,84.6,53.21Z" transform="translate(0.01 -0.04)"/><path id="Path_799" data-name="Path 799" class="cls-3" d="M135.8,150.84c0,.36,0,.73,0,1.09s-.07.52-.12.78a1.88,1.88,0,0,1-.64-.34c-1.89-2.1-3.72-4.33-5.65-6.33-2.93-3-5.91-5.94-8.9-8.81-.61-.59-.38-.69.05-1A61.35,61.35,0,0,0,131,125.42c.47-.66.65-.37.86.43A142,142,0,0,1,135,143.06c.34,2.57.57,5.17.85,7.75Z" transform="translate(0.01 -0.04)"/><path id="Path_800" data-name="Path 800" class="cls-4" d="M139,149.41a82.65,82.65,0,0,0-4.43-20.79c-.9-2.62-2.49-5-3-7.74a2.16,2.16,0,0,0-.78-1.44c-1.7-.84-2-2.64-2.84-4-1-1.52-.89-1.75.44-2.94a11.58,11.58,0,0,0,3.49-4.61,4.63,4.63,0,0,1,1.28-1.6c2.38-2.25,3.83-5.1,5.23-8a5,5,0,0,0,.41-1.83c.34-7.12-1.15-13.72-5.76-19.34a32.53,32.53,0,0,0-4-4A11.44,11.44,0,0,1,125.68,68c-.29-.83,0-.88.75-.8a1.41,1.41,0,0,0,1.71-1,1.46,1.46,0,0,0,0-.51,7.27,7.27,0,0,0-1.86-5.36,6,6,0,0,1-1.63-4.12,14.49,14.49,0,0,1,.19-3.54,9.76,9.76,0,0,0-2.36-8.35,9.65,9.65,0,0,1-2.11-5.53c-.06-.42-.09-.83-.14-1.25-.37-3.18-.67-6.38-2.51-9.17-.14-.21-.29-.6-.2-.75,1-1.65-.17-2.69-1.12-3.61a29,29,0,0,0-7.81-5.54,3.45,3.45,0,0,1-1.87-1.79,7,7,0,0,0-5-4A85.65,85.65,0,0,1,88.13,8a8.11,8.11,0,0,0-6.86.09A16.46,16.46,0,0,1,78.93,9a1.77,1.77,0,0,1-2.05-.65A1.65,1.65,0,0,1,77,6.19,10.67,10.67,0,0,1,78.56,4.8c1-.88,1-1.74-.27-2.21a4.41,4.41,0,0,0-2.61-.3,44.84,44.84,0,0,0-5.61,2.17,1.24,1.24,0,0,1-1.54-.12A71.51,71.51,0,0,0,62.3.58C62,.43,61.36.74,61.07,1A1.25,1.25,0,0,0,61,2.13a16.64,16.64,0,0,0,.93,1.38,3.2,3.2,0,0,1,0,3.37A2.81,2.81,0,0,1,59,8.46c-1-.1-2-.42-3.07-.55a16.09,16.09,0,0,0-4.32-.37,21.3,21.3,0,0,0-10.2,4,2.82,2.82,0,0,1-2.28.67,9.79,9.79,0,0,0-6.07,1.13A5.11,5.11,0,0,0,30,17a6.9,6.9,0,0,1-.7,1.74c-.24.52-.59.72-1.14.3-2.82-2.17-6-1.73-9.23-1.38A1.72,1.72,0,0,0,17.22,19c-.12.82.64,1.14,1.25,1.48,1.09.62,2.17,1.24,3.23,1.9a5.2,5.2,0,0,1,.85.84,3.66,3.66,0,0,1-1.06.49,7.3,7.3,0,0,0-4.43,2.55,9.91,9.91,0,0,0-2.5,5.19A4.24,4.24,0,0,1,11.91,35a23.31,23.31,0,0,0-2.22,1.15,5.57,5.57,0,0,0-3,4.91,16.27,16.27,0,0,0,.13,3.12c.33,2.47.4,2.52-1.83,3.82C2,49.68.29,52.09.51,55.62c.05.89-.21,2,.87,2.36s1.43-.59,2-1.18,1.12-.94,1.83-.48.5,1.14.23,1.85A27.55,27.55,0,0,0,4.1,62.33,25.4,25.4,0,0,0,6.18,78.22a18,18,0,0,1,1.66,6.64c0,.84.16,1.65-1.12,1.8A1,1,0,0,0,6,88.27a19.41,19.41,0,0,0,2.73,3.65,2.38,2.38,0,0,1,.88,2.31c-.5,3.65-.79,7.34-1.46,11a18.88,18.88,0,0,0,.73,9.66,8.52,8.52,0,0,0,3.25,4.72,3.39,3.39,0,0,1,1.54,2.59,11.85,11.85,0,0,0,.36,1.85,5.93,5.93,0,0,0,6.32,4.66,4.06,4.06,0,0,1,2.11.6c2.67,1.31,5.31,2.77,8.4,2.93,1.31.07,2.62.3,3.93.45,0,1.34-.11,2.69-.1,4a3.49,3.49,0,0,1-1.8,3.5c-.66.36-1.06,1-.4,1.72s.33,1.09.17,1.71c-.36,1.43-.87,3.09,0,4.26,1.21,1.56,1,3.22,1.23,4.91a14,14,0,0,0,.61,2.64,1.51,1.51,0,0,1-.36,1.69c-3.23,3.51-4,7.86-4.11,12.4a1.85,1.85,0,0,0,.53,1.45c.71.45.7.89.49,1.56a10.23,10.23,0,0,0-.4,2c-.44,4.23,1.51,7.46,5.41,8.85a19.62,19.62,0,0,0,8.86,1,14.71,14.71,0,0,1,7.27.61c2.42.7,4.87,1.25,7.38.43a33.25,33.25,0,0,0,3.74-1.33,5.8,5.8,0,0,1,3.85-.32,18.25,18.25,0,0,0,7.25.19c9.38-1.7,13.92-10.14,10.92-18-.32-.85-.58-1.71-.89-2.56s-.93-1.66.48-2.14c.17-.06.28-1,.08-1.27A11.79,11.79,0,0,0,83.33,158c-.58-.57-1.25-1-1.88-1.56a7.08,7.08,0,0,1-.29-1.12c-.08-.82-.44-1.21-1.23-.77-1.05.58-1.71-.15-2.42-.65-1.91-1.38-3.81-2.78-5.7-4.18a3.25,3.25,0,0,1-.5-.61,4.58,4.58,0,0,1,.73-.18c5-.7,10-1.27,15-2.12a108.73,108.73,0,0,0,23.41-7,8.9,8.9,0,0,0,1.54-.63c1.93-1.31,3.58-.63,5.36.48a148.71,148.71,0,0,1,18.08,13,7.87,7.87,0,0,0,2.24.93C139.19,152.52,139.12,150.9,139,149.41ZM74.39,154a7.82,7.82,0,0,0,2.36,2c1.79.63,2.83,2.13,4.27,3.13a1.07,1.07,0,0,1,.31,1c-.43,1,0,1.68.33,2.55A32.69,32.69,0,0,1,84,169.33c.54,3.15-.72,8.21-4.83,10.53A17.28,17.28,0,0,1,71,182c-1.15-.18-2.67-.36-4.16-.67a5.93,5.93,0,0,0-3.82.44,19.62,19.62,0,0,1-5.11,1.67,12,12,0,0,1-7.4-1.59,4.07,4.07,0,0,0-3.91-.33c-3.35,1.43-6.7.72-9.91-.43s-4.32-3.78-3.58-7c.32-1.41.74-2.81,1-4.23.18-1,.33-2.09-1-2.69a1.39,1.39,0,0,1-.51-1.18,17.6,17.6,0,0,1,8.42-12.54,31.21,31.21,0,0,1,15.53-4.72,32.29,32.29,0,0,1,10,1,17.84,17.84,0,0,1,7.75,4.3Zm-37.14-3.9h4.31a2.83,2.83,0,0,1,.4.08,2.06,2.06,0,0,1-.3.41l-4.37,3.45c-.41.32-.78.37-.89-.23A24.73,24.73,0,0,1,36,151c-.06-.94.33-1.25,1.25-.86Zm79.93-22a103.3,103.3,0,0,1-22.76,9.54A67.13,67.13,0,0,1,82,140.17c-3.24.32-6.46.79-9.69,1.12-1.18.12-2.37,0-3.55.07-9.33.64-18.66.49-28,.37-1.59,0-3.18-.24-4.76-.4-.1,0-.3-.44-.24-.53,1.42-2,1.22-4.34,1.28-6.6,0-1.08.28-1.75,1.49-2.09,3.52-1,6.17-5.24,6-8.63l-.35-.48c-1.31-.1-1.83.58-2,1.81a6.34,6.34,0,0,1-3.55,4.86,8.31,8.31,0,0,1-5,.78,28.74,28.74,0,0,1-7.78-2.1,4.38,4.38,0,0,1-1.27-.7A6.44,6.44,0,0,0,20,126a3.43,3.43,0,0,1-3.32-2.65,5.89,5.89,0,0,1-.41-1.6,4.59,4.59,0,0,0-1.6-3,25.41,25.41,0,0,1-2.57-3A9.19,9.19,0,0,1,10.66,109c.62-5.15,1.56-10.28,1.43-15.51a3.42,3.42,0,0,0-1.63-3.11c-1.59-1.06-1.63-1.16-.8-2.8,1-2,.36-4,.08-5.88a16.88,16.88,0,0,0-1.39-4.11A25.89,25.89,0,0,1,5.9,68a18.81,18.81,0,0,1,1.62-8.91,3.08,3.08,0,0,0,.16-3.13C6.89,54.5,6,53.65,4.21,53.86c-.91.11-1.37-.5-.89-1.21a11.39,11.39,0,0,1,2.26-2.39,25.73,25.73,0,0,1,2.3-1.41c1.48-1,1.64-1.68,1.4-3.51S8.51,42,9.1,40.21a3.12,3.12,0,0,1,1.6-2.05c1-.47,1.94-1.08,2.93-1.58a6,6,0,0,0,3-4,24.23,24.23,0,0,1,1.56-4,5,5,0,0,1,5.19-2.75c.82.06,1.79.34,2.24-.61a2.31,2.31,0,0,0-.45-2.7c-.68-.77-1.26-1.63-1.89-2.45l-.3-.24.42.12a4.34,4.34,0,0,1,4,1.76c.86,1.08,1.23,1,2.2.11a7.6,7.6,0,0,0,2.54-4.2A2.85,2.85,0,0,1,34,15.43,8.78,8.78,0,0,1,39,14.52a4.92,4.92,0,0,0,3.81-1.22A18.48,18.48,0,0,1,47,11.1c2.95-1.18,6-1.8,9.13-.76,4.58,1.5,8-.62,8.61-5.26.07-.55.34-.45.69-.27a3,3,0,0,1,1.85,2.08c.38,1.64.94,1.79,2.17.58a11.74,11.74,0,0,1,4.94-2.55c.43-.14.88-.1.57.59-.09.19-.16.38-.24.58-1.17,2.88.78,4.29,2.76,4.7a6.33,6.33,0,0,0,4.22-.45,6.63,6.63,0,0,1,6,0,88.44,88.44,0,0,0,13.93,4.78,4.21,4.21,0,0,1,3.12,2.75,5,5,0,0,0,2.86,2.73,55.66,55.66,0,0,1,6.59,4.36,1.07,1.07,0,0,1,.19,1,1.57,1.57,0,0,0,.3,1.9c2.42,3.1,3,6.76,3.33,10.53.24,2.53.52,5.06,2.52,7.06,2.21,2.22,2.43,5.1,1.94,8a10.66,10.66,0,0,0,1.7,7.9,11.36,11.36,0,0,1,1,1.58,5,5,0,0,1,.22,1.33,11.42,11.42,0,0,1-1.17,0c-1.13-.11-1.9.62-1.6,1.71,1,3.73,2.5,7.07,5.76,9.6a20.6,20.6,0,0,1,7.56,13,47.82,47.82,0,0,1,.76,5.33,8.33,8.33,0,0,1-1,4.82,25.74,25.74,0,0,1-2.77,4.39,62.33,62.33,0,0,0-4.51,6.1,7.26,7.26,0,0,1-8.08,2.91c-1.89-.42-3.78-.81-5.68-1.23a3.8,3.8,0,0,1-3-2.2,1.24,1.24,0,0,0-1.54-.84,1.3,1.3,0,0,0-.32.14c-.75.52-.56,1.19-.18,1.84a7.23,7.23,0,0,0,4.84,3.36c3.16.69,6.3,1.75,9.63,1.32a1.23,1.23,0,0,1,1,.48c.77,1.31,1.4,2.71,2.17,4,.53.92.2,1.49-.47,2.15a46.2,46.2,0,0,1-9.59,7ZM136,148.22a4.34,4.34,0,0,1-.14.6,2.84,2.84,0,0,1-.74-.26c-2.17-1.61-4.28-3.32-6.51-4.85-3.38-2.32-6.82-4.54-10.27-6.75-.71-.45-.43-.52.06-.8a62.85,62.85,0,0,0,12-8.24c.54-.5.75-.29,1,.33a77.49,77.49,0,0,1,3.7,13.18c.39,2,.66,4,1,5.94l-.08,0c0,.27,0,.55,0,.82Z" transform="translate(0.01 -0.04)"/><path id="Path_801" data-name="Path 801" d="M44.78,123.31l-.47-.38c-1-1.1-2.05-2.25-3.15-3.31a8.21,8.21,0,0,1-2.36-3.85A6,6,0,0,0,37.09,113a18.15,18.15,0,0,1-5-10.72,16.16,16.16,0,0,1,.68-7.14,2,2,0,0,0-.43-2.26,4.45,4.45,0,0,1-1.1-3.23c-.39-5.2,2.06-9.23,5.2-13,.37-.44.8-.8,1.43-.37s.44,1,.13,1.44c-.68,1.05-1.41,2.06-2.1,3.1a15.77,15.77,0,0,0-2.54,8.67A2.6,2.6,0,0,0,34.52,92c1.25.75,1.16,1.72.71,2.86a14.54,14.54,0,0,0-1,6.52,14.74,14.74,0,0,0,3.57,9.15,13.7,13.7,0,0,1,3.31,5.57.69.69,0,0,0,.1.19c2.11,2.8,4.4,5.4,7.83,6.6,1.3.45,2.72.57,4,1a23.08,23.08,0,0,1,3.18,1.5c.59.3,1,.6,1.47-.28s1.1-.61,1.78-.21,1.36.66,2,1c1,.51,1.62.6,2.07-.68.32-.9,1.43-1.06,1.75-.27,1,2.29,3.12,2.17,4.9,2.5a25,25,0,0,0,16.92-2.69,16.32,16.32,0,0,0,5.94-5.1c1-1.49,2.15-2.89,3.18-4.37a13.26,13.26,0,0,0,1.63-4.9c.32-1.42.9-1.63,2.24-1a5.89,5.89,0,0,1,2.39,2.8c.43.76.78.65,1.15,0a13.12,13.12,0,0,0,1.72-8.42c0-.27-.31-.59-.23-.77a3.34,3.34,0,0,1,.88-1.28c.15-.12.68.25,1,.4a1,1,0,0,1,.14.15c1.56,1.55,1.54,1.54,2.43-.6A51.62,51.62,0,0,0,112.07,96c1-3.49.39-7-.35-10.49a23.6,23.6,0,0,0-6.59-11.6,2.66,2.66,0,0,0-1-.77A3.37,3.37,0,0,1,101.76,70a7.45,7.45,0,0,0-4.25-6c-.62-.29-1.15-.69-.78-1.44s1.08-.64,1.77-.28a11.09,11.09,0,0,1,5.64,7.37,2.62,2.62,0,0,0,.7,1.37,24.52,24.52,0,0,1,9.38,15.46,35.93,35.93,0,0,1,.32,8.73,11.94,11.94,0,0,1-1.07,3.55c-1,2.64-2.58,5.07-3.11,7.92a1.07,1.07,0,0,1-1.65.73c-1-.53-1.09.07-1.17.71a12.14,12.14,0,0,1-2.48,5.88,9,9,0,0,1-1.77,1.72c-.93.72-1.41.63-2-.39-.38-.73-.58-1.56-.93-2.31a3.06,3.06,0,0,0-.68-.72,5.37,5.37,0,0,1-.23.75,30,30,0,0,1-2,4.31c-2.13,3.26-4.43,6.38-7.78,8.56a24.71,24.71,0,0,1-9.37,3.77,31.52,31.52,0,0,1-10.57.1,12.18,12.18,0,0,0-2.83,0,10,10,0,0,1-5.62-1.22c-.63-.35-1.15-.13-1.11.64s-.6,1.07-1.15,1.26c-.74.26-1.06-.34-1.44-.88a8,8,0,0,0-4.34-3C50.41,125.59,47.37,125.06,44.78,123.31Z" transform="translate(0.01 -0.04)"/><path id="Path_802" data-name="Path 802" d="M79.44,93.08a3.52,3.52,0,0,1-2,3.77,5.27,5.27,0,0,1-4.77-1.26c-.3-.38-.52-.82-.8-1.22a2.52,2.52,0,0,0-3.43-1,2.45,2.45,0,0,0-1.08,1.17,3,3,0,0,1-4.2.78,3.19,3.19,0,0,1-.91-1,8.23,8.23,0,0,1,2-9.83A20.13,20.13,0,0,1,71,80.82a14.79,14.79,0,0,1,8.38-.52,8,8,0,0,1,6.17,7.23,5.62,5.62,0,0,1-.27,1.82,1.64,1.64,0,0,1-1.93,1.27,1.93,1.93,0,0,1-.52-.2c-.25-.11-.45-.34-.71-.43a1.9,1.9,0,0,0-2.73,1.84C79.39,92.25,79.4,92.67,79.44,93.08Zm-7.26-5.44c2.17-.18,3.85-.51,5.1-1.91,1.39-1.56,1.18-2.8-.76-3.48a7.27,7.27,0,0,0-7,1.37A1.82,1.82,0,0,0,69,86.15a1.7,1.7,0,0,0,.85.69,15.13,15.13,0,0,0,2.35.8Z" transform="translate(0.01 -0.04)"/><path id="Path_803" data-name="Path 803" d="M57.27,63c-3-2.94-6.11-5-10.71-4.17-3.66.64-7.31,5.38-7.68,8.2-.09.68-.41,1.7.64,1.93s1.12-.78,1.39-1.46c.4-1,.81-2,1.23-3.07a1.26,1.26,0,0,1,.25-.31,2,2,0,0,1,.29.42c.21.59.44,1.16.7,1.72a5.27,5.27,0,0,0,5.08,2.6c2.2-.49,3.89-1.35,4.4-3.85a9.68,9.68,0,0,0-.3-3l-.18-.43.44.18a3.24,3.24,0,0,1,2.4,1.81c.23.34.3.83.6,1.07s.91.56,1.2.43a1.64,1.64,0,0,0,.66-1.15A1.26,1.26,0,0,0,57.27,63Zm-7.7-.17a.77.77,0,0,1-.85.14.57.57,0,0,1-.37-.2v0a.6.6,0,0,1-.14-.21l-.05-.06a1,1,0,0,1,.12-1.08.86.86,0,0,1,.83-.22h0c.52-.16,1.17.4,1,1h0l.07.07-.15.08a1.84,1.84,0,0,1-.41.55Z" transform="translate(0.01 -0.04)"/><path id="Path_804" data-name="Path 804" d="M94.87,54.4A3.65,3.65,0,0,0,94,53.25a13.07,13.07,0,0,0-6.11-3.41A9.64,9.64,0,0,0,76.82,54.7c-.77,1.47-1.4,3-2.07,4.53-.39.88-.2,1.51.44,1.71s1.19-.28,1.37-1.19c0-.2,0-.43,0-.62a12.81,12.81,0,0,1,2.41-5,3,3,0,0,1,.67-.45c.06.23.12.47.17.7A9.93,9.93,0,0,0,80.41,57a4.89,4.89,0,0,0,6,1.89,5,5,0,0,0,3.23-5,1.8,1.8,0,0,1-.1-.4c0-.26.08-.52.14-.78.25.07.58.08.75.24.91.84,1.74,1.75,2.68,2.56a1.6,1.6,0,0,0,1.25.33A1,1,0,0,0,95,54.57.53.53,0,0,0,94.87,54.4Zm-8.34-1.22a.75.75,0,0,1-.19.39.74.74,0,0,1-.88.12.68.68,0,0,1-.54-.35.69.69,0,0,1-.08-.42.79.79,0,0,1,.07-.64,1,1,0,0,1,.74-.46h.14a.93.93,0,0,1,.89.66A.82.82,0,0,1,86.53,53.18Z" transform="translate(0.01 -0.04)"/><path id="Path_805" data-name="Path 805" d="M41.35,43.45c.77.25.37.93.36,1.44,0,.34-.18.67-.2,1a.8.8,0,0,0,.29.47s.29,0,.34-.12c.89-1.61,2.74-1.81,4.1-2.71a4.9,4.9,0,0,1,2.6-.29,1.12,1.12,0,0,1,.76.78c0,.29-.33.67-.6.91s-.52.17-.78.26C46,46,43.84,46.84,43,49.49c-.4,1.28-1.48,1.3-2.36.21A19.71,19.71,0,0,1,39.55,48c-.18-.27-.39-.51-.59-.77-.22.32-.59.63-.63,1-.06.6.19,1.24.09,1.82a2.63,2.63,0,0,1-.74,1.56c-.44.35-1.44-.44-1.64-1.21a3.65,3.65,0,0,1-.08-.81c-.09-2.81,1.31-4.7,4.17-6.24A4.6,4.6,0,0,1,41.35,43.45Z" transform="translate(0.01 -0.04)"/><path id="Path_806" data-name="Path 806" class="cls-3" d="M81.05,105.35a6.25,6.25,0,0,1-.27,5.75c-1.88,3.43-6.52,2.57-8,.16a19.18,19.18,0,0,1-1.24-3.45,21.89,21.89,0,0,0,6.65-1.22C79.19,106.23,80.11,105.77,81.05,105.35Z" transform="translate(0.01 -0.04)"/><path id="Path_807" data-name="Path 807" d="M85.84,39.3a7.91,7.91,0,0,1-1.48-.75,4.85,4.85,0,0,0-4.93-.61,5.38,5.38,0,0,1-1.82.38h-.17a1,1,0,0,1-1-1c0-.45.38-1.17.73-1.27,2.26-.62,4.55-1.55,6.86-.26.9.5,1.32.51,1.83-.57.63-1.35,1.24-1.33,2.32-.56a18.82,18.82,0,0,1,2.93,2.92.84.84,0,0,1,.18.28A.87.87,0,0,1,90.85,39a1.59,1.59,0,0,1-1.26-.14,14.41,14.41,0,0,1-1.52-1.4c-.34-.29-.7-.61-.67.24a14.66,14.66,0,0,1-.09,1.62A7.21,7.21,0,0,1,85.84,39.3Z" transform="translate(0.01 -0.04)"/><path id="Path_808" data-name="Path 808" d="M18.82,64.23c.34.24.76.41.93.72s-.06.62-.19.9a17,17,0,0,0-.87,1.63,2.72,2.72,0,0,0,0,1.33c.1.53.4,1,.49,1.56.26,1.45.57,2.8,1.92,3.7A3.32,3.32,0,0,1,22,75.45a.93.93,0,0,1-.33,1.27.67.67,0,0,1-.21.09,1.9,1.9,0,0,1-1.3-.22c-.27-.13-.38-.56-.59-.83-.37-.49-.8-.81-1.35-.21s-1.08.55-1.43.06-.59-1.33-.36-1.63c1.14-1.53.67-3,.12-4.52a5,5,0,0,1,1.32-4.71A6.94,6.94,0,0,1,18.82,64.23Z" transform="translate(0.01 -0.04)"/><path id="Path_809" data-name="Path 809" d="M113.29,64.47c.93-2.27-.65-3.75-1.67-5.39-.33-.54-.54-1-.05-1.46s1.16-.35,1.61.16a11.14,11.14,0,0,1,1.23,1.66c.48.83.75,1.76,1.78,2.19a1,1,0,0,1,.57,1.27.83.83,0,0,1-.2.32c-1.36,1.33-.44,2.54,0,3.79a8.9,8.9,0,0,0,.64,1.07c.52.93.5,1.78-.07,2-.9.37-1.48-.18-1.89-.86a19.17,19.17,0,0,1-1.33-2.59A18.17,18.17,0,0,1,113.29,64.47Z" transform="translate(0.01 -0.04)"/><path id="Path_810" data-name="Path 810" class="cls-5" d="M81.05,105.35c-.94.42-1.86.88-2.82,1.24a21.89,21.89,0,0,1-6.65,1.22c-1.16-.41-2.31-.81-3.46-1.25a.61.61,0,0,1-.28-.48c0-.1.26-.26.42-.29a2.56,2.56,0,0,1,.83,0c7.16,1.38,12.52-1.44,16.65-7.14.2-.28.34-.65.62-.81a3.13,3.13,0,0,1,1.06-.22c0,.36.26.86.1,1.07q-1.63,2.13-3.47,4.1A34.47,34.47,0,0,1,81.05,105.35Z" transform="translate(0.01 -0.04)"/><path id="Path_811" data-name="Path 811" class="cls-1" d="M72.18,87.64c2.17-.17,3.85-.5,5.1-1.91,1.39-1.56,1.18-2.8-.76-3.47a7.26,7.26,0,0,0-7,1.36A1.82,1.82,0,0,0,69,86.15a1.77,1.77,0,0,0,.85.7A15.09,15.09,0,0,0,72.18,87.64Z" transform="translate(0.01 -0.04)"/><path id="Path_812" data-name="Path 812" class="cls-6" d="M139.23,151.83a1.93,1.93,0,0,0-3.71,1,53.72,53.72,0,0,1,1.88,16.59c-.1,2.47,3.74,2.46,3.84,0A57.19,57.19,0,0,0,139.23,151.83Z" transform="translate(0.01 -0.04)"/></g><path id="Path_414" data-name="Path 414" class="cls-7" d="M86.74,167.24h53.8l-.69,5.1H87.78c-.91,0-.65-1.82-.65-2.62Z" transform="translate(0.01 -0.04)"/></g></svg>