<svg id="Layer_1" data-name="Layer 1" xmlns="http://www.w3.org/2000/svg" xmlns:xlink="http://www.w3.org/1999/xlink" viewBox="0 0 375.58 328.96"><defs><style>.cls-1,.cls-2{fill:#4872ae;}.cls-1,.cls-11{opacity:0.08;}.cls-3{filter:url(#Rectangle_236);}.cls-4,.cls-6{fill:#fff;}.cls-4,.cls-8{stroke:#000;}.cls-4{stroke-linecap:round;stroke-linejoin:round;stroke-width:3px;}.cls-5{fill:#da291c;}.cls-7{fill:#a37f71;}.cls-8{stroke-miterlimit:10;}.cls-9{fill:#281b1a;}.cls-10{fill:#070606;}</style><filter id="Rectangle_236" y="166.29" width="375" height="163" name="Rectangle_236"><feOffset dy="-5"/><feFlood flood-opacity="0.09"/><feComposite operator="in" in="blur"/><feComposite in="SourceGraphic"/></filter></defs><title>henry_landingpage</title><path id="Rectangle_236-2" data-name="Rectangle 236-2" class="cls-1" d="M12.08,166.65h351a12,12,0,0,1,12,12v146H.08v-146A12,12,0,0,1,12.08,166.65Z" transform="translate(0.5 -0.04)"/><path id="Rectangle_236-2-2" data-name="Rectangle 236-2" class="cls-2" d="M11.5,171h351a12,12,0,0,1,12,12V329H-.5V183A12,12,0,0,1,11.5,171Z" transform="translate(0.5 -0.04)"/><g id="Group_344" data-name="Group 344"><g id="Group_343" data-name="Group 343"><g id="Group_331" data-name="Group 331"><path id="Union_5" data-name="Union 5" class="cls-4" d="M211.93,97.83s10.45-3.76,13.56-11.44l2.3,1.4C221,81.43,216.9,73,216.9,63.65c0-19.78,18.64-35.82,41.63-35.82s41.63,16,41.63,35.82-18.63,35.83-41.63,35.83a47.56,47.56,0,0,1-17.17-3.18,33.71,33.71,0,0,1-15.77,3.59A46.21,46.21,0,0,1,211.93,97.83Z" transform="translate(0.5 -0.04)"/><path id="Path_394" data-name="Path 394" class="cls-5" d="M271.79,52.31c-1-4.72-5.83-4.48-9.41-5.27l-.47.84c-3-.12-3.23,2-4.86,3.56-.91-.46-1.82-1.2-2.77-1.13-2.47.79-6.38.8-7.58,3.89.19.17.5.25.51.62-.08.6-.47,1.8-1.37,1.72-2.16,7.57,6.55,9.54,11.19,13.34,3.42,4.89-.26,11,2.6,15.7l2.31-.53-.31-1.33c-.28.06-.82.26-1.06-.12l1.09-1.36c-.69-2.65.18-5,1.18-7.35,1.24-7.07,8.54-7.73,9.18-15.18,1.24-.36-.26-2.08,1.21-2.42Zm-2.39,6.6c-.32.82-2.14,1.6-1.84,2.86l-.64.15-6.14,8.87c-1.66-5-6.69-5-9.76-8.74-2,.09-2.07-2.25-1.91-3.47a11.65,11.65,0,0,1,2.79-4.85c1.86-1.24,4.13,0,5,2,2-.1,2.41,3.43,4.32,1.81.9-1.24.36-2-.34-3.1-.63-.51-1.69-.93-1.23-2.14,2-2,7-3.7,8.79-.27.73,1.9,1.45,4.69.92,6.87Z" transform="translate(0.5 -0.04)"/></g><g id="Group_332" data-name="Group 332"><g id="Group_265" data-name="Group 265"><path id="Path_796" data-name="Path 796" class="cls-6" d="M119.66,182a17.21,17.21,0,0,0,8.09-2.18c4.12-2.33,5.38-7.38,4.83-10.53a32.54,32.54,0,0,0-2.28-6.66c-.36-.87-.76-1.58-.33-2.54a1.08,1.08,0,0,0-.31-1c-1.44-1-2.48-2.5-4.27-3.13a7.7,7.7,0,0,1-2.36-2,17.9,17.9,0,0,0-7.75-4.3,32.33,32.33,0,0,0-10-1,31.2,31.2,0,0,0-15.53,4.71A17.64,17.64,0,0,0,81.3,166a1.39,1.39,0,0,0,.52,1.18c1.29.6,1.14,1.66,1,2.68-.26,1.43-.68,2.82-1,4.24-.74,3.24.5,5.92,3.58,7s6.57,1.87,9.92.44a4,4,0,0,1,3.9.33,12,12,0,0,0,7.4,1.58,19,19,0,0,0,5.11-1.67,6,6,0,0,1,3.83-.43C117,181.68,118.5,181.86,119.66,182Z" transform="translate(0.5 -0.04)"/><path id="Path_797" data-name="Path 797" class="cls-6" d="M72.07,19.92l-.41-.13L72,20c.63.82,1.21,1.69,1.89,2.46a2.33,2.33,0,0,1,.45,2.7c-.45.95-1.42.66-2.24.61a5,5,0,0,0-5.19,2.74,23.17,23.17,0,0,0-1.56,4,6,6,0,0,1-3,4c-1,.5-1.93,1.1-2.93,1.58a3.12,3.12,0,0,0-1.6,2c-.59,1.74,0,3.43.18,5.12s.08,2.53-1.4,3.51a25.73,25.73,0,0,0-2.3,1.41A11.38,11.38,0,0,0,52,52.65c-.47.72,0,1.32.89,1.21,1.74-.2,2.68.64,3.47,2.07a3.06,3.06,0,0,1-.16,3.12A18.87,18.87,0,0,0,54.54,68,25.79,25.79,0,0,0,57,77.57a17.55,17.55,0,0,1,1.39,4.12c.29,1.93.92,3.91-.08,5.88-.83,1.64-.8,1.73.8,2.79a3.43,3.43,0,0,1,1.63,3.11c.13,5.24-.81,10.37-1.43,15.52a9.22,9.22,0,0,0,1.45,6.67,26.24,26.24,0,0,0,2.57,3,4.59,4.59,0,0,1,1.6,3,5.89,5.89,0,0,0,.41,1.6A3.43,3.43,0,0,0,68.64,126a6.44,6.44,0,0,1,4.56,1.7,4.38,4.38,0,0,0,1.27.7,28.74,28.74,0,0,0,7.78,2.1,8.32,8.32,0,0,0,5-.78,6.34,6.34,0,0,0,3.55-4.87c.22-1.22.74-1.91,2.05-1.81l.35.49c.12,3.38-2.52,7.63-6,8.63-1.21.34-1.46,1-1.49,2.08-.06,2.27.14,4.59-1.28,6.61-.06.09.13.52.23.53,1.59.16,3.18.38,4.77.4,9.33.12,18.66.26,28-.37,1.18-.08,2.38,0,3.56-.07,3.23-.33,6.45-.8,9.69-1.12a67.13,67.13,0,0,0,12.39-2.47,103.3,103.3,0,0,0,22.76-9.54,46.52,46.52,0,0,0,9.59-7c.67-.66,1-1.23.47-2.15-.77-1.32-1.4-2.72-2.17-4a1.26,1.26,0,0,0-1-.48c-3.33.43-6.47-.63-9.63-1.32a7.23,7.23,0,0,1-4.84-3.36c-.38-.65-.57-1.32.18-1.84a1.26,1.26,0,0,1,1.72.39,1.09,1.09,0,0,1,.14.31,3.78,3.78,0,0,0,3.05,2.2c1.9.42,3.79.81,5.68,1.23a7.26,7.26,0,0,0,8.08-2.91,62.33,62.33,0,0,1,4.51-6.1,25.36,25.36,0,0,0,2.77-4.39,8.33,8.33,0,0,0,1-4.82,47.82,47.82,0,0,0-.76-5.33,20.6,20.6,0,0,0-7.56-13c-3.26-2.53-4.75-5.87-5.76-9.6-.29-1.09.47-1.82,1.6-1.71a11.42,11.42,0,0,0,1.17,0,5,5,0,0,0-.22-1.33,11.36,11.36,0,0,0-1-1.58,10.66,10.66,0,0,1-1.7-7.9c.49-2.9.27-5.78-1.94-8-2-2-2.28-4.53-2.52-7.06-.35-3.77-.91-7.44-3.33-10.53A1.56,1.56,0,0,1,163,26a1.07,1.07,0,0,0-.19-1,55,55,0,0,0-6.58-4.35,5,5,0,0,1-2.86-2.74,4.24,4.24,0,0,0-3.13-2.75,88.44,88.44,0,0,1-13.93-4.78,6.63,6.63,0,0,0-6,0,6.33,6.33,0,0,1-4.22.45c-2-.41-3.93-1.82-2.76-4.7.08-.2.15-.39.24-.58.31-.69-.14-.73-.57-.59a11.74,11.74,0,0,0-4.94,2.55c-1.23,1.21-1.79,1.06-2.16-.58a3.05,3.05,0,0,0-1.86-2.08c-.35-.18-.62-.28-.69.28-.59,4.63-4,6.74-8.6,5.25-3.17-1-6.19-.41-9.14.76a18.33,18.33,0,0,0-4.2,2.21,5,5,0,0,1-3.81,1.21,8.78,8.78,0,0,0-5.06.91,2.85,2.85,0,0,0-1.78,2.15,7.6,7.6,0,0,1-2.54,4.2c-1,.94-1.34,1-2.2-.11A4.34,4.34,0,0,0,72.07,19.92Z" transform="translate(0.5 -0.04)"/><path id="Path_798" data-name="Path 798" class="cls-7" d="M188.89,171c1.16-5.82,1-12.5.5-18.76-.51-4.46-.72-9-1.63-13.39-1-4.65-3-10.91-6.7-14.14-.43-.37-.88-.71-1.27-1.12-1.91-2-3.35-6.28-1.89-8.83s4.25-4.32,6.35-6.46c3.63-3.69,6.52-8,7.21-13.23.77-5.83.52-13.31-2.5-18.51-1.54-2.66-3.84-4.77-6-7a18.46,18.46,0,0,1-5.61-12.3c-1-12.77-5.51-26.83-14-36.71a29.09,29.09,0,0,0-8.72-7c-4-2.08-8.42-2.7-12.83-3.61-3.78-.79-7.53-1.68-11.22-2.82-3.33-1-6.34-3.38-9.88-3.71a48,48,0,0,0-18.5,2.46A22.85,22.85,0,0,0,89.66,15.5c-5.36,3.3-9,9.28-15.16,11.88-4.76,2-6.29,6.53-7.31,11.23a25.82,25.82,0,0,0-2.07,2.79,8.5,8.5,0,0,0-3.64,3.72c-1.51,3.14-.8,7.31.24,11.26.05,1.71.19,3.44.36,5.16-2.35,8.3-1,17,1.47,25.21.66,2.13,1.33,4.3,2,6.47a79.64,79.64,0,0,1-.86,14c-.86,5.8-.16,11.83,5.2,15.29a20.14,20.14,0,0,0,6.2,2.2c.6.28,1.22.54,1.85.78,1.18.44,2.67.79,4,1.34a6.57,6.57,0,0,1,.9.67,5.12,5.12,0,0,0,1.52.91c0,.06.11.1.15.16,1.78,2.25.62,6-.11,8.4-1.83,6.08,1,11.29,7.8,11.23,2.83,0,5.58-.75,8.44-.67,1,0,1.89.11,2.83.23a26.67,26.67,0,0,0-8.31,4.72c-4.38,3.65-8.38,10.31-8.43,16.48-.08.23-.16.46-.23.7-1.21,4.08-.52,9.12,3.21,11.68,2.54,1.75,4.83,1.2,7-.1A76.68,76.68,0,0,0,105,183.3a79.9,79.9,0,0,0,16.86,2.19,17.08,17.08,0,0,0,3.9-.43,12.67,12.67,0,0,0,5-.82c4.87-2.12,6.45-7.36,6.19-12.48.07-.36-.06-.38,0-.74M99.14,61.65a1.68,1.68,0,0,1-.49.71.75.75,0,0,1-.85.14.62.62,0,0,1-.37-.2h0a.74.74,0,0,1-.14-.22l0-.06a1,1,0,0,1,.12-1.08.83.83,0,0,1,.83-.21h0C98.71,60.55,99.36,61.1,99.14,61.65ZM134,51.84a1,1,0,0,1,.88-.47.91.91,0,0,1,.88.67.8.8,0,0,1-.14.7.75.75,0,0,1-.19.39.74.74,0,0,1-.88.12.68.68,0,0,1-.54-.35.78.78,0,0,1-.09-.42A.85.85,0,0,1,134,51.84Z" transform="translate(0.5 -0.04)"/><path id="Path_799" data-name="Path 799" class="cls-5" d="M184.44,150.84c0,.36,0,.73,0,1.09a7,7,0,0,1-.12.78,2,2,0,0,1-.64-.34C181.78,150.27,180,148,178,146c-2.93-3-5.91-5.94-8.9-8.81-.61-.59-.38-.69,0-1a60.65,60.65,0,0,0,10.42-10.76c.47-.66.65-.37.86.43a142.07,142.07,0,0,1,3.22,17.21c.34,2.57.57,5.17.85,7.75Z" transform="translate(0.5 -0.04)"/><path id="Path_800" data-name="Path 800" class="cls-8" d="M187.64,149.41a82.22,82.22,0,0,0-4.43-20.79c-.9-2.62-2.49-5-3-7.74a2.16,2.16,0,0,0-.78-1.44c-1.7-.84-2-2.64-2.84-4-1-1.52-.88-1.75.45-2.94a11.55,11.55,0,0,0,3.48-4.61,4.75,4.75,0,0,1,1.28-1.6,26.08,26.08,0,0,0,5.23-8,4.83,4.83,0,0,0,.41-1.83c.35-7.12-1.14-13.72-5.76-19.34a32.53,32.53,0,0,0-4-4A11.53,11.53,0,0,1,174.31,68c-.28-.83,0-.88.75-.8a1.41,1.41,0,0,0,1.71-1,1.47,1.47,0,0,0,0-.51,7.32,7.32,0,0,0-1.87-5.36,6,6,0,0,1-1.63-4.12,14.49,14.49,0,0,1,.19-3.54,9.73,9.73,0,0,0-2.36-8.35A9.71,9.71,0,0,1,169,38.81c-.05-.42-.08-.83-.13-1.25-.37-3.18-.68-6.38-2.51-9.17-.14-.21-.3-.6-.2-.75C167.2,26,166,25,165.06,24a28.76,28.76,0,0,0-7.8-5.54,3.44,3.44,0,0,1-1.88-1.79,7,7,0,0,0-5-4A86,86,0,0,1,136.76,8a8.11,8.11,0,0,0-6.86.09,16,16,0,0,1-2.34.87,1.78,1.78,0,0,1-2-.65,1.67,1.67,0,0,1,.15-2.13,11.85,11.85,0,0,1,1.53-1.39c1-.88,1-1.74-.26-2.21a4.45,4.45,0,0,0-2.62-.3,45.45,45.45,0,0,0-5.61,2.17,1.24,1.24,0,0,1-1.54-.12c-2-1.36-4.09-2.61-6.22-3.76-.27-.15-.94.16-1.24.45a1.22,1.22,0,0,0-.06,1.1,12.81,12.81,0,0,0,.93,1.38,3.24,3.24,0,0,1,0,3.37,2.82,2.82,0,0,1-2.93,1.58c-1-.1-2-.42-3.08-.55a16.09,16.09,0,0,0-4.32-.37,21.23,21.23,0,0,0-10.19,4,2.86,2.86,0,0,1-2.29.67,9.75,9.75,0,0,0-6.06,1.13A5.15,5.15,0,0,0,78.6,17a6.9,6.9,0,0,1-.7,1.74c-.24.52-.59.72-1.13.3-2.82-2.17-6-1.73-9.24-1.38A1.73,1.73,0,0,0,65.85,19c-.12.82.64,1.14,1.26,1.48,1.09.62,2.17,1.24,3.22,1.9a5.69,5.69,0,0,1,.86.84,3.92,3.92,0,0,1-1.06.49,7.3,7.3,0,0,0-4.44,2.55,9.91,9.91,0,0,0-2.5,5.19A4.21,4.21,0,0,1,60.55,35a22.34,22.34,0,0,0-2.23,1.15,5.59,5.59,0,0,0-3,4.91,17.12,17.12,0,0,0,.13,3.12c.34,2.47.4,2.52-1.83,3.82-3,1.72-4.65,4.13-4.43,7.66.06.89-.21,2,.88,2.36s1.42-.59,2-1.18,1.11-.94,1.82-.48.5,1.14.24,1.85a27.55,27.55,0,0,0-1.32,4.16,25.33,25.33,0,0,0,2.07,15.89,18,18,0,0,1,1.66,6.64c0,.84.17,1.65-1.11,1.8a1,1,0,0,0-.91,1.06.92.92,0,0,0,.22.55,19.41,19.41,0,0,0,2.73,3.65,2.36,2.36,0,0,1,.88,2.31c-.5,3.65-.79,7.34-1.46,11a18.88,18.88,0,0,0,.73,9.66,8.57,8.57,0,0,0,3.25,4.72,3.43,3.43,0,0,1,1.55,2.59A11.82,11.82,0,0,0,62.7,124,5.94,5.94,0,0,0,69,128.67a4.06,4.06,0,0,1,2.11.6c2.67,1.31,5.31,2.77,8.4,2.93,1.32.07,2.63.3,3.94.45,0,1.34-.12,2.69-.1,4a3.51,3.51,0,0,1-1.8,3.5c-.67.36-1.06,1-.4,1.72s.32,1.09.16,1.71c-.36,1.43-.87,3.09,0,4.26,1.21,1.56,1,3.22,1.23,4.91a14.07,14.07,0,0,0,.62,2.64,1.53,1.53,0,0,1-.37,1.69c-3.23,3.51-4,7.86-4.11,12.4a1.89,1.89,0,0,0,.53,1.45c.71.45.7.89.49,1.56a11,11,0,0,0-.4,2c-.44,4.23,1.52,7.46,5.41,8.85a19.62,19.62,0,0,0,8.86,1,14.76,14.76,0,0,1,7.28.61c2.41.7,4.87,1.25,7.38.43a33.1,33.1,0,0,0,3.73-1.33,5.8,5.8,0,0,1,3.85-.32,18.3,18.3,0,0,0,7.26.19c9.37-1.7,13.91-10.14,10.91-18-.32-.85-.58-1.71-.89-2.56s-.93-1.66.48-2.14c.17-.06.28-1,.09-1.27A12.3,12.3,0,0,0,132,158c-.58-.57-1.25-1-1.88-1.56a7.06,7.06,0,0,1-.28-1.12c-.08-.82-.45-1.21-1.23-.77-1,.58-1.72-.15-2.42-.65-1.92-1.38-3.82-2.78-5.71-4.18a3.25,3.25,0,0,1-.5-.61,4.86,4.86,0,0,1,.73-.18c5-.7,10-1.27,15-2.12a108.48,108.48,0,0,0,23.4-7,8.59,8.59,0,0,0,1.54-.63c1.94-1.31,3.59-.63,5.36.48a148.71,148.71,0,0,1,18.08,13,8,8,0,0,0,2.24.93C187.82,152.52,187.75,150.9,187.64,149.41ZM123,154a7.58,7.58,0,0,0,2.36,2c1.79.63,2.82,2.13,4.27,3.13a1.09,1.09,0,0,1,.31,1c-.44,1,0,1.68.33,2.55a33.27,33.27,0,0,1,2.28,6.65c.55,3.15-.72,8.21-4.83,10.53a17.27,17.27,0,0,1-8.09,2.18c-1.16-.18-2.67-.36-4.16-.67a6,6,0,0,0-3.83.44,19.38,19.38,0,0,1-5.11,1.67,12,12,0,0,1-7.4-1.59,4.05,4.05,0,0,0-3.9-.33c-3.35,1.43-6.7.72-9.92-.43s-4.32-3.78-3.58-7c.32-1.41.74-2.81,1-4.23.19-1,.34-2.09-1-2.69a1.37,1.37,0,0,1-.52-1.18,17.6,17.6,0,0,1,8.42-12.54,31.21,31.21,0,0,1,15.53-4.72,32.36,32.36,0,0,1,10,1A17.9,17.9,0,0,1,123,154Zm-37.15-3.9h4.31a2.57,2.57,0,0,1,.4.08,1.73,1.73,0,0,1-.3.41l-4.37,3.45c-.41.32-.78.37-.89-.23a27.14,27.14,0,0,1-.4-2.85c-.06-.94.33-1.25,1.25-.86Zm79.93-22a103.3,103.3,0,0,1-22.76,9.54,67,67,0,0,1-12.39,2.47c-3.23.32-6.45.79-9.69,1.12-1.17.12-2.37,0-3.55.07-9.32.64-18.66.49-28,.37-1.59,0-3.18-.24-4.76-.4-.1,0-.3-.44-.24-.53,1.42-2,1.23-4.34,1.29-6.6,0-1.08.28-1.75,1.48-2.09,3.53-1,6.17-5.24,6-8.63l-.35-.48c-1.31-.1-1.83.58-2,1.81a6.35,6.35,0,0,1-3.54,4.86,8.34,8.34,0,0,1-5.06.78,28.74,28.74,0,0,1-7.78-2.1,4.38,4.38,0,0,1-1.27-.7,6.42,6.42,0,0,0-4.55-1.7,3.43,3.43,0,0,1-3.32-2.65,5.89,5.89,0,0,1-.41-1.6,4.55,4.55,0,0,0-1.6-3,24.43,24.43,0,0,1-2.56-3A9.15,9.15,0,0,1,59.29,109c.62-5.15,1.56-10.28,1.43-15.51a3.4,3.4,0,0,0-1.63-3.11c-1.59-1.06-1.62-1.16-.79-2.8,1-2,.36-4,.07-5.88A16.47,16.47,0,0,0,57,77.57,25.89,25.89,0,0,1,54.53,68a18.82,18.82,0,0,1,1.63-8.91,3.11,3.11,0,0,0,.15-3.13c-.78-1.42-1.72-2.27-3.47-2.06-.91.11-1.36-.5-.89-1.21a11.65,11.65,0,0,1,2.26-2.39,25.73,25.73,0,0,1,2.3-1.41c1.48-1,1.64-1.68,1.4-3.51s-.77-3.38-.18-5.13a3.14,3.14,0,0,1,1.61-2.05c1-.47,1.93-1.08,2.92-1.58a6,6,0,0,0,3-4,24.23,24.23,0,0,1,1.56-4,5,5,0,0,1,5.19-2.75c.82.06,1.79.34,2.25-.61a2.32,2.32,0,0,0-.46-2.7c-.68-.77-1.26-1.63-1.89-2.45l-.3-.24.42.12a4.34,4.34,0,0,1,4,1.76c.87,1.08,1.23,1,2.2.11a7.6,7.6,0,0,0,2.54-4.2,2.87,2.87,0,0,1,1.78-2.15,8.78,8.78,0,0,1,5.06-.91,5,5,0,0,0,3.82-1.22,18.48,18.48,0,0,1,4.2-2.2c2.94-1.18,6-1.8,9.13-.76,4.57,1.5,8-.62,8.6-5.26.07-.55.34-.45.7-.27A3,3,0,0,1,116,6.89c.38,1.64.94,1.79,2.17.58a11.65,11.65,0,0,1,4.93-2.55c.43-.14.89-.1.57.59-.09.19-.16.38-.24.58-1.17,2.88.78,4.29,2.76,4.7a6.37,6.37,0,0,0,4.23-.45,6.63,6.63,0,0,1,6,0,87.75,87.75,0,0,0,13.93,4.78,4.24,4.24,0,0,1,3.12,2.75,4.93,4.93,0,0,0,2.86,2.73,56.37,56.37,0,0,1,6.58,4.36,1.07,1.07,0,0,1,.19,1,1.58,1.58,0,0,0,.3,1.9c2.42,3.1,3,6.76,3.33,10.53.24,2.53.52,5.06,2.52,7.06,2.21,2.22,2.43,5.1,1.94,8a10.62,10.62,0,0,0,1.71,7.9,13.59,13.59,0,0,1,1,1.58,5,5,0,0,1,.21,1.33,11.2,11.2,0,0,1-1.16,0c-1.14-.11-1.9.62-1.6,1.71,1,3.73,2.49,7.07,5.75,9.6a20.6,20.6,0,0,1,7.56,13,45.59,45.59,0,0,1,.76,5.33,8.26,8.26,0,0,1-1,4.82,26.32,26.32,0,0,1-2.76,4.39,60.75,60.75,0,0,0-4.51,6.1,7.28,7.28,0,0,1-8.09,2.91c-1.88-.42-3.78-.81-5.67-1.23a3.8,3.8,0,0,1-3.06-2.2,1.24,1.24,0,0,0-1.85-.7c-.75.52-.57,1.19-.18,1.84a7.21,7.21,0,0,0,4.83,3.36c3.16.69,6.3,1.75,9.63,1.32a1.21,1.21,0,0,1,1,.48c.77,1.31,1.4,2.71,2.17,4,.54.92.21,1.49-.47,2.15a45.94,45.94,0,0,1-9.59,7Zm18.79,20.06a3.26,3.26,0,0,1-.14.6,2.77,2.77,0,0,1-.73-.26c-2.18-1.61-4.29-3.32-6.52-4.85-3.37-2.32-6.82-4.54-10.27-6.75-.7-.45-.43-.52.06-.8a63.23,63.23,0,0,0,12-8.24c.54-.5.75-.29,1,.33a77.49,77.49,0,0,1,3.7,13.18c.4,2,.66,4,1,5.94l-.09,0a7.48,7.48,0,0,1,0,.82Z" transform="translate(0.5 -0.04)"/><path id="Path_801" data-name="Path 801" d="M93.41,123.31l-.46-.38c-1-1.1-2.06-2.25-3.16-3.31a8.12,8.12,0,0,1-2.35-3.85A6.08,6.08,0,0,0,85.73,113a18.11,18.11,0,0,1-5-10.72,16.16,16.16,0,0,1,.68-7.14A2,2,0,0,0,81,92.89a4.4,4.4,0,0,1-1.1-3.23c-.4-5.2,2.06-9.23,5.2-13,.37-.44.79-.8,1.42-.37s.45,1,.13,1.44c-.68,1.05-1.41,2.06-2.1,3.1A15.85,15.85,0,0,0,82,89.51,2.63,2.63,0,0,0,83.16,92c1.24.75,1.15,1.72.7,2.86a15.82,15.82,0,0,0,2.56,15.67,13.7,13.7,0,0,1,3.31,5.57,1.14,1.14,0,0,0,.1.19c2.11,2.8,4.4,5.4,7.83,6.6,1.3.45,2.72.57,4,1a23.08,23.08,0,0,1,3.18,1.5c.59.3,1,.6,1.48-.28s1.09-.61,1.77-.21,1.36.66,2,1c.94.51,1.61.6,2.07-.68.32-.9,1.42-1.06,1.74-.27,1,2.29,3.13,2.17,4.9,2.5a25,25,0,0,0,16.92-2.69,16.16,16.16,0,0,0,5.94-5.1c1-1.49,2.15-2.89,3.18-4.37a13.26,13.26,0,0,0,1.63-4.9c.32-1.42.9-1.63,2.24-1a5.89,5.89,0,0,1,2.39,2.8c.43.76.78.65,1.15,0a13.06,13.06,0,0,0,1.72-8.42c0-.27-.31-.59-.23-.77a3.48,3.48,0,0,1,.89-1.28c.14-.12.68.25,1,.4.06,0,.09.1.14.15,1.56,1.55,1.54,1.54,2.44-.6A55.71,55.71,0,0,0,160.71,96c1-3.49.38-7-.36-10.49a23.58,23.58,0,0,0-6.58-11.6,2.7,2.7,0,0,0-1-.77A3.39,3.39,0,0,1,150.39,70a7.41,7.41,0,0,0-4.25-6c-.62-.29-1.14-.69-.78-1.44s1.08-.64,1.77-.28a11.09,11.09,0,0,1,5.64,7.37,2.69,2.69,0,0,0,.7,1.37,24.52,24.52,0,0,1,9.38,15.46,35.93,35.93,0,0,1,.32,8.73,12.23,12.23,0,0,1-1.06,3.55c-1,2.64-2.58,5.07-3.12,7.92a1.06,1.06,0,0,1-1.19.9,1,1,0,0,1-.45-.17c-1-.53-1.1.07-1.18.71a12.14,12.14,0,0,1-2.48,5.88,9.25,9.25,0,0,1-1.76,1.72c-.93.72-1.42.63-2-.39-.39-.73-.59-1.56-.93-2.31a3.53,3.53,0,0,0-.68-.72,7.16,7.16,0,0,1-.23.75,30,30,0,0,1-2,4.31c-2.12,3.26-4.43,6.38-7.77,8.56a24.82,24.82,0,0,1-9.38,3.77,31.52,31.52,0,0,1-10.57.1,12.18,12.18,0,0,0-2.83,0,10,10,0,0,1-5.62-1.22c-.63-.35-1.15-.13-1.11.64s-.59,1.07-1.14,1.26c-.75.26-1.06-.34-1.44-.88a8,8,0,0,0-4.35-3C99.05,125.59,96,125.06,93.41,123.31Z" transform="translate(0.5 -0.04)"/><path id="Path_802" data-name="Path 802" d="M128.07,93.08a3.52,3.52,0,0,1-1.95,3.77,5.25,5.25,0,0,1-4.76-1.26c-.3-.38-.53-.82-.8-1.22a2.54,2.54,0,0,0-4.52.18,3,3,0,0,1-4.19.78,3,3,0,0,1-.91-1,8.21,8.21,0,0,1,2-9.83,20.08,20.08,0,0,1,6.7-3.69A14.79,14.79,0,0,1,128,80.3a8,8,0,0,1,6.17,7.23,5.36,5.36,0,0,1-.27,1.82A1.63,1.63,0,0,1,132,90.62a1.87,1.87,0,0,1-.51-.2c-.25-.11-.46-.34-.71-.43A1.89,1.89,0,0,0,128,91.83,10.38,10.38,0,0,0,128.07,93.08Zm-7.26-5.44c2.18-.18,3.85-.51,5.1-1.91,1.4-1.56,1.19-2.8-.76-3.48a7.25,7.25,0,0,0-7,1.37,1.81,1.81,0,0,0-.52,2.53,1.76,1.76,0,0,0,.86.69,15,15,0,0,0,2.34.8Z" transform="translate(0.5 -0.04)"/><path id="Path_803" data-name="Path 803" d="M105.9,63c-3-2.94-6.11-5-10.71-4.17-3.65.64-7.3,5.38-7.68,8.2-.09.68-.41,1.7.65,1.93s1.11-.78,1.38-1.46c.41-1,.81-2,1.23-3.07a1.3,1.3,0,0,1,.26-.31,2.42,2.42,0,0,1,.29.42,15.11,15.11,0,0,0,.7,1.72,5.25,5.25,0,0,0,5.08,2.6c2.2-.49,3.89-1.35,4.4-3.85a10.31,10.31,0,0,0-.3-3l-.19-.43.44.18a3.22,3.22,0,0,1,2.4,1.81c.23.34.3.83.6,1.07s.91.56,1.2.43a1.69,1.69,0,0,0,.67-1.15A1.23,1.23,0,0,0,105.9,63Zm-7.7-.17a.76.76,0,0,1-.85.14.62.62,0,0,1-.37-.2v0a.6.6,0,0,1-.14-.21l0-.06a.94.94,0,0,1,.13-1.08.84.84,0,0,1,.83-.22h0c.52-.16,1.16.4.94,1h0a.46.46,0,0,1,.07.07l-.15.08a1.84,1.84,0,0,1-.41.55Z" transform="translate(0.5 -0.04)"/><path id="Path_804" data-name="Path 804" d="M143.51,54.4a3.8,3.8,0,0,0-.87-1.15,13.16,13.16,0,0,0-6.12-3.41,9.65,9.65,0,0,0-11.07,4.86c-.77,1.47-1.4,3-2.07,4.53-.38.88-.2,1.51.44,1.71s1.19-.28,1.37-1.19c0-.2,0-.43,0-.62a12.93,12.93,0,0,1,2.4-5,3.28,3.28,0,0,1,.67-.45l.18.7a9.54,9.54,0,0,0,.58,2.59,4.88,4.88,0,0,0,6,1.89,5,5,0,0,0,3.23-5,1.12,1.12,0,0,1-.1-.4c0-.26.08-.52.13-.78.26.07.58.08.75.24.91.84,1.75,1.75,2.68,2.56a1.61,1.61,0,0,0,1.25.33,1,1,0,0,0,.59-1.23A.89.89,0,0,0,143.51,54.4Zm-8.34-1.22a.84.84,0,0,1-.19.39.76.76,0,0,1-.89.12.71.71,0,0,1-.54-.35.88.88,0,0,1-.08-.42.79.79,0,0,1,.08-.64,1,1,0,0,1,.73-.46h.14a.92.92,0,0,1,.89.66A.85.85,0,0,1,135.17,53.18Z" transform="translate(0.5 -0.04)"/><path id="Path_805" data-name="Path 805" d="M87.59,46.54c-3.06,1.08-4.74,2.74-5.07,5.52a3.86,3.86,0,0,0,0,.83c.08.78,1,1.72,1.44,1.44a2.69,2.69,0,0,0,1-1.43c.19-.56,0-1.23.19-1.81.09-.33.5-.58.77-.87.15.29.33.56.46.85.25.64.52,1.27.83,1.89.71,1.22,1.78,1.36,2.36.16,1.22-2.5,3.45-3,5.8-3.45.27-.05.6,0,.81-.14s.73-.52.74-.8a1.13,1.13,0,0,0-.64-.89,4.83,4.83,0,0,0-2.61-.12c-1.49.68-3.34.6-4.47,2.06-.06.07-.31.11-.35.06a.77.77,0,0,1-.22-.5c.07-.33.3-.64.36-1,.09-.5.58-1.12-.14-1.48A4.45,4.45,0,0,0,87.59,46.54Z" transform="translate(0.5 -0.04)"/><path id="Path_806" data-name="Path 806" class="cls-5" d="M129.69,105.35a6.25,6.25,0,0,1-.28,5.75c-1.88,3.43-6.52,2.57-8,.16a18.48,18.48,0,0,1-1.25-3.45,21.83,21.83,0,0,0,6.65-1.22C127.82,106.23,128.75,105.77,129.69,105.35Z" transform="translate(0.5 -0.04)"/><path id="Path_807" data-name="Path 807" d="M134.77,39.44a14.59,14.59,0,0,0,0-1.62c-.09-.85.3-.56.65-.29a13.46,13.46,0,0,0,1.61,1.3,1.54,1.54,0,0,0,1.26.06.87.87,0,0,0,.4-1.17,1.05,1.05,0,0,0-.2-.27,18.85,18.85,0,0,0-3.12-2.72c-1.12-.7-1.73-.68-2.27.71-.44,1.11-.86,1.13-1.79.69-2.39-1.13-4.62-.06-6.83.7-.34.12-.65.87-.64,1.32a1,1,0,0,0,1,.91l.17,0a5.38,5.38,0,0,0,1.79-.5,4.88,4.88,0,0,1,5,.29,7.9,7.9,0,0,0,1.53.65A6,6,0,0,0,134.77,39.44Z" transform="translate(0.5 -0.04)"/><path id="Path_808" data-name="Path 808" d="M67.45,64.23c.34.24.76.41.94.72s-.07.62-.2.9a14.93,14.93,0,0,0-.86,1.63,2.72,2.72,0,0,0,0,1.33c.1.53.4,1,.5,1.56.25,1.45.56,2.8,1.91,3.7a3.32,3.32,0,0,1,.89,1.38.93.93,0,0,1-.32,1.27,1,1,0,0,1-.21.09,1.93,1.93,0,0,1-1.31-.22c-.27-.13-.37-.56-.58-.83-.38-.49-.8-.81-1.36-.21s-1.07.55-1.43.06S64.81,74.28,65,74c1.14-1.53.67-3,.12-4.52a5,5,0,0,1,1.33-4.71A6.83,6.83,0,0,1,67.45,64.23Z" transform="translate(0.5 -0.04)"/><path id="Path_809" data-name="Path 809" d="M161.93,64.47c.93-2.27-.66-3.75-1.67-5.39-.34-.54-.55-1-.06-1.46s1.16-.35,1.61.16A9.9,9.9,0,0,1,163,59.44c.48.83.76,1.76,1.78,2.19a1,1,0,0,1,.58,1.27,1.16,1.16,0,0,1-.2.32c-1.37,1.33-.45,2.54,0,3.79a8.9,8.9,0,0,0,.64,1.07c.52.93.5,1.78-.07,2-.9.37-1.48-.18-1.89-.86a19.17,19.17,0,0,1-1.33-2.59A16.46,16.46,0,0,1,161.93,64.47Z" transform="translate(0.5 -0.04)"/><path id="Path_810" data-name="Path 810" class="cls-9" d="M129.69,105.35c-.94.42-1.87.88-2.83,1.24a21.83,21.83,0,0,1-6.65,1.22c-1.15-.41-2.31-.81-3.45-1.25a.59.59,0,0,1-.29-.48c0-.1.26-.26.43-.29a2.59,2.59,0,0,1,.83,0c7.16,1.38,12.52-1.44,16.64-7.14.2-.28.35-.65.62-.81a3.24,3.24,0,0,1,1.06-.22c0,.36.26.86.1,1.07-1.09,1.42-2.24,2.79-3.47,4.1A35.89,35.89,0,0,1,129.69,105.35Z" transform="translate(0.5 -0.04)"/><path id="Path_811" data-name="Path 811" class="cls-6" d="M120.81,87.64c2.17-.17,3.85-.5,5.1-1.91,1.39-1.56,1.18-2.8-.76-3.47a7.26,7.26,0,0,0-7,1.36,1.84,1.84,0,0,0,.35,3.23A15,15,0,0,0,120.81,87.64Z" transform="translate(0.5 -0.04)"/><path id="Path_812" data-name="Path 812" class="cls-10" d="M187.86,151.83a1.92,1.92,0,0,0-3.7,1A64.64,64.64,0,0,1,186.09,171l3.81,0A68,68,0,0,0,187.86,151.83Z" transform="translate(0.5 -0.04)"/></g><path id="Path_414" data-name="Path 414" class="cls-11" d="M136.22,165.92l53.62,0,.06,5.08-52.63.05c-.41,0-.65-1.82-.65-2.62Z" transform="translate(0.5 -0.04)"/></g></g></g></svg>