<?xml version="1.0" encoding="utf-8"?>
<!-- Generator: Adobe Illustrator 23.0.6, SVG Export Plug-In . SVG Version: 6.00 Build 0)  -->
<svg version="1.1" id="Layer_1" xmlns="http://www.w3.org/2000/svg" xmlns:xlink="http://www.w3.org/1999/xlink" x="0px" y="0px"
	 viewBox="0 0 41.1 23.9" style="enable-background:new 0 0 41.1 23.9;" xml:space="preserve">
<g>
	<path d="M40.3,22.4h-1.4c-1.3-7.8-6.6-15.6-15.9-16.9c0.5-0.6,0.8-1.4,0.8-2.2v0c0-1.9-1.5-3.4-3.4-3.4c-1.9,0-3.4,1.5-3.4,3.4
		c0,0.8,0.3,1.6,0.8,2.2C8.6,6.7,2.9,14.8,2.1,22.4H0.8c-0.4,0-0.8,0.3-0.8,0.8s0.3,0.8,0.8,0.8h39.6c0.4,0,0.8-0.3,0.8-0.8
		S40.7,22.4,40.3,22.4z M20.5,1.5c1,0,1.9,0.8,1.9,1.9v0c0,0.5-0.2,1-0.5,1.3C21.5,5,21,5.2,20.5,5.2h0c-1,0-1.9-0.8-1.9-1.9
		C18.6,2.3,19.5,1.5,20.5,1.5z M3.6,22.4c0.8-7.6,6.9-15.6,16.7-15.6c9.9,0,15.7,7.7,17.1,15.6H3.6z"/>
	<path d="M13.4,11.1c-0.9,0.6-1.8,1.4-2.6,2.1c-0.3,0.3-0.3,0.8,0,1.1c0.1,0.1,0.3,0.2,0.5,0.2s0.4-0.1,0.5-0.2
		c0.7-0.7,1.5-1.4,2.4-2c0.3-0.2,0.4-0.7,0.2-1C14.2,11,13.8,10.9,13.4,11.1z"/>
	<path d="M9.1,15.4C8.5,16.1,8,17,7.5,17.8c-0.2,0.4-0.1,0.8,0.3,1c0.1,0.1,0.2,0.1,0.3,0.1c0.3,0,0.5-0.1,0.7-0.4
		c0.4-0.8,0.9-1.5,1.4-2.2c0.2-0.3,0.2-0.8-0.2-1C9.8,15,9.3,15,9.1,15.4z"/>
</g>
<title>Asset 5</title>
</svg>
