<svg id="Layer_1" data-name="Layer 1" xmlns="http://www.w3.org/2000/svg" viewBox="0 0 25.13 16.39"><defs><style>.cls-1{fill-rule:evenodd;}</style></defs><title>Menu_Black</title><path id="Path_20" data-name="Path 20" class="cls-1" d="M24.41,14.39H1.57A1.17,1.17,0,0,0,.42,15.54h0a1.15,1.15,0,0,0,1.15,1.14H24.41a1.15,1.15,0,0,0,1.15-1.14h0A1.17,1.17,0,0,0,24.41,14.39Z" transform="translate(-0.42 -0.29)"/><path id="Path_21" data-name="Path 21" class="cls-1" d="M1.57,9.6H18.7a1.15,1.15,0,0,0,1.14-1.15h0A1.14,1.14,0,0,0,18.7,7.31H1.57A1.15,1.15,0,0,0,.42,8.45h0A1.17,1.17,0,0,0,1.57,9.6Z" transform="translate(-0.42 -0.29)"/><path id="Path_22" data-name="Path 22" class="cls-1" d="M1.57,2.57H24.41a1.14,1.14,0,1,0,0-2.28H1.57A1.15,1.15,0,0,0,.42,1.43,1.15,1.15,0,0,0,1.57,2.57Z" transform="translate(-0.42 -0.29)"/></svg>