<svg xmlns="http://www.w3.org/2000/svg" width="76" height="91" viewBox="0 0 76 91">
  <g id="Group_342" data-name="Group 342" transform="translate(-27 -2706)">
    <rect id="Rectangle_315" data-name="Rectangle 315" width="76" height="91" transform="translate(27 2706)" fill="#d9d9d9"/>
    <g id="Group_212" data-name="Group 212" transform="translate(-1 173)">
      <path id="Union_6" data-name="Union 6" d="M0,57.974A62.507,62.507,0,0,1,2.436,40.469a49.524,49.524,0,0,1,6.644-14.3,33.223,33.223,0,0,1,9.854-9.639,25.243,25.243,0,0,1,3.713-1.885,16,16,0,1,1,16.706,0,25.243,25.243,0,0,1,3.713,1.885,33.233,33.233,0,0,1,9.854,9.639,49.5,49.5,0,0,1,6.643,14.3A62.514,62.514,0,0,1,62,57.974H0Z" transform="translate(35 2566)" fill="#fff"/>
    </g>
  </g>
</svg>
