<?xml version="1.0" encoding="utf-8"?>
<!-- Generator: Adobe Illustrator 23.0.6, SVG Export Plug-In . SVG Version: 6.00 Build 0)  -->
<svg version="1.1" id="Layer_1" xmlns="http://www.w3.org/2000/svg" xmlns:xlink="http://www.w3.org/1999/xlink" x="0px" y="0px"
	 viewBox="0 0 117 110" enable-background="new 0 0 117 110" xml:space="preserve">
<g>
	<defs>
		<rect id="SVGID_1_" width="117" height="110"/>
	</defs>
	<clipPath id="SVGID_2_">
		<use xlink:href="#SVGID_1_"  overflow="visible"/>
	</clipPath>
	<g id="Mask_Group_3" clip-path="url(#SVGID_2_)">
		<g id="Group_292" transform="translate(14 7.254)">
			<g id="Group_268" transform="translate(-2.772 -0.309)">
				<path id="Path_796" fill="#FFFFFF" d="M49.1,126.4c2,0,3.9-0.6,5.6-1.5c2.5-1.6,3.8-4.4,3.4-7.3c-0.4-1.6-0.9-3.1-1.6-4.6
					c-0.2-0.6-0.5-1.1-0.2-1.8c0-0.2,0-0.5-0.2-0.7c-1-0.7-1.7-1.7-3-2.2c-0.6-0.3-1.2-0.8-1.6-1.4c-1.5-1.4-3.4-2.5-5.4-3
					c-2.3-0.6-4.6-0.8-7-0.7c-3.8,0.1-7.6,1.3-10.8,3.3c-3.2,1.9-5.3,5.1-5.9,8.7c0,0.3,0.1,0.6,0.4,0.8c0.9,0.4,0.8,1.2,0.7,1.9
					c-0.2,1-0.5,2-0.7,2.9c-0.7,2,0.4,4.2,2.5,4.9c0,0,0,0,0,0c2.2,0.8,4.6,1.3,6.9,0.3c0.9-0.4,1.9-0.3,2.7,0.2
					c1.6,0.9,3.4,1.3,5.1,1.1c1.2-0.2,2.4-0.6,3.6-1.2c0.8-0.4,1.8-0.5,2.7-0.3C47.2,126.1,48.3,126.2,49.1,126.4z"/>
				<path id="Path_797" fill="#FFFFFF" d="M16,13.5l-0.3-0.1L16,13.5c0.4,0.7,0.8,1.3,1.2,1.8c0.5,0.5,0.6,1.2,0.3,1.9
					c-0.3,0.7-1,0.5-1.6,0.4c-1.5-0.2-2.9,0.6-3.6,1.9c-0.4,0.9-0.8,1.8-1.1,2.8c-0.3,1.2-1,2.2-2.1,2.8c-0.7,0.3-1.3,0.8-2,1.1
					c-0.6,0.3-1,0.8-1.1,1.4c-0.2,1.2-0.2,2.4,0.1,3.6c0.2,1.3,0.1,1.8-1,2.4c-0.6,0.3-1.1,0.6-1.6,1c-0.6,0.5-1.1,1-1.6,1.7
					c-0.3,0.5,0,0.9,0.6,0.8c1-0.1,2,0.5,2.4,1.4c0.4,0.7,0.3,1.5-0.1,2.2c-0.9,1.9-1.3,4.1-1.1,6.2c0.1,2.3,0.7,4.6,1.7,6.7
					c0.4,0.9,0.8,1.9,1,2.9c0.2,1.3,0.6,2.7-0.1,4.1c-0.6,1.1-0.6,1.2,0.6,1.9c0.7,0.5,1.2,1.3,1.1,2.2c-0.1,3.6-0.4,7.2-1,10.8
					c-0.3,1.6,0.1,3.3,1,4.6c0.5,0.7,1.1,1.4,1.8,2.1c0.6,0.5,1,1.3,1.1,2.1c0,0.4,0.1,0.8,0.3,1.1c0.3,1.1,1.2,1.8,2.3,1.8
					c1.2,0,2.3,0.4,3.2,1.2c0.3,0.2,0.6,0.4,0.9,0.5c1.7,0.7,3.6,1.2,5.4,1.5c1.2,0.2,2.4,0,3.5-0.5c1.3-0.6,2.3-1.9,2.5-3.4
					c0.2-0.9,0.5-1.3,1.4-1.3l0.2,0.3c0,2.7-1.7,5.1-4.2,6c-0.8,0.2-1,0.7-1,1.5c0,1.6,0.1,3.2-0.9,4.6c0,0.1,0.1,0.4,0.2,0.4
					c1.1,0.1,2.2,0.3,3.3,0.3c6.5,0.1,13,0.2,19.5-0.3c0.8-0.1,1.7,0,2.5-0.1c2.3-0.2,4.5-0.6,6.7-0.8c2.9-0.3,5.8-0.9,8.6-1.7
					c5.5-1.6,10.8-3.8,15.8-6.6c2.4-1.3,4.7-3,6.7-4.8c0.5-0.5,0.7-0.9,0.3-1.5c-0.5-0.9-1-1.9-1.5-2.8c-0.2-0.2-0.4-0.3-0.7-0.3
					c-2.3,0.3-4.5-0.4-6.7-0.9c-1.4-0.3-2.6-1.1-3.4-2.3c-0.3-0.5-0.4-0.9,0.1-1.3c0.4-0.3,0.9-0.1,1.2,0.3c0,0.1,0.1,0.1,0.1,0.2
					c0.4,0.9,1.2,1.4,2.1,1.5c1.3,0.3,2.6,0.6,4,0.9c2.1,0.6,4.4-0.2,5.6-2c1-1.5,2-2.9,3.1-4.2c0.7-1,1.4-2,1.9-3.1
					c0.6-1,0.8-2.2,0.7-3.4c-0.1-1.2-0.3-2.5-0.5-3.7c-0.5-3.6-2.4-6.8-5.3-9.1c-2.1-1.7-3.5-4.1-4-6.7c-0.2-0.8,0.3-1.3,1.1-1.2
					c0.3,0,0.5,0,0.8,0c0-0.3-0.1-0.6-0.1-0.9c-0.2-0.4-0.4-0.8-0.7-1.1c-1.1-1.6-1.5-3.6-1.2-5.5c0.3-2,0.2-4-1.4-5.6
					c-1.4-1.4-1.6-3.2-1.8-4.9c-0.2-2.6-0.6-5.2-2.3-7.3c-0.4-0.3-0.4-0.9-0.2-1.3c0.1-0.2,0-0.5-0.1-0.7c-1.5-1.1-3-2.1-4.6-3
					c-0.9-0.3-1.6-1-2-1.9c-0.3-1-1.2-1.7-2.2-1.9c-3.3-0.8-6.6-2-9.7-3.3c-1.3-0.7-2.9-0.6-4.2,0c-0.9,0.4-2,0.5-2.9,0.3
					c-1.4-0.3-2.7-1.3-1.9-3.3c0.1-0.1,0.1-0.3,0.2-0.4C52.1,3,51.8,2.9,51.5,3C50.2,3.4,49,4,48,4.8c-0.9,0.8-1.2,0.7-1.5-0.4
					c-0.2-0.7-0.6-1.2-1.3-1.4c-0.2-0.1-0.4-0.2-0.5,0.2c-0.4,3.2-2.8,4.7-6,3.7c-2.1-0.6-4.4-0.4-6.4,0.5c-1,0.4-2,0.9-2.9,1.5
					c-0.7,0.6-1.7,1-2.7,0.8c-1.2-0.1-2.4,0.1-3.5,0.6c-0.6,0.2-1.1,0.8-1.2,1.5c-0.2,1.1-0.9,2.2-1.8,2.9c-0.7,0.7-0.9,0.7-1.5-0.1
					C18.1,13.8,17.1,13.4,16,13.5z"/>
				<g transform="translate(7.68 2.205)">
					<path id="Path_798" fill="#A37F71" d="M89.3,116.8c0.6-4.3,0.7-8.7,0.4-13.1c-0.4-3.1-0.5-6.3-1.1-9.3
						c-0.7-3.2-2.1-7.6-4.7-9.8c-0.3-0.3-0.6-0.5-0.9-0.8c-1.3-1.4-2.3-4.4-1.3-6.1c1.1-1.8,3-3,4.4-4.5c2.5-2.6,4.5-5.6,5-9.2
						c0.5-4.1,0.4-9.3-1.7-12.9c-1.2-1.8-2.6-3.4-4.1-4.9c-2.3-2.3-3.7-5.3-3.9-8.6c-0.7-8.9-3.8-18.7-9.7-25.6
						c-1.7-2-3.7-3.7-6.1-4.9c-2.8-1.4-5.9-1.9-8.9-2.5c-2.6-0.5-5.2-1.2-7.8-2c-2.3-0.7-4.4-2.4-6.9-2.6C37.5-0.2,33.1,0.4,29,1.8
						c-3.6,1.1-6.8,3.5-8.8,6.7c-3.7,2.3-6.3,6.5-10.6,8.3c-3.3,1.4-4.4,4.5-5.1,7.8c-0.5,0.6-1,1.3-1.4,1.9c-1.1,0.6-2,1.5-2.5,2.6
						c-1,2.2-0.6,5.1,0.2,7.8c0,1.2,0.1,2.4,0.3,3.6c-1.6,5.8-0.7,11.9,1,17.6c0.5,1.5,0.9,3,1.4,4.5c0.1,3.3-0.1,6.5-0.6,9.7
						c-0.6,4-0.1,8.2,3.6,10.6c1.3,0.7,2.8,1.3,4.3,1.5c0.4,0.2,0.8,0.4,1.3,0.5c0.8,0.3,1.9,0.6,2.8,0.9c0.2,0.1,0.4,0.3,0.6,0.5
						c0.3,0.3,0.7,0.5,1.1,0.6c0,0,0.1,0.1,0.1,0.1c1.2,1.6,0.4,4.2-0.1,5.8c-1.3,4.2,0.7,7.9,5.4,7.8c2,0,3.9-0.5,5.9-0.5
						c0.7,0,1.3,0.1,2,0.2c-2.1,0.7-4.1,1.8-5.8,3.3c-3.1,2.5-5.8,7.2-5.9,11.5c-0.1,0.2-0.1,0.3-0.2,0.5c-0.8,2.8-0.4,6.4,2.2,8.1
						c1.5,1,3.4,1,4.8-0.1c1.9,0.6,3.8,1.1,5.8,1.5c3.8,0.9,7.8,1.4,11.7,1.5c0.9,0,1.8-0.1,2.7-0.3c1.2,0,2.4-0.1,3.5-0.6
						c3.4-1.5,4.5-5.1,4.3-8.7c0.1-0.2,0-0.3,0-0.5 M26.8,40.6c-0.1,0.2-0.2,0.4-0.3,0.5c-0.2,0.2-0.4,0.2-0.6,0.1
						c-0.1,0-0.2-0.1-0.3-0.1l0,0c0,0-0.1-0.1-0.1-0.1c0,0,0,0,0,0c-0.1-0.2-0.1-0.5,0.1-0.8c0.2-0.2,0.4-0.2,0.6-0.2h0
						C26.5,39.9,27,40.3,26.8,40.6L26.8,40.6z M51.1,33.8c0.1-0.2,0.4-0.3,0.6-0.3c0.3,0,0.5,0.2,0.6,0.5c0,0.2,0,0.4-0.1,0.5
						c0,0.1-0.1,0.2-0.1,0.3c-0.2,0.2-0.4,0.2-0.6,0.1c-0.2,0-0.3-0.1-0.4-0.2c0-0.1-0.1-0.2-0.1-0.3C51,34.1,51,33.9,51.1,33.8
						L51.1,33.8z"/>
				</g>
				<path id="Path_799" fill="#DA291C" d="M94.2,104.6c0,0.3,0,0.5,0,0.8c0,0.2,0,0.4-0.1,0.5c-0.2,0-0.3-0.1-0.4-0.2
					c-1.3-1.5-2.6-3-3.9-4.4c-2-2.1-4.1-4.1-6.2-6.1c-0.4-0.4-0.3-0.5,0-0.7c2.7-2.2,5.2-4.7,7.3-7.5c0.3-0.5,0.5-0.3,0.6,0.3
					c1,3.9,1.7,7.9,2.2,12C93.9,101,94.1,102.8,94.2,104.6L94.2,104.6z"/>
				<path id="Path_800" stroke="#000000" stroke-width="1.5" stroke-miterlimit="10" d="M96.4,103.6c-0.4-4.9-1.4-9.8-3.1-14.5
					c-0.6-1.8-1.7-3.5-2.1-5.4c0-0.4-0.2-0.8-0.5-1c-1.2-0.6-1.4-1.8-2-2.8c-0.7-1.1-0.6-1.2,0.3-2c1.1-0.9,1.9-2,2.4-3.2
					c0.2-0.4,0.5-0.8,0.9-1.1c1.5-1.6,2.8-3.5,3.6-5.6c0.2-0.4,0.3-0.8,0.3-1.3c0.2-5-0.8-9.6-4-13.5c-0.8-1-1.8-1.9-2.8-2.8
					c-1.1-1-1.9-2.2-2.4-3.6c-0.2-0.6,0-0.6,0.5-0.6c0.5,0.1,1.1-0.2,1.2-0.7c0-0.1,0-0.2,0-0.3c0.1-1.4-0.4-2.7-1.3-3.7
					c-0.7-0.8-1.1-1.8-1.1-2.9c-0.1-0.8,0-1.7,0.1-2.5c0.4-2.1-0.2-4.2-1.6-5.8c-0.9-1.1-1.4-2.4-1.5-3.8c0-0.3-0.1-0.6-0.1-0.9
					c-0.3-2.2-0.5-4.4-1.7-6.4c-0.1-0.1-0.2-0.4-0.1-0.5c0.7-1.1-0.1-1.9-0.8-2.5c-1.6-1.6-3.4-2.9-5.4-3.9c-0.6-0.2-1-0.7-1.3-1.2
					c-0.6-1.4-1.9-2.5-3.5-2.8c-3.2-0.8-6.4-1.9-9.5-3.3c-1.5-0.7-3.3-0.7-4.8,0.1c-0.5,0.2-1.1,0.4-1.6,0.6c-0.5,0.2-1.1,0-1.4-0.5
					c-0.3-0.5-0.3-1.1,0.1-1.5c0.3-0.4,0.7-0.7,1.1-1C55,2.3,55,1.7,54.2,1.4c-0.6-0.3-1.2-0.3-1.8-0.2c-1.3,0.4-2.6,0.9-3.9,1.5
					c-0.3,0.2-0.8,0.2-1.1-0.1C46,1.7,44.5,0.8,43,0c-0.2-0.1-0.7,0.1-0.9,0.3c-0.1,0.2-0.2,0.5,0,0.8c0.2,0.3,0.4,0.7,0.6,1
					c0.4,0.7,0.4,1.6,0,2.3c-0.4,0.8-1.2,1.2-2,1.1c-0.7-0.1-1.4-0.3-2.1-0.4c-1-0.2-2-0.3-3-0.3c-2.6,0.3-5,1.2-7.1,2.8
					c-0.4,0.4-1,0.6-1.6,0.5c-1.5-0.2-2.9,0.1-4.2,0.8c-1.1,0.4-1.9,1.4-2.2,2.6c-0.1,0.4-0.3,0.8-0.5,1.2c-0.2,0.4-0.4,0.5-0.8,0.2
					c-2-1.5-4.2-1.2-6.4-1c-0.6,0-1,0.4-1.2,0.9c-0.1,0.6,0.4,0.8,0.9,1c0.8,0.4,1.5,0.9,2.2,1.3c0.2,0.2,0.4,0.4,0.6,0.6
					c-0.2,0.1-0.5,0.3-0.7,0.3c-1.2,0.2-2.3,0.8-3.1,1.8c-0.9,1-1.5,2.3-1.7,3.6c-0.1,1.1-0.8,2-1.8,2.4c-0.5,0.2-1,0.5-1.5,0.8
					c-1.3,0.7-2.1,2-2.1,3.4c0,0.7,0,1.5,0.1,2.2c0.2,1.7,0.3,1.8-1.3,2.7c-2,1-3.3,3.1-3.1,5.3c0,0.6-0.1,1.4,0.6,1.6
					c0.7,0.3,1-0.4,1.4-0.8c0.3-0.4,0.8-0.7,1.3-0.3c0.5,0.3,0.3,0.8,0.2,1.3C3,41,2.7,42,2.5,43C1.8,46.7,2.3,50.6,4,54.1
					c0.7,1.5,1.1,3,1.2,4.6c0,0.6,0.1,1.1-0.8,1.3c-0.4,0-0.7,0.4-0.6,0.7c0,0.1,0.1,0.3,0.2,0.4C4.4,62,5,62.8,5.8,63.6
					c0.5,0.4,0.7,1,0.6,1.6c-0.3,2.5-0.6,5.1-1,7.6c-0.4,2.2-0.2,4.6,0.5,6.7c0.4,1.3,1.2,2.5,2.3,3.3c0.6,0.4,1,1.1,1.1,1.8
					c0,0.4,0.1,0.9,0.2,1.3c0.4,2,2.3,3.4,4.4,3.2c0.5,0,1,0.1,1.5,0.4c1.9,0.9,3.7,1.9,5.8,2c0.9,0,1.8,0.2,2.7,0.3
					c0,0.9-0.1,1.9-0.1,2.8c0.1,1-0.4,2-1.3,2.4c-0.5,0.3-0.7,0.7-0.3,1.2c0.4,0.4,0.2,0.8,0.1,1.2c-0.3,1-0.6,2.2,0,3
					c0.8,1.1,0.7,2.2,0.9,3.4c0.1,0.6,0.2,1.2,0.4,1.8c0.2,0.4,0.1,0.9-0.3,1.2c-2.2,2.4-2.8,5.5-2.9,8.6c0,0.4,0.1,0.7,0.4,1
					c0.5,0.3,0.5,0.6,0.3,1.1c-0.1,0.5-0.2,0.9-0.3,1.4c-0.5,2.7,1.2,5.3,3.8,6.2c2,0.7,4.1,0.9,6.2,0.7c1.7-0.3,3.4-0.1,5.1,0.4
					c1.6,0.6,3.4,0.7,5.1,0.3c0.9-0.3,1.8-0.6,2.6-0.9c0.8-0.4,1.8-0.5,2.7-0.2c1.7,0.4,3.4,0.4,5.1,0.1c6.5-1.2,9.7-7.1,7.6-12.5
					c-0.2-0.6-0.4-1.2-0.6-1.8c-0.2-0.6-0.6-1.2,0.3-1.5c0.1,0,0.2-0.7,0.1-0.9c-0.4-0.5-0.8-1-1.2-1.4c-0.4-0.4-0.9-0.7-1.3-1.1
					c-0.1-0.3-0.2-0.5-0.2-0.8c-0.1-0.6-0.3-0.8-0.9-0.5c-0.7,0.4-1.2-0.1-1.7-0.5c-1.3-1-2.7-1.9-4-2.9c-0.1-0.1-0.2-0.3-0.3-0.4
					c0.2-0.1,0.3-0.1,0.5-0.1c3.5-0.5,7-0.9,10.4-1.5c5.6-1,11.1-2.6,16.3-4.9c0.4-0.1,0.7-0.3,1.1-0.4c1.3-0.9,2.5-0.4,3.7,0.3
					c4.4,2.7,8.6,5.7,12.6,9c0.5,0.3,1,0.5,1.6,0.6C96.6,105.8,96.5,104.7,96.4,103.6z M51.4,106.8c0.4,0.6,1,1,1.6,1.4
					c1.2,0.4,2,1.5,3,2.2c0.2,0.2,0.3,0.4,0.2,0.7c-0.3,0.7,0,1.2,0.2,1.8c0.7,1.5,1.2,3,1.6,4.6c0.4,2.9-0.9,5.8-3.4,7.3
					c-1.7,1-3.7,1.5-5.6,1.5c-0.8-0.1-1.9-0.3-2.9-0.5c-0.9-0.2-1.8-0.1-2.7,0.3c-1.1,0.6-2.3,0.9-3.6,1.2c-1.8,0.2-3.6-0.2-5.1-1.1
					c-0.8-0.5-1.8-0.6-2.7-0.2c-2.3,1-4.7,0.5-6.9-0.3c-2-0.7-3.2-2.8-2.5-4.9c0,0,0,0,0,0c0.2-1,0.5-2,0.7-2.9
					c0.1-0.7,0.2-1.5-0.7-1.9c-0.2-0.2-0.4-0.5-0.4-0.8c0.5-3.6,2.7-6.8,5.9-8.7c3.3-2,7-3.2,10.8-3.3c2.4-0.1,4.7,0.1,7,0.7
					C48.1,104.4,49.9,105.4,51.4,106.8L51.4,106.8z M25.6,104.1c1,0,2,0,3,0c0.1,0,0.2,0,0.3,0.1c-0.1,0.1-0.1,0.2-0.2,0.3
					c-1,0.8-2,1.6-3,2.4c-0.3,0.2-0.5,0.3-0.6-0.2c-0.1-0.7-0.2-1.3-0.3-2C24.7,104.1,24.9,103.9,25.6,104.1L25.6,104.1z M81.2,88.8
					c-5,2.8-10.3,5.1-15.8,6.6c-2.8,0.8-5.7,1.4-8.6,1.7c-2.3,0.2-4.5,0.5-6.7,0.8c-0.8,0.1-1.7,0-2.5,0.1c-6.5,0.4-13,0.3-19.5,0.3
					c-1.1,0-2.2-0.2-3.3-0.3c-0.1,0-0.2-0.3-0.2-0.4c1-1.4,0.9-3,0.9-4.6c0-0.7,0.2-1.2,1-1.5c2.5-0.9,4.2-3.3,4.2-6l-0.2-0.3
					c-0.9-0.1-1.3,0.4-1.4,1.3c-0.2,1.5-1.1,2.7-2.5,3.4c-1.1,0.5-2.3,0.7-3.5,0.5c-1.9-0.2-3.7-0.7-5.4-1.5
					c-0.3-0.1-0.6-0.3-0.9-0.5c-0.9-0.8-2-1.2-3.2-1.2c-1.1,0-2.1-0.8-2.3-1.8c-0.1-0.4-0.2-0.7-0.3-1.1c-0.1-0.8-0.5-1.6-1.1-2.1
					c-0.6-0.6-1.2-1.3-1.8-2.1c-0.9-1.4-1.3-3-1-4.6c0.6-3.6,0.9-7.2,1-10.8c0.1-0.9-0.4-1.7-1.1-2.2c-1.1-0.7-1.1-0.8-0.6-1.9
					c0.7-1.4,0.3-2.8,0.1-4.1c-0.2-1-0.5-2-1-2.9c-1-2.1-1.6-4.4-1.7-6.7c-0.1-2.1,0.3-4.3,1.1-6.2c0.4-0.7,0.5-1.5,0.1-2.2
					c-0.4-1-1.4-1.6-2.4-1.4c-0.6,0.1-1-0.3-0.6-0.8c0.4-0.6,1-1.2,1.6-1.7c0.5-0.4,1-0.7,1.6-1c1-0.7,1.1-1.2,1-2.4
					C5.8,30,5.7,28.8,6,27.6c0.1-0.6,0.6-1.1,1.1-1.4c0.7-0.3,1.3-0.8,2-1.1c1.1-0.6,1.9-1.6,2.1-2.8c0.3-1,0.6-1.9,1.1-2.8
					c0.7-1.4,2.1-2.1,3.6-1.9c0.6,0,1.2,0.2,1.6-0.4c0.3-0.6,0.2-1.4-0.3-1.9c-0.5-0.5-0.9-1.1-1.3-1.7l-0.2-0.2l0.3,0.1
					c1.1-0.1,2.1,0.3,2.8,1.2c0.6,0.8,0.9,0.7,1.5,0.1c0.9-0.8,1.5-1.8,1.8-2.9c0.1-0.7,0.6-1.3,1.2-1.5c1.1-0.6,2.3-0.8,3.5-0.6
					c1,0.1,1.9-0.2,2.7-0.8c0.9-0.6,1.9-1.2,2.9-1.5c2-0.9,4.2-1.1,6.4-0.5c3.2,1,5.6-0.4,6-3.7c0-0.4,0.2-0.3,0.5-0.2
					c0.6,0.2,1.1,0.8,1.3,1.4c0.3,1.1,0.7,1.2,1.5,0.4C49,4,50.2,3.3,51.5,3c0.3-0.1,0.6-0.1,0.4,0.4c-0.1,0.1-0.1,0.3-0.2,0.4
					c-0.8,2,0.5,3,1.9,3.3c1,0.2,2,0.1,2.9-0.3c1.3-0.7,2.9-0.7,4.2,0c3.1,1.4,6.4,2.5,9.7,3.3c1,0.2,1.8,0.9,2.2,1.9
					c0.4,0.9,1.1,1.6,2,1.9c1.6,0.9,3.1,1.9,4.6,3c0.2,0.2,0.2,0.5,0.1,0.7c-0.2,0.4-0.2,1,0.2,1.3c1.7,2.2,2.1,4.7,2.3,7.3
					c0.2,1.8,0.4,3.5,1.8,4.9c1.5,1.5,1.7,3.6,1.4,5.6c-0.3,1.9,0.1,3.9,1.2,5.5c0.3,0.3,0.5,0.7,0.7,1.1c0.1,0.3,0.1,0.6,0.1,0.9
					c-0.3,0-0.5,0-0.8,0c-0.8-0.1-1.3,0.4-1.1,1.2c0.5,2.6,1.9,5,4,6.7c2.8,2.3,4.7,5.5,5.3,9.1c0.2,1.2,0.4,2.5,0.5,3.7
					c0.1,1.2-0.1,2.3-0.7,3.4c-0.5,1.1-1.2,2.1-1.9,3.1c-1.1,1.3-2.2,2.8-3.1,4.2c-1.2,1.8-3.5,2.7-5.6,2c-1.3-0.3-2.6-0.6-4-0.9
					c-0.9-0.1-1.7-0.7-2.1-1.5c-0.1-0.5-0.6-0.7-1.1-0.6c-0.1,0-0.2,0.1-0.2,0.1c-0.5,0.4-0.4,0.8-0.1,1.3c0.7,1.2,2,2.1,3.4,2.3
					c2.2,0.5,4.4,1.2,6.7,0.9c0.3,0,0.5,0.1,0.7,0.3c0.5,0.9,1,1.9,1.5,2.8c0.4,0.6,0.1,1-0.3,1.5C85.9,85.9,83.7,87.5,81.2,88.8
					L81.2,88.8z M94.3,102.8c0,0.1-0.1,0.3-0.1,0.4c-0.2,0-0.4-0.1-0.5-0.2c-1.5-1.1-3-2.3-4.5-3.4C86.8,98,84.4,96.5,82,95
					c-0.5-0.3-0.3-0.4,0-0.6c3-1.6,5.8-3.5,8.4-5.7c0.4-0.4,0.5-0.2,0.7,0.2c1.1,3,2,6,2.6,9.2c0.3,1.4,0.5,2.8,0.7,4.1l-0.1,0
					C94.3,102.4,94.3,102.6,94.3,102.8z"/>
				<path id="Path_801" stroke="#000000" d="M30.8,85.5l-0.3-0.3c-0.7-0.8-1.4-1.6-2.2-2.3c-0.8-0.7-1.4-1.7-1.6-2.7
					c-0.2-0.7-0.6-1.4-1.2-1.9c-2-2-3.2-4.7-3.5-7.5c-0.2-1.7-0.1-3.4,0.5-5c0.2-0.5,0.1-1.2-0.3-1.6c-0.5-0.6-0.8-1.4-0.8-2.3
					c-0.3-3.6,1.4-6.4,3.6-9c0.3-0.3,0.6-0.6,1-0.3s0.3,0.7,0.1,1c-0.5,0.7-1,1.4-1.5,2.2c-1.2,1.8-1.8,3.9-1.8,6
					c-0.1,0.7,0.2,1.4,0.8,1.8c0.9,0.5,0.8,1.2,0.5,2c-0.6,1.4-0.8,3-0.7,4.5c0.1,2.3,0.9,4.6,2.5,6.4c1.1,1.1,1.9,2.4,2.3,3.9
					c0,0,0,0.1,0.1,0.1c1.5,1.9,3.1,3.8,5.5,4.6c0.9,0.3,1.9,0.4,2.8,0.7c0.8,0.3,1.5,0.6,2.2,1c0.4,0.2,0.7,0.4,1-0.2
					c0.3-0.6,0.8-0.4,1.2-0.1c0.5,0.3,0.9,0.5,1.4,0.7c0.7,0.4,1.1,0.4,1.4-0.5c0.2-0.6,1-0.7,1.2-0.2c0.7,1.6,2.2,1.5,3.4,1.7
					c4,0.8,8.2,0.1,11.8-1.9c1.6-0.8,3.1-2.1,4.1-3.6c0.7-1,1.5-2,2.2-3c0.6-1.1,1-2.2,1.1-3.4c0.2-1,0.6-1.1,1.6-0.7
					c0.7,0.5,1.3,1.1,1.7,1.9c0.3,0.5,0.5,0.5,0.8,0c1-1.8,1.5-3.8,1.2-5.9c0-0.2-0.2-0.4-0.2-0.5c0.1-0.3,0.3-0.6,0.6-0.9
					c0.1-0.1,0.5,0.2,0.7,0.3c0,0,0.1,0.1,0.1,0.1c1.1,1.1,1.1,1.1,1.7-0.4c0.6-1.3,1.2-2.6,1.7-4c0.7-2.4,0.3-4.9-0.2-7.3
					c-0.7-3.1-2.3-5.9-4.6-8.1c-0.2-0.2-0.4-0.4-0.7-0.5c-1-0.3-1.7-1.2-1.7-2.2c-0.2-1.8-1.3-3.4-3-4.2c-0.4-0.2-0.8-0.5-0.5-1
					c0.3-0.6,0.8-0.4,1.2-0.2c2,1.1,3.4,2.9,3.9,5.1c0.1,0.4,0.2,0.7,0.5,1c3.5,2.6,5.8,6.5,6.5,10.8c0.3,2,0.4,4,0.2,6.1
					c-0.1,0.9-0.4,1.7-0.7,2.5c-0.7,1.8-1.8,3.5-2.2,5.5c-0.1,0.4-0.4,0.7-0.8,0.6c-0.1,0-0.2-0.1-0.3-0.1c-0.7-0.4-0.8,0.1-0.8,0.5
					c-0.2,1.5-0.8,2.9-1.7,4.1c-0.4,0.5-0.8,0.9-1.2,1.2c-0.6,0.5-1,0.4-1.4-0.3c-0.3-0.5-0.4-1.1-0.6-1.6c-0.1-0.2-0.3-0.3-0.5-0.5
					c0,0.2-0.1,0.4-0.2,0.5c-0.4,1-0.8,2-1.4,3c-1.4,2.3-3.2,4.4-5.4,6c-2,1.3-4.2,2.2-6.5,2.6c-2.4,0.4-4.9,0.5-7.4,0.1
					c-0.7-0.1-1.3-0.1-2,0c-1.4,0.1-2.7-0.2-3.9-0.8c-0.4-0.2-0.8-0.1-0.8,0.4c0,0.6-0.4,0.7-0.8,0.9c-0.5,0.2-0.7-0.2-1-0.6
					c-0.7-1-1.8-1.7-3-2.1C34.8,87.1,32.6,86.7,30.8,85.5z"/>
				<path id="Path_802" d="M55,64.4c0.2,1.1-0.4,2.2-1.4,2.6c-1.2,0.3-2.4-0.1-3.3-0.9c-0.2-0.3-0.4-0.6-0.6-0.8
					c-0.5-0.9-1.5-1.2-2.4-0.7c-0.3,0.2-0.6,0.5-0.8,0.8c-0.7,1-2,1.2-2.9,0.5c-0.3-0.2-0.5-0.4-0.6-0.7c-1.1-2.3-0.6-5.1,1.4-6.8
					c1.4-1.1,3-2,4.7-2.6c1.9-0.7,3.9-0.8,5.8-0.4c2.4,0.6,4.1,2.6,4.3,5c0,0.4-0.1,0.9-0.2,1.3c-0.1,0.6-0.7,1-1.3,0.9
					c-0.1,0-0.2-0.1-0.4-0.1c-0.2-0.1-0.3-0.2-0.5-0.3c-0.7-0.3-1.4-0.1-1.8,0.6c-0.1,0.2-0.1,0.4-0.1,0.7
					C54.9,63.8,54.9,64.1,55,64.4z M49.9,60.6c1.5-0.1,2.7-0.4,3.6-1.3c1-1.1,0.8-2-0.5-2.4c-1.7-0.6-3.5-0.2-4.9,0.9
					c-0.6,0.4-0.7,1.2-0.4,1.8c0.1,0.2,0.4,0.4,0.6,0.5C48.8,60.3,49.3,60.5,49.9,60.6L49.9,60.6z"/>
				<path id="Path_803" d="M39.5,43.5c-2.1-2-4.3-3.5-7.5-2.9c-2.5,0.4-5.1,3.7-5.4,5.7c-0.1,0.5-0.3,1.2,0.4,1.3s0.8-0.5,1-1
					c0.3-0.7,0.6-1.4,0.9-2.1c0-0.1,0.1-0.2,0.2-0.2c0.1,0.1,0.1,0.2,0.2,0.3c0.1,0.4,0.3,0.8,0.5,1.2c0.7,1.2,2.1,1.9,3.5,1.8
					c1.5-0.3,2.7-0.9,3.1-2.7c0-0.7,0-1.4-0.2-2.1l-0.1-0.3l0.3,0.1c0.7,0.1,1.4,0.6,1.7,1.3c0.2,0.2,0.2,0.6,0.4,0.8
					c0.2,0.2,0.6,0.4,0.8,0.3c0.3-0.2,0.4-0.5,0.5-0.8C39.8,43.8,39.7,43.6,39.5,43.5z M34.2,43.3c-0.2,0.2-0.4,0.2-0.6,0.1
					c-0.1,0-0.2-0.1-0.3-0.1l0,0c0,0-0.1-0.1-0.1-0.1c0,0,0,0,0,0c-0.1-0.2-0.1-0.5,0.1-0.8c0.2-0.2,0.4-0.2,0.6-0.2h0
					c0.4-0.1,0.8,0.3,0.7,0.7l0,0l0.1,0c0,0-0.1,0-0.1,0.1C34.4,43.1,34.3,43.2,34.2,43.3L34.2,43.3z"/>
				<path id="Path_804" d="M65.7,37.5c-0.1-0.3-0.4-0.6-0.6-0.8c-1.2-1.2-2.6-2-4.3-2.4c-3-0.8-6.3,0.6-7.7,3.4
					c-0.5,1-1,2.1-1.4,3.2c-0.3,0.6-0.1,1.1,0.3,1.2s0.8-0.2,1-0.8c0-0.1,0-0.3,0-0.4c0.3-1.3,0.9-2.5,1.7-3.5
					c0.1-0.1,0.3-0.2,0.5-0.3c0,0.2,0.1,0.3,0.1,0.5c0.1,0.6,0.2,1.2,0.4,1.8c0.9,1.4,2.7,2,4.2,1.3c1.4-0.5,2.4-2,2.2-3.5
					c0-0.1-0.1-0.2-0.1-0.3c0-0.2,0.1-0.4,0.1-0.5c0.2,0.1,0.4,0.1,0.5,0.2c0.6,0.6,1.2,1.2,1.9,1.8c0.2,0.2,0.6,0.3,0.9,0.2
					c0.3-0.1,0.5-0.5,0.4-0.9C65.7,37.6,65.7,37.5,65.7,37.5z M59.9,36.6c0,0.1-0.1,0.2-0.1,0.3c-0.2,0.2-0.4,0.2-0.6,0.1
					c-0.2,0-0.3-0.1-0.4-0.2c0-0.1-0.1-0.2-0.1-0.3c0-0.1,0-0.3,0.1-0.4c0.1-0.2,0.3-0.3,0.5-0.3l0,0v0c0,0,0.1,0,0.1,0
					c0.3,0,0.5,0.2,0.6,0.5C60,36.3,60,36.5,59.9,36.6L59.9,36.6z"/>
				<path id="Path_805" d="M26.5,31.9c-2.2,0.7-3.4,1.8-3.7,3.7c0,0.2-0.1,0.4-0.1,0.6c0,0.5,0.6,1.2,1,1c0.3-0.2,0.6-0.6,0.7-1
					c0.1-0.4,0.1-0.9,0.2-1.3c0.1-0.2,0.4-0.4,0.6-0.6c0.1,0.2,0.2,0.4,0.3,0.6c0.2,0.5,0.3,0.9,0.5,1.3c0.5,0.9,1.2,1,1.6,0.2
					c0.9-1.7,2.5-2,4.1-2.3c0.2,0,0.4,0,0.6-0.1c0.2-0.1,0.5-0.3,0.5-0.5c0-0.3-0.2-0.5-0.4-0.6c-0.6-0.2-1.2-0.3-1.8-0.1
					c-1,0.4-2.3,0.3-3.2,1.3c0,0-0.2,0.1-0.2,0c-0.1-0.1-0.1-0.2-0.1-0.4c0.1-0.2,0.2-0.4,0.3-0.7c0.1-0.3,0.4-0.8-0.1-1
					C27.1,32,26.8,31.9,26.5,31.9z"/>
				<path id="Path_806" fill="#DA291C" d="M56.1,73c0.6,1.3,0.5,2.8-0.2,4c-1.3,2.4-4.5,1.8-5.5,0.1c-0.4-0.8-0.7-1.6-0.9-2.4
					c1.6,0,3.1-0.3,4.6-0.8C54.8,73.6,55.4,73.3,56.1,73z"/>
				<path id="Path_807" d="M60.8,27.9c0-0.4,0-0.8-0.1-1.1c-0.1-0.6,0.2-0.4,0.4-0.2c0.4,0.3,0.8,0.6,1.2,0.8c0.3,0.1,0.6,0.1,0.9,0
					c0.3-0.2,0.4-0.5,0.2-0.8c0-0.1-0.1-0.1-0.1-0.2c-0.7-0.7-1.4-1.3-2.3-1.8c-0.8-0.4-1.2-0.4-1.6,0.6C59.2,26,59,26,58.3,25.8
					c-1.7-0.7-3.2,0.1-4.7,0.7c-0.2,0.1-0.4,0.6-0.4,0.9c0,0.4,0.4,0.6,0.7,0.6c0,0,0.1,0,0.1,0c0.4-0.1,0.8-0.2,1.2-0.4
					c1.1-0.6,2.4-0.6,3.5,0c0.3,0.2,0.7,0.3,1.1,0.4C60.1,28,60.5,28,60.8,27.9z"/>
				<path id="Path_808" d="M12.8,44.3c0.2,0.2,0.5,0.3,0.7,0.5c0.1,0.1,0,0.4-0.1,0.6c-0.2,0.4-0.4,0.7-0.6,1.1
					c-0.1,0.3-0.1,0.6,0,0.9c0.1,0.4,0.3,0.7,0.3,1.1c0,1,0.5,2,1.3,2.6c0.3,0.3,0.5,0.6,0.6,1c0.2,0.3,0.1,0.7-0.2,0.9
					c0,0-0.1,0-0.1,0.1c-0.3,0.1-0.6,0-0.9-0.1c-0.2-0.1-0.3-0.4-0.4-0.6c-0.3-0.3-0.6-0.6-0.9-0.1c-0.3,0.3-0.8,0.4-1,0
					c-0.2-0.3-0.4-0.9-0.3-1.1c0.8-1.1,0.5-2.1,0.1-3.1c-0.3-1.2,0.1-2.4,0.9-3.3C12.3,44.6,12.5,44.4,12.8,44.3z"/>
				<path id="Path_809" d="M78.5,44.5c0.6-1.6-0.5-2.6-1.2-3.8c-0.2-0.4-0.4-0.7,0-1c0.4-0.4,0.8-0.2,1.1,0.1
					c0.3,0.4,0.6,0.7,0.9,1.2c0.3,0.6,0.5,1.2,1.2,1.5c0.4,0.1,0.5,0.5,0.4,0.9c0,0.1-0.1,0.2-0.1,0.2c-1,0.9-0.3,1.8,0,2.6
					c0.1,0.3,0.3,0.5,0.4,0.7c0.4,0.6,0.4,1.2,0,1.4c-0.6,0.3-1-0.1-1.3-0.6c-0.4-0.6-0.7-1.2-0.9-1.8C78.8,45.5,78.6,45,78.5,44.5z
					"/>
				<path id="Path_810" d="M56.1,73c-0.7,0.3-1.3,0.6-2,0.9c-1.5,0.5-3.1,0.8-4.6,0.8c-0.8-0.3-1.6-0.6-2.4-0.9
					c-0.1-0.1-0.2-0.2-0.2-0.3c0-0.1,0.2-0.2,0.3-0.2c0.2,0,0.4,0,0.6,0c5,1,8.7-1,11.6-5c0.1-0.2,0.2-0.5,0.4-0.6
					c0.2-0.1,0.5-0.1,0.7-0.2c0,0.3,0.2,0.6,0.1,0.7c-0.8,1-1.6,1.9-2.4,2.9C57.5,71.8,56.8,72.4,56.1,73z"/>
				<path id="Path_811" fill="#FFFFFF" d="M49.9,60.6c1.5-0.1,2.7-0.4,3.6-1.3c1-1.1,0.8-2-0.5-2.4c-1.7-0.6-3.5-0.2-4.9,0.9
					c-0.6,0.4-0.7,1.2-0.4,1.8c0.1,0.2,0.4,0.4,0.6,0.5C48.8,60.3,49.3,60.5,49.9,60.6z"/>
				<path id="Path_812" fill="#070606" d="M96.6,105.3c-0.2-0.7-1-1.1-1.7-0.9c-0.7,0.2-1.1,0.9-0.9,1.6c1,3.8,1.5,7.7,1.3,11.5
					c-0.1,1.7,2.6,1.7,2.7,0C98.2,113.4,97.7,109.3,96.6,105.3z"/>
			</g>
		</g>
	</g>
</g>
</svg>
