<?xml version="1.0" encoding="utf-8"?>
<!-- Generator: Adobe Illustrator 23.0.6, SVG Export Plug-In . SVG Version: 6.00 Build 0)  -->
<svg version="1.1" id="Layer_1" xmlns="http://www.w3.org/2000/svg" xmlns:xlink="http://www.w3.org/1999/xlink" x="0px" y="0px"
	 viewBox="0 0 24 24.4" style="enable-background:new 0 0 24 24.4;" xml:space="preserve" width="35" height="35">
<title>Asset 4</title>
<path d="M23.2,0H0.8C0.3,0,0,0.3,0,0.7v20.1c0,0.4,0.3,0.8,0.8,0.8h8.3l3.2,2.6c0.1,0.1,0.3,0.2,0.5,0.2c0.2,0,0.4-0.1,0.6-0.3
	c0.3-0.3,0.2-0.8-0.1-1.1l-3.4-2.7c-0.1-0.1-0.3-0.2-0.5-0.2H8v-1.8c0-0.4-0.3-0.8-0.8-0.8s-0.8,0.3-0.8,0.8v1.8h-5V11h4.9v3.4
	c0,0.4,0.3,0.8,0.8,0.8s0.8-0.3,0.8-0.8V11h7.2c0.4,0,0.8-0.3,0.8-0.8s-0.3-0.8-0.8-0.8H1.5v-8h21v7.9h-3.6c-0.4,0-0.8,0.3-0.8,0.8
	s0.3,0.8,0.8,0.8h3.6v9.2h-7.8c-0.4,0-0.8,0.3-0.8,0.8s0.3,0.8,0.8,0.8h8.6c0.4,0,0.8-0.3,0.8-0.8V0.7C24,0.3,23.7,0,23.2,0z"/>
</svg>
