<svg xmlns="http://www.w3.org/2000/svg" xmlns:xlink="http://www.w3.org/1999/xlink" width="205.213" height="110.767" viewBox="0 0 205.213 110.767">
  <defs>
    <clipPath id="clip-path">
      <rect id="Rectangle_364" data-name="Rectangle 364" width="85.973" height="101.859" transform="translate(201 237)" fill="none"/>
    </clipPath>
  </defs>
  <g id="Group_329" data-name="Group 329" transform="translate(-146.787 -236)">
    <path id="Path_1002" data-name="Path 1002" d="M909.624,622.688a4.865,4.865,0,0,0-5.348-3.744,6.653,6.653,0,0,0-5.2,2.8c-2.022-.71-7.35-1.96-7.747-2.041a10.212,10.212,0,0,0-3.207-.247c-6.849.818-12.638,3.535-16.552,9.5-.391.6-.554,1.429-1.409,1.622-.095-.061-.235-.107-.236-.159a6.379,6.379,0,0,1,0-1.585,65.868,65.868,0,0,0,1.568-15.438,66.349,66.349,0,0,1,.809-8.7,25.331,25.331,0,0,1,2.705-8.274,8.7,8.7,0,0,1,1.1-1.34c.216,1.749.165,2.809.807,4.043a5.5,5.5,0,0,0,3.627,2.759,8.44,8.44,0,0,0,6.177-.8,5.358,5.358,0,0,0,2.509-6.407,7.7,7.7,0,0,0-3.646-4.391,5.265,5.265,0,0,0-5.268-.237,10,10,0,0,1-1.562.543c1.886-2.5,3.945-4.488,7.329-2.99a3.379,3.379,0,0,0,.955.172,7.639,7.639,0,0,0,8.759-8.624,12.586,12.586,0,0,0-3.494-7.166,6.423,6.423,0,0,0-4.249-2.138,8.282,8.282,0,0,0-8.245,5.623,8.96,8.96,0,0,0,.67,7.518c.321.547.656,1.085,1.036,1.711a9.955,9.955,0,0,1-1.133.772,11.986,11.986,0,0,0-4.849,4.648c-3.876,6.179-6.477,12.787-6.328,20.32a77.076,77.076,0,0,1-.387,8.769c-.768,8.12-1.421,16.428-4.43,24.045a60.017,60.017,0,0,1-10.422,17.421,46.7,46.7,0,0,1-7.619,7.015c-3.095,2.255-6.362,3.174-9.816,4.721-.372.167-.741.34-1.1.527a1.779,1.779,0,0,0-.9,1.487c5.622.38,10.988-2.335,15.047-5.645a53.6,53.6,0,0,0,12.865-15.665c1.31-2.349,2.508-4.759,3.674-7.183s1.868-5.063,3.128-7.416c1-1.869,2.193-3.624,3.281-5.441,1.329-2.22,2.316-4.448,4.3-6.2a22.192,22.192,0,0,1,9.64-4.684,6.051,6.051,0,0,1,3.91.148A4.982,4.982,0,0,0,888,626.765a5.213,5.213,0,0,0,2.473,4.64c2.787,1.632,5.585.3,7.708-3.719a5.783,5.783,0,0,0,4.195,2.821A6.073,6.073,0,0,0,909.624,622.688Z" transform="translate(-628.624 -327.695)" fill="#638dc9"/>
    <path id="Path_1012" data-name="Path 1012" d="M777.362,590.547q-.638-.31-1.322-.578a27.4,27.4,0,0,0-11.706-1.507c-9.818.63-18.477,7.846-20.142,17.674-1.92,11.33,1.9,22.48,12.312,25.671,9.512,2.914,24.613,2.083,31.217-10.388C791.084,611.123,787.9,595.674,777.362,590.547Z" transform="translate(-592.708 -330.384)" fill="#ffc829"/>
    <g id="Group_328" data-name="Group 328">
      <g id="Group_300" data-name="Group 300" transform="translate(-589.92 -319.286)">
        <path id="Path_1010" data-name="Path 1010" d="M941.647,612.916c-9.1,10.547-26.52,15.422-38.449,7.066-8.5-5.956-10.247-19.328-6.893-28.2,6.006-15.886,22.238-24.843,34.844-35.28.058-.048.12-.1.181-.142.332-.252.709-.537.455-1.029l-.023-.044h-.051c-.941.026-1.878.048-2.812.071-2.533.061-5.153.124-7.712.262a4.64,4.64,0,0,0-2.265.933l-.97.667c-2.6,1.788-5.3,3.638-7.833,5.6-8.367,6.487-16.606,14.981-21,24.761-4.028,8.967-4.425,20.176.294,28.965a12.187,12.187,0,0,1,.557,1.245c.055.136.106.264.155.379.131.31-5.886,5.376-6.417,5.831a65.257,65.257,0,0,1-7.962,5.861,45.576,45.576,0,0,1-17.763,6.766,38.825,38.825,0,0,1-21.395-3.052c-8.228-3.844-13.381-14.35-18.083-21.661-4.945-7.692-10.357-15.283-18.467-19.9-5.672-3.233-10.653-5.892-17.164-7.169-.617-.121-1.218-.239-1.8-.358-.548-.6-1.074-1.2-1.583-1.784-1.109-1.265-2.156-2.459-3.315-3.558a23.077,23.077,0,0,0-12.934-6.136,23.313,23.313,0,0,0-14.113,2.536,24.032,24.032,0,0,0-9.742,9.56,22.663,22.663,0,0,0-2.322,14.872c1.7,9.785,7.653,16.249,17.225,18.7a23.149,23.149,0,0,0,13.283-.239,24.384,24.384,0,0,0,10.867-7.774,22.058,22.058,0,0,0,5.1-15.237c-.006-.2-.026-.407-.047-.608a3.073,3.073,0,0,1,.3-2.084c15.434,2.642,26.042,17.724,33.048,30.494,3.343,6.093,7.658,12.1,13.8,15.622l.239.137a42.434,42.434,0,0,0,23.58,5.509c14.793-.818,29.15-8.841,39.416-20.03.223-.243.444-.485.663-.719.07.019.128.031.177.042a.461.461,0,0,1,.171.055l.306.252c.447.365.908.742,1.339,1.137,9.428,8.63,23.515,12.571,35.4,6.8,4.077-1.978,10-6.542,9.975-8.883A93.985,93.985,0,0,1,941.647,612.916ZM767.2,615.739A20.818,20.818,0,0,1,751.79,577.08c9.256-4.031,21.435-.5,25.22,7.46-3.13.641-6.245,1.274-8.839,3.253-.982-.582-1.831-1.164-2.743-1.616a10.258,10.258,0,0,0-14.84,9.579,10.454,10.454,0,0,0,9.987,9.9,10.067,10.067,0,0,0,10.532-8.818c.112-.812.156-1.633.231-2.445,2.454-3.231,5.822-2.4,9.014-2.283C783,601.307,777.1,612.278,767.2,615.739Z" transform="translate(0)"/>
        <path id="Path_1011" data-name="Path 1011" d="M757.481,627.428a36.034,36.034,0,0,1-3.152-2.938c-2.826-3.322-4.1-7.088-2.889-11.454.082-.3.151-.6.29-1.151-.236-.323-.472-.967-.915-1.177a1.066,1.066,0,0,0-1.424.81,15.406,15.406,0,0,0-.824,3.581c-.343,6.526,2.927,11.13,8.038,14.7a.945.945,0,0,0,.561.23c.38-.056.948-.107,1.072-.348a2.013,2.013,0,0,0,.092-1.394C758.224,627.945,757.781,627.7,757.481,627.428Z" transform="translate(-4.217 -19.715)"/>
      </g>
      <g id="Mask_Group_4" data-name="Mask Group 4" transform="translate(0 7.141)" clip-path="url(#clip-path)">
        <g id="Group_299" data-name="Group 299" transform="translate(205.056 238.956)">
          <g id="Group_298" data-name="Group 298">
            <g id="Group_297" data-name="Group 297" transform="translate(0)">
              <path id="Path_1005" data-name="Path 1005" d="M906.9,620.616c-1.6-4.836-8.013-4.775-10.774-.963l.483-.034a51.245,51.245,0,0,0-8.3-2.123c-3.588-.57-7.712.657-10.919,2.23a19.094,19.094,0,0,0-6.882,5.659c-.213.28-1.3,2.384-1.578,2.412-.664.066.135-2.99.206-3.369q.428-2.293.69-4.614a76.993,76.993,0,0,0,.38-8.394,52.954,52.954,0,0,1,.947-9.193,17.046,17.046,0,0,1,3.479-8.1l-.633-.094c.179,1.571.193,3.166,1.144,4.5a5.719,5.719,0,0,0,3.272,2.168c2.753.715,6.349.124,8.121-2.291,1.955-2.665.75-6.245-1.627-8.208a7.458,7.458,0,0,0-3.441-1.611c-1.794-.3-3.151.528-4.822,1.038l.529.176a10.1,10.1,0,0,1,2.6-2.644c1.715-1.03,3.281-.2,5.049,0a8.514,8.514,0,0,0,5.035-.919c3.989-2.18,4.5-6.889,2.818-10.758-1.641-3.765-5.044-6.664-9.307-5.615a8.513,8.513,0,0,0-6.14,10.04c.278,1.35,1.15,2.283,1.583,3.524.419,1.2-1.572,1.74-2.4,2.384-2.068,1.616-3.4,3.986-4.631,6.255a34.167,34.167,0,0,0-4.437,15.6c-.226,12.289-.947,25.232-6.284,36.511a53.773,53.773,0,0,1-11.417,16.1,30.307,30.307,0,0,1-8.592,5.963c-1.512.666-3.063,1.234-4.578,1.894-.879.382-3.225,1.333-3.333,2.454-.007.068.1.113.15.127,6.693.265,12.291-2.674,16.641-6.4a55.935,55.935,0,0,0,13.085-17.263c1.71-3.324,2.937-6.788,4.509-10.162a46.941,46.941,0,0,1,2.848-4.918c.956-1.537,1.788-3.151,2.771-4.67,2.127-3.286,5.583-5.283,9.242-6.468a17.891,17.891,0,0,1,2.883-.746c.277-.04,1.976-.046,2.1.406,0,.013-.462.415-.562.519a4.739,4.739,0,0,0-1.335,3.954,5.1,5.1,0,0,0,4.437,4.784c2.823.322,4.731-2.048,5.959-4.27l-.624-.058a6.9,6.9,0,0,0,7.922,2.639c3.205-1.063,4.534-4.326,3.722-7.459-.043-.168-.683-.191-.631.011a5.753,5.753,0,0,1-10.383,4.8c-.079-.126-.539-.213-.624-.058-1.6,2.893-5.244,6.254-8.14,2.459a5.285,5.285,0,0,1,1.2-7.448c.107-.083-.007-.157-.1-.188a9.015,9.015,0,0,0-5.745.268,21.276,21.276,0,0,0-6.929,3.429c-2.305,1.781-3.529,4.22-4.986,6.668a56.694,56.694,0,0,0-4.312,7.779c-4.444,11.1-10.547,21.9-20.677,28.752a23.147,23.147,0,0,1-3.772,2.117c-1.663.718-4.5,2.163-6.255,1.393-1.584-.694.4-1.788.959-2.042.834-.379,1.685-.72,2.534-1.063,1.193-.483,2.392-.955,3.552-1.511,5.308-2.541,9.718-7.145,13.2-11.8a57.5,57.5,0,0,0,8.093-15.121c2.108-5.952,2.841-12.269,3.442-18.521.334-3.48.685-6.961.688-10.46a36.492,36.492,0,0,1,1.11-9.923,39.591,39.591,0,0,1,4.095-9.384,20.367,20.367,0,0,1,2.528-3.625,24.927,24.927,0,0,1,4.053-2.977c.031-.022.068-.054.042-.1-1.356-2.227-2.4-4.294-2.047-7a8.131,8.131,0,0,1,3.617-5.947,6.372,6.372,0,0,1,8.212.755,11.98,11.98,0,0,1,3.324,6.825,7.259,7.259,0,0,1-7.639,8.24c-1.687-.121-3.025-1.011-4.742-.56-1.74.456-2.959,1.934-4.006,3.3-.134.175.458.2.529.176,2.058-.629,3.472-1.581,5.87-.458a6.848,6.848,0,0,1,2.738,2.391,5.6,5.6,0,0,1,.47,6.124c-1.665,2.726-5.863,3.574-8.614,2.148-2.411-1.249-2.631-3.562-2.9-5.969-.023-.2-.527-.214-.633-.094-3.29,3.741-3.784,9.318-4.27,14.068-.3,2.957-.119,5.932-.318,8.9a63.557,63.557,0,0,1-1.18,8.625c-.144.695-.824,2.77.472,2.756.511-.005.884-.49,1.128-.855.574-.861,1.066-1.742,1.728-2.55a20.533,20.533,0,0,1,12.1-6.93c4.19-.831,8.591.443,12.58,1.8.107.036.4.085.483-.033a6.337,6.337,0,0,1,5.205-2.654,4.587,4.587,0,0,1,4.32,3.5C906.329,620.8,906.967,620.808,906.9,620.616Z" transform="translate(-833.154 -569.656)" stroke="#000" stroke-linecap="round" stroke-linejoin="round" stroke-width="1.05"/>
              <path id="Path_1006" data-name="Path 1006" d="M927.021,648.551a.736.736,0,0,1-1.12.422c-.271-.163-.486-.409-.771-.562a1.2,1.2,0,0,0-.271-.129c-.7.073-.107.136-.11.134a1.809,1.809,0,0,0,.555.056,4.719,4.719,0,0,0,2.489-.164l-.593-.158c-.064.137-.119.261-.179.4s.574.262.66.061l.148-.332c.1-.221-.493-.207-.594-.158a4.063,4.063,0,0,1-2.1.066c-.135-.015-.97-.163-.9.125.038.165.643.379.737.447a2.771,2.771,0,0,0,1.018.62,1.421,1.421,0,0,0,1.7-.769C927.736,648.486,927.109,648.35,927.021,648.551Z" transform="translate(-865.23 -597.117)" stroke="#000" stroke-linecap="round" stroke-linejoin="round" stroke-width="1.05"/>
            </g>
          </g>
          <path id="Path_1008" data-name="Path 1008" d="M883.418,585.007a10.838,10.838,0,0,1,2.136.8,6.88,6.88,0,0,1,1.342,10.188,8.3,8.3,0,0,1-4.633,2.524,5.205,5.205,0,0,1-6.009-3.887c-.949-3.877,2.068-8.644,5.986-9.452C882.547,585.114,882.862,585.086,883.418,585.007Z" transform="translate(-847.911 -574.838)" fill="none" stroke="#000" stroke-linecap="round" stroke-linejoin="round" stroke-miterlimit="10" stroke-width="1.25"/>
          <path id="Path_1009" data-name="Path 1009" d="M929.449,633.926a5.4,5.4,0,0,1-5.276,5.235c-2.4.032-4.724-2.434-4.783-4.952-.052-2.182,2.361-4.957,5.517-5.122C927.07,628.974,929.423,631.563,929.449,633.926Z" transform="translate(-863.372 -590.733)" fill="none" stroke="#000" stroke-linecap="round" stroke-linejoin="round" stroke-miterlimit="10" stroke-width="1.25"/>
        </g>
      </g>
    </g>
  </g>
</svg>
