<svg id="Layer_1" data-name="Layer 1" xmlns="http://www.w3.org/2000/svg" viewBox="0 0 187.89 75.99"><defs><style>.cls-1{fill:#ffc829;}</style></defs><title>share</title><g id="Group_303" data-name="Group 303"><path id="Path_1013" data-name="Path 1013" class="cls-1" d="M183,16.86C168.39,10.09,143,2.26,135.65,0c-7,1.49-16.82,6.6-23.66,11.41C99,19.94,90.37,28.67,86.64,31.49,78.13,28.23,70,24.38,54,22.8s-28.42-.51-31.36,2.36c-.42,2.5,39.08,30.66,41.07,32.44,15.56-.61,8.92-.54,22.89,0,20.71.82,23.92,4.56,43.18,15.93,2.08,1.23,4.1,1.16,5.83-1a213.05,213.05,0,0,1,39.41-38.88C183.44,30.34,180,27.67,183,16.86Z" transform="translate(0.01)"/><g id="Group_302" data-name="Group 302"><path id="Path_1014" data-name="Path 1014" d="M186,69.74c2.27-2.9,1.85-7.73,1.85-7.73V42.6l-15-3.83c13-5.68,15-5.72,15-5.72h0s0-4.94,0-5.54,0-5.18,0-5.18l-49-16.5L138,6.1c-1.56.54-36.9,13.13-46.33,34.65-40.33-17.23-72.8-12.59-79-11.46a2.71,2.71,0,0,0-.51,5.18l10.9,4.47C14.49,40.3,9.59,44,9.31,44.21l-.19.23-.86.64.15,1.39a51.8,51.8,0,0,1,.33,8.26l-6.41.71a2.65,2.65,0,0,0-.88,5L31.53,75.6c60.1.06,90.2.61,95.24.3.33.2,3.6-.28,4,0,2.93.12,8.34,0,8.34,0s4.84-.16,8.3,0c1-1.23,1.07-1.3,1.56-1.3C152.42,74.6,183.73,72.64,186,69.74Zm1.85-5.34c-5.11,2.86-11.82,4.19-30.9,4.53,14.28-5.22,27.72-6.57,30.9-4.53Zm0-12.6v6c-10.48.12-26.12,1.54-39.41,9.91-.58-.19-1.27-.5-2-.82l-1-.43c13.28-14.15,34.74-14.55,42.37-14.62ZM186,47c-13.41,1.32-32.33,5-42.9,15,4.31-8.41,13.36-15,22.93-20ZM13.82,55.56a2.43,2.43,0,0,0-.33-.38,35,35,0,0,0,0-5.32L60,69.15l.76-.2c.45-.11,42.18-10.39,68.42-.43l-.13.08c-17.64-2.77-46.68,3.5-61.09,7.09-3.15.78-12.94-.22-12.94-.22S21.87,59.16,13.81,55.56Zm125-44.63,49,16.58c-14.81,4.35-44.37,16-50.94,36.89-.81-.57-1.92-1.31-3.34-2.16A232.86,232.86,0,0,0,96.14,42.6C104.06,24.67,133.73,12.85,138.86,10.93ZM92.16,46.18c4,1.59,8,3.29,11.68,5-.73-.14-1.47-.26-2.21-.38a170.93,170.93,0,0,0-27-2.27,101.63,101.63,0,0,0-13.51.78L21.4,33.05C34.52,32,61,32.31,92.16,46.18ZM60.53,54.31l.68-.11c.15,0,15.4-2.5,39.66,1.39a88.23,88.23,0,0,1,19.57,5.52c-24.76-4.89-54.71,1.71-60.08,3l-44-18.26a35,35,0,0,1,18-2.24ZM42.42,75.69,10.14,59.42l.41,0c4.48,1.94,22.2,10.2,35.23,16.31,9.67,0,28.74,0,45.8-.1,10.2-1.8,21.64-3.2,30.91-2.78-3.67.56-9,1.44-17.12,2.89ZM143.51,73c-1.11,1.34-4.39,1.63-4.39,1.63s-4.06.15-5.8-1.06c-.54-.38-1-.7-1.51-1l1.09-.68a20.34,20.34,0,0,1,2.4-1.4,2,2,0,0,0,.3-.14,8.36,8.36,0,0,1,3.12-.71,7.46,7.46,0,0,1,2.05.23l.24.06a22.88,22.88,0,0,1,3.51,1.34l.4.17A13.69,13.69,0,0,0,143.51,73ZM111,40.21a2.41,2.41,0,0,0,1.82-.84c5.45-6.35,14.69-12.56,25.34-17a2.41,2.41,0,0,0-1.87-4.44c-6.65,2.8-19,8.9-27.12,18.34a2.42,2.42,0,0,0,1.83,4Zm8.69,1.71a2.4,2.4,0,0,0,3.64,3.14c6.17-7.18,18.85-15.65,28.87-19.28a2.41,2.41,0,0,0-1.63-4.53c-10.87,3.94-24.15,12.83-30.88,20.67Zm10.83,5.9a2.41,2.41,0,1,0,3.6,3.2l0-.06a73.59,73.59,0,0,1,31.37-20.43,2.41,2.41,0,0,0-1.45-4.59,77.41,77.41,0,0,0-33.56,21.88Z" transform="translate(0.01)"/><g id="Group_301" data-name="Group 301"><path id="Path_1018" data-name="Path 1018" d="M185.92,46.84a112.92,112.92,0,0,0-26.09,5.39A55.92,55.92,0,0,0,148,57.87c-.79.52-3.9,2.84-3.91,2.82-.41-.73,4.1-5.51,4.55-6,4.32-4.6,9.55-8,15-11.16,2.79-1.64,3.71-1.06,6.78-.3l15.48,3.83c.18,0,.69-.1.32-.2l-8.85-2.19c-3.17-.78-7.67-2.87-10.94-2.7-2.76.14-6.26,3.09-8.49,4.57-6.14,4.05-11.54,9-15.13,15.43-.1.18.48.18.58.09,11.44-10.35,27.87-13.44,42.74-15C186.48,47,186.18,46.81,185.92,46.84Z" transform="translate(0.01)"/><path id="Path_1020" data-name="Path 1020" d="M138.63,11l28,9.32,17.4,5.8c.9.3,2.75.7,3.42,1.43.26.29-3.54,1.58-4.91,2.05C167.58,34.69,151,42,141.4,55.05c-1.06,1.43-3.62,8.27-5.21,8.68s-9.3-5.8-10.93-6.76q-5.81-3.42-11.8-6.5c-3.17-1.63-16.7-6.14-16.27-9.64.48-3.86,6.82-9,9.52-11.39a83.82,83.82,0,0,1,12.61-9A127.09,127.09,0,0,1,139,11c.29-.11-.27-.24-.42-.19-16,6-35.22,15.6-42.86,31.73,0,.06,0,.1.08.12a225.51,225.51,0,0,1,40.78,21.77c.11.08.5.14.56,0C144.3,43.46,167.57,33.35,187,27.58c.17,0-48.05-16.75-48.05-16.75C138.77,10.77,138.27,10.9,138.63,11Z" transform="translate(0.01)"/><path id="Path_1021" data-name="Path 1021" d="M92.07,46.26c2.52,1,5.63,1.83,7.91,3.3,4.09,2.64-.65.76-2.73.48q-7.12-1-14.3-1.37c-3.53-.19-7.06-.27-10.6-.21-3.34.06-7.34,1.07-10.63.68-2.53-.3-5.41-2-7.82-3L37.68,39.55,24,33.94A15.07,15.07,0,0,1,21.68,33s9.38-.2,9.67-.2c21,.05,41.56,5.12,60.72,13.47.14.06.71,0,.43-.16-22.31-9.72-46.75-15-71.15-13.17-.1,0-.35.1-.14.2L54.34,46.7c2.53,1,5,2.55,7.74,2.66,6,.25,12.15-.79,18.22-.56a177.92,177.92,0,0,1,23.59,2.53c.1,0,.58-.06.3-.19q-5.77-2.67-11.69-5C92.36,46.05,91.78,46.15,92.07,46.26Z" transform="translate(0.01)"/><path id="Path_1022" data-name="Path 1022" d="M60.76,54.42c16.88-2.82,36.57-.82,52.71,4.26,1,.31,8.21,2,3.37,1.65-2.32-.15-4.63-.59-7-.77a133.32,133.32,0,0,0-15.74-.22,187.94,187.94,0,0,0-26.56,3.12c-3.8.71-6.14,1.88-9.6.44L41.93,56.25,24.34,49c-1.92-.8-4-1.46-5.83-2.42-2.58-1.35-1.3-1,1.71-1.85,10.09-2.84,16.13-.15,24.93,3.45L60.4,54.39c.14.06.71,0,.43-.15L39.18,45.36c-7.56-3.1-15.3-2.69-23,.37-.1,0-.12.13,0,.17l41.09,17c4.5,1.87,7.51.29,12.45-.59,16.69-3,34.06-4.22,50.81-1.13.1,0,.58-.08.3-.19C102.63,53.77,80,50.94,60.47,54.2,60.09,54.27,60.58,54.45,60.76,54.42Z" transform="translate(0.01)"/><path id="Path_1025" data-name="Path 1025" d="M111.13,40.32c2.84-.61,4.65-3.78,6.76-5.6a70.58,70.58,0,0,1,13.79-9.15c1.77-.91,9.58-2.69,8.09-6.39a2.73,2.73,0,0,0-2.24-1.58c-1.76-.27-3.94,1.28-5.45,2a88.11,88.11,0,0,0-12,6.84c-2.88,2-16.83,11-9.28,13.85.14.06.72-.05.43-.15l-1.75-3.86,1.25-1.39c.87-1.37,2.83-2.79,4-3.84a69.42,69.42,0,0,1,7.3-5.47c2.13-1.37,4.32-2.65,6.55-3.83,1.3-.69,5.68-3.69,6.88-3.32l.51,4.67-2,.9c-.2.18-1.7.83-1.95,1a81.84,81.84,0,0,0-8,4.59,63.34,63.34,0,0,0-6.8,5.05c-1.63,1.4-4.45,5.08-6.48,5.51C110.46,40.18,111,40.36,111.13,40.32Z" transform="translate(0.01)"/><path id="Path_1026" data-name="Path 1026" d="M119.38,41.87c-2.29,4.79,2.94,4.32,5.2,2.14a87,87,0,0,1,14.36-11.37c2.36-1.47,4.78-2.85,7.27-4.08,1.81-.9,6-1.62,7.3-3.43a2.54,2.54,0,0,0-.43-3.57,2.46,2.46,0,0,0-1-.49c-1.82-.57-4.36,1.13-5.85,1.79a80,80,0,0,0-26.82,19c-.1.11.45.23.57.09A74.68,74.68,0,0,1,135.5,29.1a88.21,88.21,0,0,1,7.73-4.43c.86-.43,4.93-3.24,5.91-2.7l1.35,4.3c-.8.32-1.58.65-2.35,1a84,84,0,0,0-13.63,7.8,77.84,77.84,0,0,0-7,5.5c-.42.37-.86.76-1.26,1.14-.58.54-1.14,1.09-1.68,1.67Q122.78,45.71,120,42C120,41.8,119.45,41.72,119.38,41.87Z" transform="translate(0.01)"/><path id="Path_1027" data-name="Path 1027" d="M130.16,47.78c-.87,1.82-.46,4,2,4.13,1.8.09,2.81-1.64,3.9-2.78a75.29,75.29,0,0,1,24-16.44c1.7-.71,5.56-1.2,6.72-2.79a2.57,2.57,0,0,0-.35-3.61,2.64,2.64,0,0,0-1.05-.51c-2.91-.83-7.61,2.24-10,3.37a76.78,76.78,0,0,0-25.24,18.63c-.1.11.46.22.58.09a74.16,74.16,0,0,1,14.31-12.45A80.2,80.2,0,0,1,155,29.76c1.45-.69,3.79-2.31,5.46-2.38q2.73-2.09,2.44,1.5c1.23,1.84.78,2.81-1.33,2.88-1.68,1.42-5.16,2.22-7.16,3.27A79.05,79.05,0,0,0,145,40.87q-2.7,2-5.24,4.17c-1.12,1-2.22,2-3.27,3l-1,1q-1.83,2.88-4.77-1.18C130.82,47.7,130.23,47.63,130.16,47.78Z" transform="translate(0.01)"/></g></g></g></svg>