<svg xmlns="http://www.w3.org/2000/svg" xmlns:xlink="http://www.w3.org/1999/xlink" width="117" height="110" viewBox="0 0 117 110">
  <defs>
    <clipPath id="clip-path">
      <rect id="Rectangle_362" data-name="Rectangle 362" width="117" height="110" fill="#fff" stroke="#707070" stroke-width="1"/>
    </clipPath>
  </defs>
  <g id="Mask_Group_3" data-name="Mask Group 3" clip-path="url(#clip-path)">
    <g id="Group_292" data-name="Group 292" transform="translate(14 7.254)">
      <g id="Group_268" data-name="Group 268" transform="translate(-2.772 -0.309)">
        <path id="Path_796" data-name="Path 796" d="M207.539,326.589a11.985,11.985,0,0,0,5.634-1.517,7.365,7.365,0,0,0,3.363-7.332,22.918,22.918,0,0,0-1.59-4.633c-.247-.6-.532-1.1-.231-1.769a.744.744,0,0,0-.215-.683c-1-.7-1.728-1.745-2.973-2.181a5.417,5.417,0,0,1-1.643-1.39,12.413,12.413,0,0,0-5.4-2.992,22.387,22.387,0,0,0-6.988-.682,21.691,21.691,0,0,0-10.81,3.281,12.253,12.253,0,0,0-5.854,8.732.964.964,0,0,0,.357.822c.9.419.793,1.16.662,1.87-.183.992-.475,1.963-.7,2.948a3.87,3.87,0,0,0,2.495,4.891c2.237.8,4.571,1.3,6.9.3a2.818,2.818,0,0,1,2.72.228,8.385,8.385,0,0,0,5.149,1.105,13.511,13.511,0,0,0,3.559-1.162,4.15,4.15,0,0,1,2.661-.3C205.68,326.338,206.736,326.464,207.539,326.589Z" transform="translate(-158.443 -200.238)" fill="#fff"/>
        <path id="Path_797" data-name="Path 797" d="M156.49,126.288l-.288-.084.208.164c.436.573.84,1.173,1.316,1.711a1.618,1.618,0,0,1,.315,1.877c-.318.66-.994.462-1.563.427a3.483,3.483,0,0,0-3.613,1.909,16.337,16.337,0,0,0-1.087,2.8,4.2,4.2,0,0,1-2.115,2.8c-.69.349-1.342.77-2.039,1.1a2.171,2.171,0,0,0-1.118,1.427,7.6,7.6,0,0,0,.127,3.565c.168,1.274.055,1.763-.974,2.444a17.394,17.394,0,0,0-1.6.984,8.049,8.049,0,0,0-1.573,1.663c-.33.5-.013.917.622.841a2.24,2.24,0,0,1,2.412,1.439,2.138,2.138,0,0,1-.106,2.174,13.1,13.1,0,0,0-1.129,6.207,18.029,18.029,0,0,0,1.7,6.687,11.894,11.894,0,0,1,.97,2.863c.2,1.347.643,2.727-.053,4.1-.578,1.138-.555,1.207.551,1.944a2.369,2.369,0,0,1,1.135,2.164,74.633,74.633,0,0,1-.993,10.8,6.391,6.391,0,0,0,1.012,4.643,17.557,17.557,0,0,0,1.786,2.087,3.187,3.187,0,0,1,1.113,2.124,4.1,4.1,0,0,0,.285,1.112,2.389,2.389,0,0,0,2.309,1.847,4.455,4.455,0,0,1,3.169,1.182,3.1,3.1,0,0,0,.883.489,20.258,20.258,0,0,0,5.419,1.459,5.79,5.79,0,0,0,3.519-.546,4.406,4.406,0,0,0,2.466-3.385c.155-.854.517-1.33,1.427-1.261l.246.34a6.475,6.475,0,0,1-4.206,6c-.84.238-1.013.707-1.034,1.452-.043,1.578.093,3.2-.895,4.6-.042.06.094.361.165.368,1.1.114,2.208.265,3.315.28,6.5.083,12.994.185,19.484-.256.822-.056,1.656.034,2.473-.05,2.252-.232,4.495-.56,6.748-.779a46.577,46.577,0,0,0,8.623-1.723,72.06,72.06,0,0,0,15.847-6.637,32.3,32.3,0,0,0,6.676-4.846c.47-.463.7-.859.326-1.5-.533-.917-.973-1.887-1.507-2.8a.859.859,0,0,0-.694-.331c-2.322.294-4.505-.441-6.708-.923a5.012,5.012,0,0,1-3.364-2.341c-.268-.452-.4-.913.124-1.276a.865.865,0,0,1,1.294.486,2.64,2.64,0,0,0,2.126,1.533c1.317.288,2.637.561,3.951.858a5.07,5.07,0,0,0,5.627-2.027,41.646,41.646,0,0,1,3.14-4.249,17.922,17.922,0,0,0,1.924-3.058,5.762,5.762,0,0,0,.69-3.354,32.928,32.928,0,0,0-.526-3.715,14.35,14.35,0,0,0-5.266-9.08,11.742,11.742,0,0,1-4.006-6.683c-.205-.759.326-1.272,1.116-1.193.268.026.541.005.811.006a3.51,3.51,0,0,0-.15-.925,8.57,8.57,0,0,0-.694-1.1,7.42,7.42,0,0,1-1.187-5.5c.339-2.018.19-4.028-1.35-5.572-1.391-1.394-1.589-3.159-1.755-4.917-.247-2.627-.633-5.179-2.317-7.335a1.089,1.089,0,0,1-.207-1.324.748.748,0,0,0-.135-.711,38.4,38.4,0,0,0-4.581-3.029,3.461,3.461,0,0,1-1.991-1.9,2.939,2.939,0,0,0-2.173-1.915,61.8,61.8,0,0,1-9.7-3.329,4.613,4.613,0,0,0-4.164.029,4.467,4.467,0,0,1-2.942.315c-1.379-.288-2.735-1.27-1.92-3.277.054-.135.1-.271.166-.4.221-.48-.1-.506-.4-.409a8.159,8.159,0,0,0-3.434,1.776c-.857.842-1.245.738-1.51-.4a2.1,2.1,0,0,0-1.289-1.449c-.247-.123-.433-.192-.481.193-.41,3.227-2.807,4.7-5.992,3.656a9.075,9.075,0,0,0-6.357.529A12.873,12.873,0,0,0,170,121.688a3.452,3.452,0,0,1-2.658.848,6.063,6.063,0,0,0-3.519.631,1.989,1.989,0,0,0-1.24,1.5,5.289,5.289,0,0,1-1.767,2.926c-.677.659-.931.676-1.535-.075A3.025,3.025,0,0,0,156.49,126.288Z" transform="translate(-140.518 -112.803)" fill="#fff"/>
        <g id="Layer_2" data-name="Layer 2" transform="translate(7.68 2.205)">
          <path id="Path_798" data-name="Path 798" d="M242.6,231.2a58.223,58.223,0,0,0,.352-13.057c-.354-3.11-.5-6.252-1.137-9.324-.667-3.236-2.114-7.6-4.667-9.844-.295-.259-.614-.493-.884-.778-1.331-1.4-2.333-4.376-1.316-6.148,1.058-1.843,2.962-3.011,4.422-4.5,2.524-2.571,4.54-5.574,5.02-9.213.534-4.055.364-9.269-1.739-12.889a27.044,27.044,0,0,0-4.148-4.86,12.816,12.816,0,0,1-3.9-8.565c-.692-8.889-3.839-18.675-9.726-25.554a20.207,20.207,0,0,0-6.071-4.885c-2.823-1.45-5.864-1.879-8.936-2.518-2.627-.546-5.243-1.165-7.807-1.961-2.323-.72-4.418-2.356-6.882-2.587a33.369,33.369,0,0,0-12.875,1.717,15.887,15.887,0,0,0-8.784,6.7c-3.729,2.3-6.28,6.462-10.552,8.274-3.316,1.406-4.379,4.54-5.092,7.813a18.9,18.9,0,0,0-1.438,1.943,5.947,5.947,0,0,0-2.537,2.592c-1.049,2.188-.557,5.093.169,7.84.037,1.193.131,2.4.252,3.59-1.637,5.782-.729,11.859,1.025,17.551.457,1.483.925,2.993,1.426,4.5a55.619,55.619,0,0,1-.6,9.732c-.6,4.041-.112,8.237,3.619,10.639a13.813,13.813,0,0,0,4.313,1.529q.625.292,1.292.544c.82.307,1.856.55,2.786.933a5.433,5.433,0,0,1,.624.466,3.409,3.409,0,0,0,1.058.639c.033.037.073.067.1.106,1.239,1.568.431,4.165-.076,5.846-1.275,4.236.717,7.861,5.43,7.82,1.971-.018,3.882-.522,5.872-.469a18.846,18.846,0,0,1,1.972.163,18.651,18.651,0,0,0-5.788,3.281c-3.05,2.547-5.829,7.178-5.868,11.477-.056.161-.111.321-.16.488-.842,2.84-.357,6.35,2.234,8.131a4.087,4.087,0,0,0,4.847-.067,53.529,53.529,0,0,0,5.8,1.454,55.614,55.614,0,0,0,11.734,1.524,11.921,11.921,0,0,0,2.72-.3,8.89,8.89,0,0,0,3.5-.568c3.386-1.482,4.488-5.127,4.305-8.693.054-.249-.037-.266,0-.517m-26.367-76.131a1.239,1.239,0,0,1-.341.491.527.527,0,0,1-.591.1.437.437,0,0,1-.258-.14l-.009-.011a.673.673,0,0,1-.1-.15c-.01-.015-.022-.027-.031-.043a.662.662,0,0,1,.085-.751.589.589,0,0,1,.578-.151l.007,0C179.825,154.3,180.273,154.685,180.121,155.069Zm24.262-6.831a.674.674,0,0,1,.611-.327.64.64,0,0,1,.617.463.564.564,0,0,1-.1.489.529.529,0,0,1-.133.271.523.523,0,0,1-.616.085.491.491,0,0,1-.376-.244.543.543,0,0,1-.059-.293A.579.579,0,0,1,204.383,148.238Z" transform="translate(-153.297 -114.426)" fill="#a37f71"/>
        </g>
        <path id="Path_799" data-name="Path 799" d="M305.726,290.512c0,.253.011.508,0,.76a5.327,5.327,0,0,1-.084.544,1.324,1.324,0,0,1-.445-.237c-1.314-1.465-2.587-3.016-3.933-4.408-2.038-2.107-4.116-4.13-6.2-6.135-.426-.41-.262-.475.036-.73a42.247,42.247,0,0,0,7.253-7.49c.327-.457.454-.261.6.3a99.211,99.211,0,0,1,2.237,11.982c.237,1.787.4,3.6.593,5.395Z" transform="translate(-211.53 -185.88)" fill="#da291c"/>
        <path id="Path_800" data-name="Path 800" d="M235.35,213.938a57.542,57.542,0,0,0-3.083-14.474c-.624-1.823-1.731-3.456-2.07-5.392a1.492,1.492,0,0,0-.54-1c-1.181-.585-1.36-1.838-1.979-2.784-.695-1.061-.616-1.218.31-2.047a8.1,8.1,0,0,0,2.428-3.215,3.252,3.252,0,0,1,.889-1.112,18.149,18.149,0,0,0,3.643-5.556,3.353,3.353,0,0,0,.283-1.27c.242-4.956-.794-9.55-4.009-13.464a22.525,22.525,0,0,0-2.791-2.752,7.971,7.971,0,0,1-2.358-3.6c-.2-.582-.029-.613.522-.561a.978.978,0,0,0,1.215-1.049,5.094,5.094,0,0,0-1.3-3.735,4.189,4.189,0,0,1-1.134-2.866,10.174,10.174,0,0,1,.13-2.463,6.788,6.788,0,0,0-1.641-5.817,6.728,6.728,0,0,1-1.472-3.849c-.037-.288-.059-.579-.092-.868-.258-2.216-.468-4.444-1.748-6.382-.1-.148-.205-.417-.138-.526.7-1.146-.117-1.87-.782-2.512a20.128,20.128,0,0,0-5.434-3.857,2.424,2.424,0,0,1-1.307-1.244,4.885,4.885,0,0,0-3.493-2.8,59.921,59.921,0,0,1-9.466-3.254,5.63,5.63,0,0,0-4.774.061,11.4,11.4,0,0,1-1.632.607,1.24,1.24,0,0,1-1.427-.454,1.155,1.155,0,0,1,.107-1.481,7.553,7.553,0,0,1,1.063-.97c.7-.61.674-1.212-.182-1.537a3.1,3.1,0,0,0-1.821-.213,31.776,31.776,0,0,0-3.907,1.513.86.86,0,0,1-1.072-.087,49.725,49.725,0,0,0-4.333-2.614c-.184-.1-.654.11-.859.311a.867.867,0,0,0-.046.77,9.9,9.9,0,0,0,.646.957,2.247,2.247,0,0,1,0,2.348,1.958,1.958,0,0,1-2.04,1.1c-.719-.072-1.422-.3-2.14-.389a11.448,11.448,0,0,0-3.01-.257,14.845,14.845,0,0,0-7.1,2.777,1.95,1.95,0,0,1-1.591.467,6.84,6.84,0,0,0-4.221.79,3.57,3.57,0,0,0-2.153,2.571,4.91,4.91,0,0,1-.486,1.207c-.171.363-.411.5-.793.209-1.962-1.505-4.2-1.2-6.428-.958a1.2,1.2,0,0,0-1.169.936c-.087.566.445.788.873,1.03.758.427,1.511.863,2.247,1.325a3.742,3.742,0,0,1,.593.585,2.781,2.781,0,0,1-.739.338,5.093,5.093,0,0,0-3.088,1.774,6.919,6.919,0,0,0-1.74,3.617,2.934,2.934,0,0,1-1.841,2.425,16.312,16.312,0,0,0-1.547.8,3.878,3.878,0,0,0-2.124,3.416,11.714,11.714,0,0,0,.089,2.176c.235,1.719.282,1.755-1.275,2.659a5.435,5.435,0,0,0-3.082,5.333c.038.616-.145,1.358.608,1.64.71.266.993-.409,1.378-.822.348-.374.778-.655,1.272-.334.512.332.348.793.161,1.288a19.266,19.266,0,0,0-.919,2.894,17.685,17.685,0,0,0,1.443,11.065A12.516,12.516,0,0,1,144.037,169c.027.579.114,1.144-.778,1.253a.684.684,0,0,0-.476,1.119,13.578,13.578,0,0,0,1.9,2.537,1.643,1.643,0,0,1,.614,1.61c-.347,2.544-.55,5.112-1.017,7.633a13.2,13.2,0,0,0,.509,6.726,5.959,5.959,0,0,0,2.263,3.283,2.374,2.374,0,0,1,1.078,1.8,8.234,8.234,0,0,0,.244,1.285,4.13,4.13,0,0,0,4.4,3.245,2.824,2.824,0,0,1,1.471.421c1.862.917,3.7,1.928,5.848,2.044.916.049,1.827.2,2.741.311-.026.935-.08,1.871-.07,2.807a2.44,2.44,0,0,1-1.252,2.432c-.464.254-.739.729-.279,1.2.4.409.225.762.116,1.19-.252.994-.608,2.153.025,2.968.841,1.084.722,2.242.859,3.418a9.544,9.544,0,0,0,.426,1.836,1.051,1.051,0,0,1-.255,1.177c-2.246,2.443-2.768,5.475-2.861,8.633a1.324,1.324,0,0,0,.371,1.013c.494.311.488.614.342,1.083a7.353,7.353,0,0,0-.283,1.423,5.5,5.5,0,0,0,3.766,6.16,13.807,13.807,0,0,0,6.171.693,10.16,10.16,0,0,1,5.063.425,8.567,8.567,0,0,0,5.139.3,23.37,23.37,0,0,0,2.6-.928,4.01,4.01,0,0,1,2.681-.222,12.682,12.682,0,0,0,5.05.128c6.528-1.18,9.685-7.058,7.6-12.523-.224-.588-.4-1.193-.62-1.783-.209-.569-.646-1.152.337-1.489.117-.04.194-.671.059-.882a8.439,8.439,0,0,0-1.223-1.428c-.4-.4-.87-.727-1.308-1.086a5.137,5.137,0,0,1-.2-.777c-.057-.572-.308-.843-.856-.541-.731.4-1.192-.1-1.685-.454-1.335-.955-2.654-1.931-3.972-2.909a2.231,2.231,0,0,1-.348-.424,4.849,4.849,0,0,1,.509-.126c3.48-.487,6.976-.884,10.438-1.474a75.61,75.61,0,0,0,16.3-4.859,5.94,5.94,0,0,0,1.068-.436c1.349-.913,2.5-.441,3.733.329a103.609,103.609,0,0,1,12.589,9.019,5.522,5.522,0,0,0,1.555.647C235.474,216.1,235.426,214.971,235.35,213.938Zm-44.986,3.208a5.417,5.417,0,0,0,1.643,1.391c1.245.436,1.969,1.481,2.973,2.181a.745.745,0,0,1,.215.683c-.3.666-.017,1.164.231,1.769a22.92,22.92,0,0,1,1.59,4.633,7.365,7.365,0,0,1-3.363,7.332,11.985,11.985,0,0,1-5.634,1.517c-.8-.126-1.859-.251-2.9-.465a4.151,4.151,0,0,0-2.661.3,13.511,13.511,0,0,1-3.559,1.162,8.385,8.385,0,0,1-5.149-1.105,2.818,2.818,0,0,0-2.72-.228c-2.332,1-4.666.5-6.9-.3a3.87,3.87,0,0,1-2.495-4.891c.223-.985.516-1.956.7-2.948.131-.71.235-1.451-.662-1.87a.964.964,0,0,1-.357-.822,12.253,12.253,0,0,1,5.854-8.733,21.691,21.691,0,0,1,10.81-3.281,22.389,22.389,0,0,1,6.988.682A12.413,12.413,0,0,1,190.364,217.146Zm-25.86-2.718c1,0,2,0,3,0a1.428,1.428,0,0,1,.279.056,1.3,1.3,0,0,1-.207.283c-1.012.805-2.03,1.6-3.044,2.4-.284.224-.54.26-.617-.16a17.933,17.933,0,0,1-.277-1.983C163.592,214.375,163.864,214.158,164.5,214.428Zm55.646-15.286a72.06,72.06,0,0,1-15.847,6.637,46.58,46.58,0,0,1-8.623,1.723c-2.253.218-4.5.546-6.748.778-.817.084-1.652-.005-2.473.05-6.491.441-12.988.339-19.484.256-1.107-.014-2.212-.166-3.315-.28-.072-.007-.207-.308-.165-.368.988-1.4.852-3.023.895-4.6.021-.745.194-1.214,1.034-1.452a6.475,6.475,0,0,0,4.206-6l-.246-.34c-.91-.069-1.272.407-1.427,1.261a4.406,4.406,0,0,1-2.466,3.385,5.79,5.79,0,0,1-3.519.546,20.259,20.259,0,0,1-5.419-1.459,3.116,3.116,0,0,1-.883-.489A4.455,4.455,0,0,0,152.5,197.6a2.39,2.39,0,0,1-2.309-1.847,4.1,4.1,0,0,1-.285-1.112,3.184,3.184,0,0,0-1.113-2.123,17.609,17.609,0,0,1-1.786-2.087A6.391,6.391,0,0,1,146,185.79a74.629,74.629,0,0,0,.993-10.8,2.369,2.369,0,0,0-1.135-2.164c-1.106-.737-1.129-.806-.552-1.945.7-1.371.252-2.751.053-4.1a11.9,11.9,0,0,0-.97-2.863,18.029,18.029,0,0,1-1.7-6.687,13.1,13.1,0,0,1,1.129-6.207,2.138,2.138,0,0,0,.106-2.174,2.24,2.24,0,0,0-2.412-1.439c-.636.076-.951-.343-.622-.841a8.051,8.051,0,0,1,1.573-1.663,17.4,17.4,0,0,1,1.6-.984c1.029-.681,1.142-1.17.974-2.444a7.6,7.6,0,0,1-.127-3.565,2.171,2.171,0,0,1,1.118-1.427c.7-.332,1.349-.754,2.039-1.1a4.2,4.2,0,0,0,2.115-2.8,16.337,16.337,0,0,1,1.087-2.8,3.484,3.484,0,0,1,3.613-1.91c.569.035,1.245.233,1.563-.426a1.618,1.618,0,0,0-.315-1.877c-.475-.538-.88-1.138-1.316-1.711l-.208-.164.288.084a3.025,3.025,0,0,1,2.786,1.225c.6.751.858.734,1.535.075a5.289,5.289,0,0,0,1.767-2.926,1.989,1.989,0,0,1,1.24-1.5,6.063,6.063,0,0,1,3.519-.631,3.453,3.453,0,0,0,2.658-.848,12.873,12.873,0,0,1,2.927-1.537,9.075,9.075,0,0,1,6.357-.529c3.185,1.041,5.582-.429,5.992-3.656.049-.385.234-.316.481-.193a2.1,2.1,0,0,1,1.289,1.449c.264,1.142.653,1.246,1.51.4a8.159,8.159,0,0,1,3.434-1.776c.3-.1.618-.071.4.409-.061.131-.111.268-.166.4-.814,2.007.542,2.989,1.92,3.277a4.467,4.467,0,0,0,2.942-.315,4.613,4.613,0,0,1,4.164-.029,61.8,61.8,0,0,0,9.7,3.329,2.939,2.939,0,0,1,2.173,1.915,3.46,3.46,0,0,0,1.991,1.9,38.4,38.4,0,0,1,4.581,3.029.748.748,0,0,1,.135.711,1.089,1.089,0,0,0,.207,1.324c1.684,2.156,2.071,4.707,2.317,7.335.166,1.758.364,3.523,1.755,4.917,1.54,1.543,1.689,3.554,1.35,5.572a7.418,7.418,0,0,0,1.187,5.5,8.51,8.51,0,0,1,.694,1.1,3.506,3.506,0,0,1,.15.925c-.27,0-.543.02-.811-.006-.79-.079-1.321.434-1.116,1.193a11.742,11.742,0,0,0,4.006,6.683,14.35,14.35,0,0,1,5.266,9.08,32.921,32.921,0,0,1,.526,3.715,5.758,5.758,0,0,1-.69,3.354,17.952,17.952,0,0,1-1.923,3.058,41.564,41.564,0,0,0-3.14,4.249A5.07,5.07,0,0,1,222.375,188c-1.315-.3-2.635-.57-3.952-.858a2.639,2.639,0,0,1-2.126-1.533A.865.865,0,0,0,215,185.12c-.523.363-.392.824-.124,1.276a5.012,5.012,0,0,0,3.364,2.341c2.2.482,4.386,1.217,6.708.923a.859.859,0,0,1,.694.331c.534.916.974,1.886,1.507,2.8.373.643.143,1.039-.326,1.5A32.3,32.3,0,0,1,220.15,199.142ZM233.233,213.1a2.852,2.852,0,0,1-.1.416,1.838,1.838,0,0,1-.513-.182c-1.515-1.121-2.983-2.309-4.536-3.376-2.35-1.614-4.746-3.164-7.148-4.7-.491-.314-.3-.363.041-.559a44.01,44.01,0,0,0,8.364-5.736c.378-.35.523-.2.692.232a53.811,53.811,0,0,1,2.58,9.177c.272,1.368.458,2.754.683,4.132l-.061.012C233.238,212.716,233.25,212.911,233.233,213.1Z" transform="translate(-138.921 -110.298)" stroke="#000" stroke-miterlimit="10" stroke-width="1.5"/>
        <path id="Path_801" data-name="Path 801" d="M188.389,233.013l-.324-.26c-.729-.771-1.432-1.569-2.2-2.306a5.671,5.671,0,0,1-1.64-2.684,4.218,4.218,0,0,0-1.19-1.916,12.6,12.6,0,0,1-3.476-7.467,11.237,11.237,0,0,1,.47-4.967,1.374,1.374,0,0,0-.294-1.573,3.091,3.091,0,0,1-.768-2.254c-.274-3.619,1.434-6.42,3.62-9.038.257-.308.553-.56.995-.259s.308.667.089,1c-.474.729-.982,1.434-1.461,2.16a10.942,10.942,0,0,0-1.767,6.031,1.819,1.819,0,0,0,.8,1.75c.868.52.805,1.2.492,1.989a10.117,10.117,0,0,0-.7,4.543,10.224,10.224,0,0,0,2.483,6.366,9.585,9.585,0,0,1,2.306,3.882.426.426,0,0,0,.068.129c1.467,1.949,3.064,3.763,5.452,4.6.9.316,1.89.4,2.8.7a16.233,16.233,0,0,1,2.211,1.048c.413.213.729.417,1.029-.2.282-.576.762-.426,1.234-.146.452.268.947.464,1.41.714.656.353,1.124.413,1.44-.475.223-.628.99-.735,1.217-.191.666,1.6,2.174,1.516,3.412,1.745a17.423,17.423,0,0,0,11.778-1.871,11.321,11.321,0,0,0,4.134-3.554c.7-1.038,1.5-2.014,2.215-3.043a9.2,9.2,0,0,0,1.136-3.407c.224-.99.625-1.141,1.558-.686a4.131,4.131,0,0,1,1.666,1.946c.3.529.54.452.8-.005a9.1,9.1,0,0,0,1.2-5.86c-.025-.188-.214-.41-.156-.541a2.328,2.328,0,0,1,.615-.888c.1-.081.472.171.717.277.041.018.065.071.1.1,1.087,1.075,1.074,1.07,1.695-.418a36.891,36.891,0,0,0,1.685-4c.689-2.431.267-4.868-.246-7.306a16.438,16.438,0,0,0-4.585-8.076,1.906,1.906,0,0,0-.673-.538,2.345,2.345,0,0,1-1.675-2.2,5.177,5.177,0,0,0-2.962-4.2c-.432-.2-.8-.48-.541-1,.289-.59.753-.446,1.232-.195a7.713,7.713,0,0,1,3.925,5.127,1.851,1.851,0,0,0,.487.954,17.058,17.058,0,0,1,6.529,10.762,25.044,25.044,0,0,1,.225,6.077,8.522,8.522,0,0,1-.742,2.476c-.723,1.836-1.8,3.528-2.171,5.508a.737.737,0,0,1-1.143.509c-.676-.365-.761.051-.819.5a8.461,8.461,0,0,1-1.725,4.091,6.641,6.641,0,0,1-1.23,1.2c-.649.5-.983.435-1.357-.274-.268-.508-.407-1.083-.649-1.606-.091-.2-.311-.338-.472-.5a4.383,4.383,0,0,1-.161.522,20.992,20.992,0,0,1-1.381,3,19.28,19.28,0,0,1-5.414,5.964,17.333,17.333,0,0,1-6.527,2.62,21.832,21.832,0,0,1-7.357.071,8.947,8.947,0,0,0-1.969-.021,6.953,6.953,0,0,1-3.913-.849c-.438-.245-.8-.091-.774.447.03.6-.414.746-.8.878-.518.178-.738-.24-1-.616a5.561,5.561,0,0,0-3.027-2.074C192.313,234.6,190.188,234.231,188.389,233.013Z" transform="translate(-157.563 -147.548)" stroke="#000" stroke-width="1"/>
        <path id="Path_802" data-name="Path 802" d="M230.868,222.9a2.442,2.442,0,0,1-1.356,2.622,3.66,3.66,0,0,1-3.32-.881c-.209-.263-.365-.568-.559-.845a1.758,1.758,0,0,0-3.143.123,2.1,2.1,0,0,1-3.556-.148,5.718,5.718,0,0,1,1.387-6.84,14.124,14.124,0,0,1,4.669-2.572,10.341,10.341,0,0,1,5.834-.36,5.6,5.6,0,0,1,4.294,5.033,3.782,3.782,0,0,1-.189,1.268,1.136,1.136,0,0,1-1.7.744c-.175-.077-.317-.236-.5-.3a1.321,1.321,0,0,0-1.9,1.285A8.344,8.344,0,0,0,230.868,222.9Zm-5.053-3.79c1.512-.122,2.677-.352,3.551-1.331.969-1.085.822-1.951-.532-2.419a5.057,5.057,0,0,0-4.891.948,1.274,1.274,0,0,0,.238,2.248A10.551,10.551,0,0,0,225.815,219.108Z" transform="translate(-175.912 -158.472)"/>
        <path id="Path_803" data-name="Path 803" d="M201.667,189.014c-2.057-2.047-4.255-3.461-7.453-2.9-2.547.443-5.088,3.745-5.35,5.71-.064.476-.284,1.182.449,1.344s.777-.543.964-1.018c.282-.714.566-1.426.857-2.136a.963.963,0,0,1,.177-.218,1.73,1.73,0,0,1,.2.3,12.048,12.048,0,0,0,.486,1.2,3.658,3.658,0,0,0,3.537,1.8c1.535-.339,2.708-.935,3.063-2.675a7.149,7.149,0,0,0-.21-2.114l-.128-.3.306.124a2.277,2.277,0,0,1,1.673,1.26c.159.238.212.578.415.75.222.188.632.39.834.3a1.192,1.192,0,0,0,.46-.8A.864.864,0,0,0,201.667,189.014Zm-5.358-.12a.527.527,0,0,1-.591.1.437.437,0,0,1-.258-.14l-.009-.011a.673.673,0,0,1-.1-.15c-.01-.015-.022-.027-.032-.043a.662.662,0,0,1,.085-.751.588.588,0,0,1,.578-.151l.007,0c.361-.11.809.274.657.657l0,0,.052.048c-.04.02-.071.038-.108.058A1.273,1.273,0,0,1,196.309,188.893Z" transform="translate(-162.147 -145.554)"/>
        <path id="Path_804" data-name="Path 804" d="M249.573,177.529a2.611,2.611,0,0,0-.607-.8,9.18,9.18,0,0,0-4.256-2.378A6.73,6.73,0,0,0,237,177.737c-.532,1.024-.974,2.1-1.439,3.154-.268.61-.139,1.05.306,1.19s.829-.191.954-.826c.028-.14-.023-.3.018-.434a9,9,0,0,1,1.675-3.491,2.212,2.212,0,0,1,.465-.31c.041.163.087.326.122.491a6.73,6.73,0,0,0,.4,1.8,3.406,3.406,0,0,0,4.184,1.318,3.46,3.46,0,0,0,2.249-3.485.91.91,0,0,1-.067-.28,5.435,5.435,0,0,1,.1-.544c.176.052.4.054.521.166.632.584,1.214,1.224,1.866,1.783a1.089,1.089,0,0,0,.87.231A.671.671,0,0,0,249.573,177.529Zm-5.806-.85a.529.529,0,0,1-.133.271.523.523,0,0,1-.616.085.491.491,0,0,1-.376-.244.543.543,0,0,1-.059-.293.579.579,0,0,1,.053-.444.657.657,0,0,1,.513-.318l.01-.011,0,.009a.731.731,0,0,1,.084-.008.64.64,0,0,1,.617.463A.564.564,0,0,1,243.766,176.679Z" transform="translate(-183.871 -140.037)"/>
        <path id="Path_805" data-name="Path 805" d="M200.53,165.9c-2.245.252-3.643,1.114-4.305,2.952a2.617,2.617,0,0,0-.16.55c-.067.546.376,1.316.747,1.2a1.844,1.844,0,0,0,.884-.814c.214-.353.214-.832.411-1.2.113-.212.431-.316.657-.468.062.216.138.429.183.649a14.14,14.14,0,0,0,.267,1.409c.292.938.991,1.2,1.579.478,1.215-1.5,2.809-1.5,4.47-1.43.193.008.408.093.572.033.24-.089.576-.241.628-.432a.783.783,0,0,0-.292-.7,3.387,3.387,0,0,0-1.755-.487c-1.114.231-2.361-.116-3.354.693-.051.041-.23.025-.246-.012a.536.536,0,0,1-.067-.376c.1-.215.3-.386.392-.6.138-.324.57-.664.141-1.022A3.048,3.048,0,0,0,200.53,165.9Z" transform="translate(-201.987 -92.7) rotate(-11)"/>
        <path id="Path_806" data-name="Path 806" d="M238.148,246.884a4.356,4.356,0,0,1-.193,4c-1.306,2.389-4.539,1.791-5.538.108a13.077,13.077,0,0,1-.868-2.4,15.422,15.422,0,0,0,4.633-.848C236.85,247.5,237.494,247.174,238.148,246.884Z" transform="translate(-182.067 -173.919)" fill="#da291c"/>
        <path id="Path_807" data-name="Path 807" d="M234.375,162.45a10.768,10.768,0,0,0,.59-.961c.259-.532.379-.219.484.067a9.9,9.9,0,0,0,.473,1.36,1.064,1.064,0,0,0,.725.5.607.607,0,0,0,.644-.772,12.959,12.959,0,0,0-.839-2.755c-.405-.831-.771-1.045-1.605-.424-.667.5-.92.353-1.309-.254-.992-1.55-2.7-1.742-4.289-2.1-.246-.056-.706.269-.868.537a.676.676,0,0,0,.384.964,3.694,3.694,0,0,0,1.241.367,3.394,3.394,0,0,1,2.821,2,5.585,5.585,0,0,0,.658.948A4.44,4.44,0,0,0,234.375,162.45Z" transform="matrix(0.819, -0.574, 0.574, 0.819, -224.37, 29.411)"/>
        <path id="Path_808" data-name="Path 808" d="M161.281,193.29c.238.171.526.288.651.5.081.138-.045.433-.139.629a11.7,11.7,0,0,0-.6,1.137,1.887,1.887,0,0,0-.008.925c.072.372.278.718.343,1.09a3.431,3.431,0,0,0,1.334,2.573,2.307,2.307,0,0,1,.616.957.644.644,0,0,1-.371.947,1.345,1.345,0,0,1-.909-.15c-.186-.093-.261-.393-.408-.583-.262-.34-.556-.564-.941-.145-.322.349-.751.388-.995.04-.213-.3-.411-.922-.255-1.132.794-1.066.47-2.079.087-3.146a3.458,3.458,0,0,1,.92-3.277A4.66,4.66,0,0,1,161.281,193.29Z" transform="translate(-148.527 -148.956)"/>
        <path id="Path_809" data-name="Path 809" d="M284.693,189.236c.647-1.579-.456-2.611-1.162-3.751-.232-.376-.382-.669-.038-1.019.414-.42.8-.246,1.121.112a7.379,7.379,0,0,1,.854,1.156c.334.575.525,1.22,1.238,1.524a.685.685,0,0,1,.263,1.106c-.952.927-.312,1.771.012,2.638a5.938,5.938,0,0,0,.442.745c.361.647.352,1.243-.05,1.409-.627.259-1.029-.127-1.315-.6a13.783,13.783,0,0,1-.925-1.8A12.956,12.956,0,0,1,284.693,189.236Z" transform="translate(-206.168 -144.731)"/>
        <path id="Path_810" data-name="Path 810" d="M235.878,242.213c-.654.29-1.3.612-1.966.863a15.423,15.423,0,0,1-4.633.848c-.8-.287-1.608-.565-2.4-.871a.422.422,0,0,1-.2-.332c0-.07.184-.185.3-.2a1.8,1.8,0,0,1,.579.024c4.984.959,8.715-1,11.585-4.966.141-.195.243-.454.432-.568a2.247,2.247,0,0,1,.738-.154c.029.253.181.6.069.744a37.193,37.193,0,0,1-2.415,2.852A25.039,25.039,0,0,1,235.878,242.213Z" transform="translate(-179.797 -169.248)"/>
        <path id="Path_811" data-name="Path 811" d="M230.206,220.3c1.512-.122,2.677-.352,3.551-1.331.969-1.085.822-1.951-.532-2.419a5.057,5.057,0,0,0-4.891.948,1.274,1.274,0,0,0,.238,2.248A10.548,10.548,0,0,0,230.206,220.3Z" transform="translate(-180.304 -159.66)" fill="#fff"/>
        <path id="Path_812" data-name="Path 812" d="M317.417,306.634a1.337,1.337,0,0,0-2.576.71,37.405,37.405,0,0,1,1.306,11.548c-.07,1.719,2.6,1.716,2.671,0A39.844,39.844,0,0,0,317.417,306.634Z" transform="translate(-220.839 -201.311)" fill="#070606"/>
      </g>
    </g>
  </g>
</svg>
