<svg id="Layer_1" data-name="Layer 1" xmlns="http://www.w3.org/2000/svg" viewBox="0 0 110.81 97.64"><defs><style>.cls-1{fill:#638dc9;stroke:#638dc9;}.cls-1,.cls-2,.cls-3{stroke-linecap:round;stroke-linejoin:round;}.cls-2{fill:none;stroke-width:1.75px;}.cls-2,.cls-3{stroke:#000;}</style></defs><title>stayinvolved</title><g id="Group_304" data-name="Group 304"><path id="Path_1028" data-name="Path 1028" class="cls-1" d="M42.58,18.08C41.84,8.87,36.34,4.26,29.1.64c-1.28,5.23-1.55,10.07.06,14.92s5,8,9.43,10.14c-4,7.12-3.41,14.22-.46,21.7-3.85.55-6.09,3.41-8.29,6.41-1.37,1.87-3.44,2.53-5.44,3.3-1.77.67-3.68,1.09-5.36,2.9l5.55,3.77C30,63.21,35.48,62.38,41,62.13a25.25,25.25,0,0,0,13.35-4.77c1.22-.83,2.54-1.48,4.45-2.59-2-.45-3.37-.84-4.75-1a8.35,8.35,0,0,1-5-2.25C46.44,48.94,43.65,47,40,47.44a31.67,31.67,0,0,1-1.08-10.39c5.51,1.83,10.76,2.13,15.61-1.49a23.91,23.91,0,0,0,7.32-9.45c-5.14-3.67-12.9-3-19.79,1.78l5.13-10.46c4,.89,8,1.1,11.58-1.52C62,13.56,64,10.24,65.45,6.09c-6.31-1.54-12.11-1.47-16.9,4.6-.14-3.8-.38-7.14-2.11-10.19C46.83,6.8,46,12.74,42.58,18.08Z" transform="translate(-0.01 0)"/><path id="Path_1029" data-name="Path 1029" d="M62.52,77.88a5,5,0,0,1-1.49.2,48.83,48.83,0,0,1-5.08-1,36.87,36.87,0,0,0-12-1c-5.34.34-10.68.66-16.56,1,1,.81,1.56,1.31,2.16,1.73,3.63,2.51,7.32,4.93,10.88,7.52a11.88,11.88,0,0,0,11.16,1.7c8-2.44,16-4.73,23.92-7.22,7.48-2.33,13.93-.85,19.54,4.66,4.17,4.1,8.48,8,12.74,12.06a16.82,16.82,0,0,0,3-5.81c0-1.25,0-9.24,0-18-.51-.39-1.52-1-2.14-1.4-5.32-3.6-10.65-7.17-16-10.79a28.35,28.35,0,0,0-16.76-5.09c-1.54,0-3.08.06-4.6,0A28.32,28.32,0,0,0,54.61,60.8a29.62,29.62,0,0,1-14.88,4.5c-5.64.26-11.25,1-16.87,1.65-2.8.3-4.55,2.24-4.41,4.72s2.2,4.37,5.17,4.23c6.51-.32,13-.43,19.51-1.17s12.37.87,18.47,2a3.35,3.35,0,0,1,.95.56Z" transform="translate(-0.01 0)"/><path id="Path_1030" data-name="Path 1030" class="cls-2" d="M42.13,21.5C41.35,12.65,35.59,8.23,28,4.75c-1.34,5-1.63,9.67.06,14.33s5.27,7.63,9.87,9.73c-4.14,6.84-3.57,13.66-.49,20.84-4,.53-6.37,3.27-8.67,6.15-1.43,1.8-3.6,2.44-5.7,3.17-1.85.65-3.85,1-5.61,2.78l5.81,3.63c5.7-.56,11.4-1.35,17.13-1.59a28,28,0,0,0,14-4.58c1.27-.8,2.65-1.43,4.65-2.49-2.11-.43-3.53-.81-5-1a9.16,9.16,0,0,1-5.23-2.16c-2.7-2.44-5.62-4.34-9.49-3.88a28.05,28.05,0,0,1-1.12-10c5.77,1.76,11.27,2,16.34-1.42a23.34,23.34,0,0,0,7.67-9.08c-5.39-3.52-13.51-2.85-20.72,1.71l5.37-10c4.17.86,8.33,1.06,12.12-1.46a18.35,18.35,0,0,0,7-9.43C59.46,8.5,53.39,8.57,48.38,14.4c-.15-3.64-.4-6.86-2.21-9.78C46.57,10.67,45.66,16.37,42.13,21.5Z" transform="translate(-0.01 0)"/><path id="Path_1031" data-name="Path 1031" d="M16.62,70a12.11,12.11,0,0,1,1.57-2.64,9.16,9.16,0,0,1,2.15-1.83,6.66,6.66,0,0,0-1.26-1Q12,60.19,4.83,55.89A9.3,9.3,0,0,0,3.33,55a2.26,2.26,0,0,0-3,1.06A2.21,2.21,0,0,0,.77,59a3.8,3.8,0,0,0,.66.54C6.56,63.07,16.41,70.41,16.62,70Z" transform="translate(-0.01 0)"/><path id="Path_1032" data-name="Path 1032" class="cls-3" d="M15.66,60.41a3.59,3.59,0,0,1,.65-1.1,5.24,5.24,0,0,0,1-.62c-1-1.84-8.73-6-9.6-3.84C8.05,55.73,15.66,60.41,15.66,60.41Z" transform="translate(-0.01 0)"/></g></svg>