<svg id="Layer_1" data-name="Layer 1" xmlns="http://www.w3.org/2000/svg" viewBox="0 0 200 101.38"><defs><style>.cls-1{fill:#ffc829;}.cls-2{fill:#f33;}.cls-3{fill:#fccd2e;}.cls-4{fill:#fff;}.cls-5{fill:#da291c;}</style></defs><title>delivery</title><g id="Group_287" data-name="Group 287"><g id="From_selection_Image" data-name="From selection Image"><path id="Path_921" data-name="Path 921" class="cls-1" d="M96.62,41.68a19.55,19.55,0,0,1,2.95-6.18,51.65,51.65,0,0,1,7.71-9.45,7.07,7.07,0,0,0,1-1c2.33-3.25,5.39-5.85,8.37-8.51,1.6-1.43,3.26-2.8,5-4.12a17.79,17.79,0,0,1,2.64-1.62c1.58-.83,3.23-1.55,4.77-2.44a15.84,15.84,0,0,1,5.23-2.08,12.26,12.26,0,0,0,2.36-.91c4.9-.54,9.64.62,14.37,1.45a63.44,63.44,0,0,1,9,2.44,75.67,75.67,0,0,1,22.63,11.9,71.09,71.09,0,0,1,13.6,13.91c1,1.33,2.15,2.53,3.24,3.79a4.67,4.67,0,0,1,.4,1.25q0,15,0,30c0,.7.26,1.47-.41,2a8.45,8.45,0,0,0-7.47-3.2,43.48,43.48,0,0,0-4.82.49,12,12,0,0,0-7.52,4.11c-.85,1-2.25,1.86-1.37,3.53.09.17-.14.51-.26.75a9,9,0,0,0-.66,4.82c-.52,2.29.27,4.29,1.43,6.24a7.1,7.1,0,0,0,4.1,3.19,16.81,16.81,0,0,0,5.65.51,7.94,7.94,0,0,0,8.05-7.31L199.37,82a4.91,4.91,0,0,1,.54,1.47c.07,3.29.07,6.58.09,9.86A4.25,4.25,0,0,1,198,97a21.83,21.83,0,0,1-12.74,4.21c-9,0-17.94.1-26.91.14-.85,0-1.71-.08-2.56-.12,1.1-.49,2.2-1,3.31-1.47A9.6,9.6,0,0,0,162.83,97,9.22,9.22,0,0,0,165,89.64a1.22,1.22,0,0,0-.44-1.47l0,.06a6.94,6.94,0,0,0-5-5.67,13.19,13.19,0,0,0-7.29-.08c-1.92.49-3.73,1.37-4.34,3.48l0,0-.56.4a9,9,0,0,0-3.93,5c.38.74.94,1.46.59,2.44a4.71,4.71,0,0,0-.07,1.63,5.06,5.06,0,0,0,3,4.63c.83.43,1.69.82,2.53,1.23-.85.06-1.7.17-2.55.16q-10.43-.07-20.85-.2c-6.75-.09-13.51-.18-20.26-.34-2.47-.06-4.92-.32-7.39-.49A14.54,14.54,0,0,0,106,96.72a40.62,40.62,0,0,0,3-3.29,10.52,10.52,0,0,0,2.44-7.37,6.81,6.81,0,0,0-4.14-6.35A43.12,43.12,0,0,0,103,78.17c-.94-.93-2.26-1-3.44-1.15-6.41-1.06-10.53.84-13.44,5.84a7.75,7.75,0,0,0-.3,8.1c0,.72-.1,1.43-.06,2.15.14,3.15,2.49,6.73,5.77,7.11a2.61,2.61,0,0,1,.74.34,44.44,44.44,0,0,1-7.11.08,5.41,5.41,0,0,1-.5-1.13c-.3-2.16-.69-4.33-.8-6.5-.24-4.66.45-9.29.83-13.92a78.19,78.19,0,0,1,1.9-12.17c.22-.89.54-1.75.81-2.63l2.29,1.13a13.66,13.66,0,0,0,10,.82,14.86,14.86,0,0,0,7.57-4.64,13.59,13.59,0,0,0,3.6-7.88,8.64,8.64,0,0,0-2.08-6.93A14.63,14.63,0,0,0,99.16,42C98.32,41.91,97.47,41.78,96.62,41.68Zm76.52,1.46-.24.53c-.25.76-.51,1.53-.74,2.22.64.64,1.28,1.06,1.08,2a6.92,6.92,0,0,0-.06,1.64,7.47,7.47,0,0,0,2.95,6,9.53,9.53,0,0,0,8.06,1.78,24.09,24.09,0,0,0,5.38-1.78,12.34,12.34,0,0,0,7.2-8,7.61,7.61,0,0,0-5.09-9.66,6.57,6.57,0,0,0-.9-.22c-.91-.23-1.87-.32-2.81-.47-3.16-1.9-6.45-1.81-9.78-.53a7.31,7.31,0,0,0-5.06,6.61Zm-5.69-23,0,0a1.84,1.84,0,0,0-.56-1.75,8.51,8.51,0,0,0-9.46-2.74,21.72,21.72,0,0,0-6.55,3.26,7.28,7.28,0,0,0-3.26,7.39,31.14,31.14,0,0,0-1,3.42,8.47,8.47,0,0,0,2.68,8c4.12,4,10,3.26,13.27,1.75.86-.39,1.65-.93,2.51-1.31a11.44,11.44,0,0,0,5.57-5.66,8.54,8.54,0,0,0-.94-9.78c-.52-.66-1-1.29-1.58-1.93Zm.65,39.47-.54-.5c-5.32-4.48-13.42-2.24-17.09.67a4.16,4.16,0,0,0-1.67,2.77c.41.52.82.82.92,1.2a4,4,0,0,1-.13,1.34,8.33,8.33,0,0,0,3,7.32c1.14,1.07,2.63,1.39,3.93,2.11a5,5,0,0,0,3.81,1.55,19.67,19.67,0,0,0,5.08-.45c3.54-.82,6.14-2.7,7-6.11a8.8,8.8,0,0,0-2.79-9.24,6,6,0,0,0-1.5-.69Zm-45,27a8,8,0,0,0,4.5,4,11.36,11.36,0,0,0,9.63-1,11.69,11.69,0,0,0,5.4-7.17,7.92,7.92,0,0,0-.08-4.6c-2-5.73-7.88-8.38-14-6.83-.75.09-1.51.14-2.25.27a8.77,8.77,0,0,0-7.38,7,5.35,5.35,0,0,0,.05,2.42C119.67,83.08,120.62,85.36,123.07,86.65Zm13.15-43.56a11.47,11.47,0,0,0-11.38,3,7.34,7.34,0,0,0-1.92,8.7,11,11,0,0,0,.8,6.14,8.41,8.41,0,0,0,9.51,4.8,12.87,12.87,0,0,0,6.55-3.11c.74-.7,1.42-1.47,2.15-2.18,3-3,3.68-6.68,3-10.63a7.87,7.87,0,0,0-3.61-5.36A9.06,9.06,0,0,0,136.22,43.09ZM128.94,18.9c-2.83-2.51-6.1-2.67-9.52-1.49a18.29,18.29,0,0,0-5.83,3.34,8.33,8.33,0,0,0-1.34,1.38c-2.81,3.65-2.44,7.41-.36,11.22.12.62.25,1.25.38,1.87a8.13,8.13,0,0,0,9.22,6.7,17.91,17.91,0,0,0,11.75-6.07,14.09,14.09,0,0,0,3.38-7.41,7.45,7.45,0,0,0-.2-3.51c-.87-2.85-2.37-5.18-5.82-5.65-.57-.08-1.11-.25-1.67-.38Z"/><path id="Path_923" data-name="Path 923" class="cls-1" d="M199.16,31.25a58,58,0,0,0-7-8c-.74-.68-1.28-1.57-2-2.23-2-1.71-4.46-2.88-6-5.09a73.46,73.46,0,0,0-16.74-9.2,65.21,65.21,0,0,0-20.45-4.19,7.55,7.55,0,0,1-.83-.13c1.18-.25,2.35-.55,3.53-.72,1.85-.28,3.73-.37,5.56-.72A47.82,47.82,0,0,1,179,2.21c5.14,1.65,10.15,3.71,14.37,7.16a28.53,28.53,0,0,1,4.79,4.91,7.46,7.46,0,0,1,1.61,4.79c-.08,3.51,0,7,0,10.54C199.75,30.2,200,30.91,199.16,31.25Z"/><g id="Group_312" data-name="Group 312"><path id="Path_922" data-name="Path 922" d="M199.45,38.87c-1.08-1.26-2.24-2.47-3.23-3.79a71.16,71.16,0,0,0-13.56-13.91A75.62,75.62,0,0,0,160.08,9.28a63.67,63.67,0,0,0-9-2.44c-4.72-.83-9.44-2-14.33-1.45a30,30,0,0,0-5.11.14,87.89,87.89,0,0,0-11.89,2.84,79.64,79.64,0,0,0-13.15,5.9,69,69,0,0,0-16.85,13.4A60.45,60.45,0,0,0,81,39.79,69.19,69.19,0,0,0,75.8,51a58.33,58.33,0,0,0-2.7,12.85,42.27,42.27,0,0,0-.44,4.9,85.14,85.14,0,0,0,.56,9,62.47,62.47,0,0,0,5.33,19.51c.43.9.81,1.82,1.27,2.83a8.09,8.09,0,0,1-3.61.5c-1.14,0-2.28,0-3.43,0a15.11,15.11,0,0,1-3-5.62,86.78,86.78,0,0,1-3.72-13.19,64.28,64.28,0,0,1-.68-15.55c.4-6.38,2.28-12.39,4.46-18.34a28,28,0,0,1,3.2-6.4c1.31-1.88,2.18-4,3.56-5.9A87.4,87.4,0,0,1,87.1,23.75a77,77,0,0,1,16.6-11.48,89.06,89.06,0,0,1,14.61-6.1,77.85,77.85,0,0,1,26.13-3.74,8.08,8.08,0,0,0,.85-.05,5.74,5.74,0,0,0,.83.13,66.54,66.54,0,0,1,20.76,4.24,74.54,74.54,0,0,1,17,9.3c1.56,2.23,4.08,3.41,6.08,5.14.77.67,1.32,1.56,2.07,2.25a59.58,59.58,0,0,1,7.13,8.11C199.76,34,199.36,36.43,199.45,38.87Z"/><path id="Path_924" data-name="Path 924" d="M96.4,41.85c.84.1,1.67.22,2.51.29a14.33,14.33,0,0,1,9.5,4.76,8.6,8.6,0,0,1,2,6.85,13.49,13.49,0,0,1-3.53,7.8,14.63,14.63,0,0,1-7.45,4.6,13.37,13.37,0,0,1-9.84-.81l-2.25-1.12c-.76-.75-1.59-1.45-2.28-2.27a9.11,9.11,0,0,1-2.2-5.55c.08-.89.13-1.79.23-2.68a5.87,5.87,0,0,1,.38-1.85c2.49-5.19,6.21-9,12.42-9.81A2.4,2.4,0,0,0,96.4,41.85Zm4.24,21.58.64-.56-.07.05a4.27,4.27,0,0,0,2.37-2.24l1-1a1.07,1.07,0,0,0,.69-1.11l0,.06c1.26-.9,1.12-2.38,1.56-3.61,1-2.73,0-5.27-1-7.78a.88.88,0,0,0-1.06-.64l0,0a2.66,2.66,0,0,0-2.31-2.21l0,0-.58-.42c-7.35-.86-13.37,3.1-15,10a10.07,10.07,0,0,0,1.75,9,7,7,0,0,0,6.62,2.49A9.65,9.65,0,0,0,99.58,64l-.06,0,1.18-.59Z"/><path id="Path_925" data-name="Path 925" d="M92.54,100.56a2.38,2.38,0,0,0-.72-.34c-3.23-.37-5.53-3.92-5.67-7,0-.7,0-1.41.06-2.12A17.64,17.64,0,0,1,87,88.81c.72-1.4,1.24-3,2.79-3.79a3.41,3.41,0,0,1,0,1c-.19.6-.52,1.16-.73,1.76a7.72,7.72,0,0,0,2.66,8.76c3.7,3.09,10,2.08,12.73-.37a6.36,6.36,0,0,0,1.1-1.22,9.13,9.13,0,0,0,1.15-8.54,6.46,6.46,0,0,0-4.62-4.33c-4.07-1-7.8-.53-11,2.36-.37.34-.61,1-1.33.6a1.76,1.76,0,0,1,.83-1.86c3.66-2.85,7.66-4.84,12.51-4.79a40.69,40.69,0,0,1,4.17,1.52,6.75,6.75,0,0,1,4.08,6.28,10.47,10.47,0,0,1-2.4,7.3,37.89,37.89,0,0,1-3,3.26,14.26,14.26,0,0,1-7.39,3.6Z"/><path id="Path_926" data-name="Path 926" d="M199.38,82.16l-2.74,3.26c-.32.18-.65.36-1,.55-3.57,2.27-7.39,3.43-11.7,2.4-2.7-.64-4.84-1.9-5.74-4.61a6.5,6.5,0,0,0-.5-.94,8.86,8.86,0,0,1,.65-4.77c.11-.25.34-.58.25-.75-.86-1.65.52-2.5,1.35-3.49a11.82,11.82,0,0,1,7.4-4.07,44.26,44.26,0,0,1,4.74-.49,8.26,8.26,0,0,1,7.33,3.18A32.72,32.72,0,0,1,199.38,82.16Zm-3.85-4A5.48,5.48,0,0,0,194,73.94a8.33,8.33,0,0,0-4-2.8,2.64,2.64,0,0,0-2.13.18,7.85,7.85,0,0,0-3.72,3.45c-.67.61-1.36,1.21-2,1.85a1.85,1.85,0,0,0-.52.92,8.6,8.6,0,0,0,1.69,7.19c2.63,3.08,7.12,3.63,9.91.13,1.55-2,2.8-4.09,2.24-6.74Z"/><path id="Path_927" data-name="Path 927" d="M165,89.76A9.2,9.2,0,0,1,162.86,97a9.5,9.5,0,0,1-3.66,2.78l-3.26,1.46-6.18,0c-.83-.4-1.66-.79-2.48-1.22a5,5,0,0,1-2.94-4.58,4.83,4.83,0,0,1,.06-1.61,2.86,2.86,0,0,0-.57-2.42,8.89,8.89,0,0,1,3.86-4.9l.55-.4,0,0a19,19,0,0,1,6.54-1.38c3.76,0,7.3.53,9.82,3.63l0-.06ZM156.08,99a8.8,8.8,0,0,0,4.43-5.31,6,6,0,0,0-2.58-6.85,3,3,0,0,0-2.37-.42,9.23,9.23,0,0,0-6.2,4.2A5,5,0,0,1,147,92.69c-.12.13-.33.25-.36.39-.44,2.63.25,4.92,2.65,6.37s4.63,1,6.79-.5Z"/><path id="Path_929" data-name="Path 929" d="M188.18,37.2c.92.15,1.86.23,2.76.46a7.59,7.59,0,0,1,6.11,9,8.37,8.37,0,0,1-.23.82,12.19,12.19,0,0,1-7.07,8,23.82,23.82,0,0,1-5.29,1.76,9.29,9.29,0,0,1-7.92-1.77,7.41,7.41,0,0,1-2.9-5.91,6.77,6.77,0,0,1,.07-1.62c.18-.88-.45-1.3-1.07-1.92l.73-2.2.23-.53h0l1.76-1.72a13.83,13.83,0,0,1,7.84-3.8C184.84,37.48,186.52,37.36,188.18,37.2Zm-6.61,17.49-.08,0c.56.8,1.52.61,2.29.74a5.18,5.18,0,0,0,5.45-1.83c2.8-2.28,3-5.29,2.36-8.4-.69-3.55-3.42-5.17-6.67-6.16a9.29,9.29,0,0,0-5.59,4.78,5.9,5.9,0,0,1-2.66,3c-.26,3.32.72,5.92,3.9,7.47Z"/><path id="Path_930" data-name="Path 930" d="M168.18,20.86c.52.63,1,1.26,1.56,1.91a8.5,8.5,0,0,1,.92,9.68,11.27,11.27,0,0,1-5.48,5.6c-.84.38-1.62.91-2.46,1.3-3.24,1.5-9,2.2-13.05-1.73a8.43,8.43,0,0,1-2.63-7.9,31,31,0,0,1,1-3.38c.31-.53,1-1.12.88-1.58-.22-1.12.44-1.68,1.11-2.29a9.06,9.06,0,0,1,4.09-2.25,58.44,58.44,0,0,1,6.3-1.1c2.47-.31,4.78.57,7.12,1.13l0,0Zm-4.59,16.28c.42,0,.68-.13.62-.6l0,.06a4.05,4.05,0,0,0,2.31-3.51,9.29,9.29,0,0,0-5.41-11.61,5.55,5.55,0,0,0-6.63,1.16,5.59,5.59,0,0,1-2,1.39,2.66,2.66,0,0,0-1.7,1.65,8.89,8.89,0,0,0,0,7.35l-1.32.35a3.88,3.88,0,0,0,1.91,3.2,17.4,17.4,0,0,0,4,1.73c2.52.58,5.12,1,7.48-.63l.78-.59Z"/><path id="Path_931" data-name="Path 931" d="M129,19c.54.13,1.08.3,1.63.38,3.39.46,4.87,2.77,5.73,5.59a7.54,7.54,0,0,1,.19,3.47,13.91,13.91,0,0,1-3.32,7.33,17.53,17.53,0,0,1-11.55,6,8,8,0,0,1-9.06-6.63c-.13-.61-.25-1.23-.38-1.85a25.63,25.63,0,0,1,1.18-4.13,14.16,14.16,0,0,1,4.43-5.8c.44-.32,1-.64,1.21-1.09.55-1.25,1.71-1.61,2.83-2A25.62,25.62,0,0,1,129,19Zm.68,17c.49,0,.58-.32.68-.67,3.45-4.12,3.22-9.35-.61-12.83a5.92,5.92,0,0,0-6.19-1.32,10.32,10.32,0,0,0-4.18,2.56c-3.52,3.41-4.27,7.44-3,11.93a2.6,2.6,0,0,0,1.42,1.91c3,3.6,8.52,3.48,11.94-1.1.08-.11,0-.33,0-.5Z"/><path id="Path_932" data-name="Path 932" d="M136.34,43.25a8.75,8.75,0,0,1,5,1.33,7.79,7.79,0,0,1,3.55,5.3c.63,3.91,0,7.54-3,10.52-.72.71-1.38,1.47-2.11,2.16a12.59,12.59,0,0,1-6.44,3.08,8.25,8.25,0,0,1-9.34-4.75,11,11,0,0,1-.79-6.09c.41-1.68,1.83-3.1,1.44-5,0-.2.2-.49.39-.69A12,12,0,0,1,127,47.18C129.85,45.29,132.8,43.62,136.34,43.25Zm-7,19.08h0a4.45,4.45,0,0,0,.62.53,7.34,7.34,0,0,0,8.13-.24,7.25,7.25,0,0,0,3.13-5.16c.95-1.7.72-3.53.43-5.28a8,8,0,0,0-7.2-6.56,4.27,4.27,0,0,0-3.44.82c-1.31,1.14-2.58,2.33-3.79,3.57a3.7,3.7,0,0,0-.72,1.46c-1.23,3.91-.8,7.48,2.34,10.5Z"/><path id="Path_933" data-name="Path 933" d="M156.72,74.47c-1.28-.71-2.75-1-3.87-2.09a8.28,8.28,0,0,1-2.92-7.24,3.74,3.74,0,0,0,.12-1.33c-.09-.37-.49-.67-.9-1.18a4.09,4.09,0,0,1,1.65-2.74c3.6-2.89,11.56-5.1,16.8-.67l.53.5,0,0a28.77,28.77,0,0,1,1.31,3,7.79,7.79,0,0,1-2.19,8.62,14.73,14.73,0,0,1-3.18,2.1A12.76,12.76,0,0,1,156.72,74.47Zm-3.92-8.15c.26,3.1,2.51,4.7,5,6,3.65,2,5.92.58,7.49-2.87s-1.67-9.92-6.69-10.79a2.62,2.62,0,0,0-2.08.54A11.52,11.52,0,0,0,154,62.39c-.73.14-1.49.34-1.56,1.18s-.32,1.92.41,2.75Z"/><path id="Path_934" data-name="Path 934" d="M123.33,86.81c-2.4-1.28-3.34-3.54-4.07-5.87a5.26,5.26,0,0,1-.05-2.4,8.64,8.64,0,0,1,7.25-6.94c.73-.13,1.48-.18,2.22-.27a29.9,29.9,0,0,1,4.42.7c2.55.78,4.82,2,5.78,4.7a7.75,7.75,0,0,1-4.29,10.2,12.48,12.48,0,0,1-8,.5C125.53,87.19,124.43,87,123.33,86.81Zm5.58.21a6.26,6.26,0,0,0,5.32-2.83,7.73,7.73,0,0,0,1.17-5.7,6.53,6.53,0,0,0-4.23-5.31,3,3,0,0,0-1.61-.21,6.92,6.92,0,0,0-4.62,10.25A11.75,11.75,0,0,0,128.91,87Z"/></g><path id="Path_944" data-name="Path 944" class="cls-2" d="M165.06,89.76l-.43-1.46A1.22,1.22,0,0,1,165.06,89.76Z"/><path id="Path_945" data-name="Path 945" class="cls-2" d="M148.08,86.09l-.54.4Z"/><path id="Path_946" data-name="Path 946" class="cls-2" d="M168.18,59.63l-.53-.5Z"/><path id="Path_947" data-name="Path 947" class="cls-2" d="M173.2,43.18l-.23.52C173.05,43.52,173.13,43.35,173.2,43.18Z"/><path id="Path_948" data-name="Path 948" class="cls-2" d="M168.22,20.82l-.68-.64Z"/><path id="Path_950" data-name="Path 950" class="cls-3" d="M88.93,63c.6.24,1.18.5,1.79.71a10.85,10.85,0,0,0,6.22.64,23.65,23.65,0,0,1,3-.34,9.69,9.69,0,0,1-4.4,1.48A7,7,0,0,1,88.93,63Z"/><path id="Path_951" data-name="Path 951" class="cls-3" d="M105.78,58.56c.25-1.24.43-2.49.77-3.69a10,10,0,0,0-.85-7.08c-.19-.41-.32-.84-.47-1.26.58-.15.88.24,1,.64,1.06,2.5,2,5,1.06,7.77C106.9,56.17,107,57.65,105.78,58.56Z"/><path id="Path_952" data-name="Path 952" class="cls-3" d="M101.76,63l2.37-2.24A4.37,4.37,0,0,1,101.76,63Z"/><path id="Path_953" data-name="Path 953" class="cls-3" d="M105.22,46.49l-2.3-2.21A2.64,2.64,0,0,1,105.22,46.49Z"/><path id="Path_954" data-name="Path 954" class="cls-3" d="M100,64.07l1.18-.59Z"/><path id="Path_955" data-name="Path 955" class="cls-3" d="M105.12,59.67l.69-1.11A1.07,1.07,0,0,1,105.12,59.67Z"/><path id="Path_956" data-name="Path 956" class="cls-3" d="M101.17,63.51l.65-.56Z"/><path id="Path_957" data-name="Path 957" class="cls-3" d="M103,44.32l-.57-.42Z"/><path id="Path_960" data-name="Path 960" class="cls-3" d="M195.54,77.87c-.71-.56-1.46-1.09-2.13-1.69a6.43,6.43,0,0,0-4.76-1.82l-4.44.16a7.85,7.85,0,0,1,3.72-3.45,2.64,2.64,0,0,1,2.13-.18,8.33,8.33,0,0,1,4,2.8A5.52,5.52,0,0,1,195.54,77.87Z"/><path id="Path_962" data-name="Path 962" class="cls-3" d="M146.91,92.69c1.3,3.69,4.22,5.42,8,6.08L156,99c-2.16,1.5-4.49,1.89-6.79.5s-3.09-3.74-2.64-6.37C146.58,92.94,146.79,92.82,146.91,92.69Z"/><path id="Path_964" data-name="Path 964" class="cls-3" d="M181.49,54.74a15.53,15.53,0,0,0,7.74-1.1,5.17,5.17,0,0,1-5.45,1.84C183,55.35,182.05,55.55,181.49,54.74Z"/><path id="Path_965" data-name="Path 965" class="cls-3" d="M180.57,54.29l1,.48Z"/><path id="Path_967" data-name="Path 967" class="cls-4" d="M150.67,33.14c3.91,3.55,8.3,4.06,13.11,2l.33,1.61v-.06l-.62.6.07,0-.78.6c-2.37,1.61-5,1.2-7.48.63a17.64,17.64,0,0,1-4-1.73,3.91,3.91,0,0,1-1.92-3.2Z"/><path id="Path_968" data-name="Path 968" class="cls-3" d="M164.2,36.7l-.33-1.61,2.64-1.9A4.08,4.08,0,0,1,164.2,36.7Z"/><path id="Path_969" data-name="Path 969" class="cls-3" d="M162.84,37.82l.78-.59Z"/><path id="Path_970" data-name="Path 970" class="cls-3" d="M163.56,37.27l.63-.6C164.25,37.14,164,37.28,163.56,37.27Z"/><path id="Path_972" data-name="Path 972" class="cls-3" d="M117.82,37.72c1.57,0,3.15,0,4.72,0a12.49,12.49,0,0,0,6.16-1.29,6,6,0,0,1,1-.33c0,.17.1.4,0,.5C126.35,41.2,120.79,41.32,117.82,37.72Z"/><path id="Path_973" data-name="Path 973" class="cls-3" d="M129.79,36.12l.69-.67C130.38,35.8,130.29,36.15,129.79,36.12Z"/><path id="Path_975" data-name="Path 975" class="cls-3" d="M129.31,62.38c.37,0,.75,0,1.12,0A11.13,11.13,0,0,0,140.58,58a4.55,4.55,0,0,1,.62-.53,7.45,7.45,0,0,1-11.26,5.4A4,4,0,0,1,129.31,62.38Z"/><path id="Path_976" data-name="Path 976" class="cls-3" d="M128.72,62l.52.38Z"/><path id="Path_978" data-name="Path 978" class="cls-3" d="M153.79,62.35c-.39,1.31-.77,2.62-1.16,3.93-.72-.83-.48-1.82-.41-2.75S153.05,62.49,153.79,62.35Z"/><g id="Group_311" data-name="Group 311"><path id="Path_928" data-name="Path 928" class="cls-5" d="M95.94,42c-6.21.83-9.92,4.62-12.42,9.81a6.16,6.16,0,0,0-.38,1.85c-.1.89-.15,1.79-.23,2.68a16.2,16.2,0,0,1-.25-6.43,9.13,9.13,0,0,1,3.44-6A7.49,7.49,0,0,1,90.37,42,17.35,17.35,0,0,1,95.94,42Z"/><path id="Path_935" data-name="Path 935" class="cls-5" d="M123.4,86.81c1.09.2,2.19.38,3.28.62a12.55,12.55,0,0,0,8-.49A7.77,7.77,0,0,0,139,76.73c-1-2.66-3.23-3.92-5.78-4.7a31.65,31.65,0,0,0-4.43-.7c6-1.53,11.77,1.1,13.77,6.76a7.76,7.76,0,0,1,.08,4.55,11.52,11.52,0,0,1-5.3,7.1,11.06,11.06,0,0,1-9.46,1A7.93,7.93,0,0,1,123.4,86.81Z"/><path id="Path_936" data-name="Path 936" class="cls-5" d="M128.93,19a25.25,25.25,0,0,0-7.11,1.27c-1.11.4-2.28.76-2.82,2-.2.45-.77.77-1.21,1.09a14.33,14.33,0,0,0-4.44,5.8,25.63,25.63,0,0,0-1.18,4.13c-2-3.76-2.4-7.49.36-11.1a9,9,0,0,1,1.32-1.37,17.9,17.9,0,0,1,5.73-3.3C123,16.31,126.16,16.47,128.93,19Z"/><path id="Path_937" data-name="Path 937" class="cls-5" d="M177.74,82.82a6.61,6.61,0,0,1,.5,1c.9,2.71,3,4,5.74,4.61,4.31,1,8.13-.14,11.7-2.4.31-.2.64-.37,1-.55a7.82,7.82,0,0,1-7.91,7.23,16.29,16.29,0,0,1-5.56-.51,7,7,0,0,1-4-3.15C178,87.07,177.22,85.09,177.74,82.82Z"/><path id="Path_938" data-name="Path 938" class="cls-5" d="M102.71,78.41c-4.85,0-8.85,1.94-12.5,4.79a1.78,1.78,0,0,0-.84,1.86l0,0c-1.55.84-2.07,2.4-2.79,3.79a18.05,18.05,0,0,0-.79,2.24,7.7,7.7,0,0,1,.29-8c2.87-5,6.92-6.83,13.22-5.78C100.5,77.46,101.79,77.48,102.71,78.41Z"/><path id="Path_939" data-name="Path 939" class="cls-5" d="M156.78,74.49a12.68,12.68,0,0,0,7.31-1.12,14.2,14.2,0,0,0,3.19-2.1,7.78,7.78,0,0,0,2.18-8.62,29.6,29.6,0,0,0-1.31-2.94,5.65,5.65,0,0,1,1.47.69,8.72,8.72,0,0,1,2.75,9.14c-.81,3.38-3.37,5.24-6.84,6a18.75,18.75,0,0,1-5,.44A4.89,4.89,0,0,1,156.78,74.49Z"/><path id="Path_940" data-name="Path 940" class="cls-5" d="M167.47,20.17c-2.34-.55-4.65-1.44-7.12-1.13a61,61,0,0,0-6.3,1.1A9.06,9.06,0,0,0,150,22.39c-.67.61-1.33,1.17-1.11,2.29.09.46-.56,1.05-.88,1.59A7.24,7.24,0,0,1,151.18,19a21.18,21.18,0,0,1,6.44-3.23,8.33,8.33,0,0,1,9.29,2.72A1.85,1.85,0,0,1,167.47,20.17Z"/><path id="Path_941" data-name="Path 941" class="cls-5" d="M164.58,88.36c-2.52-3.1-6.06-3.62-9.82-3.63a19.46,19.46,0,0,0-6.54,1.38c.6-2.08,2.37-3,4.27-3.44a12.91,12.91,0,0,1,7.16.08A6.86,6.86,0,0,1,164.58,88.36Z"/><path id="Path_942" data-name="Path 942" class="cls-5" d="M136.26,43.18c-3.54.37-6.49,2-9.33,3.93A12,12,0,0,0,125,49c-.18.19-.43.49-.39.69.39,1.91-1,3.33-1.43,5a7.3,7.3,0,0,1,1.88-8.6A11.23,11.23,0,0,1,136.26,43.18Z"/><path id="Path_943" data-name="Path 943" class="cls-5" d="M188.18,37.12c-1.66.16-3.33.28-5,.5a13.71,13.71,0,0,0-7.83,3.8c-.59.56-1.18,1.14-1.76,1.71a7.2,7.2,0,0,1,5-6.54C181.84,35.33,185.07,35.24,188.18,37.12Z"/><path id="Path_949" data-name="Path 949" class="cls-5" d="M88.93,62.94a10,10,0,0,1-1.75-9c1.65-6.87,7.67-10.83,15-10l.58.41,0,0,2.3,2.21,0,0c.15.42.28.85.47,1.26a10,10,0,0,1,.85,7.08c-.34,1.21-.52,2.46-.77,3.69l0-.06-.69,1.11-1,1-2.37,2.24.07-.05-.64.56,0,0L99.88,64l.07,0a25.36,25.36,0,0,0-3,.34,10.69,10.69,0,0,1-6.22-.64C90.11,63.45,89.52,63.18,88.93,62.94Z"/><path id="Path_958" data-name="Path 958" class="cls-5" d="M89.77,85.06c.72.37,1-.26,1.34-.6,3.17-2.89,6.9-3.35,11-2.36a6.42,6.42,0,0,1,4.61,4.33A9.11,9.11,0,0,1,105.54,95a5.8,5.8,0,0,1-1.09,1.23c-2.79,2.45-9,3.46-12.74.37a7.75,7.75,0,0,1-2.65-8.77c.2-.6.53-1.15.72-1.75a3.43,3.43,0,0,0,0-1Z"/><path id="Path_959" data-name="Path 959" class="cls-5" d="M195.54,78.12c.55,2.65-.69,4.77-2.26,6.74-2.78,3.5-7.27,3-9.9-.13a8.57,8.57,0,0,1-1.69-7.19,1.71,1.71,0,0,1,.52-.92c.63-.64,1.32-1.24,2-1.85l4.44-.16a6.43,6.43,0,0,1,4.76,1.82C194.08,77,194.83,77.56,195.54,78.12Z"/><path id="Path_961" data-name="Path 961" class="cls-5" d="M147,92.69a5,5,0,0,0,2.37-2.11,9.19,9.19,0,0,1,6.2-4.21,3,3,0,0,1,2.37.42,5.93,5.93,0,0,1,2.57,6.85c-.83,2.19-2.05,4.24-4.42,5.3-.36-.06-.73-.1-1.09-.17C151.18,98.1,148.27,96.38,147,92.69Z"/><path id="Path_963" data-name="Path 963" class="cls-5" d="M180.57,54.21c-3.19-1.54-4.16-4.14-3.91-7.47a5.89,5.89,0,0,0,2.67-3A9.27,9.27,0,0,1,184.91,39c3.25,1,6,2.61,6.68,6.15.61,3.12.43,6.13-2.36,8.4a15.53,15.53,0,0,1-7.74,1.1l.07,0Z"/><path id="Path_966" data-name="Path 966" class="cls-5" d="M150.71,33a8.91,8.91,0,0,1,0-7.36,2.67,2.67,0,0,1,1.7-1.64,5.63,5.63,0,0,0,2-1.39A5.55,5.55,0,0,1,161,21.48a9.29,9.29,0,0,1,5.41,11.61L163.82,35C159,37.09,154.61,36.59,150.71,33Z"/><path id="Path_971" data-name="Path 971" class="cls-5" d="M117.82,37.6a2.66,2.66,0,0,1-1.42-1.91c-1.27-4.5-.53-8.53,3-11.94a10.43,10.43,0,0,1,4.18-2.56,6,6,0,0,1,6.19,1.33c3.83,3.48,4.06,8.7.61,12.83l-.69.67.06,0a6.4,6.4,0,0,0-1.05.33,12.47,12.47,0,0,1-6.16,1.3C121,37.58,119.39,37.6,117.82,37.6Z"/><path id="Path_974" data-name="Path 974" class="cls-5" d="M128.79,61.94c-3.14-3-3.57-6.58-2.33-10.5a3.51,3.51,0,0,1,.71-1.45c1.21-1.24,2.48-2.43,3.79-3.57a4.23,4.23,0,0,1,3.44-.82,7.94,7.94,0,0,1,7.2,6.55c.29,1.76.52,3.59-.43,5.29a5.15,5.15,0,0,0-.61.53,11.14,11.14,0,0,1-10.16,4.39c-.37,0-.74,0-1.11,0h0Z"/><path id="Path_977" data-name="Path 977" class="cls-5" d="M153.92,62.39a11.66,11.66,0,0,1,2.57-3.16,2.63,2.63,0,0,1,2.08-.54c5,.87,8.31,7.2,6.69,10.79s-3.84,4.82-7.48,2.87c-2.5-1.33-4.75-2.94-5-6C153.15,65,153.53,63.7,153.92,62.39Z"/><path id="Path_979" data-name="Path 979" class="cls-5" d="M128.92,87a11.93,11.93,0,0,1-4-3.8,6.91,6.91,0,0,1,2.83-9.57,7.43,7.43,0,0,1,1.79-.68,3,3,0,0,1,1.61.21,6.53,6.53,0,0,1,4.23,5.3,7.75,7.75,0,0,1-1.17,5.71A6.25,6.25,0,0,1,128.92,87Z"/></g></g><g id="Layer_3_Image" data-name="Layer 3 Image"><path id="Path_980" data-name="Path 980" d="M40.09,22A82.84,82.84,0,0,0,33.51,14a11.37,11.37,0,0,0-1.32.63q-11.46,7.47-22.92,15c-.39.25-.78.52-1.19.74-.81.42-1.51,1.22-2.52,1a6.57,6.57,0,0,1-4-1.89C1,28.82.48,28.05,0,27.42A3.33,3.33,0,0,1,1.92,25q12.39-7.34,24.77-14.68c2-1.19,4-2.44,6-3.6a5.34,5.34,0,0,1,7.11.9c2,2,4,4.13,6,6.21,1.46,1.54,2.9,3.09,4.37,4.67,1.15-.28,2.13-.52,3.12-.78a102.51,102.51,0,0,1,17.38-3.31,28.15,28.15,0,0,1,6.74.1,6.1,6.1,0,0,1,5.1,4.16c.6,1.54,1.11,3.11,1.75,4.63A4.69,4.69,0,0,1,83.65,28c-1.64-1.56-1.32-3.74-2.05-5.42-.69-.35-1,.11-1.29.38a35.75,35.75,0,0,1-6.7,4.51A115.22,115.22,0,0,1,36.75,39.7a33.11,33.11,0,0,1-9.53.4,5.76,5.76,0,0,0-1.71.33c2.55,4.64,4.21,9.46,6.2,14.14s3.84,9.32,5.75,14,3.88,9.51,5.81,14.26,3.81,9.34,5.7,14a7.62,7.62,0,0,1,.66,1.8,1.63,1.63,0,0,1-.47,1.17,1.15,1.15,0,0,1-1.56.16,1.07,1.07,0,0,1-.32-.41A60.75,60.75,0,0,1,44.38,94C40.2,83.87,36.1,73.76,32,63.66c-3.26-8-6.45-16-9.78-23.94a8.31,8.31,0,0,1-.55-4.24,5.47,5.47,0,0,1,.76-2,4.59,4.59,0,0,1,1.09-1.24c4.51-3.89,9.12-7.63,15-9.58C38.89,22.5,39.3,22.29,40.09,22Zm16.3,3.62a6.61,6.61,0,0,1-6.55,4.57,3.47,3.47,0,0,1-3-1.22c-1.14-1.32-2.45-2.51-3.65-3.78a2.34,2.34,0,0,0-2.53-.76,17.65,17.65,0,0,0-3.64,1.35c-3.21,1.89-6.36,3.88-9.48,5.9A22.77,22.77,0,0,0,24.82,34a8,8,0,0,0-1.24,1.49c-.82,1.27-.48,2.07,1,2.35a12.86,12.86,0,0,0,2,.18,52,52,0,0,0,11.74-1c3.86-.75,7.64-1.8,11.44-2.81a95.62,95.62,0,0,0,13.23-4.55,69.92,69.92,0,0,0,11.93-6.12A46.73,46.73,0,0,0,79.19,20a2.62,2.62,0,0,0,1.17-2.42,5,5,0,0,0-1-.44,6.69,6.69,0,0,0-1.66-.27,65.93,65.93,0,0,0-7,.16,86,86,0,0,0-16.42,3.65,11,11,0,0,0-1.33.67Z"/><path id="Path_981" data-name="Path 981" class="cls-4" d="M56.39,25.37,53,21.15a10.34,10.34,0,0,1,1.33-.67,86.55,86.55,0,0,1,16.42-3.61,63.22,63.22,0,0,1,7-.15,6.25,6.25,0,0,1,1.66.26,5.29,5.29,0,0,1,1,.43,2.54,2.54,0,0,1-1.17,2.4,43.54,43.54,0,0,1-4.32,3.45A69.92,69.92,0,0,1,63,29.32a96,96,0,0,1-13.24,4.5c-3.8,1-7.58,2-11.44,2.78a52.56,52.56,0,0,1-11.74,1,12.61,12.61,0,0,1-1.94-.18c-1.48-.27-1.83-1.07-1-2.33a7.44,7.44,0,0,1,1.23-1.46,21.83,21.83,0,0,1,2.78-2.29c3.12-2,6.26-4,9.47-5.83a17.35,17.35,0,0,1,3.65-1.34,2.35,2.35,0,0,1,2.52.74c1.21,1.27,2.52,2.44,3.66,3.75a3.46,3.46,0,0,0,3,1.2A6.59,6.59,0,0,0,56.39,25.37Z"/></g></g></svg>