<svg id="Layer_1" data-name="Layer 1" xmlns="http://www.w3.org/2000/svg" viewBox="0 0 329 110.38"><defs><style>.cls-1{fill:#fff;}.cls-2{fill:#ffc829;}.cls-3{fill:#f33;}.cls-4{fill:#fccd2e;}.cls-5{fill:#da291c;}</style></defs><title>delivery</title><rect id="Rectangle_345-2" data-name="Rectangle 345-2" class="cls-1" width="329" height="110" rx="12"/><g id="Group_287" data-name="Group 287"><g id="From_selection_Image" data-name="From selection Image"><path id="Path_921" data-name="Path 921" class="cls-2" d="M106.37,50.49a20,20,0,0,1,2.84-6.19,51.75,51.75,0,0,1,7.43-9.45,6.31,6.31,0,0,0,.92-1c2.25-3.25,5.2-5.85,8.07-8.51,1.54-1.43,3.14-2.8,4.77-4.12a17.27,17.27,0,0,1,2.54-1.61c1.52-.84,3.11-1.56,4.6-2.45a14.78,14.78,0,0,1,5-2.08,11.1,11.1,0,0,0,2.27-.91c4.72-.54,9.28.63,13.84,1.45a59.89,59.89,0,0,1,8.71,2.44A72.1,72.1,0,0,1,189.2,30a70,70,0,0,1,13.1,13.92c1,1.32,2.07,2.52,3.12,3.78a5,5,0,0,1,.38,1.25q0,15,0,30c0,.7.25,1.47-.4,2.05a8,8,0,0,0-7.19-3.2,39.87,39.87,0,0,0-4.64.49,11.44,11.44,0,0,0-7.25,4.11c-.82,1-2.17,1.86-1.32,3.53.08.17-.14.51-.25.75a9.29,9.29,0,0,0-.64,4.83c-.5,2.29.26,4.28,1.38,6.23a6.85,6.85,0,0,0,3.95,3.19,15.37,15.37,0,0,0,5.44.51,7.78,7.78,0,0,0,7.76-7.31l2.68-3.29a5.13,5.13,0,0,1,.53,1.48c.06,3.28.06,6.57.08,9.86a4.29,4.29,0,0,1-1.92,3.72,20.55,20.55,0,0,1-12.27,4.22c-8.64,0-17.28.1-25.92.13-.82,0-1.65-.08-2.47-.12,1.06-.49,2.12-1,3.19-1.47a9.29,9.29,0,0,0,3.58-2.81,9.46,9.46,0,0,0,2.07-7.34A1.25,1.25,0,0,0,171.8,97l0,.06A6.86,6.86,0,0,0,167,91.36a12.25,12.25,0,0,0-7-.08c-1.85.49-3.59,1.37-4.18,3.48l0,0-.54.4a9,9,0,0,0-3.78,5c.36.74.9,1.46.56,2.45a4.94,4.94,0,0,0-.06,1.63,5,5,0,0,0,2.88,4.62c.8.43,1.62.82,2.43,1.23-.82.06-1.64.17-2.46.16q-10-.08-20.08-.2c-6.51-.08-13-.18-19.52-.34-2.37-.06-4.74-.32-7.11-.49a13.82,13.82,0,0,0,7.25-3.62q1.53-1.57,2.89-3.29a10.88,10.88,0,0,0,2.35-7.38,6.84,6.84,0,0,0-4-6.34,38.3,38.3,0,0,0-4.1-1.55c-.9-.93-2.17-1-3.3-1.15-6.18-1.06-10.15.84-13,5.84a8,8,0,0,0-.29,8.1c0,.72-.09,1.44-.06,2.15.15,3.15,2.4,6.73,5.56,7.11a2.64,2.64,0,0,1,.72.34,40.19,40.19,0,0,1-6.85.08,4.52,4.52,0,0,1-.48-1.13c-.29-2.16-.67-4.32-.77-6.5-.23-4.66.43-9.28.8-13.92a80.51,80.51,0,0,1,1.83-12.17c.21-.89.52-1.75.78-2.62l2.2,1.13a12.79,12.79,0,0,0,9.65.82,14.26,14.26,0,0,0,7.29-4.65,13.73,13.73,0,0,0,3.46-7.88,8.84,8.84,0,0,0-2-6.93,13.85,13.85,0,0,0-9.31-4.8C108,50.71,107.19,50.58,106.37,50.49Zm73.71,1.45-.22.53c-.25.77-.49,1.53-.72,2.22.61.64,1.23,1.06,1.05,2a6.92,6.92,0,0,0-.07,1.64,7.61,7.61,0,0,0,2.85,6A9,9,0,0,0,190.73,66a23.19,23.19,0,0,0,5.18-1.79,12.22,12.22,0,0,0,6.94-8,7.67,7.67,0,0,0-4.9-9.66c-.29-.09-.58-.16-.87-.22-.88-.23-1.8-.32-2.71-.47-3-1.9-6.21-1.81-9.42-.53A7.25,7.25,0,0,0,180.08,52Zm-5.48-23,0,0a1.88,1.88,0,0,0-.53-1.76c-2.06-2.38-4.9-4-9.12-2.74a20.7,20.7,0,0,0-6.31,3.26,7.4,7.4,0,0,0-3.14,7.39,31.58,31.58,0,0,0-1,3.42,8.65,8.65,0,0,0,2.58,8c4,4,9.61,3.26,12.79,1.75.82-.39,1.58-.92,2.41-1.31a11.28,11.28,0,0,0,5.37-5.65,8.83,8.83,0,0,0-.91-9.79c-.5-.65-1-1.29-1.53-1.93Zm.63,39.47-.52-.5c-5.12-4.48-12.93-2.24-16.46.67a4.23,4.23,0,0,0-1.62,2.78c.4.51.8.81.89,1.19a4,4,0,0,1-.12,1.34,8.48,8.48,0,0,0,2.87,7.32c1.1,1.07,2.53,1.4,3.79,2.11a4.71,4.71,0,0,0,3.66,1.55,17.91,17.91,0,0,0,4.9-.45c3.41-.82,5.92-2.69,6.7-6.11a9,9,0,0,0-2.69-9.24,5.79,5.79,0,0,0-1.44-.69ZM131.85,95.46a7.88,7.88,0,0,0,4.34,4,10.55,10.55,0,0,0,9.27-1,11.64,11.64,0,0,0,5.2-7.17,8.09,8.09,0,0,0-.08-4.6c-2-5.73-7.58-8.38-13.49-6.83-.72.09-1.46.14-2.17.27a8.59,8.59,0,0,0-7.1,7,5.35,5.35,0,0,0,.05,2.42C128.57,91.88,129.49,94.16,131.85,95.46ZM144.52,51.9a10.74,10.74,0,0,0-11,3,7.51,7.51,0,0,0-1.85,8.7,11.32,11.32,0,0,0,.77,6.14,8,8,0,0,0,9.16,4.8A12.12,12.12,0,0,0,148,71.41c.71-.7,1.37-1.47,2.07-2.18,2.94-3,3.55-6.68,2.93-10.63a7.86,7.86,0,0,0-3.48-5.35A8.35,8.35,0,0,0,144.52,51.9Zm-7-24.2c-2.72-2.51-5.87-2.67-9.16-1.49a17.42,17.42,0,0,0-5.62,3.34,8.44,8.44,0,0,0-1.29,1.38c-2.71,3.65-2.35,7.41-.35,11.22.12.63.24,1.25.37,1.88a7.87,7.87,0,0,0,8.88,6.69,17.06,17.06,0,0,0,11.32-6.07,14.34,14.34,0,0,0,3.25-7.41,7.58,7.58,0,0,0-.19-3.51c-.84-2.84-2.28-5.18-5.61-5.65-.54-.08-1.07-.25-1.6-.37Z" transform="translate(122.71 0.19)"/><path id="Path_923" data-name="Path 923" class="cls-2" d="M205.16,40.06a58.37,58.37,0,0,0-6.77-8c-.71-.68-1.23-1.57-2-2.23-1.91-1.71-4.3-2.88-5.78-5.09a70.34,70.34,0,0,0-16.12-9.2,61.11,61.11,0,0,0-19.71-4.19,5.42,5.42,0,0,1-.79-.13c1.14-.25,2.26-.54,3.4-.72,1.78-.28,3.59-.37,5.36-.72a44.43,44.43,0,0,1,23,1.26c4.95,1.65,9.77,3.71,13.84,7.16a28.65,28.65,0,0,1,4.62,4.91,7.59,7.59,0,0,1,1.54,4.79c-.07,3.51,0,7,0,10.55C205.72,39,205.93,39.71,205.16,40.06Z" transform="translate(122.71 0.19)"/><g id="Group_312" data-name="Group 312"><path id="Path_922" data-name="Path 922" d="M205.43,47.67c-1-1.26-2.16-2.46-3.11-3.79A70.1,70.1,0,0,0,189.25,30,71.94,71.94,0,0,0,167.5,18.08a59.63,59.63,0,0,0-8.69-2.44c-4.55-.83-9.1-2-13.81-1.45a27.88,27.88,0,0,0-4.92.14,82.33,82.33,0,0,0-11.46,2.84A76.33,76.33,0,0,0,116,23.07a67,67,0,0,0-16.23,13.4,60.48,60.48,0,0,0-8.44,12.12,70,70,0,0,0-5,11.25,59.44,59.44,0,0,0-2.6,12.85,42.45,42.45,0,0,0-.43,4.9,85.11,85.11,0,0,0,.54,9A64.39,64.39,0,0,0,89,106.12c.42.9.79,1.82,1.22,2.83a7.48,7.48,0,0,1-3.47.5c-1.1,0-2.2,0-3.31,0a15.3,15.3,0,0,1-2.83-5.62A89.91,89.91,0,0,1,77,90.65a66.9,66.9,0,0,1-.65-15.55c.38-6.38,2.19-12.39,4.29-18.34a28.37,28.37,0,0,1,3.08-6.4c1.26-1.88,2.1-4,3.43-5.9A86.69,86.69,0,0,1,97.2,32.55a74.45,74.45,0,0,1,16-11.48A84,84,0,0,1,127.27,15a72.4,72.4,0,0,1,25.16-3.74,7.7,7.7,0,0,0,.83-.05,5.35,5.35,0,0,0,.8.14,61.87,61.87,0,0,1,20,4.23,71.18,71.18,0,0,1,16.36,9.3c1.5,2.23,3.93,3.41,5.86,5.15.74.66,1.27,1.56,2,2.24a59.06,59.06,0,0,1,6.87,8.11C205.72,42.78,205.35,45.23,205.43,47.67Z" transform="translate(122.71 0.19)"/><path id="Path_924" data-name="Path 924" d="M106.16,50.65c.81.1,1.61.22,2.42.29a13.67,13.67,0,0,1,9.15,4.76,8.8,8.8,0,0,1,2,6.85,13.71,13.71,0,0,1-3.4,7.8,14,14,0,0,1-7.17,4.6,12.41,12.41,0,0,1-9.48-.81L97.48,73c-.74-.75-1.53-1.45-2.2-2.26a9.38,9.38,0,0,1-2.12-5.56c.08-.89.12-1.79.23-2.68a5.84,5.84,0,0,1,.36-1.85c2.4-5.19,6-9,12-9.81A2,2,0,0,0,106.16,50.65Zm4.08,21.59.62-.56-.06,0a4.29,4.29,0,0,0,2.28-2.25l.92-1a1.06,1.06,0,0,0,.65-1.11l0,.07c1.21-.91,1.08-2.39,1.5-3.61.93-2.74,0-5.28-1-7.78-.17-.4-.46-.78-1-.64l0,0a2.6,2.6,0,0,0-2.22-2.21l0,0-.56-.42c-7.08-.86-12.88,3.1-14.46,10a10.32,10.32,0,0,0,1.68,9A6.56,6.56,0,0,0,105,74.24a9.11,9.11,0,0,0,4.25-1.48l-.07,0,1.14-.59Z" transform="translate(122.71 0.19)"/><path id="Path_925" data-name="Path 925" d="M102.45,109.36a2.67,2.67,0,0,0-.7-.34c-3.11-.37-5.33-3.92-5.47-7,0-.71,0-1.42.06-2.13a16.13,16.13,0,0,1,.77-2.25c.69-1.4,1.19-3,2.68-3.79a3.41,3.41,0,0,1,0,1c-.18.6-.5,1.16-.7,1.76a7.91,7.91,0,0,0,2.56,8.76c3.57,3.09,9.58,2.08,12.27-.37a5.84,5.84,0,0,0,1-1.22,9.4,9.4,0,0,0,1.11-8.54,6.31,6.31,0,0,0-4.45-4.33c-3.92-1-7.51-.52-10.57,2.36-.36.34-.59,1-1.28.6a1.81,1.81,0,0,1,.8-1.86c3.53-2.85,7.38-4.84,12-4.79a36.12,36.12,0,0,1,4,1.53A6.73,6.73,0,0,1,120.55,95a10.77,10.77,0,0,1-2.31,7.3,41.8,41.8,0,0,1-2.84,3.25,13.55,13.55,0,0,1-7.12,3.6Z" transform="translate(122.71 0.19)"/><path id="Path_926" data-name="Path 926" d="M205.37,91l-2.65,3.26c-.3.19-.62.36-.92.55-3.44,2.27-7.12,3.43-11.27,2.4-2.6-.64-4.66-1.9-5.53-4.61a7,7,0,0,0-.49-.94,9.27,9.27,0,0,1,.63-4.77c.11-.25.33-.58.25-.75-.83-1.65.5-2.5,1.3-3.49a11.31,11.31,0,0,1,7.12-4.07,39,39,0,0,1,4.56-.48,7.81,7.81,0,0,1,7.07,3.17A34.47,34.47,0,0,1,205.37,91Zm-3.71-4a5.63,5.63,0,0,0-1.44-4.18,8.12,8.12,0,0,0-3.83-2.8,2.46,2.46,0,0,0-2,.19,7.63,7.63,0,0,0-3.59,3.44c-.65.61-1.32,1.21-1.93,1.85a1.84,1.84,0,0,0-.5.93A8.8,8.8,0,0,0,190,93.53c2.53,3.08,6.86,3.63,9.54.13,1.5-2,2.7-4.09,2.17-6.74Z" transform="translate(122.71 0.19)"/><path id="Path_927" data-name="Path 927" d="M172.21,98.56a9.42,9.42,0,0,1-2,7.26,9.27,9.27,0,0,1-3.52,2.78l-3.14,1.46-6,0c-.8-.4-1.61-.79-2.4-1.22a5,5,0,0,1-2.83-4.58,4.84,4.84,0,0,1,.06-1.61,3,3,0,0,0-.55-2.42,8.87,8.87,0,0,1,3.72-4.9l.53-.4,0,0a17.73,17.73,0,0,1,6.3-1.38c3.62,0,7,.53,9.46,3.63l0-.06Zm-8.56,9.19c2.28-1.07,3.46-3.12,4.26-5.31a6,6,0,0,0-2.47-6.85,2.78,2.78,0,0,0-2.29-.42,8.85,8.85,0,0,0-6,4.21,4.91,4.91,0,0,1-2.28,2.11c-.12.13-.31.25-.34.4-.43,2.63.24,4.91,2.55,6.36s4.46,1,6.54-.5Z" transform="translate(122.71 0.19)"/><path id="Path_929" data-name="Path 929" d="M194.57,46c.89.15,1.79.24,2.66.46a7.57,7.57,0,0,1,5.67,9.78,12,12,0,0,1-6.81,7.95A22.31,22.31,0,0,1,191,66a8.7,8.7,0,0,1-7.63-1.77,7.55,7.55,0,0,1-2.8-5.91,7.33,7.33,0,0,1,.07-1.62c.18-.88-.43-1.3-1-1.92l.7-2.2.23-.53h0c.56-.57,1.12-1.15,1.7-1.72a13.12,13.12,0,0,1,7.54-3.8C191.36,46.28,193,46.17,194.57,46ZM188.2,63.49l-.07,0c.54.8,1.47.61,2.21.74a4.9,4.9,0,0,0,5.25-1.83c2.69-2.28,2.86-5.29,2.27-8.4-.67-3.55-3.3-5.16-6.43-6.15a9,9,0,0,0-5.38,4.77,5.86,5.86,0,0,1-2.57,3c-.25,3.32.7,5.93,3.76,7.47Z" transform="translate(122.71 0.19)"/><path id="Path_930" data-name="Path 930" d="M175.31,29.66c.5.63,1,1.26,1.5,1.91a8.78,8.78,0,0,1,.89,9.68,11.18,11.18,0,0,1-5.28,5.61c-.81.37-1.56.9-2.37,1.3-3.12,1.5-8.67,2.2-12.57-1.74a8.61,8.61,0,0,1-2.54-7.89,32.72,32.72,0,0,1,.95-3.39c.3-.53.93-1.12.84-1.58-.21-1.12.43-1.68,1.07-2.29A8.66,8.66,0,0,1,161.74,29a54.55,54.55,0,0,1,6.08-1.1c2.37-.31,4.6.57,6.85,1.13l0,0Zm-4.43,16.28c.41,0,.66-.13.6-.59l0,0a4.07,4.07,0,0,0,2.23-3.51,9.4,9.4,0,0,0-5.21-11.61,5.2,5.2,0,0,0-6.39,1.17,5.45,5.45,0,0,1-1.93,1.39,2.6,2.6,0,0,0-1.64,1.64,9.29,9.29,0,0,0,0,7.35l-1.27.36a3.93,3.93,0,0,0,1.85,3.2A16.12,16.12,0,0,0,163,47.11c2.42.58,4.93,1,7.2-.63l.75-.59Z" transform="translate(122.71 0.19)"/><path id="Path_931" data-name="Path 931" d="M137.57,27.81c.53.12,1,.3,1.58.37,3.26.46,4.68,2.77,5.51,5.59a7.69,7.69,0,0,1,.19,3.47,14.21,14.21,0,0,1-3.2,7.33,16.72,16.72,0,0,1-11.13,6A7.76,7.76,0,0,1,121.79,44l-.36-1.86A26.54,26.54,0,0,1,122.56,38a14.29,14.29,0,0,1,4.27-5.8c.43-.32,1-.64,1.17-1.09.53-1.25,1.65-1.61,2.72-2A23.56,23.56,0,0,1,137.57,27.81Zm.65,17c.48,0,.57-.32.67-.67,3.32-4.12,3.1-9.35-.59-12.82a5.55,5.55,0,0,0-6-1.33,9.89,9.89,0,0,0-4,2.56c-3.4,3.41-4.11,7.44-2.89,11.93a2.61,2.61,0,0,0,1.37,1.91c2.87,3.61,8.21,3.48,11.5-1.1.08-.1,0-.33,0-.5Z" transform="translate(122.71 0.19)"/><path id="Path_932" data-name="Path 932" d="M144.64,52.05a8.14,8.14,0,0,1,4.86,1.34,7.76,7.76,0,0,1,3.42,5.29c.61,3.91,0,7.54-2.88,10.52-.69.71-1.33,1.47-2,2.17a11.92,11.92,0,0,1-6.2,3.07,7.88,7.88,0,0,1-9-4.75,11.4,11.4,0,0,1-.76-6.08c.4-1.69,1.76-3.1,1.39-5,0-.2.2-.49.37-.69A11.59,11.59,0,0,1,135.65,56C138.38,54.09,141.23,52.42,144.64,52.05Zm-6.77,19.09,0,0a3.74,3.74,0,0,0,.6.53,6.85,6.85,0,0,0,7.83-.24,7.26,7.26,0,0,0,3-5.16c.92-1.7.69-3.53.41-5.28a7.76,7.76,0,0,0-6.94-6.56,4,4,0,0,0-3.31.83q-1.89,1.71-3.65,3.56a3.64,3.64,0,0,0-.69,1.46c-1.19,3.91-.77,7.48,2.25,10.5Z" transform="translate(122.71 0.19)"/><path id="Path_933" data-name="Path 933" d="M164.27,83.27c-1.23-.71-2.65-1-3.73-2.09a8.41,8.41,0,0,1-2.81-7.24,4.24,4.24,0,0,0,.12-1.33c-.1-.37-.48-.67-.88-1.18a4.17,4.17,0,0,1,1.59-2.74c3.47-2.89,11.14-5.1,16.18-.67l.52.5,0,0a28.32,28.32,0,0,1,1.27,2.94,8,8,0,0,1-2.11,8.62,14.27,14.27,0,0,1-3.07,2.1A11.81,11.81,0,0,1,164.27,83.27Zm-3.78-8.15c.25,3.1,2.42,4.7,4.83,6,3.51,1.94,5.7.57,7.21-2.88s-1.61-9.92-6.45-10.79a2.5,2.5,0,0,0-2,.54,11.72,11.72,0,0,0-2.48,3.16c-.71.14-1.44.34-1.5,1.18s-.31,1.92.39,2.75Z" transform="translate(122.71 0.19)"/><path id="Path_934" data-name="Path 934" d="M132.1,95.61c-2.31-1.28-3.22-3.53-3.92-5.87a5.4,5.4,0,0,1,0-2.4,8.46,8.46,0,0,1,7-6.94c.7-.13,1.42-.18,2.13-.27a29.11,29.11,0,0,1,4.26.7c2.46.78,4.65,2,5.57,4.7,1.45,4.19-.06,8.35-4.13,10.21a11.67,11.67,0,0,1-7.69.49C134.22,96,133.16,95.81,132.1,95.61Zm5.38.22A6,6,0,0,0,142.6,93a8,8,0,0,0,1.13-5.7A6.51,6.51,0,0,0,139.66,82a2.79,2.79,0,0,0-1.56-.21A7,7,0,0,0,133.65,92,11.72,11.72,0,0,0,137.48,95.83Z" transform="translate(122.71 0.19)"/></g><path id="Path_944" data-name="Path 944" class="cls-3" d="M172.3,98.56l-.41-1.46A1.25,1.25,0,0,1,172.3,98.56Z" transform="translate(122.71 0.19)"/><path id="Path_945" data-name="Path 945" class="cls-3" d="M156,94.89l-.53.4Z" transform="translate(122.71 0.19)"/><path id="Path_946" data-name="Path 946" class="cls-3" d="M175.31,68.43l-.52-.5Z" transform="translate(122.71 0.19)"/><path id="Path_947" data-name="Path 947" class="cls-3" d="M180.14,52l-.22.52C180,52.33,180.07,52.15,180.14,52Z" transform="translate(122.71 0.19)"/><path id="Path_948" data-name="Path 948" class="cls-3" d="M175.35,29.62l-.66-.64Z" transform="translate(122.71 0.19)"/><path id="Path_950" data-name="Path 950" class="cls-4" d="M99,71.84c.57.24,1.13.5,1.72.71a10,10,0,0,0,6,.64,21.79,21.79,0,0,1,2.91-.34,9.11,9.11,0,0,1-4.24,1.48A6.57,6.57,0,0,1,99,71.84Z" transform="translate(122.71 0.19)"/><path id="Path_951" data-name="Path 951" class="cls-4" d="M115.2,67.36c.24-1.23.41-2.49.74-3.69a10.21,10.21,0,0,0-.83-7.08c-.18-.41-.3-.84-.45-1.26.56-.14.86.24,1,.64,1,2.5,1.95,5,1,7.78C116.27,65,116.4,66.45,115.2,67.36Z" transform="translate(122.71 0.19)"/><path id="Path_952" data-name="Path 952" class="cls-4" d="M111.32,71.79l2.29-2.24A4.22,4.22,0,0,1,111.32,71.79Z" transform="translate(122.71 0.19)"/><path id="Path_953" data-name="Path 953" class="cls-4" d="M114.66,55.29l-2.22-2.21A2.6,2.6,0,0,1,114.66,55.29Z" transform="translate(122.71 0.19)"/><path id="Path_954" data-name="Path 954" class="cls-4" d="M109.66,72.87l1.13-.59Z" transform="translate(122.71 0.19)"/><path id="Path_955" data-name="Path 955" class="cls-4" d="M114.56,68.47l.66-1.11A1.06,1.06,0,0,1,114.56,68.47Z" transform="translate(122.71 0.19)"/><path id="Path_956" data-name="Path 956" class="cls-4" d="M110.75,72.31l.63-.55Z" transform="translate(122.71 0.19)"/><path id="Path_957" data-name="Path 957" class="cls-4" d="M112.47,53.12l-.55-.42Z" transform="translate(122.71 0.19)"/><path id="Path_960" data-name="Path 960" class="cls-4" d="M201.66,86.67c-.68-.56-1.4-1.09-2-1.69A6.06,6.06,0,0,0,195,83.16l-4.28.16a7.63,7.63,0,0,1,3.59-3.44,2.46,2.46,0,0,1,2-.19,8.12,8.12,0,0,1,3.83,2.8A5.63,5.63,0,0,1,201.66,86.67Z" transform="translate(122.71 0.19)"/><path id="Path_962" data-name="Path 962" class="cls-4" d="M154.82,101.5c1.25,3.69,4.06,5.41,7.7,6.08l1,.17c-2.08,1.51-4.33,1.89-6.55.5s-3-3.73-2.54-6.36C154.5,101.74,154.7,101.63,154.82,101.5Z" transform="translate(122.71 0.19)"/><path id="Path_964" data-name="Path 964" class="cls-4" d="M188.13,63.54a14.41,14.41,0,0,0,7.45-1.1,4.86,4.86,0,0,1-5.24,1.84C189.6,64.15,188.67,64.35,188.13,63.54Z" transform="translate(122.71 0.19)"/><path id="Path_965" data-name="Path 965" class="cls-4" d="M187.24,63.1l1,.47Z" transform="translate(122.71 0.19)"/><path id="Path_967" data-name="Path 967" class="cls-1" d="M158.44,41.94c3.76,3.55,8,4.06,12.63,2,.11.53.21,1.07.31,1.61l0,0-.6.59.06,0-.75.6c-2.27,1.61-4.78,1.21-7.21.63A16.66,16.66,0,0,1,159,45.5a3.91,3.91,0,0,1-1.85-3.2Z" transform="translate(122.71 0.19)"/><path id="Path_968" data-name="Path 968" class="cls-4" d="M171.47,45.5c-.1-.53-.21-1.07-.31-1.61L173.7,42A4.08,4.08,0,0,1,171.47,45.5Z" transform="translate(122.71 0.19)"/><path id="Path_969" data-name="Path 969" class="cls-4" d="M170.16,46.62l.75-.59Z" transform="translate(122.71 0.19)"/><path id="Path_970" data-name="Path 970" class="cls-4" d="M170.86,46.07l.6-.6C171.52,45.94,171.27,46.08,170.86,46.07Z" transform="translate(122.71 0.19)"/><path id="Path_972" data-name="Path 972" class="cls-4" d="M126.79,46.53c1.52,0,3,0,4.55,0a11.62,11.62,0,0,0,5.93-1.29,6,6,0,0,1,1-.33c0,.17.09.4,0,.51C135,50,129.66,50.13,126.79,46.53Z" transform="translate(122.71 0.19)"/><path id="Path_973" data-name="Path 973" class="cls-4" d="M138.33,44.93l.66-.68C138.9,44.6,138.8,45,138.33,44.93Z" transform="translate(122.71 0.19)"/><path id="Path_975" data-name="Path 975" class="cls-4" d="M137.87,71.18c.35,0,.71,0,1.07,0,4.1.42,7.27-1.25,9.78-4.38a4.29,4.29,0,0,1,.59-.54,7.28,7.28,0,0,1-3,5.16,6.85,6.85,0,0,1-7.83.24A4.22,4.22,0,0,1,137.87,71.18Z" transform="translate(122.71 0.19)"/><path id="Path_976" data-name="Path 976" class="cls-4" d="M137.29,70.82l.5.38Z" transform="translate(122.71 0.19)"/><path id="Path_978" data-name="Path 978" class="cls-4" d="M161.44,71.15l-1.11,3.93c-.7-.83-.46-1.82-.4-2.75S160.73,71.29,161.44,71.15Z" transform="translate(122.71 0.19)"/><g id="Group_311" data-name="Group 311"><path id="Path_928" data-name="Path 928" class="cls-5" d="M105.72,50.79c-6,.83-9.56,4.62-12,9.81a6.14,6.14,0,0,0-.36,1.85c-.1.89-.15,1.79-.22,2.68a16.53,16.53,0,0,1-.24-6.42,9.17,9.17,0,0,1,3.31-6,7.07,7.07,0,0,1,4.11-1.88A16.13,16.13,0,0,1,105.72,50.79Z" transform="translate(122.71 0.19)"/><path id="Path_935" data-name="Path 935" class="cls-5" d="M132.17,95.61c1.05.2,2.11.38,3.16.62a11.65,11.65,0,0,0,7.68-.49c4.08-1.86,5.59-6,4.14-10.21-.93-2.65-3.11-3.91-5.57-4.7a29.33,29.33,0,0,0-4.26-.7c5.8-1.52,11.33,1.1,13.26,6.77a8.09,8.09,0,0,1,.08,4.55,11.58,11.58,0,0,1-5.11,7.1,10.35,10.35,0,0,1-9.12,1A7.73,7.73,0,0,1,132.17,95.61Z" transform="translate(122.71 0.19)"/><path id="Path_936" data-name="Path 936" class="cls-5" d="M137.5,27.76A23.56,23.56,0,0,0,130.65,29c-1.07.4-2.2.76-2.72,2-.19.45-.74.77-1.17,1.09a14.2,14.2,0,0,0-4.27,5.8,25.76,25.76,0,0,0-1.13,4.13c-2-3.76-2.32-7.49.34-11.1A8.67,8.67,0,0,1,123,29.58a17.51,17.51,0,0,1,5.52-3.3C131.73,25.11,134.82,25.28,137.5,27.76Z" transform="translate(122.71 0.19)"/><path id="Path_937" data-name="Path 937" class="cls-5" d="M184.51,91.63a6.45,6.45,0,0,1,.49.94c.87,2.71,2.93,4,5.53,4.61,4.15,1,7.83-.14,11.27-2.4.3-.2.61-.37.92-.55a7.64,7.64,0,0,1-7.62,7.23,15.33,15.33,0,0,1-5.35-.5,6.77,6.77,0,0,1-3.88-3.16A8.5,8.5,0,0,1,184.51,91.63Z" transform="translate(122.71 0.19)"/><path id="Path_938" data-name="Path 938" class="cls-5" d="M112.24,87.21c-4.67,0-8.53,1.94-12,4.79a1.81,1.81,0,0,0-.8,1.86l0,0c-1.48.84-2,2.4-2.68,3.79A17.89,17.89,0,0,0,96,99.86a8,8,0,0,1,.28-8C99,86.9,102.92,85,109,86.07,110.11,86.26,111.35,86.28,112.24,87.21Z" transform="translate(122.71 0.19)"/><path id="Path_939" data-name="Path 939" class="cls-5" d="M164.33,83.29a11.88,11.88,0,0,0,7-1.11,14.64,14.64,0,0,0,3.07-2.1,8,8,0,0,0,2.1-8.63,29.2,29.2,0,0,0-1.26-2.94,5.83,5.83,0,0,1,1.42.69,8.94,8.94,0,0,1,2.64,9.14c-.78,3.38-3.24,5.24-6.59,6a17.37,17.37,0,0,1-4.82.44A4.61,4.61,0,0,1,164.33,83.29Z" transform="translate(122.71 0.19)"/><path id="Path_940" data-name="Path 940" class="cls-5" d="M174.62,29c-2.26-.55-4.48-1.44-6.85-1.13a59.38,59.38,0,0,0-6.07,1.1,8.79,8.79,0,0,0-3.95,2.25c-.64.61-1.27,1.17-1.06,2.29.08.46-.55,1.06-.85,1.59a7.36,7.36,0,0,1,3.09-7.32,20.38,20.38,0,0,1,6.2-3.23c4.14-1.28,6.93.36,9,2.72A1.88,1.88,0,0,1,174.62,29Z" transform="translate(122.71 0.19)"/><path id="Path_941" data-name="Path 941" class="cls-5" d="M171.84,97.16c-2.43-3.1-5.84-3.62-9.46-3.63a17.91,17.91,0,0,0-6.3,1.39c.58-2.09,2.28-3,4.11-3.45a12,12,0,0,1,6.9.08A6.78,6.78,0,0,1,171.84,97.16Z" transform="translate(122.71 0.19)"/><path id="Path_942" data-name="Path 942" class="cls-5" d="M144.56,52c-3.41.37-6.26,2-9,3.93a11.59,11.59,0,0,0-1.85,1.92c-.17.2-.41.49-.37.69.37,1.91-1,3.33-1.39,5a7.5,7.5,0,0,1,1.82-8.6A10.53,10.53,0,0,1,144.56,52Z" transform="translate(122.71 0.19)"/><path id="Path_943" data-name="Path 943" class="cls-5" d="M194.57,45.92c-1.6.16-3.21.28-4.8.5a13.09,13.09,0,0,0-7.55,3.8l-1.7,1.72a7.18,7.18,0,0,1,4.79-6.54C188.46,44.13,191.58,44,194.57,45.92Z" transform="translate(122.71 0.19)"/><path id="Path_949" data-name="Path 949" class="cls-5" d="M99,71.74a10.32,10.32,0,0,1-1.68-9c1.58-6.87,7.38-10.83,14.47-10l.55.42,0,0,2.22,2.21,0,0c.15.42.27.85.45,1.26a10.28,10.28,0,0,1,.83,7.08c-.33,1.21-.5,2.46-.74,3.69l0-.06-.66,1.11-.91,1-2.29,2.24.07,0-.62.56.05,0-1.14.58.07,0a21.81,21.81,0,0,0-2.91.35,10.08,10.08,0,0,1-6-.64C100.1,72.25,99.53,72,99,71.74Z" transform="translate(122.71 0.19)"/><path id="Path_958" data-name="Path 958" class="cls-5" d="M99.78,93.86c.69.37.92-.26,1.28-.6,3-2.88,6.65-3.35,10.57-2.36a6.33,6.33,0,0,1,4.45,4.33,9.41,9.41,0,0,1-1.12,8.53,5.61,5.61,0,0,1-1,1.23c-2.68,2.45-8.7,3.46-12.27.37a7.91,7.91,0,0,1-2.55-8.76c.19-.6.51-1.16.7-1.76a3.81,3.81,0,0,0,0-1Z" transform="translate(122.71 0.19)"/><path id="Path_959" data-name="Path 959" class="cls-5" d="M201.66,86.92c.53,2.65-.67,4.77-2.17,6.74-2.68,3.5-7,3-9.54-.13a8.8,8.8,0,0,1-1.63-7.18,1.84,1.84,0,0,1,.5-.93c.61-.64,1.28-1.24,1.93-1.85l4.27-.16a6.07,6.07,0,0,1,4.59,1.82C200.26,85.83,201,86.36,201.66,86.92Z" transform="translate(122.71 0.19)"/><path id="Path_961" data-name="Path 961" class="cls-5" d="M154.87,101.49a4.89,4.89,0,0,0,2.27-2.11,8.89,8.89,0,0,1,6-4.21,2.76,2.76,0,0,1,2.28.42,6.06,6.06,0,0,1,2.48,6.85c-.8,2.2-2,4.24-4.26,5.3-.35,0-.7-.1-1.05-.17C158.93,106.91,156.12,105.19,154.87,101.49Z" transform="translate(122.71 0.19)"/><path id="Path_963" data-name="Path 963" class="cls-5" d="M187.24,63c-3.07-1.54-4-4.14-3.76-7.47a5.84,5.84,0,0,0,2.57-2.95,9,9,0,0,1,5.38-4.78c3.13,1,5.76,2.61,6.43,6.15.59,3.12.42,6.13-2.28,8.4a14.43,14.43,0,0,1-7.45,1.1l.07,0Z" transform="translate(122.71 0.19)"/><path id="Path_966" data-name="Path 966" class="cls-5" d="M158.48,41.84a9.23,9.23,0,0,1,0-7.36,2.58,2.58,0,0,1,1.64-1.64A5.38,5.38,0,0,0,162,31.45a5.21,5.21,0,0,1,6.39-1.17,9.4,9.4,0,0,1,5.21,11.61c-.84.64-1.69,1.27-2.54,1.9C166.47,45.89,162.24,45.39,158.48,41.84Z" transform="translate(122.71 0.19)"/><path id="Path_971" data-name="Path 971" class="cls-5" d="M126.8,46.4a2.63,2.63,0,0,1-1.37-1.91c-1.23-4.49-.52-8.53,2.89-11.94a10,10,0,0,1,4-2.56,5.57,5.57,0,0,1,6,1.33c3.69,3.48,3.91,8.7.59,12.83l-.66.67.05,0a5.1,5.1,0,0,0-1,.33,11.76,11.76,0,0,1-5.94,1.29C129.83,46.38,128.31,46.4,126.8,46.4Z" transform="translate(122.71 0.19)"/><path id="Path_974" data-name="Path 974" class="cls-5" d="M137.37,70.75c-3-3-3.45-6.59-2.26-10.5a3.64,3.64,0,0,1,.69-1.46q1.75-1.86,3.65-3.57a4,4,0,0,1,3.31-.82A7.75,7.75,0,0,1,149.7,61a8,8,0,0,1-.41,5.28,5,5,0,0,0-.59.53c-2.52,3.14-5.68,4.81-9.79,4.39-.35,0-.71,0-1.07,0h0Z" transform="translate(122.71 0.19)"/><path id="Path_977" data-name="Path 977" class="cls-5" d="M161.57,71.19A11.34,11.34,0,0,1,164.05,68a2.48,2.48,0,0,1,2-.54c4.84.87,8,7.2,6.44,10.79s-3.7,4.82-7.2,2.87c-2.41-1.33-4.58-2.94-4.83-6Z" transform="translate(122.71 0.19)"/><path id="Path_979" data-name="Path 979" class="cls-5" d="M137.49,95.83A11.72,11.72,0,0,1,133.66,92a7,7,0,0,1,4.45-10.25,2.79,2.79,0,0,1,1.56.21,6.49,6.49,0,0,1,4.07,5.31,8,8,0,0,1-1.13,5.7A6,6,0,0,1,137.49,95.83Z" transform="translate(122.71 0.19)"/></g></g><g id="Layer_3_Image" data-name="Layer 3 Image"><path id="Path_980" data-name="Path 980" d="M51.92,30.76a85,85,0,0,0-6.34-7.93,10,10,0,0,0-1.27.63L22.22,38.41c-.37.25-.74.52-1.14.74-.78.42-1.46,1.22-2.43,1a6.22,6.22,0,0,1-3.83-1.88c-.58-.69-1.07-1.46-1.53-2.09a3.33,3.33,0,0,1,1.85-2.41Q27.08,26.48,39,19.13c1.93-1.18,3.82-2.43,5.76-3.6a5,5,0,0,1,6.85.9c2,2,3.84,4.13,5.74,6.21,1.4,1.54,2.79,3.09,4.21,4.67,1.1-.28,2-.52,3-.78a95.48,95.48,0,0,1,16.75-3.31,26,26,0,0,1,6.48.1,5.93,5.93,0,0,1,4.92,4.16c.58,1.54,1.07,3.11,1.68,4.63a4.86,4.86,0,0,1-.52,4.69c-1.58-1.57-1.27-3.75-2-5.43-.67-.35-.94.11-1.25.38a34.52,34.52,0,0,1-6.46,4.52A108.34,108.34,0,0,1,48.7,48.5a30.79,30.79,0,0,1-9.19.4,5.83,5.83,0,0,0-1.65.33c2.47,4.64,4.07,9.46,6,14.14s3.7,9.33,5.54,14,3.74,9.51,5.6,14.26l5.49,14a8.21,8.21,0,0,1,.64,1.8,1.66,1.66,0,0,1-.46,1.17,1.07,1.07,0,0,1-1.5.16,1.11,1.11,0,0,1-.31-.4,59.92,59.92,0,0,1-2.79-5.62c-4-10.08-8-20.19-11.95-30.3-3.13-8-6.21-16-9.42-23.94a8.64,8.64,0,0,1-.53-4.24,5.59,5.59,0,0,1,.73-2,4.81,4.81,0,0,1,1-1.24c4.35-3.89,8.79-7.63,14.4-9.58C50.75,31.3,51.16,31.09,51.92,30.76Zm15.7,3.62c-1.2,3.1-3.3,4.52-6.31,4.57a3.27,3.27,0,0,1-2.84-1.22c-1.1-1.32-2.37-2.51-3.53-3.78a2.19,2.19,0,0,0-2.43-.76A16.46,16.46,0,0,0,49,34.55c-3.09,1.88-6.12,3.87-9.12,5.9a20.29,20.29,0,0,0-2.68,2.31A8.13,8.13,0,0,0,36,44.24c-.79,1.27-.46,2.08,1,2.35a11.85,11.85,0,0,0,1.88.18,48.29,48.29,0,0,0,11.31-1c3.72-.75,7.36-1.8,11-2.81a88.73,88.73,0,0,0,12.75-4.55,66.17,66.17,0,0,0,11.48-6.12,43.29,43.29,0,0,0,4.17-3.49,2.65,2.65,0,0,0,1.13-2.42,5.37,5.37,0,0,0-.94-.44,6.23,6.23,0,0,0-1.6-.27,61,61,0,0,0-6.76.16,80,80,0,0,0-15.82,3.65,11.08,11.08,0,0,0-1.28.67Z" transform="translate(122.71 0.19)"/><path id="Path_981" data-name="Path 981" class="cls-1" d="M67.62,34.17,64.31,30a10.32,10.32,0,0,1,1.28-.66,80.27,80.27,0,0,1,15.82-3.62,61,61,0,0,1,6.76-.15,5.76,5.76,0,0,1,1.6.26,4.73,4.73,0,0,1,.94.44,2.61,2.61,0,0,1-1.13,2.4,42.91,42.91,0,0,1-4.16,3.44,65.65,65.65,0,0,1-11.49,6.06,89.73,89.73,0,0,1-12.75,4.5c-3.65,1-7.3,2-11,2.78a48.73,48.73,0,0,1-11.3,1A11.85,11.85,0,0,1,37,46.25c-1.43-.27-1.76-1.07-1-2.33a7.24,7.24,0,0,1,1.19-1.46,20.82,20.82,0,0,1,2.67-2.29c3-2,6-4,9.13-5.83A16.2,16.2,0,0,1,52.52,33a2.2,2.2,0,0,1,2.43.75c1.16,1.26,2.42,2.43,3.53,3.74a3.27,3.27,0,0,0,2.84,1.2A6.36,6.36,0,0,0,67.62,34.17Z" transform="translate(122.71 0.19)"/></g></g></svg>