<svg xmlns="http://www.w3.org/2000/svg" width="139.822" height="110" viewBox="0 0 139.822 110">
  <g id="Group_288" data-name="Group 288" transform="translate(-838.234 -1290.708)">
    <g id="Layer_6_Image" data-name="Layer 6 Image" transform="translate(853.178 1290.735)">
      <path id="Path_984" data-name="Path 984" d="M884.905,1290.942h10.4c3.688,0,7.378.059,11.064-.026a11.423,11.423,0,0,1,5.449,1.3c1.058.541,2.194.93,3.388,1.426.532-.845.952-1.806,1.519-2.707h2.137q28.077-.008,56.153-.031a15.045,15.045,0,0,1,7.43,2.193,10.906,10.906,0,0,1,4.833,5.493c.211.51.363,1.05.618,1.537a3.777,3.777,0,0,1-.148,3.663c-2.1,4.4-4.093,8.863-6.127,13.3-.038.083-.093.16-.128.244-.634,1.493-.536,1.941.809,2.722s2.755,1.489,4.139,2.218c.649.342,1.308.662,1.9.96a4.4,4.4,0,0,1,.422,2.759c.122,12.537.274,25.074.3,37.611.016,8.112-.192,16.224-.238,24.336a8.9,8.9,0,0,1-1.344,5.245c-.513.75-.761,1.675-1.2,2.483-1.6,2.933-4.344,3.828-7.237,2.146a100.505,100.505,0,0,0-13.836-6.146c-1.2-.473-2.368-1.01-3.538-1.546a7.329,7.329,0,0,0-3.947-1.041,2.207,2.207,0,0,1-1.293-.4,20.228,20.228,0,0,0-4.329-1.773c-1.244-.435-2.725-.636-3.191-2.313-.109-.39-.823-.719-1.321-.874-1.566-.486-3.162-.877-4.81-1.322-3.545,5.577-5.357,11.78-7.753,17.856a17.753,17.753,0,0,1-1.843.256c-3.777.145-7.555.3-11.334.364a8.989,8.989,0,0,1-2.974-.441q-16.624-5.617-33.221-11.316a8.768,8.768,0,0,1-1.034-.383,2.926,2.926,0,0,1-1.6-3.435c.3-1.062.691-2.1,1.066-3.14q3.888-10.788,7.785-21.573c.276-.765.515-1.544.824-2.471-.831-.4-1.535-.8-2.28-1.1-6.593-2.618-13.2-5.2-19.787-7.832-1.452-.58-2.872-1.251-4.263-1.963a3.619,3.619,0,0,1-2.127-4.085,16.092,16.092,0,0,1,.628-2.4c1.376-4.6,3.334-8.973,5.153-13.4q6.982-17,13.963-34C884.291,1292.587,884.555,1291.679,884.905,1290.942Z" transform="translate(-864.187 -1290.9)" fill="#da291c"/>
    </g>
    <g id="Layer_5_Image" data-name="Layer 5 Image" transform="translate(838.234 1290.708)">
      <path id="Path_985" data-name="Path 985" d="M864.422,1291.377c-.36.75-.692,1.335-.927,1.956-.368.973-.648,1.979-1.008,2.956-.46,1.245-.974,2.469-1.445,3.71-.745,1.968-1.45,3.95-2.213,5.911-.732,1.883-1.536,3.738-2.272,5.62-.49,1.253-.89,2.542-1.375,3.8-.875,2.264-1.792,4.511-2.673,6.772-.435,1.118-.806,2.262-1.245,3.378-.834,2.124-1.7,4.235-2.544,6.357-.356.9-.677,1.8-1.015,2.708-.426,1.138-.845,2.277-1.28,3.411q-1.052,2.739-2.122,5.469c-.156.4-.322.793-.5,1.228.942.367,1.888.72,2.821,1.1.951.389,1.885.818,2.835,1.21q2.872,1.187,5.754,2.353,2.388.97,4.78,1.928c2.781,1.114,5.571,2.2,8.343,3.342,1.748.716,3.465,1.512,5.207,2.244.77.324,1.569.579,2.357.866l-11.517,31.122,33.139,11.776-.017.155c-.186.016-.372.046-.558.046-2.789,0-5.579.051-8.365-.021a8.316,8.316,0,0,1-2.444-.593c-2.46-.861-4.9-1.769-7.349-2.668-2.682-.987-5.358-1.989-8.039-2.977-2.046-.754-4.077-1.552-6.148-2.23a8.624,8.624,0,0,1-4.6-3.846c-.518-.8-.172-1.483.135-2.191.6-1.379,1.214-2.748,1.809-4.127.957-2.217,1.919-4.431,2.849-6.66,1.075-2.578,2.1-5.175,3.178-7.753.743-1.787,1.53-3.556,2.293-5.334a7.39,7.39,0,0,0,.476-1.24.744.744,0,0,0-.225-.649,8.629,8.629,0,0,0-1.311-.548c-1.369-.531-2.741-1.053-4.107-1.589-.973-.382-1.936-.792-2.91-1.172-1.287-.5-2.583-.979-3.869-1.482-.792-.309-1.566-.662-2.359-.97-1.659-.646-3.329-1.265-4.987-1.915-1.218-.478-2.419-1-3.637-1.479-.769-.3-1.561-.545-2.333-.843-1.025-.4-2.041-.817-3.06-1.228-.837-.338-1.671-.685-2.511-1.014a1.29,1.29,0,0,0-.654-.151c-.69-.256-.587-.311-.453-.693.453-1.288.907-2.577,1.4-3.849,1.117-2.865,2.261-5.721,3.391-8.581.519-1.316,1.025-2.638,1.547-3.952.553-1.393,1.133-2.773,1.674-4.17.66-1.7,1.279-3.417,1.939-5.117.5-1.276,1.041-2.532,1.543-3.805.736-1.868,1.452-3.745,2.181-5.616q.636-1.633,1.287-3.259c.731-1.833,1.47-3.663,2.2-5.5.582-1.462,1.152-2.929,1.732-4.391s1.151-2.9,1.741-4.351c.39-.957.816-1.9,1.206-2.857a.826.826,0,0,1,.873-.606C862.1,1291.395,863.154,1291.377,864.422,1291.377Z" transform="translate(-838.234 -1291.368)"/>
      <path id="Path_986" data-name="Path 986" d="M1037.922,1462.489l5.233-10.948a5.39,5.39,0,0,1,.059.569c-.012,1.844-.014,3.688-.058,5.531a2.288,2.288,0,0,1-.29,1.041c-.706,1.241-1.452,2.46-2.193,3.68a2.06,2.06,0,0,1-.474.588,14.369,14.369,0,0,1-4.026,2.49,1.208,1.208,0,0,1-.739-.08c-1.349-.514-2.68-1.076-4.033-1.578-2.5-.929-5.022-1.817-7.527-2.743-1.686-.623-3.356-1.287-5.037-1.922-1.4-.53-2.82-1.026-4.219-1.569-1.579-.613-3.143-1.263-4.715-1.891q-1.568-.628-3.141-1.242c-1.068-.421-2.144-.824-3.2-1.265-.44-.183-.629-.193-.821.36-.973,2.8-2.023,5.574-3.031,8.362-.53,1.466-1.022,2.945-1.552,4.41-.06.164-.263.391-.4.393-1.65.028-3.3.018-5.059.018.518-1.4.987-2.688,1.466-3.969.72-1.928,1.452-3.853,2.17-5.782.572-1.539,1.148-3.076,1.69-4.625.406-1.16.791-2.33,1.127-3.512.15-.527.115-1.132.953-.895.065.019.175-.121.28-.2l.09.588.468-.73c1.229.554,2.458,1.132,3.707,1.661.832.353,1.695.635,2.543.953q.886.333,1.766.679c1.125.444,2.249.888,3.37,1.343,1.319.537,2.631,1.09,3.951,1.627,1.744.709,3.5,1.392,5.236,2.116,1.977.823,3.937,1.69,5.913,2.516.849.355,1.727.642,2.582.986.932.376,1.84.815,2.782,1.164.689.256,1.431.366,2.121.621C1035.859,1461.586,1036.785,1462.011,1037.922,1462.489Z" transform="translate(-903.523 -1357.172)"/>
      <path id="Path_987" data-name="Path 987" d="M1034.1,1291.089c2.48,0,4.968-.109,7.438.052a10.34,10.34,0,0,1,3,1.1c1.26.521,2.5,1.086,3.758,1.618a5.306,5.306,0,0,1,3.021,4.107,1.572,1.572,0,0,1-.175.777,19.356,19.356,0,0,0-1.232,3.5,28.945,28.945,0,0,1-1.373,4.619c-.609,1.889-1.359,3.733-2.035,5.6q-1.061,2.937-2.093,5.885c-.694,1.992-1.366,3.992-2.045,5.99-.029.085-.039.176-.085.388,1.265.545,2.542,1.087,3.811,1.646.973.428,1.931.889,2.9,1.316,2.54,1.115,5.086,2.217,7.628,3.329,1.259.552,2.518,1.105,3.767,1.678a.583.583,0,0,1,.313.393c.025,1.147.014,2.3.014,3.521-.907-.319-1.773-.59-2.612-.929-.8-.322-1.555-.74-2.349-1.071-1.122-.468-2.261-.9-3.393-1.341-2.052-.807-4.092-1.642-6.156-2.416-2.382-.893-4.788-1.72-7.174-2.6a10.987,10.987,0,0,1-1.5-.759c-.632-.352-.341-1.022-.428-1.525a1.853,1.853,0,0,1,.6-1.821c.3-.262.339-.819.5-1.24.346-.891.7-1.779,1.045-2.671q.543-1.41,1.072-2.825c.549-1.464,1.091-2.93,1.64-4.395.581-1.548,1.161-3.1,1.751-4.642,1.056-2.762,2.109-5.524,3.186-8.277.3-.771.662-1.521,1.036-2.26.217-.429.067-.6-.328-.769q-5.824-2.53-11.636-5.085c-.649-.283-1.308-.544-1.962-.815Z" transform="translate(-921.035 -1290.854)"/>
      <path id="Path_988" data-name="Path 988" d="M926.047,1290.737c-.994,2.646-2.2,5.468-3.178,8.108-.368.988-.7,1.992-1.056,2.983-.15.413-.357.591-.868.375-1.729-.729-3.486-1.388-5.23-2.08-2.163-.858-4.33-1.707-6.483-2.588-1.848-.755-3.673-1.567-5.521-2.322-1.182-.483-2.392-.9-3.582-1.364q-1.977-.77-3.94-1.577a27.822,27.822,0,0,1-2.7-1.536c1.066-.051,2.332.037,3.4,0,1.519-.053,3,.161,4.505,0a9.084,9.084,0,0,1,4.577,1.132c1.389.587,2.762,1.209,4.138,1.827q2.363,1.062,4.717,2.146c1.179.542,2.342,1.123,3.538,1.621.154.065.6-.2.692-.411.574-1.256,1.086-2.54,1.618-3.814.262-.628.509-1.261.793-1.879.077-.169.215-.617.352-.62C923.135,1290.705,924.706,1290.737,926.047,1290.737Z" transform="translate(-861.67 -1290.708)"/>
    </g>
  </g>
</svg>
