<svg id="Layer_1" data-name="Layer 1" xmlns="http://www.w3.org/2000/svg" viewBox="0 0 333 131"><defs><style>.cls-1{fill:#fff;}.cls-2{fill:#da291c;}.cls-3{fill:#ffc829;}.cls-4{fill:none;}</style></defs><title>restaurants</title><rect id="Rectangle_24-2" data-name="Rectangle 24-2" class="cls-1" y="11" width="329" height="110" rx="12"/><g id="Group_283" data-name="Group 283"><g id="From_selection_Image" data-name="From selection Image"><path id="Path_884" data-name="Path 884" class="cls-2" d="M98.14,72.88c5.17-2.29,10.33-4.59,15.52-6.84,1.4-.61,2.88-1,4.33-1.52a8.75,8.75,0,0,1,1.69-.35c2.06-.19,3,1.09,2.18,3a3.24,3.24,0,0,0-.19,2.19A124.67,124.67,0,0,1,125,91.56a38.23,38.23,0,0,0,.45,4c.57,3.79.63,7.65,1.55,11.39a5.19,5.19,0,0,1,.13,1.42,1.89,1.89,0,0,1-1.75,1.94,19.57,19.57,0,0,1-2.3.1c-13.42,0-26.84,0-40.26.1a5.11,5.11,0,0,1-4.44-2.05c-3-3.86-5.76-7.9-6.9-12.79-.37-1.58-.8-3.15-1.2-4.73A3.11,3.11,0,0,1,72,87.12c2.18-1.22,4.29-2.54,6.46-3.77,3.58-2,7.15-4.09,10.77-6,2.28-1.23,4.64-2.29,6.95-3.43Z" transform="translate(124.71 10.5)"/><path id="Path_885" data-name="Path 885" class="cls-3" d="M94.26,72.29c-.45.23-.72.33-1,.48-1.85,1.21-2.81,1-4-.82-.85-1.39-1.62-2.83-2.42-4.25C83.66,61.86,80.32,56,77.1,50.16c-1.46-2.69-2.71-5.49-4-8.27a1.3,1.3,0,0,1,.31-1.8.94.94,0,0,1,.26-.14,8,8,0,0,1,.75-.43c2.25-1.18,2.93-1,3.91,1.42A207,207,0,0,0,88.64,61.79c.78,1.41,1.53,2.83,2.44,4.52a2.69,2.69,0,0,0-.25-2.43c-1.51-3.1-3.1-6.16-4.63-9.25q-3.27-6.56-6.49-13.13a9.66,9.66,0,0,1-.7-1.88,1.7,1.7,0,0,1,1-2.19,1.72,1.72,0,0,1,.5-.11,9.74,9.74,0,0,0,1.7-.2,2.23,2.23,0,0,1,2.9,1.18c.91,1.57,1.71,3.21,2.56,4.82.4.76.79,1.52,1.24,2.39.43-.88.31-1.95,1.36-2.17,1.23-.25,1.61.77,2.17,1.53,1.12,1.55,2.27,3.09,3.41,4.63a53.39,53.39,0,0,1,6.37,11.22,28,28,0,0,1,1.27,4.69,2.53,2.53,0,0,1-.23,1.38,1.35,1.35,0,0,1-1.82.61,1,1,0,0,1-.36-.26,8.73,8.73,0,0,1-1-1.71c-1.42-2.82-2.78-5.68-4.23-8.49-1-1.87-2-3.69-3.06-5.52a9.34,9.34,0,0,0-.91-1.07,4.3,4.3,0,0,0,.1,1.08q3,6.23,6,12.43c.8,1.65,1.8,3.24.37,5.07-.19.24,0,.73-.06,1.11C98.18,71,94.86,72.8,94.26,72.29Zm-3-22.57.09-.17-.14,0Z" transform="translate(124.71 10.5)"/><path id="Path_886" data-name="Path 886" class="cls-3" d="M98.57,32.11c1.05-.53,2-1,2.92-1.44a11.83,11.83,0,0,1,2.15-.8,2.18,2.18,0,0,1,2.6,1.29,12,12,0,0,1,.54,1.63c.69,2.3,1.34,4.6,2,6.89,2.08,6.78,4.2,13.55,5.94,20.43a7.15,7.15,0,0,1,.22,1.12,2,2,0,0,1-1.73,2.24,2,2,0,0,1-.85-.07,9.15,9.15,0,0,1-1.05-.33,2,2,0,0,0-.3.55c-.17,1-.4,2-1.57,2.15a3.41,3.41,0,0,1-3.08-1.2,7.41,7.41,0,0,1-1.21-1.95c-1.8-3.91-3.6-7.84-5.33-11.78a156,156,0,0,0-7.49-14.9,39.63,39.63,0,0,1-2-3.82,1.73,1.73,0,0,1,.55-2.37l.2-.1a26.08,26.08,0,0,1,3.24-1.86,2,2,0,0,1,2.7.73,2.17,2.17,0,0,1,.15.35c.26.51.4,1.08.62,1.61S98.29,31.49,98.57,32.11Z" transform="translate(124.71 10.5)"/><path id="Path_887" data-name="Path 887" class="cls-3" d="M87.84,75.19a1.58,1.58,0,0,1-2.38,1.31,4.53,4.53,0,0,1-1.15-1.24c-1.89-3-3.75-6-5.62-9-1.51-2.43-3-4.85-4.52-7.31a24.43,24.43,0,0,1-1.67-3.31,1.73,1.73,0,0,1,.72-2.34l.14-.06a1.64,1.64,0,0,1,2,.63,6.82,6.82,0,0,1,.51.69q3.75,6.11,7.49,12.22c1,1.7,2,3.44,3,5.17C87,73,87.82,74,87.84,75.19Z" transform="translate(124.71 10.5)"/><path id="Path_888" data-name="Path 888" class="cls-1" d="M86.62,109.53c1.31-1,1.31-1,3,0Z" transform="translate(124.71 10.5)"/><path id="Path_889" data-name="Path 889" class="cls-1" d="M116.94,96.46c-.24-.25-.45-.37-.46-.51a8.69,8.69,0,0,1,0-1.25.36.36,0,0,1,.25,0,1.11,1.11,0,0,1,.5,1.39C117.22,96.16,117.14,96.22,116.94,96.46Z" transform="translate(124.71 10.5)"/><path id="Path_890" data-name="Path 890" class="cls-1" d="M91.26,49.72l-.05-.19.14,0Z" transform="translate(124.71 10.5)"/></g><g id="Layer_7_Image" data-name="Layer 7 Image"><path id="Path_891" data-name="Path 891" d="M190.83,12.1c1.25-1.36,1-3.47,2.86-4a2.88,2.88,0,0,1,.79.43,53.73,53.73,0,0,1,8.15,11.09,8.14,8.14,0,0,1,1,4.12c-.06,1.92,0,3.84,0,5.77-.64.16-.79-.35-1-.75-.62-1.3-1.25-2.59-1.8-3.92a93.53,93.53,0,0,0-7.3-13.27c-.22.53-.55,1-.44,1.13,1.64,2.59,2,5.6,2.53,8.47,2.7,13.33,5.3,26.69,7.89,40a22.39,22.39,0,0,1,.38,4c.07,3.83.06,7.67.07,11.51,0,.45-.06.91-.11,1.5-1-.16-1.17-.77-1.31-1.4-.56-2.63-1.17-5.24-1.66-7.88q-4-21.33-7.93-42.67c-.57-3.1-1-6.23-1.5-9.46l-3.4-1c-.36.58-.72,1.11-1,1.67-.45.85-.85,1.72-1.28,2.57-1.46,2.84-2.43,3.06-5.14,1.17-.79-.54-1.56-1.11-2.36-1.64a8.26,8.26,0,0,0-1.19-.49c-.82,1.51-1.6,2.91-2.35,4.33-.86,1.64-1.64,1.82-3.13.66-1.79-1.41-3.57-2.84-5.5-4.39a7,7,0,0,0-.94.94c-.64.95-1.22,1.95-1.82,2.92a17.09,17.09,0,0,1-.94,1.45,2.17,2.17,0,0,1-3,.78,2.32,2.32,0,0,1-.3-.22c-.86-.61-1.61-1.36-2.41-2l-1.67-1.44c-1.32,1.47-2.44,3-3.6,4.5-2.05,2.66-2.82,2.67-5.06.1-.61-.71-1.26-1.37-2-2.21a52.06,52.06,0,0,1-5.88,7.2c-.13.12-.35.13-.78.27l-4.61-2.8a12.56,12.56,0,0,0-.93,1.36c-.68,1.37-1.29,2.79-2,4.15s-1.35,1.85-3,1.6c-1.42-.22-2.8-.62-4.2-.94L121.51,35c-.18,2.42.64,4.6.91,6.85s.64,4.55,1,6.83.65,4.55,1,6.83.56,4.57.85,6.85.59,4.57.86,6.85.47,4.38.74,6.57.6,4.56.88,6.85.54,4.57.82,6.85.61,4.56.9,6.84.52,4.57.8,6.86.71,4.5.82,6.94c-.63.06-1.09.15-1.54.15-.75,0-1.5-.07-2.43-.11C125,95,122.94,79.88,120.9,64.76a20.61,20.61,0,0,0-6.08,1.07A133,133,0,0,0,88.94,76c-3.75,1.91-7.38,4.06-11,6.16-1.15.66-2.21,1.5-3.44,2.35a24.17,24.17,0,0,0,2.69,5.67c1,1.85,2.07,3.68,3.22,5.44s2.3,3.31,3.56,4.88,2.71,3.23,4.14,4.77,2.92,3,4.45,4.51a15,15,0,0,1-4.86.35,4,4,0,0,1-1.43-.88c-1.1-1.07-2.18-2.16-3.17-3.33A78.56,78.56,0,0,1,75.2,95a29.57,29.57,0,0,1-3.56-9A2.47,2.47,0,0,1,72.74,83c2.48-1.78,4.77-3.82,7.22-5.82-1.24-2.25-2.59-4.64-3.88-7.06S73.6,65.35,72.42,63s-2.65-4.88-3.13-7.72l3.95-5.49L71,45.39a2.82,2.82,0,0,1,.37-1A26.7,26.7,0,0,1,77,39.56c1.31-.84,1.85-.66,2.85.7.22.3.39.63.62,1,1.14,0,2-.8,2.88-1.22,2-.91,2.21-.87,3.58.85.17.21.36.41.68.77l3.23-2c-.42-1.13-.77-2.1-1.15-3.05s-.85-1.93-1.23-2.91-.19-1.63.56-2c2.12-1.09,4.28-2.14,6.47-3.08,1.06-.45,1.75,0,2.27,1.13.7,1.57,1.32,3.18,2.05,5l1.72-.87c1.28-.64,2.53-1.34,3.85-1.9a1.29,1.29,0,0,1,1.73.62.82.82,0,0,1,.1.26c.25.62.44,1.27.64,1.91,2.77,9,5.54,17.92,8.34,27,1.38.16,2.64-.49,4.16-.9-.28-2.29-.55-4.45-.78-6.62-.64-5.81-1.3-11.62-1.86-17.44a20.54,20.54,0,0,1,.19-4.29c.15-1.21.72-1.68,2-1.58,1.72.14,3.42.46,5.12.72.84.13,1.67.31,2.63.49L130.33,27c1.2-2.22,1.82-2.41,4.09-1.2,1.34.72,2.66,1.49,4.08,2.28.42-.67.78-1.21,1.12-1.77,1-1.54,1.88-3.12,2.89-4.63,1.3-1.94,2.1-2,3.87-.35a15.59,15.59,0,0,1,1.21,1.23c.37.45.67.95,1.1,1.57.5-.43,1-.9,1.44-1.38,1-1.26,2-2.59,3.06-3.81a2,2,0,0,1,2.79-.63l.26.2c1.28.8,2.51,1.69,3.92,2.64l2.46-3.64c.33-.48.63-1,1-1.43,1.29-1.67,2.23-1.84,3.84-.51,1.83,1.52,3.57,3.13,5.38,4.72.83-.19.68-1,.9-1.57.41-1.07.63-2.22,1.08-3.27a1.89,1.89,0,0,1,2.4-1.17,1.65,1.65,0,0,1,.46.23c.68.34,1.31.78,2,1.19l2.2,1.35a2.09,2.09,0,0,0,.49.08c.23-.39.53-.84.78-1.31.36-.68.67-1.38,1-2.06,1.38-2.68,1.94-2.94,4.74-2.18C189.49,11.76,190.15,11.92,190.83,12.1ZM91.78,71.38C90.09,68,88.55,64.81,87,61.67S83.5,55.28,82,52s-2.76-6.43-4.2-9.81a16.94,16.94,0,0,0-4.12,3.38c.74,1.28,3.35,7.53,4,8.87q4.49,8.81,9,17.58a8.06,8.06,0,0,0,1,1.27Zm-.32-37.93c0,.31-.1.53,0,.68,4.38,10.48,9.34,20.73,13.25,31.4,0,.07.14.12.22.17l.29.16,3.22-1.26c-.26-.76-.46-1.39-.7-2-1-2.48-2-5-3-7.45C102,48,99.32,40.85,96.58,33.72,96.3,33,96.3,32,95.25,31.65Zm9.16,3.23,11,26.85,1.81-.66c-1.4-4.77-2.76-9.35-4.09-13.94s-2.66-9.36-4-14.18Zm2.43,29.92c-1.6-3.46-3.15-6.73-4.64-10-1.89-4.19-3.72-8.4-5.6-12.59a16.7,16.7,0,0,0-1-1.68l-3.38,1.25c4,8.15,7.83,16.11,11.77,24.21ZM81.13,43.07c4,9.27,9.47,17.65,13,26.93a5.59,5.59,0,0,0,2.92-1L84.33,42.09ZM71.59,55.32a189.36,189.36,0,0,1,11,20.59c1.14-.66,2.34-1,3.19-2C81.35,67.21,78,60,74.28,52.76Z" transform="translate(124.71 10.5)"/></g><g id="Inserted_Image_Image" data-name="Inserted Image Image"><path id="Path_892" data-name="Path 892" class="cls-3" d="M185.77,84.42c-1.5.78-3.07.4-4.67,1.09-.35-1.81-.68-3.28-.9-4.76a102.51,102.51,0,0,0-3.55-15.68c-.71-2.28-1.62-4.51-2.55-6.71a10.14,10.14,0,0,0-1.7-2.63,1.76,1.76,0,0,0-2.45-.38,1.7,1.7,0,0,0-.61.81A15.84,15.84,0,0,0,168,60.52a83.7,83.7,0,0,0,.17,20.07c.12,1,.23,2.1.32,3.15a2.07,2.07,0,0,1-.11.55,6.86,6.86,0,0,1-4.67.53l-1.35-7.31a76.41,76.41,0,0,0-3.74-13.85,42.21,42.21,0,0,0-2.33-4.6,5,5,0,0,0-.87-1.12c-1.2-1.19-2.59-.95-3.14.67a25.93,25.93,0,0,0-1.38,7,122.69,122.69,0,0,0,.56,18.08c.16,1.71.42,3.41.65,5.22a11.82,11.82,0,0,1-4.89.81,33.62,33.62,0,0,1-.79-6.31,77.51,77.51,0,0,1,.65-18.07,26.82,26.82,0,0,1,2.13-6.83,10.7,10.7,0,0,1,2.26-2.91,3.64,3.64,0,0,1,4.52-.55,10.28,10.28,0,0,1,3.83,3.4c.95,1.32,1.71,2.77,2.56,4.16.23.38.5.74.79,1.17a4.68,4.68,0,0,0,1-2.77,20.28,20.28,0,0,1,2.63-6.34,4.69,4.69,0,0,1,7.61-.75,26.63,26.63,0,0,1,2.91,3.53,40.33,40.33,0,0,1,4.2,8.79A93.22,93.22,0,0,1,185.67,83C185.74,83.45,185.74,83.91,185.77,84.42Z" transform="translate(124.71 10.5)"/></g><g id="Inserted_Image_Image-2" data-name="Inserted Image Image-2"><path id="Path_893" data-name="Path 893" class="cls-3" d="M118.91,95.81l-2.47,1c-1-2.25-1.92-4.46-3-6.56A61.87,61.87,0,0,0,110,84.27c-.64-1-1.34-2.54-2.8-1.87-1.14.53-.77,2-.67,3.14a45,45,0,0,0,2.33,9.77c.25.81.52,1.62.83,2.61l-2.26.94c-.32-.56-.64-1-.86-1.52a49.66,49.66,0,0,0-4.44-8.68,16.59,16.59,0,0,0-2.46-2.77c-.31-.28-1-.15-1.54-.2A9.48,9.48,0,0,0,98.18,91c.72,3,1.63,5.9,2.47,8.85.23.82.52,1.62.84,2.59L99,103.52A39.2,39.2,0,0,1,96,92.07a14.48,14.48,0,0,1,0-4.87,8.13,8.13,0,0,1,.72-2.15,2.23,2.23,0,0,1,2.94-1.18l.22.11a15.89,15.89,0,0,1,2.39,1.57c.52.39,1,.85,1.4,1.23.78-.22.64-.76.72-1.2a19.19,19.19,0,0,1,.56-3.1,2.61,2.61,0,0,1,3.1-2,2.66,2.66,0,0,1,1,.46,11.43,11.43,0,0,1,2.84,2.39A40.22,40.22,0,0,1,118.91,95.81Z" transform="translate(124.71 10.5)"/></g></g><rect id="Rectangle_360" data-name="Rectangle 360" class="cls-4" width="333" height="131"/></svg>