<svg id="Layer_1" data-name="Layer 1" xmlns="http://www.w3.org/2000/svg" viewBox="0 0 134.72 102.45"><defs><style>.cls-1{fill:#da291c;}.cls-2{fill:#ffc829;}.cls-3{fill:#fff;}</style></defs><title>restaurants</title><g id="Group_283" data-name="Group 283"><g id="From_selection_Image" data-name="From selection Image"><path id="Path_884" data-name="Path 884" class="cls-1" d="M28.85,64.81C34,62.53,39.18,60.22,44.36,58c1.4-.6,2.88-1,4.34-1.51a7.5,7.5,0,0,1,1.68-.35c2.07-.2,3,1.08,2.19,3a3.24,3.24,0,0,0-.19,2.19A123.48,123.48,0,0,1,55.66,83.5c.09,1.34.24,2.67.45,4,.57,3.78.63,7.64,1.56,11.38a4.85,4.85,0,0,1,.12,1.42,1.89,1.89,0,0,1-1.74,1.94,19.57,19.57,0,0,1-2.3.1c-13.42,0-26.85,0-40.27.1a5.08,5.08,0,0,1-4.43-2C6,96.53,3.29,92.5,2.15,87.6,1.78,86,1.35,84.45,1,82.87a3.1,3.1,0,0,1,1.71-3.82C4.83,77.83,7,76.52,9.11,75.28c3.58-2,7.16-4.08,10.78-6,2.27-1.23,4.63-2.29,7-3.42Z" transform="translate(0 0)"/><path id="Path_885" data-name="Path 885" class="cls-2" d="M25,64.23a8.63,8.63,0,0,0-.94.48c-1.85,1.21-2.81,1-4-.83-.85-1.39-1.61-2.83-2.41-4.25C14.36,53.79,11,48,7.81,42.09c-1.47-2.69-2.72-5.49-4-8.26A1.31,1.31,0,0,1,4.1,32a1.74,1.74,0,0,1,.27-.14,6.93,6.93,0,0,1,.75-.43c2.24-1.18,2.93-1,3.91,1.43A205.81,205.81,0,0,0,19.35,53.72c.77,1.41,1.52,2.83,2.43,4.52a2.63,2.63,0,0,0-.24-2.42c-1.51-3.1-3.1-6.17-4.64-9.25Q13.65,40,10.42,33.43a9.69,9.69,0,0,1-.71-1.88,1.7,1.7,0,0,1,1-2.19,1.72,1.72,0,0,1,.5-.11,9.74,9.74,0,0,0,1.7-.2,2.24,2.24,0,0,1,2.9,1.18c.91,1.58,1.71,3.21,2.55,4.83.4.75.79,1.51,1.25,2.38.43-.88.3-1.95,1.36-2.16,1.23-.26,1.61.76,2.16,1.52,1.13,1.55,2.28,3.09,3.41,4.63a53.88,53.88,0,0,1,6.38,11.22,28,28,0,0,1,1.26,4.69,2.44,2.44,0,0,1-.23,1.38,1.36,1.36,0,0,1-1.82.62,1.83,1.83,0,0,1-.36-.26,9.67,9.67,0,0,1-1-1.72c-1.42-2.82-2.78-5.68-4.22-8.49-1-1.87-2-3.69-3.07-5.52a9.11,9.11,0,0,0-.9-1.07,3.89,3.89,0,0,0,.1,1.08q3,6.22,6,12.43c.8,1.65,1.8,3.24.37,5.07-.18.24,0,.73-.06,1.11C28.89,62.92,25.56,64.73,25,64.23ZM22,41.65l.1-.17-.15,0Z" transform="translate(0 0)"/><path id="Path_886" data-name="Path 886" class="cls-2" d="M29.27,24c1.06-.52,2-1,2.92-1.44a11.83,11.83,0,0,1,2.15-.8,2.19,2.19,0,0,1,2.6,1.3,10.08,10.08,0,0,1,.55,1.63c.68,2.29,1.34,4.6,2,6.88,2.08,6.78,4.2,13.55,5.93,20.43a5.51,5.51,0,0,1,.22,1.13,2,2,0,0,1-2.57,2.16A10,10,0,0,1,42.05,55a2.46,2.46,0,0,0-.3.55c-.17,1-.4,2-1.56,2.15a3.41,3.41,0,0,1-3.09-1.2,7.22,7.22,0,0,1-1.2-1.94c-1.8-3.92-3.6-7.84-5.34-11.79a156,156,0,0,0-7.49-14.9,42,42,0,0,1-2-3.82,1.72,1.72,0,0,1,.56-2.37l.2-.1a27.21,27.21,0,0,1,3.24-1.86,2,2,0,0,1,2.69.73,1.58,1.58,0,0,1,.16.35c.26.51.4,1.08.62,1.61S29,23.43,29.27,24Z" transform="translate(0 0)"/><path id="Path_887" data-name="Path 887" class="cls-2" d="M18.54,67.12A1.56,1.56,0,0,1,17,68.66a1.65,1.65,0,0,1-.78-.23A4.72,4.72,0,0,1,15,67.19c-1.89-3-3.75-6-5.61-9-1.52-2.44-3.05-4.86-4.52-7.32A25.71,25.71,0,0,1,3.2,47.57a1.74,1.74,0,0,1,.73-2.34l.14-.06a1.64,1.64,0,0,1,2,.63,5.58,5.58,0,0,1,.51.69l7.5,12.22c1,1.71,2,3.44,3,5.17C17.74,65,18.52,66,18.54,67.12Z" transform="translate(0 0)"/><path id="Path_888" data-name="Path 888" class="cls-3" d="M17.32,101.46c1.32-1,1.32-1,3,0Z" transform="translate(0 0)"/><path id="Path_889" data-name="Path 889" class="cls-3" d="M47.64,88.39c-.23-.25-.44-.37-.45-.5a8.83,8.83,0,0,1,0-1.26.39.39,0,0,1,.26,0A1.12,1.12,0,0,1,48,88C47.93,88.1,47.84,88.15,47.64,88.39Z" transform="translate(0 0)"/><path id="Path_890" data-name="Path 890" class="cls-3" d="M22,41.65l0-.19.14,0Z" transform="translate(0 0)"/></g><g id="Layer_7_Image" data-name="Layer 7 Image"><path id="Path_891" data-name="Path 891" d="M121.54,4c1.24-1.35.95-3.47,2.86-4a3.07,3.07,0,0,1,.79.44,53.4,53.4,0,0,1,8.15,11.08,8.25,8.25,0,0,1,1,4.13c-.06,1.91,0,3.83,0,5.76-.63.16-.78-.35-1-.75-.61-1.3-1.25-2.59-1.8-3.92a92.49,92.49,0,0,0-7.29-13.27c-.22.54-.55,1-.45,1.13,1.64,2.59,2,5.6,2.54,8.47,2.7,13.33,5.3,26.69,7.89,40a23.35,23.35,0,0,1,.38,4c.06,3.84.06,7.67.07,11.51,0,.45-.07.91-.12,1.5a1.47,1.47,0,0,1-1.3-1.4c-.57-2.62-1.17-5.24-1.67-7.87q-4-21.33-7.92-42.67c-.57-3.1-1-6.23-1.5-9.47l-3.4-1c-.36.58-.72,1.11-1,1.67-.46.85-.85,1.72-1.29,2.57-1.45,2.84-2.42,3.06-5.14,1.17-.78-.54-1.55-1.11-2.36-1.63a7.2,7.2,0,0,0-1.18-.5c-.82,1.51-1.6,2.91-2.35,4.33-.87,1.64-1.64,1.83-3.13.66-1.8-1.41-3.57-2.84-5.51-4.38a6.29,6.29,0,0,0-.93.93c-.64.95-1.22,1.95-1.83,2.93a14.8,14.8,0,0,1-.94,1.44,2.16,2.16,0,0,1-2.95.78,2.18,2.18,0,0,1-.31-.22c-.85-.6-1.61-1.36-2.41-2L85.8,14c-1.32,1.48-2.45,3-3.6,4.5-2,2.67-2.82,2.68-5.06.1-.61-.7-1.26-1.37-2-2.21a50.15,50.15,0,0,1-5.87,7.2c-.13.12-.36.13-.79.27l-4.6-2.8a11.77,11.77,0,0,0-.93,1.37c-.69,1.37-1.29,2.78-2,4.14s-1.36,1.85-3,1.6c-1.42-.21-2.8-.62-4.2-.94l-1.53-.34c-.19,2.42.64,4.61.91,6.85s.64,4.55,1,6.83.66,4.56,1,6.84.56,4.56.84,6.85.59,4.56.87,6.84.47,4.39.73,6.57.6,4.57.89,6.85.53,4.57.82,6.85.61,4.56.89,6.85.53,4.57.8,6.85.72,4.5.83,6.94a15.44,15.44,0,0,1-1.54.15c-.75,0-1.5-.06-2.43-.11-2.06-15.16-4.1-30.24-6.15-45.36a20.6,20.6,0,0,0-6.07,1.07A133,133,0,0,0,19.64,67.94c-3.75,1.91-7.38,4.06-11,6.16-1.16.66-2.21,1.5-3.45,2.36a25.4,25.4,0,0,0,2.69,5.67c1,1.84,2.08,3.67,3.23,5.43s2.3,3.31,3.55,4.88,2.72,3.23,4.15,4.77,2.92,3,4.45,4.52a15.33,15.33,0,0,1-4.87.34,4,4,0,0,1-1.42-.88c-1.1-1.07-2.19-2.16-3.18-3.33a78,78,0,0,1-7.86-11,29.81,29.81,0,0,1-3.55-9,2.46,2.46,0,0,1,1.09-2.92c2.48-1.77,4.77-3.81,7.22-5.81C9.42,66.85,8.07,64.46,6.78,62s-2.47-4.75-3.65-7.16S.47,50,0,47.16l3.94-5.49L1.66,37.33a2.77,2.77,0,0,1,.36-1,26.75,26.75,0,0,1,5.64-4.87c1.31-.84,1.85-.66,2.85.7a11.21,11.21,0,0,1,.61,1c1.14-.06,2-.8,2.88-1.23,2-.91,2.21-.87,3.58.85.17.21.37.41.68.77l3.24-2c-.42-1.12-.77-2.1-1.15-3.05s-.86-1.93-1.23-2.91-.19-1.63.55-2c2.13-1.09,4.28-2.14,6.48-3.07,1.06-.45,1.75-.05,2.26,1.12.7,1.58,1.33,3.18,2.06,5l1.71-.86c1.28-.65,2.54-1.35,3.86-1.9a1.29,1.29,0,0,1,1.73.61,1.14,1.14,0,0,1,.09.26,18.61,18.61,0,0,1,.64,1.91l8.35,27c1.38.17,2.64-.49,4.15-.9-.27-2.29-.54-4.45-.78-6.62-.63-5.81-1.3-11.62-1.86-17.44a20.54,20.54,0,0,1,.2-4.29c.14-1.21.71-1.68,2-1.58,1.71.14,3.41.46,5.12.72.84.13,1.67.31,2.62.49L61,19c1.21-2.21,1.83-2.4,4.09-1.2,1.35.72,2.66,1.49,4.08,2.28.43-.66.78-1.21,1.13-1.77,1-1.54,1.88-3.12,2.89-4.63,1.3-1.94,2.1-2,3.87-.35a14.05,14.05,0,0,1,1.2,1.24c.37.44.67,1,1.1,1.57a19,19,0,0,0,1.45-1.39c1-1.26,2-2.58,3.06-3.81a2,2,0,0,1,2.78-.62,1.57,1.57,0,0,1,.26.19c1.29.8,2.52,1.69,3.92,2.64l2.47-3.64c.32-.48.62-1,1-1.43,1.29-1.67,2.24-1.83,3.84-.51,1.83,1.52,3.58,3.13,5.39,4.72.82-.18.68-1,.9-1.57.4-1.07.62-2.22,1.08-3.26a1.89,1.89,0,0,1,2.4-1.18,1.6,1.6,0,0,1,.45.23c.69.34,1.32.79,2,1.19s1.46.91,2.2,1.35a2,2,0,0,0,.49.08c.23-.39.53-.84.78-1.31.35-.68.67-1.38,1-2.06,1.37-2.68,1.93-2.93,4.73-2.17C120.2,3.69,120.85,3.85,121.54,4ZM22.48,63.31c-1.69-3.4-3.22-6.57-4.82-9.7s-3.45-6.4-5-9.68-2.77-6.42-4.2-9.81A16.81,16.81,0,0,0,4.33,37.5c.75,1.28,3.35,7.53,4,8.87q4.48,8.81,9,17.58a7.09,7.09,0,0,0,1.05,1.27Zm-.31-37.92c0,.31-.1.52,0,.67,4.38,10.49,9.33,20.73,13.25,31.4,0,.08.14.12.22.17l.28.16,3.23-1.26c-.27-.76-.46-1.39-.71-2-1-2.48-2-4.94-3-7.44C32.7,40,30,32.79,27.29,25.65,27,24.91,27,23.89,26,23.58Zm9.15,3.22,11,26.85,1.81-.66C42.72,50,41.35,45.45,40,40.86s-2.67-9.36-4-14.18Zm2.43,29.92c-1.6-3.46-3.14-6.73-4.63-10-1.89-4.18-3.72-8.39-5.6-12.58a19,19,0,0,0-1-1.69l-3.38,1.25c4,8.16,7.83,16.12,11.77,24.22ZM11.83,35c4,9.27,9.48,17.65,13,26.93a5.59,5.59,0,0,0,2.92-1L15,34ZM2.29,47.25A191.18,191.18,0,0,1,13.34,67.84a11.25,11.25,0,0,0,3.18-2C12.06,59.14,8.73,51.94,5,44.69Z" transform="translate(0 0)"/></g><g id="Inserted_Image_Image" data-name="Inserted Image Image"><path id="Path_892" data-name="Path 892" class="cls-2" d="M116.48,76.36c-1.5.77-3.08.39-4.68,1.08-.34-1.81-.68-3.28-.9-4.76A102.75,102.75,0,0,0,107.36,57c-.72-2.28-1.62-4.51-2.56-6.71a9.88,9.88,0,0,0-1.7-2.63,1.74,1.74,0,0,0-2.44-.38,1.69,1.69,0,0,0-.61.81,15.86,15.86,0,0,0-1.34,4.36,84.22,84.22,0,0,0,.18,20.07c.12,1,.22,2.1.32,3.15a1.75,1.75,0,0,1-.12.55,6.89,6.89,0,0,1-4.66.54l-1.35-7.32a76.41,76.41,0,0,0-3.74-13.85A43.14,43.14,0,0,0,87,51a5,5,0,0,0-.88-1.12c-1.2-1.19-2.59-.95-3.14.68a26.25,26.25,0,0,0-1.38,7,125.45,125.45,0,0,0,.56,18.08c.16,1.71.43,3.41.66,5.22a11.69,11.69,0,0,1-4.89.81,33.53,33.53,0,0,1-.8-6.31A77,77,0,0,1,77.8,57.3a26.05,26.05,0,0,1,2.13-6.83,10.65,10.65,0,0,1,2.26-2.91A3.65,3.65,0,0,1,86.71,47a10.28,10.28,0,0,1,3.83,3.4c.94,1.32,1.7,2.77,2.55,4.16.24.38.5.74.8,1.17a4.74,4.74,0,0,0,1-2.77,20.23,20.23,0,0,1,2.63-6.33A4.7,4.7,0,0,1,104,44.91a4.56,4.56,0,0,1,1.18,1,25.16,25.16,0,0,1,2.91,3.53,40.33,40.33,0,0,1,4.2,8.79,92.61,92.61,0,0,1,4.12,16.72C116.45,75.38,116.44,75.84,116.48,76.36Z" transform="translate(0 0)"/></g><g id="Inserted_Image_Image-2" data-name="Inserted Image Image-2"><path id="Path_893" data-name="Path 893" class="cls-2" d="M49.61,87.74l-2.47,1c-1-2.26-1.92-4.46-3-6.57a61,61,0,0,0-3.48-5.94c-.63-1-1.34-2.53-2.8-1.86-1.14.52-.76,2-.66,3.13a45.43,45.43,0,0,0,2.32,9.77l.84,2.61-2.26.94c-.32-.56-.64-1-.86-1.52a50.73,50.73,0,0,0-4.44-8.68,17.05,17.05,0,0,0-2.46-2.77c-.32-.28-1-.14-1.54-.2a9.61,9.61,0,0,0,.08,5.29c.73,3,1.63,5.9,2.48,8.85.23.81.52,1.61.83,2.58l-2.44,1.11A39.2,39.2,0,0,1,26.7,84a14.48,14.48,0,0,1,0-4.87A8.61,8.61,0,0,1,27.43,77a2.25,2.25,0,0,1,2.94-1.18,1.67,1.67,0,0,1,.23.12A14.4,14.4,0,0,1,33,77.49a17.49,17.49,0,0,1,1.4,1.22c.79-.22.65-.76.72-1.2a19.22,19.22,0,0,1,.57-3.1,2.61,2.61,0,0,1,3.1-2,2.7,2.7,0,0,1,1,.46,11.64,11.64,0,0,1,2.84,2.39A40,40,0,0,1,49.61,87.74Z" transform="translate(0 0)"/></g></g></svg>