<svg id="Layer_1" data-name="Layer 1" xmlns="http://www.w3.org/2000/svg" viewBox="0 0 128.82 110"><defs><style>.cls-1{fill:#638dc9;}.cls-2{fill:#fff;}.cls-3{fill:#ffc829;}.cls-4{fill:#999;}</style></defs><title>shoppping</title><g id="Group_284" data-name="Group 284"><g id="From_selection_Image" data-name="From selection Image"><path id="Path_894" data-name="Path 894" class="cls-1" d="M10.73,109.53c-.2-.67-.44-1.26-.57-1.88Q5.24,83.56.34,59.47c-.11-.54-.18-1.09-.26-1.64-.53-3.88,1.5-6.65,5.4-7.23,2.55-.37,5.12-.64,7.69-.9q9.06-.93,18.13-1.79c2.38-.22,4.78-.3,7.16-.52Q51.81,46.21,65.16,45c5-.46,9.91-.92,14.86-1.44a8.5,8.5,0,0,1,5.08.85A4.74,4.74,0,0,1,87.49,47C89,51.19,90.55,55.43,92,59.69c.51,1.47.81,3,1.26,4.52A12.62,12.62,0,0,0,94.21,66a9.66,9.66,0,0,0,.15-1.52c-.29-2.47-.58-4.94-.9-7.4A52.29,52.29,0,0,0,91,46.55a5.38,5.38,0,0,1,.22-4A10.87,10.87,0,0,1,96,37c3.68-2.09,7.17-4.51,10.74-6.79,1.72-1.09,3.48-1.71,5.59-.43a12.45,12.45,0,0,1,.53,1.67Q115.78,47.2,118.66,63a6.74,6.74,0,0,1,.2,1.09c.07,4.65,1.62,9,2.31,13.59.77,5.09,1.76,10.14,1.9,15.34a81,81,0,0,0,1.3,9.56c.1.73.3,1.45.34,2.18a4.16,4.16,0,0,1-3.88,4.42h-.34c-3.22-.14-6.45,0-9.67,0-2.68,0-5.35,0-8,0a2.19,2.19,0,0,1-2.35-1.15,7,7,0,0,1-1.33,1,3.47,3.47,0,0,1-1.36.13c-2,0-4.05.08-6.08.09l-64.41.45c-2.55,0-5.09-.28-7.65-.13s-5,0-7.46,0C11.7,109.64,11.26,109.57,10.73,109.53Zm60.44-14a5.21,5.21,0,0,0,0-.79q-1.61-9.52-3.23-19.06c-.29-1.73-.55-3.46-.94-5.17a4.15,4.15,0,0,0-4.25-3.53c-3.13-.12-6.26-.22-9.39-.18-6.64.08-13.27.26-19.9.41a11.2,11.2,0,0,0-1.92.13,4,4,0,0,0-3.39,4.34,14.68,14.68,0,0,0,.54,2.7q1.39,5.19,2.84,10.39c.88,3.2,1.7,6.41,2.7,9.57.84,2.65,2.25,3.52,5,3.47,4.79-.09,9.58-.16,14.37-.27,4-.1,8.1-.22,12.15-.4a13,13,0,0,0,3-.59,25.86,25.86,0,0,0,2.51-1Zm23.3-27.34a1.7,1.7,0,0,0-.22-2.24,2.35,2.35,0,0,0,.22,2.24Z" transform="translate(0 0)"/><path id="Path_895" data-name="Path 895" class="cls-2" d="M71.17,95.48a25.94,25.94,0,0,1-2.51,1,13,13,0,0,1-3,.58c-4,.18-8.1.3-12.15.4-4.79.11-9.58.18-14.37.28-2.71,0-4.12-.83-5-3.48-1-3.15-1.82-6.37-2.7-9.56q-1.43-5.2-2.84-10.4a15.37,15.37,0,0,1-.54-2.7,4,4,0,0,1,3.39-4.34,12.38,12.38,0,0,1,1.92-.12c6.64-.15,13.27-.33,19.9-.42,3.13,0,6.26.07,9.39.18A4.15,4.15,0,0,1,67,70.47c.4,1.7.65,3.44.94,5.16q1.64,9.54,3.23,19.07A5.08,5.08,0,0,1,71.17,95.48Zm-9.05-1.6c1.05,0,1.51,0,2,0,3.45.19,5.58-2.4,4.51-6.06a2,2,0,0,1-.09-.26c-.52-2-1-3.91-1.56-5.86a33.87,33.87,0,0,0-2.59-7.25,5.37,5.37,0,0,0-4.89-3c-3.77-.1-7.53-.26-11.29-.46-1.65-.09-3.28-.35-4.92-.52l-1.92-.16c-3.36-.3-5.75,3.37-5.05,6.08A26.61,26.61,0,0,0,37.06,79,69.81,69.81,0,0,1,40,88.49a17.33,17.33,0,0,0,1.31,3.61A4.13,4.13,0,0,0,46,94.79c2.47-.44,5-.12,7.41-.52,3.11-.49,6.24.06,8.74-.4Z" transform="translate(0 0)"/><path id="Path_896" data-name="Path 896" class="cls-2" d="M94.47,68.14a2.38,2.38,0,0,1-.23-2.24A1.7,1.7,0,0,1,94.47,68.14Z" transform="translate(0 0)"/><path id="Path_897" data-name="Path 897" class="cls-3" d="M62.12,93.87c-2.5.46-5.63-.1-8.74.4-2.44.4-4.94.08-7.41.51a4.11,4.11,0,0,1-4.65-2.68A17.21,17.21,0,0,1,40,88.48,70.12,70.12,0,0,0,37.06,79a26.61,26.61,0,0,1-.77-2.64c-.7-2.71,1.69-6.38,5.05-6.09.64.06,1.28.1,1.92.17,1.64.17,3.28.43,4.92.52,3.76.2,7.52.37,11.29.46a5.37,5.37,0,0,1,4.89,3A33.87,33.87,0,0,1,67,81.7c.55,2,1,3.9,1.56,5.86a2.67,2.67,0,0,0,.09.26c1.07,3.65-1.06,6.25-4.51,6.06C63.63,93.85,63.17,93.87,62.12,93.87Z" transform="translate(0 0)"/></g><g id="Layer_7_Image" data-name="Layer 7 Image"><path id="Path_898" data-name="Path 898" d="M88.63,38.51C61.55,40.27,34.55,42,7.29,42.64,7.74,46,8.84,49,9.54,52.11s1.5,6.45,2.23,9.68,1.42,6.29,2.1,9.44,1.38,6.48,2.07,9.72,1.36,6.3,2,9.45,1.43,6.48,2.15,9.71,1.39,6.27,2.12,9.55c-1.45.6-2.75.27-4.14.12-.24-1-.5-1.83-.69-2.72-3.14-14.87-6.3-29.73-9.38-44.6C6.84,56.6,5.82,50.7,4.74,44.81c-.67-3.72-.57-4.14,2.39-6.37q9.38-7.07,18.87-14a11.15,11.15,0,0,0,3.66-4.31C33.83,11.69,40.6,6.7,50.08,5.66a3.46,3.46,0,0,0,2.57-1.33c.8-1,1.74-1.9,2.64-2.83a2.77,2.77,0,0,1,2-.84c1.2,0,2.4-.14,3.59-.2.63,0,1.26,0,2.16,0A33,33,0,0,1,59.43,2.7a13.38,13.38,0,0,0-3.08,2.58c.29.76.91.72,1.39.83a25.72,25.72,0,0,1,16.77,12.1c.24.39.5.77.75,1.15a1.89,1.89,0,0,0,.2.2,131.55,131.55,0,0,0,15.25-.46,14.9,14.9,0,0,0-.66-8.33,17,17,0,0,0-7.47-8.93c-.83-.5-1.67-1-2.69-1.57,2-.08,3.88-.06,5.7-.25a3.55,3.55,0,0,1,3,1.1,20.63,20.63,0,0,1,7,15.13c0,.46,0,.92,0,1.38v1.2a6.76,6.76,0,0,0,1.34.19c5.07-.19,10.13-.41,15.19-.63.55,0,1.08-.21,1.63-.29a1.66,1.66,0,0,1,2.09,1.06,1.56,1.56,0,0,1,.08.43c2.38,11.73,4.3,23.54,6.12,35.37,1.55,10,3.17,20,4.74,30,.67,4.28,1.14,8.59,2,12.83a8.26,8.26,0,0,1-1.81,6.89c-.74-.08-.63-.66-.69-1q-1.1-6.54-2.12-13.09c-1.42-8.82-2.85-17.64-4.22-26.46q-2.11-13.65-4.13-27.32c-.66-4.47-1.17-8.95-1.76-13.43a1.54,1.54,0,0,0-.24-.48c-.78-.33-1.16.35-1.63.71C106.63,27.7,101.22,31.84,95.78,36c-1.39,1-2.84,2-4.41,3.13.07.55.12,1.18.23,1.79,1.41,7.7,3,15.37,4.23,23.09,1.9,11.63,3.62,23.3,5.41,34.95.4,2.64.8,5.28,1.18,7.92.09.62.07,1.26.12,2.08l-3.41.2c-.85-2.39-.92-4.79-1.34-7.11s-.74-4.74-1.09-7.1-.62-4.57-1-6.85S95,83.32,94.62,81s-.79-4.73-1.17-7.09-.74-4.73-1.1-7.1-.69-4.74-1-7.11-.65-4.56-.94-6.84-.48-4.78-.87-7.14S89.41,40.92,88.63,38.51ZM71.84,22.93l-40,1a21.65,21.65,0,0,0-1.36,9.26c0,1.8-.1,3.66.69,5.26a3.06,3.06,0,0,0,.73.15l28.41-1.54c3.59-.19,7.18-.34,10.76-.54.8,0,1.59-.19,2.49-.3a23.76,23.76,0,0,0-1.74-13.29ZM78.24,36c4.39.25,8.59-.46,12.85-.23L93,34.16c.63-.55,1.24-1.11,1.89-1.63s1.35-1,2-1.46,1.3-1,1.94-1.55l1.72-1.39,1.94-1.56,2-1.54c.66-.51,1.32-1,2-1.53a6.82,6.82,0,0,0,1.85-1.74,3.32,3.32,0,0,0-2-.23c-4.5.33-9,.35-13.51.58-4.67.24-9.37.36-14.07.42-.6,0-1.32-.14-1.77.74,1.5,4,1.66,8.3,1.36,12.75ZM52.87,9.67c-1.91,3.62-2.79,8.45-2,11.2L69.51,20a.33.33,0,0,0,.22-.11,1.14,1.14,0,0,0,.15-.23C67.19,14.06,59.56,9.52,52.87,9.67ZM48,21.11a9.19,9.19,0,0,1-.39-5.65c.38-1.86.87-3.69,1.37-5.74a19.82,19.82,0,0,0-9.67,3.91,17.91,17.91,0,0,0-6.44,8.19c5,.1,9.87-.62,15.12-.71ZM26.8,27.44,9.74,39.59c-.08.06,0,.32,0,.62l18.19-1.39c-.81-3.8-1.64-7.4-1.12-11.37Z" transform="translate(0 0)"/><path id="Path_899" data-name="Path 899" d="M47.93,66.07H63.4c.46,0,.92,0,1.38,0A2.16,2.16,0,0,1,67.09,68c.38,1.7.7,3.42,1,5.15,1.17,6.7,2.32,13.41,3.51,20.12a8,8,0,0,0,.68,1.76,1.59,1.59,0,0,1-.58,2.16l-.22.1a4.7,4.7,0,0,1-1.62.26q-14.08,0-28.18,0a20.27,20.27,0,0,1-2.2-.12,3.67,3.67,0,0,1-3.53-3c-.82-3.21-1.77-6.39-2.52-9.61-1.11-4.75-2.11-9.52-3.13-14.29A12.69,12.69,0,0,1,30,68.14a1.27,1.27,0,0,1,1.14-1.38h.2l16.55-.53Zm21.49,28a9.5,9.5,0,0,0-.07-1.19q-2.53-11.7-5.09-23.41L33.83,69c-.07,0-.15.09-.23.14s-.13.12-.36.31c2.7,8.18,4.48,16.72,7,25Z" transform="translate(0 0)"/><path id="Path_900" data-name="Path 900" class="cls-4" d="M71.84,22.93a23.74,23.74,0,0,1,1.74,13.28c-.9.11-1.69.26-2.49.31-3.58.19-7.17.34-10.76.53L31.92,38.59a3.62,3.62,0,0,1-.73-.14c-.79-1.6-.66-3.46-.69-5.26a21.7,21.7,0,0,1,1.36-9.27Z" transform="translate(0 0)"/><path id="Path_901" data-name="Path 901" class="cls-4" d="M78.24,36c.3-4.44.15-8.74-1.35-12.74.45-.89,1.17-.73,1.77-.74,4.7-.07,9.4-.19,14.07-.43,4.5-.23,9-.25,13.51-.58a3.32,3.32,0,0,1,2,.23,6.82,6.82,0,0,1-1.85,1.74c-.64.53-1.3,1-2,1.54l-2,1.53-1.94,1.56-1.71,1.39c-.65.52-1.29,1.05-2,1.55s-1.36,1-2,1.46S93.59,33.61,93,34.16l-1.88,1.63C86.83,35.56,82.63,36.27,78.24,36Z" transform="translate(0 0)"/><path id="Path_902" data-name="Path 902" class="cls-4" d="M26.8,27.45c-.52,4,.31,7.57,1.12,11.38L9.73,40.22c0-.31-.07-.57,0-.63Q18.26,33.5,26.8,27.45Z" transform="translate(0 0)"/></g></g></svg>