<svg id="Layer_1" data-name="Layer 1" xmlns="http://www.w3.org/2000/svg" viewBox="0 0 103.98 110"><defs><style>.cls-1{fill:#638dc9;}.cls-2{fill:#101010;}.cls-3{fill:#fff;}.cls-4{fill:#999;}</style></defs><title>toDo</title><g id="Group_285" data-name="Group 285"><path id="Path_903" data-name="Path 903" class="cls-1" d="M103.31,78.05a10.7,10.7,0,0,1,.31,4.64,3.41,3.41,0,0,1-.68,1.76c-2.08,2.66-4.13,5.35-6.37,8.27-3.93,5.13-8.1,10.47-12.71,15.44a4.72,4.72,0,0,0-.37.41,3,3,0,0,1-2.41,1.1c-10.52.47-21,.39-31.55,0a17.65,17.65,0,0,1-1.9-.25c.69-1.2,1.47-2.35,2.06-3.6a12.37,12.37,0,0,0-5.91-16.48,11.26,11.26,0,0,0-1.49-.59A17.39,17.39,0,0,0,26.44,91c-.76.51-1.49,1.06-2.22,1.58-.61-.3-1.12-.52-1.59-.8q-6.07-3.6-12.14-7.23a12.64,12.64,0,0,1-1.09-.84c.6-.69,1.19-1.4,1.82-2.06Q20.61,71.75,30,61.86c1.83-1.93,3.76-3.77,5.64-5.65,5.16-.89,9.12,1,10.88,5.4A17.53,17.53,0,0,1,47.2,73c-.4,1.41-.93,2.79-1.45,4.32a17.43,17.43,0,0,0,1.57,1Q56.77,83,66.25,87.59c1.08.52,2.23.9,3.33,1.36a2,2,0,0,0,2.32-.38,24.83,24.83,0,0,0,3-3.2c4.06-5.62,8.15-11.22,12-17,5.22-7.84,10.23-15.83,15.35-23.74.44-.69,1-1.31,1.49-2,0,2.66,0,5.32,0,8,0,2.11-.08,4.23,0,6.34,0,3.4.18,6.8.21,10.2a21.06,21.06,0,0,0-.32,3.27,19,19,0,0,0-1.51,1.6C98.55,77,95,81.92,91.41,86.88c-5.15,7.21-10.33,14.4-15.9,21.31a5.37,5.37,0,0,0-.53,1.14,2.93,2.93,0,0,0,.7.2c4.9-.4,3.8.67,7-3.66,5.08-6.81,10.06-13.69,15.1-20.53C99.63,82.89,101.48,80.47,103.31,78.05Z" transform="translate(0 0)"/><path id="Path_904" data-name="Path 904" d="M9.41,83.73a11.13,11.13,0,0,0,1.08.84q6.06,3.63,12.14,7.23c.48.28,1,.5,1.6.8.72-.52,1.46-1.07,2.21-1.58A17.41,17.41,0,0,1,42.3,88.8a12.38,12.38,0,0,1,8,15.58,11.26,11.26,0,0,1-.59,1.49c-.59,1.24-1.37,2.4-2.06,3.6-1.55.56-3.07-.19-4.89,0,.37-.63.61-1,.88-1.46A12.66,12.66,0,0,0,46,100.55a6.5,6.5,0,0,0-1.31-4.1,5.06,5.06,0,0,0-.36-.74c-2.49-3.24-6.28-4.39-10.68-3.27a16.42,16.42,0,0,0-7.08,4.15c-.86.8-1.6,1.83-3.12,2-1-.49-2.18-1-3.27-1.64-3.3-2-6.56-4.11-9.85-6.15-1.48-.92-3-1.78-4.5-2.66-1.13-.8-2.26-1.59-3.38-2.4A13.41,13.41,0,0,1,.72,84.4a2.27,2.27,0,0,1-.25-3,23.57,23.57,0,0,1,1.67-2.2A120.94,120.94,0,0,0,13,63.45c.18-.31.32-.65.51-1a8.52,8.52,0,0,0-.91-.67c-2.84-1.53-5.7-3-8.53-4.6a9.47,9.47,0,0,1-1.95-1.5,1.56,1.56,0,0,1-.18-2c.28-.48.61-.93.92-1.39Q12,38.32,21.15,24.44c3.56-5.4,7.12-10.8,10.74-16.15,1.34-2,2.88-3.85,4.27-5.8C37.12,1.12,37.77,0,37.77,0c.53,0,4-.09,5.4,0-.26.74-1.24,2.22-1.46,2.7-1.84,3.26-3.82,5.78-5.9,9Q25.54,27.34,15.29,43c-2,3.1-4,6.19-6,9.3-.4.61-.74,1.26-1.13,1.92.22.25.35.52.57.63Q15,57.9,21.41,60.93c.41.2.83.37,1.14.5.73,0,.8-.59,1-1A17,17,0,0,1,37,51.82a14.21,14.21,0,0,1,15.76,12,16.86,16.86,0,0,1-1,9.24c-.27.68-.52,1.36-.82,2.18l19.75,9.62c.28-.42.56-.78.78-1.17C78.08,72.12,85.37,61,92.78,50c3.09-4.6,6.08-9.26,9.12-13.9.55-.83.93-1.82,2.08-2.09,0,1.39,0,6.85-.2,8.72-.5.65-1,1.27-1.49,2-5.12,7.91-10.12,15.9-15.35,23.74-3.84,5.77-7.94,11.37-12,17a24.83,24.83,0,0,1-3,3.2,2,2,0,0,1-2.32.38c-1.11-.47-2.26-.84-3.33-1.36Q56.78,83,47.32,78.35a16,16,0,0,1-1.56-1c.52-1.53,1.05-2.91,1.45-4.32a17.59,17.59,0,0,0-.68-11.41c-1.75-4.42-5.72-6.29-10.88-5.4a4.6,4.6,0,0,0-1.61.16,30.84,30.84,0,0,0-4.8,2.68A23.78,23.78,0,0,0,23.48,65a10.91,10.91,0,0,1-1.1,1.26L18.25,64.5a38.66,38.66,0,0,0-4.36,5.81C12.56,72.18,11.23,74.06,10,76S7,79.68,6.05,81.84c.93.7,1.71,1.32,2.54,1.87C8.79,83.84,9.13,83.73,9.41,83.73Z" transform="translate(0 0)"/><path id="Path_905" data-name="Path 905" class="cls-1" d="M5.84,88.14c1.5.88,3,1.74,4.51,2.65,3.29,2,6.54,4.14,9.84,6.16,1.09.66,2.29,1.15,3.28,1.64,1.52-.18,2.25-1.21,3.11-2a16.38,16.38,0,0,1,7.09-4.14c4.4-1.12,8.18,0,10.67,3.27a3.9,3.9,0,0,1,.36.74A20.09,20.09,0,0,0,38.34,99a63.48,63.48,0,0,0-10.58,7.46,2.55,2.55,0,0,1-3,.47c-.5-.24-1-.42-1.5-.69A81.7,81.7,0,0,1,7,94.9a9.45,9.45,0,0,1-.77-.78C4.45,92.13,4.36,90.61,5.84,88.14Z" transform="translate(0 0)"/><path id="Path_906" data-name="Path 906" class="cls-2" d="M103.31,78.05c-1.83,2.43-3.68,4.84-5.49,7.29-5,6.84-10,13.72-15.1,20.53-3.23,4.33-2.13,3.26-7,3.66a2.44,2.44,0,0,1-.7-.2,4.92,4.92,0,0,1,.53-1.14c5.56-6.9,10.75-14.1,15.9-21.31,3.54-5,7.13-9.88,10.73-14.81a17.54,17.54,0,0,1,1.51-1.6A35,35,0,0,1,103.31,78.05Z" transform="translate(0 0)"/><path id="Path_907" data-name="Path 907" class="cls-3" d="M75.4,7c0,.3,0,.59,0,.89l-.82-.17Z" transform="translate(0 0)"/><path id="Path_908" data-name="Path 908" class="cls-4" d="M56.71,21.26l-5.66,8.52,22.1,14.69-3.42,5.14L47.63,34.92,42,43.44l-4.54-3L52.17,18.25Z" transform="translate(0 0)"/><path id="Path_909" data-name="Path 909" class="cls-4" d="M58.28,18.25l-5-3.32,3.34-5,5,3.32Zm22.4,14.89L61,20.07l3.35-5L84,28.11Z" transform="translate(0 0)"/><path id="Path_910" data-name="Path 910" class="cls-4" d="M76.39,18.27A12.83,12.83,0,0,1,73,15a11.53,11.53,0,0,1-1.86-4.21,12,12,0,0,1,0-4.74,12.89,12.89,0,0,1,2-4.86c.27-.4.54-.78.82-1.13h8.8l-.45,1.48a5.4,5.4,0,0,0-2.79.58A5.84,5.84,0,0,0,77.35,4a5.76,5.76,0,0,0-.91,2.32,6,6,0,0,0,.11,2.43,6.7,6.7,0,0,0,1.14,2.32,8.44,8.44,0,0,0,2.14,2,8,8,0,0,0,2.67,1.18,7.23,7.23,0,0,0,2.62.14,5.94,5.94,0,0,0,2.3-.82,5.57,5.57,0,0,0,1.75-1.7,5.73,5.73,0,0,0,1-2.94,4.55,4.55,0,0,0-.59-2.7l4.77-3.91a9.88,9.88,0,0,1,1.46,5.78,12.62,12.62,0,0,1-2.29,6.54,13.12,13.12,0,0,1-3.69,3.77,11.76,11.76,0,0,1-9,1.69A12.43,12.43,0,0,1,76.39,18.27Z" transform="translate(0 0)"/></g></svg>