<svg xmlns="http://www.w3.org/2000/svg" width="260.83" height="110.45" viewBox="0 0 260.83 110.45">
  <g id="Group_286" data-name="Group 286" transform="translate(-615.042 -1068.279)">
    <g id="From_selection_Image" data-name="From selection Image" transform="translate(615.042 1069.289)">
      <path id="Path_911" data-name="Path 911" d="M868.758,1142.784l-1.021-3.4a14.175,14.175,0,0,1,2.349-3.739,93.965,93.965,0,0,1,9.956-10.827,10.578,10.578,0,0,1,1.487-1.253c5.848-3.7,11.887-6.961,18.929-7.924,2.036-.278,4.047-.773,6.089-.96,4.185-.383,8.384-.626,12.576-.926.466-.033.938-.024,1.4-.093,3.783-.574,3.291-.082,4.287-3.9a74.49,74.49,0,0,0,1.537-7.806,41.253,41.253,0,0,1,1.81-6.913,19.28,19.28,0,0,1,2.378-5.243c1.441-2.03,2.7-4.2,4.261-6.129a34.574,34.574,0,0,1,4.165-4.053,56.6,56.6,0,0,1,14.986-9.975,13.949,13.949,0,0,1,6.769-1.315c.83.067,1.671.011,2.533.011.211,1.055-.513,1.466-.951,1.962a90.992,90.992,0,0,0-13.509,20.526,41.885,41.885,0,0,0-3.26,8.484c-.129.536-.3,1.067-.37,1.61-.322,2.331.4,3.284,2.708,3.595a13.534,13.534,0,0,0,1.679.089c.935.008,1.871,0,2.8-.023q16.547-.456,33.093-.916c1.2-.033,2.407,0,3.548,0,.61.765.362,1.528.363,2.225q.018,24.938.007,49.875c0,2.845.16,5.69.162,8.535a12.636,12.636,0,0,1-9.147,12.158,25.111,25.111,0,0,1-6.329,1.124,128.3,128.3,0,0,1-16.83-.255c-.551-.848-.27-1.787-.3-2.673-.3-9.975-4.344-18.132-12.422-24.214a31.7,31.7,0,0,0-21.574-6.316,36.345,36.345,0,0,0-27.99,15.19,32.314,32.314,0,0,0-4,7.246c-.659,1.617-1.364,3.222-1.925,4.872a15.652,15.652,0,0,0-.561,2.944c-.1.715-.081,1.445-.12,2.264-2.314.556-4.516-.184-6.721-.13-2.243.056-4.488.047-6.731.107s-4.486.169-6.729.257l-6.855.272a10.237,10.237,0,0,1-.343-1.6c-.055-1.1-.058-2.2-.026-3.3.114-3.947.248-7.894.381-11.841a24.248,24.248,0,0,1,1.343-7.6l1.572-.595a3.315,3.315,0,0,0,3.173-2.236A13.527,13.527,0,0,0,868.758,1142.784Z" transform="translate(-728.692 -1068.296)" fill="#da291c"/>
      <path id="Path_912" data-name="Path 912" d="M1030.419,1096.729c.952-.137,1.085-.872,1.349-1.417a30.169,30.169,0,0,1,8.412-9.985,7.943,7.943,0,0,1,1.385-.939,2.21,2.21,0,0,1,3,.544,2.275,2.275,0,0,1-.474,3.034,3.807,3.807,0,0,1-.632.55c-5.078,3.338-7.895,8.331-10.1,13.772-.42,1.037-.754,2.119-1.272,3.1a2.154,2.154,0,0,1-3.522.646,4.561,4.561,0,0,1-.9-1.4c-.375-.848-.659-1.735-1.089-2.9-.388.769-.678,1.313-.939,1.868-.4.84-.723,1.717-1.183,2.519a1.207,1.207,0,0,1-.945.414c-.543-.02-.725-.5-.8-.986a1.819,1.819,0,0,1-.009-.557,36.845,36.845,0,0,1,2.739-9.95,10.339,10.339,0,0,1,.843-1.448,1.79,1.79,0,0,1,1.9-.9,1.973,1.973,0,0,1,1.564,1.442c.161.534.251,1.089.388,1.63C1030.214,1096.106,1030.325,1096.422,1030.419,1096.729Z" transform="translate(-795.888 -1074.838)" fill="#fccd2e"/>
      <path id="Path_913" data-name="Path 913" d="M869.975,1197.2a13.993,13.993,0,0,1-1.362,7.311,3.319,3.319,0,0,1-3.173,2.277c-.319-.456-.646-.907-.96-1.366a3.36,3.36,0,0,1-.571-2.658c.323-1.548.606-3.112,1.059-4.623.654-2.184,1.8-2.607,3.764-1.545C869.136,1196.82,869.56,1197,869.975,1197.2Z" transform="translate(-727.707 -1122.839)" fill="#fccd2e"/>
      <path id="Path_914" data-name="Path 914" d="M769.248,1172.177l-93.986-.444c-3.386-.016-3.39,3.47,0,3.486l93.986.444C772.634,1175.679,772.638,1172.193,769.248,1172.177Z" transform="translate(-646.24 -1111.414)" fill="#ffc829"/>
      <path id="Path_915" data-name="Path 915" d="M797.582,1199.647q-23.464-1.013-46.982-.476c-3.377.078-3.392,3.651,0,3.573q23.5-.539,46.982.476C800.962,1203.367,800.95,1199.793,797.582,1199.647Z" transform="translate(-678.68 -1123.04)" fill="#ffc829"/>
      <path id="Path_916" data-name="Path 916" d="M719.028,1227.484l-117.722.164c-3.015,0-3.021,3.36,0,3.356l117.722-.164C722.044,1230.836,722.049,1227.48,719.028,1227.484Z" transform="translate(-599.042 -1136.415)" fill="#ffc829"/>
    </g>
    <g id="Layer_3_Image" data-name="Layer 3 Image" transform="translate(739.538 1068.279)">
      <path id="Path_917" data-name="Path 917" d="M976.031,1235.767c-2.47.408-19.951.49-23.047.133a14.063,14.063,0,0,0-.554-1.511,18.1,18.1,0,0,0-1.629-3.027,6.089,6.089,0,0,0-5.072-2.6c-4.377-.015-7.834,1.558-10.012,5.65-.268.5-.511,1.021-.741,1.483-2.729.364-22.769.34-24.988-.023a3.553,3.553,0,0,1-.061-2.506c2.818-15.965,14.085-26.941,28.023-29.634,13.718-2.652,27.269,4.195,34.059,16.952a35.089,35.089,0,0,1,4.012,12.917C976.092,1234.267,976.031,1234.943,976.031,1235.767Z" transform="translate(-873.466 -1126.305)"/>
      <path id="Path_918" data-name="Path 918" d="M855.67,1156.512c-2.343,6.737-2.327,13.425-2.3,20.251-1.667.613-3.415.254-5.121.376a5.6,5.6,0,0,1-.507-3.331c.133-3.209.255-6.423.562-9.619a109.137,109.137,0,0,1,3.816-20.277,76.83,76.83,0,0,1,5.185-13.345c3.859-7.588,10.027-12.585,17.657-16.217,5.63-2.68,11.625-3.942,17.677-5.129a110.1,110.1,0,0,1,13.923-1.488c1.2-.08,2.389-.286,3.549-.431a13.666,13.666,0,0,0,1.207-4.652,50.065,50.065,0,0,1,3.732-12.371,74.253,74.253,0,0,1,11.687-19.026c.359-.423.734-.834,1.08-1.266a3.92,3.92,0,0,1,3.126-1.539,32.578,32.578,0,0,1,6.4.006c.254.471-.038.695-.358.89a23.616,23.616,0,0,0-6.656,6.61c-2.272,3.139-4.4,6.386-6.46,9.666a53.655,53.655,0,0,0-7.532,18.563c-.359,1.892-.557,3.813-.848,5.717s-.993,2.577-2.9,2.689c-.837.049-1.683,0-2.523-.035a75.249,75.249,0,0,0-28.593,4.574,44.688,44.688,0,0,0-10.153,5.214c-4.611,3.149-7.135,7.653-9.128,12.573-.347.855-.067,1.365.827,1.739.514.215,1.065.345,1.576.568a2.313,2.313,0,0,1,1.55,2.373c-.163,3.944-.312,7.889-.479,11.833a3.7,3.7,0,0,1-2.353,3.456c-.6.266-1.2.527-1.768.836A7.178,7.178,0,0,1,855.67,1156.512Zm7.283-10.466c-.038-2.007-.043-3.392-.748-4.627a3.689,3.689,0,0,0-1.085-1.187,1.138,1.138,0,0,0-.992.115,1.7,1.7,0,0,0-.6.886c-.983,3.227-1.97,6.454-2.878,9.7a1.4,1.4,0,0,0,1.794,1.726,4.522,4.522,0,0,0,3.694-2.972A35.11,35.11,0,0,0,862.953,1146.046Z" transform="translate(-847.704 -1068.279)"/>
      <path id="Path_919" data-name="Path 919" d="M1041.407,1106.106c.089.911.188,1.551.207,2.193.031,1.02.008,2.041.008,2.877-.935.976-1.919.76-2.823.775-6.823.112-13.646.219-20.47.285-7.852.076-15.7.1-23.557.164a11.159,11.159,0,0,1-4.408-.617,1.989,1.989,0,0,1-1.464-2.122c.189-2.326.309-4.666.662-6.969a40.673,40.673,0,0,1,2.455-8.609,68.651,68.651,0,0,1,14.733-22.971,6.581,6.581,0,0,1,5.121-2.37c.834.024,1.668,0,2.766,0a5.568,5.568,0,0,1-.723,1.242c-4.856,4.526-8.386,10.056-11.5,15.806a82.577,82.577,0,0,0-6.163,14.413,26.812,26.812,0,0,0-1.176,5.622c.552.921,1.368.742,2.081.735,3.833-.037,7.664-.115,11.5-.172q15.282-.227,30.564-.44C1039.854,1105.943,1040.492,1106.039,1041.407,1106.106Z" transform="translate(-906.35 -1068.47)"/>
      <path id="Path_920" data-name="Path 920" d="M869.268,1199.479a36.315,36.315,0,0,1-.811,3.709,4.54,4.54,0,0,1-3.694,3.027,1.41,1.41,0,0,1-1.794-1.757c.908-3.307,1.895-6.593,2.878-9.88a1.728,1.728,0,0,1,.6-.9,1.12,1.12,0,0,1,.992-.117,3.734,3.734,0,0,1,1.085,1.208C869.225,1196.025,869.23,1197.435,869.268,1199.479Z" transform="translate(-854.019 -1121.776)" fill="#fff"/>
    </g>
  </g>
</svg>
