<svg id="Layer_1" data-name="Layer 1" xmlns="http://www.w3.org/2000/svg" viewBox="0 0 260.83 110.45"><defs><style>.cls-1{fill:#da291c;}.cls-2{fill:#fccd2e;}.cls-3{fill:#ffc829;}.cls-4{fill:#fff;}</style></defs><title>transporation</title><g id="Group_286" data-name="Group 286"><g id="From_selection_Image" data-name="From selection Image"><path id="Path_911" data-name="Path 911" class="cls-1" d="M140.07,75.5l-1-3.4a14.39,14.39,0,0,1,2.35-3.74,94.5,94.5,0,0,1,10-10.83,10.5,10.5,0,0,1,1.49-1.25c5.84-3.7,11.88-7,18.93-7.93,2-.27,4-.77,6.08-1,4.19-.38,8.39-.62,12.58-.92.47,0,.94,0,1.4-.09,3.78-.58,3.29-.09,4.29-3.9a74.29,74.29,0,0,0,1.53-7.81,42.06,42.06,0,0,1,1.81-6.91,19.45,19.45,0,0,1,2.38-5.25c1.44-2,2.7-4.2,4.26-6.13a35.45,35.45,0,0,1,4.17-4,56.6,56.6,0,0,1,15-10A14,14,0,0,1,232,1c.83.07,1.67,0,2.54,0,.21,1.06-.52,1.47-.95,2A90.93,90.93,0,0,0,220.1,23.54,41.73,41.73,0,0,0,216.84,32a15.57,15.57,0,0,0-.37,1.61c-.33,2.34.4,3.29,2.7,3.6a15.76,15.76,0,0,0,1.68.09c.94,0,1.87,0,2.8,0l33.1-.92c1.2,0,2.4,0,3.54,0,.61.76.37,1.53.37,2.22q0,24.94,0,49.88c0,2.84.16,5.69.17,8.53a12.64,12.64,0,0,1-9.15,12.16,25.2,25.2,0,0,1-6.33,1.13,127.75,127.75,0,0,1-16.83-.26c-.55-.85-.27-1.79-.3-2.67-.3-10-4.34-18.13-12.42-24.22a31.69,31.69,0,0,0-21.57-6.31,36.33,36.33,0,0,0-28,15.19,32,32,0,0,0-4,7.24c-.66,1.62-1.37,3.23-1.93,4.88a15.42,15.42,0,0,0-.56,2.94c-.1.72-.08,1.45-.12,2.26-2.31.56-4.52-.18-6.72-.13s-4.49,0-6.73.11-4.49.17-6.73.26l-6.86.27a10.84,10.84,0,0,1-.34-1.6q-.08-1.65,0-3.3.18-5.92.39-11.84a24,24,0,0,1,1.34-7.6l1.57-.6a3.3,3.3,0,0,0,3.17-2.23A13.55,13.55,0,0,0,140.07,75.5Z" transform="translate(0 -0.01)"/><path id="Path_912" data-name="Path 912" class="cls-2" d="M234.53,22.9c.95-.14,1.09-.87,1.35-1.42a30.1,30.1,0,0,1,8.41-10,7.71,7.71,0,0,1,1.39-.94,2.21,2.21,0,0,1,3,.54,2.28,2.28,0,0,1-.48,3,4.14,4.14,0,0,1-.63.55c-5.08,3.34-7.89,8.33-10.1,13.77a32.47,32.47,0,0,1-1.27,3.1,2.15,2.15,0,0,1-2.83,1.12,2.06,2.06,0,0,1-.69-.47,4.53,4.53,0,0,1-.9-1.4c-.38-.85-.66-1.74-1.09-2.9-.39.76-.68,1.31-.94,1.86-.4.84-.72,1.72-1.18,2.52a1.21,1.21,0,0,1-.95.42c-.54,0-.72-.5-.8-1a2.09,2.09,0,0,1,0-.56,37.15,37.15,0,0,1,2.74-9.95,10.4,10.4,0,0,1,.84-1.44,1.79,1.79,0,0,1,1.9-.9,2,2,0,0,1,1.57,1.44c.16.53.25,1.09.39,1.63C234.33,22.28,234.44,22.59,234.53,22.9Z" transform="translate(0 -0.01)"/><path id="Path_913" data-name="Path 913" class="cls-2" d="M142.27,75.37a14.07,14.07,0,0,1-1.36,7.31A3.33,3.33,0,0,1,137.73,85l-1-1.37a3.39,3.39,0,0,1-.57-2.66c.33-1.54.61-3.11,1.06-4.62.66-2.18,1.8-2.61,3.77-1.54C141.43,75,141.85,75.17,142.27,75.37Z" transform="translate(0 -0.01)"/><path id="Path_914" data-name="Path 914" class="cls-3" d="M123,61.77l-94-.44c-3.38,0-3.39,3.47,0,3.48l94,.45C126.39,65.27,126.4,61.79,123,61.77Z" transform="translate(0 -0.01)"/><path id="Path_915" data-name="Path 915" class="cls-3" d="M118.9,77.62q-23.46-1-47-.48c-3.38.08-3.39,3.65,0,3.57q23.51-.54,47,.48C122.28,81.34,122.27,77.76,118.9,77.62Z" transform="translate(0 -0.01)"/><path id="Path_916" data-name="Path 916" class="cls-3" d="M120,92.08,2.26,92.24c-3,0-3,3.36,0,3.36L120,95.43C123,95.43,123,92.07,120,92.08Z" transform="translate(0 -0.01)"/></g><g id="Layer_3_Image" data-name="Layer 3 Image"><path id="Path_917" data-name="Path 917" d="M227.06,109.46c-2.47.41-19.95.49-23.05.13a14.41,14.41,0,0,0-.55-1.51,18.33,18.33,0,0,0-1.63-3,6,6,0,0,0-5.07-2.6c-4.38,0-7.84,1.56-10,5.65-.27.5-.51,1-.74,1.48-2.73.36-22.77.34-25,0a3.5,3.5,0,0,1-.06-2.51c2.81-16,14.08-26.94,28-29.63,13.72-2.65,27.27,4.19,34.06,16.95a35.15,35.15,0,0,1,4,12.92C227.12,108,227.06,108.64,227.06,109.46Z" transform="translate(0 -0.01)"/><path id="Path_918" data-name="Path 918" d="M132.46,88.23c-2.34,6.74-2.32,13.43-2.3,20.25-1.66.62-3.41.26-5.12.38a5.63,5.63,0,0,1-.51-3.33c.14-3.21.26-6.42.57-9.62a108.57,108.57,0,0,1,3.81-20.28,76.94,76.94,0,0,1,5.19-13.34c3.86-7.59,10-12.59,17.65-16.22,5.63-2.68,11.63-3.94,17.68-5.13a110.47,110.47,0,0,1,13.92-1.49c1.2-.08,2.39-.28,3.55-.43a13.38,13.38,0,0,0,1.21-4.65A49.9,49.9,0,0,1,191.84,22,74.48,74.48,0,0,1,203.53,3c.36-.42.73-.83,1.08-1.26A3.9,3.9,0,0,1,207.73.17a32.69,32.69,0,0,1,6.41,0c.25.48,0,.7-.36.89a23.82,23.82,0,0,0-6.66,6.61c-2.27,3.14-4.4,6.39-6.46,9.67a53.7,53.7,0,0,0-7.53,18.56c-.36,1.9-.56,3.82-.85,5.72s-1,2.58-2.9,2.69a23.55,23.55,0,0,1-2.52,0,75.34,75.34,0,0,0-28.6,4.58,45.1,45.1,0,0,0-10.15,5.21C143.5,57.21,141,61.72,139,66.64c-.34.85-.06,1.36.83,1.73.51.22,1.07.35,1.58.57a2.33,2.33,0,0,1,1.55,2.38c-.17,3.94-.32,7.88-.48,11.83a3.68,3.68,0,0,1-2.36,3.45c-.6.27-1.2.53-1.76.84A7.17,7.17,0,0,1,132.46,88.23Zm7.29-10.46c0-2-.05-3.39-.75-4.63A3.65,3.65,0,0,0,137.91,72a1.16,1.16,0,0,0-1,.12,1.69,1.69,0,0,0-.6.88c-1,3.23-2,6.46-2.88,9.7a1.41,1.41,0,0,0,.94,1.75,1.48,1.48,0,0,0,.86,0,4.51,4.51,0,0,0,3.69-3A35.39,35.39,0,0,0,139.75,77.77Z" transform="translate(0 -0.01)"/><path id="Path_919" data-name="Path 919" d="M259.55,37.64c.09.91.19,1.55.21,2.19,0,1,0,2,0,2.88-.94,1-1.92.76-2.82.77-6.83.11-13.65.22-20.47.29-7.86.07-15.7.1-23.56.16a11.19,11.19,0,0,1-4.41-.62,2,2,0,0,1-1.46-2.12c.19-2.33.31-4.66.66-7a40.89,40.89,0,0,1,2.45-8.61,68.85,68.85,0,0,1,14.74-23A6.56,6.56,0,0,1,230,.27c.83,0,1.67,0,2.76,0a5.29,5.29,0,0,1-.72,1.24c-4.86,4.53-8.39,10.06-11.5,15.81a82.11,82.11,0,0,0-6.16,14.41,26.4,26.4,0,0,0-1.18,5.62c.55.93,1.37.75,2.08.74,3.84,0,7.67-.12,11.5-.17l30.57-.44C258,37.47,258.64,37.57,259.55,37.64Z" transform="translate(0 -0.01)"/><path id="Path_920" data-name="Path 920" class="cls-4" d="M139.75,77.7a36.1,36.1,0,0,1-.82,3.71,4.52,4.52,0,0,1-3.69,3,1.4,1.4,0,0,1-1.78-.89,1.36,1.36,0,0,1,0-.87c.9-3.3,1.89-6.59,2.87-9.88a1.78,1.78,0,0,1,.6-.9,1.14,1.14,0,0,1,1-.11A3.77,3.77,0,0,1,139,73C139.7,74.25,139.71,75.66,139.75,77.7Z" transform="translate(0 -0.01)"/></g></g></svg>