<svg xmlns="http://www.w3.org/2000/svg" width="74.931" height="74" viewBox="0 0 74.931 74">
  <g id="Group_282" data-name="Group 282" transform="translate(-9.504 -9.271)">
    <g id="Layer_2" data-name="Layer 2" transform="translate(12.237 10.699)">
      <path id="Path_857" data-name="Path 857" d="M26.527,23.2c-.479-3.676-2.813-6.864-6.864-6.864-3.337,0-7.347,3.162-6.864,6.864.851,6.537.273,13.262.135,19.832l-.442,21.2c-.185,8.837,13.544,8.837,13.729,0l.442-21.2C26.8,36.466,27.378,29.731,26.527,23.2Z" transform="translate(-12.49 -11.298)" fill="#da291c"/>
      <path id="Path_858" data-name="Path 858" d="M85.381,17.7c-.45-3.532-2.781-7.071-6.864-6.864L46.485,12.466c-4.4-.123-8.59.653-10.21,5.781-1.841,5.829-1.642,13.285-1.91,19.349a199.021,199.021,0,0,0,2.443,39.712c.451,2.871,3.863,5.109,6.619,5.04l26.421-.66c3.712-.093,8.647.6,11.936-1.508,3.473-2.227,3.8-5.911,3.874-9.667C85.981,53.079,87.593,35.046,85.381,17.7Z" transform="translate(-14.33 -10.832)" fill="#da291c"/>
    </g>
    <g id="Layer_1" data-name="Layer 1" transform="translate(9.504 9.271)">
      <g id="Group_279" data-name="Group 279" transform="translate(20.044 0.027)">
        <path id="Path_859" data-name="Path 859" d="M82.062,9.658H34.85a3.117,3.117,0,0,0-3.114,3.114v66.99a3.117,3.117,0,0,0,3.114,3.114H82.062a3.117,3.117,0,0,0,3.114-3.114V12.773A3.118,3.118,0,0,0,82.062,9.658Zm-33.891,12.2H68.74a4.135,4.135,0,0,0,4.13-4.13v-1.2h5.521V75.389H38.52V16.535H44.04v1.2A4.135,4.135,0,0,0,48.171,21.861Zm22.869-4.13a2.3,2.3,0,0,1-2.3,2.3H48.171a2.3,2.3,0,0,1-2.3-2.3v-1.2H71.04ZM45.871,14.7V11.488H71.04V14.7ZM83.345,79.763a1.285,1.285,0,0,1-1.283,1.283H34.85a1.285,1.285,0,0,1-1.283-1.283V12.773a1.285,1.285,0,0,1,1.283-1.283H44.04v3.216H37.6a.915.915,0,0,0-.915.915V76.306a.915.915,0,0,0,.915.915h41.7a.915.915,0,0,0,.915-.915V15.62a.915.915,0,0,0-.915-.915H72.87V11.488h9.191a1.285,1.285,0,0,1,1.283,1.283V79.763Z" transform="translate(-31.433 -9.332)"/>
        <g id="Group_278" data-name="Group 278" transform="translate(0)">
          <path id="Path_860" data-name="Path 860" d="M82.107,9.5H40.645c-2.029,0-5.091-.586-7.066.256-2.312.985-2.072,3.351-2.072,5.407V75.447c0,1.786-.469,4.5.6,6.073,1.433,2.122,5.015,1.453,7.211,1.453H72.066c3.137,0,6.633.439,9.746,0,5.425-.766,3.536-9.487,3.536-13.389V16.12c0-2.91.471-5.869-3.2-6.613-.147-.029-.47.194-.236.242,3.982.806,3.031,5.426,3.031,8.064V74.7c0,1.328.493,3.779,0,5.049-1.563,4.033-5.933,2.965-9.222,2.965H44.789c-2.77,0-6.643.722-9.337,0-3.56-.954-3.544-3.219-3.544-5.985V20.283c0-2.233-.458-5.031,0-7.231.888-4.269,4.982-3.3,7.984-3.3H81.961C82.13,9.756,82.375,9.5,82.107,9.5Z" transform="translate(-31.405 -9.301)"/>
          <path id="Path_861" data-name="Path 861" d="M48.707,22.614c6.718,0,13.848.748,20.517,0A4.83,4.83,0,0,0,72.4,21.349c1.047-1.031.643-3.55,1.165-4.062a19.519,19.519,0,0,1,5.211,0c.049.054-.055.837.027,1.172.611,2.473,0,5.9,0,8.433V67.676c0,2.255.568,5.4,0,7.6-.17.659.1.616.1.613-.426.318-2.271,0-2.78,0H49.947c-2.806,0-7.115.835-9.815,0-1.222-.377-.8-.241-.8-2.181V21.415a13.171,13.171,0,0,1,0-3.4c.4-1.267-.621-.346.919-.727.6-.148,3.253-.329,3.754,0,.657.433.264.8.522,1.669a4.5,4.5,0,0,0,4.183,3.656c.174.023.414-.221.146-.256-2.962-.4-4-2.489-4-5.218a.115.115,0,0,0-.127-.108H39.2c-.074,0-.274.037-.274.148V76.034a.115.115,0,0,0,.127.108H78.927c.074,0,.274-.037.274-.148V17.139a.115.115,0,0,0-.127-.108H73.553c-.074,0-.274.037-.274.148,0,6.936-9.015,5.178-13.235,5.178H48.854C48.684,22.358,48.439,22.614,48.707,22.614Z" transform="translate(-32.043 -9.957)"/>
          <path id="Path_862" data-name="Path 862" d="M72.13,18.376c-1.062,3.918-11.327,2.152-14.117,2.152-2.235,0-5.091.491-7.274,0-1.5-.338-4.778-2.521-2.836-3.24,1.463-.543,4.156,0,5.712,0H69.285c1.665,0,2.845-.611,2.845,1.088,0,.187.4.113.4-.04v-1.2a.115.115,0,0,0-.127-.108H47.235c-.074,0-.274.037-.274.148,0,5.72,8.868,3.6,12.712,3.6,3.275,0,11.681,1.894,12.858-2.448C72.576,18.171,72.172,18.223,72.13,18.376Z" transform="translate(-32.723 -9.957)"/>
          <path id="Path_863" data-name="Path 863" d="M47.362,14.842c0-2.6-.867-3.007,1.591-3.068,2.677-.066,5.364,0,8.042,0H67.267c.8,0,4.4-.437,4.906.065.079.079-.108,3.213.189,2.895-.175.189-1.552,0-1.822,0-2.827.038-5.657,0-8.485,0H47.235c-.169,0-.415.256-.146.256H72.257c.074,0,.274-.037.274-.148V11.626a.115.115,0,0,0-.127-.108H47.235c-.074,0-.274.037-.274.148v3.216C46.961,15.069,47.362,14.995,47.362,14.842Z" transform="translate(-32.723 -9.489)"/>
          <path id="Path_864" data-name="Path 864" d="M83.278,79.871c-.833,2.006-4.494,1.168-6.167,1.168H38.8c-1.74,0-4.151.646-4.913-1.378-.511-1.354,0-3.95,0-5.369V22.666c0-2.654-.232-5.43,0-8.075.265-3.035,1.712-2.853,4.747-2.853,1.039,0,4.4-.6,5.2,0,.268.2.089,1.053.122,1.5.129,1.719.249,1.085-.9,1.46-1.93.631-5.361-1.241-6.437,1.031-.4.845-.013,2.81-.013,3.72V69.543c0,1.9-.526,4.629,0,6.464.822,2.868,7.072,1.463,9.522,1.463H73.006c2.711,0,6.837,1.24,7.536-1.8.486-2.118,0-4.933,0-7.1V18.743c0-.827.415-3-.286-3.733-1.707-1.781-6.023,1.128-7.066-1.039-.934-1.938.087-2.195,1.51-2.234,1.98-.055,4.644-.452,6.559,0,2.492.588,2,2.045,2,4.154V79.9a.115.115,0,0,0,.127.108h0c.169,0,.415-.256.146-.256-.587,0,1.3-59.928.126-66.206-.713-3.813-7.536-2.068-10.6-2.068-.074,0-.274.037-.274.148v3.216a.115.115,0,0,0,.127.108c1.97,0,6.322-.915,7.224,1.091.505,1.124,0,3.706,0,4.907V66.273c0,2.053,1.265,9.815-.871,10.941-1.258.664-4.733,0-6.117,0H40.172c-1.534,0-2.586.331-3.162-1.247-.5-1.36,0-3.874,0-5.3V23.24c0-1.984-.582-4.978,0-6.89.725-2.381,4.845-1.4,7.077-1.4.074,0,.274-.037.274-.148V11.59a.115.115,0,0,0-.127-.108H37.175c-.87,0-2.567-.295-3.3.491-1.177,1.263-.389,5.339-.389,6.778V71.729c0,2.222-.744,6,0,8.134.754,2.164,3.529,1.432,5.427,1.432H76.359c2.08,0,6.3,1,7.294-1.4C83.734,79.7,83.336,79.73,83.278,79.871Z" transform="translate(-31.553 -9.452)"/>
        </g>
      </g>
      <path id="Path_865" data-name="Path 865" d="M73.865,37.546a3.8,3.8,0,1,0-3.8-3.8A3.8,3.8,0,0,0,73.865,37.546Zm0-5.77a1.969,1.969,0,1,1-1.969,1.97A1.972,1.972,0,0,1,73.865,31.777Z" transform="translate(-14.638 -11.024)"/>
      <path id="Path_866" data-name="Path 866" d="M43.825,34.014a.915.915,0,0,0,.915.915H63.561a.915.915,0,0,0,0-1.83H44.74A.914.914,0,0,0,43.825,34.014Z" transform="translate(-12.413 -11.291)" stroke="#000" stroke-miterlimit="10" stroke-width="1"/>
      <path id="Path_867" data-name="Path 867" d="M73.865,49.03a3.8,3.8,0,1,0-3.8-3.8A3.8,3.8,0,0,0,73.865,49.03Zm0-5.769A1.969,1.969,0,1,1,71.9,45.23,1.971,1.971,0,0,1,73.865,43.261Z" transform="translate(-14.638 -11.998)"/>
      <path id="Path_868" data-name="Path 868" d="M63.561,44.583H44.74a.915.915,0,0,0,0,1.83H63.561a.915.915,0,1,0,0-1.83Z" transform="translate(-12.413 -12.265)" stroke="#000" stroke-miterlimit="10" stroke-width="1"/>
      <path id="Path_869" data-name="Path 869" d="M73.865,60.514a3.8,3.8,0,1,0-3.8-3.8A3.8,3.8,0,0,0,73.865,60.514Zm0-5.769A1.969,1.969,0,1,1,71.9,56.714,1.971,1.971,0,0,1,73.865,54.746Z" transform="translate(-14.638 -12.971)"/>
      <path id="Path_870" data-name="Path 870" d="M63.561,56.066H44.74a.915.915,0,1,0,0,1.83H63.561a.915.915,0,0,0,0-1.83Z" transform="translate(-12.413 -13.238)" stroke="#000" stroke-miterlimit="10" stroke-width="1"/>
      <path id="Path_871" data-name="Path 871" d="M73.865,72a3.8,3.8,0,1,0-3.8-3.8A3.8,3.8,0,0,0,73.865,72Zm0-5.769A1.969,1.969,0,1,1,71.9,68.2,1.971,1.971,0,0,1,73.865,66.23Z" transform="translate(-14.638 -13.945)"/>
      <path id="Path_872" data-name="Path 872" d="M63.561,67.551H44.74a.915.915,0,1,0,0,1.83H63.561a.915.915,0,1,0,0-1.83Z" transform="translate(-12.413 -14.212)" stroke="#000" stroke-miterlimit="10" stroke-width="1"/>
      <g id="Group_281" data-name="Group 281">
        <path id="Path_873" data-name="Path 873" d="M15.778,81.779a.95.95,0,0,0,.115.2,2.251,2.251,0,0,0,1.806.9h0a2.25,2.25,0,0,0,1.807-.9.917.917,0,0,0,.115-.2l5.582-13.4a.914.914,0,0,0,.07-.352V13.683a4.029,4.029,0,0,0-4.024-4.024h-7.1a4.03,4.03,0,0,0-4.025,4.024V68.023a.914.914,0,0,0,.07.352Zm4.2-5.614H15.423l-3.176-7.628H23.153Zm-3.855-9.458V22.815h3.157V66.707Zm-1.83,0H11.956V22.815H14.29Zm6.818,0V22.815h2.335V66.707Zm2.335-45.723H11.956V18.772H23.443ZM17.988,80.938a.429.429,0,0,1-.289.109.435.435,0,0,1-.288-.109L16.185,78h3.029ZM14.15,11.489h7.1a2.2,2.2,0,0,1,2.194,2.194v3.259H11.956V13.682A2.2,2.2,0,0,1,14.15,11.489Z" transform="translate(-9.557 -9.304)"/>
        <g id="Group_280" data-name="Group 280">
          <path id="Path_874" data-name="Path 874" d="M15.543,81.834c3.119,5.422,6.759-6.172,7.181-7.185,1.609-3.864,2.7-6.176,2.7-10.21V20.812c0-2.991,1.107-8.892-2.043-10.751-2.132-1.258-5.837-.653-8.154-.582s-4.433.562-5.2,3.1c-1.069,3.52-.149,8.474-.149,12.072V48.44c0,6.188-.687,12.819,0,18.976.535,4.8,3.8,9.924,5.654,14.384.074.179.47.066.4-.106-1.758-4.223-4.666-8.925-5.581-13.4-.6-2.956-.068-6.5-.068-9.5V19.879c0-4.224-1.182-9.233,4.916-10.105,3.516-.5,8.967-.3,9.829,3.971a21.36,21.36,0,0,1,0,3.946V55.5c0,3.938.695,8.544,0,12.426-.378,2.112-1.678,4.28-2.5,6.26-.192.46-3.991,12.024-6.61,7.474C15.817,81.5,15.438,81.652,15.543,81.834Z" transform="translate(-9.504 -9.271)"/>
          <path id="Path_875" data-name="Path 875" d="M20.171,81.458H18.319a8.357,8.357,0,0,1-2.5,0,2.911,2.911,0,0,1-.366-.75l-.829-1.992a26.181,26.181,0,0,1-1.9-4.562c-.049-.26-.514-.009.206-.027.624-.016,1.252,0,1.877,0h5.555a19.417,19.417,0,0,0,2.226,0,1.446,1.446,0,0,1,.536,0c.333.195-.05-.3-.007-.106.061.277-.448,1.077-.565,1.356l-1.078,2.59-1.506,3.616c-.088.211.312.213.381.048L23.52,74c.05-.122-.076-.171-.173-.171H12.442c-.079,0-.262.091-.216.2L15.4,81.658a.172.172,0,0,0,.181.094h4.552C20.365,81.752,20.441,81.458,20.171,81.458Z" transform="translate(-9.734 -14.744)"/>
          <path id="Path_876" data-name="Path 876" d="M16.859,67.9V27.518c0-1.949-.837-4.123,1.74-3.352,1.663.5.491-.514,1.014.6.344.734,0,2.519,0,3.32V64.676c0,3.358.536,3.089-2.938,3.089-.229,0-.3.295-.035.295H19.8c.079,0,.219-.068.219-.162V24c0-.1-.1-.133-.184-.133H16.675c-.079,0-.219.068-.219.162V67.927C16.456,68.136,16.859,68.079,16.859,67.9Z" transform="translate(-10.093 -10.509)"/>
          <path id="Path_877" data-name="Path 877" d="M14.459,67.765c-2.79,0-2.151-.19-2.151-2.873V30.19c0-.942-.651-5.3,0-6.024a7.487,7.487,0,0,1,1.932.029c.237.265,0,1.795,0,2.143V67.927c0,.21.4.152.4-.029V24c0-.1-.1-.133-.184-.133H12.124c-.079,0-.219.068-.219.162V67.927c0,.1.1.133.184.133h2.335C14.653,68.059,14.728,67.765,14.459,67.765Z" transform="translate(-9.708 -10.509)"/>
          <path id="Path_878" data-name="Path 878" d="M22.308,67.9V28.337c0-1.552-.436-3.775.547-4.171,2.23-.9,1.385,2.291,1.385,3.644V63.594c0,.873.384,2.8,0,3.6-.476.986-.457.573-2.116.573-.229,0-.3.295-.035.295h2.335c.079,0,.219-.068.219-.162V24c0-.1-.1-.133-.184-.133H22.124c-.079,0-.219.068-.219.162V67.927C21.905,68.136,22.308,68.079,22.308,67.9Z" transform="translate(-10.555 -10.509)"/>
          <path id="Path_879" data-name="Path 879" d="M23.611,21.667H16.518a21.63,21.63,0,0,1-3.849,0c-.737-.142-.216.231-.361-.213-.061-.189-.01-1.83-.1-1.738.041-.044,2,.034,2.4.034H19.4c1,0,2.793-.356,3.726,0,.679.259.041-.329.265.213a6.161,6.161,0,0,1,0,1.866c0,.21.4.152.4-.029V19.588c0-.1-.1-.133-.184-.133H12.124c-.079,0-.219.068-.219.162v2.212c0,.1.1.133.184.133H23.576C23.8,21.962,23.881,21.667,23.611,21.667Z" transform="translate(-9.708 -10.135)"/>
          <path id="Path_880" data-name="Path 880" d="M18.441,87.135c-.362.206-.376-.142-.481-.394l-.421-1.011-.613-1.471-.216.2h3.029l-.173-.171L18.34,87.23c-.088.211.312.213.381.048l1.225-2.942c.05-.122-.076-.171-.173-.171H16.744c-.079,0-.262.091-.216.2l.858,2.063c.241.578.421,1.4,1.232.945C18.853,87.24,18.641,87.022,18.441,87.135Z" transform="translate(-10.099 -15.62)"/>
          <path id="Path_881" data-name="Path 881" d="M14.28,11.782a49.054,49.054,0,0,1,6.793,0c3,.433,2.129,2.446,2.315,4.341.11,1.123.248.817-.951.817H14.088c-.453,0-1.882-.08-1.784.057-.218-.3,0-1.624,0-1.99,0-1.3-.242-2.927,1.976-3.225.221-.03.3-.331.035-.295-2.96.4-2.413,3.347-2.413,5.615,0,.1.1.133.184.133H23.571c.079,0,.219-.068.219-.162,0-2.206.565-5.276-2.4-5.586a69.448,69.448,0,0,0-7.079,0C14.086,11.487,14.01,11.782,14.28,11.782Z" transform="translate(-9.704 -9.45)"/>
        </g>
      </g>
    </g>
  </g>
</svg>
