<svg xmlns="http://www.w3.org/2000/svg" width="82.526" height="87.3" viewBox="0 0 82.526 87.3">
  <g id="Group_277" data-name="Group 277" transform="translate(-9.395 -9.343)">
    <g id="Layer_2" data-name="Layer 2">
      <path id="Path_842" data-name="Path 842" d="M91.205,42.567c-.339-6.463,1.19-17.9-5.32-21.8-3.88-2.323-9.659-1.421-14-1.5L57.2,18.982l-29.375-.558A6.831,6.831,0,0,0,22.8,20.378a7.381,7.381,0,0,0-4.089,6.267c-.5,6.982-2,16.8,2.7,22.227a91.193,91.193,0,0,0-1.734,18c-.008,3.987.2,7.971.475,11.947.274,3.9-.006,8.727,1.687,12.306,3.381,7.147,14.347,5.249,20.815,5.392,8.4.186,16.809.19,25.194-.374,4.21-.283,8.4-.729,12.583-1.307,3.518-.486,6.959-.892,9.278-3.907,2.2-2.86,2.013-6.461,2.087-9.89q.146-6.733.117-13.469Q91.859,55.062,91.205,42.567Z" fill="#638dc9"/>
    </g>
    <g id="Layer_1" data-name="Layer 1">
      <g id="Group_276" data-name="Group 276">
        <path id="Path_843" data-name="Path 843" d="M85.949,53.765H84.008v-3.1a9.352,9.352,0,0,0,3.276-7.107v-25.1a2.948,2.948,0,0,0-2.946-2.945H62.944V13.247a31.228,31.228,0,0,1,3.227,1.065.976.976,0,0,0,.372.072,1,1,0,0,0,.372-1.928A49.064,49.064,0,0,0,50.03,9.5c-6.927,0-13.407,1.112-17.337,2.976a1,1,0,1,0,.857,1.807,20.514,20.514,0,0,1,2.858-1.069V15.52H15.973a2.948,2.948,0,0,0-2.946,2.945v25.1A9.354,9.354,0,0,0,16.3,50.668v3.1h-2a4.185,4.185,0,0,0-4.176,4.185V78.294A4.185,4.185,0,0,0,14.3,82.478h2v1.934a5.371,5.371,0,0,0,5.36,5.371H78.647a5.371,5.371,0,0,0,5.36-5.371V82.478h1.941a4.185,4.185,0,0,0,4.176-4.184V57.949A4.183,4.183,0,0,0,85.949,53.765Zm0,2a2.183,2.183,0,0,1,2.176,2.185v5.335H84.008v-7.52ZM38.372,12.7A53.384,53.384,0,0,1,50.03,11.5a49.987,49.987,0,0,1,10.941,1.25.979.979,0,0,0-.027.133V15.52H38.409V12.883A.958.958,0,0,0,38.372,12.7ZM15.026,43.562v-25.1a.947.947,0,0,1,.946-.945H84.337a.947.947,0,0,1,.946.945v25.1a7.386,7.386,0,0,1-7.377,7.377H54.6V45.795a1,1,0,0,0-1-1H46.465a1,1,0,0,0-1,1v5.144H22.4A7.387,7.387,0,0,1,15.026,43.562Zm33.74,13.52a1.3,1.3,0,0,1-1.3-1.3V46.795H52.6v8.987a1.3,1.3,0,0,1-1.3,1.3ZM14.3,55.765h2v7.52H12.125V57.95A2.183,2.183,0,0,1,14.3,55.765Zm0,24.712a2.182,2.182,0,0,1-2.176-2.184V65.284H16.3V80.476h-2Zm4,3.933V51.981a9.307,9.307,0,0,0,4.1.957H45.466v2.844a3.3,3.3,0,0,0,3.3,3.3H49v28.7H21.663A3.37,3.37,0,0,1,18.3,84.41Zm60.344,3.371H51v-28.7h.295a3.3,3.3,0,0,0,3.3-3.3V52.938H77.908a9.3,9.3,0,0,0,4.1-.957V84.41A3.371,3.371,0,0,1,78.647,87.781Zm7.3-7.3H84.008V65.284h4.117V78.293A2.183,2.183,0,0,1,85.949,80.477Z"/>
        <g id="Group_275" data-name="Group 275">
          <path id="Path_844" data-name="Path 844" d="M86.182,53.609c-4.6,0,.971-6.331,1.356-8.714a36.528,36.528,0,0,0,.108-5.729c0-6.567.4-13.263,0-19.816-.318-5.266-5.566-3.986-9.505-3.986H67.88c-.934,0-2.985.4-3.837,0-.2-.092-.623.118-.809,0a2.281,2.281,0,0,0,.072-1.078q-.365-1.508,1.1-.361c.805.039,2.737,1.454,3.4-.19.96-2.395-7.382-3.369-8.478-3.565a55.328,55.328,0,0,0-16.416-.4c-1.992.242-9.181.7-10.542,2.729-.961,1.432-.344,1.723,1.122,1.931.931.132,3.575-1.923,2.56.829-.628,1.7.938-.421.35.107-.2.182-1.5-.006-1.756,0-5.894.132-12.561-.979-18.372,0-3.831.645-3.6,3.5-3.6,6.755,0,6.779-.127,13.573,0,20.351.054,2.921.966,4.875,2.36,7.4.879,1.589,1.459,3.145.51,3.741-.41.257-2.1.075-2.586.246-4.715,1.66-3.186,9.1-3.186,12.892,0,3.879-1.9,13.914,2.923,15.664,1.112.4,2.567-.132,3.255.665.769.892.135,3.5,1.2,4.82,1.355,1.681,3.095,1.969,5.083,2.043,12.449.462,25,0,37.458,0,5.877,0,11.787.179,17.661,0a8.735,8.735,0,0,0,3.871-.645,5.761,5.761,0,0,0,2.606-2.583c.829-1.708-.042-.592.549-2.4.6-1.834-.738-.949.843-1.681,2.133-.987,3.975-.074,5.057-3.08.745-2.071.217-5.121.217-7.224,0-4.875,2.526-17.615-4.241-18.711-.177-.029-.8.258-.592.292,5.919.959,4.109,9.976,4.109,14.308,0,4.958,1.985,14.1-5.522,14.1-.14,0-.6.048-.6.253,0,8.21-6.88,7.052-12.578,7.052H28.018c-5.639,0-11.353.409-11.353-7.246,0-.045-.109-.059-.129-.059-3.573,0-5.888-1.41-6.049-5.054-.121-2.742,0-5.517,0-8.261V60.17a10.646,10.646,0,0,1,0-2.164,5.538,5.538,0,0,1,5.583-4.085c.14,0,.6-.048.6-.253a12.021,12.021,0,0,0,0-3.1c-.634-1.978-2.788-3.292-3.172-5.713a32.2,32.2,0,0,1-.1-4.95V21.924c0-2.4-.644-5.329,2.414-6.248,1.491-.448,3.847,0,5.387,0H36.175c.14,0,.6-.048.6-.253V13.117c0-.14-.457-.008-.49,0-3.433,1.146.132-1.677,1.639-2.207a23.323,23.323,0,0,1,4.753-.815,53.757,53.757,0,0,1,11.792-.21,51.351,51.351,0,0,1,8.742,1.583,7.507,7.507,0,0,1,2.412.754c3.546,3.341-1.832,1.04-2.378.875-.144-.044-.658.036-.658.243v2.273c0,.045.109.059.129.059H77.676c1.9,0,4.347-.431,6.2,0,3.5.814,3.043,2.9,3.043,5.441V39.36c0,1.421.1,2.88,0,4.3-.218,3.17-.847,3.453-2.306,6.1-.167.3-.882.643-.968.984a14.343,14.343,0,0,0,0,3.114c0,.045.109.059.129.059h1.941C85.881,53.921,86.54,53.609,86.182,53.609Z"/>
          <path id="Path_845" data-name="Path 845" d="M85.716,55.921c2.251.2,2.047,2.289,2.047,3.92v3.541l.6-.253h-3.3a2.41,2.41,0,0,1-.588,0c-.32-.161-.027.124-.1,0-.113-.2,0-.8,0-1.006V55.668l-.6.253h1.941c.165,0,.824-.312.466-.312H84.241c-.14,0-.595.048-.595.253v7.52c0,.045.109.059.129.059h4.117c.14,0,.6-.048.6-.253V58.862c0-1.647-.389-3.08-2.305-3.253C86.013,55.594,85.35,55.888,85.716,55.921Z"/>
          <path id="Path_846" data-name="Path 846" d="M38.308,12.842A53.545,53.545,0,0,1,53.18,11.78c1.523.109,5.823.009,6.763.994,1.257,1.316-.358-.54.639,1.134.229.386-.278,1.97.414,1.456-.191.142-1.1,0-1.327,0-1.533.013-3.067,0-4.6,0H42.5c-.628,0-2.946.352-3.461,0-.608-.416-.109-1.77-.307-2.764-.033-.168-.762,0-.724.194a15.113,15.113,0,0,1,.037,2.823c0,.045.109.059.129.059H60.711c.14,0,.6-.048.6-.253a14.512,14.512,0,0,1,.023-2.734c.01-.046-.013-.075-.062-.085a54.78,54.78,0,0,0-22.831-.052C38.144,12.614,37.8,12.949,38.308,12.842Z"/>
          <path id="Path_847" data-name="Path 847" d="M15.388,43.465V21.924c0-1.91-.522-3.573,1.138-4.248,1.6-.649,4.877,0,6.58,0H74.7c3.057,0,9.642-1.581,10.222,2.075.593,3.741,0,8.073,0,11.854,0,3.739.21,7.545,0,11.278-.61,10.829-16.314,7.9-23.751,7.9a25.591,25.591,0,0,1-4.786,0c-1.777-.362-1.2.417-1.426-1.569-.448-3.885.51-4.575-3.741-4.575-1.854,0-5.156-.854-6.11,1.217-.617,1.339.706,3.679,0,4.959-.022.04.743-.391-.24-.032a7.961,7.961,0,0,1-2.229,0H27.624c-5.521,0-11.6-.215-12.236-7.318-.013-.151-.743-.015-.724.194.7,7.771,7.451,7.436,13.345,7.436H45.232c.14,0,.6-.048.6-.253,0-1.23-.425-3.516,0-4.632.714-1.872,2.582-1.259,4.456-1.259,4.672,0,3.951,1.984,3.951,6.085,0,.045.109.059.129.059H73.052c4.282,0,9.056.461,11.58-3.874,2.582-4.434,1.013-12.5,1.013-17.294,0-2.371,1.478-11.35-1.095-12.563-2.26-1.066-7.71,0-10.108,0H30.225c-4.308,0-9.073-.579-13.351,0-3.065.415-2.21,2.721-2.21,5.5v20.8C14.664,43.793,15.388,43.686,15.388,43.465Z"/>
          <path id="Path_848" data-name="Path 848" d="M49.062,56.936c-1.936-.392-1.235-3.96-1.235-5.337V46.7l-.6.253a33.958,33.958,0,0,1,4.545,0c.736.1.334-.2.457.5a14.137,14.137,0,0,1,0,2.337c0,1.8.067,3.622,0,5.424-.076,2.038-1.586,1.717-3.235,1.717-.165,0-.824.312-.466.312,1.981,0,4.3.461,4.425-2.109.133-2.8,0-5.63,0-8.431,0-.045-.109-.059-.129-.059H47.7c-.14,0-.6.048-.6.253v5.7c0,1.523-.612,4.232,1.367,4.632C48.647,57.264,49.277,56.979,49.062,56.936Z"/>
          <path id="Path_849" data-name="Path 849" d="M14.068,55.921c.562,0,1.788-.085,1.873.074a7.175,7.175,0,0,1,0,2.317v5.07l.595-.253H13.858c-.232,0-1.186.156-1.394,0,.034.025.005-.132.023-.422.1-1.6-.9-6.556,1.66-6.786.2-.018.783-.355.308-.312-3.752.339-2.692,5.115-2.692,7.773,0,.045.109.059.129.059H16.07c.14,0,.6-.048.6-.253v-7.52c0-.045-.109-.059-.129-.059h-2C14.369,55.609,13.71,55.921,14.068,55.921Z"/>
          <path id="Path_850" data-name="Path 850" d="M14.6,80.331c-3.1-.5-2.11-5.5-2.11-7.755V65.187l-.6.253c.767,0,3.738-.325,4.049.063.51.637,0,3.742,0,4.545V80.573l.595-.253h-2c-.14,0-.6.048-.6.253h0c0,.134.724.027.724-.194h0l-.6.253h2c.14,0,.6-.048.6-.253V65.187c0-.045-.109-.059-.129-.059H12.358c-.14,0-.6.048-.6.253v8.543c0,2.311-.852,6.2,2.242,6.7C14.182,80.652,14.807,80.365,14.6,80.331Z"/>
          <path id="Path_851" data-name="Path 851" d="M18.665,84.313V57.521c0-1.183-.521-3.806,0-4.859.753-1.52-1.286.347.63-.017a19.93,19.93,0,0,1,3.095.449c4.558.255,9.2,0,13.767,0h6.977c2.634,0,1.617,0,1.97,2.489a4.214,4.214,0,0,0,.989,2.658c-1.1-1.1,3.553,2.745,2.441,1,.391.614.1,2.522.1,3.383V85.377a9.959,9.959,0,0,1,0,1.976c-.205.9.713.047.305.272-1.065.588-4.368,0-5.538,0H34.1c-3.785,0-14.386,1.9-15.438-3.312-.034-.169-.763,0-.724.194,1.078,5.345,9.81,3.43,13.774,3.43H48.767c.14,0,.6-.048.6-.253v-28.7c0-.045-.109-.059-.129-.059-3.983,0-3.405-3.707-3.405-6.085,0-.045-.109-.059-.129-.059H33.182c-4.6,0-10.215.809-14.583-.947-.141-.057-.658.045-.658.243V84.507C17.941,84.641,18.665,84.534,18.665,84.313Z"/>
          <path id="Path_852" data-name="Path 852" d="M78.88,87.625H58.4c-1.405,0-5.249.728-6.463,0-.887-.532-.348.153-.575-1.4a48.347,48.347,0,0,1,0-6.723V62.758c0-.717-.413-3.1,0-3.729-.641.975,2.311-.638,2.6-.936.958-1,.751-5.293.462-5,.57-.58,4.6,0,5.405,0,5.518,0,11.043.087,16.56,0a16.326,16.326,0,0,0,3-.146c2.312-.469,2.264-1.359,2.264,1.184V72.227c0,3.373,1.891,14.429-2.936,15.409-.293.06-.634.393-.128.29,5.834-1.184,3.788-10.029,3.788-14.459V51.884c0-.138-.457-.01-.49,0-4.55,1.829-10.625.894-15.4.894H54.829c-.14,0-.595.048-.595.253,0,2.164.56,5.891-3,5.891-.14,0-.6.048-.6.253v28.7c0,.045.109.059.129.059H78.414C78.579,87.937,79.238,87.625,78.88,87.625Z"/>
          <path id="Path_853" data-name="Path 853" d="M86.182,80.321c-1.65,0-1.759.387-1.812-1.128-.06-1.733,0-3.48,0-5.215V65.187l-.6.253c.637,0,3.746-.329,3.988-.024.435.55,0,3.191,0,3.875,0,2.033,1.3,10.546-1.75,11.041-.3.049-.637.373-.128.29,3.02-.49,2.6-3.116,2.6-5.542V65.187c0-.045-.109-.059-.129-.059H84.241c-.14,0-.595.048-.595.253V80.574c0,.045.109.059.129.059h1.941C85.881,80.633,86.54,80.321,86.182,80.321Z"/>
        </g>
      </g>
      <path id="Path_854" data-name="Path 854" d="M34.337,25.169H65.974a1,1,0,0,0,0-2H34.337a1,1,0,0,0,0,2Z"/>
      <path id="Path_855" data-name="Path 855" d="M41.465,63.284H25.158a1,1,0,0,0-1,1V77.209a5.274,5.274,0,0,0,5.268,5.268H37.2a5.274,5.274,0,0,0,5.268-5.268V64.284A1,1,0,0,0,41.465,63.284Zm-1,2V69.37H26.158V65.284ZM37.2,80.477H29.426a3.272,3.272,0,0,1-3.268-3.268V71.37H40.465v5.839A3.272,3.272,0,0,1,37.2,80.477Z"/>
      <path id="Path_856" data-name="Path 856" d="M74.9,63.284H58.6a1,1,0,0,0-1,1V77.209a5.274,5.274,0,0,0,5.268,5.268h7.771A5.274,5.274,0,0,0,75.9,77.209V64.284A1,1,0,0,0,74.9,63.284Zm-1,2V69.37H59.6V65.284ZM70.635,80.477H62.864A3.272,3.272,0,0,1,59.6,77.209V71.37H73.9v5.839A3.272,3.272,0,0,1,70.635,80.477Z"/>
    </g>
  </g>
</svg>
