<svg id="Layer_1" data-name="Layer 1" width="192.666" height="101.37" xmlns="http://www.w3.org/2000/svg" xmlns:xlink="http://www.w3.org/1999/xlink" viewBox="0 0 205.22 111.78"><defs><style>.cls-1,.cls-6{fill:none;}.cls-2{fill:#638dc9;}.cls-3{fill:#ffc829;}.cls-4{clip-path:url(#clip-path);}.cls-5,.cls-6{stroke:#000;stroke-linecap:round;stroke-linejoin:round;}.cls-5{stroke-width:1.05px;}.cls-6{stroke-width:1.25px;}</style><clipPath id="clip-path" transform="translate(0.02 0)"><rect class="cls-1" x="54.21" y="8.14" width="85.97" height="101.86"/></clipPath></defs><title>caremobile</title><g id="Group_329" data-name="Group 329"><path id="Path_1002" data-name="Path 1002" class="cls-2" d="M134.21,59a4.87,4.87,0,0,0-5.35-3.74,6.68,6.68,0,0,0-5.2,2.8c-2-.71-7.35-2-7.74-2a10.19,10.19,0,0,0-3.21-.25c-6.85.82-12.64,3.54-16.55,9.5-.39.6-.56,1.43-1.41,1.62-.09-.06-.24-.1-.24-.16a7,7,0,0,1,0-1.58A65.72,65.72,0,0,0,96.08,49.7a66.84,66.84,0,0,1,.81-8.7,25.21,25.21,0,0,1,2.71-8.27,8.35,8.35,0,0,1,1.1-1.34c.21,1.75.16,2.81.8,4a5.52,5.52,0,0,0,3.63,2.76,8.47,8.47,0,0,0,6.18-.8A5.37,5.37,0,0,0,113.82,31a7.74,7.74,0,0,0-3.65-4.39,5.26,5.26,0,0,0-5.27-.24,9.63,9.63,0,0,1-1.56.55c1.89-2.5,3.94-4.49,7.33-3a3.45,3.45,0,0,0,1,.17,7.65,7.65,0,0,0,8.75-6.35,7.92,7.92,0,0,0,0-2.28,12.54,12.54,0,0,0-3.49-7.16,6.41,6.41,0,0,0-4.25-2.14,8.29,8.29,0,0,0-8.25,5.62,9,9,0,0,0,.67,7.52l1,1.71a9.39,9.39,0,0,1-1.13.77,12,12,0,0,0-4.85,4.65c-3.88,6.18-6.48,12.79-6.33,20.32a75.5,75.5,0,0,1-.39,8.77C92.64,63.63,92,71.94,89,79.56A60.15,60.15,0,0,1,78.55,97a46.9,46.9,0,0,1-7.62,7c-3.09,2.26-6.36,3.18-9.81,4.72-.38.17-.74.34-1.1.53a1.78,1.78,0,0,0-.9,1.49c5.62.38,11-2.34,15-5.65A53.44,53.44,0,0,0,87,89.42c1.31-2.35,2.51-4.76,3.67-7.19s1.87-5.06,3.13-7.41c1-1.87,2.19-3.63,3.28-5.44,1.33-2.22,2.32-4.45,4.3-6.2a22.13,22.13,0,0,1,9.64-4.69,6.09,6.09,0,0,1,3.91.15,5,5,0,0,0-2.37,4.43,5.22,5.22,0,0,0,2.47,4.64c2.79,1.63,5.59.3,7.71-3.72a5.75,5.75,0,0,0,4.2,2.82A6.07,6.07,0,0,0,134.21,59Z" transform="translate(0.02 0)"/><path id="Path_1012" data-name="Path 1012" class="cls-3" d="M37.87,24.16c-.43-.2-.87-.4-1.33-.58a27.38,27.38,0,0,0-11.7-1.5C15,22.71,6.36,29.92,4.7,39.75,2.78,51.08,6.6,62.23,17,65.42,26.52,68.34,41.62,67.51,48.23,55,51.59,44.74,48.41,29.29,37.87,24.16Z" transform="translate(0.02 0)"/><g id="Group_328" data-name="Group 328"><g id="Group_300" data-name="Group 300"><path id="Path_1010" data-name="Path 1010" d="M204.94,57.63c-9.1,10.55-26.52,15.42-38.45,7.07-8.5-6-10.25-19.33-6.89-28.2,6-15.89,22.24-24.85,34.84-35.28l.18-.15c.34-.25.71-.53.46-1l0,0H195l-2.81.07c-2.53.06-5.15.13-7.71.26a4.68,4.68,0,0,0-2.26.94l-1,.66c-2.6,1.79-5.3,3.64-7.84,5.6-8.36,6.49-16.6,15-21,24.76-4,9-4.42,20.18.3,29,.2.4.39.82.55,1.24l.16.38c.13.31-5.89,5.38-6.42,5.83a64.28,64.28,0,0,1-8,5.87,45.67,45.67,0,0,1-17.76,6.76,38.84,38.84,0,0,1-21.4-3C91.65,74.45,86.5,63.94,81.8,56.63c-5-7.69-10.36-15.28-18.47-19.9-5.67-3.23-10.65-5.89-17.16-7.17l-1.8-.36c-.55-.6-1.08-1.2-1.59-1.78-1.1-1.27-2.15-2.46-3.31-3.56a23.44,23.44,0,0,0-27-3.6,24.1,24.1,0,0,0-9.74,9.56A22.65,22.65,0,0,0,.36,44.69C2.06,54.48,8,60.94,17.58,63.39a23.13,23.13,0,0,0,13.29-.24,24.37,24.37,0,0,0,10.86-7.77,22,22,0,0,0,5.1-15.24c0-.2,0-.41,0-.61a3,3,0,0,1,.3-2.08c15.43,2.64,26,17.72,33,30.49C83.48,74,87.79,80,93.93,83.57l.24.13a42.44,42.44,0,0,0,23.58,5.51c14.8-.82,29.15-8.84,39.42-20l.66-.72.18.05a.34.34,0,0,1,.17,0l.31.25c.44.37.9.74,1.34,1.14,9.42,8.63,23.51,12.57,35.4,6.8,4.07-2,10-6.54,10-8.88A94.63,94.63,0,0,1,204.94,57.63ZM30.49,60.45A20.82,20.82,0,0,1,15.08,21.79c9.26-4,21.44-.5,25.22,7.46-3.13.65-6.24,1.28-8.84,3.26-1-.58-1.83-1.17-2.74-1.62a10.26,10.26,0,0,0-14.84,9.58,10.46,10.46,0,0,0,10,9.9A10.07,10.07,0,0,0,34.4,41.55c.11-.81.16-1.63.23-2.44,2.45-3.23,5.82-2.4,9-2.29C46.29,46,40.39,57,30.49,60.45Z" transform="translate(0.02 0)"/><path id="Path_1011" data-name="Path 1011" d="M16.56,52.43a36.52,36.52,0,0,1-3.15-2.94C10.58,46.17,9.31,42.4,10.52,38c.08-.29.15-.59.29-1.15-.24-.32-.48-1-.92-1.17a1.05,1.05,0,0,0-1.42.81,15.15,15.15,0,0,0-.83,3.58c-.34,6.52,2.93,11.13,8,14.7a1,1,0,0,0,.56.23c.38-.06,1-.11,1.07-.35a2,2,0,0,0,.1-1.39C17.3,52.94,16.86,52.7,16.56,52.43Z" transform="translate(0.02 0)"/></g><g class="cls-4"><g id="Mask_Group_4" data-name="Mask Group 4"><g id="Group_299" data-name="Group 299"><g id="Group_298" data-name="Group 298"><g id="Group_297" data-name="Group 297"><path id="Path_1005" data-name="Path 1005" class="cls-5" d="M132,61.06c-1.6-4.84-8-4.78-10.78-1l.48,0a50.26,50.26,0,0,0-8.3-2.12c-3.58-.57-7.71.65-10.91,2.23a19,19,0,0,0-6.89,5.66c-.21.28-1.3,2.38-1.58,2.41-.66.06.14-3,.21-3.37q.44-2.3.69-4.62a75.76,75.76,0,0,0,.38-8.39,53.45,53.45,0,0,1,1-9.19,17.05,17.05,0,0,1,3.48-8.1l-.64-.1c.18,1.57.2,3.17,1.15,4.5a5.68,5.68,0,0,0,3.27,2.17c2.75.72,6.35.13,8.12-2.29,2-2.66.75-6.24-1.63-8.21A7.44,7.44,0,0,0,106.58,29c-1.79-.3-3.15.53-4.82,1l.53.18a10.24,10.24,0,0,1,2.6-2.65c1.71-1,3.28-.2,5,0a8.44,8.44,0,0,0,5-.92c4-2.18,4.5-6.89,2.82-10.75s-5-6.67-9.31-5.62a8.53,8.53,0,0,0-6.14,10c.28,1.35,1.15,2.28,1.59,3.52s-1.57,1.74-2.4,2.39c-2.07,1.61-3.4,4-4.63,6.25a34.23,34.23,0,0,0-4.44,15.6c-.23,12.29-.95,25.23-6.28,36.51a53.58,53.58,0,0,1-11.42,16.1,30.6,30.6,0,0,1-8.59,6c-1.52.66-3.07,1.23-4.58,1.89-.88.38-3.23,1.33-3.33,2.45,0,.07.1.12.15.13,6.69.27,12.29-2.67,16.64-6.4A55.85,55.85,0,0,0,88.13,87.5c1.71-3.33,2.94-6.79,4.51-10.16a46.25,46.25,0,0,1,2.85-4.92c1-1.54,1.79-3.15,2.77-4.67,2.13-3.29,5.58-5.28,9.24-6.47a17.93,17.93,0,0,1,2.88-.75c.28,0,2,0,2.1.41,0,0-.46.42-.56.52a4.74,4.74,0,0,0-1.33,3.95A5.11,5.11,0,0,0,115,70.2c2.83.32,4.74-2,6-4.27l-.62-.06a6.9,6.9,0,0,0,7.92,2.64c3.21-1.06,4.54-4.33,3.72-7.46,0-.17-.68-.19-.63,0A5.75,5.75,0,0,1,121,65.86c-.08-.13-.54-.21-.62-.06-1.6,2.9-5.25,6.26-8.14,2.46a5.28,5.28,0,0,1,1.12-7.39l.08-.06c.1-.08,0-.15-.1-.18a9.06,9.06,0,0,0-5.75.26,21.4,21.4,0,0,0-6.93,3.43c-2.3,1.78-3.53,4.22-5,6.67a57.91,57.91,0,0,0-4.32,7.78c-4.44,11.1-10.54,21.9-20.67,28.75a23.32,23.32,0,0,1-3.78,2.12c-1.66.72-4.5,2.16-6.25,1.39-1.58-.69.4-1.79,1-2,.83-.38,1.68-.72,2.53-1.06,1.2-.49,2.39-1,3.55-1.51,5.31-2.55,9.72-7.15,13.2-11.8A57.71,57.71,0,0,0,89,79.5c2.11-6,2.84-12.27,3.44-18.53.33-3.48.68-7,.69-10.46a36.06,36.06,0,0,1,1.11-9.92,39.54,39.54,0,0,1,4.09-9.38,20.7,20.7,0,0,1,2.53-3.63,25.53,25.53,0,0,1,4.05-3s.07-.06,0-.1c-1.36-2.23-2.4-4.3-2-7a8.11,8.11,0,0,1,3.62-6,6.38,6.38,0,0,1,8.21.75,12,12,0,0,1,3.32,6.83,7.25,7.25,0,0,1-6.19,8.18,7,7,0,0,1-1.45.06c-1.68-.12-3-1-4.74-.56s-3,1.93-4,3.3c-.13.17.46.2.53.17,2.06-.62,3.48-1.58,5.87-.45a6.74,6.74,0,0,1,2.74,2.39,5.59,5.59,0,0,1,.47,6.12c-1.66,2.73-5.86,3.58-8.61,2.15-2.41-1.25-2.63-3.56-2.9-6,0-.2-.53-.21-.64-.09-3.29,3.74-3.78,9.31-4.27,14.06-.3,3-.11,5.94-.31,8.9A64.4,64.4,0,0,1,93.36,66c-.15.69-.83,2.77.47,2.76.51,0,.88-.49,1.13-.86.57-.86,1.06-1.74,1.72-2.55a20.6,20.6,0,0,1,12.1-6.93c4.19-.83,8.6.44,12.58,1.8.11,0,.4.09.49,0a6.35,6.35,0,0,1,5.2-2.66,4.59,4.59,0,0,1,4.32,3.5C131.44,61.24,132.08,61.25,132,61.06Z" transform="translate(0.02 0)"/><path id="Path_1006" data-name="Path 1006" class="cls-5" d="M120.06,61.53a.73.73,0,0,1-.9.52.62.62,0,0,1-.22-.1c-.27-.16-.49-.41-.77-.56a1.66,1.66,0,0,0-.27-.13c-.7.07-.11.14-.11.14a2.05,2.05,0,0,0,.55.05,4.79,4.79,0,0,0,2.49-.16l-.59-.16-.18.4c-.06.14.57.26.66.06l.15-.33c.1-.22-.49-.21-.6-.16a4,4,0,0,1-2.1.07c-.13,0-1-.17-.9.12s.65.38.74.45a2.75,2.75,0,0,0,1,.62,1.43,1.43,0,0,0,1.7-.77C120.78,61.47,120.15,61.33,120.06,61.53Z" transform="translate(0.02 0)"/></g></g><path id="Path_1008" data-name="Path 1008" class="cls-6" d="M93.78,20.27a10.34,10.34,0,0,1,2.13.8,6.87,6.87,0,0,1,1.83,9.55,5.91,5.91,0,0,1-.49.63,8.25,8.25,0,0,1-4.63,2.53,5.21,5.21,0,0,1-6-3.89c-1-3.88,2.07-8.64,6-9.45C92.9,20.37,93.22,20.34,93.78,20.27Z" transform="translate(0.02 0)"/><path id="Path_1009" data-name="Path 1009" class="cls-6" d="M124.35,53.29a5.41,5.41,0,0,1-5.28,5.24c-2.4,0-4.72-2.44-4.78-5-.06-2.18,2.36-5,5.51-5.12C122,48.34,124.32,50.93,124.35,53.29Z" transform="translate(0.02 0)"/></g></g></g></g></g></svg>