<svg id="Layer_1" data-name="Layer 1" width="192.666" height="101.37"  xmlns="http://www.w3.org/2000/svg" viewBox="0 0 163.14 110.57"><defs><style>.cls-1{fill:#da291c;}.cls-2,.cls-4{stroke:#000;}.cls-2,.cls-3,.cls-4{stroke-linecap:round;stroke-linejoin:round;}.cls-2{stroke-width:1.5px;}.cls-3{fill:#fff;stroke:#707070;}</style></defs><title>familyroom</title><g id="Group_293" data-name="Group 293"><g id="Layer_2_Image" data-name="Layer 2 Image"><path id="Path_991" data-name="Path 991" class="cls-1" d="M162,49.87a9.87,9.87,0,0,1,.16,1.2c0,5.55,0,11.1,0,16.65,0,2.12-.4,2.55-2.59,3a35.86,35.86,0,0,1-3.73.47,295.15,295.15,0,0,1-31.48.57c-5.24-.17-10.49.18-15.74.22Q93.41,72,78.17,72a34.81,34.81,0,0,1-4.45-.22,111,111,0,0,0-17.1-.42,18.38,18.38,0,0,1-3.39-.26,5.57,5.57,0,0,1-1.48-.7c.26-.4.37-.74.61-.88a6.77,6.77,0,0,1,1.56-.62,15.39,15.39,0,0,0,8-4.44,8,8,0,0,1,4-2.21c4.5-1.17,9-2.41,13.5-3.43a82.71,82.71,0,0,0,17.84-6.2c2.22-1.07,4.22-1.38,6.45-.26a6.83,6.83,0,0,0,1.6.53c2,.49,2.83.14,3.86-1.58.36-.62.7-1.26,1.12-2l-3.43-.71a11.7,11.7,0,0,1-.26-2.12c.15-2.77.4-5.52.6-8.28a9.52,9.52,0,0,0,.09-1.85,17,17,0,0,1,.3-5.51c.38-2-.86-6.17-2.21-7.91-.26-.34-.59-.63-.87-1a5.13,5.13,0,0,1-1.35-4.86,5.36,5.36,0,0,0,.17-3.51,11.33,11.33,0,0,0-2.2.65c-3.58,1.94-7.74,2.44-11.55,3.8a7.23,7.23,0,0,1-2.36.21A44.41,44.41,0,0,0,70.43,21.9,38.77,38.77,0,0,1,63,24.15a6.32,6.32,0,0,1-1.68.13c-1.07-.07-2-1.12-1.56-2,1.17-2.39,1.06-5,2.12-7.44A68.79,68.79,0,0,1,65,8,55.13,55.13,0,0,1,69.4,1.82,5.09,5.09,0,0,1,73.84,0c9.47.07,19,0,28.43,0L142,0a44,44,0,0,1,11.48,1.48,11.78,11.78,0,0,1,7,5.09,11.67,11.67,0,0,1,2,6.75c-.17,9-.19,18.09-.26,27.13C162.22,42.8,160.36,49.09,162,49.87Z" transform="translate(-0.02 0.03)"/><path id="Path_992" data-name="Path 992" class="cls-1" d="M162.11,72.47v6.37c0,5-.18,9.91,0,14.86a18.51,18.51,0,0,1-4.9,13.29,8.18,8.18,0,0,1-6.87,3.12c-1.59-.1-3.19,0-4.78,0l-100,.35H42.5c-1.25-1.59-1.39-3.45-1.66-5.17-1.12-6.89-2.57-13.75-2.43-20.79,0-.89-.25-1.8-.22-2.68a13.13,13.13,0,0,1,.41-3A2.63,2.63,0,0,1,41,76.74a53.09,53.09,0,0,1,5.77-.4c6,.09,12,.48,18.07.41,6.59-.07,13.18-.45,19.76-.83,9.09-.54,18.16-1.22,27.24-1.82,7.6-.5,15.2-1.1,22.8-1.44s15.24-.42,22.85-.59A14.21,14.21,0,0,1,162.11,72.47Z" transform="translate(-0.02 0.03)"/><path id="Path_993" data-name="Path 993" class="cls-1" d="M1.45,110.2c0-.76,0-1.56,0-2.35.39-6,.82-12.08,1.19-18.13a47.06,47.06,0,0,0-1.44-14C.75,73.8.5,71.86.17,69.94a12.08,12.08,0,0,1,2.76-9.77C7.41,54.42,17,51,24.62,53.62a14.57,14.57,0,0,1,8.83,7.55,16,16,0,0,1,0,15.33,46.84,46.84,0,0,0-2,4.82,10.84,10.84,0,0,0,0,7,71.45,71.45,0,0,1,2.31,15.18c.07,1.13.23,2.25.31,3.37s.12,2,.19,3.11a5.68,5.68,0,0,1-1.26.43C29.44,110.67,3.54,110.53,1.45,110.2Z" transform="translate(-0.02 0.03)"/><path id="Path_994" data-name="Path 994" class="cls-1" d="M45,67.62c-.17-.73-.51-1.33-.4-1.83.66-2.8-.38-5.27-1.32-7.77-.11-.28-.28-.55-.38-.84-1.67-4.64-5.35-6.8-9.85-7.92a8.73,8.73,0,0,1-2-.59,2.27,2.27,0,0,1-.26-3.85,4.82,4.82,0,0,1,1.36-.68,80.63,80.63,0,0,0,10.39-4.67c2.47-1.24,5-2.33,7.56-3.46a4.12,4.12,0,0,1,1.47-.36,1.87,1.87,0,0,1,1.94,1.23,3.61,3.61,0,0,1,.35,1.48c-.09,3.45,1.1,6.66,1.78,10a23.37,23.37,0,0,1,.26,10.09A5.48,5.48,0,0,1,53.69,62c-1.36.92-2.7,1.87-4.07,2.77S46.7,66.57,45,67.62Z" transform="translate(-0.02 0.03)"/><path id="Path_995" data-name="Path 995" class="cls-1" d="M60.41,46.17c-.73-.94-.73-2-.39-3.38A4.89,4.89,0,0,1,60.41,46.17Z" transform="translate(-0.02 0.03)"/></g><g id="Layer_4_Image" data-name="Layer 4 Image"><path id="Path_997" data-name="Path 997" class="cls-2" d="M111,49.78c0,1.18,1.07,1.22,1.35,1.84a1.5,1.5,0,0,1,.09,1.14,1.44,1.44,0,0,1-1,.62,19,19,0,0,1-2.62-.24,12.87,12.87,0,0,1-2-.36c-3.62-1-6.68.19-9.63,2-2.12,1.3-4.27,2.54-6.43,3.78a23.83,23.83,0,0,1-15.91,2.69A31.22,31.22,0,0,0,69.91,61a7.43,7.43,0,0,0-6.39,3.25c-.47.69-1,1.31-1.65,2.09-1.87-.68-3.34.07-4.86,1-3.4,2.1-6.89,4.07-10.33,6.1a13.76,13.76,0,0,0-1.15.86c.18.79.73.6,1.1.59L84,73.47l4.3-.18,71.1-2.23c.55,0,1.1-.06,1.65,0,1,0,1.12.33,1,1.9-.7.08-1.43.22-2.17.24-16.43.49-32.85.93-49.28,1.44q-27.94.86-55.89,1.8c-3.86.13-7.71.31-11.57.45a5.81,5.81,0,0,1-4-.74,18.77,18.77,0,0,0-.78,2.55,13.76,13.76,0,0,0,.72,6.07A106.19,106.19,0,0,1,43,106.89a8.42,8.42,0,0,1,0,1.23,5.2,5.2,0,0,1-.22.77c-.52.11-1.13.28-1.76.37a15.13,15.13,0,0,1-1.73.08,4.21,4.21,0,0,1-.25-1.22c.56-5.39-.41-10.66-1.46-15.91-.58-2.93-1.26-5.85-2.05-8.73a10.62,10.62,0,0,1,.92-8.65A43.49,43.49,0,0,0,38.6,71a24.73,24.73,0,0,0,2.18-5.45c.75-3.95-.09-7.54-3.73-10.22C33.91,53,30.66,51,26.68,50.08a25.83,25.83,0,0,0-9.83-.42C10.44,50.72,6.2,54.89,5.53,60.89a8.37,8.37,0,0,0,.26,3.34,59.69,59.69,0,0,0,2.46,6.36,34.23,34.23,0,0,1,2.6,7.29A15.38,15.38,0,0,1,10.91,84a117.88,117.88,0,0,0-2.05,20.53c0,1.52,0,3,0,4.62a3,3,0,0,1-2.71.3c-.2-.21-.39-.34-.46-.52a2.74,2.74,0,0,1-.24-.88c-.34-7-.77-14,1.48-20.8,1.33-4,.9-7.93-.24-11.83a77.73,77.73,0,0,0-3-8.14A12.43,12.43,0,0,1,4.92,54.91c.35-.53.74-1,1-1.58a12.94,12.94,0,0,1,5.88-5.19c14-7.18,28-14.47,41.91-21.74a8.94,8.94,0,0,0,1-.66L54,23.24c.12-.81,1-.7,1.55-1.2.2-1.72.42-3.54.64-5.37a37.35,37.35,0,0,1,3.11-10A21.53,21.53,0,0,1,61.9,2.76C63.15,1,64.8.41,67.15,1.36c-1,1.25-2.12,2.4-3,3.67a35.83,35.83,0,0,0-2.49,4.34,33.05,33.05,0,0,0-1.77,4.31c-.5,1.57-.78,3.2-1.2,4.79A9.32,9.32,0,0,0,58.44,23a12.72,12.72,0,0,0,6.28.08c2.23-.56,4.43-1.24,6.63-1.93,3.23-1,6.44-2.11,9.68-3.1a30.71,30.71,0,0,1,9.48-1.2c4.95.06,8.88-2,12.67-4.58.45-.3.86-.64,1.3-1a1.62,1.62,0,0,1,1.84-.16,1.49,1.49,0,0,1,.71,1.61c-.08.71-.19,1.43-.34,2.13a7.71,7.71,0,0,0,1.17,6.47,11.64,11.64,0,0,1,2,7.05c-.13,5.23-.31,10.47-.46,15.71,0,1,0,2,0,3.23a14.55,14.55,0,0,0,1.85.3c2.09.08,4.19.16,6.28.13q13.91-.23,27.79-.52c4.3-.09,8.6-.27,12.9-.39,1.21,0,2.41,0,3.59,0a5.24,5.24,0,0,1,.54.87c.06.17,0,.39-.09.78M58,25.49c.35.79.57,1.24.74,1.69.93,2.41,2,4.78,2.71,7.25A41,41,0,0,1,62.63,47a22.52,22.52,0,0,0,1,7.91c.34,1.08.51,2.2.76,3.3.1.47-.06,1.05.75,1.35a22.71,22.71,0,0,1,10.92-.67A20,20,0,0,0,88.25,57c2.21-1.14,4.35-2.41,6.5-3.65,1.21-.7,2.38-1.48,3.57-2.22A9,9,0,0,1,104,49.85l3.06.27c.07-1.73.13-3.35.19-5,.2-5.13.41-10.25.58-15.38a11.17,11.17,0,0,0-2.34-7.53,7.22,7.22,0,0,1-1.64-5.52,4.26,4.26,0,0,0-.17-1.06,6.88,6.88,0,0,0-1.54.48,17.75,17.75,0,0,1-9.7,2.45,36.41,36.41,0,0,0-7.85.89,111.21,111.21,0,0,0-11.32,3.33c-4.37,1.52-8.76,2.74-13.49,2.56-.44,0-.88.06-1.79.12ZM20,47.08c9.67,1.17,10.41,1.85,16.65,4.85a14.74,14.74,0,0,1,6.15,5.45c2.57,4,3.34,8.24.55,12.52-.8,1.23-1.61,2.45-2.4,3.68-.2.31-.33.66-.81,1.63L60.25,62.73a2.33,2.33,0,0,0,1.08-1.81,11.81,11.81,0,0,0-.46-5.78A31,31,0,0,1,58.8,43.66a34.11,34.11,0,0,0-.38-6.14A65.54,65.54,0,0,0,57,30.91,6.41,6.41,0,0,0,56,29.36C44.45,35.75,33,42.07,20,47.08Z" transform="translate(-0.02 0.03)"/><path id="Path_998" data-name="Path 998" class="cls-3" d="M84.26,36.9c-.53-.41-.76-.58-1-.77s-.42-.49-.68-.59a.94.94,0,0,0-.82.05.87.87,0,0,0-.27.79c.51,1.09,1.09,2.14,1.63,3.16-.3.56-.57,1-.77,1.47a.9.9,0,0,0,.25,1.26l.08,0A1,1,0,0,0,84,41.94c.29-.37.61-.73.89-1.07a22,22,0,0,0,2,1.07.9.9,0,0,0,.77-.31,1,1,0,0,0,.08-.85c-.61-.79-1.3-1.52-1.9-2.21.26-1.26.52-2.35.69-3.46.07-.48,0-1.07-.63-1.18s-.88.44-1.06.89S84.55,36,84.26,36.9Z" transform="translate(-0.02 0.03)"/><path id="Path_999" data-name="Path 999" class="cls-4" d="M84.39,36.9c.29-.93.42-1.52.65-2.08s.41-1,1.06-.89.7.7.64,1.18c-.17,1.1-.43,2.2-.69,3.46.6.69,1.29,1.42,1.9,2.21a.92.92,0,0,1-.09.85.87.87,0,0,1-.76.31,22,22,0,0,1-2-1.07c-.28.34-.6.7-.89,1.07a1,1,0,0,1-1.34.38.91.91,0,0,1-.39-1.23.56.56,0,0,1,0-.08c.21-.47.48-.9.78-1.47-.54-1-1.13-2.07-1.63-3.16a.89.89,0,0,1,.26-.79,1,1,0,0,1,.83-.05c.26.1.45.39.68.59S83.86,36.49,84.39,36.9Z" transform="translate(-0.02 0.03)"/></g></g></svg>