<svg id="Layer_1" data-name="Layer 1" xmlns="http://www.w3.org/2000/svg" width="192.666" height="101.37" viewBox="0 0 99.79 130.5">
    <defs>
        <style>
            .cls-1{fill:none;}.cls-2{clip-path:url(#clip-path);}.cls-3{fill:#fff;}.cls-4{fill:#a37f71;}.cls-5{fill:#da291c;}.cls-6,.cls-7{stroke:#000;}.cls-6{stroke-miterlimit:10;stroke-width:1.5px;}.cls-8{fill:#070606;}
        </style>
        <clipPath id="clip-path" transform="translate(-10.47 -6.19)">
            <rect class="cls-1" width="117" height="110"/>
        </clipPath>
    </defs>
    <title>staff</title>
    <g class="cls-2">
        <g id="Mask_Group_3" data-name="Mask Group 3">
            <g id="Group_292" data-name="Group 292">
                <g id="Group_268" data-name="Group 268">
                    <path id="Path_796" data-name="Path 796" class="cls-3"
                          d="M60.32,133.3A12.11,12.11,0,0,0,66,131.78a7.36,7.36,0,0,0,3.36-7.33,22.51,22.51,0,0,0-1.59-4.64A2,2,0,0,1,67.5,118a.76.76,0,0,0-.21-.68c-1-.7-1.73-1.74-3-2.18a5.47,5.47,0,0,1-1.64-1.39,12.43,12.43,0,0,0-5.4-3,22.56,22.56,0,0,0-7-.68,21.68,21.68,0,0,0-10.81,3.28,12.25,12.25,0,0,0-5.85,8.73A1,1,0,0,0,34,123c.9.42.8,1.16.67,1.87-.19,1-.48,2-.7,3a3.86,3.86,0,0,0,2.47,4.88h0c2.24.8,4.57,1.3,6.9.3a2.81,2.81,0,0,1,2.72.23,8.35,8.35,0,0,0,5.15,1.1,13.62,13.62,0,0,0,3.56-1.16,4.2,4.2,0,0,1,2.66-.3C58.46,133.05,59.52,133.17,60.32,133.3Z"
                          transform="translate(-10.47 -6.19)"/>
                    <path id="Path_797" data-name="Path 797" class="cls-3"
                          d="M27.2,20.43l-.29-.08.21.16c.44.57.84,1.17,1.32,1.71a1.63,1.63,0,0,1,.31,1.88c-.32.66-1,.46-1.56.43a3.48,3.48,0,0,0-3.62,1.9,16.69,16.69,0,0,0-1.08,2.8A4.19,4.19,0,0,1,20.37,32c-.69.35-1.34.77-2,1.1a2.17,2.17,0,0,0-1.11,1.43,7.57,7.57,0,0,0,.12,3.57c.17,1.27.06,1.76-1,2.44a18.48,18.48,0,0,0-1.6,1,8,8,0,0,0-1.57,1.67c-.33.5,0,.91.62.84a2.23,2.23,0,0,1,2.41,1.44,2.14,2.14,0,0,1-.11,2.17A13.26,13.26,0,0,0,15,53.88a18.25,18.25,0,0,0,1.7,6.69,11.49,11.49,0,0,1,1,2.86c.2,1.35.65,2.73-.05,4.1-.58,1.14-.55,1.21.55,1.94a2.39,2.39,0,0,1,1.14,2.17,73.89,73.89,0,0,1-1,10.8,6.4,6.4,0,0,0,1,4.64,17.71,17.71,0,0,0,1.78,2.09,3.14,3.14,0,0,1,1.12,2.12,3.85,3.85,0,0,0,.28,1.11,2.39,2.39,0,0,0,2.31,1.85A4.47,4.47,0,0,1,28,95.43a2.92,2.92,0,0,0,.88.49,20.06,20.06,0,0,0,5.42,1.46,5.8,5.8,0,0,0,3.52-.55,4.41,4.41,0,0,0,2.47-3.38c.15-.86.51-1.33,1.42-1.26l.25.34a6.49,6.49,0,0,1-4.21,6c-.84.24-1,.7-1,1.45,0,1.58.09,3.2-.9,4.6,0,.06.1.36.17.37,1.1.11,2.21.26,3.31.28,6.5.08,13,.18,19.49-.26.82,0,1.65,0,2.47,0,2.25-.23,4.5-.56,6.75-.78a46.84,46.84,0,0,0,8.62-1.72,71.79,71.79,0,0,0,15.85-6.64,32.11,32.11,0,0,0,6.67-4.84c.47-.47.7-.86.33-1.5-.53-.92-1-1.89-1.51-2.8a.81.81,0,0,0-.69-.33c-2.32.29-4.51-.45-6.71-.93A5,5,0,0,1,87.19,83c-.27-.45-.4-.91.12-1.27a.87.87,0,0,1,1.2.26,1.47,1.47,0,0,1,.1.22,2.6,2.6,0,0,0,2.12,1.53l4,.86a5.08,5.08,0,0,0,5.63-2,39.83,39.83,0,0,1,3.14-4.25,18,18,0,0,0,1.92-3.06,5.69,5.69,0,0,0,.69-3.36,33.43,33.43,0,0,0-.52-3.71,14.37,14.37,0,0,0-5.27-9.08,11.72,11.72,0,0,1-4-6.68c-.21-.76.32-1.28,1.11-1.2a7.3,7.3,0,0,0,.81,0,3.69,3.69,0,0,0-.15-.93,8.43,8.43,0,0,0-.69-1.1,7.43,7.43,0,0,1-1.19-5.5c.34-2,.19-4-1.35-5.57-1.39-1.39-1.59-3.16-1.75-4.91-.25-2.63-.64-5.18-2.32-7.34a1.1,1.1,0,0,1-.21-1.32.75.75,0,0,0-.13-.71,38.6,38.6,0,0,0-4.58-3,3.45,3.45,0,0,1-2-1.9,3,3,0,0,0-2.18-1.92A61.7,61.7,0,0,1,72,13.73a4.62,4.62,0,0,0-4.16,0,4.46,4.46,0,0,1-2.94.32c-1.38-.29-2.74-1.27-1.92-3.28,0-.14.1-.27.16-.4.22-.48-.1-.51-.4-.41a8.12,8.12,0,0,0-3.43,1.78c-.86.84-1.25.73-1.51-.4a2.09,2.09,0,0,0-1.29-1.45c-.25-.13-.43-.19-.48.19-.41,3.23-2.81,4.7-6,3.66a9.07,9.07,0,0,0-6.36.53,12.7,12.7,0,0,0-2.92,1.53,3.49,3.49,0,0,1-2.66.85,6.05,6.05,0,0,0-3.52.63,2,2,0,0,0-1.24,1.5,5.37,5.37,0,0,1-1.76,2.93c-.68.65-.94.67-1.54-.08A3,3,0,0,0,27.2,20.43Z"
                          transform="translate(-10.47 -6.19)"/>
                    <path id="Path_798" data-name="Path 798" class="cls-4"
                          d="M108.21,125.92a57.54,57.54,0,0,0,.35-13c-.35-3.11-.5-6.26-1.13-9.33-.67-3.23-2.12-7.6-4.67-9.84a10.89,10.89,0,0,1-.88-.78c-1.34-1.4-2.34-4.38-1.32-6.15s3-3,4.42-4.5c2.53-2.57,4.54-5.57,5-9.21.54-4,.37-9.27-1.74-12.89a26.74,26.74,0,0,0-4.15-4.86,12.83,12.83,0,0,1-3.9-8.56c-.69-8.89-3.83-18.68-9.72-25.56a20.35,20.35,0,0,0-6.07-4.88c-2.83-1.45-5.87-1.88-8.94-2.52-2.63-.55-5.24-1.17-7.81-2-2.32-.72-4.41-2.36-6.88-2.59A33.27,33.27,0,0,0,47.92,11a15.92,15.92,0,0,0-8.79,6.7c-3.73,2.3-6.28,6.46-10.55,8.27-3.31,1.41-4.38,4.54-5.09,7.81a19.61,19.61,0,0,0-1.44,1.95,6,6,0,0,0-2.54,2.59c-1,2.19-.55,5.09.17,7.84,0,1.19.13,2.4.26,3.59-1.64,5.78-.73,11.86,1,17.55.46,1.48.93,3,1.43,4.5a56.53,56.53,0,0,1-.6,9.73c-.6,4-.12,8.24,3.62,10.64a13.79,13.79,0,0,0,4.31,1.53A13.45,13.45,0,0,0,31,94.2c.82.31,1.86.55,2.79.94a6.62,6.62,0,0,1,.62.46,3.2,3.2,0,0,0,1.06.64l.1.11c1.24,1.57.43,4.16-.08,5.84-1.27,4.24.72,7.87,5.43,7.82,2,0,3.88-.52,5.87-.46a18.86,18.86,0,0,1,2,.16A18.77,18.77,0,0,0,43,113c-3.05,2.55-5.83,7.18-5.87,11.48-.06.16-.11.32-.16.49-.84,2.83-.36,6.35,2.23,8.13A4.1,4.1,0,0,0,44,133a52.86,52.86,0,0,0,5.8,1.45A55.3,55.3,0,0,0,61.57,136a12.39,12.39,0,0,0,2.72-.3,9,9,0,0,0,3.5-.57c3.39-1.48,4.49-5.13,4.31-8.69.05-.25,0-.27,0-.52M45.73,49.79a1.21,1.21,0,0,1-.34.49.54.54,0,0,1-.59.1.51.51,0,0,1-.26-.14h0l-.1-.15,0,0a.68.68,0,0,1,.09-.76.59.59,0,0,1,.58-.15h0c.37-.11.81.28.66.66ZM70,43a.68.68,0,0,1,.62-.33.64.64,0,0,1,.61.46.54.54,0,0,1-.1.49.46.46,0,0,1-.13.27.53.53,0,0,1-.62.09.51.51,0,0,1-.37-.25.49.49,0,0,1-.06-.29A.61.61,0,0,1,70,43Z"
                          transform="translate(-10.47 -6.19)"/>
                    <path id="Path_799" data-name="Path 799" class="cls-5"
                          d="M105.42,111.58c0,.25,0,.5,0,.76a3.35,3.35,0,0,1-.08.54,1.4,1.4,0,0,1-.45-.24c-1.31-1.46-2.58-3-3.93-4.4-2-2.11-4.11-4.13-6.2-6.14-.42-.41-.26-.47,0-.73a42.14,42.14,0,0,0,7.25-7.49c.33-.46.45-.26.6.3a99.85,99.85,0,0,1,2.24,12c.23,1.79.4,3.6.59,5.4Z"
                          transform="translate(-10.47 -6.19)"/>
                    <path id="Path_800" data-name="Path 800" class="cls-6"
                          d="M107.66,110.59a57.38,57.38,0,0,0-3.09-14.48c-.62-1.82-1.73-3.45-2.07-5.39a1.47,1.47,0,0,0-.54-1c-1.18-.59-1.36-1.84-2-2.78s-.62-1.22.31-2a8.1,8.1,0,0,0,2.42-3.22,3.31,3.31,0,0,1,.89-1.11A18.19,18.19,0,0,0,107.26,75a3.54,3.54,0,0,0,.28-1.27c.24-5-.8-9.55-4-13.47a22,22,0,0,0-2.79-2.75,8,8,0,0,1-2.36-3.6c-.2-.58,0-.61.52-.56a1,1,0,0,0,1.22-1,5.13,5.13,0,0,0-1.3-3.74,4.17,4.17,0,0,1-1.14-2.86,10.64,10.64,0,0,1,.13-2.46,6.76,6.76,0,0,0-1.64-5.82,6.79,6.79,0,0,1-1.47-3.85c0-.29-.06-.58-.09-.87-.26-2.21-.47-4.44-1.75-6.38-.1-.15-.2-.42-.14-.53.7-1.14-.12-1.87-.78-2.51a20.18,20.18,0,0,0-5.43-3.86,2.41,2.41,0,0,1-1.31-1.24,4.89,4.89,0,0,0-3.49-2.8,60.83,60.83,0,0,1-9.47-3.25,5.61,5.61,0,0,0-4.77.06,11.91,11.91,0,0,1-1.64.6,1.23,1.23,0,0,1-1.42-.45,1.15,1.15,0,0,1,.1-1.48,7.56,7.56,0,0,1,1.07-1c.7-.61.67-1.21-.19-1.54a3.07,3.07,0,0,0-1.82-.21,31.75,31.75,0,0,0-3.9,1.51.86.86,0,0,1-1.08-.09A49.71,49.71,0,0,0,54.26,7c-.18-.1-.65.11-.86.31a.87.87,0,0,0,0,.77A10,10,0,0,0,54,9a2.26,2.26,0,0,1,0,2.35,2,2,0,0,1-2,1.1c-.72-.08-1.42-.3-2.14-.39a11.25,11.25,0,0,0-3-.26,14.82,14.82,0,0,0-7.1,2.78,1.94,1.94,0,0,1-1.59.46,7,7,0,0,0-4.22.79,3.56,3.56,0,0,0-2.15,2.58,4.81,4.81,0,0,1-.49,1.2c-.17.37-.41.5-.79.21-2-1.5-4.2-1.2-6.43-1a1.21,1.21,0,0,0-1.17.94c-.09.57.45.79.87,1,.76.43,1.52.86,2.25,1.32a3.66,3.66,0,0,1,.59.59,2.71,2.71,0,0,1-.73.34,5.1,5.1,0,0,0-3.09,1.77A6.9,6.9,0,0,0,21,28.47a3,3,0,0,1-1.84,2.42,17.44,17.44,0,0,0-1.55.8,3.87,3.87,0,0,0-2.12,3.42,11.37,11.37,0,0,0,.09,2.18c.23,1.71.28,1.75-1.28,2.65a5.44,5.44,0,0,0-3.08,5.34c0,.61-.15,1.36.61,1.64s1-.41,1.37-.82.78-.66,1.28-.34.34.79.16,1.29a19.8,19.8,0,0,0-.92,2.89A17.69,17.69,0,0,0,15.18,61a12.44,12.44,0,0,1,1.16,4.64c0,.58.12,1.14-.77,1.25a.7.7,0,0,0-.64.73.71.71,0,0,0,.16.39A13.46,13.46,0,0,0,17,70.56a1.63,1.63,0,0,1,.61,1.61c-.34,2.54-.55,5.11-1,7.63a13.17,13.17,0,0,0,.51,6.73,5.92,5.92,0,0,0,2.26,3.28,2.36,2.36,0,0,1,1.08,1.8,8,8,0,0,0,.24,1.28,4.14,4.14,0,0,0,4.4,3.25,2.82,2.82,0,0,1,1.47.42c1.86.92,3.7,1.93,5.85,2,.92.05,1.83.2,2.74.31,0,.94-.08,1.88-.07,2.81a2.44,2.44,0,0,1-1.25,2.43c-.47.26-.74.73-.28,1.2s.22.77.12,1.19c-.26,1-.61,2.16,0,3,.84,1.09.72,2.24.86,3.42a9.1,9.1,0,0,0,.43,1.84,1.05,1.05,0,0,1-.26,1.17c-2.25,2.45-2.77,5.48-2.86,8.64a1.31,1.31,0,0,0,.37,1c.49.31.49.61.34,1.08a7.59,7.59,0,0,0-.28,1.42,5.49,5.49,0,0,0,3.77,6.16,13.74,13.74,0,0,0,6.17.7,10.12,10.12,0,0,1,5.06.42,8.52,8.52,0,0,0,5.14.3,24.4,24.4,0,0,0,2.6-.93,4.05,4.05,0,0,1,2.68-.22,12.64,12.64,0,0,0,5,.13c6.53-1.18,9.68-7.06,7.6-12.52-.22-.59-.4-1.2-.62-1.79s-.65-1.15.34-1.48a1.09,1.09,0,0,0,.06-.89,8.37,8.37,0,0,0-1.23-1.42c-.4-.4-.87-.73-1.31-1.09a6.36,6.36,0,0,1-.2-.78c0-.57-.3-.84-.85-.54-.73.4-1.19-.1-1.69-.45q-2-1.44-4-2.91a2.44,2.44,0,0,1-.35-.43,4.7,4.7,0,0,1,.51-.12c3.48-.49,7-.89,10.44-1.48a75.86,75.86,0,0,0,16.3-4.85,6.68,6.68,0,0,0,1.07-.44c1.35-.91,2.5-.44,3.73.33a102.65,102.65,0,0,1,12.59,9,5.46,5.46,0,0,0,1.56.64C107.78,112.75,107.73,111.62,107.66,110.59Zm-45,3.2a5.47,5.47,0,0,0,1.64,1.39c1.25.44,2,1.49,3,2.19a.74.74,0,0,1,.21.68c-.3.66,0,1.16.23,1.77a22.22,22.22,0,0,1,1.59,4.63A7.35,7.35,0,0,1,66,131.78a12,12,0,0,1-5.63,1.52c-.8-.13-1.86-.25-2.9-.47a4.19,4.19,0,0,0-2.66.3,13.64,13.64,0,0,1-3.56,1.17,8.43,8.43,0,0,1-5.15-1.11,2.84,2.84,0,0,0-2.72-.23c-2.33,1-4.67.5-6.9-.3a3.87,3.87,0,0,1-2.51-4.86v0c.23-1,.52-2,.7-3,.13-.71.24-1.45-.66-1.87a1,1,0,0,1-.36-.82,12.24,12.24,0,0,1,5.86-8.73,21.68,21.68,0,0,1,10.81-3.28,22.56,22.56,0,0,1,7,.68,12.49,12.49,0,0,1,5.39,3Zm-25.86-2.72h3a1.27,1.27,0,0,1,.28.06,1.46,1.46,0,0,1-.21.28c-1,.81-2,1.6-3,2.4-.28.23-.54.26-.62-.16a16.25,16.25,0,0,1-.27-2c-.05-.65.22-.86.86-.6ZM92.46,95.79a72.27,72.27,0,0,1-15.85,6.64A46.84,46.84,0,0,1,68,104.15c-2.26.22-4.5.55-6.75.78-.82.08-1.65,0-2.47,0-6.5.44-13,.34-19.49.25-1.1,0-2.21-.16-3.31-.28-.08,0-.21-.3-.17-.36,1-1.4.85-3,.9-4.6,0-.75.19-1.22,1-1.46a6.48,6.48,0,0,0,4.21-6l-.25-.34c-.91-.07-1.27.41-1.43,1.26a4.37,4.37,0,0,1-2.46,3.39,5.8,5.8,0,0,1-3.52.55,20.71,20.71,0,0,1-5.42-1.46,3.16,3.16,0,0,1-.88-.49,4.44,4.44,0,0,0-3.17-1.19A2.38,2.38,0,0,1,22.5,92.4a4.33,4.33,0,0,1-.29-1.11,3.16,3.16,0,0,0-1.11-2.12,17.79,17.79,0,0,1-1.79-2.09,6.35,6.35,0,0,1-1-4.64,75.15,75.15,0,0,0,1-10.8,2.39,2.39,0,0,0-1.14-2.17c-1.1-.73-1.12-.8-.55-1.94.7-1.37.25-2.75.06-4.1a12.14,12.14,0,0,0-1-2.87A17.77,17.77,0,0,1,15,53.88a13.13,13.13,0,0,1,1.12-6.21,2.14,2.14,0,0,0,.11-2.17,2.23,2.23,0,0,0-2.41-1.44c-.64.07-1-.35-.62-.84a8,8,0,0,1,1.57-1.67c.52-.35,1.05-.68,1.6-1,1-.68,1.14-1.17,1-2.44a7.7,7.7,0,0,1-.12-3.57,2.17,2.17,0,0,1,1.11-1.43c.7-.33,1.35-.75,2-1.1a4.19,4.19,0,0,0,2.12-2.8,15.92,15.92,0,0,1,1.09-2.8,3.48,3.48,0,0,1,3.61-1.91c.57,0,1.24.24,1.56-.42a1.61,1.61,0,0,0-.31-1.88c-.48-.54-.88-1.14-1.32-1.71l-.21-.16.29.08A3.06,3.06,0,0,1,30,21.65c.6.76.86.74,1.53.08a5.26,5.26,0,0,0,1.77-2.93,2,2,0,0,1,1.24-1.5,6,6,0,0,1,3.52-.63,3.42,3.42,0,0,0,2.66-.85,12.91,12.91,0,0,1,2.92-1.53A9.08,9.08,0,0,1,50,13.76c3.19,1,5.58-.43,6-3.66.05-.38.24-.31.48-.19a2.09,2.09,0,0,1,1.29,1.45c.27,1.14.66,1.24,1.51.4A8.22,8.22,0,0,1,62.7,10c.3-.1.61-.07.4.41-.06.13-.11.27-.17.4-.81,2,.54,3,1.92,3.28a4.45,4.45,0,0,0,2.94-.32,4.64,4.64,0,0,1,4.17,0,61.35,61.35,0,0,0,9.7,3.33A3,3,0,0,1,83.83,19a3.45,3.45,0,0,0,2,1.9,37.81,37.81,0,0,1,4.58,3,.73.73,0,0,1,.14.71,1.08,1.08,0,0,0,.2,1.32c1.69,2.16,2.07,4.71,2.32,7.34.17,1.76.36,3.52,1.76,4.91,1.54,1.55,1.68,3.56,1.35,5.58a7.39,7.39,0,0,0,1.18,5.5,8.91,8.91,0,0,1,.7,1.1,3.61,3.61,0,0,1,.15.92c-.27,0-.55,0-.81,0-.79-.08-1.33.43-1.12,1.19a11.67,11.67,0,0,0,4,6.68,14.38,14.38,0,0,1,5.26,9.08,33.31,33.31,0,0,1,.53,3.72,5.83,5.83,0,0,1-.69,3.35,17.71,17.71,0,0,1-1.93,3.06,43.54,43.54,0,0,0-3.14,4.25,5.07,5.07,0,0,1-5.63,2c-1.31-.3-2.63-.57-4-.86a2.65,2.65,0,0,1-2.13-1.53.87.87,0,0,0-1.07-.6.91.91,0,0,0-.22.11c-.53.36-.4.82-.13,1.27a5,5,0,0,0,3.37,2.34c2.2.49,4.38,1.22,6.7.93a.83.83,0,0,1,.7.33c.53.91,1,1.88,1.51,2.8.37.64.14,1-.33,1.5a32.79,32.79,0,0,1-6.67,4.85Zm13.08,14a2.73,2.73,0,0,1-.1.41,1.55,1.55,0,0,1-.51-.18c-1.52-1.12-3-2.31-4.54-3.38-2.35-1.61-4.75-3.16-7.15-4.7-.49-.31-.3-.36,0-.55a44.35,44.35,0,0,0,8.37-5.74c.38-.35.52-.2.69.23a54.19,54.19,0,0,1,2.58,9.18c.27,1.37.46,2.75.68,4.13h-.06A3.87,3.87,0,0,1,105.54,109.75Z"
                          transform="translate(-10.47 -6.19)"/>
                    <path id="Path_801" data-name="Path 801" class="cls-7"
                          d="M42.05,92.41l-.32-.26c-.73-.77-1.43-1.57-2.2-2.31a5.63,5.63,0,0,1-1.64-2.68,4.33,4.33,0,0,0-1.19-1.92,12.6,12.6,0,0,1-3.48-7.46,11.47,11.47,0,0,1,.47-5,1.37,1.37,0,0,0-.29-1.57A3.11,3.11,0,0,1,32.63,69c-.27-3.62,1.44-6.42,3.62-9,.26-.31.55-.56,1-.26s.3.66.09,1c-.48.73-1,1.43-1.47,2.16a10.92,10.92,0,0,0-1.76,6,1.82,1.82,0,0,0,.8,1.75c.87.52.8,1.2.49,2a10.06,10.06,0,0,0-.7,4.54,10.25,10.25,0,0,0,2.48,6.37,9.55,9.55,0,0,1,2.31,3.88.42.42,0,0,0,.07.13C41,89.49,42.62,91.3,45,92.14c.9.31,1.89.4,2.8.7a16.48,16.48,0,0,1,2.21,1c.41.22.73.42,1-.2s.76-.42,1.23-.14.95.46,1.41.71c.66.36,1.13.42,1.44-.47.23-.63,1-.74,1.22-.19.67,1.6,2.17,1.51,3.41,1.74a17.42,17.42,0,0,0,11.78-1.87,11.24,11.24,0,0,0,4.13-3.55c.7-1,1.5-2,2.22-3A9.11,9.11,0,0,0,79,83.46c.23-1,.63-1.14,1.56-.69a4.18,4.18,0,0,1,1.67,2c.3.53.54.45.8,0a9.1,9.1,0,0,0,1.2-5.86c0-.19-.22-.41-.16-.54a2.51,2.51,0,0,1,.62-.89c.1-.08.47.17.71.28,0,0,.07.07.1.1,1.09,1.07,1.08,1.07,1.7-.42a38,38,0,0,0,1.69-4c.68-2.43.26-4.87-.25-7.3A16.36,16.36,0,0,0,84.07,58a2,2,0,0,0-.67-.54,2.33,2.33,0,0,1-1.67-2.2,5.19,5.19,0,0,0-3-4.2c-.43-.2-.8-.48-.54-1s.76-.44,1.23-.19A7.7,7.7,0,0,1,83.38,55a1.81,1.81,0,0,0,.49,1A17.06,17.06,0,0,1,90.4,66.71a25.25,25.25,0,0,1,.22,6.08,8.59,8.59,0,0,1-.74,2.47c-.72,1.84-1.8,3.53-2.17,5.51a.75.75,0,0,1-.83.63.88.88,0,0,1-.32-.12c-.67-.37-.76,0-.81.5A8.48,8.48,0,0,1,84,85.87a7,7,0,0,1-1.23,1.2c-.65.5-1,.43-1.36-.27-.26-.51-.4-1.09-.65-1.61a2,2,0,0,0-.47-.5,3.13,3.13,0,0,1-.16.52,20.36,20.36,0,0,1-1.38,3,19.31,19.31,0,0,1-5.41,6,17.43,17.43,0,0,1-6.53,2.62,21.91,21.91,0,0,1-7.36.07,8.65,8.65,0,0,0-2,0A7,7,0,0,1,53.59,96c-.44-.25-.8-.09-.77.44s-.42.75-.8.88-.74-.24-1-.61a5.59,5.59,0,0,0-3-2.08C46,94,43.85,93.63,42.05,92.41Z"
                          transform="translate(-10.47 -6.19)"/>
                    <path id="Path_802" data-name="Path 802"
                          d="M66.18,71.37A2.43,2.43,0,0,1,64.83,74a3.64,3.64,0,0,1-3.32-.88c-.21-.26-.37-.56-.56-.84a1.75,1.75,0,0,0-3.14.12,2.11,2.11,0,0,1-2.92.55,2,2,0,0,1-.64-.7,5.73,5.73,0,0,1,1.39-6.84,14.32,14.32,0,0,1,4.67-2.57,10.34,10.34,0,0,1,5.83-.36,5.59,5.59,0,0,1,4.29,5,3.63,3.63,0,0,1-.19,1.27,1.13,1.13,0,0,1-1.34.89,1.78,1.78,0,0,1-.36-.14,4.14,4.14,0,0,0-.5-.3,1.32,1.32,0,0,0-1.76.6,1.34,1.34,0,0,0-.14.68C66.14,70.79,66.16,71.08,66.18,71.37Zm-5.05-3.79c1.51-.12,2.68-.35,3.55-1.33s.82-2-.53-2.42a5.08,5.08,0,0,0-4.89,1,1.27,1.27,0,0,0-.36,1.77,1.35,1.35,0,0,0,.6.48,10.42,10.42,0,0,0,1.63.55Z"
                          transform="translate(-10.47 -6.19)"/>
                    <path id="Path_803" data-name="Path 803"
                          d="M50.75,50.41c-2.06-2-4.26-3.47-7.45-2.9-2.55.44-5.09,3.74-5.36,5.71-.06.47-.28,1.18.45,1.34s.78-.54,1-1c.28-.71.56-1.42.85-2.13a.79.79,0,0,1,.18-.22,1.21,1.21,0,0,1,.2.3,10.41,10.41,0,0,0,.49,1.2,3.66,3.66,0,0,0,3.53,1.8c1.54-.34,2.71-.94,3.07-2.68a7.49,7.49,0,0,0-.21-2.11l-.13-.3.31.12a2.3,2.3,0,0,1,1.67,1.26c.16.24.21.58.41.75s.64.39.84.3A1.2,1.2,0,0,0,51,51,.86.86,0,0,0,50.75,50.41Zm-5.36-.12a.54.54,0,0,1-.59.1.51.51,0,0,1-.26-.14v0a.56.56,0,0,1-.1-.15l0,0a.65.65,0,0,1,.09-.75.58.58,0,0,1,.57-.15h0c.36-.11.81.27.66.66h0l.05,0-.11.06a1.08,1.08,0,0,1-.28.38Z"
                          transform="translate(-10.47 -6.19)"/>
                    <path id="Path_804" data-name="Path 804"
                          d="M76.93,44.44a2.4,2.4,0,0,0-.61-.8,9.18,9.18,0,0,0-4.25-2.38,6.73,6.73,0,0,0-7.71,3.38c-.53,1-1,2.11-1.44,3.16-.27.61-.14,1.05.3,1.19s.83-.19,1-.83c0-.14,0-.3,0-.43a9,9,0,0,1,1.67-3.49,2.13,2.13,0,0,1,.47-.31l.12.49a6.6,6.6,0,0,0,.4,1.8A3.41,3.41,0,0,0,71,47.54a3.47,3.47,0,0,0,2.25-3.49.89.89,0,0,1-.07-.28c0-.18.06-.36.1-.54.18.05.4.05.52.16.64.59,1.22,1.23,1.87,1.79a1.09,1.09,0,0,0,.87.23.67.67,0,0,0,.4-.86A.37.37,0,0,0,76.93,44.44Zm-5.81-.85a.49.49,0,0,1-.13.27.51.51,0,0,1-.61.08A.47.47,0,0,1,70,43.7a.49.49,0,0,1-.06-.29A.64.64,0,0,1,70,43a.68.68,0,0,1,.52-.32h.09a.64.64,0,0,1,.62.47.57.57,0,0,1-.1.49Z"
                          transform="translate(-10.47 -6.19)"/>
                    <path id="Path_805" data-name="Path 805"
                          d="M47.69,36.65c2.25.25,3.65,1.11,4.31,3a3.19,3.19,0,0,1,.16.55c.06.54-.38,1.31-.75,1.2a1.8,1.8,0,0,1-.88-.82c-.22-.35-.22-.83-.41-1.2-.12-.21-.43-.31-.66-.46-.06.21-.14.43-.18.64q-.11.72-.27,1.41c-.29.94-1,1.2-1.58.48C46.22,39.9,44.62,39.9,43,40a1.6,1.6,0,0,1-.57,0c-.24-.08-.58-.24-.63-.43a.78.78,0,0,1,.29-.7,3.4,3.4,0,0,1,1.76-.48c1.11.23,2.36-.12,3.35.69a.3.3,0,0,0,.25,0,.56.56,0,0,0,.06-.38c-.1-.21-.3-.39-.39-.6s-.57-.66-.14-1A2.77,2.77,0,0,1,47.69,36.65Z"
                          transform="translate(-10.47 -6.19)"/>
                    <path id="Path_806" data-name="Path 806" class="cls-5"
                          d="M67.31,79.91a4.35,4.35,0,0,1-.19,4c-1.31,2.39-4.54,1.79-5.54.11a13,13,0,0,1-.87-2.4,15.53,15.53,0,0,0,4.63-.85C66,80.53,66.66,80.2,67.31,79.91Z"
                          transform="translate(-10.47 -6.19)"/>
                    <path id="Path_807" data-name="Path 807"
                          d="M61.91,37.29a7.27,7.27,0,0,1-.59-1c-.26-.53-.38-.22-.49.07a9.1,9.1,0,0,1-.47,1.36,1.06,1.06,0,0,1-.73.5.61.61,0,0,1-.66-.54.58.58,0,0,1,0-.23,13.33,13.33,0,0,1,.84-2.76c.4-.83.77-1,1.6-.42.67.5.92.35,1.31-.25,1-1.55,2.7-1.75,4.29-2.1.25-.06.71.26.87.53a.68.68,0,0,1-.27.92l-.11.05a3.6,3.6,0,0,1-1.25.36,3.43,3.43,0,0,0-2.82,2,5.15,5.15,0,0,1-.65,1A4.22,4.22,0,0,1,61.91,37.29Z"
                          transform="translate(-10.47 -6.19)"/>
                    <path id="Path_808" data-name="Path 808"
                          d="M24,51.28c.24.17.53.29.65.5s0,.43-.14.63c-.22.37-.42.75-.6,1.13a1.83,1.83,0,0,0,0,.93c.07.37.27.72.34,1.09a3.43,3.43,0,0,0,1.33,2.57,2.25,2.25,0,0,1,.62,1A.64.64,0,0,1,26,60a.61.61,0,0,1-.14.07,1.37,1.37,0,0,1-.91-.15c-.19-.1-.26-.4-.41-.59s-.55-.56-.94-.14-.75.39-1,0-.42-.92-.26-1.13c.79-1.07.47-2.08.09-3.15a3.46,3.46,0,0,1,.92-3.28A4.32,4.32,0,0,1,24,51.28Z"
                          transform="translate(-10.47 -6.19)"/>
                    <path id="Path_809" data-name="Path 809"
                          d="M89.75,51.45c.65-1.58-.45-2.61-1.16-3.75-.23-.38-.38-.67,0-1s.8-.25,1.12.11A7.41,7.41,0,0,1,90.53,48c.33.57.52,1.22,1.24,1.52a.69.69,0,0,1,.4.88.68.68,0,0,1-.14.23c-1,.92-.31,1.77,0,2.64a8,8,0,0,0,.44.74c.36.65.35,1.24,0,1.41-.62.26-1-.13-1.31-.6a15.32,15.32,0,0,1-.93-1.8A15.59,15.59,0,0,1,89.75,51.45Z"
                          transform="translate(-10.47 -6.19)"/>
                    <path id="Path_810" data-name="Path 810"
                          d="M67.31,79.91c-.65.29-1.3.61-2,.86a15.22,15.22,0,0,1-4.63.85c-.8-.29-1.61-.56-2.4-.87a.42.42,0,0,1-.2-.33c0-.07.18-.19.3-.2a1.62,1.62,0,0,1,.58,0c5,1,8.71-1,11.58-5,.15-.2.25-.46.44-.57a2.27,2.27,0,0,1,.73-.16c0,.26.19.6.07.75a36.3,36.3,0,0,1-2.41,2.85A27,27,0,0,1,67.31,79.91Z"
                          transform="translate(-10.47 -6.19)"/>
                    <path id="Path_811" data-name="Path 811" class="cls-3"
                          d="M61.13,67.58c1.51-.12,2.68-.35,3.55-1.33s.82-2-.53-2.42a5.08,5.08,0,0,0-4.89,1,1.27,1.27,0,0,0-.36,1.77,1.19,1.19,0,0,0,.6.48A9.19,9.19,0,0,0,61.13,67.58Z"
                          transform="translate(-10.47 -6.19)"/>
                    <path id="Path_812" data-name="Path 812" class="cls-8"
                          d="M107.81,112.27a1.34,1.34,0,0,0-2.58.71,37.81,37.81,0,0,1,1.31,11.55c-.07,1.71,2.6,1.71,2.67,0A39.93,39.93,0,0,0,107.81,112.27Z"
                          transform="translate(-10.47 -6.19)"/>
                </g>
            </g>
        </g>
    </g>
</svg>