<?xml version="1.0" encoding="utf-8"?>
<!-- Generator: Adobe Illustrator 23.0.6, SVG Export Plug-In . SVG Version: 6.00 Build 0)  -->
<svg version="1.1" id="Layer_1"
	 xmlns="http://www.w3.org/2000/svg" xmlns:xlink="http://www.w3.org/1999/xlink" x="0px" y="0px"
	 viewBox="0 0 375 329.3" enable-background="new 0 0 375 329.3" xml:space="preserve">
<g transform="matrix(1, 0, 0, 1, 0, 287.67)" opacity="0.1">
	<path id="Rectangle_236-2_1_" d="M12-121.1h351c6.6,0,12,5.4,12,12v146l0,0H0l0,0v-146C0-115.8,5.4-121.1,12-121.1z"/>
</g>
<g transform="matrix(1, 0, 0, 1, 0, 287.67)">
	<path id="Rectangle_236-2" fill="#4872AE" d="M11.5-116h351c6.6,0,12,5.4,12,12V42l0,0h-375l0,0v-146C-0.5-110.7,4.9-116,11.5-116z
		"/>
</g>
<g id="Group_331">
	<path id="Union_5" fill="#FFFFFF" stroke="#000000" stroke-width="3" stroke-linecap="round" stroke-linejoin="round" d="
		M211.4,98.1c0,0,10.4-3.8,13.6-11.4l2.3,1.4c-6.8-6.4-10.9-14.8-10.9-24.1c0-19.8,18.6-35.8,41.6-35.8c23,0,41.6,16,41.6,35.8
		S281,99.8,258,99.8c-5.9,0-11.7-1.1-17.2-3.2c-4.9,2.5-10.3,3.7-15.8,3.6C220.5,100.2,215.9,99.5,211.4,98.1z"/>
	<path id="Path_394" fill="#DA291C" d="M271.3,52.6c-0.9-4.7-5.8-4.5-9.4-5.3l-0.5,0.8c-3-0.1-3.2,2-4.9,3.6
		c-0.9-0.5-1.8-1.2-2.8-1.1c-2.5,0.8-6.4,0.8-7.6,3.9c0.2,0.2,0.5,0.3,0.5,0.6c-0.1,0.6-0.5,1.8-1.4,1.7c-2.2,7.6,6.6,9.5,11.2,13.3
		c3.4,4.9-0.3,11,2.6,15.7l2.3-0.5l-0.3-1.3c-0.3,0.1-0.8,0.3-1.1-0.1l1.1-1.4c-0.7-2.6,0.2-5,1.2-7.4c1.2-7.1,8.5-7.7,9.2-15.2
		c1.2-0.4-0.3-2.1,1.2-2.4L271.3,52.6z M268.9,59.2c-0.3,0.8-2.1,1.6-1.8,2.9l-0.6,0.1l-6.1,8.9c-1.7-5-6.7-5-9.8-8.7
		c-2,0.1-2.1-2.3-1.9-3.5c0.5-1.8,1.5-3.5,2.8-4.9c1.9-1.2,4.1,0,5,2c2-0.1,2.4,3.4,4.3,1.8c0.9-1.2,0.4-2-0.3-3.1
		c-0.6-0.5-1.7-0.9-1.2-2.1c2-2,7-3.7,8.8-0.3C268.7,54.3,269.4,57,268.9,59.2L268.9,59.2z"/>
</g>
<g id="Group_332">
	<g id="Group_265" transform="translate(-89.788 177.912)">
		<path id="Path_796" fill="#FFFFFF" d="M208.9,4.4c2.8,0,5.6-0.8,8.1-2.2c4.1-2.3,5.4-7.4,4.8-10.5c-0.5-2.3-1.3-4.5-2.3-6.7
			c-0.4-0.9-0.8-1.6-0.3-2.5c0.1-0.4,0-0.7-0.3-1c-1.4-1-2.5-2.5-4.3-3.1c-0.9-0.5-1.7-1.2-2.4-2c-2.2-2.1-4.8-3.5-7.8-4.3
			c-3.3-0.9-6.7-1.2-10-1c-5.5,0.2-10.9,1.8-15.5,4.7c-4.5,2.7-7.6,7.3-8.4,12.5c0,0.5,0.2,0.9,0.5,1.2c1.3,0.6,1.1,1.7,1,2.7
			c-0.3,1.4-0.7,2.8-1,4.2c-0.7,3.2,0.5,5.9,3.6,7c3.2,1.1,6.6,1.9,9.9,0.4c1.3-0.6,2.7-0.4,3.9,0.3c2.2,1.3,4.8,1.9,7.4,1.6
			c1.8-0.3,3.5-0.9,5.1-1.7c1.2-0.6,2.5-0.7,3.8-0.4C206.3,4.1,207.8,4.3,208.9,4.4z"/>
		<path id="Path_797" fill="#FFFFFF" d="M161.4-157.7l-0.4-0.1l0.3,0.2c0.6,0.8,1.2,1.7,1.9,2.5c0.7,0.7,0.9,1.8,0.5,2.7
			c-0.5,0.9-1.4,0.7-2.2,0.6c-2.1-0.3-4.2,0.8-5.2,2.7c-0.6,1.3-1.2,2.6-1.6,4c-0.4,1.7-1.5,3.2-3,4c-1,0.5-1.9,1.1-2.9,1.6
			c-0.8,0.4-1.4,1.2-1.6,2.1c-0.6,1.7,0,3.4,0.2,5.1c0.2,1.8,0.1,2.5-1.4,3.5c-0.8,0.4-1.6,0.9-2.3,1.4c-0.9,0.7-1.6,1.5-2.3,2.4
			c-0.5,0.7,0,1.3,0.9,1.2c1.7-0.2,2.7,0.6,3.5,2.1c0.5,1,0.5,2.2-0.2,3.1c-1.3,2.8-1.8,5.9-1.6,8.9c0.2,3.3,1,6.6,2.4,9.6
			c0.6,1.3,1.1,2.7,1.4,4.1c0.3,1.9,0.9,3.9-0.1,5.9c-0.8,1.6-0.8,1.7,0.8,2.8c1.1,0.7,1.7,1.8,1.6,3.1c0.1,5.2-0.8,10.4-1.4,15.5
			c-0.4,2.3,0.1,4.7,1.5,6.7c0.8,1.1,1.6,2.1,2.6,3c0.9,0.8,1.5,1.9,1.6,3.1c0.1,0.5,0.2,1.1,0.4,1.6c0.4,1.5,1.7,2.6,3.3,2.7
			c1.7-0.1,3.3,0.6,4.6,1.7c0.4,0.3,0.8,0.5,1.3,0.7c2.5,1.1,5.1,1.8,7.8,2.1c1.7,0.3,3.5,0,5.1-0.8c1.9-0.9,3.3-2.7,3.5-4.9
			c0.2-1.2,0.7-1.9,2.1-1.8l0.4,0.5c0.1,3.4-2.5,7.6-6,8.6c-1.2,0.3-1.5,1-1.5,2.1c-0.1,2.3,0.1,4.6-1.3,6.6
			c-0.1,0.1,0.1,0.5,0.2,0.5c1.6,0.2,3.2,0.4,4.8,0.4c9.3,0.1,18.7,0.3,28-0.4c1.2-0.1,2.4,0,3.6-0.1c3.2-0.3,6.5-0.8,9.7-1.1
			c4.2-0.4,8.3-1.3,12.4-2.5c7.9-2.3,15.6-5.5,22.8-9.5c3.5-1.9,6.7-4.2,9.6-7c0.7-0.7,1-1.2,0.5-2.2c-0.8-1.3-1.4-2.7-2.2-4
			c-0.2-0.3-0.6-0.5-1-0.5c-3.3,0.4-6.5-0.6-9.6-1.3c-2-0.4-3.8-1.6-4.8-3.4c-0.4-0.6-0.6-1.3,0.2-1.8c0.6-0.4,1.3-0.2,1.7,0.4
			c0.1,0.1,0.1,0.2,0.1,0.3c0.6,1.2,1.7,2.1,3.1,2.2c1.9,0.4,3.8,0.8,5.7,1.2c3,0.9,6.3-0.3,8.1-2.9c1.4-2.1,2.9-4.2,4.5-6.1
			c1.1-1.4,2-2.8,2.8-4.4c0.8-1.5,1.2-3.1,1-4.8c-0.2-1.8-0.4-3.6-0.8-5.3c-0.8-5.1-3.5-9.8-7.6-13c-3.3-2.5-4.7-5.9-5.8-9.6
			c-0.3-1.1,0.5-1.8,1.6-1.7c0.4,0,0.8,0,1.2,0c0-0.5-0.1-0.9-0.2-1.3c-0.3-0.5-0.6-1.1-1-1.6c-1.6-2.3-2.2-5.1-1.7-7.9
			c0.5-2.9,0.3-5.8-1.9-8c-2-2-2.3-4.5-2.5-7.1c-0.4-3.8-0.9-7.4-3.3-10.5c-0.5-0.5-0.6-1.3-0.3-1.9c0.1-0.4,0-0.7-0.2-1
			c-2.1-1.6-4.3-3.1-6.6-4.4c-1.3-0.5-2.3-1.5-2.9-2.7c-0.5-1.4-1.7-2.4-3.1-2.8c-4.8-1.2-9.4-2.8-13.9-4.8c-1.9-0.9-4.1-0.9-6,0
			c-1.3,0.6-2.8,0.8-4.2,0.5c-2-0.4-3.9-1.8-2.8-4.7c0.1-0.2,0.1-0.4,0.2-0.6c0.3-0.7-0.1-0.7-0.6-0.6c-1.8,0.4-3.5,1.3-4.9,2.6
			c-1.2,1.2-1.8,1.1-2.2-0.6c-0.2-1-0.9-1.7-1.9-2.1c-0.4-0.2-0.6-0.3-0.7,0.3c-0.6,4.6-4,6.7-8.6,5.3c-3.2-1-6.2-0.4-9.1,0.8
			c-1.5,0.6-2.9,1.3-4.2,2.2c-1,0.9-2.4,1.4-3.8,1.2c-1.7-0.2-3.5,0.1-5.1,0.9c-0.9,0.4-1.6,1.2-1.8,2.1c-0.4,1.6-1.3,3.1-2.5,4.2
			c-1,0.9-1.3,1-2.2-0.1C164.4-157.2,162.9-157.9,161.4-157.7z"/>
		<g transform="translate(149.952 113.465)">
			<path id="Path_798" fill="#A37F71" d="M127.8-119.6c0.9-6.2,1-12.5,0.5-18.8c-0.5-4.5-0.7-9-1.6-13.4c-1-4.6-3-10.9-6.7-14.1
				c-0.4-0.4-0.9-0.7-1.3-1.1c-1.9-2-3.4-6.3-1.9-8.8c1.5-2.6,4.3-4.3,6.4-6.5c3.6-3.7,6.5-8,7.2-13.2c0.8-5.8,0.5-13.3-2.5-18.5
				c-1.5-2.7-3.8-4.8-6-7c-3.4-3.2-5.4-7.6-5.6-12.3c-1-12.8-5.5-26.8-14-36.7c-2.4-2.9-5.4-5.3-8.7-7c-4.1-2.1-8.4-2.7-12.8-3.6
				c-3.8-0.8-7.5-1.7-11.2-2.8c-3.3-1-6.3-3.4-9.9-3.7c-6.3-0.4-12.6,0.4-18.5,2.5c-5.2,1.6-9.7,5-12.6,9.6
				c-5.4,3.3-9,9.3-15.2,11.9c-4.8,2-6.3,6.5-7.3,11.2c-0.7,0.9-1.4,1.8-2.1,2.8c-1.6,0.8-2.8,2.1-3.6,3.7
				c-1.5,3.1-0.8,7.3,0.2,11.3c0.1,1.7,0.2,3.4,0.4,5.2c-2.4,8.3-1,17,1.5,25.2c0.7,2.1,1.3,4.3,2,6.5c0.1,4.7-0.2,9.4-0.9,14
				c-0.9,5.8-0.2,11.8,5.2,15.3c1.9,1.1,4,1.8,6.2,2.2c0.6,0.3,1.2,0.5,1.9,0.8c1.2,0.4,2.7,0.8,4,1.3c0.3,0.2,0.6,0.4,0.9,0.7
				c0.4,0.4,1,0.7,1.5,0.9c0,0.1,0.1,0.1,0.1,0.2c1.8,2.3,0.6,6-0.1,8.4c-1.8,6.1,1,11.3,7.8,11.2c2.8,0,5.6-0.8,8.4-0.7
				c0.9,0,1.9,0.1,2.8,0.2c-3,1.1-5.8,2.7-8.3,4.7c-4.4,3.7-8.4,10.3-8.4,16.5c-0.1,0.2-0.2,0.5-0.2,0.7c-1.2,4.1-0.5,9.1,3.2,11.7
				c2.5,1.8,4.8,1.2,7-0.1c2.7,0.9,5.5,1.5,8.3,2.1c5.5,1.3,11.2,2.1,16.9,2.2c1.3,0,2.6-0.1,3.9-0.4c1.7,0.1,3.4-0.2,5-0.8
				c4.9-2.1,6.4-7.4,6.2-12.5c0.1-0.4-0.1-0.4,0-0.7 M38-229c-0.1,0.3-0.3,0.5-0.5,0.7c-0.2,0.2-0.6,0.3-0.8,0.1
				c-0.1,0-0.3-0.1-0.4-0.2l0,0c-0.1-0.1-0.1-0.1-0.1-0.2c0,0,0,0,0-0.1c-0.2-0.3-0.1-0.8,0.1-1.1c0.2-0.2,0.5-0.3,0.8-0.2h0
				C37.6-230.1,38.2-229.5,38-229z M72.9-238.8c0.2-0.3,0.5-0.5,0.9-0.5c0.4,0,0.8,0.3,0.9,0.7c0.1,0.2,0,0.5-0.1,0.7
				c0,0.1-0.1,0.3-0.2,0.4c-0.2,0.2-0.6,0.3-0.9,0.1c-0.2,0-0.4-0.2-0.5-0.4c-0.1-0.1-0.1-0.3-0.1-0.4
				C72.7-238.4,72.8-238.6,72.9-238.8z"/>
		</g>
		<path id="Path_799" fill="#DA291C" d="M273.7-26.8c0,0.4,0,0.7,0,1.1c0,0.3-0.1,0.5-0.1,0.8c-0.2-0.1-0.5-0.2-0.6-0.3
			c-1.9-2.1-3.7-4.3-5.6-6.3c-2.9-3-5.9-5.9-8.9-8.8c-0.6-0.6-0.4-0.7,0.1-1c3.9-3.1,7.4-6.8,10.4-10.8c0.5-0.7,0.7-0.4,0.9,0.4
			c1.4,5.7,2.5,11.4,3.2,17.2C273.3-32,273.5-29.4,273.7-26.8L273.7-26.8z"/>
		<path id="Path_800" stroke="#000000" stroke-miterlimit="10" d="M276.9-28.2c-0.6-7.1-2.1-14.1-4.4-20.8c-0.9-2.6-2.5-5-3-7.7
			c-0.1-0.6-0.3-1.1-0.8-1.4c-1.7-0.8-2-2.6-2.8-4c-1-1.5-0.9-1.8,0.4-2.9c1.5-1.2,2.7-2.8,3.5-4.6c0.3-0.6,0.7-1.2,1.3-1.6
			c2.4-2.2,3.8-5.1,5.2-8c0.3-0.6,0.4-1.2,0.4-1.8c0.3-7.1-1.1-13.7-5.8-19.3c-1.2-1.4-2.6-2.8-4-4c-1.6-1.4-2.8-3.2-3.4-5.2
			c-0.3-0.8,0-0.9,0.8-0.8c0.7,0.2,1.5-0.3,1.7-1c0-0.2,0.1-0.3,0-0.5c0.1-2-0.5-3.9-1.9-5.4c-1-1.1-1.6-2.6-1.6-4.1
			c-0.1-1.2,0-2.4,0.2-3.5c0.6-3-0.3-6.1-2.4-8.4c-1.3-1.6-2-3.5-2.1-5.5c-0.1-0.4-0.1-0.8-0.1-1.2c-0.4-3.2-0.7-6.4-2.5-9.2
			c-0.1-0.2-0.3-0.6-0.2-0.8c1-1.6-0.2-2.7-1.1-3.6c-2.3-2.3-4.9-4.1-7.8-5.5c-0.8-0.3-1.5-1-1.9-1.8c-0.9-2.1-2.8-3.6-5-4
			c-4.7-1.2-9.2-2.7-13.6-4.7c-2.2-1-4.7-1-6.9,0.1c-0.8,0.3-1.5,0.6-2.3,0.9c-0.8,0.3-1.6,0-2.1-0.7c-0.5-0.7-0.4-1.5,0.2-2.1
			c0.5-0.5,1-1,1.5-1.4c1-0.9,1-1.7-0.3-2.2c-0.8-0.4-1.7-0.5-2.6-0.3c-1.9,0.6-3.8,1.3-5.6,2.2c-0.5,0.3-1.1,0.3-1.5-0.1
			c-2-1.4-4.1-2.6-6.2-3.8c-0.3-0.1-0.9,0.2-1.2,0.4c-0.2,0.3-0.2,0.7-0.1,1.1c0.3,0.5,0.6,0.9,0.9,1.4c0.6,1,0.6,2.3,0,3.4
			c-0.5,1.1-1.7,1.8-2.9,1.6c-1-0.1-2-0.4-3.1-0.6c-1.4-0.3-2.9-0.4-4.3-0.4c-3.7,0.4-7.2,1.8-10.2,4c-0.6,0.6-1.5,0.8-2.3,0.7
			c-2.1-0.3-4.2,0.1-6.1,1.1c-1.6,0.6-2.7,2-3.1,3.7c-0.2,0.6-0.4,1.2-0.7,1.7c-0.2,0.5-0.6,0.7-1.1,0.3c-2.8-2.2-6-1.7-9.2-1.4
			c-0.8,0-1.5,0.6-1.7,1.3c-0.1,0.8,0.6,1.1,1.3,1.5c1.1,0.6,2.2,1.2,3.2,1.9c0.3,0.2,0.6,0.5,0.9,0.8c-0.3,0.2-0.7,0.4-1.1,0.5
			c-1.7,0.3-3.3,1.2-4.4,2.5c-1.3,1.4-2.2,3.3-2.5,5.2c-0.2,1.6-1.2,2.9-2.6,3.5c-0.8,0.3-1.5,0.7-2.2,1.2c-1.9,0.9-3,2.8-3.1,4.9
			c-0.1,1,0,2.1,0.1,3.1c0.3,2.5,0.4,2.5-1.8,3.8c-3,1.7-4.6,4.1-4.4,7.7c0.1,0.9-0.2,2,0.9,2.4c1,0.4,1.4-0.6,2-1.2
			c0.5-0.5,1.1-0.9,1.8-0.5c0.7,0.5,0.5,1.1,0.2,1.9c-0.5,1.3-1,2.7-1.3,4.2c-1,5.4-0.3,11,2.1,15.9c1,2.1,1.5,4.3,1.7,6.6
			c0,0.8,0.2,1.6-1.1,1.8c-0.5,0-0.9,0.5-0.9,1.1c0,0.2,0.1,0.4,0.2,0.6c0.8,1.3,1.7,2.5,2.7,3.6c0.7,0.5,1,1.4,0.9,2.3
			c-0.5,3.7-0.8,7.3-1.5,11c-0.6,3.2-0.3,6.6,0.7,9.7c0.5,1.9,1.7,3.6,3.2,4.7c0.9,0.6,1.5,1.5,1.5,2.6c0.1,0.6,0.2,1.2,0.4,1.8
			c0.6,2.9,3.3,4.9,6.3,4.7c0.7,0,1.5,0.2,2.1,0.6c2.7,1.3,5.3,2.8,8.4,2.9c1.3,0.1,2.6,0.3,3.9,0.4c0,1.3-0.1,2.7-0.1,4
			c0.2,1.4-0.5,2.8-1.8,3.5c-0.7,0.4-1.1,1-0.4,1.7c0.6,0.6,0.3,1.1,0.2,1.7c-0.4,1.4-0.9,3.1,0,4.3c1.2,1.6,1,3.2,1.2,4.9
			c0.1,0.9,0.3,1.8,0.6,2.6c0.2,0.6,0.1,1.3-0.4,1.7c-3.2,3.5-4,7.9-4.1,12.4c0,0.5,0.2,1.1,0.5,1.5c0.7,0.4,0.7,0.9,0.5,1.6
			c-0.2,0.7-0.3,1.4-0.4,2c-0.4,4.2,1.5,7.5,5.4,8.8c2.8,1,5.9,1.3,8.9,1c2.4-0.4,4.9-0.2,7.3,0.6c2.4,0.7,4.9,1.3,7.4,0.4
			c1.3-0.4,2.5-0.8,3.7-1.3c1.2-0.5,2.6-0.7,3.9-0.3c2.4,0.5,4.8,0.6,7.3,0.2c9.4-1.7,13.9-10.1,10.9-18c-0.3-0.8-0.6-1.7-0.9-2.6
			c-0.3-0.8-0.9-1.7,0.5-2.1c0.2-0.1,0.3-1,0.1-1.3c-0.5-0.7-1.1-1.4-1.8-2.1c-0.6-0.6-1.2-1-1.9-1.6c-0.1-0.4-0.2-0.7-0.3-1.1
			c-0.1-0.8-0.4-1.2-1.2-0.8c-1.1,0.6-1.7-0.1-2.4-0.7c-1.9-1.4-3.8-2.8-5.7-4.2c-0.2-0.2-0.4-0.4-0.5-0.6c0.2-0.1,0.5-0.1,0.7-0.2
			c5-0.7,10-1.3,15-2.1c8-1.4,15.9-3.8,23.4-7c0.5-0.2,1-0.4,1.5-0.6c1.9-1.3,3.6-0.6,5.4,0.5c6.3,3.9,12.4,8.2,18.1,13
			c0.7,0.4,1.4,0.7,2.2,0.9C277.1-25.1,277-26.7,276.9-28.2z M212.3-23.6c0.6,0.8,1.4,1.5,2.4,2c1.8,0.6,2.8,2.1,4.3,3.1
			c0.3,0.3,0.4,0.6,0.3,1c-0.4,1,0,1.7,0.3,2.5c1,2.1,1.8,4.4,2.3,6.7c0.5,3.1-0.7,8.2-4.8,10.5c-2.5,1.4-5.3,2.1-8.1,2.2
			c-1.2-0.2-2.7-0.4-4.2-0.7c-1.3-0.3-2.6-0.1-3.8,0.4c-1.6,0.8-3.3,1.4-5.1,1.7c-2.6,0.3-5.2-0.3-7.4-1.6c-1.2-0.8-2.6-0.9-3.9-0.3
			c-3.4,1.4-6.7,0.7-9.9-0.4c-3.1-1.1-4.3-3.8-3.6-7c0.3-1.4,0.7-2.8,1-4.2c0.2-1,0.3-2.1-1-2.7c-0.4-0.3-0.5-0.7-0.5-1.2
			c0.8-5.2,3.9-9.8,8.4-12.5c4.7-2.9,10-4.5,15.5-4.7c3.4-0.2,6.8,0.1,10,1C207.5-27.1,210.1-25.6,212.3-23.6L212.3-23.6z
			 M175.2-27.5c1.4,0,2.9,0,4.3,0c0.1,0,0.3,0,0.4,0.1c-0.1,0.1-0.2,0.3-0.3,0.4c-1.5,1.2-2.9,2.3-4.4,3.5c-0.4,0.3-0.8,0.4-0.9-0.2
			c-0.2-0.9-0.3-1.9-0.4-2.8C173.9-27.6,174.2-27.9,175.2-27.5L175.2-27.5z M255.1-49.4c-7.2,4.1-14.8,7.3-22.8,9.5
			c-4,1.2-8.2,2-12.4,2.5c-3.2,0.3-6.5,0.8-9.7,1.1c-1.2,0.1-2.4,0-3.6,0.1c-9.3,0.6-18.7,0.5-28,0.4c-1.6,0-3.2-0.2-4.8-0.4
			c-0.1,0-0.3-0.4-0.2-0.5c1.4-2,1.2-4.3,1.3-6.6c0-1.1,0.3-1.7,1.5-2.1c3.5-1,6.2-5.2,6-8.6c-0.1-0.2-0.2-0.3-0.4-0.5
			c-1.3-0.1-1.8,0.6-2.1,1.8c-0.3,2.1-1.6,3.9-3.5,4.9c-1.6,0.8-3.3,1.1-5.1,0.8c-2.7-0.3-5.3-1-7.8-2.1c-0.5-0.2-0.9-0.4-1.3-0.7
			c-1.2-1.1-2.9-1.8-4.6-1.7c-1.6,0-3-1.1-3.3-2.7c-0.2-0.5-0.3-1.1-0.4-1.6c-0.1-1.2-0.7-2.3-1.6-3.1c-0.9-0.9-1.8-1.9-2.6-3
			c-1.3-2-1.8-4.3-1.5-6.7c0.6-5.1,1.6-10.3,1.4-15.5c0.1-1.3-0.6-2.5-1.6-3.1c-1.6-1.1-1.6-1.2-0.8-2.8c1-2,0.4-4,0.1-5.9
			c-0.3-1.4-0.8-2.8-1.4-4.1c-1.4-3-2.3-6.3-2.4-9.6c-0.2-3.1,0.4-6.1,1.6-8.9c0.6-0.9,0.7-2.1,0.2-3.1c-0.8-1.4-1.7-2.3-3.5-2.1
			c-0.9,0.1-1.4-0.5-0.9-1.2c0.6-0.9,1.4-1.7,2.3-2.4c0.7-0.5,1.5-1,2.3-1.4c1.5-1,1.6-1.7,1.4-3.5c-0.2-1.7-0.8-3.4-0.2-5.1
			c0.2-0.9,0.8-1.6,1.6-2.1c1-0.5,1.9-1.1,2.9-1.6c1.6-0.8,2.7-2.3,3-4c0.4-1.4,0.9-2.7,1.6-4c1-1.9,3-3,5.2-2.7
			c0.8,0.1,1.8,0.3,2.2-0.6c0.5-0.9,0.3-2-0.5-2.7c-0.7-0.8-1.3-1.6-1.9-2.5l-0.3-0.2l0.4,0.1c1.6-0.2,3.1,0.5,4,1.8
			c0.9,1.1,1.2,1.1,2.2,0.1c1.3-1.1,2.2-2.6,2.5-4.2c0.2-1,0.9-1.8,1.8-2.1c1.6-0.8,3.3-1.1,5.1-0.9c1.4,0.1,2.8-0.3,3.8-1.2
			c1.3-0.9,2.7-1.7,4.2-2.2c2.9-1.2,6-1.8,9.1-0.8c4.6,1.5,8-0.6,8.6-5.3c0.1-0.6,0.3-0.5,0.7-0.3c0.9,0.4,1.6,1.1,1.9,2.1
			c0.4,1.6,0.9,1.8,2.2,0.6c1.4-1.2,3.1-2.1,4.9-2.6c0.4-0.1,0.9-0.1,0.6,0.6c-0.1,0.2-0.2,0.4-0.2,0.6c-1.2,2.9,0.8,4.3,2.8,4.7
			c1.4,0.3,2.9,0.2,4.2-0.5c1.9-1,4.1-1,6,0c4.5,2,9.2,3.6,13.9,4.8c1.5,0.3,2.6,1.3,3.1,2.8c0.5,1.3,1.6,2.3,2.9,2.7
			c2.3,1.3,4.5,2.7,6.6,4.4c0.2,0.3,0.3,0.7,0.2,1c-0.3,0.6-0.2,1.4,0.3,1.9c2.4,3.1,3,6.8,3.3,10.5c0.2,2.5,0.5,5.1,2.5,7.1
			c2.2,2.2,2.4,5.1,1.9,8c-0.5,2.8,0.1,5.6,1.7,7.9c0.4,0.5,0.7,1,1,1.6c0.1,0.4,0.2,0.9,0.2,1.3c-0.4,0-0.8,0-1.2,0
			c-1.1-0.1-1.9,0.6-1.6,1.7c1,3.7,2.5,7.1,5.8,9.6c4.1,3.2,6.8,7.9,7.6,13c0.4,1.8,0.6,3.5,0.8,5.3c0.2,1.7-0.2,3.3-1,4.8
			c-0.8,1.6-1.7,3-2.8,4.4c-1.6,1.9-3.1,4-4.5,6.1c-1.8,2.6-5,3.8-8.1,2.9c-1.9-0.4-3.8-0.8-5.7-1.2c-1.3-0.1-2.5-1-3.1-2.2
			c-0.2-0.7-0.9-1-1.5-0.8c-0.1,0-0.2,0.1-0.3,0.1c-0.8,0.5-0.6,1.2-0.2,1.8c1.1,1.8,2.8,3,4.8,3.4c3.2,0.7,6.3,1.7,9.6,1.3
			c0.4,0,0.8,0.2,1,0.5c0.8,1.3,1.4,2.7,2.2,4c0.5,0.9,0.2,1.5-0.5,2.2C261.8-53.7,258.6-51.3,255.1-49.4L255.1-49.4z M273.9-29.4
			c0,0.2-0.1,0.4-0.1,0.6c-0.3,0-0.5-0.1-0.7-0.3c-2.2-1.6-4.3-3.3-6.5-4.8c-3.4-2.3-6.8-4.5-10.3-6.8c-0.7-0.5-0.4-0.5,0.1-0.8
			c4.3-2.3,8.3-5,12-8.2c0.5-0.5,0.8-0.3,1,0.3c1.6,4.3,2.9,8.7,3.7,13.2c0.4,2,0.7,4,1,5.9l-0.1,0
			C273.9-29.9,273.9-29.7,273.9-29.4L273.9-29.4z"/>
		<path id="Path_801" d="M182.7-54.3l-0.5-0.4c-1-1.1-2.1-2.3-3.2-3.3c-1.1-1-2-2.4-2.4-3.9c-0.3-1.1-0.9-2-1.7-2.8
			c-2.8-2.9-4.6-6.7-5-10.7c-0.3-2.4-0.1-4.8,0.7-7.1c0.4-0.8,0.2-1.7-0.4-2.3c-0.8-0.9-1.2-2.1-1.1-3.2c-0.4-5.2,2.1-9.2,5.2-13
			c0.4-0.4,0.8-0.8,1.4-0.4s0.4,1,0.1,1.4c-0.7,1-1.4,2.1-2.1,3.1c-1.7,2.6-2.6,5.6-2.5,8.7c-0.1,1,0.3,2,1.2,2.5
			c1.2,0.7,1.2,1.7,0.7,2.9c-0.8,2.1-1.2,4.3-1,6.5c0.1,3.4,1.4,6.6,3.6,9.1c1.5,1.6,2.7,3.5,3.3,5.6c0,0.1,0.1,0.1,0.1,0.2
			c2.1,2.8,4.4,5.4,7.8,6.6c1.3,0.5,2.7,0.6,4,1c1.1,0.4,2.2,0.9,3.2,1.5c0.6,0.3,1,0.6,1.5-0.3c0.4-0.8,1.1-0.6,1.8-0.2
			c0.6,0.4,1.4,0.7,2,1c0.9,0.5,1.6,0.6,2.1-0.7c0.3-0.9,1.4-1.1,1.7-0.3c1,2.3,3.1,2.2,4.9,2.5c5.8,1.1,11.8,0.2,16.9-2.7
			c2.4-1.2,4.4-2.9,5.9-5.1c1-1.5,2.2-2.9,3.2-4.4c0.9-1.5,1.4-3.2,1.6-4.9c0.3-1.4,0.9-1.6,2.2-1c1.1,0.7,1.9,1.6,2.4,2.8
			c0.4,0.8,0.8,0.6,1.1,0c1.5-2.5,2.1-5.5,1.7-8.4c0-0.3-0.3-0.6-0.2-0.8c0.2-0.5,0.5-0.9,0.9-1.3c0.1-0.1,0.7,0.2,1,0.4
			c0.1,0,0.1,0.1,0.1,0.1c1.6,1.5,1.5,1.5,2.4-0.6c0.9-1.9,1.7-3.8,2.4-5.7c1-3.5,0.4-7-0.4-10.5c-1-4.4-3.3-8.4-6.6-11.6
			c-0.3-0.3-0.6-0.6-1-0.8c-1.4-0.4-2.4-1.7-2.4-3.2c-0.2-2.6-1.9-4.9-4.3-6c-0.6-0.3-1.1-0.7-0.8-1.4c0.4-0.8,1.1-0.6,1.8-0.3
			c2.9,1.5,4.9,4.2,5.6,7.4c0.1,0.5,0.3,1,0.7,1.4c5,3.8,8.3,9.3,9.4,15.5c0.5,2.9,0.6,5.8,0.3,8.7c-0.2,1.2-0.5,2.4-1.1,3.6
			c-1,2.6-2.6,5.1-3.1,7.9c-0.1,0.6-0.6,1-1.2,0.9c-0.2,0-0.3-0.1-0.4-0.2c-1-0.5-1.1,0.1-1.2,0.7c-0.3,2.1-1.1,4.2-2.5,5.9
			c-0.5,0.6-1.1,1.2-1.8,1.7c-0.9,0.7-1.4,0.6-1.9-0.4c-0.4-0.7-0.6-1.6-0.9-2.3c-0.1-0.3-0.4-0.5-0.7-0.7c-0.1,0.3-0.1,0.5-0.2,0.8
			c-0.5,1.5-1.2,2.9-2,4.3c-2.1,3.3-4.4,6.4-7.8,8.6c-2.8,1.9-6,3.2-9.4,3.8c-3.5,0.6-7.1,0.7-10.6,0.1c-0.9-0.1-1.9-0.1-2.8,0
			c-2,0.2-3.9-0.3-5.6-1.2c-0.6-0.4-1.1-0.1-1.1,0.6c0,0.9-0.6,1.1-1.1,1.3c-0.7,0.3-1.1-0.3-1.4-0.9c-1.1-1.5-2.6-2.5-4.3-3
			C188.3-52,185.3-52.5,182.7-54.3z"/>
		<path id="Path_802" d="M217.4-84.5c0.3,1.6-0.5,3.1-1.9,3.8c-1.7,0.4-3.5-0.1-4.8-1.3c-0.3-0.4-0.5-0.8-0.8-1.2
			c-0.7-1.2-2.2-1.7-3.4-1c-0.5,0.3-0.9,0.7-1.1,1.2c-0.9,1.4-2.8,1.7-4.2,0.8c-0.4-0.3-0.7-0.6-0.9-1c-1.6-3.3-0.8-7.4,2-9.8
			c2-1.6,4.3-2.9,6.7-3.7c2.7-1,5.6-1.2,8.4-0.5c3.4,0.8,5.9,3.7,6.2,7.2c0,0.6-0.1,1.2-0.3,1.8c-0.2,0.9-1,1.5-1.9,1.3
			c-0.2,0-0.4-0.1-0.5-0.2c-0.3-0.1-0.5-0.3-0.7-0.4c-0.9-0.5-2.1-0.1-2.5,0.9c-0.1,0.3-0.2,0.6-0.2,1
			C217.3-85.3,217.3-84.9,217.4-84.5z M210.1-90c2.2-0.2,3.8-0.5,5.1-1.9c1.4-1.6,1.2-2.8-0.8-3.5c-2.4-0.8-5.1-0.3-7,1.4
			c-0.8,0.6-1.1,1.7-0.5,2.5c0.2,0.3,0.5,0.6,0.9,0.7C208.5-90.4,209.3-90.2,210.1-90L210.1-90z"/>
		<path id="Path_803" d="M195.2-114.6c-3-2.9-6.1-5-10.7-4.2c-3.7,0.6-7.3,5.4-7.7,8.2c-0.1,0.7-0.4,1.7,0.6,1.9s1.1-0.8,1.4-1.5
			c0.4-1,0.8-2,1.2-3.1c0.1-0.1,0.2-0.2,0.3-0.3c0.1,0.1,0.2,0.3,0.3,0.4c0.2,0.6,0.4,1.2,0.7,1.7c1,1.8,3,2.8,5.1,2.6
			c2.2-0.5,3.9-1.3,4.4-3.8c0.1-1,0-2-0.3-3l-0.2-0.4l0.4,0.2c1,0.2,1.9,0.9,2.4,1.8c0.2,0.3,0.3,0.8,0.6,1.1
			c0.3,0.3,0.9,0.6,1.2,0.4c0.4-0.3,0.6-0.7,0.7-1.2C195.6-114.1,195.4-114.4,195.2-114.6z M187.5-114.8c-0.2,0.2-0.6,0.3-0.8,0.1
			c-0.1,0-0.3-0.1-0.4-0.2l0,0c-0.1-0.1-0.1-0.1-0.1-0.2c0,0,0,0,0-0.1c-0.2-0.3-0.1-0.8,0.1-1.1c0.2-0.2,0.5-0.3,0.8-0.2h0
			c0.5-0.2,1.2,0.4,0.9,0.9v0c0,0,0,0,0.1,0.1c-0.1,0-0.1,0.1-0.2,0.1C187.8-115.1,187.7-115,187.5-114.8L187.5-114.8z"/>
		<path id="Path_804" d="M232.8-123.2c-0.2-0.4-0.5-0.8-0.9-1.1c-1.7-1.7-3.8-2.8-6.1-3.4c-4.4-1.2-9,0.8-11.1,4.9
			c-0.8,1.5-1.4,3-2.1,4.5c-0.4,0.9-0.2,1.5,0.4,1.7s1.2-0.3,1.4-1.2c0-0.2,0-0.4,0-0.6c0.4-1.8,1.2-3.5,2.4-5
			c0.2-0.2,0.4-0.3,0.7-0.4c0.1,0.2,0.1,0.5,0.2,0.7c0.1,0.9,0.3,1.8,0.6,2.6c1.3,2,3.8,2.8,6,1.9c2.1-0.8,3.4-2.8,3.2-5
			c-0.1-0.1-0.1-0.3-0.1-0.4c0-0.3,0.1-0.5,0.1-0.8c0.3,0.1,0.6,0.1,0.7,0.2c0.9,0.8,1.7,1.8,2.7,2.6c0.3,0.3,0.8,0.4,1.2,0.3
			c0.5-0.2,0.8-0.7,0.6-1.2C232.9-123.1,232.8-123.1,232.8-123.2z M224.5-124.4c0,0.1-0.1,0.3-0.2,0.4c-0.2,0.2-0.6,0.3-0.9,0.1
			c-0.2,0-0.4-0.2-0.5-0.4c-0.1-0.1-0.1-0.3-0.1-0.4c-0.1-0.2,0-0.4,0.1-0.6c0.2-0.3,0.4-0.4,0.7-0.5l0,0l0,0c0,0,0.1,0,0.1,0
			c0.4,0,0.8,0.3,0.9,0.7C224.7-124.9,224.6-124.6,224.5-124.4z"/>
		<path id="Path_805" d="M176.9-131.1c-3.1,1.1-4.7,2.7-5.1,5.5c0,0.3-0.1,0.5,0,0.8c0.1,0.8,1,1.7,1.4,1.4c0.5-0.4,0.8-0.9,1-1.4
			c0.2-0.6,0-1.2,0.2-1.8c0.1-0.3,0.5-0.6,0.8-0.9c0.2,0.3,0.3,0.6,0.5,0.8c0.2,0.6,0.5,1.3,0.8,1.9c0.7,1.2,1.8,1.4,2.4,0.2
			c1.2-2.5,3.4-3,5.8-3.4c0.3-0.1,0.6,0,0.8-0.1c0.3-0.2,0.7-0.5,0.7-0.8c0-0.4-0.3-0.7-0.6-0.9c-0.8-0.3-1.7-0.3-2.6-0.1
			c-1.5,0.7-3.3,0.6-4.5,2.1c-0.1,0.1-0.3,0.1-0.3,0.1c-0.1-0.1-0.2-0.3-0.2-0.5c0.1-0.3,0.3-0.6,0.4-1c0.1-0.5,0.6-1.1-0.1-1.5
			C177.7-130.9,177.3-131,176.9-131.1z"/>
		<path id="Path_806" fill="#DA291C" d="M219-72.2c0.8,1.8,0.7,4-0.3,5.8c-1.9,3.4-6.5,2.6-8,0.2c-0.5-1.1-0.9-2.3-1.2-3.4
			c2.3-0.1,4.5-0.5,6.7-1.2C217.1-71.4,218-71.8,219-72.2z"/>
		<path id="Path_807" d="M224.1-138.2c0-0.5,0-1.1,0-1.6c-0.1-0.8,0.3-0.6,0.6-0.3c0.5,0.5,1,0.9,1.6,1.3c0.4,0.2,0.9,0.2,1.3,0.1
			c0.4-0.2,0.6-0.7,0.4-1.2c0-0.1-0.1-0.2-0.2-0.3c-0.9-1-2-1.9-3.1-2.7c-1.1-0.7-1.7-0.7-2.3,0.7c-0.4,1.1-0.9,1.1-1.8,0.7
			c-2.4-1.1-4.6-0.1-6.8,0.7c-0.3,0.1-0.7,0.9-0.6,1.3c0,0.5,0.5,0.9,1,0.9c0.1,0,0.1,0,0.2,0c0.6-0.1,1.2-0.2,1.8-0.5
			c1.6-0.8,3.5-0.7,5,0.3c0.5,0.3,1,0.5,1.5,0.7C223.1-138.1,223.6-138.1,224.1-138.2z"/>
		<path id="Path_808" d="M156.7-113.4c0.3,0.2,0.8,0.4,0.9,0.7c0.1,0.2-0.1,0.6-0.2,0.9c-0.3,0.5-0.6,1.1-0.9,1.6
			c-0.1,0.4-0.1,0.9,0,1.3c0.1,0.5,0.4,1,0.5,1.6c0.3,1.4,0.6,2.8,1.9,3.7c0.4,0.4,0.7,0.8,0.9,1.4c0.3,0.4,0.1,1-0.3,1.3
			c-0.1,0-0.1,0.1-0.2,0.1c-0.4,0.1-0.9,0-1.3-0.2c-0.3-0.1-0.4-0.6-0.6-0.8c-0.4-0.5-0.8-0.8-1.4-0.2c-0.5,0.5-1.1,0.6-1.4,0.1
			c-0.3-0.4-0.6-1.3-0.4-1.6c1.1-1.5,0.7-3,0.1-4.5c-0.4-1.7,0.1-3.5,1.3-4.7C156.1-113.1,156.4-113.2,156.7-113.4z"/>
		<path id="Path_809" d="M251.2-113.1c0.9-2.3-0.7-3.8-1.7-5.4c-0.3-0.5-0.5-1-0.1-1.5c0.6-0.6,1.2-0.4,1.6,0.2
			c0.5,0.5,0.9,1.1,1.2,1.7c0.5,0.8,0.8,1.8,1.8,2.2c0.5,0.2,0.8,0.8,0.6,1.3c0,0.1-0.1,0.2-0.2,0.3c-1.4,1.3-0.4,2.5,0,3.8
			c0.2,0.4,0.4,0.7,0.6,1.1c0.5,0.9,0.5,1.8-0.1,2c-0.9,0.4-1.5-0.2-1.9-0.9c-0.5-0.8-0.9-1.7-1.3-2.6
			C251.6-111.7,251.4-112.4,251.2-113.1z"/>
		<path id="Path_810" fill="#281B1A" d="M219-72.2c-0.9,0.4-1.9,0.9-2.8,1.2c-2.1,0.7-4.4,1.2-6.7,1.2c-1.2-0.4-2.3-0.8-3.5-1.3
			c-0.2-0.1-0.3-0.3-0.3-0.5c0-0.1,0.3-0.3,0.4-0.3c0.3,0,0.6,0,0.8,0c7.2,1.4,12.5-1.4,16.6-7.1c0.2-0.3,0.3-0.7,0.6-0.8
			c0.3-0.1,0.7-0.2,1.1-0.2c0,0.4,0.3,0.9,0.1,1.1c-1.1,1.4-2.2,2.8-3.5,4.1C221-73.9,220-73,219-72.2z"/>
		<path id="Path_811" fill="#FFFFFF" d="M210.1-90c2.2-0.2,3.8-0.5,5.1-1.9c1.4-1.6,1.2-2.8-0.8-3.5c-2.4-0.8-5.1-0.3-7,1.4
			c-0.8,0.6-1.1,1.7-0.5,2.5c0.2,0.3,0.5,0.6,0.9,0.7C208.5-90.4,209.3-90.2,210.1-90z"/>
		<path id="Path_812" fill="#070606" d="M277.1-25.8c-0.3-1-1.4-1.6-2.4-1.3c-1,0.3-1.5,1.3-1.3,2.3c1.5,5.4,2.1,11,1.9,16.6
			c-0.1,2.5,3.7,2.5,3.8,0C279.4-14.1,278.7-20,277.1-25.8z"/>
	</g>
	<path id="Path_414" opacity="8.000000e-02" d="M134.9,166.6h53.8l-0.7,5.1h-52.1c-0.9,0-0.6-1.8-0.6-2.6L134.9,166.6z"/>
</g>
</svg>
