<svg xmlns="http://www.w3.org/2000/svg" xmlns:xlink="http://www.w3.org/1999/xlink" width="375" height="336.001" viewBox="0 0 375 336.001">
  <defs>
    <filter id="Rectangle_236" x="0" y="173.001" width="375" height="163" filterUnits="userSpaceOnUse">
      <feOffset dy="-5" input="SourceAlpha"/>
      <feGaussianBlur result="blur"/>
      <feFlood flood-opacity="0.09"/>
      <feComposite operator="in" in2="blur"/>
      <feComposite in="SourceGraphic"/>
    </filter>
  </defs>
  <g id="Group_385" data-name="Group 385" transform="translate(0 -280.999)">
    <g transform="matrix(1, 0, 0, 1, 0, 281)" filter="url(#Rectangle_236)">
      <path id="Rectangle_236-2" data-name="Rectangle 236" d="M12,0H363a12,12,0,0,1,12,12V158a0,0,0,0,1,0,0H0a0,0,0,0,1,0,0V12A12,12,0,0,1,12,0Z" transform="translate(0 178)" fill="#4872ae"/>
    </g>
    <g id="Group_343" data-name="Group 343" transform="translate(-10)">
      <g id="Group_332" data-name="Group 332">
        <g id="Group_265" data-name="Group 265" transform="translate(-89.788 177.912)">
          <path id="Path_796" data-name="Path 796" d="M219.2,336.716a17.215,17.215,0,0,0,8.092-2.178c4.116-2.325,5.377-7.383,4.831-10.532a32.92,32.92,0,0,0-2.284-6.654c-.355-.869-.763-1.585-.331-2.541a1.069,1.069,0,0,0-.308-.981c-1.443-1.005-2.482-2.506-4.271-3.132a7.781,7.781,0,0,1-2.36-2,17.83,17.83,0,0,0-7.751-4.3,32.16,32.16,0,0,0-10.038-.98,31.157,31.157,0,0,0-15.528,4.713,17.6,17.6,0,0,0-8.408,12.543,1.385,1.385,0,0,0,.513,1.181c1.288.6,1.139,1.666.951,2.686-.263,1.425-.683,2.82-1,4.235-.735,3.243.5,5.927,3.583,7.026,3.214,1.146,6.565,1.863,9.915.434a4.047,4.047,0,0,1,3.906.328,12.044,12.044,0,0,0,7.4,1.588,19.407,19.407,0,0,0,5.112-1.67,5.962,5.962,0,0,1,3.823-.437C216.525,336.355,218.041,336.535,219.2,336.716Z" transform="translate(-9.751 -44.926)" fill="#fff"/>
          <path id="Path_797" data-name="Path 797" d="M162.66,130.92l-.414-.121.3.236c.626.823,1.207,1.685,1.89,2.458a2.324,2.324,0,0,1,.453,2.7c-.457.948-1.428.663-2.245.613a5,5,0,0,0-5.189,2.742,23.465,23.465,0,0,0-1.561,4.025,6.025,6.025,0,0,1-3.038,4.018c-.991.5-1.928,1.106-2.929,1.584a3.118,3.118,0,0,0-1.606,2.05c-.59,1.742-.04,3.433.182,5.12.241,1.829.079,2.532-1.4,3.511a24.991,24.991,0,0,0-2.3,1.413,11.563,11.563,0,0,0-2.259,2.389c-.473.716-.019,1.318.893,1.209,1.741-.207,2.683.639,3.464,2.066a3.071,3.071,0,0,1-.153,3.123,18.819,18.819,0,0,0-1.621,8.916,25.9,25.9,0,0,0,2.446,9.605,17.085,17.085,0,0,1,1.393,4.113c.285,1.934.923,3.916-.076,5.886-.83,1.634-.8,1.733.792,2.792a3.4,3.4,0,0,1,1.63,3.108c.131,5.235-.806,10.365-1.426,15.515a9.18,9.18,0,0,0,1.453,6.67,25.223,25.223,0,0,0,2.565,3,4.578,4.578,0,0,1,1.6,3.051,5.89,5.89,0,0,0,.41,1.6,3.432,3.432,0,0,0,3.316,2.653,6.4,6.4,0,0,1,4.553,1.7,4.457,4.457,0,0,0,1.268.7,29.1,29.1,0,0,0,7.784,2.1,8.317,8.317,0,0,0,5.054-.784,6.329,6.329,0,0,0,3.543-4.863c.223-1.227.743-1.911,2.05-1.811l.354.489c.124,3.383-2.517,7.625-6.042,8.625-1.206.341-1.456,1.015-1.486,2.086-.061,2.266.134,4.592-1.285,6.607-.061.086.134.518.237.529,1.585.164,3.172.381,4.762.4,9.332.12,18.665.266,27.988-.368,1.18-.08,2.379.049,3.553-.071,3.235-.334,6.456-.8,9.693-1.119a66.906,66.906,0,0,0,12.385-2.475,103.507,103.507,0,0,0,22.762-9.533,46.4,46.4,0,0,0,9.59-6.96c.674-.665,1.005-1.234.469-2.157-.765-1.317-1.4-2.711-2.165-4.026a1.234,1.234,0,0,0-1-.476c-3.335.423-6.472-.633-9.635-1.326a7.2,7.2,0,0,1-4.832-3.362c-.384-.65-.572-1.312.179-1.833a1.242,1.242,0,0,1,1.858.7,3.793,3.793,0,0,0,3.053,2.2c1.891.414,3.788.806,5.676,1.232a7.282,7.282,0,0,0,8.083-2.912,59.818,59.818,0,0,1,4.51-6.1,25.743,25.743,0,0,0,2.763-4.393,8.276,8.276,0,0,0,.991-4.817,47.3,47.3,0,0,0-.755-5.337,20.612,20.612,0,0,0-7.564-13.043c-3.26-2.531-4.745-5.868-5.754-9.6-.295-1.09.468-1.827,1.6-1.714.385.038.777.008,1.165.008a5.042,5.042,0,0,0-.215-1.328,12.311,12.311,0,0,0-1-1.574,10.659,10.659,0,0,1-1.705-7.9c.487-2.9.272-5.786-1.939-8-2-2-2.283-4.537-2.521-7.062-.354-3.774-.909-7.439-3.329-10.535a1.564,1.564,0,0,1-.3-1.9,1.074,1.074,0,0,0-.194-1.021,55.153,55.153,0,0,0-6.581-4.351,4.971,4.971,0,0,1-2.86-2.732,4.221,4.221,0,0,0-3.121-2.75,88.773,88.773,0,0,1-13.93-4.782,6.626,6.626,0,0,0-5.981.041,6.416,6.416,0,0,1-4.226.452c-1.98-.414-3.928-1.825-2.759-4.708.078-.193.15-.39.238-.579.317-.69-.137-.727-.57-.588a11.72,11.72,0,0,0-4.933,2.551c-1.231,1.209-1.789,1.06-2.168-.58a3.019,3.019,0,0,0-1.852-2.082c-.355-.176-.622-.275-.691.277-.589,4.635-4.032,6.747-8.607,5.252-3.167-1.035-6.186-.411-9.131.76a18.491,18.491,0,0,0-4.2,2.208,4.959,4.959,0,0,1-3.818,1.219,8.709,8.709,0,0,0-5.055.906,2.857,2.857,0,0,0-1.782,2.148,7.6,7.6,0,0,1-2.538,4.2c-.973.946-1.337.971-2.205-.108A4.345,4.345,0,0,0,162.66,130.92Z" transform="translate(-0.798 -1.251)" fill="#fff"/>
          <g id="Layer_2" data-name="Layer 2" transform="translate(149.952 113.465)">
            <path id="Path_798" data-name="Path 798" d="M281.576,282.161a83.633,83.633,0,0,0,.505-18.755c-.509-4.467-.723-8.981-1.634-13.393-.958-4.648-3.036-10.915-6.7-14.14-.424-.372-.882-.708-1.27-1.117-1.912-2.012-3.351-6.285-1.89-8.83,1.519-2.647,4.255-4.325,6.351-6.461,3.626-3.692,6.522-8.006,7.211-13.234.767-5.825.523-13.314-2.5-18.513-1.541-2.652-3.836-4.766-5.958-6.981a18.409,18.409,0,0,1-5.608-12.3c-.994-12.768-5.515-26.825-13.971-36.705a29.026,29.026,0,0,0-8.72-7.016c-4.055-2.083-8.424-2.7-12.835-3.616-3.774-.785-7.531-1.674-11.215-2.816-3.336-1.034-6.346-3.384-9.885-3.716a47.931,47.931,0,0,0-18.494,2.466,22.82,22.82,0,0,0-12.618,9.617c-5.357,3.3-9.02,9.282-15.157,11.884-4.764,2.02-6.29,6.522-7.314,11.222a27.148,27.148,0,0,0-2.065,2.791,8.542,8.542,0,0,0-3.645,3.723c-1.506,3.142-.8,7.315.242,11.261.053,1.714.189,3.441.361,5.156-2.351,8.3-1.047,17.035,1.473,25.21.657,2.13,1.328,4.3,2.048,6.469a79.894,79.894,0,0,1-.856,13.978c-.861,5.8-.16,11.831,5.2,15.282a19.841,19.841,0,0,0,6.195,2.2q.9.419,1.856.781c1.178.441,2.666.79,4,1.341a7.8,7.8,0,0,1,.9.669,4.9,4.9,0,0,0,1.519.918c.047.054.105.1.149.153,1.779,2.253.618,5.983-.109,8.4-1.831,6.084,1.03,11.292,7.8,11.233,2.831-.025,5.575-.75,8.434-.673a27.076,27.076,0,0,1,2.833.235,26.792,26.792,0,0,0-8.314,4.713c-4.381,3.659-8.372,10.31-8.429,16.485-.08.231-.159.461-.23.7-1.209,4.08-.513,9.121,3.209,11.68,2.545,1.75,4.832,1.195,6.963-.1a76.894,76.894,0,0,0,8.324,2.088,79.883,79.883,0,0,0,16.854,2.189,17.123,17.123,0,0,0,3.906-.427,12.77,12.77,0,0,0,5.028-.816c4.864-2.129,6.446-7.365,6.184-12.486.078-.358-.053-.382,0-.743M191.827,172.806a1.781,1.781,0,0,1-.49.705.757.757,0,0,1-.849.143.628.628,0,0,1-.371-.2l-.012-.015a.968.968,0,0,1-.14-.216c-.014-.021-.032-.038-.045-.062a.951.951,0,0,1,.122-1.078.845.845,0,0,1,.83-.216l.011,0C191.4,171.7,192.046,172.255,191.827,172.806Zm34.85-9.812a.969.969,0,0,1,.878-.47.919.919,0,0,1,.886.665.81.81,0,0,1-.141.7.759.759,0,0,1-.19.39.751.751,0,0,1-.885.122.706.706,0,0,1-.54-.35.781.781,0,0,1-.084-.421A.831.831,0,0,1,226.677,162.994Z" transform="translate(-153.297 -114.426)" fill="#a37f71"/>
          </g>
          <path id="Path_799" data-name="Path 799" d="M310.494,298.345c0,.364.015.73-.005,1.091a7.674,7.674,0,0,1-.121.781,1.9,1.9,0,0,1-.64-.34c-1.887-2.1-3.716-4.332-5.65-6.332-2.927-3.027-5.912-5.933-8.9-8.813-.612-.589-.377-.682.051-1.048a60.684,60.684,0,0,0,10.419-10.758c.47-.657.651-.374.862.435a142.51,142.51,0,0,1,3.213,17.21c.34,2.567.571,5.165.852,7.749Z" transform="translate(-36.269 -37.754)" fill="#da291c"/>
          <path id="Path_800" data-name="Path 800" d="M277.432,259.166A82.655,82.655,0,0,0,273,238.375c-.9-2.619-2.487-4.964-2.973-7.745a2.143,2.143,0,0,0-.776-1.432c-1.7-.841-1.954-2.64-2.843-4-1-1.525-.885-1.75.445-2.94a11.636,11.636,0,0,0,3.488-4.618,4.671,4.671,0,0,1,1.277-1.6c2.383-2.246,3.836-5.1,5.232-7.981a4.818,4.818,0,0,0,.406-1.824c.348-7.119-1.141-13.718-5.759-19.339a32.358,32.358,0,0,0-4.009-3.953,11.45,11.45,0,0,1-3.388-5.167c-.286-.836-.041-.88.75-.806a1.4,1.4,0,0,0,1.745-1.506,7.318,7.318,0,0,0-1.866-5.364,6.016,6.016,0,0,1-1.629-4.117,14.614,14.614,0,0,1,.187-3.538,9.75,9.75,0,0,0-2.356-8.355,9.665,9.665,0,0,1-2.114-5.529c-.053-.414-.084-.832-.133-1.247-.371-3.183-.672-6.383-2.511-9.167-.14-.213-.295-.6-.2-.755,1.01-1.647-.168-2.686-1.123-3.609a28.912,28.912,0,0,0-7.806-5.54,3.481,3.481,0,0,1-1.878-1.786,7.018,7.018,0,0,0-5.018-4.016,86.07,86.07,0,0,1-13.6-4.675,8.087,8.087,0,0,0-6.857.087,16.376,16.376,0,0,1-2.344.872,1.781,1.781,0,0,1-2.05-.651,1.659,1.659,0,0,1,.154-2.127,10.846,10.846,0,0,1,1.526-1.393c1.008-.876.968-1.74-.262-2.208a4.457,4.457,0,0,0-2.615-.305,45.643,45.643,0,0,0-5.611,2.173,1.235,1.235,0,0,1-1.54-.125,71.417,71.417,0,0,0-6.224-3.755c-.265-.147-.94.158-1.234.447a1.246,1.246,0,0,0-.066,1.106,14.209,14.209,0,0,0,.928,1.374,3.228,3.228,0,0,1,0,3.372,2.812,2.812,0,0,1-2.93,1.585c-1.033-.1-2.042-.425-3.074-.559a16.444,16.444,0,0,0-4.323-.369,21.323,21.323,0,0,0-10.192,3.989,2.8,2.8,0,0,1-2.286.671,9.825,9.825,0,0,0-6.063,1.134,5.128,5.128,0,0,0-3.093,3.692,7.055,7.055,0,0,1-.7,1.734c-.246.522-.59.722-1.139.3-2.818-2.162-6.04-1.722-9.233-1.376a1.717,1.717,0,0,0-1.679,1.344c-.124.813.639,1.133,1.254,1.479,1.088.614,2.17,1.239,3.227,1.9a5.374,5.374,0,0,1,.852.841,4,4,0,0,1-1.061.486,7.316,7.316,0,0,0-4.435,2.548,9.939,9.939,0,0,0-2.5,5.195,4.214,4.214,0,0,1-2.645,3.484,23.435,23.435,0,0,0-2.221,1.152,5.57,5.57,0,0,0-3.052,4.907,16.83,16.83,0,0,0,.128,3.126c.337,2.468.4,2.521-1.831,3.819-2.966,1.723-4.645,4.124-4.427,7.661.054.885-.208,1.951.874,2.356,1.021.382,1.426-.587,1.98-1.181.5-.538,1.118-.941,1.828-.48.736.477.5,1.139.232,1.851a27.67,27.67,0,0,0-1.321,4.157,25.4,25.4,0,0,0,2.073,15.894,17.98,17.98,0,0,1,1.664,6.645c.038.832.163,1.644-1.117,1.8a.983.983,0,0,0-.684,1.608,19.5,19.5,0,0,0,2.727,3.644,2.36,2.36,0,0,1,.882,2.312c-.5,3.654-.79,7.343-1.461,10.964a18.956,18.956,0,0,0,.73,9.661,8.559,8.559,0,0,0,3.25,4.715,3.41,3.41,0,0,1,1.548,2.592,11.828,11.828,0,0,0,.351,1.845,5.933,5.933,0,0,0,6.32,4.661,4.056,4.056,0,0,1,2.112.6c2.674,1.318,5.308,2.77,8.4,2.937,1.316.071,2.625.294,3.937.447-.037,1.344-.114,2.688-.1,4.032a3.5,3.5,0,0,1-1.8,3.494c-.666.365-1.061,1.047-.4,1.724.573.588.323,1.094.167,1.71-.361,1.427-.873,3.092.036,4.263,1.208,1.557,1.037,3.22,1.234,4.909a13.706,13.706,0,0,0,.612,2.637,1.509,1.509,0,0,1-.367,1.69c-3.227,3.509-3.976,7.864-4.109,12.4a1.9,1.9,0,0,0,.533,1.455c.709.447.7.882.491,1.556a10.563,10.563,0,0,0-.406,2.044c-.44,4.223,1.519,7.456,5.41,8.848a19.832,19.832,0,0,0,8.864,1,14.594,14.594,0,0,1,7.273.61c2.416.694,4.871,1.251,7.382.432a33.562,33.562,0,0,0,3.735-1.333,5.76,5.76,0,0,1,3.85-.319,18.216,18.216,0,0,0,7.254.184c9.378-1.7,13.912-10.139,10.914-17.988-.322-.844-.578-1.713-.891-2.561-.3-.817-.928-1.655.483-2.139.168-.058.279-.965.085-1.267a12.124,12.124,0,0,0-1.757-2.052c-.579-.569-1.249-1.044-1.879-1.56a7.381,7.381,0,0,1-.285-1.116c-.081-.821-.442-1.212-1.23-.777-1.05.579-1.712-.145-2.42-.651-1.918-1.371-3.812-2.774-5.705-4.179a3.2,3.2,0,0,1-.5-.609,6.968,6.968,0,0,1,.731-.181c5-.7,10.021-1.269,14.994-2.117a108.607,108.607,0,0,0,23.407-6.979,8.528,8.528,0,0,0,1.535-.626c1.938-1.311,3.588-.634,5.363.472a148.83,148.83,0,0,1,18.083,12.956,7.931,7.931,0,0,0,2.234.929C277.611,262.276,277.541,260.651,277.432,259.166Zm-64.618,4.609a7.781,7.781,0,0,0,2.36,2c1.789.626,2.828,2.127,4.271,3.132a1.069,1.069,0,0,1,.308.981c-.432.956-.024,1.672.331,2.541a32.92,32.92,0,0,1,2.284,6.654c.546,3.148-.715,8.207-4.831,10.532a17.215,17.215,0,0,1-8.092,2.178c-1.154-.18-2.67-.361-4.16-.668a5.962,5.962,0,0,0-3.823.437,19.408,19.408,0,0,1-5.112,1.67,12.044,12.044,0,0,1-7.4-1.588,4.047,4.047,0,0,0-3.906-.328c-3.35,1.43-6.7.713-9.915-.434-3.082-1.1-4.319-3.782-3.583-7.026.321-1.415.74-2.81,1-4.235.189-1.02.338-2.084-.951-2.686a1.384,1.384,0,0,1-.513-1.18A17.6,17.6,0,0,1,179.5,263.21a31.156,31.156,0,0,1,15.528-4.713,32.161,32.161,0,0,1,10.038.98A17.831,17.831,0,0,1,212.813,263.775Zm-37.145-3.9c1.436,0,2.872,0,4.309,0a2.052,2.052,0,0,1,.4.081,1.87,1.87,0,0,1-.3.406c-1.453,1.156-2.916,2.3-4.372,3.451-.407.322-.775.374-.886-.23a25.748,25.748,0,0,1-.4-2.849C174.358,259.795,174.748,259.483,175.668,259.871Zm79.93-21.957a103.508,103.508,0,0,1-22.762,9.533,66.906,66.906,0,0,1-12.385,2.475c-3.237.314-6.458.784-9.693,1.118-1.174.121-2.373-.008-3.553.072-9.323.634-18.656.487-27.988.368-1.59-.021-3.178-.238-4.762-.4-.1-.011-.3-.443-.237-.529,1.419-2.015,1.224-4.342,1.285-6.607.03-1.07.279-1.743,1.486-2.086,3.525-1,6.166-5.242,6.042-8.625q-.176-.245-.354-.489c-1.307-.1-1.827.584-2.05,1.811a6.329,6.329,0,0,1-3.543,4.863,8.317,8.317,0,0,1-5.054.784,29.1,29.1,0,0,1-7.784-2.1,4.476,4.476,0,0,1-1.268-.7,6.4,6.4,0,0,0-4.553-1.7,3.433,3.433,0,0,1-3.316-2.653,5.889,5.889,0,0,1-.41-1.6,4.573,4.573,0,0,0-1.6-3.05,25.292,25.292,0,0,1-2.565-3,9.18,9.18,0,0,1-1.453-6.67c.62-5.15,1.557-10.28,1.426-15.515a3.4,3.4,0,0,0-1.63-3.108c-1.589-1.059-1.622-1.158-.793-2.793,1-1.969.361-3.951.077-5.885a17.084,17.084,0,0,0-1.393-4.113,25.9,25.9,0,0,1-2.446-9.605,18.819,18.819,0,0,1,1.621-8.916,3.071,3.071,0,0,0,.153-3.123c-.782-1.427-1.723-2.274-3.464-2.066-.913.109-1.367-.493-.893-1.209A11.563,11.563,0,0,1,144,160.013a24.989,24.989,0,0,1,2.3-1.413c1.479-.978,1.641-1.681,1.4-3.511-.222-1.687-.772-3.379-.182-5.121a3.119,3.119,0,0,1,1.606-2.05c1-.477,1.938-1.083,2.929-1.584a6.025,6.025,0,0,0,3.038-4.018,23.465,23.465,0,0,1,1.561-4.025,5,5,0,0,1,5.189-2.743c.817.051,1.789.335,2.245-.612a2.324,2.324,0,0,0-.453-2.7c-.683-.773-1.264-1.634-1.89-2.458l-.3-.236.414.121a4.345,4.345,0,0,1,4,1.759c.869,1.079,1.232,1.054,2.205.108a7.6,7.6,0,0,0,2.538-4.2,2.857,2.857,0,0,1,1.782-2.148,8.709,8.709,0,0,1,5.055-.906,4.959,4.959,0,0,0,3.818-1.219,18.491,18.491,0,0,1,4.2-2.208c2.945-1.172,5.964-1.8,9.131-.76,4.576,1.5,8.018-.616,8.607-5.252.07-.552.336-.453.691-.277a3.019,3.019,0,0,1,1.852,2.082c.38,1.641.938,1.789,2.168.58a11.72,11.72,0,0,1,4.933-2.551c.433-.139.887-.1.57.588-.087.189-.16.385-.238.579-1.169,2.883.778,4.294,2.759,4.708a6.416,6.416,0,0,0,4.226-.452,6.626,6.626,0,0,1,5.981-.041,88.773,88.773,0,0,0,13.93,4.782,4.221,4.221,0,0,1,3.121,2.75,4.971,4.971,0,0,0,2.86,2.732,55.152,55.152,0,0,1,6.581,4.351,1.074,1.074,0,0,1,.194,1.021,1.564,1.564,0,0,0,.3,1.9c2.419,3.1,2.974,6.762,3.329,10.535.238,2.525.523,5.06,2.521,7.063,2.211,2.217,2.426,5.1,1.939,8a10.655,10.655,0,0,0,1.705,7.9,12.224,12.224,0,0,1,1,1.574,5.037,5.037,0,0,1,.215,1.328c-.388,0-.78.029-1.165-.008-1.135-.113-1.9.624-1.6,1.714,1.009,3.732,2.495,7.069,5.754,9.6a20.612,20.612,0,0,1,7.564,13.043,47.3,47.3,0,0,1,.755,5.337,8.27,8.27,0,0,1-.991,4.817,25.789,25.789,0,0,1-2.762,4.393,59.708,59.708,0,0,0-4.51,6.1,7.282,7.282,0,0,1-8.083,2.912c-1.888-.427-3.784-.819-5.676-1.232a3.791,3.791,0,0,1-3.053-2.2,1.242,1.242,0,0,0-1.858-.7c-.751.521-.563,1.183-.179,1.833a7.2,7.2,0,0,0,4.832,3.362c3.164.693,6.3,1.749,9.635,1.326a1.234,1.234,0,0,1,1,.476c.767,1.315,1.4,2.709,2.165,4.026.536.923.206,1.492-.469,2.157A46.4,46.4,0,0,1,255.6,237.913Zm18.793,20.055a4.106,4.106,0,0,1-.14.6,2.64,2.64,0,0,1-.737-.261c-2.176-1.611-4.286-3.317-6.515-4.849-3.376-2.319-6.817-4.544-10.268-6.75-.706-.451-.435-.522.058-.8a63.218,63.218,0,0,0,12.014-8.239c.542-.5.751-.287.994.333a77.293,77.293,0,0,1,3.705,13.181c.391,1.965.658,3.956.981,5.935l-.087.018C274.4,257.411,274.415,257.691,274.392,257.968Z" stroke="#000" stroke-miterlimit="10" stroke-width="1"/>
          <path id="Path_801" data-name="Path 801" d="M192.512,251.667l-.465-.374c-1.047-1.108-2.056-2.254-3.153-3.312a8.145,8.145,0,0,1-2.356-3.856,6.059,6.059,0,0,0-1.71-2.752,18.1,18.1,0,0,1-4.993-10.726,16.141,16.141,0,0,1,.674-7.135,1.974,1.974,0,0,0-.423-2.259,4.441,4.441,0,0,1-1.1-3.238c-.393-5.2,2.06-9.222,5.2-12.982.37-.443.794-.8,1.429-.372s.443.958.128,1.442c-.681,1.047-1.411,2.06-2.1,3.1a15.718,15.718,0,0,0-2.538,8.663,2.613,2.613,0,0,0,1.153,2.514c1.246.747,1.156,1.723.707,2.858a14.532,14.532,0,0,0-1.011,6.525,14.686,14.686,0,0,0,3.567,9.143,13.769,13.769,0,0,1,3.313,5.576.611.611,0,0,0,.1.185c2.107,2.8,4.4,5.405,7.831,6.6,1.3.454,2.715.571,4.02,1.011a23.319,23.319,0,0,1,3.175,1.5c.594.306,1.047.6,1.478-.281.4-.827,1.095-.612,1.773-.209.65.385,1.36.666,2.026,1.025.942.507,1.615.593,2.069-.683.32-.9,1.423-1.056,1.748-.274.956,2.293,3.123,2.178,4.9,2.506a25.027,25.027,0,0,0,16.917-2.688,16.262,16.262,0,0,0,5.938-5.105c1.01-1.492,2.151-2.894,3.182-4.371a13.221,13.221,0,0,0,1.631-4.894c.322-1.423.9-1.638,2.238-.986a5.934,5.934,0,0,1,2.393,2.8c.427.76.776.649,1.149-.008a13.076,13.076,0,0,0,1.717-8.417c-.036-.269-.307-.589-.224-.777a3.344,3.344,0,0,1,.883-1.275c.147-.117.678.246,1.031.4.058.026.094.1.143.15,1.561,1.545,1.543,1.537,2.434-.6a52.989,52.989,0,0,0,2.42-5.739c.989-3.491.384-6.993-.354-10.494a23.612,23.612,0,0,0-6.585-11.6,2.738,2.738,0,0,0-.966-.773,3.369,3.369,0,0,1-2.406-3.161,7.436,7.436,0,0,0-4.255-6.034c-.621-.292-1.143-.69-.777-1.436.415-.847,1.082-.64,1.77-.28a11.079,11.079,0,0,1,5.638,7.365,2.658,2.658,0,0,0,.7,1.37,24.5,24.5,0,0,1,9.378,15.459,35.972,35.972,0,0,1,.324,8.729,12.24,12.24,0,0,1-1.066,3.557c-1.038,2.637-2.58,5.068-3.118,7.912a1.058,1.058,0,0,1-1.641.731c-.971-.525-1.093.073-1.176.715a12.153,12.153,0,0,1-2.478,5.876,9.54,9.54,0,0,1-1.766,1.723c-.932.721-1.413.625-1.95-.393-.384-.73-.585-1.555-.932-2.307-.131-.285-.447-.486-.678-.725a6.3,6.3,0,0,1-.231.75,30.155,30.155,0,0,1-1.984,4.312c-2.125,3.259-4.429,6.384-7.777,8.566a24.9,24.9,0,0,1-9.376,3.764,31.361,31.361,0,0,1-10.568.1,12.851,12.851,0,0,0-2.828-.03,9.987,9.987,0,0,1-5.621-1.22c-.629-.351-1.149-.131-1.112.642.043.868-.595,1.072-1.143,1.261-.744.256-1.06-.345-1.441-.886a7.988,7.988,0,0,0-4.348-2.979C198.148,253.952,195.1,253.416,192.512,251.667Z" transform="translate(-9.312 -18.607)"/>
          <path id="Path_802" data-name="Path 802" d="M236.337,226.9a3.507,3.507,0,0,1-1.948,3.767,5.257,5.257,0,0,1-4.768-1.265c-.3-.378-.525-.816-.8-1.214a2.525,2.525,0,0,0-4.514.177,3.018,3.018,0,0,1-5.107-.213,8.214,8.214,0,0,1,1.992-9.826,20.287,20.287,0,0,1,6.706-3.694,14.854,14.854,0,0,1,8.38-.516,8.045,8.045,0,0,1,6.169,7.229,5.432,5.432,0,0,1-.271,1.821,1.632,1.632,0,0,1-2.444,1.068c-.252-.111-.456-.338-.712-.43a1.9,1.9,0,0,0-2.729,1.846A11.976,11.976,0,0,0,236.337,226.9Zm-7.258-5.444c2.172-.176,3.846-.506,5.1-1.911,1.391-1.558,1.181-2.8-.764-3.475a7.264,7.264,0,0,0-7.025,1.362,1.83,1.83,0,0,0,.342,3.229A15.154,15.154,0,0,0,229.078,221.459Z" transform="translate(-18.477 -24.063)"/>
          <path id="Path_803" data-name="Path 803" d="M207.289,190.334c-2.954-2.94-6.112-4.971-10.705-4.171-3.659.637-7.308,5.38-7.684,8.2-.091.684-.408,1.7.645,1.931s1.116-.78,1.385-1.462c.405-1.025.813-2.049,1.231-3.069a1.383,1.383,0,0,1,.255-.313,2.487,2.487,0,0,1,.291.425,17.3,17.3,0,0,0,.7,1.724,5.254,5.254,0,0,0,5.08,2.592c2.2-.487,3.89-1.343,4.4-3.843a10.268,10.268,0,0,0-.3-3.036l-.183-.431.44.179a3.271,3.271,0,0,1,2.4,1.81c.229.342.3.83.6,1.077.319.269.908.56,1.2.432a1.713,1.713,0,0,0,.661-1.151A1.241,1.241,0,0,0,207.289,190.334Zm-7.7-.173a.757.757,0,0,1-.849.143.628.628,0,0,1-.371-.2l-.012-.015a.968.968,0,0,1-.14-.216c-.014-.021-.032-.038-.045-.062a.951.951,0,0,1,.122-1.078.845.845,0,0,1,.83-.216l.011,0c.519-.158,1.163.393.944.944l0,.005c.025.023.048.046.074.069-.058.028-.1.055-.156.084A1.829,1.829,0,0,1,199.593,190.161Z" transform="translate(-11.601 -17.611)"/>
          <path id="Path_804" data-name="Path 804" d="M255.748,179.007a3.751,3.751,0,0,0-.872-1.147,13.186,13.186,0,0,0-6.113-3.416,9.667,9.667,0,0,0-11.073,4.862c-.764,1.471-1.4,3.011-2.067,4.531-.385.876-.2,1.508.439,1.71s1.19-.275,1.37-1.186c.04-.2-.033-.431.026-.623a12.922,12.922,0,0,1,2.406-5.015,3.18,3.18,0,0,1,.668-.446c.059.235.124.469.175.706a9.668,9.668,0,0,0,.581,2.585,4.892,4.892,0,0,0,6.01,1.894,4.97,4.97,0,0,0,3.23-5.005,1.306,1.306,0,0,1-.1-.4,7.813,7.813,0,0,1,.137-.781c.253.075.575.078.749.239.908.839,1.744,1.758,2.68,2.561a1.565,1.565,0,0,0,1.25.332A.964.964,0,0,0,255.748,179.007Zm-8.34-1.222a.759.759,0,0,1-.19.39.751.751,0,0,1-.885.122.706.706,0,0,1-.54-.35.78.78,0,0,1-.084-.421.831.831,0,0,1,.077-.638.944.944,0,0,1,.737-.457l.014-.015.007.013a1.058,1.058,0,0,1,.12-.012.919.919,0,0,1,.886.665A.81.81,0,0,1,247.408,177.785Z" transform="translate(-22.453 -14.855)"/>
          <path id="Path_805" data-name="Path 805" d="M202.482,165.9c-3.225.362-5.233,1.6-6.184,4.24a3.759,3.759,0,0,0-.23.79c-.1.785.539,1.891,1.073,1.728a2.648,2.648,0,0,0,1.27-1.169c.307-.507.308-1.195.591-1.725.163-.3.619-.453.944-.672.089.311.2.617.262.932a20.3,20.3,0,0,0,.383,2.024c.42,1.347,1.424,1.73,2.267.687,1.745-2.158,4.035-2.154,6.421-2.054.277.012.586.134.822.047.345-.127.828-.346.9-.62a1.124,1.124,0,0,0-.419-1.01,4.865,4.865,0,0,0-2.521-.7c-1.6.331-3.392-.167-4.817,1-.073.059-.33.035-.354-.017a.77.77,0,0,1-.1-.539c.144-.309.43-.555.563-.867.2-.465.819-.954.2-1.468A4.378,4.378,0,0,0,202.482,165.9Z" transform="translate(-57.234 40.196) rotate(-13)"/>
          <path id="Path_806" data-name="Path 806" d="M241.028,246.884a6.257,6.257,0,0,1-.277,5.75c-1.876,3.432-6.52,2.573-7.955.156a18.782,18.782,0,0,1-1.247-3.447,22.152,22.152,0,0,0,6.654-1.219C239.164,247.763,240.088,247.3,241.028,246.884Z" transform="translate(-21.552 -31.779)" fill="#da291c"/>
          <path id="Path_807" data-name="Path 807" d="M237.03,164.784a15.478,15.478,0,0,0,.847-1.38c.371-.763.545-.315.7.1a14.214,14.214,0,0,0,.68,1.954,1.529,1.529,0,0,0,1.042.72.871.871,0,0,0,.925-1.11,18.612,18.612,0,0,0-1.2-3.958c-.582-1.194-1.107-1.5-2.306-.608-.958.714-1.322.507-1.88-.364-1.425-2.226-3.883-2.5-6.161-3.02-.354-.08-1.014.386-1.247.771a.971.971,0,0,0,.551,1.384,5.306,5.306,0,0,0,1.783.527,4.876,4.876,0,0,1,4.051,2.871,8.021,8.021,0,0,0,.945,1.361A6.375,6.375,0,0,0,237.03,164.784Z" transform="matrix(0.848, -0.53, 0.53, 0.848, -63.776, 135.079)"/>
          <path id="Path_808" data-name="Path 808" d="M162.039,193.29c.341.246.756.414.935.721.116.2-.065.622-.2.9a16.8,16.8,0,0,0-.862,1.633,2.711,2.711,0,0,0-.012,1.329c.1.534.4,1.031.493,1.565.251,1.441.562,2.8,1.917,3.7a3.313,3.313,0,0,1,.885,1.374.925.925,0,0,1-.533,1.36,1.932,1.932,0,0,1-1.305-.215c-.267-.134-.375-.564-.585-.837-.376-.489-.8-.81-1.352-.209-.462.5-1.078.557-1.429.058-.306-.437-.591-1.324-.366-1.626,1.14-1.531.674-2.986.125-4.52a4.967,4.967,0,0,1,1.322-4.708A6.692,6.692,0,0,1,162.039,193.29Z" transform="translate(-4.798 -19.31)"/>
          <path id="Path_809" data-name="Path 809" d="M285.305,191.425c.93-2.268-.655-3.75-1.669-5.388-.334-.54-.549-.961-.054-1.463.595-.6,1.155-.353,1.611.161a10.6,10.6,0,0,1,1.226,1.66c.48.826.754,1.753,1.778,2.189a.983.983,0,0,1,.378,1.588c-1.368,1.331-.448,2.544.017,3.79a8.534,8.534,0,0,0,.635,1.07c.519.93.5,1.786-.071,2.023-.9.371-1.479-.183-1.889-.862a19.8,19.8,0,0,1-1.329-2.585A18.608,18.608,0,0,1,285.305,191.425Z" transform="translate(-33.59 -17.2)"/>
          <path id="Path_810" data-name="Path 810" d="M239.894,244.551c-.94.416-1.864.879-2.825,1.24a22.152,22.152,0,0,1-6.654,1.219c-1.153-.412-2.31-.812-3.452-1.251a.606.606,0,0,1-.288-.477c0-.1.265-.266.427-.289a2.589,2.589,0,0,1,.831.035c7.158,1.377,12.518-1.434,16.641-7.134.2-.28.348-.652.621-.816a3.227,3.227,0,0,1,1.06-.221c.042.364.26.865.1,1.069a53.426,53.426,0,0,1-3.468,4.1A35.951,35.951,0,0,1,239.894,244.551Z" transform="translate(-20.418 -29.446)" fill="#281b1a"/>
          <path id="Path_811" data-name="Path 811" d="M231.272,222.052c2.172-.176,3.846-.506,5.1-1.911,1.391-1.558,1.181-2.8-.764-3.475a7.264,7.264,0,0,0-7.025,1.362,1.83,1.83,0,0,0,.342,3.229A15.154,15.154,0,0,0,231.272,222.052Z" transform="translate(-20.671 -24.657)" fill="#fff"/>
          <path id="Path_812" data-name="Path 812" d="M318.565,307.046a1.92,1.92,0,0,0-3.7,1.02,53.728,53.728,0,0,1,1.876,16.588c-.1,2.469,3.735,2.465,3.837,0A57.23,57.23,0,0,0,318.565,307.046Z" transform="translate(-40.919 -45.462)" fill="#070606"/>
        </g>
        <path id="Path_414" data-name="Path 414" d="M2.086,0H55.892L55.2,5.093H3.129c-.91,0-.646-1.816-.646-2.619Z" transform="translate(133.284 453.907)" fill="rgba(0,0,0,0.07)"/>
      </g>
    </g>
    <text id="Manage_Your_Stay_with_Us." data-name="Manage Your 
Stay with Us." transform="translate(187.5 528)" fill="#fff" font-size="34" font-family="Raleway-Bold, Raleway" font-weight="700"><tspan x="-109.565" y="0">Manage Your </tspan><tspan x="-103.19" y="38">Stay with Us.</tspan></text>
    <ellipse id="Ellipse_69" data-name="Ellipse 69" cx="72.77" cy="55.706" rx="72.77" ry="55.706" transform="translate(202.623 282.499)" fill="#fff" stroke="#000" stroke-width="3"/>
    <path id="Path_1127" data-name="Path 1127" d="M936.622,906.744c-5.428,11.944-23.69,17.8-23.69,17.8s28.276,8.655,51.736-2.535" transform="translate(-719 -533.176)" fill="#fff" stroke="#000" stroke-width="3"/>
    <path id="Path_1124" data-name="Path 1124" d="M26.392,8.316a6.41,6.41,0,0,0-1.059-2.824,3.678,3.678,0,0,0-2.671-1.2C18.931,4,13.335,4,13.335,4h-.013S7.727,4,4,4.289a3.679,3.679,0,0,0-2.671,1.2A6.421,6.421,0,0,0,.267,8.316,45.806,45.806,0,0,0,0,12.917v2.157a45.79,45.79,0,0,0,.267,4.6A6.4,6.4,0,0,0,1.326,22.5a4.359,4.359,0,0,0,2.939,1.216c2.132.218,9.064.286,9.064.286s5.6-.01,9.332-.3A3.693,3.693,0,0,0,25.333,22.5a6.408,6.408,0,0,0,1.059-2.822,45.812,45.812,0,0,0,.267-4.6V12.918A45.812,45.812,0,0,0,26.392,8.316Z" transform="translate(215 325)" fill="#e02f2f"/>
    <path id="Path_1125" data-name="Path 1125" d="M12,10V20l10-5Z" transform="translate(212.09 324)" fill="#fff"/>
    <text id="Welcome_" data-name="Welcome…" transform="translate(250 345)" fill="#0078d7" font-size="17" font-family="Raleway"><tspan x="0" y="0">Welcome…</tspan></text>
  </g>
</svg>
