<svg xmlns="http://www.w3.org/2000/svg" width="103.979" height="110" viewBox="0 0 103.979 110">
  <g id="Group_285" data-name="Group 285" transform="translate(-900.252 -845.654)">
    <path id="Path_903" data-name="Path 903" d="M1010.435,954.875a10.79,10.79,0,0,1,.307,4.642,3.4,3.4,0,0,1-.678,1.757c-2.085,2.659-4.131,5.349-6.376,8.276-3.931,5.126-8.1,10.462-12.711,15.434-.125.135-.255.268-.369.413a2.978,2.978,0,0,1-2.406,1.1c-10.516.472-21.031.386-31.547.038-.637-.021-1.271-.16-1.905-.245.692-1.2,1.471-2.353,2.061-3.6a12.381,12.381,0,0,0-7.395-17.073,17.4,17.4,0,0,0-15.851,2.22c-.759.509-1.489,1.06-2.219,1.581-.609-.3-1.12-.519-1.593-.8q-6.077-3.6-12.138-7.229a11.293,11.293,0,0,1-1.088-.839c.6-.69,1.185-1.4,1.815-2.067q9.384-9.912,18.79-19.8c1.835-1.924,3.756-3.767,5.637-5.646,5.163-.886,9.125.977,10.879,5.4a17.537,17.537,0,0,1,.677,11.41c-.4,1.414-.93,2.788-1.448,4.319a15.468,15.468,0,0,0,1.565,1.009q9.455,4.64,18.932,9.237c1.078.521,2.226.9,3.332,1.362a2.035,2.035,0,0,0,2.321-.381,24.108,24.108,0,0,0,3.04-3.2c4.053-5.621,8.148-11.219,11.991-16.983,5.228-7.842,10.235-15.83,15.35-23.747.444-.687.991-1.308,1.49-1.961.014,2.661.04,5.321.038,7.982,0,2.113-.084,4.228-.056,6.341.045,3.4.186,6.8.214,10.2a19.883,19.883,0,0,0-.318,3.273,17.021,17.021,0,0,0-1.509,1.6c-3.594,4.923-7.19,9.847-10.732,14.807-5.152,7.214-10.336,14.406-15.9,21.311a5.211,5.211,0,0,0-.528,1.138,2.687,2.687,0,0,0,.7.2c4.9-.4,3.8.672,7.035-3.657,5.081-6.809,10.061-13.694,15.1-20.535C1006.749,959.716,1008.6,957.3,1010.435,954.875Z" transform="translate(-6.87 -31.173)" fill="#638dc9"/>
    <path id="Path_904" data-name="Path 904" d="M909.658,929.384a11.313,11.313,0,0,0,1.088.839q6.06,3.629,12.138,7.229c.473.28.984.5,1.593.8.729-.521,1.46-1.072,2.219-1.581a17.4,17.4,0,0,1,15.851-2.22,12.381,12.381,0,0,1,7.395,17.073c-.589,1.245-1.368,2.4-2.061,3.6-1.552.559-3.066-.194-4.889-.024.374-.623.614-1.047.877-1.455a12.656,12.656,0,0,0,2.391-7.444,6.427,6.427,0,0,0-1.308-4.094,4.157,4.157,0,0,0-.364-.74c-2.483-3.247-6.277-4.391-10.672-3.271a16.429,16.429,0,0,0-7.086,4.143c-.863.8-1.594,1.831-3.114,2.009-.99-.492-2.184-.981-3.272-1.645-3.3-2.016-6.558-4.113-9.848-6.152-1.482-.918-3-1.773-4.506-2.656-1.125-.8-2.255-1.59-3.374-2.4a13.08,13.08,0,0,1-1.749-1.344,2.271,2.271,0,0,1-.25-3.034,24.856,24.856,0,0,1,1.677-2.2A122.167,122.167,0,0,0,913.251,909.1c.185-.31.322-.648.514-1.04a8.632,8.632,0,0,0-.915-.663c-2.842-1.536-5.7-3.034-8.529-4.6a9.436,9.436,0,0,1-1.946-1.507,1.556,1.556,0,0,1-.182-2.038c.28-.477.611-.924.916-1.387q9.143-13.887,18.288-27.773c3.562-5.4,7.125-10.793,10.745-16.151,1.342-1.988,2.876-3.846,4.265-5.8.969-1.365,1.613-2.451,1.613-2.451.536.01,3.985-.083,5.4,0-.263.741-1.237,2.229-1.455,2.7-1.846,3.262-3.826,5.785-5.907,8.955q-10.263,15.639-20.517,31.284-3.037,4.636-6.042,9.292c-.4.615-.741,1.265-1.127,1.928.217.246.351.52.568.625q6.35,3.075,12.719,6.112c.411.2.834.369,1.142.5.729-.049.8-.591,1.013-.959a16.953,16.953,0,0,1,13.463-8.652A14.2,14.2,0,0,1,953.04,909.5a16.823,16.823,0,0,1-.96,9.246c-.27.677-.515,1.363-.822,2.179l19.755,9.619c.281-.424.555-.785.775-1.175,6.542-11.595,13.834-22.716,21.246-33.764,3.088-4.6,6.083-9.266,9.121-13.9.543-.829.928-1.824,2.077-2.091-.007,1.389-.007,6.853-.2,8.715-.5.652-1.045,1.274-1.49,1.961-5.115,7.917-10.123,15.905-15.35,23.747-3.842,5.764-7.938,11.362-11.991,16.983a24.105,24.105,0,0,1-3.04,3.2,2.035,2.035,0,0,1-2.321.381c-1.106-.466-2.254-.841-3.332-1.362q-9.48-4.588-18.932-9.237a15.468,15.468,0,0,1-1.565-1.009c.518-1.53,1.052-2.905,1.448-4.319a17.537,17.537,0,0,0-.677-11.41c-1.754-4.423-5.716-6.286-10.878-5.4a4.656,4.656,0,0,0-1.616.16,30.715,30.715,0,0,0-4.8,2.684,23.682,23.682,0,0,0-5.752,5.909,11.87,11.87,0,0,1-1.1,1.252l-4.133-1.716a37.926,37.926,0,0,0-4.356,5.807c-1.333,1.876-2.665,3.753-3.945,5.665-1.307,1.951-2.919,3.713-3.9,5.872.929.692,1.713,1.312,2.541,1.864C909.041,929.49,909.385,929.383,909.658,929.384Z"/>
    <path id="Path_905" data-name="Path 905" d="M909.6,998.171c1.5.884,3.024,1.738,4.506,2.656,3.29,2.039,6.545,4.135,9.848,6.152,1.088.664,2.282,1.153,3.272,1.645,1.52-.179,2.251-1.211,3.114-2.009a16.428,16.428,0,0,1,7.085-4.143c4.4-1.12,8.189.024,10.672,3.271a4.157,4.157,0,0,1,.364.74,19.859,19.859,0,0,0-6.359,2.564,63.492,63.492,0,0,0-10.586,7.454,2.521,2.521,0,0,1-3.034.469c-.5-.235-1.024-.421-1.505-.686a81.377,81.377,0,0,1-16.243-11.346,10.7,10.7,0,0,1-.775-.786C908.207,1002.164,908.118,1000.647,909.6,998.171Z" transform="translate(-3.507 -64.38)" fill="#638dc9"/>
    <path id="Path_906" data-name="Path 906" d="M1058.336,975.18c-1.832,2.429-3.686,4.84-5.491,7.289-5.04,6.84-10.02,13.725-15.1,20.535-3.231,4.33-2.133,3.258-7.035,3.657a2.684,2.684,0,0,1-.7-.2,5.206,5.206,0,0,1,.528-1.138c5.567-6.905,10.75-14.1,15.9-21.311,3.542-4.961,7.137-9.884,10.732-14.807a17.037,17.037,0,0,1,1.509-1.6A34.951,34.951,0,0,1,1058.336,975.18Z" transform="translate(-54.771 -51.477)" fill="#101010"/>
    <path id="Path_907" data-name="Path 907" d="M1030.159,857.786q.028.442.057.885l-.821-.171Z" transform="translate(-54.512 -5.121)" fill="#fff"/>
    <path id="Path_908" data-name="Path 908" d="M984.3,880.244l-5.661,8.518,22.1,14.689-3.416,5.141-22.1-14.689-5.662,8.518-4.54-3.017,14.739-22.178Z" transform="translate(-27.34 -13.327)" fill="#999"/>
    <path id="Path_909" data-name="Path 909" d="M997.456,871.137l-4.991-3.317,3.342-5.028,4.991,3.317Zm22.4,14.889L1000.2,872.958l3.342-5.028L1023.2,881Z" transform="translate(-38.924 -7.234)" fill="#999"/>
    <path id="Path_910" data-name="Path 910" d="M1028.387,863.949a12.844,12.844,0,0,1-3.428-3.306,11.406,11.406,0,0,1-1.856-4.209,12.074,12.074,0,0,1-.044-4.736,12.966,12.966,0,0,1,2.042-4.864q.4-.6.818-1.128l8.8,0-.444,1.485a5.317,5.317,0,0,0-2.792.579,5.675,5.675,0,0,0-2.128,1.94,5.755,5.755,0,0,0-.915,2.313,5.984,5.984,0,0,0,.116,2.43,6.684,6.684,0,0,0,1.134,2.323,8.422,8.422,0,0,0,2.14,1.99,8.049,8.049,0,0,0,2.676,1.183,7.255,7.255,0,0,0,2.613.14,5.818,5.818,0,0,0,2.3-.822,5.641,5.641,0,0,0,1.753-1.7,5.785,5.785,0,0,0,.983-2.944,4.558,4.558,0,0,0-.591-2.692l4.769-3.919a9.929,9.929,0,0,1,1.458,5.784,12.6,12.6,0,0,1-2.29,6.539,12.963,12.963,0,0,1-3.694,3.767,11.741,11.741,0,0,1-9.051,1.694A12.611,12.611,0,0,1,1028.387,863.949Z" transform="translate(-51.749 -0.022)" fill="#999"/>
  </g>
</svg>
