<svg xmlns="http://www.w3.org/2000/svg" width="192.666" height="101.37" viewBox="0 0 192.666 101.37">
  <g id="Group_287" data-name="Group 287" transform="translate(-740.292 -187.378)">
    <g id="From_selection_Image" data-name="From selection Image" transform="translate(803.159 187.378)">
      <path id="Path_921" data-name="Path 921" d="M895.451,233.062a19.824,19.824,0,0,1,2.839-6.182,51.682,51.682,0,0,1,7.425-9.45,6.6,6.6,0,0,0,.925-1.009c2.246-3.254,5.2-5.851,8.069-8.515,1.539-1.427,3.136-2.8,4.767-4.123a17.189,17.189,0,0,1,2.546-1.611c1.519-.838,3.108-1.555,4.594-2.445a14.776,14.776,0,0,1,5.04-2.078,11.581,11.581,0,0,0,2.272-.911c4.722-.543,9.28.624,13.843,1.45a60.092,60.092,0,0,1,8.711,2.439,72.16,72.16,0,0,1,21.8,11.9,70.166,70.166,0,0,1,13.1,13.915c.954,1.323,2.072,2.529,3.114,3.789a4.489,4.489,0,0,1,.385,1.245q.041,14.992.024,29.984c0,.695.253,1.469-.4,2.051a7.983,7.983,0,0,0-7.188-3.208,41.679,41.679,0,0,0-4.642.49,11.51,11.51,0,0,0-7.25,4.112c-.814,1-2.162,1.864-1.318,3.529.086.169-.137.509-.248.756a9.227,9.227,0,0,0-.639,4.822c-.5,2.29.263,4.288,1.377,6.237a6.883,6.883,0,0,0,3.951,3.187,15.555,15.555,0,0,0,5.443.514,7.772,7.772,0,0,0,7.755-7.314l2.688-3.292a5.04,5.04,0,0,1,.521,1.478c.066,3.286.065,6.573.082,9.86a4.3,4.3,0,0,1-1.918,3.729,20.54,20.54,0,0,1-12.271,4.211c-8.641,0-17.281.1-25.921.138-.822,0-1.644-.08-2.466-.123,1.063-.49,2.122-.988,3.189-1.468a9.329,9.329,0,0,0,3.584-2.817,9.455,9.455,0,0,0,2.067-7.332,1.252,1.252,0,0,0-.421-1.474l.022.061a6.867,6.867,0,0,0-4.831-5.671,12.276,12.276,0,0,0-7.02-.083c-1.855.494-3.591,1.377-4.185,3.484l.04-.022-.534.4a8.969,8.969,0,0,0-3.785,4.95c.358.739.9,1.465.56,2.447a4.922,4.922,0,0,0-.06,1.63,5.062,5.062,0,0,0,2.88,4.626c.8.431,1.623.822,2.436,1.231-.82.057-1.64.168-2.459.161q-10.041-.079-20.081-.2c-6.509-.089-13.018-.185-19.525-.347-2.371-.059-4.738-.318-7.11-.485a13.825,13.825,0,0,0,7.252-3.626,40.254,40.254,0,0,0,2.885-3.29,10.8,10.8,0,0,0,2.353-7.373,6.829,6.829,0,0,0-3.993-6.347,38.351,38.351,0,0,0-4.094-1.544c-.9-.935-2.17-.958-3.306-1.153-6.177-1.062-10.145.842-12.951,5.841a8.005,8.005,0,0,0-.29,8.1c-.023.717-.093,1.435-.06,2.15.143,3.147,2.4,6.733,5.559,7.111a2.5,2.5,0,0,1,.713.339,40.811,40.811,0,0,1-6.85.081,5.193,5.193,0,0,1-.475-1.128c-.289-2.164-.668-4.327-.775-6.5-.228-4.664.434-9.287.8-13.926a80.214,80.214,0,0,1,1.835-12.17c.21-.886.516-1.748.778-2.622q1.1.566,2.2,1.131a12.768,12.768,0,0,0,9.649.819,14.247,14.247,0,0,0,7.294-4.646,13.8,13.8,0,0,0,3.462-7.88,8.863,8.863,0,0,0-2-6.926,13.893,13.893,0,0,0-9.312-4.808C897.087,233.284,896.27,233.16,895.451,233.062Zm73.711,1.457-.224.527c-.247.766-.493,1.531-.716,2.222.612.636,1.23,1.058,1.043,1.947a7.171,7.171,0,0,0-.066,1.639,7.6,7.6,0,0,0,2.85,5.971,8.908,8.908,0,0,0,7.762,1.787,23.161,23.161,0,0,0,5.183-1.784,12.187,12.187,0,0,0,6.931-8.035,7.655,7.655,0,0,0-5.763-9.88c-.885-.227-1.806-.315-2.71-.467-3.044-1.9-6.211-1.806-9.427-.529a7.261,7.261,0,0,0-4.866,6.611Zm-5.48-23,.022.022a1.892,1.892,0,0,0-.538-1.753c-2.061-2.383-4.9-4.043-9.112-2.743a20.6,20.6,0,0,0-6.312,3.265,7.4,7.4,0,0,0-3.143,7.39,31.833,31.833,0,0,0-.962,3.418,8.649,8.649,0,0,0,2.579,7.975c3.968,3.981,9.612,3.267,12.789,1.756.826-.393,1.584-.927,2.414-1.31a11.288,11.288,0,0,0,5.37-5.657,8.818,8.818,0,0,0-.907-9.786c-.5-.655-1.018-1.289-1.528-1.933Zm.632,39.469-.522-.5c-5.127-4.484-12.933-2.243-16.462.672a4.187,4.187,0,0,0-1.616,2.771c.4.514.794.816.888,1.193a4.126,4.126,0,0,1-.122,1.342,8.508,8.508,0,0,0,2.865,7.322c1.1,1.069,2.536,1.393,3.79,2.106a4.724,4.724,0,0,0,3.667,1.553,17.946,17.946,0,0,0,4.9-.451c3.408-.818,5.913-2.694,6.7-6.112a8.986,8.986,0,0,0-2.691-9.235,5.751,5.751,0,0,0-1.439-.695ZM920.93,278.031a7.865,7.865,0,0,0,4.339,4A10.584,10.584,0,0,0,934.542,281a11.651,11.651,0,0,0,5.2-7.173,8.144,8.144,0,0,0-.078-4.6c-1.963-5.729-7.588-8.379-13.494-6.834-.724.09-1.456.141-2.171.276a8.58,8.58,0,0,0-7.1,7.007,5.37,5.37,0,0,0,.046,2.423C917.653,274.46,918.571,276.739,920.93,278.031ZM933.6,234.472a10.758,10.758,0,0,0-10.963,2.981,7.538,7.538,0,0,0-1.852,8.7,11.379,11.379,0,0,0,.775,6.147,8.032,8.032,0,0,0,9.159,4.8,12.234,12.234,0,0,0,6.309-3.11c.714-.7,1.367-1.47,2.068-2.187,2.941-3.01,3.552-6.679,2.929-10.626a7.861,7.861,0,0,0-3.476-5.356A8.376,8.376,0,0,0,933.6,234.472Zm-7.019-24.192c-2.722-2.511-5.868-2.677-9.164-1.491a17.485,17.485,0,0,0-5.617,3.334,8.982,8.982,0,0,0-1.295,1.383c-2.708,3.654-2.349,7.414-.348,11.219q.185.939.369,1.876a7.881,7.881,0,0,0,8.879,6.7,17.056,17.056,0,0,0,11.322-6.075,14.309,14.309,0,0,0,3.257-7.409,7.768,7.768,0,0,0-.19-3.51c-.845-2.846-2.287-5.184-5.61-5.65C927.639,210.581,927.111,210.409,926.577,210.281Z" transform="translate(-865.24 -191.385)" fill="#ffc829"/>
      <path id="Path_923" data-name="Path 923" d="M1036.936,218.625a58.256,58.256,0,0,0-6.767-8.027c-.713-.68-1.233-1.567-1.963-2.224-1.906-1.718-4.3-2.882-5.773-5.092a70.109,70.109,0,0,0-16.125-9.2,60.965,60.965,0,0,0-19.705-4.192,5.747,5.747,0,0,1-.791-.131c1.134-.245,2.258-.544,3.4-.721,1.779-.277,3.591-.37,5.355-.716a44.4,44.4,0,0,1,22.962,1.254c4.952,1.652,9.774,3.71,13.84,7.163a28.02,28.02,0,0,1,4.619,4.913,7.606,7.606,0,0,1,1.546,4.784c-.076,3.515-.015,7.032-.035,10.549C1037.5,217.571,1037.709,218.279,1036.936,218.625Z" transform="translate(-907.941 -187.378)" fill="#ffc829"/>
      <g id="Group_312" data-name="Group 312">
        <path id="Path_922" data-name="Path 922" d="M980.74,228.068c-1.04-1.259-2.155-2.465-3.107-3.788a70.091,70.091,0,0,0-13.068-13.912,71.945,71.945,0,0,0-21.752-11.893,59.854,59.854,0,0,0-8.691-2.438c-4.553-.826-9.1-1.993-13.811-1.449a27.708,27.708,0,0,0-4.923.138,83.671,83.671,0,0,0-11.456,2.838,76.541,76.541,0,0,0-12.668,5.9,66.9,66.9,0,0,0-16.227,13.407,60.363,60.363,0,0,0-8.446,12.116,69.783,69.783,0,0,0-4.963,11.251,59.977,59.977,0,0,0-2.6,12.851,42.99,42.99,0,0,0-.428,4.9,88.653,88.653,0,0,0,.539,9.015,64.393,64.393,0,0,0,5.137,19.515c.417.9.785,1.816,1.219,2.828a7.558,7.558,0,0,1-3.475.5c-1.1.043-2.194.009-3.306.009a15.364,15.364,0,0,1-2.835-5.621,88.842,88.842,0,0,1-3.582-13.191,66.256,66.256,0,0,1-.656-15.55c.379-6.375,2.193-12.39,4.288-18.332a28.429,28.429,0,0,1,3.085-6.4c1.262-1.888,2.1-4.03,3.43-5.9a86.729,86.729,0,0,1,10.067-11.915A74.791,74.791,0,0,1,888.5,201.465a84.693,84.693,0,0,1,14.082-6.1,72.38,72.38,0,0,1,25.164-3.734c.274.005.549-.034.822-.051a5.858,5.858,0,0,0,.8.132,62.124,62.124,0,0,1,20,4.236,71.243,71.243,0,0,1,16.367,9.3c1.5,2.233,3.925,3.409,5.859,5.144.741.664,1.268,1.561,1.992,2.247a58.926,58.926,0,0,1,6.868,8.11C981.037,223.172,980.658,225.628,980.74,228.068Z" transform="translate(-851.473 -189.206)"/>
        <path id="Path_924" data-name="Path 924" d="M894.542,260.41c.805.1,1.607.22,2.415.288a13.626,13.626,0,0,1,9.153,4.758,8.811,8.811,0,0,1,1.97,6.853,13.7,13.7,0,0,1-3.4,7.8,13.993,13.993,0,0,1-7.169,4.6,12.474,12.474,0,0,1-9.484-.811q-1.084-.557-2.165-1.119c-.737-.753-1.535-1.454-2.2-2.267a9.32,9.32,0,0,1-2.117-5.556c.073-.891.12-1.79.224-2.682a6.132,6.132,0,0,1,.36-1.848c2.406-5.189,5.982-8.981,11.971-9.812A2.337,2.337,0,0,0,894.542,260.41Zm4.08,21.582.623-.56-.067.049a4.243,4.243,0,0,0,2.283-2.243l.915-1.049a1.071,1.071,0,0,0,.658-1.11l-.033.062c1.206-.906,1.077-2.383,1.5-3.61.934-2.733.007-5.277-1.013-7.779-.163-.4-.455-.781-1.016-.64l.03.038a2.6,2.6,0,0,0-2.222-2.211l.049.049-.554-.419c-7.082-.859-12.882,3.1-14.469,9.978a10.354,10.354,0,0,0,1.681,8.959,6.552,6.552,0,0,0,6.378,2.489,8.987,8.987,0,0,0,4.241-1.48l-.062.029,1.134-.585Z" transform="translate(-864.541 -218.565)"/>
        <path id="Path_925" data-name="Path 925" d="M892.57,346.4a2.451,2.451,0,0,0-.7-.336c-3.108-.374-5.324-3.923-5.464-7.037-.032-.707.037-1.418.059-2.127a17.216,17.216,0,0,1,.767-2.243c.693-1.4,1.194-2.952,2.682-3.794a3.71,3.71,0,0,1-.028,1.011c-.184.6-.5,1.159-.7,1.757a7.907,7.907,0,0,0,2.559,8.764c3.569,3.092,9.583,2.08,12.265-.371a5.768,5.768,0,0,0,1.055-1.225,9.414,9.414,0,0,0,1.112-8.533,6.316,6.316,0,0,0-4.453-4.334c-3.916-.986-7.512-.524-10.566,2.363-.359.339-.59.97-1.285.6a1.814,1.814,0,0,1,.806-1.864c3.521-2.849,7.376-4.839,12.046-4.791a37.53,37.53,0,0,1,4.024,1.528,6.761,6.761,0,0,1,3.925,6.28,10.734,10.734,0,0,1-2.313,7.3,39.764,39.764,0,0,1-2.836,3.255A13.556,13.556,0,0,1,898.4,346.2Z" transform="translate(-866.285 -245.851)"/>
        <path id="Path_926" data-name="Path 926" d="M1060.521,320.965l-2.642,3.258c-.308.184-.623.356-.922.552-3.446,2.269-7.122,3.429-11.275,2.4-2.6-.642-4.658-1.9-5.529-4.612a6.316,6.316,0,0,0-.484-.941,9.186,9.186,0,0,1,.628-4.772c.11-.244.328-.581.244-.748-.83-1.647.5-2.5,1.3-3.492a11.3,11.3,0,0,1,7.126-4.069,40.721,40.721,0,0,1,4.563-.485,7.825,7.825,0,0,1,7.065,3.175A34.172,34.172,0,0,1,1060.521,320.965Zm-3.707-4.045a5.621,5.621,0,0,0-1.436-4.18,8.1,8.1,0,0,0-3.834-2.794,2.442,2.442,0,0,0-2.053.181,7.681,7.681,0,0,0-3.589,3.445c-.646.613-1.312,1.207-1.926,1.851a1.841,1.841,0,0,0-.5.924,8.824,8.824,0,0,0,1.628,7.185c2.531,3.076,6.863,3.632,9.543.128C1056.149,321.694,1057.345,319.569,1056.814,316.921Z" transform="translate(-931.316 -238.81)"/>
        <path id="Path_927" data-name="Path 927" d="M1003.355,340.465a9.4,9.4,0,0,1-2.032,7.256,9.179,9.179,0,0,1-3.523,2.787c-1.049.475-2.09.968-3.135,1.453l-5.955-.04c-.8-.4-1.605-.79-2.392-1.217a5.013,5.013,0,0,1-2.831-4.577,4.9,4.9,0,0,1,.059-1.613,2.985,2.985,0,0,0-.551-2.422,8.865,8.865,0,0,1,3.721-4.9l.525-.4-.039.022a17.891,17.891,0,0,1,6.3-1.382c3.622.005,7.034.529,9.464,3.629l-.022-.06Zm-8.56,9.188c2.284-1.073,3.459-3.114,4.263-5.306a6.061,6.061,0,0,0-2.477-6.853,2.8,2.8,0,0,0-2.288-.423,8.908,8.908,0,0,0-5.972,4.209,4.944,4.944,0,0,1-2.275,2.118c-.118.13-.316.247-.34.392-.433,2.63.234,4.911,2.546,6.361C990.469,351.543,992.715,351.16,994.795,349.653Z" transform="translate(-907.305 -250.713)"/>
        <path id="Path_929" data-name="Path 929" d="M1046,252.332c.889.151,1.794.238,2.664.463a7.579,7.579,0,0,1,5.665,9.777,12.036,12.036,0,0,1-6.812,7.951,22.665,22.665,0,0,1-5.094,1.765,8.711,8.711,0,0,1-7.629-1.769,7.544,7.544,0,0,1-2.8-5.909,7.144,7.144,0,0,1,.065-1.622c.183-.88-.425-1.3-1.026-1.926.219-.684.461-1.441.7-2.2l.222-.524,0,.008c.566-.573,1.127-1.151,1.7-1.717a13.082,13.082,0,0,1,7.547-3.8C1042.79,252.615,1044.4,252.5,1046,252.332Zm-6.367,17.494-.075-.029c.542.8,1.468.606,2.208.74a4.88,4.88,0,0,0,5.249-1.835c2.693-2.274,2.865-5.284,2.276-8.4-.671-3.546-3.3-5.161-6.433-6.151a9.025,9.025,0,0,0-5.377,4.775,5.826,5.826,0,0,1-2.569,2.957c-.249,3.325.694,5.928,3.76,7.469Z" transform="translate(-927.59 -215.144)"/>
        <path id="Path_930" data-name="Path 930" d="M1008.545,222.435c.5.637,1.015,1.265,1.5,1.913a8.773,8.773,0,0,1,.892,9.684,11.139,11.139,0,0,1-5.278,5.6c-.815.379-1.561.908-2.373,1.3-3.123,1.5-8.671,2.2-12.57-1.738a8.593,8.593,0,0,1-2.535-7.891,31.781,31.781,0,0,1,.945-3.383c.3-.532.932-1.125.846-1.584-.21-1.121.427-1.679,1.064-2.292a8.719,8.719,0,0,1,3.945-2.248,56.4,56.4,0,0,1,6.073-1.1c2.376-.312,4.6.576,6.851,1.131l-.021-.021Zm-4.427,16.282c.412.016.664-.129.6-.594l-.018.053a4.079,4.079,0,0,0,2.23-3.512,9.406,9.406,0,0,0-5.216-11.609,5.2,5.2,0,0,0-6.387,1.168,5.437,5.437,0,0,1-1.927,1.39,2.6,2.6,0,0,0-1.64,1.641,9.246,9.246,0,0,0,0,7.355l-1.271.354a3.91,3.91,0,0,0,1.847,3.2,16.512,16.512,0,0,0,3.887,1.726c2.426.578,4.931.98,7.208-.629l.749-.594Z" transform="translate(-909.398 -201.586)"/>
        <path id="Path_931" data-name="Path 931" d="M946.231,220.543c.525.127,1.044.3,1.576.373,3.266.461,4.684,2.775,5.514,5.591a7.736,7.736,0,0,1,.187,3.473,14.206,14.206,0,0,1-3.2,7.332,16.733,16.733,0,0,1-11.129,6.012,7.755,7.755,0,0,1-8.727-6.63q-.182-.928-.363-1.856a26.935,26.935,0,0,1,1.132-4.133,14.228,14.228,0,0,1,4.273-5.794c.427-.323.979-.641,1.169-1.09.526-1.25,1.647-1.61,2.722-2A23.415,23.415,0,0,1,946.231,220.543Zm.654,17.01c.474.025.566-.325.661-.672,3.323-4.122,3.1-9.348-.586-12.827a5.569,5.569,0,0,0-5.965-1.329,9.945,9.945,0,0,0-4.024,2.562c-3.4,3.411-4.115,7.441-2.886,11.935a2.623,2.623,0,0,0,1.367,1.911c2.864,3.6,8.213,3.472,11.5-1.1.079-.109,0-.335-.012-.507Z" transform="translate(-884.821 -201.547)"/>
        <path id="Path_932" data-name="Path 932" d="M961.075,262.879a8.191,8.191,0,0,1,4.865,1.333,7.783,7.783,0,0,1,3.416,5.3c.613,3.906.012,7.537-2.879,10.515-.689.71-1.331,1.468-2.033,2.165a11.994,11.994,0,0,1-6.2,3.077,7.883,7.883,0,0,1-9-4.753,11.33,11.33,0,0,1-.762-6.083c.394-1.687,1.76-3.1,1.386-5.017-.039-.2.2-.492.375-.685a11.733,11.733,0,0,1,1.847-1.924C954.819,264.916,957.668,263.245,961.075,262.879Zm-6.766,19.083-.019-.01a4.483,4.483,0,0,0,.6.528,6.837,6.837,0,0,0,7.827-.245,7.277,7.277,0,0,0,3.022-5.154c.917-1.7.695-3.533.414-5.286a7.765,7.765,0,0,0-6.943-6.556,3.974,3.974,0,0,0-3.312.824c-1.261,1.14-2.483,2.329-3.652,3.563a3.7,3.7,0,0,0-.685,1.459c-1.193,3.91-.775,7.486,2.253,10.5Z" transform="translate(-892.6 -219.636)"/>
        <path id="Path_933" data-name="Path 933" d="M999.2,304.207c-1.233-.706-2.648-1.026-3.726-2.084a8.449,8.449,0,0,1-2.816-7.246,4.108,4.108,0,0,0,.12-1.328c-.093-.373-.479-.672-.873-1.18a4.15,4.15,0,0,1,1.589-2.742c3.468-2.885,11.142-5.1,16.181-.666l.513.5-.034-.037a30.208,30.208,0,0,1,1.263,2.941,8,8,0,0,1-2.109,8.623,14.179,14.179,0,0,1-3.064,2.1A11.87,11.87,0,0,1,999.2,304.207Zm-3.776-8.15c.252,3.1,2.421,4.7,4.829,6.037,3.51,1.947,5.7.577,7.208-2.878,1.563-3.59-1.608-9.916-6.446-10.785a2.457,2.457,0,0,0-2,.539,11.517,11.517,0,0,0-2.482,3.161c-.707.135-1.441.335-1.505,1.18C994.955,294.238,994.723,295.227,995.422,296.057Z" transform="translate(-911.092 -229.747)"/>
        <path id="Path_934" data-name="Path 934" d="M945.684,327.215c-2.318-1.279-3.221-3.534-3.923-5.871a5.349,5.349,0,0,1-.045-2.4,8.461,8.461,0,0,1,6.982-6.934c.7-.133,1.422-.184,2.134-.273a28.485,28.485,0,0,1,4.26.7c2.461.783,4.646,2.043,5.569,4.7,1.453,4.184-.059,8.348-4.132,10.205a11.657,11.657,0,0,1-7.686.494C947.8,327.6,946.737,327.421,945.684,327.215Zm5.371.216a5.988,5.988,0,0,0,5.128-2.831,8,8,0,0,0,1.124-5.706,6.5,6.5,0,0,0-4.072-5.308,2.79,2.79,0,0,0-1.554-.206,7.033,7.033,0,0,0-4.449,10.246A11.591,11.591,0,0,0,951.055,327.431Z" transform="translate(-889.74 -240.415)"/>
      </g>
      <path id="Path_944" data-name="Path 944" d="M1018.683,343.208l-.413-1.458A1.243,1.243,0,0,1,1018.683,343.208Z" transform="translate(-922.541 -253.456)" fill="#f33"/>
      <path id="Path_945" data-name="Path 945" d="M990.1,337.843l-.525.4Z" transform="translate(-910.315 -251.758)" fill="#f33"/>
      <path id="Path_946" data-name="Path 946" d="M1023.842,291.391l-.513-.5Z" transform="translate(-924.696 -231.772)" fill="#f33"/>
      <path id="Path_947" data-name="Path 947" d="M1032.494,262.96l-.222.524Q1032.384,263.221,1032.494,262.96Z" transform="translate(-928.51 -219.792)" fill="#f33"/>
      <path id="Path_948" data-name="Path 948" d="M1023.8,223.338l-.661-.636Z" transform="translate(-924.613 -202.527)" fill="#f33"/>
      <path id="Path_950" data-name="Path 950" d="M891.161,297.715c.573.239,1.137.5,1.721.711a10.053,10.053,0,0,0,5.991.64,21.7,21.7,0,0,1,2.907-.342,8.983,8.983,0,0,1-4.24,1.48A6.552,6.552,0,0,1,891.161,297.715Z" transform="translate(-868.354 -234.684)" fill="#fccd2e"/>
      <path id="Path_951" data-name="Path 951" d="M919.079,280.729c.242-1.232.411-2.483.741-3.69a10.272,10.272,0,0,0-.824-7.079c-.18-.407-.3-.84-.45-1.261.56-.141.852.24,1.016.64,1.02,2.5,1.947,5.046,1.013,7.779C920.156,278.346,920.285,279.823,919.079,280.729Z" transform="translate(-880.042 -222.181)" fill="#fccd2e"/>
      <path id="Path_952" data-name="Path 952" d="M912.728,295.951l2.283-2.242A4.242,4.242,0,0,1,912.728,295.951Z" transform="translate(-877.565 -232.969)" fill="#fccd2e"/>
      <path id="Path_953" data-name="Path 953" d="M916.892,267.091l-2.222-2.211A2.6,2.6,0,0,1,916.892,267.091Z" transform="translate(-878.392 -220.608)" fill="#fccd2e"/>
      <path id="Path_954" data-name="Path 954" d="M909.831,299.1l1.134-.585Z" transform="translate(-876.335 -235.041)" fill="#fccd2e"/>
      <path id="Path_955" data-name="Path 955" d="M918.384,291l.658-1.109A1.07,1.07,0,0,1,918.384,291Z" transform="translate(-879.981 -231.338)" fill="#fccd2e"/>
      <path id="Path_956" data-name="Path 956" d="M911.746,298.148l.623-.559Z" transform="translate(-877.153 -234.643)" fill="#fccd2e"/>
      <path id="Path_957" data-name="Path 957" d="M914.332,264.644l-.554-.419Z" transform="translate(-878.019 -220.335)" fill="#fccd2e"/>
      <path id="Path_960" data-name="Path 960" d="M1061.656,318.268c-.684-.561-1.4-1.085-2.045-1.691a6.084,6.084,0,0,0-4.589-1.816c-1.426.06-2.852.106-4.278.158a7.679,7.679,0,0,1,3.588-3.444,2.441,2.441,0,0,1,2.053-.181,8.1,8.1,0,0,1,3.834,2.794A5.621,5.621,0,0,1,1061.656,318.268Z" transform="translate(-936.157 -240.408)" fill="#fccd2e"/>
      <path id="Path_962" data-name="Path 962" d="M988.033,349.517c1.253,3.691,4.062,5.414,7.7,6.081.349.064.7.113,1.049.171-2.082,1.509-4.328,1.893-6.546.5-2.312-1.45-2.979-3.731-2.546-6.361C987.716,349.764,987.915,349.647,988.033,349.517Z" transform="translate(-909.375 -256.831)" fill="#fccd2e"/>
      <path id="Path_964" data-name="Path 964" d="M1046.11,282.377a14.575,14.575,0,0,0,7.457-1.1,4.88,4.88,0,0,1-5.249,1.835C1047.578,282.983,1046.652,283.181,1046.11,282.377Z" transform="translate(-934.143 -227.642)" fill="#fccd2e"/>
      <path id="Path_965" data-name="Path 965" d="M1044.54,282.429l.962.476Z" transform="translate(-933.461 -228.142)" fill="#fccd2e"/>
      <path id="Path_967" data-name="Path 967" d="M993.642,245.358c3.761,3.551,7.994,4.055,12.631,1.958q.157.8.31,1.609l.018-.053-.6.594.062-.045-.749.594c-2.277,1.609-4.782,1.207-7.208.629a16.51,16.51,0,0,1-3.887-1.726,3.91,3.91,0,0,1-1.847-3.2Z" transform="translate(-911.362 -212.225)" fill="#fff"/>
      <path id="Path_968" data-name="Path 968" d="M1017.267,248.967q-.154-.8-.31-1.609l2.539-1.9A4.075,4.075,0,0,1,1017.267,248.967Z" transform="translate(-921.959 -212.275)" fill="#fccd2e"/>
      <path id="Path_969" data-name="Path 969" d="M1015.26,253.136l.749-.594Z" transform="translate(-921.256 -215.324)" fill="#fccd2e"/>
      <path id="Path_970" data-name="Path 970" d="M1016.476,252.166l.6-.594C1017.14,252.037,1016.888,252.182,1016.476,252.166Z" transform="translate(-921.776 -214.908)" fill="#fccd2e"/>
      <path id="Path_972" data-name="Path 972" d="M939.573,252.186c1.515,0,3.03-.019,4.544.017a11.668,11.668,0,0,0,5.934-1.292,5.894,5.894,0,0,1,1.006-.331c.008.171.092.4.012.507C947.786,255.659,942.437,255.787,939.573,252.186Z" transform="translate(-888.939 -214.47)" fill="#fccd2e"/>
      <path id="Path_973" data-name="Path 973" d="M959.793,250.11l.66-.671C960.359,249.784,960.267,250.134,959.793,250.11Z" transform="translate(-897.624 -213.993)" fill="#fccd2e"/>
      <path id="Path_975" data-name="Path 975" d="M958.839,292.868c.357.014.716.008,1.07.045,4.106.424,7.269-1.246,9.781-4.382a4.708,4.708,0,0,1,.595-.533,7.275,7.275,0,0,1-3.021,5.154,6.837,6.837,0,0,1-7.827.245A4.483,4.483,0,0,1,958.839,292.868Z" transform="translate(-897.133 -230.494)" fill="#fccd2e"/>
      <path id="Path_976" data-name="Path 976" d="M957.991,295.957l.5.379Z" transform="translate(-896.858 -233.944)" fill="#fccd2e"/>
      <path id="Path_978" data-name="Path 978" d="M998.858,296.5q-.554,1.963-1.109,3.924c-.7-.83-.466-1.819-.4-2.745C997.417,296.837,998.151,296.637,998.858,296.5Z" transform="translate(-913.578 -234.155)" fill="#fccd2e"/>
      <g id="Group_311" data-name="Group 311">
        <path id="Path_928" data-name="Path 928" d="M893.769,260.592c-5.989.831-9.565,4.623-11.971,9.812a6.133,6.133,0,0,0-.36,1.848c-.1.892-.152,1.791-.224,2.682a16.75,16.75,0,0,1-.239-6.425,9.205,9.205,0,0,1,3.312-6.015,7.13,7.13,0,0,1,4.114-1.883A16.253,16.253,0,0,1,893.769,260.592Z" transform="translate(-864.209 -218.612)" fill="#da291c"/>
        <path id="Path_935" data-name="Path 935" d="M948.82,326.885c1.053.206,2.114.383,3.159.624a11.657,11.657,0,0,0,7.686-.494c4.073-1.857,5.585-6.021,4.132-10.205-.923-2.658-3.108-3.919-5.569-4.7a28.485,28.485,0,0,0-4.26-.7c5.8-1.529,11.334,1.093,13.264,6.762a8.11,8.11,0,0,1,.076,4.55,11.525,11.525,0,0,1-5.108,7.1,10.344,10.344,0,0,1-9.115,1.027A7.752,7.752,0,0,1,948.82,326.885Z" transform="translate(-892.812 -240.085)" fill="#da291c"/>
        <path id="Path_936" data-name="Path 936" d="M945.028,218.868a23.414,23.414,0,0,0-6.848,1.274c-1.075.392-2.2.753-2.722,2-.189.449-.741.767-1.169,1.09a14.227,14.227,0,0,0-4.273,5.794,26.936,26.936,0,0,0-1.132,4.133c-1.967-3.765-2.32-7.487.342-11.1a8.853,8.853,0,0,1,1.273-1.368,17.161,17.161,0,0,1,5.521-3.3C939.26,216.219,942.353,216.383,945.028,218.868Z" transform="translate(-883.689 -199.916)" fill="#da291c"/>
        <path id="Path_937" data-name="Path 937" d="M1039.6,332.064a6.316,6.316,0,0,1,.484.941c.871,2.71,2.929,3.97,5.529,4.612,4.153,1.025,7.829-.135,11.274-2.4.3-.2.614-.369.922-.552a7.661,7.661,0,0,1-7.622,7.237,15.191,15.191,0,0,1-5.35-.508,6.775,6.775,0,0,1-3.883-3.153C1039.861,336.307,1039.106,334.33,1039.6,332.064Z" transform="translate(-931.247 -249.247)" fill="#da291c"/>
        <path id="Path_938" data-name="Path 938" d="M902.049,323.157c-4.67-.048-8.525,1.942-12.046,4.791a1.814,1.814,0,0,0-.806,1.864l.037-.036c-1.488.843-1.989,2.4-2.682,3.794a17.188,17.188,0,0,0-.767,2.243,7.967,7.967,0,0,1,.285-8.017c2.758-4.946,6.658-6.83,12.73-5.779C899.916,322.209,901.16,322.231,902.049,323.157Z" transform="translate(-865.97 -244.758)" fill="#da291c"/>
        <path id="Path_939" data-name="Path 939" d="M1004.8,306.493a11.87,11.87,0,0,0,7.043-1.116,14.176,14.176,0,0,0,3.064-2.1,8,8,0,0,0,2.109-8.623,30.208,30.208,0,0,0-1.263-2.941,5.635,5.635,0,0,1,1.414.688,8.93,8.93,0,0,1,2.645,9.139c-.778,3.382-3.24,5.239-6.59,6.048a17.525,17.525,0,0,1-4.819.446A4.628,4.628,0,0,1,1004.8,306.493Z" transform="translate(-916.632 -232.01)" fill="#da291c"/>
        <path id="Path_940" data-name="Path 940" d="M1008.672,218.975c-2.256-.555-4.476-1.444-6.852-1.131a56.4,56.4,0,0,0-6.073,1.1,8.719,8.719,0,0,0-3.945,2.248c-.637.613-1.275,1.171-1.064,2.292.086.459-.543,1.052-.846,1.584a7.343,7.343,0,0,1,3.09-7.313,20.2,20.2,0,0,1,6.2-3.23c4.135-1.286,6.93.356,8.956,2.714A1.881,1.881,0,0,1,1008.672,218.975Z" transform="translate(-910.212 -198.81)" fill="#da291c"/>
        <path id="Path_941" data-name="Path 941" d="M1006.2,337.122c-2.43-3.1-5.842-3.624-9.464-3.629a17.892,17.892,0,0,0-6.3,1.382c.583-2.085,2.289-2.959,4.113-3.448a11.99,11.99,0,0,1,6.9.083A6.782,6.782,0,0,1,1006.2,337.122Z" transform="translate(-910.521 -248.768)" fill="#da291c"/>
        <path id="Path_942" data-name="Path 942" d="M960.66,262.562c-3.407.366-6.257,2.037-8.988,3.928a11.733,11.733,0,0,0-1.847,1.924c-.174.193-.414.486-.375.685.374,1.915-.992,3.33-1.386,5.017a7.494,7.494,0,0,1,1.82-8.6A10.527,10.527,0,0,1,960.66,262.562Z" transform="translate(-892.262 -219.39)" fill="#da291c"/>
        <path id="Path_943" data-name="Path 943" d="M1046.707,251.221c-1.6.165-3.209.283-4.8.5a13.082,13.082,0,0,0-7.547,3.8c-.572.566-1.133,1.144-1.7,1.717a7.18,7.18,0,0,1,4.783-6.541C1040.6,249.434,1043.714,249.342,1046.707,251.221Z" transform="translate(-928.297 -214.111)" fill="#da291c"/>
        <path id="Path_949" data-name="Path 949" d="M889.6,283.072a10.354,10.354,0,0,1-1.681-8.959c1.587-6.878,7.387-10.837,14.47-9.978l.554.419-.049-.049,2.222,2.211-.03-.038c.148.421.269.854.449,1.261a10.272,10.272,0,0,1,.824,7.079c-.33,1.207-.5,2.458-.741,3.69l.033-.061-.658,1.109-.915,1.051-2.283,2.242.067-.048-.623.559.051-.034-1.134.585.062-.029a21.692,21.692,0,0,0-2.907.342,10.054,10.054,0,0,1-5.991-.64C890.739,283.575,890.175,283.311,889.6,283.072Z" transform="translate(-866.802 -220.137)" fill="#da291c"/>
        <path id="Path_958" data-name="Path 958" d="M891.7,333.378c.694.366.926-.265,1.285-.6,3.053-2.887,6.65-3.349,10.566-2.363A6.316,6.316,0,0,1,908,334.746a9.414,9.414,0,0,1-1.112,8.533,5.771,5.771,0,0,1-1.055,1.225c-2.681,2.451-8.7,3.463-12.265.371a7.907,7.907,0,0,1-2.559-8.764c.191-.6.511-1.157.7-1.757a3.71,3.71,0,0,0,.028-1.011Z" transform="translate(-868.084 -248.324)" fill="#da291c"/>
        <path id="Path_959" data-name="Path 959" d="M1059.679,321.041c.531,2.649-.665,4.773-2.169,6.74-2.68,3.5-7.011,2.948-9.543-.128a8.824,8.824,0,0,1-1.629-7.185,1.842,1.842,0,0,1,.5-.924c.614-.644,1.28-1.237,1.927-1.851,1.426-.053,2.852-.1,4.278-.158a6.084,6.084,0,0,1,4.589,1.816C1058.276,319.956,1058.995,320.481,1059.679,321.041Z" transform="translate(-934.18 -242.931)" fill="#da291c"/>
        <path id="Path_961" data-name="Path 961" d="M988.389,344.589a4.944,4.944,0,0,0,2.275-2.118,8.908,8.908,0,0,1,5.972-4.209,2.8,2.8,0,0,1,2.288.423,6.061,6.061,0,0,1,2.477,6.853c-.8,2.192-1.98,4.233-4.261,5.3-.348-.058-.7-.107-1.049-.171C992.451,350,989.642,348.28,988.389,344.589Z" transform="translate(-909.68 -251.903)" fill="#da291c"/>
        <path id="Path_963" data-name="Path 963" d="M1041.621,270.747c-3.066-1.541-4.008-4.144-3.76-7.469a5.826,5.826,0,0,0,2.569-2.957,9.025,9.025,0,0,1,5.377-4.775c3.133.991,5.762,2.606,6.433,6.152.589,3.117.417,6.127-2.276,8.4a14.575,14.575,0,0,1-7.457,1.1l.075.029Z" transform="translate(-930.542 -216.543)" fill="#da291c"/>
        <path id="Path_966" data-name="Path 966" d="M994.033,236.017a9.246,9.246,0,0,1,0-7.355,2.6,2.6,0,0,1,1.64-1.641,5.438,5.438,0,0,0,1.927-1.39,5.2,5.2,0,0,1,6.387-1.168,9.4,9.4,0,0,1,5.214,11.61q-1.27.952-2.541,1.9C1002.027,240.072,997.794,239.568,994.033,236.017Z" transform="translate(-911.718 -202.988)" fill="#da291c"/>
        <path id="Path_971" data-name="Path 971" d="M938.091,240.542a2.623,2.623,0,0,1-1.367-1.911c-1.229-4.494-.516-8.525,2.886-11.935a9.945,9.945,0,0,1,4.024-2.562,5.569,5.569,0,0,1,5.965,1.329c3.687,3.479,3.909,8.7.586,12.828l-.66.671.051-.025a5.894,5.894,0,0,0-1.006.331,11.668,11.668,0,0,1-5.934,1.292C941.12,240.523,939.605,240.545,938.091,240.542Z" transform="translate(-887.455 -202.951)" fill="#da291c"/>
        <path id="Path_974" data-name="Path 974" d="M955.784,283.358c-3.027-3.009-3.446-6.585-2.253-10.5a3.7,3.7,0,0,1,.685-1.459c1.169-1.234,2.391-2.424,3.652-3.563a3.974,3.974,0,0,1,3.312-.824,7.765,7.765,0,0,1,6.943,6.556c.281,1.753.5,3.587-.414,5.286a4.708,4.708,0,0,0-.595.533c-2.512,3.137-5.674,4.806-9.781,4.382-.355-.037-.713-.031-1.07-.045l.018.01Z" transform="translate(-894.579 -221.421)" fill="#da291c"/>
        <path id="Path_977" data-name="Path 977" d="M999.235,293.627a11.516,11.516,0,0,1,2.482-3.161,2.457,2.457,0,0,1,2-.539c4.838.869,8.009,7.195,6.446,10.785-1.5,3.454-3.7,4.824-7.208,2.878-2.408-1.336-4.577-2.94-4.829-6.037Q998.681,295.589,999.235,293.627Z" transform="translate(-913.83 -231.244)" fill="#da291c"/>
        <path id="Path_979" data-name="Path 979" d="M954.684,328.657a11.591,11.591,0,0,1-3.824-3.807,7.033,7.033,0,0,1,4.449-10.246,2.789,2.789,0,0,1,1.554.206,6.5,6.5,0,0,1,4.072,5.308,8,8,0,0,1-1.124,5.707A5.989,5.989,0,0,1,954.684,328.657Z" transform="translate(-893.357 -241.641)" fill="#da291c"/>
      </g>
    </g>
    <g id="Layer_3_Image" data-name="Layer 3 Image" transform="translate(740.292 193.143)">
      <path id="Path_980" data-name="Path 980" d="M778.914,213.76a83.849,83.849,0,0,0-6.339-7.928,11.1,11.1,0,0,0-1.27.629q-11.049,7.464-22.086,14.948c-.375.254-.745.523-1.142.738-.78.424-1.459,1.224-2.432,1.041a6.217,6.217,0,0,1-3.829-1.882c-.579-.685-1.065-1.451-1.523-2.085a3.309,3.309,0,0,1,1.845-2.411q11.939-7.33,23.869-14.675c1.93-1.189,3.822-2.439,5.766-3.6a5,5,0,0,1,6.848.9c1.963,2.02,3.838,4.129,5.739,6.21,1.4,1.536,2.787,3.09,4.21,4.67,1.1-.287,2.051-.525,3-.786a96.382,96.382,0,0,1,16.746-3.311,26.307,26.307,0,0,1,6.487.1,5.943,5.943,0,0,1,4.92,4.164c.576,1.537,1.061,3.11,1.679,4.628a4.867,4.867,0,0,1-.524,4.686c-1.582-1.565-1.274-3.745-1.973-5.428-.665-.344-.94.111-1.245.384a34.416,34.416,0,0,1-6.459,4.513A108.376,108.376,0,0,1,775.7,231.5a30.811,30.811,0,0,1-9.189.4,5.464,5.464,0,0,0-1.648.335c2.461,4.637,4.061,9.453,5.977,14.134,1.9,4.643,3.7,9.327,5.541,14q2.808,7.129,5.6,14.265,2.748,7.006,5.488,14.015a8.246,8.246,0,0,1,.637,1.8,1.628,1.628,0,0,1-.46,1.168,1.064,1.064,0,0,1-1.808-.242,61.956,61.956,0,0,1-2.792-5.617c-4.025-10.082-7.978-20.193-11.947-30.3-3.135-7.981-6.211-15.987-9.423-23.937a8.651,8.651,0,0,1-.528-4.237,5.7,5.7,0,0,1,.73-2.011,4.75,4.75,0,0,1,1.053-1.244c4.343-3.89,8.786-7.629,14.4-9.578C777.753,214.3,778.154,214.093,778.914,213.76Zm15.7,3.622c-1.191,3.1-3.3,4.515-6.309,4.565a3.276,3.276,0,0,1-2.838-1.212c-1.1-1.324-2.364-2.51-3.524-3.787a2.2,2.2,0,0,0-2.435-.754A16.406,16.406,0,0,0,776,217.546c-3.092,1.881-6.119,3.877-9.125,5.9a21.253,21.253,0,0,0-2.672,2.31,7.622,7.622,0,0,0-1.192,1.481c-.795,1.272-.462,2.079.962,2.356a12.389,12.389,0,0,0,1.877.175,48.234,48.234,0,0,0,11.307-1.041c3.722-.744,7.363-1.793,11.021-2.807a89.771,89.771,0,0,0,12.749-4.549,65.957,65.957,0,0,0,11.486-6.122,43.1,43.1,0,0,0,4.162-3.486,2.645,2.645,0,0,0,1.131-2.422,5.274,5.274,0,0,0-.938-.442,6.223,6.223,0,0,0-1.6-.265,60.578,60.578,0,0,0-6.763.158,79.8,79.8,0,0,0-15.82,3.652,9.906,9.906,0,0,0-1.281.669Z" transform="translate(-740.292 -197.574)"/>
      <path id="Path_981" data-name="Path 981" d="M811.753,225.569l-3.31-4.224a9.944,9.944,0,0,1,1.281-.662,80.527,80.527,0,0,1,15.82-3.613,61.231,61.231,0,0,1,6.763-.156,6.285,6.285,0,0,1,1.6.262,5.3,5.3,0,0,1,.938.437,2.607,2.607,0,0,1-1.131,2.4,43,43,0,0,1-4.162,3.449,66.2,66.2,0,0,1-11.486,6.057,90.413,90.413,0,0,1-12.749,4.5c-3.658,1-7.3,2.041-11.021,2.777a48.737,48.737,0,0,1-11.307,1.03,12.517,12.517,0,0,1-1.877-.174c-1.424-.274-1.757-1.072-.962-2.331a7.556,7.556,0,0,1,1.192-1.466,21.186,21.186,0,0,1,2.672-2.285c3.005-2,6.032-3.975,9.125-5.836a16.517,16.517,0,0,1,3.513-1.337,2.211,2.211,0,0,1,2.435.746c1.16,1.263,2.421,2.437,3.524,3.747a3.292,3.292,0,0,0,2.838,1.2A6.372,6.372,0,0,0,811.753,225.569Z" transform="translate(-757.427 -205.971)" fill="#fff"/>
    </g>
  </g>
</svg>
