<svg xmlns="http://www.w3.org/2000/svg" width="134.722" height="102.432" viewBox="0 0 134.722 102.432">
  <g id="Group_283" data-name="Group 283" transform="translate(-855.447 -417.969)">
    <g id="From_selection_Image" data-name="From selection Image" transform="translate(856.263 437.435)">
      <path id="Path_884" data-name="Path 884" d="M884.841,520.248c5.17-2.284,10.329-4.592,15.515-6.837,1.4-.607,2.881-1.042,4.336-1.517a7.77,7.77,0,0,1,1.684-.351c2.065-.191,3.036,1.089,2.183,3.051a3.234,3.234,0,0,0-.185,2.189,124.551,124.551,0,0,1,3.283,22.15,39.381,39.381,0,0,0,.45,4c.568,3.788.628,7.644,1.551,11.384a5.053,5.053,0,0,1,.129,1.424,1.892,1.892,0,0,1-1.745,1.939,19.037,19.037,0,0,1-2.3.095c-13.422.02-26.845-.008-40.266.1a5.089,5.089,0,0,1-4.436-2.041c-3.051-3.863-5.761-7.9-6.9-12.792-.369-1.584-.8-3.154-1.2-4.732a3.105,3.105,0,0,1,1.712-3.822c2.174-1.215,4.289-2.535,6.454-3.767,3.579-2.038,7.153-4.087,10.778-6.043,2.272-1.226,4.631-2.289,6.946-3.424Z" transform="translate(-856.809 -474.904)" fill="#da291c"/>
      <path id="Path_885" data-name="Path 885" d="M882.8,501.492c-.447.224-.715.327-.949.481-1.844,1.209-2.809,1.036-3.951-.826-.851-1.388-1.614-2.829-2.413-4.248-3.288-5.843-6.626-11.66-9.841-17.543-1.467-2.685-2.717-5.49-4.015-8.264a1.293,1.293,0,0,1,.574-1.946c.241-.156.495-.294.748-.428,2.247-1.183,2.929-.962,3.911,1.426a205.918,205.918,0,0,0,10.319,20.846c.775,1.409,1.526,2.831,2.435,4.518a2.65,2.65,0,0,0-.245-2.424c-1.511-3.1-3.1-6.162-4.632-9.25q-3.262-6.557-6.485-13.135a9.736,9.736,0,0,1-.705-1.879,1.7,1.7,0,0,1,1.482-2.3,10.123,10.123,0,0,0,1.7-.2,2.234,2.234,0,0,1,2.9,1.18c.913,1.573,1.712,3.212,2.557,4.823.4.755.788,1.512,1.245,2.387.429-.885.305-1.949,1.362-2.167,1.227-.252,1.608.765,2.161,1.528,1.125,1.551,2.274,3.084,3.41,4.628a53.541,53.541,0,0,1,6.376,11.219,28.21,28.21,0,0,1,1.264,4.689,2.462,2.462,0,0,1-.227,1.38,1.36,1.36,0,0,1-2.182.357,9.432,9.432,0,0,1-1.031-1.713c-1.417-2.826-2.779-5.68-4.225-8.49-.963-1.872-2.023-3.693-3.063-5.524a8.711,8.711,0,0,0-.908-1.065,4.123,4.123,0,0,0,.1,1.079q2.963,6.226,5.966,12.431c.8,1.65,1.8,3.237.373,5.065-.187.239-.052.733-.062,1.109C886.726,500.184,883.4,502,882.8,501.492Zm-3-22.576.092-.172-.141-.017Z" transform="translate(-858.652 -456.733)" fill="#ffc829"/>
      <path id="Path_886" data-name="Path 886" d="M898.635,455.017c1.057-.528,1.974-1.019,2.921-1.447a12.009,12.009,0,0,1,2.15-.794,2.181,2.181,0,0,1,2.6,1.293,11.027,11.027,0,0,1,.547,1.63c.683,2.295,1.339,4.6,2.041,6.888,2.077,6.78,4.2,13.548,5.932,20.428a6.181,6.181,0,0,1,.221,1.124,2,2,0,0,1-2.576,2.164,8.35,8.35,0,0,1-1.056-.331,2.181,2.181,0,0,0-.3.555c-.17.982-.4,1.968-1.565,2.148a3.427,3.427,0,0,1-3.085-1.2,7.437,7.437,0,0,1-1.207-1.947c-1.8-3.918-3.6-7.84-5.333-11.786a155.509,155.509,0,0,0-7.49-14.9,41.743,41.743,0,0,1-2-3.817,1.72,1.72,0,0,1,.754-2.472,27.1,27.1,0,0,1,3.24-1.858,1.975,1.975,0,0,1,2.854,1.079c.257.511.4,1.077.619,1.608C898.116,453.9,898.359,454.4,898.635,455.017Z" transform="translate(-870.179 -450.439)" fill="#ffc829"/>
      <path id="Path_887" data-name="Path 887" d="M876.01,515.172a1.563,1.563,0,0,1-2.372,1.307,4.578,4.578,0,0,1-1.155-1.242c-1.892-2.984-3.75-5.99-5.616-8.991-1.514-2.435-3.048-4.856-4.521-7.316a24.927,24.927,0,0,1-1.673-3.313,1.728,1.728,0,0,1,.863-2.4,1.639,1.639,0,0,1,2.014.635,5.18,5.18,0,0,1,.511.691q3.753,6.1,7.493,12.213c1.041,1.709,2.041,3.443,3.04,5.177C875.209,513,875.99,514.008,876.01,515.172Z" transform="translate(-858.284 -467.515)" fill="#ffc829"/>
      <path id="Path_888" data-name="Path 888" d="M884.343,586.694c1.314-1.037,1.316-1.038,3.037,0Z" transform="translate(-867.836 -504.697)" fill="#fff"/>
      <path id="Path_889" data-name="Path 889" d="M934.6,564.219c-.237-.254-.443-.37-.456-.506a9.266,9.266,0,0,1,.007-1.258.472.472,0,0,1,.254,0,1.111,1.111,0,0,1,.5,1.393C934.886,563.923,934.8,563.982,934.6,564.219Z" transform="translate(-887.773 -495.293)" fill="#fff"/>
      <path id="Path_890" data-name="Path 890" d="M892.06,487.316l-.049-.189.141.017Z" transform="translate(-870.907 -465.132)" fill="#fff"/>
    </g>
    <g id="Layer_7_Image" data-name="Layer 7 Image" transform="translate(855.447 417.969)">
      <path id="Path_891" data-name="Path 891" d="M976.984,422c1.247-1.356.957-3.468,2.86-4.027a2.909,2.909,0,0,1,.792.432,53.618,53.618,0,0,1,8.152,11.082,8.233,8.233,0,0,1,1.026,4.127c-.057,1.915-.014,3.834-.014,5.767-.633.157-.782-.353-.971-.752-.615-1.3-1.25-2.589-1.8-3.915a92.294,92.294,0,0,0-7.292-13.276c-.224.538-.549.969-.447,1.129,1.64,2.592,1.951,5.6,2.535,8.474,2.7,13.332,5.3,26.687,7.893,40.04a23.2,23.2,0,0,1,.375,4c.067,3.834.062,7.671.075,11.507,0,.456-.068.912-.116,1.5-.975-.158-1.17-.769-1.306-1.4-.565-2.622-1.171-5.237-1.664-7.873q-3.993-21.329-7.925-42.67c-.571-3.1-.992-6.231-1.5-9.469l-3.4-.966c-.359.581-.724,1.109-1.024,1.671-.451.845-.848,1.718-1.284,2.571-1.453,2.84-2.422,3.059-5.137,1.171-.787-.547-1.559-1.117-2.361-1.639a7.767,7.767,0,0,0-1.185-.491c-.821,1.507-1.6,2.906-2.351,4.325-.863,1.64-1.641,1.827-3.129.661-1.795-1.407-3.569-2.841-5.506-4.385a6.637,6.637,0,0,0-.933.935c-.64.954-1.219,1.949-1.828,2.925a16.413,16.413,0,0,1-.937,1.447,2.161,2.161,0,0,1-3.262.56c-.857-.605-1.61-1.359-2.408-2.049-.5-.435-1.006-.872-1.665-1.443-1.324,1.475-2.446,3-3.6,4.5-2.054,2.666-2.823,2.677-5.061.1-.611-.705-1.263-1.373-2.035-2.207a51.472,51.472,0,0,1-5.877,7.2c-.127.118-.355.126-.783.266l-4.606-2.8a12.047,12.047,0,0,0-.93,1.367c-.685,1.37-1.288,2.782-1.981,4.148-.754,1.488-1.354,1.849-2.981,1.6-1.415-.218-2.8-.625-4.2-.947-.457-.1-.915-.2-1.525-.339-.188,2.424.64,4.607.905,6.852.27,2.284.644,4.554.967,6.832s.657,4.553.957,6.833.557,4.568.842,6.851.593,4.562.866,6.846c.261,2.189.473,4.384.737,6.572.276,2.284.6,4.562.881,6.845s.539,4.569.825,6.852.61,4.56.891,6.844.529,4.57.8,6.855c.264,2.258.719,4.5.826,6.939-.635.067-1.087.154-1.54.152-.749,0-1.5-.065-2.43-.11-2.054-15.166-4.1-30.24-6.143-45.36a20.894,20.894,0,0,0-6.078,1.066,133.226,133.226,0,0,0-25.884,10.181c-3.749,1.915-7.381,4.064-11.035,6.162-1.155.663-2.209,1.5-3.445,2.356a24.83,24.83,0,0,0,2.692,5.67c1.02,1.842,2.072,3.673,3.226,5.433,1.1,1.681,2.3,3.308,3.553,4.878,1.316,1.646,2.713,3.232,4.147,4.777,1.414,1.525,2.918,2.965,4.45,4.511a15.414,15.414,0,0,1-4.868.349,3.984,3.984,0,0,1-1.427-.882c-1.1-1.071-2.181-2.163-3.174-3.328a78.859,78.859,0,0,1-7.859-10.975,29.717,29.717,0,0,1-3.552-9.052,2.463,2.463,0,0,1,1.091-2.919c2.481-1.773,4.77-3.813,7.223-5.813-1.24-2.252-2.593-4.641-3.88-7.065q-1.887-3.551-3.659-7.162c-1.213-2.482-2.653-4.881-3.126-7.716l3.944-5.492-2.288-4.345a2.84,2.84,0,0,1,.369-.963,26.854,26.854,0,0,1,5.635-4.873c1.307-.842,1.848-.661,2.846.7.22.3.393.634.619,1.006,1.138-.052,1.948-.8,2.878-1.225,1.983-.912,2.21-.873,3.581.848.171.215.363.413.681.772l3.234-1.96c-.423-1.125-.768-2.1-1.152-3.051-.393-.977-.854-1.928-1.227-2.912-.333-.879-.19-1.623.555-2,2.126-1.088,4.277-2.138,6.473-3.072,1.06-.45,1.748-.042,2.267,1.126.7,1.574,1.322,3.182,2.056,4.968.615-.311,1.163-.588,1.712-.863,1.282-.643,2.536-1.347,3.855-1.9a1.3,1.3,0,0,1,1.826.877c.254.619.442,1.265.64,1.905,2.771,8.963,5.54,17.928,8.346,27.011,1.381.167,2.641-.487,4.152-.9-.271-2.288-.541-4.451-.779-6.617-.637-5.812-1.3-11.621-1.858-17.441a20.274,20.274,0,0,1,.194-4.289c.144-1.209.713-1.683,1.961-1.58,1.714.142,3.415.457,5.118.72.839.13,1.671.308,2.625.486.959-1.778,1.86-3.459,2.771-5.135,1.206-2.218,1.824-2.408,4.091-1.2,1.343.717,2.659,1.484,4.08,2.281.424-.668.778-1.216,1.123-1.77.962-1.545,1.879-3.12,2.891-4.632,1.3-1.939,2.1-1.99,3.867-.349a13.211,13.211,0,0,1,1.206,1.233c.37.447.671.95,1.1,1.569a19.52,19.52,0,0,0,1.447-1.385c1.035-1.258,1.991-2.584,3.06-3.81a2.017,2.017,0,0,1,3.043-.428c1.285.8,2.514,1.685,3.92,2.635l2.469-3.638c.323-.476.621-.971.972-1.425,1.292-1.673,2.234-1.838,3.84-.51,1.829,1.513,3.575,3.126,5.384,4.72.827-.188.684-1.013.9-1.576.408-1.07.626-2.217,1.083-3.263a1.89,1.89,0,0,1,2.855-.948c.683.341,1.313.789,1.965,1.191.733.451,1.463.908,2.2,1.354a1.971,1.971,0,0,0,.487.075c.234-.389.53-.837.779-1.309.357-.677.67-1.378,1.02-2.06,1.376-2.679,1.938-2.932,4.738-2.173C975.645,421.663,976.3,421.82,976.984,422Zm-99.053,59.28c-1.689-3.4-3.228-6.569-4.825-9.706-1.647-3.234-3.448-6.393-5-9.671-1.5-3.16-2.766-6.429-4.2-9.812a16.969,16.969,0,0,0-4.126,3.376c.743,1.28,3.35,7.529,4.032,8.87q4.482,8.811,9.036,17.585a7.723,7.723,0,0,0,1.045,1.269Zm-.317-37.924c-.021.308-.1.523-.037.677,4.381,10.482,9.334,20.724,13.248,31.4.027.073.142.117.221.167s.165.093.285.16l3.227-1.258c-.267-.758-.463-1.388-.707-2-.99-2.484-2.035-4.947-2.987-7.446-2.72-7.141-5.39-14.3-8.126-21.434-.286-.745-.284-1.761-1.333-2.073Zm9.157,3.227,10.984,26.846,1.81-.661c-1.4-4.765-2.764-9.346-4.09-13.937-1.351-4.676-2.664-9.364-4.033-14.181ZM889.2,476.5c-1.6-3.459-3.147-6.727-4.634-10.021-1.888-4.185-3.722-8.394-5.6-12.584a17.869,17.869,0,0,0-.981-1.682l-3.38,1.243c3.964,8.158,7.832,16.119,11.768,24.219Zm-21.919-23.528c4.033,9.271,9.474,17.645,13.022,26.926a5.582,5.582,0,0,0,2.924-1.017l-12.744-26.894Zm-9.542,12.25a189.576,189.576,0,0,1,11.047,20.591c1.137-.658,2.335-1,3.183-1.966-4.465-6.738-7.789-13.937-11.536-21.186Z" transform="translate(-855.447 -417.969)"/>
    </g>
    <g id="Inserted_Image_Image" data-name="Inserted Image Image" transform="translate(932.332 462.249)">
      <path id="Path_892" data-name="Path 892" d="M1023.286,523.907c-1.5.771-3.072.394-4.674,1.081-.346-1.809-.678-3.276-.9-4.758a102.509,102.509,0,0,0-3.541-15.68c-.719-2.279-1.621-4.506-2.559-6.707a10.018,10.018,0,0,0-1.7-2.634,1.75,1.75,0,0,0-3.056.431,15.816,15.816,0,0,0-1.331,4.363,83.851,83.851,0,0,0,.172,20.071c.119,1.047.228,2.1.32,3.147a1.928,1.928,0,0,1-.115.547,6.821,6.821,0,0,1-4.664.539q-.673-3.655-1.348-7.318a76.29,76.29,0,0,0-3.74-13.844,43.247,43.247,0,0,0-2.33-4.6,4.876,4.876,0,0,0-.878-1.125c-1.2-1.186-2.587-.949-3.139.676a26.148,26.148,0,0,0-1.381,7.024,124.046,124.046,0,0,0,.562,18.082c.158,1.709.425,3.408.655,5.217a11.693,11.693,0,0,1-4.893.811,33.619,33.619,0,0,1-.792-6.308,77.189,77.189,0,0,1,.653-18.067,26.379,26.379,0,0,1,2.133-6.836A10.752,10.752,0,0,1,989,495.109a3.642,3.642,0,0,1,4.517-.546,10.239,10.239,0,0,1,3.83,3.4c.947,1.317,1.706,2.769,2.557,4.155.233.38.5.739.793,1.169a4.694,4.694,0,0,0,1.032-2.767,20.384,20.384,0,0,1,2.629-6.334,4.7,4.7,0,0,1,7.606-.757,26.056,26.056,0,0,1,2.909,3.535,40.431,40.431,0,0,1,4.2,8.788,92.716,92.716,0,0,1,4.113,16.721C1023.256,522.928,1023.252,523.394,1023.286,523.907Z" transform="translate(-983.695 -491.83)" fill="#ffc829"/>
    </g>
    <g id="Inserted_Image_Image-2" data-name="Inserted Image Image" transform="translate(881.944 490.326)">
      <path id="Path_893" data-name="Path 893" d="M922.763,554.047l-2.473.966c-1.023-2.259-1.92-4.46-3-6.566a60.683,60.683,0,0,0-3.478-5.936c-.638-.955-1.339-2.538-2.8-1.868-1.142.524-.767,2-.668,3.138a45.124,45.124,0,0,0,2.327,9.765c.258.811.519,1.619.837,2.608l-2.261.942c-.322-.562-.638-1.018-.861-1.517a50.423,50.423,0,0,0-4.438-8.679,17.009,17.009,0,0,0-2.464-2.769c-.313-.285-1.008-.149-1.535-.206a9.573,9.573,0,0,0,.082,5.288c.727,2.974,1.629,5.9,2.474,8.849.234.815.521,1.615.836,2.583l-2.446,1.112a39.17,39.17,0,0,1-3.048-11.453,14.439,14.439,0,0,1,.018-4.863,8.35,8.35,0,0,1,.718-2.154,2.238,2.238,0,0,1,3.165-1.065,15.053,15.053,0,0,1,2.382,1.57c.52.382.977.849,1.4,1.222.788-.216.649-.755.723-1.2a18.945,18.945,0,0,1,.561-3.093,2.617,2.617,0,0,1,4.128-1.551,11.44,11.44,0,0,1,2.841,2.389A40.19,40.19,0,0,1,922.763,554.047Z" transform="translate(-899.645 -538.664)" fill="#ffc829"/>
    </g>
  </g>
</svg>
