<svg xmlns="http://www.w3.org/2000/svg" width="128.843" height="110" viewBox="0 0 128.843 110">
  <g id="Group_284" data-name="Group 284" transform="translate(-856.812 -621.73)">
    <g id="From_selection_Image" data-name="From selection Image" transform="translate(856.812 650.788)">
      <path id="Path_894" data-name="Path 894" d="M867.545,752.627c-.205-.664-.445-1.26-.572-1.878q-4.921-24.086-9.816-48.177c-.11-.541-.185-1.09-.26-1.638-.536-3.886,1.491-6.653,5.4-7.229,2.55-.376,5.117-.645,7.683-.906q9.063-.924,18.134-1.787c2.383-.224,4.778-.305,7.162-.518q13.351-1.188,26.7-2.422c4.954-.457,9.907-.92,14.854-1.438a8.524,8.524,0,0,1,5.086.842,4.8,4.8,0,0,1,2.391,2.577c1.539,4.234,3.06,8.474,4.526,12.733.508,1.477.809,3.023,1.26,4.522a12.132,12.132,0,0,0,.934,1.745,9.766,9.766,0,0,0,.143-1.525c-.284-2.47-.577-4.939-.9-7.4a51.862,51.862,0,0,0-2.426-10.475,5.337,5.337,0,0,1,.221-4.027,10.849,10.849,0,0,1,4.732-5.522c3.676-2.092,7.164-4.516,10.736-6.793,1.715-1.093,3.482-1.711,5.586-.427a12.494,12.494,0,0,1,.538,1.669q2.926,15.752,5.819,31.511a6.687,6.687,0,0,1,.194,1.087c.071,4.65,1.618,9.048,2.308,13.59.774,5.092,1.763,10.144,1.9,15.337a82.781,82.781,0,0,0,1.306,9.562c.1.728.3,1.448.338,2.178a4.162,4.162,0,0,1-4.222,4.435c-3.218-.142-6.448-.01-9.672,0-2.672.01-5.344,0-8.016.033a2.207,2.207,0,0,1-2.347-1.15,7.048,7.048,0,0,1-1.334,1.039,3.709,3.709,0,0,1-1.36.131c-2.027.037-4.054.073-6.081.086q-32.2.223-64.406.446c-2.552.019-5.09-.272-7.651-.128-2.48.139-4.974.045-7.461.039C868.515,752.744,868.068,752.672,867.545,752.627Zm60.438-14.048a4.786,4.786,0,0,0-.005-.787q-1.6-9.534-3.223-19.064c-.293-1.725-.548-3.461-.947-5.163a4.139,4.139,0,0,0-4.245-3.536c-3.129-.115-6.264-.221-9.394-.181-6.632.086-13.263.267-19.895.416a11.69,11.69,0,0,0-1.926.124,3.974,3.974,0,0,0-3.386,4.34,14.322,14.322,0,0,0,.543,2.7q1.393,5.2,2.837,10.393c.883,3.195,1.7,6.411,2.7,9.569.84,2.647,2.246,3.522,4.956,3.471,4.79-.091,9.58-.16,14.37-.275,4.053-.1,8.105-.216,12.155-.4a12.619,12.619,0,0,0,2.946-.583A25,25,0,0,0,927.982,738.578Zm23.3-27.334a1.7,1.7,0,0,0-.224-2.241A2.386,2.386,0,0,0,951.28,711.244Z" transform="translate(-856.812 -672.159)" fill="#638dc9"/>
      <path id="Path_895" data-name="Path 895" d="M948.678,766.29a25,25,0,0,1-2.512,1.028,12.616,12.616,0,0,1-2.946.583c-4.05.18-8.1.3-12.155.4-4.79.115-9.58.185-14.37.276-2.71.051-4.116-.824-4.956-3.471-1-3.158-1.819-6.374-2.7-9.569q-1.435-5.192-2.837-10.393a14.31,14.31,0,0,1-.543-2.7,3.974,3.974,0,0,1,3.386-4.34,11.709,11.709,0,0,1,1.926-.124c6.632-.149,13.262-.33,19.895-.415,3.13-.04,6.264.066,9.394.181a4.139,4.139,0,0,1,4.245,3.536c.4,1.7.653,3.438.947,5.163q1.623,9.53,3.223,19.064A4.78,4.78,0,0,1,948.678,766.29Zm-9.047-1.6c1.048,0,1.509-.022,1.967,0,3.45.188,5.584-2.4,4.507-6.055-.026-.088-.065-.173-.088-.262-.52-1.953-1.012-3.914-1.564-5.857a33.526,33.526,0,0,0-2.588-7.254,5.37,5.37,0,0,0-4.888-3.016c-3.765-.1-7.529-.262-11.29-.464-1.645-.089-3.28-.346-4.92-.518-.64-.067-1.282-.11-1.923-.167-3.361-.3-5.744,3.375-5.044,6.086a26.384,26.384,0,0,0,.77,2.643,69.3,69.3,0,0,1,2.942,9.471,18.108,18.108,0,0,0,1.314,3.618,4.112,4.112,0,0,0,4.646,2.682c2.473-.438,4.976-.118,7.415-.511C933.995,764.587,937.125,765.142,939.63,764.686Z" transform="translate(-877.507 -699.87)" fill="#fff"/>
      <path id="Path_896" data-name="Path 896" d="M1020.45,738.341a2.386,2.386,0,0,1-.224-2.241A1.7,1.7,0,0,1,1020.45,738.341Z" transform="translate(-925.982 -699.255)" fill="#fff"/>
      <path id="Path_897" data-name="Path 897" d="M945.536,767.282c-2.505.456-5.635-.1-8.744.4-2.44.392-4.943.073-7.415.51a4.111,4.111,0,0,1-4.646-2.682,18.1,18.1,0,0,1-1.314-3.618,69.3,69.3,0,0,0-2.942-9.471,26.372,26.372,0,0,1-.77-2.643c-.7-2.711,1.684-6.382,5.044-6.086.641.056,1.283.1,1.923.167,1.641.172,3.276.429,4.92.518,3.761.2,7.525.368,11.29.464a5.37,5.37,0,0,1,4.888,3.016,33.531,33.531,0,0,1,2.588,7.254c.553,1.944,1.045,3.9,1.564,5.857.024.089.062.173.088.262,1.077,3.651-1.057,6.243-4.507,6.055C947.045,767.26,946.583,767.282,945.536,767.282Z" transform="translate(-883.412 -702.466)" fill="#ffc829"/>
    </g>
    <g id="Layer_7_Image" data-name="Layer 7 Image" transform="translate(861.22 621.73)">
      <path id="Path_898" data-name="Path 898" d="M948.686,660.238c-27.077,1.759-54.083,3.53-81.339,4.128.452,3.346,1.545,6.366,2.243,9.472.726,3.233,1.5,6.454,2.239,9.686q1.073,4.712,2.1,9.434c.7,3.239,1.374,6.485,2.069,9.726q1.014,4.726,2.05,9.447,1.065,4.857,2.146,9.709c.7,3.138,1.395,6.274,2.122,9.546-1.448.6-2.756.27-4.143.119-.243-.951-.5-1.827-.689-2.718-3.137-14.864-6.3-29.723-9.376-44.6-1.211-5.86-2.236-11.758-3.309-17.646-.677-3.717-.577-4.139,2.381-6.368q9.38-7.068,18.878-13.979a11.278,11.278,0,0,0,3.656-4.314c4.171-8.464,10.944-13.45,20.425-14.487a3.461,3.461,0,0,0,2.567-1.335c.8-1,1.739-1.9,2.636-2.824a2.753,2.753,0,0,1,1.977-.845c1.2-.037,2.392-.142,3.589-.195.627-.028,1.256-.005,2.161-.005a36.221,36.221,0,0,1-3.58,2.244,13.2,13.2,0,0,0-3.085,2.577c.292.756.91.72,1.39.829a25.726,25.726,0,0,1,16.771,12.1c.241.391.5.773.751,1.154a1.283,1.283,0,0,0,.2.192,131.6,131.6,0,0,0,15.246-.452,14.81,14.81,0,0,0-.659-8.331,16.968,16.968,0,0,0-7.47-8.935c-.83-.5-1.673-.979-2.689-1.571,2.045-.077,3.882-.061,5.7-.244a3.551,3.551,0,0,1,2.973,1.1,20.656,20.656,0,0,1,6.958,15.126c.011.46-.017.921-.022,1.382,0,.36,0,.719,0,1.2a7.466,7.466,0,0,0,1.344.194q7.6-.294,15.191-.639c.544-.025,1.079-.205,1.623-.284a1.66,1.66,0,0,1,2.174,1.485c2.376,11.733,4.3,23.545,6.122,35.374,1.544,10.012,3.169,20.012,4.738,30.021.67,4.277,1.137,8.591,1.984,12.832a8.267,8.267,0,0,1-1.819,6.891c-.739-.085-.625-.663-.687-1.039-.726-4.361-1.425-8.726-2.123-13.091-1.411-8.821-2.844-17.639-4.216-26.466q-2.122-13.651-4.134-27.319c-.654-4.464-1.166-8.949-1.753-13.424a1.74,1.74,0,0,0-.242-.487c-.78-.327-1.162.357-1.628.709-5.44,4.109-10.853,8.251-16.29,12.361-1.393,1.053-2.847,2.023-4.411,3.128.07.555.118,1.18.23,1.793,1.413,7.7,2.96,15.371,4.225,23.092,1.907,11.632,3.62,23.3,5.411,34.947.406,2.64.806,5.281,1.183,7.925.089.62.073,1.255.115,2.076l-3.408.2c-.844-2.385-.913-4.786-1.333-7.113-.425-2.356-.746-4.731-1.092-7.1-.333-2.278-.622-4.563-.961-6.841-.353-2.368-.734-4.732-1.117-7.1s-.795-4.723-1.174-7.087-.745-4.73-1.1-7.1-.691-4.739-1.028-7.11c-.323-2.28-.655-4.559-.946-6.843-.3-2.375-.472-4.771-.866-7.131S949.46,662.646,948.686,660.238Zm-16.795-15.582-39.972,1a21.6,21.6,0,0,0-1.367,9.266c.029,1.8-.1,3.658.688,5.262a3.9,3.9,0,0,0,.737.146q14.206-.765,28.41-1.542c3.586-.193,7.174-.342,10.76-.536.8-.043,1.592-.192,2.484-.305C934.17,653.3,933.907,648.966,931.891,644.657Zm6.408,13.091c4.383.256,8.586-.462,12.845-.226l1.875-1.633c.626-.544,1.234-1.111,1.883-1.625s1.35-.962,2.01-1.463,1.3-1.029,1.947-1.548c.575-.462,1.145-.929,1.718-1.392.645-.521,1.29-1.043,1.94-1.559s1.3-1.025,1.957-1.536,1.322-1,1.958-1.534a6.846,6.846,0,0,0,1.853-1.744,3.4,3.4,0,0,0-1.993-.228c-4.5.335-9.007.348-13.507.582-4.673.243-9.376.356-14.068.424-.605.009-1.321-.144-1.773.739C938.447,649.01,938.6,653.3,938.3,657.748ZM912.926,631.4c-1.914,3.621-2.791,8.451-2.044,11.2q9.329-.421,18.685-.846a.382.382,0,0,0,.222-.112,1.076,1.076,0,0,0,.143-.233C927.242,635.786,919.611,631.245,912.926,631.4Zm-4.837,11.437a9.243,9.243,0,0,1-.388-5.646c.382-1.857.877-3.691,1.373-5.74a19.8,19.8,0,0,0-9.671,3.907,17.915,17.915,0,0,0-6.435,8.188C897.953,643.649,902.835,642.925,908.089,642.842Zm-21.236,6.334q-8.535,6.068-17.059,12.148c-.078.056-.01.316-.01.624l18.186-1.389C887.166,656.754,886.336,653.15,886.853,649.176Z" transform="translate(-864.462 -621.73)"/>
      <path id="Path_899" data-name="Path 899" d="M926.826,736.379H942.3c.46,0,.923-.017,1.381.022a2.155,2.155,0,0,1,2.305,1.941c.383,1.706.7,3.426,1,5.148,1.175,6.706,2.324,13.417,3.514,20.121a8.222,8.222,0,0,0,.676,1.766,1.576,1.576,0,0,1-.8,2.259,4.554,4.554,0,0,1-1.612.259q-14.091.022-28.183,0c-.735,0-1.474-.045-2.206-.118a3.681,3.681,0,0,1-3.529-2.961c-.82-3.208-1.763-6.387-2.517-9.61-1.11-4.747-2.112-9.52-3.131-14.287a13.467,13.467,0,0,1-.27-2.462,1.267,1.267,0,0,1,1.343-1.388l16.549-.535Zm21.489,28.034a8.1,8.1,0,0,0-.066-1.185q-2.531-11.7-5.086-23.418c-10.228-.156-20.33-.309-30.433-.456-.076,0-.155.088-.228.141s-.137.114-.366.308c2.7,8.184,4.482,16.716,7.024,24.964Z" transform="translate(-883.307 -670.314)"/>
      <path id="Path_900" data-name="Path 900" d="M951.071,661.518c2.016,4.309,2.279,8.646,1.74,13.285-.892.113-1.685.262-2.484.305-3.586.194-7.174.343-10.76.536q-14.206.763-28.41,1.542a3.9,3.9,0,0,1-.737-.146c-.784-1.6-.659-3.458-.688-5.261a21.6,21.6,0,0,1,1.367-9.266Z" transform="translate(-883.642 -638.591)" fill="#999"/>
      <path id="Path_901" data-name="Path 901" d="M991.605,673.547c.3-4.443.148-8.738-1.354-12.743.451-.882,1.167-.73,1.773-.739,4.692-.068,9.4-.181,14.068-.424,4.5-.234,9.012-.248,13.507-.583a3.4,3.4,0,0,1,1.993.228,6.844,6.844,0,0,1-1.853,1.744c-.636.531-1.3,1.023-1.958,1.534s-1.308,1.02-1.957,1.536-1.294,1.038-1.94,1.559c-.573.463-1.143.931-1.718,1.392-.646.52-1.286,1.047-1.947,1.548s-1.361.949-2.01,1.463-1.257,1.081-1.883,1.625l-1.876,1.633C1000.191,673.085,995.988,673.8,991.605,673.547Z" transform="translate(-917.768 -637.529)" fill="#999"/>
      <path id="Path_902" data-name="Path 902" d="M890.747,669.361c-.517,3.974.313,7.578,1.117,11.383l-18.186,1.389c0-.308-.069-.568.01-.624Q882.206,675.42,890.747,669.361Z" transform="translate(-868.356 -641.915)" fill="#999"/>
    </g>
  </g>
</svg>
