<svg id="Layer_1" data-name="Layer 1" xmlns="http://www.w3.org/2000/svg" viewBox="0 0 73.68 80.04"><defs><style>.cls-1{fill:#ffc829;}</style></defs><title>after</title><g id="Group_274" data-name="Group 274"><path id="Path_830" data-name="Path 830" class="cls-1" d="M71.43,46.38a62.29,62.29,0,0,0-.5-7.84c-.07-2.86-.14-5.73-.22-8.59a6.88,6.88,0,0,0-4.94-6.39,5.81,5.81,0,0,0-2.13-1.08,21.22,21.22,0,0,0-3.7-3.32C53.86,14.68,47.76,10.25,41.67,5.8a6.4,6.4,0,0,0-6.62,0A200.86,200.86,0,0,0,13.73,21.64a6,6,0,0,0-2,2.84,7,7,0,0,0-.65,2.87c-.05,2.18-.05,4.36,0,6.53A8.27,8.27,0,0,0,11,35.09c0,3.46,0,6.91.22,10.36-.14,1.61-.25,3.22-.28,4.86-.11,6.13-1,13.94.25,20-1,4,2.14,8.33,6.09,9.24,3,.69,6.38.41,9.39.33,3.43-.09,6.72-3,6.56-6.56a6.89,6.89,0,0,0-.39-2,4.63,4.63,0,0,0,.06-1q-.57-12-1.16-24l1.27,0L41.58,46l1.67.07a11.73,11.73,0,0,0,2.56,1.55c0,.28,0,.56,0,.84-.1,6.71-.55,13.67,0,20.38a6.82,6.82,0,0,0-.9,2.74L44.7,73c-.43,3.57,3.35,6.5,6.56,6.56l13.7.22a6.65,6.65,0,0,0,6.55-6.56C71.48,64.28,71.53,55.33,71.43,46.38ZM44.89,31.23a6.79,6.79,0,0,0-1.18,1.63l-.85,0q-6.3-.31-12.61-.28c.11-2.05.51-4.34.62-5.38a4.88,4.88,0,0,0-.38-2.3C31.72,24,33,23.1,34.22,22.2a7.16,7.16,0,0,0,2.31-.08,8.46,8.46,0,0,1,1.67,0A5.26,5.26,0,0,0,41,21.5l3.88,2.83c0,.33.06.65.11,1,.33,1.69.65,3.38,1,5.07Z" transform="translate(0 0)"/><g id="Group_271" data-name="Group 271"><path id="Path_831" data-name="Path 831" d="M1.35,28.19A1.76,1.76,0,0,0,2.06,28L5.4,25.57V76.11a1.13,1.13,0,0,0,1.06,1.2H67a1.14,1.14,0,0,0,1.19-1.06V25.57L71.57,28A1.19,1.19,0,1,0,73,26L60.72,17.1V4.47a1.13,1.13,0,0,0-1.06-1.2H53.33a1.13,1.13,0,0,0-1.19,1.06.33.33,0,0,0,0,.14V11L37.35.29a1.08,1.08,0,0,0-1.43,0L.63,26A1.29,1.29,0,0,0,.4,27.71,1.48,1.48,0,0,0,1.35,28.19ZM42.6,74.92H30.92V48.46H42.6ZM54.52,5.66h3.7v9.77l-3.7-2.74ZM36.76,2.56l29,21.22V74.92H45V47.26a1.12,1.12,0,0,0-1-1.19H29.72a1.13,1.13,0,0,0-1.19,1.06V74.92H7.67V23.78Z" transform="translate(0 0)"/><g id="Group_270" data-name="Group 270"><path id="Path_832" data-name="Path 832" d="M1.41,28.4c1.47-.49,3.88-2.11,3.56-2.57.52.75,0,4,0,4.89V72.26c0,2.37-.72,4.49,1.73,5.29,3.44,1.12,9.11,0,12.68,0H61.6c1.36,0,5.45.77,6.65-.5,1.55-1.63.41-7.5.41-9.4V45.43c0-6.1,0-12.2,0-18.3,0-2.16-.61-1.59.84-.2.76.72,2.08,1.75,3.22,1.34,4.13-1.5-6.27-7.46-7.28-8.19-1.62-1.18-3.61-2.13-4.29-3.87-1-2.61.18-7.11,0-9.92C61,4.4,61.43,3.86,59.7,3a17,17,0,0,0-6.43,0c-1.6.68-1.16.8-1.57,2.35s.14,3.37,0,4.9c-.06.67,1,.86-.35-.32C48.24,7.21,44.41,5,41,2.5,39.48,1.38,38.15-.31,36.09.05c-2.86.5-6.72,4.7-9,6.33L6.73,21.27C5.35,22.28-2.8,26.49,1,28.4c.25.12,1-.24.68-.42-2.94-1.47,8.08-8.28,9-9L28.64,5.93c2.6-1.9,6.2-6.16,9.25-4.79,4.87,2.2,9.5,6.9,13.85,10,.22.16.83.05.83-.28,0-1.54-.71-5,0-6.34s5.19-1.81,6.52-1.05c3.3,1.88.27,9.54,1.2,12.62.78,2.56,3.87,3.92,6.18,5.6,1.14.83,4.76,2.57,5.39,3.93,1.44,3.14-1.79.75-3.22-.27-.22-.16-.83,0-.83.28V69.62c0,1.52.59,4.6,0,6-1,2.53-5.54,1.4-8.13,1.4H17.8c-2.28,0-9,1.24-11,0-2.42-1.49-1-9.5-1-11.78V25.45c0-.25-.61-.07-.7,0A16.79,16.79,0,0,1,1.29,28C.79,28.15.89,28.58,1.41,28.4Z" transform="translate(0 0)"/><path id="Path_833" data-name="Path 833" d="M42.77,74.68c-2.9,0-8.11,1.1-10.72,0-1.21-.51-.26.46-.7-.69s0-3.43,0-4.55v-13c0-1.16-.4-7.77-.25-7.92s9.09-.39,10.37.15.25-.46.7.69,0,3.38,0,4.55V75c0,.27.86.1.86-.23V48.34c0-.1-.2-.13-.26-.13H31.08c-.21,0-.6.1-.6.36V75c0,.1.2.13.27.13H42.43C42.75,75.17,43.35,74.68,42.77,74.68Z" transform="translate(0 0)"/><path id="Path_834" data-name="Path 834" d="M54.35,5.9c.79,0,2.89-.4,3.52,0,.34.22-.18-.3-.08-.05a1.93,1.93,0,0,1,0,.48c0,.58,0,1.17,0,1.75v7.47l.83-.29-2.46-1.82c-.79-.58-1.09-.62-1.21-1.5a52.56,52.56,0,0,1,0-6.4c0-.26-.86-.1-.86.24V8.52a17.88,17.88,0,0,0,0,3.87c.34,1.35,2.58,2.37,3.73,3.21.21.17.83.05.83-.28V5.54c0-.1-.2-.13-.26-.13h-3.7C54.37,5.42,53.77,5.9,54.35,5.9Z" transform="translate(0 0)"/><path id="Path_835" data-name="Path 835" d="M36.36,2.72l26.07,19.1c2.8,2.05,2.87,1.93,2.87,5.33V64.48c0,1.66.73,9.75.25,10.36a46.88,46.88,0,0,0-5-.17h-11a37.94,37.94,0,0,1-4.13,0c-.7-.89,0-5.17,0-6.32,0-6.32.25-12.7,0-19-.15-4.14-1.71-3.48-5.64-3.48-2.25,0-9.5-1.43-11.31.57S28.1,56,28.1,58.26v10.3c0,1.46.68,4.91,0,6.22-.12.22,1-.44-.38-.1a16.39,16.39,0,0,1-3.43,0H13.77c-1,0-5.12.64-5.85,0,.2.17.18-2.44.18-2.84V32.33c0-3-.81-7.32.87-9.18,4-4.42,10.68-7.79,15.48-11.29L37.1,2.63c.39-.29-.47-.3-.69-.14L16.3,17.16c-3.42,2.5-8.94,4.4-9.06,8.87-.45,16.31,0,32.69,0,49,0,.1.2.13.26.13H28.37c.21,0,.6-.1.6-.36V55.76c0-2-.85-6.31,0-8.2,1-2.29,5.91-1.25,8.2-1.25s6.3-.93,7.38,1.33c.89,1.86,0,6.31,0,8.35V75c0,.1.2.13.27.13H65.56c.21,0,.6-.1.6-.36V26.33c0-1.6.11-2.07-.65-3.17-1.78-2.58-6.72-4.93-9.22-6.76l-19.13-14C36.91,2.21,36.12,2.56,36.36,2.72Z" transform="translate(0 0)"/></g></g><path id="Path_836" data-name="Path 836" d="M51.42,66.46h7.63a1.13,1.13,0,0,0,1.19-1.06.33.33,0,0,0,0-.14V52.51c-.11-2.27-2.26-4-5-4s-4.89,1.78-5,3.93V65.27A1.29,1.29,0,0,0,51.42,66.46Zm1.19-13.71h0c0-1.08,1.19-1.91,2.63-1.91s2.62.83,2.62,1.79V64.07H52.61Z" transform="translate(0 0)"/><path id="Path_837" data-name="Path 837" d="M15.06,66.46h7.63a1.13,1.13,0,0,0,1.19-1.06V52.51c-.11-2.27-2.26-3.93-5-3.93s-4.88,1.78-5,3.93V65.27A1.2,1.2,0,0,0,15.06,66.46Zm1.19-13.71h0c0-1.07,1.19-1.91,2.62-1.91s2.63.84,2.63,1.79V64.08H16.25Z" transform="translate(0 0)"/><g id="Group_273" data-name="Group 273"><path id="Path_838" data-name="Path 838" d="M29.6,33.08H43.91A1.12,1.12,0,0,0,45.1,32a.29.29,0,0,0,0-.13V27.24c-.11-3.7-3.81-6.44-8.34-6.44s-8.11,2.86-8.35,6.44v4.65a1.14,1.14,0,0,0,1.06,1.19Zm13.12-5.6V30.7H38V23.3c2.62.36,4.65,2.15,4.77,4.17Zm-11.92.24V27.6c0-2,2-3.82,4.77-4.18V30.7H30.8Z" transform="translate(0 0)"/><g id="Group_272" data-name="Group 272"><path id="Path_839" data-name="Path 839" d="M29.51,33.24c4.46,0,9,.2,13.42,0,.87,0,1.73.1,2.28-.76.72-1.12.29-4.36.11-5.7-.86-6.33-9.64-7.65-14.16-4.46a7.12,7.12,0,0,0-3,6.13c0,1.6-.69,4.3,1.3,4.78.19,0,.62-.23.31-.31-1.65-.4-1.14-4-1.08-5.18.19-4.21,3.93-6.68,8-6.74,5.87-.08,9.45,4.92,8.19,10.45-.57,2.46-5,1.47-7,1.47H29.7C29.49,32.92,29.16,33.24,29.51,33.24Z" transform="translate(0 0)"/><path id="Path_840" data-name="Path 840" d="M42.46,27.5v3.22l.36-.19H39.45a4.17,4.17,0,0,1-1.32,0c-.18-.08.17.27.08,0a2.35,2.35,0,0,1,0-.53V23.28l-.42.18c2.21.37,4.39,1.68,4.67,4.09,0,.19.54.07.52-.14-.29-2.49-2.6-3.87-4.87-4.26-.11,0-.42,0-.42.18v7.4a.15.15,0,0,0,.16.13h4.77c.09,0,.36-.05.36-.19V27.45C43,27.21,42.46,27.31,42.46,27.5Z" transform="translate(0 0)"/><path id="Path_841" data-name="Path 841" d="M31.06,27.68c0-2.23,1.84-3.22,3.66-3.94,1-.39.44-.34.58.2a6.09,6.09,0,0,1,0,1.35v5.43l.36-.19c-1.42-.07-2.85-.07-4.27,0-.29,0-.48-.13-.34.1-.09-.15,0-.6,0-.78V27.68c0-.23-.52-.13-.52.06v3c0,.09.08.13.17.13h4.77c.09,0,.35-.05.35-.19V23.39c0-.11-.13-.14-.23-.13-2.32.38-5.06,1.79-5.06,4.48C30.54,28,31.06,27.87,31.06,27.68Z" transform="translate(0 0)"/></g></g></g></svg>