<svg xmlns="http://www.w3.org/2000/svg" width="73.683" height="80.035" viewBox="0 0 73.683 80.035">
  <g id="Group_274" data-name="Group 274" transform="translate(-19.268 -17.255)">
    <g id="Layer_2" data-name="Layer 2" transform="translate(29.766 22.127)">
      <path id="Path_830" data-name="Path 830" d="M88.171,62.849a64.239,64.239,0,0,0-.5-7.841q-.111-4.294-.221-8.589a6.862,6.862,0,0,0-4.94-6.385,5.629,5.629,0,0,0-2.132-1.081,21.291,21.291,0,0,0-3.7-3.325C70.6,31.15,64.5,26.719,58.408,22.265a6.4,6.4,0,0,0-6.619,0,200.694,200.694,0,0,0-21.32,15.848,6.019,6.019,0,0,0-1.952,2.836,6.932,6.932,0,0,0-.65,2.867c-.048,2.179-.049,4.359-.029,6.538a7.182,7.182,0,0,0-.12,1.206c-.045,3.462.036,6.913.223,10.364-.149,1.607-.253,3.22-.284,4.853-.113,6.135-1.032,13.947.254,20.029-1.037,3.96,2.135,8.33,6.09,9.248,2.96.688,6.372.405,9.388.324,3.426-.092,6.719-2.951,6.557-6.557a7.193,7.193,0,0,0-.385-2,5.53,5.53,0,0,0,.06-1.055q-.583-12.023-1.165-24.044c.432-.024.857-.044,1.272-.055l8.591-.23c.557.025,1.114.041,1.671.069a11.451,11.451,0,0,0,2.56,1.552c0,.28-.014.56-.018.842-.1,6.712-.546,13.67-.02,20.377a7.038,7.038,0,0,0-.9,2.743l-.175,1.459c-.427,3.566,3.351,6.5,6.557,6.557l13.7.228A6.644,6.644,0,0,0,88.245,89.7C88.221,80.754,88.266,71.8,88.171,62.849ZM61.626,47.7a6.58,6.58,0,0,0-1.177,1.629c-.287.019-.559.025-.85.046-4.2-.21-8.4-.293-12.612-.274.107-2.057.507-4.341.622-5.384a4.867,4.867,0,0,0-.383-2.3q1.847-1.4,3.73-2.744a7.345,7.345,0,0,0,2.315-.085,9.414,9.414,0,0,1,1.669.036,5.269,5.269,0,0,0,2.829-.658L61.649,40.8a7.5,7.5,0,0,0,.112.97q.485,2.534.973,5.069Z" transform="translate(-27.235 -21.341)" fill="#ffc829"/>
    </g>
    <g id="Layer_1" data-name="Layer 1" transform="translate(19.268 17.255)">
      <g id="Group_271" data-name="Group 271">
        <path id="Path_831" data-name="Path 831" d="M20.587,45.44A1.694,1.694,0,0,0,21.3,45.2l3.338-2.384V93.366a1.126,1.126,0,0,0,1.192,1.192H86.277a1.126,1.126,0,0,0,1.192-1.192V42.818L90.807,45.2a1.192,1.192,0,0,0,1.431-1.908l-12.28-8.941V21.716a1.126,1.126,0,0,0-1.192-1.192h-6.2a1.126,1.126,0,0,0-1.192,1.192v6.557L56.591,17.543a1.088,1.088,0,0,0-1.431,0L19.872,43.294a1.282,1.282,0,0,0-.238,1.669A1.472,1.472,0,0,0,20.587,45.44Zm41.25,46.734H50.154V65.708H61.837ZM73.759,22.908h3.7v9.776l-3.7-2.742ZM56,19.808l28.97,21.221V92.174H64.221V64.515a1.126,1.126,0,0,0-1.192-1.192H48.961a1.126,1.126,0,0,0-1.192,1.192V92.174H26.906V41.029Z" transform="translate(-19.238 -17.251)"/>
        <g id="Group_270" data-name="Group 270">
          <path id="Path_832" data-name="Path 832" d="M20.675,45.659c1.472-.491,3.887-2.113,3.565-2.576.521.752,0,4.034,0,4.892V89.519c0,2.366-.721,4.49,1.724,5.286,3.439,1.122,9.11,0,12.688,0H80.871c1.354,0,5.446.765,6.646-.5,1.547-1.632.414-7.5.414-9.4V62.686c0-6.1-.044-12.2,0-18.3.015-2.159-.616-1.588.837-.206.758.722,2.08,1.756,3.217,1.345,4.135-1.5-6.269-7.461-7.272-8.19-1.62-1.18-3.617-2.135-4.292-3.866-1.017-2.612.175-7.11,0-9.929-.117-1.89.277-2.421-1.456-3.257a17.083,17.083,0,0,0-6.425.029c-1.6.684-1.165.807-1.567,2.35-.389,1.488.139,3.376,0,4.9-.062.677.964.86-.353-.317-3.114-2.783-6.943-5.039-10.323-7.493-1.544-1.121-2.88-2.809-4.938-2.451-2.86.5-6.722,4.7-8.962,6.338L26,38.527c-1.381,1.007-9.537,5.219-5.725,7.126.249.124,1.042-.24.687-.417-2.945-1.472,8.075-8.28,9.012-8.964l17.939-13.09c2.6-1.9,6.193-6.161,9.247-4.785,4.87,2.2,9.5,6.9,13.846,10.049.219.16.832.05.832-.284,0-1.537-.709-5.029,0-6.332.784-1.44,5.194-1.819,6.525-1.059,3.293,1.881.265,9.546,1.2,12.625.774,2.56,3.861,3.919,6.171,5.6,1.141.832,4.766,2.568,5.393,3.928,1.445,3.139-1.787.753-3.221-.271-.221-.159-.832-.051-.832.284V86.873c0,1.519.594,4.605,0,6.046-1.042,2.524-5.539,1.4-8.13,1.4H37.066c-2.278,0-9,1.24-11,0-2.414-1.491-.96-9.5-.96-11.785V42.706c0-.254-.609-.075-.7-.011A16.423,16.423,0,0,1,20.56,45.23C20.06,45.4,20.158,45.831,20.675,45.659Z" transform="translate(-19.268 -17.255)"/>
          <path id="Path_833" data-name="Path 833" d="M57.121,84.163c-2.9,0-8.107,1.1-10.72,0-1.211-.509-.253.455-.7-.69-.422-1.084,0-3.425,0-4.552V65.954c0-1.165-.4-7.767-.242-7.924.136-.132,9.086-.383,10.362.153,1.185.5.252-.457.7.69.423,1.084,0,3.382,0,4.552v21.1c0,.263.863.1.863-.231V57.824c0-.1-.2-.128-.263-.128H45.438c-.21,0-.6.093-.6.359V84.521c0,.1.2.128.263.128H56.785C57.108,84.649,57.7,84.163,57.121,84.163Z" transform="translate(-14.354 -9.483)"/>
          <path id="Path_834" data-name="Path 834" d="M64.922,22.283c.788,0,2.885-.4,3.516,0,.339.216-.181-.3-.083-.049a1.476,1.476,0,0,1,0,.48c-.033.578,0,1.171,0,1.75v7.467l.832-.284-2.454-1.82c-.792-.588-1.093-.626-1.211-1.5a49.84,49.84,0,0,1,0-6.4c0-.263-.863-.1-.863.231V24.9a17.763,17.763,0,0,0,0,3.875c.336,1.344,2.582,2.364,3.727,3.212.218.163.832.048.832-.284V21.924c0-.1-.2-.128-.263-.128h-3.7C64.935,21.8,64.341,22.283,64.922,22.283Z" transform="translate(-10.569 -16.383)"/>
          <path id="Path_835" data-name="Path 835" d="M54.49,19.6l26.077,19.1c2.8,2.048,2.862,1.924,2.862,5.325v37.33c0,1.658.736,9.753.259,10.358a48.666,48.666,0,0,0-5.037-.161H67.67a37.839,37.839,0,0,1-4.121-.036c-.706-.886,0-5.172,0-6.315,0-6.326.242-12.7,0-19.02-.159-4.144-1.714-3.48-5.643-3.48-2.251,0-9.5-1.432-11.315.563-1.767,1.936-.358,9.565-.358,11.874V85.438c0,1.463.682,4.912,0,6.217-.114.219,1.017-.434-.377-.1a16.6,16.6,0,0,1-3.432,0H31.907c-.974,0-5.122.647-5.854,0,.2.176.18-2.442.18-2.837V49.205c0-3.013-.807-7.316.87-9.177,3.988-4.422,10.678-7.79,15.482-11.292l12.651-9.23c.391-.285-.47-.3-.691-.141L34.438,34.034c-3.424,2.5-8.946,4.4-9.068,8.872-.447,16.312,0,32.692,0,49.011,0,.1.2.128.263.128H46.5c.21,0,.6-.093.6-.359V72.639c0-2.035-.849-6.309,0-8.2,1.031-2.291,5.918-1.251,8.209-1.251,2.192,0,6.3-.929,7.38,1.326.888,1.863,0,6.317,0,8.351V91.917c0,.1.2.128.263.128H83.693c.21,0,.6-.093.6-.359V43.211c0-1.6.108-2.077-.65-3.177-1.775-2.574-6.72-4.923-9.217-6.751L55.292,19.267C55.047,19.087,54.256,19.433,54.49,19.6Z" transform="translate(-18.134 -16.878)"/>
        </g>
      </g>
      <path id="Path_836" data-name="Path 836" d="M62.592,75.9h7.63a1.126,1.126,0,0,0,1.192-1.192V61.953C71.3,59.688,69.149,57.9,66.407,57.9s-4.888,1.788-5.007,3.934V74.71A1.282,1.282,0,0,0,62.592,75.9Zm1.192-13.71h0c0-1.073,1.192-1.907,2.623-1.907s2.623.835,2.623,1.788V73.518H63.784Z" transform="translate(-11.171 -9.444)"/>
      <path id="Path_837" data-name="Path 837" d="M32.092,75.883h7.63a1.126,1.126,0,0,0,1.192-1.192V61.934C40.8,59.669,38.649,58,35.907,58s-4.888,1.788-5.007,3.934V74.691A1.2,1.2,0,0,0,32.092,75.883Zm1.192-13.71h0c0-1.073,1.192-1.907,2.623-1.907s2.623.835,2.623,1.788V73.5H33.284Z" transform="translate(-17.033 -9.424)"/>
      <g id="Group_273" data-name="Group 273" transform="translate(28.023 20.653)">
        <path id="Path_838" data-name="Path 838" d="M44.292,46.98H58.6a1.126,1.126,0,0,0,1.192-1.192v-4.65c-.119-3.7-3.815-6.438-8.345-6.438s-8.107,2.861-8.345,6.438v4.65A1.126,1.126,0,0,0,44.292,46.98Zm13.114-5.6V44.6H52.637V37.2C55.26,37.561,57.287,39.35,57.406,41.376Zm-11.922.238V41.5c0-2.027,2.027-3.815,4.769-4.173V44.6H45.484Z" transform="translate(-42.711 -34.555)"/>
        <g id="Group_272" data-name="Group 272">
          <path id="Path_839" data-name="Path 839" d="M44.258,47.164c4.46,0,8.964.2,13.42,0,.877-.038,1.733.1,2.284-.755.722-1.127.293-4.363.11-5.706-.864-6.323-9.639-7.644-14.158-4.453a7.106,7.106,0,0,0-3.011,6.13c-.032,1.6-.688,4.3,1.3,4.775.185.044.613-.232.312-.305-1.657-.4-1.144-3.969-1.088-5.187.193-4.207,3.933-6.679,7.986-6.735,5.868-.08,9.452,4.914,8.184,10.452-.563,2.456-5.011,1.462-7.016,1.462H44.451C44.239,46.842,43.909,47.164,44.258,47.164Z" transform="translate(-42.774 -34.579)"/>
          <path id="Path_840" data-name="Path 840" d="M55.651,41.027v3.219l.356-.19h-3.36a4.276,4.276,0,0,1-1.322,0c-.182-.08.166.267.076,0a2.008,2.008,0,0,1,0-.528V36.8l-.416.181c2.207.376,4.391,1.682,4.666,4.089.021.194.542.075.517-.138-.284-2.487-2.593-3.867-4.871-4.256-.107-.018-.416.015-.416.181v7.392c0,.088.079.132.163.132h4.769c.092,0,.356-.048.356-.19V40.969C56.171,40.734,55.651,40.836,55.651,41.027Z" transform="translate(-41.215 -34.177)"/>
          <path id="Path_841" data-name="Path 841" d="M45.4,41.189c0-2.228,1.844-3.221,3.662-3.947.976-.39.447-.337.587.2a6.084,6.084,0,0,1,0,1.358v5.428l.356-.19a42.564,42.564,0,0,0-4.273,0c-.292.03-.477-.134-.333.1-.094-.151,0-.6,0-.783V41.189c0-.235-.52-.134-.52.057v2.98c0,.088.079.132.163.132h4.769c.092,0,.356-.048.356-.19V36.9c0-.116-.131-.147-.229-.13-2.32.374-5.06,1.784-5.06,4.479C44.882,41.482,45.4,41.38,45.4,41.189Z" transform="translate(-42.368 -34.159)"/>
        </g>
      </g>
    </g>
  </g>
</svg>
