<?xml version="1.0" encoding="utf-8"?>
<!-- Generator: Adobe Illustrator 23.0.6, SVG Export Plug-In . SVG Version: 6.00 Build 0)  -->
<svg version="1.1" id="Layer_1" xmlns="http://www.w3.org/2000/svg" xmlns:xlink="http://www.w3.org/1999/xlink" x="0px" y="0px"
	 viewBox="0 0 74.9 74" style="enable-background:new 0 0 74.9 74;" xml:space="preserve">
<style type="text/css">
	.st0{fill:#DA291C;}
	.st1{stroke:#000000;stroke-miterlimit:10;}
</style>
<g id="Group_282" transform="translate(-9.504 -9.271)">
	<g transform="translate(12.237 10.699)">
		<path id="Path_857" class="st0" d="M14,11.9C13.6,8.2,11.2,5,7.2,5c-3.3,0-7.3,3.2-6.9,6.9c0.9,6.5,0.3,13.3,0.1,19.8L0,52.9
			c-0.2,8.8,13.5,8.8,13.7,0l0.4-21.2C14.3,25.2,14.9,18.4,14,11.9z"/>
		<path id="Path_858" class="st0" d="M71.1,6.9c-0.4-3.5-2.8-7.1-6.9-6.9l-32,1.6c-4.4-0.1-8.6,0.7-10.2,5.8
			c-1.8,5.8-1.6,13.3-1.9,19.3c-0.5,13.3,0.3,26.6,2.4,39.7c0.5,2.9,3.9,5.1,6.6,5l26.4-0.7c3.7-0.1,8.6,0.6,11.9-1.5
			c3.5-2.2,3.8-5.9,3.9-9.7C71.7,42.2,73.3,24.2,71.1,6.9z"/>
	</g>
	<g transform="translate(9.504 9.271)">
		<g id="Group_279" transform="translate(20.044 0.027)">
			<path id="Path_859" d="M50.6,0.3H3.4c-1.7,0-3.1,1.4-3.1,3.1v67c0,1.7,1.4,3.1,3.1,3.1h47.2c1.7,0,3.1-1.4,3.1-3.1v-67
				C53.7,1.7,52.3,0.3,50.6,0.3z M16.7,12.5h20.6c2.3,0,4.1-1.9,4.1-4.1V7.2H47v58.9H7.1V7.2h5.5v1.2C12.6,10.7,14.5,12.5,16.7,12.5
				L16.7,12.5z M39.6,8.4c0,1.3-1,2.3-2.3,2.3l0,0H16.7c-1.3,0-2.3-1-2.3-2.3V7.2h25.2L39.6,8.4z M14.4,5.4V2.2h25.2v3.2H14.4z
				 M51.9,70.4c0,0.7-0.6,1.3-1.3,1.3H3.4c-0.7,0-1.3-0.6-1.3-1.3v-67c0-0.7,0.6-1.3,1.3-1.3h9.2v3.2H6.2c-0.5,0-0.9,0.4-0.9,0.9v0
				V67c0,0.5,0.4,0.9,0.9,0.9l0,0h41.7c0.5,0,0.9-0.4,0.9-0.9l0,0V6.3c0-0.5-0.4-0.9-0.9-0.9l0,0h-6.4V2.2h9.2
				c0.7,0,1.3,0.6,1.3,1.3L51.9,70.4L51.9,70.4z"/>
			<g id="Group_278" transform="translate(0)">
				<path id="Path_860" d="M50.7,0.2H9.2c-2,0-5.1-0.6-7.1,0.3c-2.3,1-2.1,3.4-2.1,5.4v60.3c0,1.8-0.5,4.5,0.6,6.1
					c1.4,2.1,5,1.5,7.2,1.5h32.7c3.1,0,6.6,0.4,9.7,0c5.4-0.8,3.5-9.5,3.5-13.4V6.8C53.9,3.9,54.4,1,50.7,0.2
					c-0.1,0-0.4,0.2-0.2,0.2c4,0.8,3,5.4,3,8.1v56.9c0,1.3,0.5,3.8,0,5c-1.6,4-5.9,3-9.2,3H13.4c-2.8,0-6.6,0.7-9.3,0
					c-3.6-1-3.5-3.2-3.5-6V11c0-2.2-0.5-5,0-7.2c0.9-4.3,5-3.3,8-3.3h42.1C50.7,0.5,51,0.2,50.7,0.2z"/>
				<path id="Path_861" d="M16.7,12.7c6.7,0,13.8,0.7,20.5,0c1.2,0,2.3-0.5,3.2-1.3c1-1,0.6-3.5,1.2-4.1c1.7-0.2,3.5-0.2,5.2,0
					c0,0.1-0.1,0.8,0,1.2c0.6,2.5,0,5.9,0,8.4v40.8c0,2.3,0.6,5.4,0,7.6c-0.2,0.7,0.1,0.6,0.1,0.6c-0.4,0.3-2.3,0-2.8,0H17.9
					c-2.8,0-7.1,0.8-9.8,0c-1.2-0.4-0.8-0.2-0.8-2.2V11.5c-0.1-1.1-0.1-2.3,0-3.4c0.4-1.3-0.6-0.3,0.9-0.7c0.6-0.1,3.3-0.3,3.8,0
					c0.7,0.4,0.3,0.8,0.5,1.7C12.9,11,14.6,12.5,16.7,12.7c0.2,0,0.4-0.2,0.1-0.3c-3-0.4-4-2.5-4-5.2c0-0.1-0.1-0.1-0.1-0.1
					c0,0,0,0,0,0H7.2c-0.1,0-0.3,0-0.3,0.1v58.9c0,0.1,0.1,0.1,0.1,0.1c0,0,0,0,0,0h39.9c0.1,0,0.3,0,0.3-0.1V7.2
					c0-0.1-0.1-0.1-0.1-0.1c0,0,0,0,0,0h-5.5c-0.1,0-0.3,0-0.3,0.1c0,6.9-9,5.2-13.2,5.2H16.8C16.6,12.4,16.4,12.7,16.7,12.7z"/>
				<path id="Path_862" d="M39.4,8.4c-1.1,3.9-11.3,2.2-14.1,2.2c-2.2,0-5.1,0.5-7.3,0c-1.5-0.3-4.8-2.5-2.8-3.2
					c1.5-0.5,4.2,0,5.7,0h15.7C38.2,7.3,39.4,6.7,39.4,8.4c0,0.2,0.4,0.1,0.4,0V7.2c0-0.1-0.1-0.1-0.1-0.1c0,0,0,0,0,0H14.5
					c-0.1,0-0.3,0-0.3,0.1c0,5.7,8.9,3.6,12.7,3.6c3.3,0,11.7,1.9,12.9-2.4C39.9,8.2,39.4,8.3,39.4,8.4z"/>
				<path id="Path_863" d="M14.6,5.4c0-2.6-0.9-3,1.6-3.1c2.7-0.1,5.4,0,8,0h10.3c0.8,0,4.4-0.4,4.9,0.1c0.1,0.1-0.1,3.2,0.2,2.9
					c-0.2,0.2-1.6,0-1.8,0c-2.8,0-5.7,0-8.5,0H14.5c-0.2,0-0.4,0.3-0.1,0.3h25.2c0.1,0,0.3,0,0.3-0.1V2.1c0-0.1-0.1-0.1-0.1-0.1
					c0,0,0,0,0,0H14.5c-0.1,0-0.3,0-0.3,0.1v3.2C14.2,5.6,14.6,5.5,14.6,5.4z"/>
				<path id="Path_864" d="M51.7,70.4c-0.8,2-4.5,1.2-6.2,1.2H7.2c-1.7,0-4.2,0.6-4.9-1.4c-0.5-1.4,0-3.9,0-5.4V13.2
					c0-2.7-0.2-5.4,0-8.1c0.3-3,1.7-2.9,4.7-2.9c1,0,4.4-0.6,5.2,0c0.3,0.2,0.1,1.1,0.1,1.5c0.1,1.7,0.2,1.1-0.9,1.5
					C9.6,5.9,6.1,4,5.1,6.3c-0.4,0.8,0,2.8,0,3.7v50.1c0,1.9-0.5,4.6,0,6.5c0.8,2.9,7.1,1.5,9.5,1.5h26.9c2.7,0,6.8,1.2,7.5-1.8
					c0.5-2.1,0-4.9,0-7.1V9.3c0-0.8,0.4-3-0.3-3.7c-1.7-1.8-6,1.1-7.1-1c-0.9-1.9,0.1-2.2,1.5-2.2c2-0.1,4.6-0.5,6.6,0
					c2.5,0.6,2,2,2,4.2L51.7,70.4c0,0.1,0,0.1,0.1,0.1c0,0,0,0,0,0l0,0c0.2,0,0.4-0.3,0.1-0.3c-0.6,0,1.3-59.9,0.1-66.2
					C51.4,0.3,44.6,2,41.5,2c-0.1,0-0.3,0-0.3,0.1v3.2c0,0.1,0.1,0.1,0.1,0.1c0,0,0,0,0,0c2,0,6.3-0.9,7.2,1.1c0.5,1.1,0,3.7,0,4.9
					v45.3c0,2.1,1.3,9.8-0.9,10.9c-1.3,0.7-4.7,0-6.1,0h-33c-1.5,0-2.6,0.3-3.2-1.2c-0.5-1.4,0-3.9,0-5.3V13.8c0-2-0.6-5,0-6.9
					c0.7-2.4,4.8-1.4,7.1-1.4c0.1,0,0.3,0,0.3-0.1V2.1c0-0.1-0.1-0.1-0.1-0.1c0,0,0,0,0,0H5.6C4.8,2,3.1,1.7,2.3,2.5
					C1.1,3.8,1.9,7.9,1.9,9.3v53c0,2.2-0.7,6,0,8.1c0.8,2.2,3.5,1.4,5.4,1.4h37.4c2.1,0,6.3,1,7.3-1.4
					C52.2,70.2,51.8,70.3,51.7,70.4z"/>
			</g>
		</g>
		<path id="Path_865" d="M59.2,26.5c2.1,0,3.8-1.7,3.8-3.8s-1.7-3.8-3.8-3.8c-2.1,0-3.8,1.7-3.8,3.8S57.1,26.5,59.2,26.5L59.2,26.5z
			 M59.2,20.8c1.1,0,2,0.9,2,2c0,1.1-0.9,2-2,2c-1.1,0-2-0.9-2-2C57.3,21.6,58.1,20.8,59.2,20.8L59.2,20.8z"/>
		<path id="Path_866" class="st1" d="M31.4,22.7c0,0.5,0.4,0.9,0.9,0.9l0,0h18.8c0.5,0,0.9-0.4,0.9-0.9s-0.4-0.9-0.9-0.9H32.3
			C31.8,21.8,31.4,22.2,31.4,22.7C31.4,22.7,31.4,22.7,31.4,22.7z"/>
		<path id="Path_867" d="M59.2,37c2.1,0,3.8-1.7,3.8-3.8s-1.7-3.8-3.8-3.8c-2.1,0-3.8,1.7-3.8,3.8S57.1,37,59.2,37L59.2,37z
			 M59.2,31.3c1.1,0,2,0.9,2,2c0,1.1-0.9,2-2,2c-1.1,0-2-0.9-2-2c0,0,0,0,0,0C57.3,32.1,58.1,31.3,59.2,31.3z"/>
		<path id="Path_868" class="st1" d="M51.1,32.3H32.3c-0.5,0-0.9,0.4-0.9,0.9s0.4,0.9,0.9,0.9h18.8c0.5,0,0.9-0.4,0.9-0.9
			S51.7,32.3,51.1,32.3z"/>
		<path id="Path_869" d="M59.2,47.5c2.1,0,3.8-1.7,3.8-3.8s-1.7-3.8-3.8-3.8c-2.1,0-3.8,1.7-3.8,3.8S57.1,47.5,59.2,47.5L59.2,47.5z
			 M59.2,41.8c1.1,0,2,0.9,2,2c0,1.1-0.9,2-2,2c-1.1,0-2-0.9-2-2c0,0,0,0,0,0C57.3,42.7,58.1,41.8,59.2,41.8L59.2,41.8z"/>
		<path id="Path_870" class="st1" d="M51.1,42.8H32.3c-0.5,0-0.9,0.4-0.9,0.9s0.4,0.9,0.9,0.9h18.8c0.5,0,0.9-0.4,0.9-0.9
			S51.7,42.8,51.1,42.8z"/>
		<path id="Path_871" d="M59.2,58.1c2.1,0,3.8-1.7,3.8-3.8s-1.7-3.8-3.8-3.8c-2.1,0-3.8,1.7-3.8,3.8S57.1,58.1,59.2,58.1L59.2,58.1z
			 M59.2,52.3c1.1,0,2,0.9,2,2c0,1.1-0.9,2-2,2c-1.1,0-2-0.9-2-2c0,0,0,0,0,0C57.3,53.2,58.1,52.3,59.2,52.3L59.2,52.3z"/>
		<path id="Path_872" class="st1" d="M51.1,53.3H32.3c-0.5,0-0.9,0.4-0.9,0.9s0.4,0.9,0.9,0.9h18.8c0.5,0,0.9-0.4,0.9-0.9
			S51.7,53.3,51.1,53.3z"/>
		<g id="Group_281">
			<path id="Path_873" d="M6.2,72.5c0,0.1,0.1,0.1,0.1,0.2c0.4,0.6,1.1,0.9,1.8,0.9l0,0c0.7,0,1.4-0.3,1.8-0.9
				c0-0.1,0.1-0.1,0.1-0.2l5.6-13.4c0-0.1,0.1-0.2,0.1-0.4V4.4c0-2.2-1.8-4-4-4H4.6c-2.2,0-4,1.8-4,4v54.3c0,0.1,0,0.2,0.1,0.4
				L6.2,72.5z M10.4,66.9H5.9l-3.2-7.6h10.9L10.4,66.9z M6.6,57.4V13.5h3.2v43.9H6.6z M4.7,57.4H2.4V13.5h2.3L4.7,57.4z M11.6,57.4
				V13.5h2.3v43.9H11.6z M13.9,11.7H2.4V9.5h11.5L13.9,11.7z M8.4,71.6c-0.1,0.1-0.2,0.1-0.3,0.1c-0.1,0-0.2,0-0.3-0.1l-1.2-2.9h3
				L8.4,71.6z M4.6,2.2h7.1c1.2,0,2.2,1,2.2,2.2v3.3H2.4V4.4C2.4,3.2,3.4,2.2,4.6,2.2z"/>
			<g id="Group_280">
				<path id="Path_874" d="M6,72.6c3.1,5.4,6.8-6.2,7.2-7.2c1.6-3.9,2.7-6.2,2.7-10.2V11.5c0-3,1.1-8.9-2-10.8
					C11.7-0.5,8,0.1,5.7,0.2S1.3,0.8,0.5,3.3c-1.1,3.5-0.1,8.5-0.1,12.1v23.8c0,6.2-0.7,12.8,0,19C0.9,62.9,4.2,68.1,6,72.6
					c0.1,0.1,0.5,0,0.4-0.1C4.7,68.2,1.8,63.5,0.8,59c-0.6-3-0.1-6.5-0.1-9.5V10.6c0-4.2-1.2-9.2,4.9-10.1c3.5-0.5,9-0.3,9.8,4
					c0.1,1.3,0.1,2.6,0,3.9v37.8c0,3.9,0.7,8.5,0,12.4c-0.4,2.1-1.7,4.3-2.5,6.3c-0.2,0.5-4,12-6.6,7.5C6.3,72.2,5.9,72.4,6,72.6z"
					/>
				<path id="Path_875" d="M10.4,66.7H8.6c-0.8,0.1-1.7,0.1-2.5,0c-0.2-0.2-0.3-0.5-0.4-0.8l-0.8-2c-0.8-1.5-1.4-3-1.9-4.6
					c0-0.3-0.5,0,0.2,0c0.6,0,1.3,0,1.9,0h5.6c0.7,0,1.5,0,2.2,0c0.2,0,0.4,0,0.5,0c0.3,0.2,0-0.3,0-0.1c0.1,0.3-0.4,1.1-0.6,1.4
					l-1.1,2.6l-1.5,3.6c-0.1,0.2,0.3,0.2,0.4,0l3.2-7.6c0-0.1-0.1-0.2-0.2-0.2H2.7c-0.1,0-0.3,0.1-0.2,0.2l3.2,7.6
					C5.7,67,5.8,67,5.8,67h4.6C10.6,67,10.7,66.7,10.4,66.7z"/>
				<path id="Path_876" d="M6.8,57.4V17c0-1.9-0.8-4.1,1.7-3.4c1.7,0.5,0.5-0.5,1,0.6c0.3,0.7,0,2.5,0,3.3v36.6
					c0,3.4,0.5,3.1-2.9,3.1c-0.2,0-0.3,0.3,0,0.3h3.2c0.1,0,0.2-0.1,0.2-0.2V13.5c0-0.1-0.1-0.1-0.2-0.1H6.6c-0.1,0-0.2,0.1-0.2,0.2
					v43.9C6.4,57.6,6.8,57.6,6.8,57.4z"/>
				<path id="Path_877" d="M4.8,57.3c-2.8,0-2.2-0.2-2.2-2.9V19.7c0-0.9-0.7-5.3,0-6c0.6-0.1,1.3-0.1,1.9,0c0.2,0.3,0,1.8,0,2.1
					v41.6c0,0.2,0.4,0.2,0.4,0V13.5c0-0.1-0.1-0.1-0.2-0.1H2.4c-0.1,0-0.2,0.1-0.2,0.2v43.9c0,0.1,0.1,0.1,0.2,0.1h2.3
					C4.9,57.5,5,57.3,4.8,57.3z"/>
				<path id="Path_878" d="M11.8,57.4V17.8c0-1.6-0.4-3.8,0.5-4.2c2.2-0.9,1.4,2.3,1.4,3.6v35.8c0,0.9,0.4,2.8,0,3.6
					c-0.5,1-0.5,0.6-2.1,0.6c-0.2,0-0.3,0.3,0,0.3h2.3c0.1,0,0.2-0.1,0.2-0.2V13.5c0-0.1-0.1-0.1-0.2-0.1h-2.3
					c-0.1,0-0.2,0.1-0.2,0.2v43.9C11.4,57.6,11.8,57.6,11.8,57.4z"/>
				<path id="Path_879" d="M13.9,11.5H6.8c-1.3,0.1-2.6,0.1-3.8,0c-0.7-0.1-0.2,0.2-0.4-0.2c-0.1-0.2,0-1.8-0.1-1.7c0,0,2,0,2.4,0
					h4.8c1,0,2.8-0.4,3.7,0c0.7,0.3,0-0.3,0.3,0.2c0.1,0.6,0.1,1.2,0,1.9c0,0.2,0.4,0.2,0.4,0V9.5c0-0.1-0.1-0.1-0.2-0.1H2.4
					c-0.1,0-0.2,0.1-0.2,0.2v2.2c0,0.1,0.1,0.1,0.2,0.1h11.5C14.1,11.8,14.2,11.5,13.9,11.5z"/>
				<path id="Path_880" d="M8.3,71.5C8,71.7,8,71.4,7.9,71.1l-0.4-1l-0.6-1.5l-0.2,0.2h3l-0.2-0.2l-1.2,2.9c-0.1,0.2,0.3,0.2,0.4,0
					l1.2-2.9c0-0.1-0.1-0.2-0.2-0.2h-3c-0.1,0-0.3,0.1-0.2,0.2l0.9,2.1c0.2,0.6,0.4,1.4,1.2,0.9C8.8,71.6,8.5,71.4,8.3,71.5z"/>
				<path id="Path_881" d="M4.6,2.3c2.3-0.2,4.5-0.2,6.8,0c3,0.4,2.1,2.4,2.3,4.3c0.1,1.1,0.2,0.8-1,0.8H4.4c-0.5,0-1.9-0.1-1.8,0.1
					c-0.2-0.3,0-1.6,0-2C2.6,4.3,2.4,2.6,4.6,2.3c0.2,0,0.3-0.3,0-0.3c-3,0.4-2.4,3.3-2.4,5.6c0,0.1,0.1,0.1,0.2,0.1h11.5
					c0.1,0,0.2-0.1,0.2-0.2c0-2.2,0.6-5.3-2.4-5.6C9.3,1.9,7,1.9,4.6,2C4.4,2,4.3,2.3,4.6,2.3z"/>
			</g>
		</g>
	</g>
</g>
</svg>
