<svg id="Layer_1" data-name="Layer 1" xmlns="http://www.w3.org/2000/svg" viewBox="0 0 82.51 87.3"><defs><style>.cls-1{fill:#638dc9;}</style></defs><title>during</title><g id="Group_277" data-name="Group 277"><path id="Path_842" data-name="Path 842" class="cls-1" d="M81.81,33.22c-.34-6.46,1.19-17.9-5.32-21.8-3.88-2.32-9.66-1.42-14-1.5L47.81,9.64,18.43,9.08a6.88,6.88,0,0,0-5,1.95A7.4,7.4,0,0,0,9.32,17.3c-.5,7-2,16.8,2.7,22.23a90.69,90.69,0,0,0-1.74,18c0,4,.2,8,.48,12s0,8.72,1.68,12.3c3.39,7.15,14.35,5.25,20.82,5.39,8.4.19,16.81.19,25.19-.37,4.21-.28,8.4-.73,12.59-1.31,3.51-.48,6.95-.89,9.27-3.9s2-6.46,2.09-9.89q.15-6.74.12-13.47Q82.46,45.72,81.81,33.22Z" transform="translate(-0.01 0)"/><g id="Group_276" data-name="Group 276"><path id="Path_843" data-name="Path 843" d="M76.55,44.42H74.61v-3.1a9.33,9.33,0,0,0,3.28-7.1V9.12a3,3,0,0,0-3-2.95H53.55V3.9A33.92,33.92,0,0,1,56.78,5a.9.9,0,0,0,.37.07,1,1,0,0,0,.37-1.93A48.88,48.88,0,0,0,40.63.16c-6.92,0-13.4,1.11-17.33,3A1,1,0,1,0,24.14,5h0A21.44,21.44,0,0,1,27,3.87V6.18H6.58A3,3,0,0,0,3.63,9.12v25.1a9.35,9.35,0,0,0,3.27,7.1v3.1h-2A4.19,4.19,0,0,0,.73,48.61V69A4.18,4.18,0,0,0,4.9,73.13h2v1.94a5.38,5.38,0,0,0,5.36,5.37h57a5.38,5.38,0,0,0,5.36-5.37V73.13h1.94A4.18,4.18,0,0,0,80.73,69V48.61A4.19,4.19,0,0,0,76.55,44.42Zm0,2a2.19,2.19,0,0,1,2.18,2.19v5.33H74.61V46.42ZM29,3.36a53.1,53.1,0,0,1,11.65-1.2A49.76,49.76,0,0,1,51.58,3.41a.31.31,0,0,0,0,.13V6.18H29V3.54A.57.57,0,0,0,29,3.36ZM5.63,34.22V9.12a1,1,0,0,1,1-.95H74.94a1,1,0,0,1,1,.95v25.1a7.4,7.4,0,0,1-7.38,7.38H45.2V36.45a1,1,0,0,0-1-1H37.07a1,1,0,0,0-1,1V41.6H13A7.39,7.39,0,0,1,5.63,34.22ZM39.37,47.74a1.3,1.3,0,0,1-1.3-1.3v-9H43.2v9a1.3,1.3,0,0,1-1.3,1.3ZM4.9,46.42h2v7.52H2.73V48.61A2.19,2.19,0,0,1,4.9,46.42Zm0,24.71A2.18,2.18,0,0,1,2.73,69v-13H6.9V71.13Zm4,3.94V42.64a9.27,9.27,0,0,0,4.1,1H36.07v2.85a3.3,3.3,0,0,0,3.3,3.3h.23v28.7H12.27A3.37,3.37,0,0,1,8.9,75.07Zm60.35,3.37H41.6V49.74h.3a3.3,3.3,0,0,0,3.3-3.3V43.59H68.51a9.24,9.24,0,0,0,4.1-1V75.07a3.38,3.38,0,0,1-3.36,3.37Zm7.3-7.3H74.61V55.94h4.12V69a2.18,2.18,0,0,1-2.18,2.18Z" transform="translate(-0.01 0)"/><g id="Group_275" data-name="Group 275"><path id="Path_844" data-name="Path 844" d="M76.79,44.27c-4.6,0,1-6.34,1.35-8.72a35.36,35.36,0,0,0,.11-5.73c0-6.56.4-13.26,0-19.81-.32-5.27-5.56-4-9.5-4H58.48c-.93,0-3,.4-3.83,0-.2-.09-.63.12-.81,0a2.32,2.32,0,0,0,.07-1.08c-.24-1,.12-1.12,1.1-.36.81,0,2.74,1.46,3.4-.19C59.37,2,51,1,49.93.83A55.06,55.06,0,0,0,33.52.43c-2,.24-9.18.7-10.55,2.73-1,1.43-.34,1.72,1.13,1.93.93.13,3.57-1.93,2.56.83-.63,1.7.94-.42.35.1-.2.19-1.5,0-1.76,0-5.89.14-12.56-1-18.37,0-3.83.65-3.6,3.5-3.6,6.76,0,6.78-.13,13.57,0,20.35.05,2.92,1,4.87,2.36,7.4.88,1.59,1.46,3.14.51,3.74-.41.26-2.1.08-2.59.25C-1.15,46.18.38,53.62.38,57.41S-1.52,71.32,3.3,73.07c1.11.4,2.57-.13,3.26.67s.13,3.5,1.2,4.82c1.35,1.68,3.09,2,5.08,2,12.45.46,25,0,37.46,0,5.87,0,11.78.18,17.66,0A8.85,8.85,0,0,0,71.83,80a5.82,5.82,0,0,0,2.6-2.59c.83-1.71,0-.59.55-2.4s-.73-1,.85-1.68c2.13-1,4-.07,5-3.08.75-2.07.22-5.12.22-7.22,0-4.88,2.53-17.62-4.24-18.71-.18,0-.8.25-.59.29,5.92,1,4.11,10,4.11,14.31,0,4.95,2,14.1-5.53,14.1-.14,0-.6,0-.6.25,0,8.21-6.88,7-12.57,7H18.62C13,80.28,7.27,80.69,7.27,73c0,0-.11,0-.13,0-3.57,0-5.89-1.41-6-5.06-.12-2.74,0-5.51,0-8.26V50.83a11.24,11.24,0,0,1,0-2.17,5.54,5.54,0,0,1,5.59-4.08c.14,0,.6,0,.6-.26a12.29,12.29,0,0,0,0-3.09c-.64-2-2.79-3.3-3.18-5.72A32.71,32.71,0,0,1,4,30.56v-18c0-2.4-.64-5.33,2.42-6.25,1.49-.45,3.84,0,5.38,0h15c.14,0,.6,0,.6-.25V3.77c0-.14-.46,0-.49,0-3.43,1.15.13-1.67,1.64-2.2A23.15,23.15,0,0,1,33.28.75,54.05,54.05,0,0,1,45.07.54a53,53,0,0,1,8.75,1.58,7.61,7.61,0,0,1,2.41.76c3.54,3.34-1.83,1-2.38.87-.14,0-.66,0-.66.25V6.27s.11.06.13.06h15c1.9,0,4.35-.43,6.2,0,3.5.81,3,2.9,3,5.44V30c0,1.42.1,2.88,0,4.3-.21,3.17-.84,3.45-2.3,6.1-.17.3-.88.64-1,1a14.7,14.7,0,0,0,0,3.11c0,.05.11.06.13.06h1.94C76.49,44.58,77.15,44.27,76.79,44.27Z" transform="translate(-0.01 0)"/><path id="Path_845" data-name="Path 845" d="M76.32,46.58c2.25.2,2.05,2.29,2.05,3.92V54l.6-.25h-3.3a2.91,2.91,0,0,1-.59,0c-.32-.16,0,.12-.1,0a3.11,3.11,0,0,1,0-1V46.32l-.6.26h1.94c.17,0,.83-.31.47-.31H74.85c-.14,0-.6,0-.6.25V54s.11.06.13.06H78.5c.14,0,.6-.05.6-.26V49.52c0-1.65-.39-3.08-2.31-3.25C76.62,46.25,76,46.55,76.32,46.58Z" transform="translate(-0.01 0)"/><path id="Path_846" data-name="Path 846" d="M28.91,3.5A53.45,53.45,0,0,1,43.78,2.44c1.53.11,5.83,0,6.77,1,1.26,1.32-.36-.54.64,1.13.23.39-.28,2,.41,1.46-.19.14-1.1,0-1.33,0-1.53,0-3.06,0-4.6,0H33.1c-.62,0-2.94.35-3.46,0s-.11-1.77-.3-2.76c0-.17-.76,0-.73.19a14.76,14.76,0,0,1,0,2.82c0,.05.11.06.13.06H51.32c.14,0,.6,0,.6-.25a14.64,14.64,0,0,1,0-2.73.07.07,0,0,0-.06-.09,54.73,54.73,0,0,0-22.83,0C28.75,3.27,28.4,3.61,28.91,3.5Z" transform="translate(-0.01 0)"/><path id="Path_847" data-name="Path 847" d="M6,34.12V12.58C6,10.67,5.47,9,7.13,8.33s4.88,0,6.58,0H65.3c3.06,0,9.65-1.58,10.23,2.08s0,8.07,0,11.85.21,7.55,0,11.28c-.61,10.83-16.32,7.9-23.75,7.9a25.55,25.55,0,0,1-4.79,0c-1.78-.36-1.2.42-1.43-1.57-.44-3.88.51-4.57-3.74-4.57-1.85,0-5.15-.86-6.11,1.21-.61,1.34.71,3.68,0,5,0,0,.75-.39-.24,0a8.33,8.33,0,0,1-2.23,0h-15c-5.52,0-11.6-.22-12.24-7.32,0-.15-.74,0-.72.2.7,7.77,7.45,7.43,13.34,7.43H35.84c.14,0,.6,0,.6-.25,0-1.23-.43-3.52,0-4.63.71-1.88,2.58-1.26,4.45-1.26,4.67,0,4,2,4,6.08,0,.05.11.06.13.06H63.66c4.28,0,9,.46,11.58-3.87s1-12.5,1-17.3c0-2.37,1.48-11.35-1.09-12.56C72.9,7,67.45,8,65.05,8H20.83c-4.31,0-9.07-.58-13.35,0-3.07.42-2.21,2.72-2.21,5.5v20.8C5.27,34.45,6,34.34,6,34.12Z" transform="translate(-0.01 0)"/><path id="Path_848" data-name="Path 848" d="M39.67,47.59c-1.94-.39-1.24-4-1.24-5.33v-4.9l-.6.25a34.54,34.54,0,0,1,4.55,0c.73.1.33-.2.45.5a13.06,13.06,0,0,1,0,2.34c0,1.8.07,3.62,0,5.42-.07,2-1.58,1.72-3.23,1.72-.17,0-.82.31-.47.31,2,0,4.3.46,4.43-2.11.13-2.8,0-5.63,0-8.43,0,0-.11-.06-.13-.06H38.31c-.14,0-.6.05-.6.25v5.7c0,1.53-.62,4.24,1.36,4.64C39.25,47.92,39.88,47.64,39.67,47.59Z" transform="translate(-0.01 0)"/><path id="Path_849" data-name="Path 849" d="M4.67,46.58c.56,0,1.79-.09,1.88.07a7.52,7.52,0,0,1,0,2.32V54l.59-.25H4.46c-.23,0-1.18.15-1.39,0,0,0,0-.14,0-.43.1-1.6-.9-6.55,1.66-6.78.2,0,.78-.36.31-.31-3.75.34-2.69,5.11-2.69,7.77,0,0,.11.06.13.06H6.67c.14,0,.6-.05.6-.25V46.33s-.1-.06-.12-.06h-2C5,46.27,4.31,46.58,4.67,46.58Z" transform="translate(-0.01 0)"/><path id="Path_850" data-name="Path 850" d="M5.2,71c-3.1-.5-2.1-5.5-2.1-7.76V55.84l-.61.26c.77,0,3.74-.33,4.05.06.51.64,0,3.74,0,4.54V71.23l.6-.25h-2c-.14,0-.6,0-.6.25h0c0,.13.72,0,.72-.19h0l-.6.25h2c.14,0,.6-.05.6-.25V55.84s-.11-.06-.13-.06H3c-.14,0-.6,0-.6.26v8.54c0,2.31-.85,6.2,2.24,6.7C4.79,71.31,5.41,71,5.2,71Z" transform="translate(-0.01 0)"/><path id="Path_851" data-name="Path 851" d="M9.27,75V48.18c0-1.18-.52-3.81,0-4.86.75-1.52-1.29.35.63,0a20,20,0,0,1,3.09.45c4.56.26,9.2,0,13.77,0h7c2.63,0,1.62,0,2,2.49a4.21,4.21,0,0,0,1,2.66c-1.1-1.1,3.55,2.74,2.44,1,.39.61.1,2.52.1,3.38V76a10.91,10.91,0,0,1,0,2c-.21.9.71,0,.3.27-1.06.59-4.36,0-5.53,0H24.7c-3.78,0-14.38,1.9-15.43-3.31,0-.17-.77,0-.73.19,1.08,5.35,9.81,3.43,13.78,3.43h17c.14,0,.6,0,.6-.25V49.64s-.11-.06-.13-.06c-4,0-3.4-3.7-3.4-6.08,0,0-.11-.06-.13-.06H23.79c-4.6,0-10.22.81-14.59-.95-.14-.06-.65,0-.65.24V75.16C8.55,75.3,9.27,75.19,9.27,75Z" transform="translate(-0.01 0)"/><path id="Path_852" data-name="Path 852" d="M69.48,78.28H49c-1.41,0-5.25.73-6.47,0-.89-.53-.35.15-.57-1.4a47.1,47.1,0,0,1,0-6.72V53.41c0-.71-.42-3.09,0-3.72-.64,1,2.31-.64,2.6-.94,1-1,.75-5.29.46-5,.57-.58,4.6,0,5.4,0,5.52,0,11,.09,16.56,0a16.67,16.67,0,0,0,3-.15c2.32-.47,2.27-1.36,2.27,1.19V62.88c0,3.38,1.89,14.43-2.94,15.41-.29.06-.63.4-.13.29C75,77.4,73,68.55,73,64.12V42.54c0-.14-.45,0-.49,0-4.55,1.83-10.62.89-15.4.89H45.43c-.14,0-.59,0-.59.26,0,2.16.56,5.89-3,5.89-.14,0-.6.05-.6.25v28.7s.11.06.13.06H69C69.18,78.59,69.84,78.28,69.48,78.28Z" transform="translate(-0.01 0)"/><path id="Path_853" data-name="Path 853" d="M76.79,71c-1.65,0-1.76.38-1.81-1.13-.06-1.73,0-3.48,0-5.22V55.84l-.6.26c.63,0,3.74-.33,4,0,.44.55,0,3.19,0,3.88,0,2,1.3,10.54-1.75,11-.3.05-.63.37-.12.29,3-.49,2.6-3.12,2.6-5.54v-9.9s-.11-.06-.13-.06H74.85c-.14,0-.6,0-.6.26V71.23s.11.06.13.06h1.94C76.49,71.29,77.15,71,76.79,71Z" transform="translate(-0.01 0)"/></g></g><path id="Path_854" data-name="Path 854" d="M24.94,15.83H56.58a1,1,0,0,0,0-2H24.94a1,1,0,0,0,0,2Z" transform="translate(-0.01 0)"/><path id="Path_855" data-name="Path 855" d="M32.07,53.94H15.76a1,1,0,0,0-1,1V67.87A5.27,5.27,0,0,0,20,73.13h7.78a5.27,5.27,0,0,0,5.26-5.26V54.94a1,1,0,0,0-1-1Zm-1,2V60H16.76V55.94ZM27.81,71.13H20a3.28,3.28,0,0,1-3.27-3.26V62H31.07v5.84A3.26,3.26,0,0,1,27.81,71.13Z" transform="translate(-0.01 0)"/><path id="Path_856" data-name="Path 856" d="M65.51,53.94H49.2a1,1,0,0,0-1,1V67.87a5.27,5.27,0,0,0,5.27,5.26h7.77a5.27,5.27,0,0,0,5.27-5.26V54.94A1,1,0,0,0,65.51,53.94Zm-1,2V60H50.2V55.94ZM61.24,71.13H53.47a3.28,3.28,0,0,1-3.27-3.26V62H64.51v5.84A3.28,3.28,0,0,1,61.24,71.13Z" transform="translate(-0.01 0)"/></g></svg>