<svg id="Layer_1" data-name="Layer 1" xmlns="http://www.w3.org/2000/svg" viewBox="0 0 105.88 138.27"><defs><style>.cls-1{fill:#fff;}.cls-2{fill:#a37f71;}.cls-3{fill:#da291c;}.cls-4{stroke:#000;stroke-miterlimit:10;}.cls-5{fill:#070606;}</style></defs><title>henry</title><g id="Group_269" data-name="Group 269"><g id="Group_268" data-name="Group 268"><path id="Path_796" data-name="Path 796" class="cls-1" d="M52.74,135a12.71,12.71,0,0,0,6-1.62,7.82,7.82,0,0,0,3.58-7.8,24.45,24.45,0,0,0-1.69-4.92c-.27-.65-.57-1.18-.25-1.89a.77.77,0,0,0-.23-.72c-1.07-.75-1.84-1.86-3.16-2.32a5.8,5.8,0,0,1-1.75-1.48,13.21,13.21,0,0,0-5.74-3.19,23.93,23.93,0,0,0-7.44-.72,23,23,0,0,0-11.5,3.49,13,13,0,0,0-6.23,9.29,1,1,0,0,0,.38.87c1,.45.85,1.24.7,2-.19,1.06-.5,2.09-.74,3.14-.55,2.4.37,4.39,2.65,5.2s4.87,1.38,7.35.32a3,3,0,0,1,2.89.25A8.92,8.92,0,0,0,43,136.05a14,14,0,0,0,3.79-1.24,4.45,4.45,0,0,1,2.83-.32C50.77,134.72,51.89,134.86,52.74,135Z" transform="translate(0 -0.04)"/><path id="Path_797" data-name="Path 797" class="cls-1" d="M17.5,14.88l-.31-.08.22.17c.47.61.9,1.25,1.4,1.82a1.72,1.72,0,0,1,.34,2c-.34.7-1.06.49-1.67.46a3.69,3.69,0,0,0-3.84,2,17.36,17.36,0,0,0-1.16,3,4.41,4.41,0,0,1-2.25,3c-.73.38-1.43.83-2.17,1.18a2.31,2.31,0,0,0-1.19,1.52c-.43,1.29,0,2.54.14,3.79s.06,1.88-1,2.6a18.48,18.48,0,0,0-1.7,1,8.3,8.3,0,0,0-1.68,1.77c-.35.53,0,1,.66.9a2.38,2.38,0,0,1,2.57,1.53,2.28,2.28,0,0,1-.11,2.31,13.88,13.88,0,0,0-1.2,6.6A19.15,19.15,0,0,0,6.32,57.6a12.61,12.61,0,0,1,1,3c.21,1.43.69,2.89,0,4.36-.62,1.21-.6,1.28.58,2.06a2.53,2.53,0,0,1,1.21,2.3A79.05,79.05,0,0,1,8,80.87a6.81,6.81,0,0,0,1.08,4.94A19.18,19.18,0,0,0,11,88a3.38,3.38,0,0,1,1.18,2.26,4.65,4.65,0,0,0,.3,1.18,2.55,2.55,0,0,0,2.46,2,4.71,4.71,0,0,1,3.37,1.26,3.46,3.46,0,0,0,.94.52A21.81,21.81,0,0,0,25,96.77a6.19,6.19,0,0,0,3.74-.58,4.69,4.69,0,0,0,2.63-3.6c.16-.91.55-1.42,1.52-1.34l.26.36A6.9,6.9,0,0,1,28.7,98a1.36,1.36,0,0,0-1.1,1.54c0,1.68.1,3.4-1,4.9,0,.07.1.39.18.39a34.82,34.82,0,0,0,3.52.3c6.92.09,13.83.2,20.74-.27.87-.06,1.76,0,2.63,0,2.4-.25,4.78-.6,7.18-.83a49.59,49.59,0,0,0,9.18-1.83,77,77,0,0,0,16.86-7.07A34.24,34.24,0,0,0,94,89.93c.5-.49.74-.92.35-1.6-.57-1-1-2-1.6-3a1,1,0,0,0-.74-.35c-2.47.32-4.8-.47-7.14-1a5.33,5.33,0,0,1-3.58-2.49c-.29-.48-.42-1,.13-1.36a.93.93,0,0,1,1.27.28,1.28,1.28,0,0,1,.11.24A2.79,2.79,0,0,0,85.1,82.3c1.4.31,2.8.6,4.2.92a5.43,5.43,0,0,0,6-2.16,42.16,42.16,0,0,1,3.34-4.52,19.64,19.64,0,0,0,2.05-3.26,6.14,6.14,0,0,0,.73-3.57,35.42,35.42,0,0,0-.56-3.95,15.28,15.28,0,0,0-5.6-9.66A12.51,12.51,0,0,1,91,49c-.22-.81.34-1.36,1.18-1.27.29,0,.58,0,.87,0a3.65,3.65,0,0,0-.16-1,8.88,8.88,0,0,0-.74-1.17,7.87,7.87,0,0,1-1.26-5.85c.36-2.15.2-4.29-1.44-5.93-1.48-1.48-1.69-3.36-1.87-5.23-.26-2.8-.67-5.51-2.46-7.8a1.15,1.15,0,0,1-.22-1.41.81.81,0,0,0-.15-.76,40.62,40.62,0,0,0-4.87-3.22,3.64,3.64,0,0,1-2.12-2,3.14,3.14,0,0,0-2.31-2A65.45,65.45,0,0,1,65.12,7.77a4.87,4.87,0,0,0-4.43,0,4.76,4.76,0,0,1-3.13.33c-1.47-.3-2.91-1.35-2.05-3.48.06-.15.11-.29.18-.43.23-.51-.1-.54-.42-.44a8.72,8.72,0,0,0-3.66,1.89c-.91.9-1.32.79-1.61-.43A2.23,2.23,0,0,0,48.63,3.7c-.26-.13-.46-.2-.51.21-.44,3.43-3,5-6.38,3.89A9.63,9.63,0,0,0,35,8.36,13.88,13.88,0,0,0,31.86,10a3.68,3.68,0,0,1-2.82.9,6.4,6.4,0,0,0-3.75.67A2.08,2.08,0,0,0,24,13.16a5.64,5.64,0,0,1-1.88,3.11c-.72.7-1,.72-1.63-.08A3.25,3.25,0,0,0,17.5,14.88Z" transform="translate(0 -0.04)"/><path id="Path_798" data-name="Path 798" class="cls-2" d="M103.7,127.14a62.05,62.05,0,0,0,.38-13.89c-.38-3.31-.54-6.65-1.21-9.92-.71-3.45-2.25-8.09-5-10.48A12.13,12.13,0,0,1,97,92c-1.42-1.49-2.48-4.65-1.4-6.54s3.15-3.2,4.71-4.78c2.68-2.74,4.83-5.93,5.34-9.8.56-4.32.38-9.87-1.85-13.72A28.71,28.71,0,0,0,99.34,52a13.64,13.64,0,0,1-4.15-9.11C94.45,33.44,91.1,23,84.84,15.7a21.69,21.69,0,0,0-6.46-5.2c-3-1.54-6.24-2-9.51-2.68-2.8-.58-5.58-1.24-8.31-2.08C58.09,5,55.86,3.23,53.24,3a35.4,35.4,0,0,0-13.7,1.82,16.88,16.88,0,0,0-9.35,7.13c-4,2.44-6.68,6.87-11.23,8.8-3.53,1.5-4.66,4.83-5.42,8.31A22.11,22.11,0,0,0,12,31.12a6.32,6.32,0,0,0-2.7,2.76c-1.11,2.32-.59,5.41.18,8.34,0,1.27.14,2.55.27,3.82C8,52.19,9,58.66,10.85,64.71c.49,1.58,1,3.19,1.52,4.8a58.75,58.75,0,0,1-.64,10.35c-.63,4.3-.12,8.77,3.85,11.32a14.48,14.48,0,0,0,4.59,1.63c.45.21.91.4,1.38.58.87.33,2,.59,3,1a5.56,5.56,0,0,1,.67.5,3.4,3.4,0,0,0,1.12.68l.11.12c1.32,1.67.46,4.43-.08,6.22-1.35,4.5.77,8.36,5.78,8.32,2.1,0,4.13-.56,6.25-.5.7,0,1.4.08,2.1.17a20,20,0,0,0-6.16,3.49c-3.25,2.71-6.2,7.64-6.25,12.22-.05.17-.11.34-.17.52-.9,3-.38,6.75,2.38,8.65a4.35,4.35,0,0,0,5.16-.07,56.19,56.19,0,0,0,6.17,1.54,59.05,59.05,0,0,0,12.48,1.63,13.42,13.42,0,0,0,2.9-.32,9.41,9.41,0,0,0,3.72-.6c3.6-1.58,4.78-5.46,4.58-9.25.06-.27,0-.29,0-.55m-28-81a1.24,1.24,0,0,1-.37.53.55.55,0,0,1-.62.1.43.43,0,0,1-.28-.15h0a.86.86,0,0,1-.1-.16l0,0a.7.7,0,0,1,.09-.8.6.6,0,0,1,.61-.16h0a.56.56,0,0,1,.7.69ZM63,38.87a.71.71,0,0,1,.65-.35.68.68,0,0,1,.65.49.57.57,0,0,1-.1.52.47.47,0,0,1-.14.29.55.55,0,0,1-.65.09.51.51,0,0,1-.4-.26,1.23,1.23,0,0,1,0-.79Z" transform="translate(0 -0.04)"/><path id="Path_799" data-name="Path 799" class="cls-3" d="M100.74,111.88c0,.27,0,.54,0,.8a5.4,5.4,0,0,1-.09.58,1.38,1.38,0,0,1-.48-.25c-1.4-1.56-2.75-3.21-4.18-4.69-2.17-2.24-4.38-4.4-6.6-6.53-.46-.44-.28-.5,0-.78a44.14,44.14,0,0,0,7.72-8c.35-.48.49-.27.64.33a103.72,103.72,0,0,1,2.38,12.75c.26,1.9.43,3.82.63,5.74Z" transform="translate(0 -0.04)"/><path id="Path_800" data-name="Path 800" class="cls-4" d="M103.11,110.82a61.06,61.06,0,0,0-3.28-15.4c-.66-1.94-1.84-3.68-2.2-5.74a1.6,1.6,0,0,0-.57-1.06c-1.26-.62-1.45-2-2.11-3s-.66-1.3.33-2.18a8.54,8.54,0,0,0,2.58-3.42,3.52,3.52,0,0,1,1-1.18A19.46,19.46,0,0,0,102.69,73a3.64,3.64,0,0,0,.3-1.35c.25-5.27-.85-10.16-4.27-14.33a23.41,23.41,0,0,0-3-2.92,8.5,8.5,0,0,1-2.51-3.83c-.21-.62,0-.65.56-.6a1,1,0,0,0,1.26-.75,1.14,1.14,0,0,0,0-.37,5.46,5.46,0,0,0-1.38-4,4.45,4.45,0,0,1-1.21-3.05,10.93,10.93,0,0,1,.14-2.62A7.22,7.22,0,0,0,90.89,33a7.16,7.16,0,0,1-1.56-4.1c0-.31-.06-.62-.1-.93-.28-2.35-.5-4.73-1.86-6.79-.1-.15-.22-.44-.15-.56.75-1.22-.12-2-.83-2.67a21.44,21.44,0,0,0-5.79-4.1,2.6,2.6,0,0,1-1.39-1.32,5.2,5.2,0,0,0-3.71-3A64.13,64.13,0,0,1,65.42,6.07a6,6,0,0,0-5.08.06,12,12,0,0,1-1.73.65,1.32,1.32,0,0,1-1.52-.48,1.24,1.24,0,0,1,.11-1.58,7.9,7.9,0,0,1,1.13-1c.75-.65.72-1.29-.19-1.64a3.4,3.4,0,0,0-1.94-.22A32.8,32.8,0,0,0,52,3.44a.91.91,0,0,1-1.14-.1A53.67,53.67,0,0,0,46.29.56c-.2-.11-.7.12-.91.34a.89.89,0,0,0-.05.81,9.11,9.11,0,0,0,.69,1,2.39,2.39,0,0,1,0,2.5,2.09,2.09,0,0,1-2.17,1.18c-.77-.08-1.52-.32-2.28-.42a12.3,12.3,0,0,0-3.2-.27,15.84,15.84,0,0,0-7.55,3,2,2,0,0,1-1.69.5,7.33,7.33,0,0,0-4.5.84,3.81,3.81,0,0,0-2.29,2.74A5.27,5.27,0,0,1,21.83,14c-.19.39-.44.54-.85.23-2.09-1.6-4.47-1.28-6.84-1a1.26,1.26,0,0,0-1.24,1c-.09.6.47.84.93,1.1.8.45,1.61.92,2.39,1.41a4.1,4.1,0,0,1,.63.62,2.83,2.83,0,0,1-.79.36,5.38,5.38,0,0,0-3.28,1.89,7.28,7.28,0,0,0-1.85,3.85,3.16,3.16,0,0,1-2,2.58,16,16,0,0,0-1.65.85,4.14,4.14,0,0,0-2.26,3.63,12.83,12.83,0,0,0,.09,2.32c.25,1.83.3,1.87-1.35,2.83A5.79,5.79,0,0,0,.52,41.35c0,.66-.15,1.45.65,1.75s1.05-.44,1.46-.88.83-.7,1.36-.35.37.84.17,1.37a20.81,20.81,0,0,0-1,3.08A18.81,18.81,0,0,0,4.72,58.09,13.36,13.36,0,0,1,6,63c0,.61.12,1.21-.83,1.33a.73.73,0,0,0-.67.78.77.77,0,0,0,.16.41,14.85,14.85,0,0,0,2,2.7A1.74,1.74,0,0,1,7.29,70c-.37,2.71-.59,5.44-1.08,8.12a13.94,13.94,0,0,0,.54,7.16,6.26,6.26,0,0,0,2.4,3.49,2.53,2.53,0,0,1,1.15,1.92A9,9,0,0,0,10.56,92a4.39,4.39,0,0,0,4.68,3.45,3.08,3.08,0,0,1,1.57.45c2,1,3.93,2,6.22,2.18,1,0,1.95.22,2.92.33,0,1-.09,2-.08,3A2.58,2.58,0,0,1,24.54,104c-.49.27-.78.78-.3,1.28s.24.81.13,1.27c-.27,1-.65,2.29,0,3.16.9,1.15.77,2.38.92,3.63a9.44,9.44,0,0,0,.45,2,1.13,1.13,0,0,1-.27,1.25c-2.39,2.6-2.95,5.82-3,9.18a1.43,1.43,0,0,0,.4,1.08c.53.33.52.65.37,1.15a8,8,0,0,0-.3,1.52,5.84,5.84,0,0,0,4,6.55,14.49,14.49,0,0,0,6.56.74,10.85,10.85,0,0,1,5.39.45,9.06,9.06,0,0,0,5.47.32,25.33,25.33,0,0,0,2.77-1,4.24,4.24,0,0,1,2.85-.24,13.49,13.49,0,0,0,5.37.14c7-1.26,10.31-7.52,8.09-13.33-.24-.63-.43-1.27-.66-1.9s-.69-1.23.36-1.58a1.13,1.13,0,0,0,.06-.94,8.63,8.63,0,0,0-1.3-1.52c-.43-.42-.92-.78-1.39-1.16a5.93,5.93,0,0,1-.21-.83c-.06-.6-.33-.9-.91-.57-.78.43-1.27-.11-1.8-.49-1.42-1-2.82-2-4.22-3.1a1.78,1.78,0,0,1-.37-.45,4.27,4.27,0,0,1,.54-.13c3.7-.52,7.42-.94,11.11-1.57A80.27,80.27,0,0,0,82,103.71a6.53,6.53,0,0,0,1.13-.46c1.44-1,2.66-.47,4,.35a110,110,0,0,1,13.4,9.6,6.14,6.14,0,0,0,1.65.69C103.24,113.12,103.19,111.92,103.11,110.82Zm-47.87,3.42A5.8,5.8,0,0,0,57,115.72c1.32.46,2.09,1.57,3.16,2.32a.77.77,0,0,1,.23.72c-.32.71,0,1.24.25,1.89a24.33,24.33,0,0,1,1.69,4.93,7.84,7.84,0,0,1-3.58,7.8,12.81,12.81,0,0,1-6,1.61c-.86-.14-2-.27-3.09-.5a4.45,4.45,0,0,0-2.83.32,14.09,14.09,0,0,1-3.78,1.24,8.9,8.9,0,0,1-5.48-1.18,3,3,0,0,0-2.9-.24c-2.48,1.06-5,.53-7.34-.32s-3.2-2.8-2.66-5.2c.24-1.05.55-2.08.75-3.14.14-.75.25-1.54-.7-2a1,1,0,0,1-.38-.87,13,13,0,0,1,6.22-9.29,23,23,0,0,1,11.5-3.49,23.58,23.58,0,0,1,7.44.72A13.16,13.16,0,0,1,55.24,114.24Zm-27.52-2.89h3.19a.73.73,0,0,1,.3.06,1.21,1.21,0,0,1-.22.3l-3.23,2.55c-.3.24-.58.28-.66-.17a18.8,18.8,0,0,1-.3-2.11c-.05-.69.24-.93.92-.64ZM86.94,95.08a77,77,0,0,1-16.86,7.06A49.43,49.43,0,0,1,60.9,104c-2.4.23-4.78.58-7.18.83-.87.09-1.76,0-2.63,0-6.91.47-13.82.36-20.73.27a34.77,34.77,0,0,1-3.53-.3c-.08,0-.22-.33-.18-.39,1.05-1.49.91-3.22,1-4.9,0-.79.21-1.29,1.11-1.54a6.91,6.91,0,0,0,4.47-6.39l-.26-.37c-1-.07-1.35.44-1.52,1.35a4.7,4.7,0,0,1-2.62,3.6,6.23,6.23,0,0,1-3.75.58,21.74,21.74,0,0,1-5.76-1.55,3.59,3.59,0,0,1-.94-.52A4.75,4.75,0,0,0,15,93.43a2.53,2.53,0,0,1-2.45-2,4,4,0,0,1-.3-1.18A3.39,3.39,0,0,0,11,88a19.18,19.18,0,0,1-1.9-2.22A6.8,6.8,0,0,1,8,80.86a79.17,79.17,0,0,0,1.05-11.5,2.51,2.51,0,0,0-1.21-2.3c-1.17-.78-1.2-.86-.58-2.07.74-1.46.27-2.92,0-4.36a12.12,12.12,0,0,0-1-3,19.34,19.34,0,0,1-1.81-7.12,14,14,0,0,1,1.2-6.6,2.25,2.25,0,0,0,.11-2.31A2.37,2.37,0,0,0,3.26,40c-.68.08-1-.37-.66-.9a8.26,8.26,0,0,1,1.67-1.77,19.93,19.93,0,0,1,1.7-1c1.1-.73,1.22-1.25,1-2.6s-.57-2.5-.13-3.8A2.29,2.29,0,0,1,8.07,28.4c.74-.36,1.43-.8,2.17-1.18a4.44,4.44,0,0,0,2.25-3,17.32,17.32,0,0,1,1.15-3,3.71,3.71,0,0,1,3.84-2c.6,0,1.32.25,1.66-.46a1.72,1.72,0,0,0-.33-2c-.51-.57-.94-1.21-1.4-1.82l-.22-.17.3.09a3.22,3.22,0,0,1,3,1.3c.64.8.91.78,1.63.08A5.57,5.57,0,0,0,24,13.14a2.16,2.16,0,0,1,1.32-1.59A6.48,6.48,0,0,1,29,10.88a3.68,3.68,0,0,0,2.83-.9A14,14,0,0,1,35,8.35a9.71,9.71,0,0,1,6.77-.57c3.39,1.11,5.94-.45,6.37-3.89.05-.41.25-.33.51-.2A2.24,2.24,0,0,1,50,5.24c.28,1.21.69,1.32,1.6.43a8.67,8.67,0,0,1,3.66-1.89c.32-.1.65-.08.42.43-.07.14-.12.29-.18.43-.86,2.14.58,3.18,2.05,3.49a4.7,4.7,0,0,0,3.13-.34,4.94,4.94,0,0,1,4.43,0,65.84,65.84,0,0,0,10.32,3.55,3.11,3.11,0,0,1,2.31,2,3.74,3.74,0,0,0,2.12,2,40.32,40.32,0,0,1,4.88,3.22.83.83,0,0,1,.14.76,1.16,1.16,0,0,0,.22,1.41c1.79,2.29,2.2,5,2.47,7.8.17,1.87.39,3.74,1.86,5.23,1.64,1.64,1.8,3.78,1.44,5.93a7.92,7.92,0,0,0,1.26,5.85,8.41,8.41,0,0,1,.74,1.16,3.66,3.66,0,0,1,.16,1,8.19,8.19,0,0,1-.86,0c-.84-.08-1.41.46-1.19,1.27a12.5,12.5,0,0,0,4.26,7.11,15.27,15.27,0,0,1,5.6,9.67,32.65,32.65,0,0,1,.56,3.95,6.08,6.08,0,0,1-.73,3.57,18.92,18.92,0,0,1-2.05,3.25,45.81,45.81,0,0,0-3.34,4.52,5.39,5.39,0,0,1-6,2.16c-1.4-.32-2.8-.61-4.2-.91a2.82,2.82,0,0,1-2.26-1.63A.92.92,0,0,0,81.7,80a1,1,0,0,0-.23.11c-.56.39-.42.88-.14,1.36A5.36,5.36,0,0,0,84.91,84c2.35.51,4.67,1.3,7.14,1a1,1,0,0,1,.74.35c.57,1,1,2,1.6,3,.4.68.15,1.1-.35,1.6a34.38,34.38,0,0,1-7.1,5.16Zm13.92,14.86a3.13,3.13,0,0,1-.1.44,2.24,2.24,0,0,1-.55-.19c-1.61-1.2-3.17-2.46-4.82-3.59-2.5-1.72-5-3.37-7.61-5-.52-.34-.32-.39,0-.6a46.64,46.64,0,0,0,8.9-6.1c.4-.37.56-.21.74.25a56.79,56.79,0,0,1,2.74,9.76c.29,1.46.49,2.93.73,4.4h-.06C100.86,109.52,100.88,109.73,100.86,109.94Z" transform="translate(0 -0.04)"/><path id="Path_801" data-name="Path 801" d="M33.31,91.48,33,91.2c-.77-.82-1.52-1.67-2.33-2.45a6,6,0,0,1-1.75-2.86,4.53,4.53,0,0,0-1.26-2,13.31,13.31,0,0,1-3.7-7.94,11.87,11.87,0,0,1,.5-5.29A1.45,1.45,0,0,0,24.1,69a3.29,3.29,0,0,1-.81-2.4c-.29-3.85,1.52-6.83,3.85-9.62.27-.33.59-.6,1.06-.27s.32.71.09,1.06c-.5.78-1,1.53-1.55,2.3a11.61,11.61,0,0,0-1.88,6.42,1.91,1.91,0,0,0,.85,1.86c.92.56.86,1.28.52,2.12A11.77,11.77,0,0,0,28.13,82a10.28,10.28,0,0,1,2.45,4.13.61.61,0,0,0,.07.14c1.56,2.07,3.26,4,5.8,4.89,1,.34,2,.42,3,.75a16.81,16.81,0,0,1,2.35,1.11c.44.23.78.45,1.1-.2s.81-.46,1.31-.16,1,.49,1.5.76c.7.38,1.2.44,1.53-.51.24-.66,1.06-.78,1.3-.2.71,1.7,2.31,1.62,3.63,1.86a18.52,18.52,0,0,0,12.53-2,11.9,11.9,0,0,0,4.4-3.78c.75-1.11,1.6-2.15,2.36-3.24A9.74,9.74,0,0,0,72.65,82c.24-1,.66-1.21,1.66-.73a4.44,4.44,0,0,1,1.77,2.08c.32.56.58.48.85,0a9.66,9.66,0,0,0,1.27-6.24c0-.2-.22-.43-.16-.57a2.48,2.48,0,0,1,.65-.95c.11-.08.5.19.77.3,0,0,.06.08.1.11,1.16,1.15,1.14,1.14,1.8-.44a38.59,38.59,0,0,0,1.79-4.25c.74-2.59.29-5.18-.26-7.78A17.46,17.46,0,0,0,78,54.89a2,2,0,0,0-.71-.57A2.52,2.52,0,0,1,75.51,52a5.48,5.48,0,0,0-3.15-4.47c-.46-.22-.84-.51-.57-1.07s.8-.47,1.31-.2a8.18,8.18,0,0,1,4.17,5.45,2,2,0,0,0,.52,1,18.15,18.15,0,0,1,6.95,11.45A27,27,0,0,1,85,70.63a9,9,0,0,1-.79,2.63c-.77,1.95-1.91,3.76-2.31,5.86a.78.78,0,0,1-.88.67.71.71,0,0,1-.34-.13c-.71-.38-.81.06-.87.53A9,9,0,0,1,78,84.55a6.85,6.85,0,0,1-1.31,1.27c-.69.54-1.05.47-1.45-.29-.28-.54-.43-1.15-.69-1.71a2.27,2.27,0,0,0-.5-.53,3.5,3.5,0,0,1-.17.55A21,21,0,0,1,72.37,87a20.32,20.32,0,0,1-5.76,6.34,18.26,18.26,0,0,1-6.94,2.79,23.13,23.13,0,0,1-7.83.08,9.22,9.22,0,0,0-2.1,0,7.47,7.47,0,0,1-4.17-.9c-.46-.26-.85-.1-.82.47s-.44.8-.85.94-.78-.26-1.07-.66a5.88,5.88,0,0,0-3.22-2.21C37.48,93.17,35.22,92.78,33.31,91.48Z" transform="translate(0 -0.04)"/><path id="Path_802" data-name="Path 802" d="M59,69.09a2.6,2.6,0,0,1-1.44,2.79A3.89,3.89,0,0,1,54,71c-.22-.28-.38-.6-.59-.9a1.87,1.87,0,0,0-2.54-.74,1.78,1.78,0,0,0-.8.87A2.25,2.25,0,0,1,46.28,70a6.08,6.08,0,0,1,1.48-7.28,14.93,14.93,0,0,1,5-2.74,11,11,0,0,1,6.2-.38A6,6,0,0,1,63.5,65a3.85,3.85,0,0,1-.2,1.35,1.21,1.21,0,0,1-1.42,1,1.11,1.11,0,0,1-.39-.16A5.64,5.64,0,0,0,61,66.8a1.4,1.4,0,0,0-1.88.64,1.37,1.37,0,0,0-.14.72C58.94,68.47,59,68.78,59,69.09Zm-5.38-4c1.61-.13,2.85-.38,3.78-1.42s.88-2.07-.56-2.57a5.36,5.36,0,0,0-5.2,1A1.36,1.36,0,0,0,51.23,64a1.39,1.39,0,0,0,.64.51,11.76,11.76,0,0,0,1.73.59Z" transform="translate(0 -0.04)"/><path id="Path_803" data-name="Path 803" d="M42.55,46.78C40.37,44.6,38,43.1,34.62,43.69c-2.71.47-5.41,4-5.69,6.08-.07.5-.3,1.26.48,1.43s.83-.58,1-1.08c.3-.76.6-1.52.92-2.28a1,1,0,0,1,.19-.23,1.77,1.77,0,0,1,.21.32,11.67,11.67,0,0,0,.52,1.27A3.87,3.87,0,0,0,36,51.12c1.63-.36,2.88-1,3.26-2.84A7.72,7.72,0,0,0,39.07,46l-.14-.32.33.13A2.43,2.43,0,0,1,41,47.18c.17.25.22.62.44.8s.67.42.89.32a1.3,1.3,0,0,0,.49-.85A.94.94,0,0,0,42.55,46.78Zm-5.7-.13a.53.53,0,0,1-.62.11.48.48,0,0,1-.28-.15h0a.86.86,0,0,1-.1-.16l0,0a.7.7,0,0,1,.09-.8.62.62,0,0,1,.61-.16h0c.38-.11.86.29.7.7h0l.05,0-.11.07a1.35,1.35,0,0,1-.31.4Z" transform="translate(0 -0.04)"/><path id="Path_804" data-name="Path 804" d="M70.41,40.43a2.65,2.65,0,0,0-.64-.85,9.77,9.77,0,0,0-4.53-2.53,7.16,7.16,0,0,0-8.2,3.6c-.57,1.09-1,2.23-1.53,3.36-.29.65-.15,1.11.32,1.26s.88-.2,1-.88c0-.14,0-.31,0-.46a9.39,9.39,0,0,1,1.78-3.71,2.41,2.41,0,0,1,.5-.33c0,.17.09.34.13.52a7,7,0,0,0,.43,1.92,3.64,3.64,0,0,0,4.45,1.4A3.69,3.69,0,0,0,66.56,40a1.11,1.11,0,0,1-.08-.3c0-.2.06-.39.1-.58a1.37,1.37,0,0,1,.56.18c.67.62,1.29,1.3,2,1.9a1.15,1.15,0,0,0,.93.24.71.71,0,0,0,.42-.92Zm-6.17-.9a.54.54,0,0,1-.8.38.51.51,0,0,1-.4-.26.56.56,0,0,1-.06-.31.59.59,0,0,1,.05-.47.7.7,0,0,1,.55-.34h.1a.68.68,0,0,1,.66.49.58.58,0,0,1-.11.52Z" transform="translate(0 -0.04)"/><path id="Path_805" data-name="Path 805" d="M39.3,32.14c2.39.27,3.88,1.19,4.58,3.14a2.48,2.48,0,0,1,.17.59c.08.58-.4,1.4-.8,1.28a2,2,0,0,1-.94-.87c-.22-.37-.22-.88-.43-1.28-.13-.22-.46-.33-.7-.5-.07.23-.15.46-.2.69a14.7,14.7,0,0,1-.28,1.5c-.31,1-1.06,1.29-1.68.51-1.29-1.6-3-1.6-4.76-1.52a1.83,1.83,0,0,1-.61,0c-.25-.1-.61-.26-.67-.46a.86.86,0,0,1,.31-.75A3.64,3.64,0,0,1,35.16,34c1.19.25,2.52-.12,3.57.74a.32.32,0,0,0,.26,0,.57.57,0,0,0,.08-.4c-.11-.23-.32-.42-.42-.65S38,33,38.5,32.59A3,3,0,0,1,39.3,32.14Z" transform="translate(0 -0.04)"/><path id="Path_806" data-name="Path 806" class="cls-3" d="M60.18,78.18A4.65,4.65,0,0,1,60,82.44c-1.39,2.54-4.83,1.9-5.89.11A14.4,14.4,0,0,1,53.15,80a16.52,16.52,0,0,0,4.93-.9C58.8,78.83,59.48,78.49,60.18,78.18Z" transform="translate(0 -0.04)"/><path id="Path_807" data-name="Path 807" d="M54.43,32.83a10.76,10.76,0,0,1-.63-1c-.28-.57-.4-.23-.52.07a10.8,10.8,0,0,1-.5,1.45,1.14,1.14,0,0,1-.77.53.65.65,0,0,1-.71-.57.69.69,0,0,1,0-.25,13,13,0,0,1,.89-2.93c.43-.89.82-1.11,1.71-.45.71.53,1,.37,1.39-.27,1-1.65,2.87-1.86,4.56-2.24.26-.06.75.28.93.57a.71.71,0,0,1-.29,1l-.12.06a4,4,0,0,1-1.32.39,3.61,3.61,0,0,0-3,2.12,5.87,5.87,0,0,1-.7,1A5.38,5.38,0,0,1,54.43,32.83Z" transform="translate(0 -0.04)"/><path id="Path_808" data-name="Path 808" d="M14.07,47.71c.25.18.56.31.69.54s0,.46-.14.66A12.79,12.79,0,0,0,14,50.12a2,2,0,0,0,0,1c.07.4.3.76.36,1.16A3.68,3.68,0,0,0,15.75,55a2.47,2.47,0,0,1,.66,1,.68.68,0,0,1-.24.93A.46.46,0,0,1,16,57a1.43,1.43,0,0,1-1-.15c-.2-.1-.28-.42-.43-.62-.28-.37-.59-.6-1-.16s-.8.41-1.06,0-.44-1-.27-1.2c.84-1.13.5-2.21.09-3.34a3.69,3.69,0,0,1,1-3.49A5.07,5.07,0,0,1,14.07,47.71Z" transform="translate(0 -0.04)"/><path id="Path_809" data-name="Path 809" d="M84.06,47.89c.69-1.68-.49-2.77-1.24-4-.24-.4-.4-.71,0-1.08s.86-.26,1.2.12a7.76,7.76,0,0,1,.9,1.23c.36.61.56,1.3,1.32,1.62a.73.73,0,0,1,.43.94.69.69,0,0,1-.15.24c-1,1-.33,1.88,0,2.8a6.52,6.52,0,0,0,.48.8c.38.69.37,1.32-.06,1.5-.66.27-1.1-.14-1.4-.64a14.44,14.44,0,0,1-1-1.92A13,13,0,0,1,84.06,47.89Z" transform="translate(0 -0.04)"/><path id="Path_810" data-name="Path 810" d="M60.18,78.18c-.7.31-1.38.65-2.09.92a16.63,16.63,0,0,1-4.93.9c-.86-.31-1.72-.6-2.56-.93a.42.42,0,0,1-.21-.35c0-.08.2-.2.31-.22a2.15,2.15,0,0,1,.62,0c5.3,1,9.27-1.06,12.33-5.29.14-.2.25-.48.46-.6a2.31,2.31,0,0,1,.78-.16c0,.27.19.64.07.79a39,39,0,0,1-2.56,3A28.28,28.28,0,0,1,60.18,78.18Z" transform="translate(0 -0.04)"/><path id="Path_811" data-name="Path 811" class="cls-1" d="M53.6,65.06c1.61-.13,2.85-.38,3.78-1.42s.88-2.07-.56-2.57a5.36,5.36,0,0,0-5.2,1A1.36,1.36,0,0,0,51.23,64a1.39,1.39,0,0,0,.64.51A11.76,11.76,0,0,0,53.6,65.06Z" transform="translate(0 -0.04)"/><path id="Path_812" data-name="Path 812" class="cls-5" d="M103.27,112.61a1.41,1.41,0,0,0-1.79-.91,1.42,1.42,0,0,0-1,1.67,39.77,39.77,0,0,1,1.39,12.29c-.07,1.82,2.77,1.82,2.84,0A42.29,42.29,0,0,0,103.27,112.61Z" transform="translate(0 -0.04)"/></g></g></svg>