<?xml version="1.0" encoding="utf-8"?>
<!-- Generator: Adobe Illustrator 23.0.6, SVG Export Plug-In . SVG Version: 6.00 Build 0)  -->
<svg version="1.1" id="Layer_1" xmlns="http://www.w3.org/2000/svg" xmlns:xlink="http://www.w3.org/1999/xlink" x="0px" y="0px"
	 viewBox="0 0 254.5 138.3" enable-background="new 0 0 254.5 138.3" xml:space="preserve">
<g id="Group_349" transform="translate(-52.891 -86.719)">
	<g id="Group_330">
		<path id="Union_3" fill="#FFFFFF" stroke="#000000" stroke-width="2" stroke-linecap="round" d="M79.8,163.2
			c-14.2-2-24.1-15.1-22.1-29.4c2-14.2,15.1-24.1,29.4-22.1l62.9,8.8c12.4,1.7,21.8,12.1,22.4,24.7l16.7-2.6L170,157
			c-4.7,10.6-15.9,16.7-27.3,15.1L79.8,163.2z"/>
		
			<text transform="matrix(0.9903 0.1392 -0.1392 0.9903 70.9809 146.571)" fill="#DA291C" font-family="'Raleway'" font-size="28px">Woof!</text>
	</g>
	<g id="Group_269" transform="translate(20.867 44.044)">
		<g id="Group_268" transform="translate(181.133 43.21)">
			<path id="Path_796" fill="#FFFFFF" d="M52.2,134.5c2.1,0,4.2-0.6,6-1.6c2.6-1.7,4-4.7,3.6-7.8c-0.4-1.7-1-3.4-1.7-4.9
				c-0.3-0.6-0.6-1.2-0.2-1.9c0.1-0.3,0-0.5-0.2-0.7c-1.1-0.7-1.8-1.9-3.2-2.3c-0.7-0.4-1.3-0.9-1.7-1.5c-1.6-1.5-3.6-2.6-5.7-3.2
				c-2.4-0.6-4.9-0.9-7.4-0.7c-4.1,0.1-8,1.3-11.5,3.5c-3.4,2-5.7,5.4-6.2,9.3c0,0.3,0.1,0.7,0.4,0.9c1,0.4,0.8,1.2,0.7,2
				c-0.2,1.1-0.5,2.1-0.7,3.1c-0.5,2.4,0.4,4.4,2.7,5.2c2.4,0.8,4.9,1.4,7.3,0.3c0.9-0.4,2-0.3,2.9,0.2c1.7,1,3.6,1.4,5.5,1.2
				c1.3-0.2,2.6-0.7,3.8-1.2c0.9-0.4,1.9-0.5,2.8-0.3C50.3,134.2,51.4,134.3,52.2,134.5z"/>
			<path id="Path_797" fill="#FFFFFF" d="M17,14.3l-0.3-0.1L17,14.3c0.4,0.7,0.8,1.3,1.3,1.9c0.5,0.5,0.7,1.3,0.3,2
				c-0.3,0.7-1.1,0.5-1.7,0.5c-1.6-0.2-3.1,0.6-3.8,2c-0.5,1-0.9,2-1.2,3c-0.3,1.3-1.1,2.4-2.3,3c-0.7,0.4-1.4,0.8-2.2,1.2
				c-0.6,0.3-1,0.9-1.2,1.5c-0.4,1.3,0,2.5,0.1,3.8c0.2,1.4,0.1,1.9-1,2.6c-0.6,0.3-1.2,0.7-1.7,1c-0.6,0.5-1.2,1.1-1.7,1.8
				c-0.4,0.5,0,1,0.7,0.9C3.9,39.3,4.9,40,5.3,41c0.4,0.7,0.3,1.6-0.1,2.3c-0.9,2.1-1.3,4.3-1.2,6.6c0.1,2.5,0.8,4.9,1.8,7.1
				c0.5,1,0.8,2,1,3c0.2,1.4,0.7,2.9-0.1,4.4c-0.6,1.2-0.6,1.3,0.6,2.1c0.8,0.5,1.3,1.4,1.2,2.3c-0.1,3.9-0.4,7.7-1.1,11.5
				c-0.3,1.7,0.1,3.5,1.1,4.9c0.6,0.8,1.2,1.5,1.9,2.2c0.7,0.6,1.1,1.4,1.2,2.3c0,0.4,0.1,0.8,0.3,1.2c0.3,1.1,1.3,2,2.5,2
				c1.2,0,2.5,0.4,3.4,1.3c0.3,0.2,0.6,0.4,0.9,0.5c1.8,0.8,3.8,1.3,5.8,1.6c1.3,0.2,2.6,0,3.7-0.6c1.4-0.7,2.4-2,2.6-3.6
				c0.2-0.9,0.6-1.4,1.5-1.3l0.3,0.4c0,2.9-1.8,5.4-4.5,6.4c-0.9,0.3-1.1,0.8-1.1,1.5c0,1.7,0.1,3.4-1,4.9c0,0.1,0.1,0.4,0.2,0.4
				c1.2,0.1,2.4,0.3,3.5,0.3c6.9,0.1,13.8,0.2,20.7-0.3c0.9-0.1,1.8,0,2.6-0.1c2.4-0.2,4.8-0.6,7.2-0.8c3.1-0.3,6.2-0.9,9.2-1.8
				c5.9-1.7,11.5-4,16.9-7.1c2.6-1.4,5-3.1,7.1-5.2c0.5-0.5,0.7-0.9,0.3-1.6c-0.6-1-1-2-1.6-3c-0.2-0.2-0.5-0.4-0.7-0.4
				c-2.5,0.3-4.8-0.5-7.1-1c-1.5-0.3-2.8-1.2-3.6-2.5c-0.3-0.5-0.4-1,0.1-1.4c0.4-0.3,1-0.1,1.3,0.3c0,0.1,0.1,0.2,0.1,0.2
				c0.4,0.9,1.3,1.5,2.3,1.6c1.4,0.3,2.8,0.6,4.2,0.9c2.3,0.7,4.7-0.2,6-2.2c1-1.6,2.1-3.1,3.3-4.5c0.8-1,1.5-2.1,2-3.3
				c0.6-1.1,0.9-2.3,0.7-3.6c-0.1-1.3-0.3-2.6-0.6-4c-0.6-3.8-2.6-7.3-5.6-9.7c-2.2-1.8-3.7-4.3-4.3-7.1c-0.2-0.8,0.3-1.4,1.2-1.3
				c0.3,0,0.6,0,0.9,0c0-0.3-0.1-0.7-0.2-1c-0.2-0.4-0.5-0.8-0.7-1.2c-1.2-1.7-1.6-3.8-1.3-5.9c0.4-2.1,0.2-4.3-1.4-5.9
				c-1.5-1.5-1.7-3.4-1.9-5.2c-0.3-2.8-0.7-5.5-2.5-7.8c-0.4-0.4-0.5-0.9-0.2-1.4c0.1-0.3,0-0.5-0.1-0.8c-1.5-1.2-3.2-2.3-4.9-3.2
				c-1-0.4-1.7-1.1-2.1-2c-0.4-1-1.2-1.8-2.3-2c-3.5-0.9-7-2.1-10.3-3.5c-1.4-0.7-3-0.7-4.4,0c-1,0.5-2.1,0.6-3.1,0.3
				c-1.5-0.3-2.9-1.4-2-3.5c0.1-0.1,0.1-0.3,0.2-0.4c0.2-0.5-0.1-0.5-0.4-0.4c-1.4,0.3-2.6,1-3.7,1.9c-0.9,0.9-1.3,0.8-1.6-0.4
				c-0.2-0.7-0.7-1.3-1.4-1.5C47.9,3,47.7,3,47.6,3.4c-0.4,3.4-3,5-6.4,3.9c-2.2-0.6-4.7-0.4-6.8,0.6c-1.1,0.4-2.2,1-3.1,1.6
				c-0.8,0.7-1.8,1-2.8,0.9c-1.3-0.2-2.6,0.1-3.7,0.7c-0.7,0.3-1.2,0.9-1.3,1.6c-0.3,1.2-0.9,2.3-1.9,3.1c-0.7,0.7-1,0.7-1.6-0.1
				C19.3,14.7,18.1,14.2,17,14.3z"/>
			<g transform="translate(8.172 2.346)">
				<path id="Path_798" fill="#A37F71" d="M95,124.3c0.6-4.6,0.8-9.3,0.4-13.9c-0.4-3.3-0.5-6.7-1.2-9.9c-0.7-3.4-2.2-8.1-5-10.5
					c-0.3-0.3-0.7-0.5-0.9-0.8c-1.4-1.5-2.5-4.7-1.4-6.5c1.1-2,3.2-3.2,4.7-4.8c2.7-2.7,4.8-5.9,5.3-9.8c0.6-4.3,0.4-9.9-1.9-13.7
					c-1.3-1.9-2.7-3.6-4.4-5.2c-2.5-2.4-4-5.7-4.2-9.1c-0.7-9.5-4.1-19.9-10.4-27.2c-1.8-2.1-4-3.9-6.5-5.2c-3-1.5-6.2-2-9.5-2.7
					c-2.8-0.6-5.6-1.2-8.3-2.1c-2.5-0.8-4.7-2.5-7.3-2.8c-4.6-0.3-9.3,0.3-13.7,1.8c-3.9,1.2-7.2,3.7-9.3,7.1
					c-4,2.4-6.7,6.9-11.2,8.8c-3.5,1.5-4.7,4.8-5.4,8.3c-0.6,0.7-1.1,1.3-1.5,2.1c-1.2,0.6-2.1,1.6-2.7,2.8
					c-1.1,2.3-0.6,5.4,0.2,8.3c0,1.3,0.1,2.6,0.3,3.8c-1.7,6.2-0.8,12.6,1.1,18.7c0.5,1.6,1,3.2,1.5,4.8c0.1,3.5-0.1,6.9-0.6,10.4
					c-0.6,4.3-0.1,8.8,3.9,11.3c1.4,0.8,3,1.3,4.6,1.6c0.4,0.2,0.9,0.4,1.4,0.6c0.9,0.3,2,0.6,3,1c0.2,0.2,0.5,0.3,0.7,0.5
					c0.3,0.3,0.7,0.5,1.1,0.7c0,0,0.1,0.1,0.1,0.1c1.3,1.7,0.5,4.4-0.1,6.2c-1.4,4.5,0.8,8.4,5.8,8.3c2.1,0,4.1-0.6,6.2-0.5
					c0.7,0,1.4,0.1,2.1,0.2c-2.2,0.8-4.3,2-6.2,3.5c-3.2,2.7-6.2,7.6-6.2,12.2c-0.1,0.2-0.1,0.3-0.2,0.5c-0.9,3-0.4,6.8,2.4,8.7
					c1.5,1.1,3.6,1.1,5.2-0.1c2,0.6,4.1,1.1,6.2,1.5c4.1,1,8.3,1.5,12.5,1.6c1,0,1.9-0.1,2.9-0.3c1.3,0.1,2.5-0.2,3.7-0.6
					c3.6-1.6,4.8-5.5,4.6-9.2c0.1-0.3,0-0.3,0-0.6 M28.5,43.3c-0.1,0.2-0.2,0.4-0.4,0.5c-0.2,0.2-0.4,0.2-0.6,0.1
					c-0.1,0-0.2-0.1-0.3-0.1l0,0c0,0-0.1-0.1-0.1-0.2c0,0,0,0,0,0c-0.1-0.3-0.1-0.6,0.1-0.8c0.2-0.2,0.4-0.2,0.6-0.2h0
					C28.2,42.4,28.7,42.8,28.5,43.3L28.5,43.3z M54.4,36c0.1-0.2,0.4-0.4,0.6-0.3c0.3,0,0.6,0.2,0.7,0.5c0,0.2,0,0.4-0.1,0.5
					c0,0.1-0.1,0.2-0.1,0.3c-0.2,0.2-0.4,0.2-0.7,0.1c-0.2,0-0.3-0.1-0.4-0.3c0-0.1-0.1-0.2-0.1-0.3C54.3,36.3,54.3,36.1,54.4,36
					L54.4,36z"/>
			</g>
			<path id="Path_799" fill="#DA291C" d="M100.2,111.3c0,0.3,0,0.5,0,0.8c0,0.2-0.1,0.4-0.1,0.6c-0.2-0.1-0.3-0.1-0.5-0.3
				c-1.4-1.6-2.8-3.2-4.2-4.7c-2.2-2.2-4.4-4.4-6.6-6.5c-0.5-0.4-0.3-0.5,0-0.8c2.9-2.3,5.5-5,7.7-8c0.3-0.5,0.5-0.3,0.6,0.3
				c1.1,4.2,1.8,8.5,2.4,12.8C99.9,107.5,100.1,109.4,100.2,111.3L100.2,111.3z"/>
			<path id="Path_800" stroke="#000000" stroke-miterlimit="10" d="M102.6,110.3c-0.4-5.3-1.5-10.4-3.3-15.4
				c-0.7-1.9-1.8-3.7-2.2-5.7c0-0.4-0.3-0.8-0.6-1.1c-1.3-0.6-1.4-2-2.1-3c-0.7-1.1-0.7-1.3,0.3-2.2c1.1-0.9,2-2.1,2.6-3.4
				c0.2-0.5,0.5-0.9,0.9-1.2c1.6-1.7,3-3.7,3.9-5.9c0.2-0.4,0.3-0.9,0.3-1.4c0.3-5.3-0.8-10.2-4.3-14.3c-0.9-1.1-1.9-2-3-2.9
				c-1.2-1-2-2.3-2.5-3.8c-0.2-0.6,0-0.7,0.6-0.6c0.6,0.1,1.1-0.2,1.3-0.7c0-0.1,0-0.2,0-0.4c0.1-1.5-0.4-2.9-1.4-4
				c-0.8-0.8-1.2-1.9-1.2-3.1c-0.1-0.9,0-1.8,0.1-2.6c0.4-2.2-0.2-4.5-1.7-6.2c-0.9-1.2-1.5-2.6-1.6-4.1c0-0.3-0.1-0.6-0.1-0.9
				c-0.3-2.4-0.5-4.7-1.9-6.8c-0.1-0.2-0.2-0.4-0.1-0.6c0.7-1.2-0.1-2-0.8-2.7c-1.7-1.7-3.6-3.1-5.8-4.1c-0.6-0.2-1.1-0.7-1.4-1.3
				C78,10.4,76.6,9.3,75,9c-3.4-0.9-6.8-2-10.1-3.5c-1.6-0.7-3.5-0.7-5.1,0.1c-0.6,0.3-1.1,0.5-1.7,0.6c-0.6,0.2-1.2,0-1.5-0.5
				c-0.3-0.5-0.3-1.1,0.1-1.6c0.3-0.4,0.7-0.7,1.1-1c0.7-0.6,0.7-1.3-0.2-1.6c-0.6-0.3-1.3-0.3-1.9-0.2c-1.4,0.4-2.8,1-4.2,1.6
				c-0.4,0.2-0.8,0.2-1.1-0.1c-1.5-1-3-1.9-4.6-2.8c-0.2-0.1-0.7,0.1-0.9,0.3c-0.1,0.3-0.2,0.6,0,0.8c0.2,0.4,0.4,0.7,0.7,1
				C46,3,46,3.9,45.5,4.7c-0.4,0.8-1.3,1.3-2.2,1.2c-0.8-0.1-1.5-0.3-2.3-0.4c-1-0.2-2.1-0.3-3.2-0.3c-2.7,0.3-5.3,1.3-7.6,3
				c-0.5,0.4-1.1,0.6-1.7,0.5c-1.5-0.2-3.1,0.1-4.5,0.8c-1.2,0.5-2,1.5-2.3,2.7c-0.1,0.4-0.3,0.9-0.5,1.3c-0.2,0.4-0.4,0.5-0.8,0.2
				c-2.1-1.6-4.5-1.3-6.8-1c-0.6,0-1.1,0.4-1.2,1c-0.1,0.6,0.5,0.8,0.9,1.1c0.8,0.5,1.6,0.9,2.4,1.4c0.2,0.2,0.4,0.4,0.6,0.6
				c-0.2,0.2-0.5,0.3-0.8,0.4c-1.3,0.2-2.5,0.9-3.3,1.9c-1,1.1-1.6,2.4-1.9,3.8c-0.1,1.2-0.9,2.2-2,2.6c-0.6,0.3-1.1,0.5-1.6,0.9
				c-1.4,0.7-2.2,2.1-2.3,3.6c0,0.8,0,1.5,0.1,2.3c0.2,1.8,0.3,1.9-1.4,2.8c-2.2,1-3.5,3.3-3.3,5.7c0,0.7-0.2,1.4,0.6,1.7
				c0.8,0.3,1.1-0.4,1.5-0.9C2.5,41.3,3,41,3.5,41.3c0.5,0.4,0.4,0.8,0.2,1.4c-0.4,1-0.7,2-1,3.1c-0.8,4-0.2,8.1,1.5,11.8
				c0.7,1.5,1.1,3.2,1.2,4.9c0,0.6,0.1,1.2-0.8,1.3c-0.4,0-0.7,0.4-0.7,0.8C4,64.7,4,64.9,4.1,65c0.6,1,1.2,1.9,2,2.7
				c0.5,0.4,0.8,1.1,0.7,1.7c-0.4,2.7-0.6,5.4-1.1,8.1c-0.4,2.4-0.3,4.9,0.5,7.2c0.4,1.4,1.2,2.6,2.4,3.5c0.7,0.4,1.1,1.1,1.1,1.9
				c0.1,0.5,0.1,0.9,0.3,1.4c0.5,2.2,2.5,3.6,4.7,3.5c0.6,0,1.1,0.2,1.6,0.4c2,1,3.9,2.1,6.2,2.2c1,0.1,1.9,0.2,2.9,0.3
				c0,1-0.1,2-0.1,3c0.1,1.1-0.4,2.1-1.3,2.6c-0.5,0.3-0.8,0.8-0.3,1.3c0.4,0.4,0.2,0.8,0.1,1.3c-0.3,1.1-0.6,2.3,0,3.2
				c0.9,1.2,0.8,2.4,0.9,3.6c0.1,0.7,0.2,1.3,0.5,2c0.2,0.4,0.1,0.9-0.3,1.3c-2.4,2.6-2.9,5.8-3,9.2c0,0.4,0.1,0.8,0.4,1.1
				c0.5,0.3,0.5,0.7,0.4,1.2c-0.1,0.5-0.3,1-0.3,1.5c-0.5,2.9,1.2,5.7,4,6.6c2.1,0.7,4.4,1,6.6,0.7c1.8-0.3,3.7-0.2,5.4,0.5
				c1.7,0.7,3.7,0.8,5.5,0.3c0.9-0.3,1.9-0.6,2.8-1c0.9-0.4,1.9-0.5,2.9-0.2c1.8,0.4,3.6,0.5,5.4,0.1c6.9-1.3,10.3-7.5,8.1-13.3
				c-0.2-0.6-0.4-1.3-0.7-1.9c-0.2-0.6-0.7-1.2,0.4-1.6c0.1,0,0.2-0.7,0.1-0.9c-0.4-0.6-0.8-1.1-1.3-1.5c-0.4-0.4-0.9-0.8-1.4-1.2
				c-0.1-0.3-0.2-0.5-0.2-0.8c-0.1-0.6-0.3-0.9-0.9-0.6c-0.8,0.4-1.3-0.1-1.8-0.5c-1.4-1-2.8-2.1-4.2-3.1c-0.1-0.1-0.3-0.3-0.4-0.5
				c0.2-0.1,0.4-0.1,0.5-0.1c3.7-0.5,7.4-0.9,11.1-1.6c6-1.1,11.8-2.8,17.3-5.2c0.4-0.1,0.8-0.3,1.1-0.5c1.4-1,2.7-0.5,4,0.4
				c4.7,2.9,9.2,6.1,13.4,9.6c0.5,0.3,1.1,0.5,1.7,0.7C102.7,112.6,102.7,111.4,102.6,110.3z M54.7,113.7c0.5,0.6,1.1,1.1,1.7,1.5
				c1.3,0.5,2.1,1.6,3.2,2.3c0.2,0.2,0.3,0.5,0.2,0.7c-0.3,0.7,0,1.2,0.2,1.9c0.7,1.6,1.3,3.2,1.7,4.9c0.5,3.1-0.9,6.1-3.6,7.8
				c-1.8,1-3.9,1.6-6,1.6c-0.9-0.1-2-0.3-3.1-0.5c-1-0.2-1.9-0.1-2.8,0.3c-1.2,0.6-2.5,1-3.8,1.2c-1.9,0.2-3.8-0.2-5.5-1.2
				c-0.9-0.6-2-0.7-2.9-0.2c-2.5,1.1-5,0.5-7.3-0.3c-2.3-0.8-3.2-2.8-2.7-5.2c0.2-1,0.5-2.1,0.7-3.1c0.1-0.8,0.2-1.5-0.7-2
				c-0.3-0.2-0.4-0.5-0.4-0.9c0.6-3.9,2.9-7.3,6.2-9.3c3.5-2.2,7.4-3.4,11.5-3.5c2.5-0.2,5,0.1,7.4,0.7
				C51.2,111.1,53.1,112.2,54.7,113.7z M27.2,110.8c1.1,0,2.1,0,3.2,0c0.1,0,0.2,0,0.3,0.1c-0.1,0.1-0.1,0.2-0.2,0.3
				c-1.1,0.9-2.2,1.7-3.2,2.6c-0.3,0.2-0.6,0.3-0.7-0.2c-0.1-0.7-0.2-1.4-0.3-2.1C26.3,110.8,26.5,110.5,27.2,110.8L27.2,110.8z
				 M86.4,94.5c-5.3,3-11,5.4-16.9,7.1c-3,0.9-6.1,1.5-9.2,1.8c-2.4,0.2-4.8,0.6-7.2,0.8c-0.9,0.1-1.8,0-2.6,0.1
				c-6.9,0.5-13.8,0.4-20.7,0.3c-1.2,0-2.4-0.2-3.5-0.3c-0.1,0-0.2-0.3-0.2-0.4c1.1-1.5,0.9-3.2,1-4.9c0-0.8,0.2-1.3,1.1-1.5
				c2.7-1,4.4-3.5,4.5-6.4l-0.3-0.4c-1-0.1-1.4,0.4-1.5,1.3c-0.2,1.6-1.2,2.9-2.6,3.6c-1.2,0.6-2.5,0.8-3.7,0.6
				c-2-0.2-3.9-0.8-5.8-1.6c-0.3-0.1-0.7-0.3-0.9-0.5c-0.9-0.8-2.1-1.3-3.4-1.3c-1.2,0-2.2-0.8-2.5-2c-0.2-0.4-0.3-0.8-0.3-1.2
				c-0.1-0.9-0.5-1.7-1.2-2.3c-0.7-0.7-1.3-1.4-1.9-2.2c-1-1.4-1.4-3.2-1.1-4.9c0.6-3.8,1-7.6,1.1-11.5c0.1-0.9-0.4-1.8-1.2-2.3
				c-1.2-0.8-1.2-0.9-0.6-2.1c0.7-1.5,0.3-2.9,0.1-4.4c-0.2-1.1-0.6-2.1-1-3c-1.1-2.2-1.7-4.6-1.8-7.1c-0.1-2.3,0.3-4.5,1.2-6.6
				c0.5-0.7,0.5-1.6,0.1-2.3c-0.4-1-1.5-1.7-2.6-1.5c-0.7,0.1-1-0.4-0.7-0.9c0.5-0.7,1-1.3,1.7-1.8c0.5-0.4,1.1-0.7,1.7-1
				c1.1-0.7,1.2-1.2,1-2.6c-0.2-1.2-0.6-2.5-0.1-3.8c0.2-0.7,0.6-1.2,1.2-1.5c0.7-0.4,1.4-0.8,2.2-1.2c1.1-0.6,2-1.7,2.3-3
				c0.3-1,0.7-2,1.2-3c0.7-1.4,2.3-2.2,3.8-2c0.6,0,1.3,0.2,1.7-0.5c0.3-0.7,0.2-1.5-0.3-2c-0.5-0.6-0.9-1.2-1.4-1.8l-0.2-0.2
				l0.3,0.1c1.2-0.1,2.3,0.4,3,1.3c0.6,0.8,0.9,0.8,1.6,0.1c1-0.8,1.6-1.9,1.9-3.1c0.1-0.7,0.6-1.3,1.3-1.6c1.2-0.6,2.5-0.8,3.7-0.7
				c1,0.1,2.1-0.2,2.8-0.9c1-0.7,2-1.2,3.1-1.6c2.1-1,4.5-1.2,6.8-0.6c3.4,1.1,5.9-0.5,6.4-3.9c0.1-0.4,0.2-0.3,0.5-0.2
				c0.7,0.3,1.2,0.8,1.4,1.6c0.3,1.2,0.7,1.3,1.6,0.4c1-0.9,2.3-1.6,3.7-1.9c0.3-0.1,0.7-0.1,0.4,0.4C55.1,3.8,55.1,4,55,4.1
				c-0.9,2.1,0.6,3.2,2,3.5c1.1,0.2,2.2,0.1,3.1-0.3c1.4-0.7,3-0.7,4.4,0c3.3,1.5,6.8,2.6,10.3,3.5c1.1,0.2,2,1,2.3,2
				c0.4,0.9,1.2,1.7,2.1,2c1.7,1,3.3,2,4.9,3.2c0.2,0.2,0.2,0.5,0.1,0.8c-0.3,0.5-0.2,1,0.2,1.4c1.8,2.3,2.2,5,2.5,7.8
				c0.2,1.9,0.4,3.7,1.9,5.2c1.6,1.6,1.8,3.8,1.4,5.9c-0.4,2,0.1,4.1,1.3,5.9c0.3,0.4,0.5,0.8,0.7,1.2c0.1,0.3,0.2,0.7,0.2,1
				c-0.3,0-0.6,0-0.9,0c-0.8-0.1-1.4,0.5-1.2,1.3c0.6,2.8,2.1,5.3,4.3,7.1c3,2.4,5,5.9,5.6,9.7c0.3,1.3,0.4,2.6,0.6,4
				c0.1,1.2-0.1,2.5-0.7,3.6c-0.6,1.2-1.3,2.2-2,3.3c-1.2,1.4-2.3,2.9-3.3,4.5c-1.3,1.9-3.7,2.8-6,2.2c-1.4-0.3-2.8-0.6-4.2-0.9
				c-1-0.1-1.9-0.7-2.3-1.6c-0.1-0.5-0.7-0.8-1.1-0.6c-0.1,0-0.2,0.1-0.2,0.1c-0.6,0.4-0.4,0.9-0.1,1.4c0.8,1.3,2.1,2.2,3.6,2.5
				c2.3,0.5,4.7,1.3,7.1,1c0.3,0,0.6,0.1,0.7,0.4c0.6,1,1,2,1.6,3c0.4,0.7,0.2,1.1-0.3,1.6C91.4,91.4,89,93.1,86.4,94.5L86.4,94.5z
				 M100.4,109.4c0,0.1-0.1,0.3-0.1,0.4c-0.2,0-0.4-0.1-0.5-0.2c-1.6-1.2-3.2-2.5-4.8-3.6c-2.5-1.7-5.1-3.4-7.6-5
				c-0.5-0.3-0.3-0.4,0-0.6c3.2-1.7,6.2-3.7,8.9-6.1c0.4-0.4,0.6-0.2,0.7,0.2c1.2,3.2,2.1,6.4,2.7,9.8c0.3,1.5,0.5,2.9,0.7,4.4
				l-0.1,0C100.4,109,100.4,109.2,100.4,109.4z"/>
			<path id="Path_801" d="M32.8,90.9l-0.3-0.3c-0.8-0.8-1.5-1.7-2.3-2.5c-0.8-0.8-1.4-1.8-1.7-2.9c-0.2-0.8-0.7-1.5-1.3-2
				c-2.1-2.2-3.4-5-3.7-7.9c-0.2-1.8-0.1-3.6,0.5-5.3c0.3-0.6,0.1-1.2-0.3-1.7c-0.6-0.7-0.9-1.5-0.8-2.4c-0.3-3.9,1.5-6.8,3.9-9.6
				c0.3-0.3,0.6-0.6,1.1-0.3s0.3,0.7,0.1,1.1c-0.5,0.8-1,1.5-1.6,2.3c-1.2,1.9-1.9,4.1-1.9,6.4c-0.1,0.7,0.2,1.5,0.9,1.9
				c0.9,0.6,0.9,1.3,0.5,2.1c-0.6,1.5-0.9,3.2-0.7,4.8c0.1,2.5,1,4.9,2.6,6.8c1.1,1.2,2,2.6,2.5,4.1c0,0,0,0.1,0.1,0.1
				c1.6,2.1,3.3,4,5.8,4.9c1,0.3,2,0.4,3,0.7c0.8,0.3,1.6,0.7,2.4,1.1c0.4,0.2,0.8,0.4,1.1-0.2c0.3-0.6,0.8-0.5,1.3-0.2
				c0.5,0.3,1,0.5,1.5,0.8c0.7,0.4,1.2,0.4,1.5-0.5c0.2-0.7,1.1-0.8,1.3-0.2c0.7,1.7,2.3,1.6,3.6,1.9c4.3,0.8,8.7,0.1,12.5-2
				c1.8-0.9,3.3-2.2,4.4-3.8c0.7-1.1,1.6-2.1,2.4-3.2c0.6-1.1,1-2.3,1.2-3.6c0.2-1.1,0.7-1.2,1.7-0.7c0.8,0.5,1.4,1.2,1.8,2.1
				c0.3,0.6,0.6,0.5,0.9,0c1.1-1.9,1.6-4.1,1.3-6.2c0-0.2-0.2-0.4-0.2-0.6c0.1-0.4,0.4-0.7,0.7-0.9c0.1-0.1,0.5,0.2,0.8,0.3
				c0,0,0.1,0.1,0.1,0.1c1.2,1.1,1.1,1.1,1.8-0.4c0.7-1.4,1.3-2.8,1.8-4.3c0.7-2.6,0.3-5.2-0.3-7.8c-0.8-3.3-2.5-6.3-4.9-8.6
				c-0.2-0.2-0.4-0.4-0.7-0.6c-1-0.3-1.8-1.3-1.8-2.3c-0.2-1.9-1.4-3.6-3.2-4.5c-0.5-0.2-0.8-0.5-0.6-1.1c0.3-0.6,0.8-0.5,1.3-0.2
				c2.1,1.1,3.6,3.1,4.2,5.5c0.1,0.4,0.2,0.7,0.5,1c3.7,2.8,6.2,6.9,6.9,11.5c0.3,2.1,0.4,4.3,0.2,6.5c-0.1,0.9-0.4,1.8-0.8,2.6
				c-0.8,2-1.9,3.8-2.3,5.9c-0.1,0.4-0.5,0.7-0.9,0.7c-0.1,0-0.2-0.1-0.3-0.1c-0.7-0.4-0.8,0.1-0.9,0.5c-0.2,1.6-0.8,3.1-1.8,4.4
				c-0.4,0.5-0.8,0.9-1.3,1.3c-0.7,0.5-1,0.5-1.4-0.3c-0.3-0.5-0.4-1.2-0.7-1.7c-0.1-0.2-0.3-0.4-0.5-0.5c0,0.2-0.1,0.4-0.2,0.6
				c-0.4,1.1-0.9,2.2-1.5,3.2c-1.5,2.5-3.4,4.7-5.8,6.3c-2.1,1.4-4.5,2.3-6.9,2.8c-2.6,0.5-5.2,0.5-7.8,0.1c-0.7-0.1-1.4-0.1-2.1,0
				c-1.4,0.1-2.9-0.2-4.2-0.9c-0.5-0.3-0.9-0.1-0.8,0.5c0,0.6-0.4,0.8-0.8,0.9c-0.6,0.2-0.8-0.3-1.1-0.7c-0.8-1.1-1.9-1.9-3.2-2.2
				C37,92.6,34.7,92.2,32.8,90.9z"/>
			<path id="Path_802" d="M58.5,68.6c0.2,1.1-0.4,2.3-1.4,2.8c-1.3,0.3-2.6-0.1-3.5-0.9c-0.2-0.3-0.4-0.6-0.6-0.9
				c-0.5-0.9-1.6-1.2-2.5-0.7c-0.4,0.2-0.6,0.5-0.8,0.9c-0.7,1-2.1,1.3-3.1,0.6c-0.3-0.2-0.5-0.4-0.7-0.7c-1.2-2.5-0.6-5.5,1.5-7.3
				c1.5-1.2,3.2-2.1,5-2.7c2-0.7,4.1-0.9,6.2-0.4c2.5,0.6,4.4,2.8,4.6,5.4c0,0.5-0.1,0.9-0.2,1.3c-0.1,0.7-0.8,1.1-1.4,0.9
				c-0.1,0-0.3-0.1-0.4-0.2c-0.2-0.1-0.3-0.3-0.5-0.3c-0.7-0.3-1.5-0.1-1.9,0.6c-0.1,0.2-0.2,0.5-0.1,0.7
				C58.4,67.9,58.5,68.2,58.5,68.6z M53.1,64.5c1.6-0.1,2.8-0.4,3.8-1.4c1-1.2,0.9-2.1-0.6-2.6c-1.8-0.6-3.8-0.2-5.2,1
				c-0.6,0.4-0.8,1.3-0.4,1.9c0.2,0.2,0.4,0.4,0.6,0.5C51.9,64.2,52.5,64.4,53.1,64.5L53.1,64.5z"/>
			<path id="Path_803" d="M42.1,46.2c-2.2-2.2-4.5-3.7-7.9-3.1c-2.7,0.5-5.4,4-5.7,6.1c-0.1,0.5-0.3,1.3,0.5,1.4s0.8-0.6,1-1.1
				c0.3-0.8,0.6-1.5,0.9-2.3c0.1-0.1,0.1-0.2,0.2-0.2c0.1,0.1,0.2,0.2,0.2,0.3c0.1,0.4,0.3,0.9,0.5,1.3c0.8,1.3,2.2,2.1,3.8,1.9
				c1.6-0.4,2.9-1,3.3-2.8c0-0.8,0-1.5-0.2-2.2l-0.1-0.3l0.3,0.1c0.8,0.1,1.4,0.6,1.8,1.3c0.2,0.3,0.2,0.6,0.4,0.8
				c0.2,0.2,0.7,0.4,0.9,0.3c0.3-0.2,0.4-0.5,0.5-0.9C42.4,46.7,42.2,46.4,42.1,46.2z M36.4,46.1c-0.2,0.2-0.4,0.2-0.6,0.1
				c-0.1,0-0.2-0.1-0.3-0.1l0,0c0,0-0.1-0.1-0.1-0.2c0,0,0,0,0,0c-0.1-0.3-0.1-0.6,0.1-0.8c0.2-0.2,0.4-0.2,0.6-0.2h0
				c0.4-0.1,0.9,0.3,0.7,0.7l0,0l0.1,0.1c0,0-0.1,0-0.1,0.1C36.6,45.9,36.5,46,36.4,46.1L36.4,46.1z"/>
			<path id="Path_804" d="M69.9,39.9c-0.2-0.3-0.4-0.6-0.6-0.9c-1.3-1.2-2.8-2.1-4.5-2.5c-3.2-0.9-6.6,0.6-8.2,3.6
				c-0.6,1.1-1,2.2-1.5,3.4c-0.3,0.6-0.1,1.1,0.3,1.3s0.9-0.2,1-0.9c0-0.1,0-0.3,0-0.5c0.3-1.4,0.9-2.6,1.8-3.7
				c0.2-0.1,0.3-0.2,0.5-0.3c0,0.2,0.1,0.3,0.1,0.5c0.1,0.7,0.2,1.3,0.4,1.9c0.9,1.5,2.8,2.1,4.5,1.4c1.5-0.6,2.5-2.1,2.4-3.7
				c0-0.1-0.1-0.2-0.1-0.3c0-0.2,0.1-0.4,0.1-0.6c0.2,0.1,0.4,0.1,0.6,0.2c0.7,0.6,1.3,1.3,2,1.9c0.3,0.2,0.6,0.3,0.9,0.2
				c0.4-0.1,0.6-0.6,0.4-0.9C70,40,69.9,39.9,69.9,39.9z M63.7,39c0,0.1-0.1,0.2-0.1,0.3c-0.2,0.2-0.4,0.2-0.7,0.1
				c-0.2,0-0.3-0.1-0.4-0.3c0-0.1-0.1-0.2-0.1-0.3c0-0.2,0-0.3,0.1-0.5c0.1-0.2,0.3-0.3,0.5-0.3l0,0l0,0c0,0,0.1,0,0.1,0
				c0.3,0,0.6,0.2,0.7,0.5C63.9,38.7,63.8,38.8,63.7,39L63.7,39z"/>
			<path id="Path_805" d="M29.1,32.5c-2.4,0.4-3.8,1.3-4.5,3.3c-0.1,0.2-0.1,0.4-0.2,0.6c-0.1,0.6,0.4,1.4,0.8,1.3
				c0.4-0.2,0.7-0.5,0.9-0.9c0.2-0.4,0.2-0.9,0.4-1.3c0.1-0.2,0.4-0.4,0.7-0.5c0.1,0.2,0.2,0.5,0.2,0.7c0.1,0.5,0.2,1,0.3,1.5
				c0.3,1,1.1,1.2,1.7,0.4c1.2-1.6,2.9-1.7,4.7-1.7c0.2,0,0.4,0.1,0.6,0c0.3-0.1,0.6-0.3,0.7-0.5c0-0.3-0.1-0.6-0.3-0.7
				c-0.6-0.3-1.2-0.5-1.9-0.5c-1.2,0.3-2.5,0-3.5,0.9c-0.1,0-0.2,0-0.3,0c-0.1-0.1-0.1-0.3-0.1-0.4c0.1-0.2,0.3-0.4,0.4-0.7
				c0.1-0.3,0.6-0.7,0.1-1.1C29.6,32.8,29.4,32.6,29.1,32.5z"/>
			<path id="Path_806" fill="#DA291C" d="M59.7,77.6c0.6,1.4,0.6,3-0.2,4.3c-1.4,2.5-4.8,1.9-5.9,0.1c-0.4-0.8-0.7-1.7-0.9-2.6
				c1.7,0,3.3-0.3,4.9-0.9C58.3,78.3,59,78,59.7,77.6z"/>
			<path id="Path_807" d="M65.3,30c0-0.4,0-0.8,0-1.2c-0.1-0.6,0.2-0.4,0.5-0.2c0.4,0.3,0.8,0.7,1.2,1c0.3,0.1,0.6,0.2,0.9,0
				c0.3-0.2,0.5-0.5,0.3-0.9c0-0.1-0.1-0.1-0.1-0.2c-0.7-0.8-1.5-1.4-2.3-2C64.9,26,64.4,26,64,27.1c-0.3,0.8-0.6,0.8-1.3,0.5
				c-1.8-0.8-3.4,0-5.1,0.5c-0.3,0.1-0.5,0.6-0.5,1c0,0.4,0.4,0.7,0.8,0.7c0,0,0.1,0,0.1,0c0.5,0,0.9-0.2,1.3-0.4
				c1.2-0.6,2.6-0.5,3.7,0.2c0.4,0.2,0.7,0.4,1.1,0.5C64.5,30.1,64.9,30.1,65.3,30z"/>
			<path id="Path_808" d="M13.6,47.2c0.3,0.2,0.6,0.3,0.7,0.5c0.1,0.1,0,0.5-0.1,0.7c-0.2,0.4-0.4,0.8-0.6,1.2c-0.1,0.3-0.1,0.7,0,1
				c0.1,0.4,0.3,0.8,0.4,1.2c0,1.1,0.6,2.1,1.4,2.7c0.3,0.3,0.5,0.6,0.7,1c0.2,0.3,0.1,0.7-0.2,0.9c-0.1,0-0.1,0.1-0.2,0.1
				c-0.3,0.1-0.7,0-1-0.2c-0.2-0.1-0.3-0.4-0.4-0.6c-0.3-0.4-0.6-0.6-1-0.2c-0.3,0.4-0.8,0.4-1.1,0c-0.2-0.3-0.4-1-0.3-1.2
				c0.8-1.1,0.5-2.2,0.1-3.3c-0.3-1.3,0.1-2.6,1-3.5C13.1,47.4,13.3,47.3,13.6,47.2z"/>
			<path id="Path_809" d="M83.6,47.4c0.7-1.7-0.5-2.8-1.2-4c-0.2-0.4-0.4-0.7,0-1.1c0.4-0.4,0.9-0.3,1.2,0.1
				c0.3,0.4,0.6,0.8,0.9,1.2c0.4,0.6,0.6,1.3,1.3,1.6c0.4,0.1,0.6,0.6,0.4,0.9c0,0.1-0.1,0.2-0.1,0.2c-1,1-0.3,1.9,0,2.8
				c0.1,0.3,0.3,0.5,0.5,0.8c0.4,0.7,0.4,1.3-0.1,1.5c-0.7,0.3-1.1-0.1-1.4-0.6c-0.4-0.6-0.7-1.3-1-1.9
				C83.8,48.4,83.7,47.9,83.6,47.4z"/>
			<path id="Path_810" d="M59.7,77.6c-0.7,0.3-1.4,0.7-2.1,0.9c-1.6,0.6-3.3,0.9-4.9,0.9c-0.9-0.3-1.7-0.6-2.6-0.9
				c-0.1-0.1-0.2-0.2-0.2-0.4c0-0.1,0.2-0.2,0.3-0.2c0.2,0,0.4,0,0.6,0c5.3,1,9.3-1.1,12.3-5.3c0.1-0.2,0.3-0.5,0.5-0.6
				c0.3-0.1,0.5-0.2,0.8-0.2c0,0.3,0.2,0.6,0.1,0.8c-0.8,1.1-1.7,2.1-2.6,3C61.2,76.4,60.4,77.1,59.7,77.6z"/>
			<path id="Path_811" fill="#FFFFFF" d="M53.1,64.5c1.6-0.1,2.8-0.4,3.8-1.4c1-1.2,0.9-2.1-0.6-2.6c-1.8-0.6-3.8-0.2-5.2,1
				c-0.6,0.4-0.8,1.3-0.4,1.9c0.2,0.2,0.4,0.4,0.6,0.5C51.9,64.2,52.5,64.4,53.1,64.5z"/>
			<path id="Path_812" fill="#070606" d="M102.8,112.1c-0.2-0.7-1-1.2-1.8-0.9c-0.7,0.2-1.1,1-0.9,1.7c1.1,4,1.6,8.1,1.4,12.3
				c-0.1,1.8,2.8,1.8,2.8,0C104.4,120.7,103.9,116.3,102.8,112.1z"/>
		</g>
	</g>
</g>
</svg>
