<?xml version="1.0" encoding="utf-8"?>
<!-- Generator: Adobe Illustrator 22.1.0, SVG Export Plug-In . SVG Version: 6.00 Build 0)  -->
<svg version="1.1" id="icon-arrow" xmlns:sketch="http://www.bohemiancoding.com/sketch/ns"
	 xmlns="http://www.w3.org/2000/svg" xmlns:xlink="http://www.w3.org/1999/xlink" x="0px" y="0px" viewBox="0 0 22 22"
	 style="enable-background:new 0 0 22 22;" xml:space="preserve">
<style type="text/css">
	.st0{fill:#0751B4;}
</style>
<title>Rectangle 150 Copy 10</title>
<desc>Created with Sketch.</desc>
<title>Rectangle 150 Copy 10</title>
<desc>Created with Sketch.</desc>
<path class="st0" d="M15.2,10.2H8.7l2.6-2.6c0.3-0.3,0.3-0.8,0-1.1c-0.3-0.3-0.8-0.3-1.1,0l-4,4C6.1,10.6,6,10.8,6,11
	c0,0.2,0.1,0.4,0.2,0.6l4,4c0.3,0.3,0.8,0.3,1.1,0c0.3-0.3,0.3-0.8,0-1.1l-2.6-2.6h6.5c0.4,0,0.8-0.4,0.8-0.8S15.6,10.2,15.2,10.2z"
	/>
</svg>
