<?xml version="1.0" encoding="utf-8"?>
<!-- Generator: Adobe Illustrator 23.0.6, SVG Export Plug-In . SVG Version: 6.00 Build 0)  -->
<svg version="1.1" id="Layer_1" xmlns="http://www.w3.org/2000/svg" xmlns:xlink="http://www.w3.org/1999/xlink" x="0px" y="0px"
	 viewBox="0 0 22 22" enable-background="new 0 0 22 22" xml:space="preserve">
<g>
	<path d="M13.6,15.5c0,0.4-0.4,0.8-0.8,0.8H6.4c-0.4,0-0.8-0.4-0.8-0.8V9.1c0-0.4,0.4-0.8,0.8-0.8h3l2-1.7h-5C5,6.6,4,7.7,4,9.1v6.5
		C4,17,5,18,6.4,18h6.4c1.4,0,2.5-1.1,2.5-2.5v-5.1l-1.7,2C13.6,12.5,13.6,15.5,13.6,15.5z"/>
	<path d="M17.8,4.2C17.7,4.1,17.5,4,17.3,4h-5c-0.4,0-0.8,0.4-0.8,0.8s0.4,0.8,0.8,0.8h3.1l-4.8,4.8c-0.3,0.3-0.3,0.8,0,1.1
		c0.2,0.2,0.4,0.2,0.6,0.2c0.2,0,0.4-0.1,0.6-0.2l4.8-4.8v3.1c0,0.4,0.4,0.8,0.8,0.8s0.8-0.4,0.8-0.8v-5C18,4.6,18,4.4,17.8,4.2z"/>
</g>
</svg>
