<?xml version="1.0" encoding="utf-8"?>
<!-- Generator: Adobe Illustrator 23.0.6, SVG Export Plug-In . SVG Version: 6.00 Build 0)  -->
<svg version="1.1" id="Layer_1" xmlns="http://www.w3.org/2000/svg" xmlns:xlink="http://www.w3.org/1999/xlink" x="0px" y="0px"
	 viewBox="0 0 19.3 24.5" style="enable-background:new 0 0 19.3 24.5;" xml:space="preserve">
<title>Asset 3</title>
<g>
	<g>
		<path d="M9.7,4.7c-2.7,0-5,2.2-5,5s2.2,5,5,5s5-2.2,5-5S12.4,4.7,9.7,4.7z M9.7,13.1c-1.9,0-3.5-1.6-3.5-3.5s1.6-3.5,3.5-3.5
			s3.5,1.6,3.5,3.5S11.6,13.1,9.7,13.1z"/>
		<path d="M9.7,0C4.3,0,0,4.3,0,9.7C0,16,9,24,9.4,24.3c0.1,0.1,0.3,0.2,0.5,0.2c0.2,0,0.4-0.1,0.5-0.2c0.4-0.3,8.9-8.5,8.9-14.6
			C19.3,4.3,15,0,9.7,0z M9.9,22.7c-1.9-1.8-8.4-8.2-8.4-13c0-4.5,3.7-8.2,8.2-8.2s8.2,3.7,8.2,8.2C17.8,14.4,11.7,20.9,9.9,22.7z"
			/>
	</g>
</g>
</svg>
