<?xml version="1.0" encoding="utf-8"?>
<!-- Generator: Adobe Illustrator 23.0.6, SVG Export Plug-In . SVG Version: 6.00 Build 0)  -->
<svg version="1.1" id="Layer_1" xmlns="http://www.w3.org/2000/svg" xmlns:xlink="http://www.w3.org/1999/xlink" x="0px" y="0px"
	 viewBox="0 0 320 144" style="enable-background:new 0 0 320 144;" xml:space="preserve">
<style type="text/css">
	.st0{fill:none;}
	.st1{fill:#E22E27;}
	.st2{fill:#231F20;}
	.st3{fill:#FFFFFF;}
	.st4{fill:#FFC72B;}
	.st5{fill:#646566;}
	.st6{font-family:'Raleway-SemiBold';}
	.st7{font-size:24px;}
</style>
<g id="Image_69">
	<g>
		<g>
			<rect x="-0.1" y="-0.3" class="st0" width="320" height="144"/>
			
				<image style="display:none;overflow:visible;enable-background:new    ;" width="482" height="216" xlink:href="9F5B27096E403E80.png"  transform="matrix(0.6639 0 0 0.6667 -6.016818e-02 -0.3002)">
			</image>
			<path class="st1" d="M85.2,17.2c0.1-3.2-3.2-3.8-5.5-4.9l-0.5,0.5c-1.9-0.5-2.5,0.8-3.8,1.6c-0.5-0.5-1-1.1-1.7-1.2
				c-1.7,0.1-4.3-0.5-5.6,1.4c0.1,0.1,0.3,0.3,0.3,0.5c-0.1,0.4-0.6,1.1-1.2,0.9c-2.6,4.7,2.9,7.3,5.4,10.6
				c1.6,3.8-1.8,7.2-0.6,10.8h1.6v-0.9c-0.1,0-0.6,0.1-0.6-0.3l0.9-0.7c-0.1-1.9,0.9-3.2,1.9-4.7c1.9-4.5,6.8-3.8,8.4-8.6
				c0.8-0.1,0.1-1.4,1.2-1.4L85.2,17.2z M82.6,21.2c-0.3,0.5-1.7,0.7-1.7,1.6h-0.4l-5.4,4.9c-0.3-3.6-3.7-4.3-5.1-7.3
				c-1.3-0.3-1-1.8-0.7-2.6c0.6-1.1,1.5-2.1,2.6-2.8c1.4-0.5,2.7,0.6,3,2.1c1.4,0.3,1.1,2.7,2.6,1.9c0.8-0.7,0.5-1.3,0.3-2.1
				c-0.3-0.5-1-0.9-0.5-1.6c1.6-1,5.2-1.4,5.8,1.2C83.2,17.9,83.2,19.9,82.6,21.2z"/>
			<path class="st2" d="M52,31.3c1,2.8,4,4.5,6.2,6.4c2.9,2,5.4,4.2,8.2,6.2c2-2.2,0.6-6.2,2.5-8.7c1.3-1,2.3,1.1,3.6,1.8
				c1.4-0.3,3.2,0.6,3.9-0.7c0.5,0.2,1.2,0.7,1.2,1.2c-3.4,2.5-2.6,7.5-4.3,10.8c0.3,1.2-0.5,1.8-0.3,2.9c3.2,4,7.7,6.6,11.6,9.9
				c0.6-0.3,1.2,0.5,1.3,0.9c-0.3-0.1-0.5,0.4-0.9,0.3c-1.5,4.8-0.8,9.3-2,13.7c1,0.6,0,1.5,0,2.3c0.8,5.1-1.8,10.2,0.5,15.2
				c0.3,1-0.5,1.7-0.3,2.3c-0.5,2.7,0.9,6.8,0,9.6c0.3,0.6,0.1,1.8-0.3,2.7c0.3,4.3-0.2,7.7-0.3,11.6c0.2,0.6,1,1.4,1.6,0.7
				c0.1,0.6-0.9,1.5-0.7,2.3c-3.6,0.1-7.1-0.1-10.7-0.7c-9.3,1-19.7,2.2-28.5-0.2c-7.7,0.6-14.8,0.8-22.4-0.3
				c-0.5,0.8-1.6,0.3-2.3,0.4c-0.7-1.2-1.5,0.7-2.3-0.6c1.6-2.9-0.6-5.8,0.7-8.9c0.3-6.8,0.3-14.3,0.9-21.2h0.3
				c0.1-4.7,1.6-8.3,1.2-13c0.5-4,0.1-7.9-0.5-12.1c-0.5-0.6-1.8-0.2-1.6-1.4c-0.4-1.4,2.3-1.8,1.8-3.6c0.4-0.5,1.1-0.2,1.6-0.3
				c1-2,2.9-3.4,4.3-5.1c2.7-1.7,3.7-4.7,6.6-6.1c4.8-5,10.9-8.6,14.6-14.1c1.2-0.9,2-2.2,2.3-3.6c-1.5-0.1-0.8-1.3-0.6-2.3h1.6
				c-0.1,0.3,0.1,0.4,0.3,0.5c1.2,0.1,1.3-1.8,2.7-1.4L52,31.3z"/>
			<path class="st3" d="M52.9,35.6c1.9,1,3.2,3.2,5.5,3.9c0,0.9,1.2,1.4,1.6,1.8c1.2,1.5,3,2.5,3.9,3.6c3.2,2.1,5,4.7,6.6,7.7
				c4.3,2.9,7.2,6.4,11.4,9.1c-0.3,2.5-0.3,5,0,7.5c-0.5,0.5,0.1,1.9-0.5,2.5c-0.5,0.6-1,2.1-0.5,3.2h-0.5c0.2,3,0,7-0.9,9.6
				c0.6,2.2-0.4,4.7,0.9,6.8c0.1,9.1-0.1,18.4-0.6,27.8c-0.3,0.6-1.4-0.3-1.4,0.6h-0.5c-0.6-1.4-1.9-0.2-3.2-0.6
				c-4.3,0.3-8.6,1.5-13.4,1.4c-4.2,0.1-8.4-0.1-12.5-0.6v-0.3c-3.1-0.9-6.6-0.3-9.8,0c-3.8,1.1-8.1-0.1-12.3,0.3v-0.3
				c-1-0.3-2-0.3-2.9,0v0.3c-0.2-0.6-1.2-0.4-1.8-0.5c0.1,0.5-1.3-0.1-1.9-0.2c0.2-14.1,1.4-30.4,2.5-45c-1-3.9-1-8,0-11.9
				c2.2-1.5,2.9-4.1,5.4-5.4c6.2-8.6,16.2-12.8,21.4-22.3C50.6,32.4,52.1,35,52.9,35.6z"/>
			<path class="st3" d="M74.6,38.6c-0.5,1.4-0.2,3.9-1.6,5.1l-1.2,5.1c-0.8,0.2-0.6-0.3-0.9-0.7c-1-1.5-2.7-1.5-3.4-3.2
				c0.7-2.4,1-4.9,1.8-7.3C71.4,37.1,72.4,39.8,74.6,38.6z"/>
			<path class="st2" d="M60.8,57.3c3.4,4.5,7.8,7.6,13.4,8.2c0.8,0,1.6-0.1,2.4-0.2c0.3,0,0.5,0.3,0.6,0.6l-0.3,0.7l-8.4,12.5
				c-0.4,0.8-1.6,0.3-1.8,1.2L66.4,81c0.6,1,0.7,2.3,0.3,3.4c-1.2,1.8-3,3.2-3.6,5.3c0.3,1.6,1.2,2.9,1.7,4.3c0.5,1,0.6,2.2,0.6,3.3
				c0.8-0.3,2-1,2.8-0.1c0.8,0.8,0.5,2,0.1,2.9c-0.6,1.3-2.3,2-3.5,2.7c-0.3,1-0.3,2.2-1.4,2.8c-0.7,0.4-1.5,0.6-2.3,0.6
				c-0.2,1-1,1.8-1.9,1.9c-0.1,0.7,0.1,1.7-0.6,2.1c-0.5,0.5-1.2,0.6-1.9,0.5c-0.1,1-0.7,1.9-1.7,2.3l-1,0.1c-0.8,0.9-2.1,1-3.2,0.7
				c-0.6-0.2-1.3-0.6-1.8-1.1c-1,0.1-1.9-0.3-2.5-1.1c-0.3-0.5-0.6-1-0.8-1.5c-1.4-0.3-2.5-1.3-2.8-2.7l-0.3-1.4c-2.5-2.3-2-6.2-1-9
				l1.2-2.7c-0.9-1.9-2.1-3.7-3-5.6c-0.6-0.1-1.4,0-1.8-0.6l-2.8-5.2c-0.6-0.3-1.3-0.4-1.6-1l-6.9-12.6c-0.1-0.5-0.1-0.9,0.1-1.3
				l0.8-0.5c2.6-0.4,5.3-1,7.2-3.2c0.9-0.8,1.9-2.3,3.2-1.6l0.5,0.5l7.3,13.3c0.1,0.6-0.6,0.8-0.2,1.4l2.3,4.6
				c0.3,0.8-0.6,1.5,0.1,2.1l0.2-0.3c0.5-1.8,1.2-3.8,0.7-5.7c0.1-2.1,2.5-2.9,4.2-3.4l0.7-1.4c-0.4-0.6-0.5-1.3-0.3-2
				c2.1-4.8,4.2-9.6,6.3-14.4C60.2,57.2,60.5,57.1,60.8,57.3z"/>
			<path class="st1" d="M74.7,67c-0.1,0.4-0.4,0.8-0.6,1.1c-5.6,0.8-10.4-2.6-14.1-6.6c0.1-0.5,0.3-1,0.6-1.4
				C64.3,64,68.8,67.6,74.7,67z"/>
			<path class="st3" d="M72.9,69.8c-0.1,0.4-0.4,0.7-0.6,1c-5.4,0.2-9.9-2.7-13.5-6.6c0.1-0.4,0.3-0.8,0.5-1.2
				C62.9,67,67.3,70,72.9,69.8z"/>
			<path class="st1" d="M71.2,72.3c-0.2,0.3-0.4,1.1-1,1c-5.2-0.1-9.3-2.6-12.8-6c0.1-0.5,0.3-1,0.6-1.4
				C61.6,69.4,65.7,72.5,71.2,72.3z"/>
			<path class="st1" d="M43.7,76.3c0.1,1.6-1.8,2.4-2.9,3.3l-2.5,1.3c-0.2,0.3-0.3,0.6-0.1,0.9c1,1,2-0.4,3-0.6
				c1.1-0.6,2.1-1.4,3.1-2.2l2.3,4.1c-0.5,1.4-1.9,2.3-3,2.9c-1.4,0.6-2.7,1.6-4.3,1.2c-1.2-1.9-2.1-3.8-3.2-5.6
				c-0.6,0-1.2-0.3-1.4-0.8l-6.2-11.2c-0.1-0.4,0.4-0.4,0.6-0.6c3-0.3,5.8-2.3,8-4.5l0.4,0.1L43.7,76.3z"/>
			<path class="st3" d="M69.6,74.6c-0.1,0.5-0.4,0.8-0.7,1.2c-5.1,0.1-9.1-2.3-12.6-5.6c0.1-0.5,0.3-1,0.5-1.4
				C60.3,72,64.4,74.6,69.6,74.6z"/>
			<path class="st1" d="M67.8,77.1c0,0.4-0.3,0.6-0.6,0.9c-4.7,0.1-8.6-2.2-12-5c-0.2-0.4,0.1-0.9,0.3-1.2
				C58.9,74.6,62.9,77,67.8,77.1z"/>
			<path class="st1" d="M65.3,79.6c-0.2,1-0.8,1.8-1.8,2.3c-1.9,1-4.3,0.7-6.2-0.3c-1.4-0.9-2.9-1.8-3-3.7c0-1,0.3-1.9,0.8-2.7
				C58.1,77.5,61.6,79,65.3,79.6z"/>
			<path class="st4" d="M52.6,77.6c-0.3,1.9,0.9,3.8,2.5,4.7c2.3,1.8,6.2,2.5,9,1.1l1-0.6c0.3,0.3,0.3,0.6,0.1,1
				c-1,1.9-2.7,3.4-3.5,5.3c-0.4,3,2.4,5.1,2,8.2c-0.1,2.1-0.3,4.1-0.7,6.1c-0.3-2.6-1.8-4.9-4.2-6.2c-0.5-0.1-1.1-0.1-1.6,0.3
				c-0.4,0.3-0.6,0.7-0.8,1.2c-0.6-0.3-1.2,0-1.7,0.1c-0.9,0.5-1.4,1.5-1.4,2.5c-0.8,0.3-1.5,1-1.6,1.9c0.1,0.6-0.1,1.3,0.2,1.8
				c-1.6,2-1,4.9,0,6.9l0.6,0.7c-0.5,0.3-1,0.3-1.4,0.1c-1.9-0.9-1.8-3.2-1.7-5.1c-0.1-1.2,0.8-2.7-0.1-3.6c-0.3-0.1-0.7,0-0.9,0.4
				v0.1c-0.6,2.3-1.1,4.9-0.5,7.1c-1.4-0.9-1.6-2.7-1.4-4.2c0.1-1.9,0.5-3.8,1-5.6c0-0.3-0.1-0.6-0.4-0.8c-0.4-0.3-0.8,0.1-1,0.4
				c-0.8,2.4-1.1,4.9-1,7.4c-0.8-0.2-1-1.1-1.2-1.8c-0.3-2.3,0.5-4.5,0.9-6.7c0-0.3,0-0.8-0.5-1c-1.2,0.1-1.1,1.6-1.5,2.5l-0.3,2.3
				c-1-1.4-0.5-3.5-0.1-5.2c1.6-4.2,4.1-7.9,6.2-11.9c0.9-2.3,2.3-4.5,2.1-7.1c-0.2-0.7-0.1-1.4,0.3-2.1c0.5-0.4,1-0.6,1.6-0.7
				L52.6,77.6z"/>
			<path class="st3" d="M47.2,86.3c-1,2.2-2.2,4.3-3.5,6.5h-0.1l-2.3-4.2c1.9-0.8,3.7-1.8,5.3-3.2C47,85.7,47.1,86.1,47.2,86.3z"/>
			<path class="st2" d="M51.5,90.6c-0.1,0.8-0.3,1.5-0.3,2.1c0.8-1.1,1.6-2.5,2.8-3c0.3,0.1,0.6,0.3,0.7,0.6
				c0.3,2.9-0.5,5.8-1.4,8.4c-0.3-0.1-0.6-0.3-0.9-0.6c0.6-1.9,1.4-3.9,1.8-6c0-0.5,0.4-1.2-0.1-1.6c-0.9,0.5-1.3,1.5-1.9,2.3
				c-0.6,1.2-1.2,2.4-1.8,3.6c-0.3-0.4-1.6-0.6-1-1.4c0.9-1.8,1.5-3.8,1.7-5.8c-0.1-0.1-0.3-0.1-0.4,0c-1.5,1.6-2.7,3.4-3.6,5.3
				l-0.8-0.6c1.3-2,2.3-4.4,4.7-5.6c0.2,0,0.4,0.1,0.6,0.2C51.8,89,51.5,89.9,51.5,90.6z"/>
			<path class="st3" d="M67.4,98.8c0.1,1.2-1.2,1.8-1.9,2.2c-0.1,0-0.3,0.1-0.3-0.1l0.1-1.6c0.6-0.4,1.2-0.6,1.9-0.8L67.4,98.8z"/>
			<path class="st3" d="M61,101.8c0.3,0.8,1,1.9,0.2,2.8c-0.1,0-0.3,0.2-0.4,0.1c-0.7-1.9-1.8-3.7-3.2-5.2c0.1-0.3,0.1-0.7,0.5-0.9
				C59.7,98.7,60.3,100.6,61,101.8z"/>
			<path class="st3" d="M58.3,102.6c0.4,1.4,2.4,3.1,0.6,4.4c-1-2.1-2.4-3.9-4.1-5.4c-0.1-0.4-0.1-0.8,0.1-1.1
				c0.2-0.3,0.5-0.4,0.7-0.5C56.9,100.2,57.6,101.6,58.3,102.6z"/>
			<path class="st3" d="M56.5,105.2c0.7,1,1.2,2.2,1.4,3.5c-0.1,0.4-0.3,0.7-0.6,0.9l-0.8-0.1c-0.6-1.7-0.9-4.2-3-4.7
				c-0.4-0.6-0.5-1.2-0.2-1.9c0.3-0.3,0.8-0.3,1.1-0.1C55.2,103.4,55.9,104.3,56.5,105.2z"/>
			<path class="st3" d="M54.2,107.2c0.5,1.2,0.8,2.4,0.8,3.7c-0.1,0.3-0.3,0.8-0.8,0.8c-1.2-0.1-1.3-1.7-1.8-2.6
				c-0.3-0.9-0.1-1.8,0.3-2.7C53.3,106,54,106.7,54.2,107.2z"/>
			<path class="st2" d="M88.7,117.8c1.3,0,2.3,1,2.3,2.3c0,1.3-1,2.3-2.3,2.3s-2.3-1-2.3-2.3l0,0C86.4,118.9,87.3,117.8,88.7,117.8
				C88.6,117.8,88.7,117.8,88.7,117.8z M88.7,118.2c-1.1-0.1-2,0.8-2.1,1.9c-0.1,1.1,0.8,2,1.9,2.1s2-0.8,2.1-1.9v-0.1
				C90.6,119.1,89.7,118.2,88.7,118.2z M88.2,121.5h-0.4v-2.6c0.3-0.1,0.5-0.1,0.7-0.1c0.3,0,0.6,0.1,0.8,0.2
				c0.1,0.1,0.3,0.3,0.3,0.5c0,0.3-0.2,0.6-0.5,0.6l0,0c0.3,0.1,0.4,0.3,0.5,0.6c0,0.2,0.1,0.5,0.1,0.6h-0.5
				c-0.1-0.2-0.1-0.5-0.2-0.6c0-0.3-0.3-0.5-0.5-0.5h-0.1h-0.3L88.2,121.5L88.2,121.5z M88.2,120.1h0.3c0.3,0,0.6-0.1,0.6-0.5
				s-0.2-0.5-0.6-0.5c-0.1,0-0.2,0-0.3,0V120.1z M279.5,89.5c1.3,0,2.3,1,2.3,2.3c0,1.3-1,2.3-2.3,2.3s-2.3-1-2.3-2.3l0,0
				C277.2,90.5,278.2,89.5,279.5,89.5C279.5,89.5,279.5,89.5,279.5,89.5z M279.5,89.8c-1.1-0.1-2,0.8-2.1,1.9
				c-0.1,1.1,0.8,2,1.9,2.1c1.1,0.1,2-0.8,2.1-1.9v-0.1C281.4,90.8,280.6,89.9,279.5,89.8z M279.1,93.2h-0.4v-2.6
				c0.3-0.1,0.5-0.1,0.7-0.1c0.3,0,0.6,0.1,0.8,0.2c0.1,0.1,0.3,0.3,0.3,0.5c0,0.3-0.2,0.6-0.5,0.6l0,0c0.3,0.1,0.4,0.3,0.5,0.6
				c0,0.2,0.1,0.5,0.1,0.6h-0.5c-0.1-0.2-0.1-0.5-0.2-0.6c0-0.3-0.3-0.5-0.5-0.5h-0.1H279L279.1,93.2L279.1,93.2z M279.1,91.7h0.3
				c0.3,0,0.6-0.1,0.6-0.5s-0.2-0.5-0.6-0.5c-0.1,0-0.2,0-0.3,0V91.7z"/>
			<path class="st5" d="M97,117c0-0.7,0.1-1.4,0.4-2c0.2-0.6,0.6-1.3,1.1-1.8c0.5-0.5,1.1-1,1.7-1.3c0.7-0.3,1.6-0.5,2.4-0.5
				c1,0,1.9,0.2,2.7,0.6c0.7,0.4,1.3,1.1,1.7,1.8l-1.7,1.2c-0.1-0.3-0.3-0.5-0.5-0.9c-0.2-0.2-0.4-0.4-0.6-0.5
				c-0.2-0.1-0.5-0.2-0.7-0.3c-0.2-0.1-0.5-0.1-0.7-0.1c-0.5,0-1,0.1-1.5,0.3c-0.4,0.2-0.7,0.5-1.1,0.9c-0.3,0.3-0.5,0.7-0.6,1.2
				c-0.1,0.4-0.2,0.9-0.2,1.4s0.1,1,0.2,1.5c0.1,0.4,0.4,0.9,0.6,1.2c0.3,0.3,0.6,0.6,1.1,0.9c0.4,0.2,0.9,0.3,1.4,0.3
				c0.3,0,0.5,0,0.9-0.1c0.3-0.1,0.5-0.2,0.7-0.3s0.5-0.3,0.6-0.5c0.2-0.2,0.4-0.5,0.5-0.7l1.8,1.1c-0.2,0.4-0.4,0.9-0.7,1.2
				c-0.3,0.3-0.7,0.6-1.2,0.9c-0.9,0.4-1.8,0.6-2.8,0.6c-0.7,0-1.5-0.2-2.2-0.5c-0.6-0.3-1.3-0.7-1.7-1.3c-0.5-0.5-0.9-1.2-1.2-1.9
				C97.1,118.5,97,117.7,97,117z"/>
			<path class="st5" d="M112.9,122.8c-0.6,0-1.3-0.1-1.8-0.3c-0.5-0.2-1-0.5-1.4-1c-0.4-0.4-0.6-0.9-0.9-1.4
				c-0.2-0.5-0.3-1.1-0.3-1.6c0-0.5,0.1-1.2,0.3-1.7c0.2-0.5,0.5-1,0.9-1.4c0.4-0.4,0.9-0.7,1.4-1s1.2-0.3,1.8-0.3
				c0.6,0,1.3,0.1,1.8,0.3c0.5,0.2,1,0.5,1.4,1c0.4,0.4,0.6,0.9,0.9,1.4c0.2,0.5,0.3,1.1,0.3,1.6c0,0.1,0,0.3,0,0.4
				c0,0.1,0,0.2,0,0.3h-6.5c0,0.3,0.1,0.6,0.2,0.9c0.1,0.2,0.3,0.4,0.5,0.6c0.2,0.2,0.4,0.3,0.6,0.4c0.2,0.1,0.5,0.1,0.9,0.1
				c0.4,0,0.9-0.1,1.2-0.3c0.3-0.2,0.6-0.4,0.7-0.9l1.8,0.5c-0.3,0.6-0.9,1.2-1.5,1.6C114.7,122.7,113.9,122.9,112.9,122.8z
				 M115,117.8c0-0.5-0.3-1.1-0.6-1.5c-0.4-0.4-1-0.5-1.5-0.5c-0.5,0-1.1,0.2-1.5,0.5c-0.2,0.2-0.3,0.4-0.4,0.6
				c-0.1,0.2-0.2,0.5-0.2,0.9L115,117.8L115,117.8z"/>
			<path class="st5" d="M127,122.7h-2.1V118c0-0.5-0.1-1.1-0.3-1.5c-0.2-0.3-0.6-0.4-1-0.4c-0.2,0-0.4,0-0.6,0.1s-0.4,0.2-0.6,0.3
				c-0.2,0.2-0.4,0.3-0.5,0.5s-0.3,0.4-0.3,0.7v4.9h-2.1v-8.4h1.9v1.6c0.3-0.5,0.7-1,1.4-1.3c0.6-0.3,1.3-0.4,2-0.4
				c0.4,0,0.9,0.1,1.3,0.3c0.3,0.2,0.5,0.4,0.7,0.7c0.2,0.3,0.3,0.6,0.4,1.1c0.1,0.4,0.1,0.9,0.1,1.2L127,122.7z"/>
			<path class="st5" d="M134.4,122.3c-0.3,0.1-0.7,0.3-1.1,0.4c-0.4,0.1-0.9,0.2-1.3,0.2c-0.3,0-0.5,0-0.9-0.1
				c-0.2-0.1-0.5-0.2-0.6-0.3c-0.2-0.2-0.3-0.4-0.4-0.6c-0.1-0.3-0.2-0.6-0.2-1v-4.8h-1.1v-1.8h1.1v-2.7h2.1v2.7h1.7v1.6H132v4.1
				c0,0.2,0.1,0.4,0.2,0.6c0.2,0.1,0.3,0.2,0.5,0.2c0.2,0,0.4,0,0.6-0.1l0.5-0.2L134.4,122.3z"/>
			<path class="st5" d="M141.1,116.2c-0.6,0-1.2,0.1-1.7,0.4c-0.4,0.2-0.9,0.6-1.1,1.1v5.1h-2.1v-8.5h1.9v1.8
				c0.1-0.3,0.3-0.5,0.5-0.7c0.2-0.2,0.4-0.4,0.6-0.6c0.2-0.1,0.4-0.3,0.7-0.4c0.2-0.1,0.4-0.1,0.6-0.1h0.4V116.2z"/>
			<path class="st5" d="M145,122.8c-0.4,0-0.7-0.1-1.2-0.2c-0.3-0.1-0.6-0.3-1-0.5c-0.2-0.2-0.4-0.5-0.6-0.9
				c-0.1-0.3-0.2-0.7-0.2-1.1c0-0.3,0.1-0.7,0.2-1.1c0.2-0.3,0.4-0.6,0.7-0.9c0.3-0.2,0.7-0.4,1.2-0.5c0.4-0.1,1-0.2,1.5-0.2
				c0.3,0,0.7,0,1.1,0.1c0.3,0.1,0.6,0.1,1,0.2v-0.5c0-0.4-0.1-1-0.4-1.3c-0.4-0.3-0.9-0.5-1.4-0.4c-0.4,0-0.9,0.1-1.3,0.2
				c-0.4,0.2-0.9,0.4-1.3,0.7l-0.6-1.4c1.1-0.7,2.2-1.1,3.5-1.1c1-0.1,2,0.2,2.8,0.9c0.7,0.6,1.1,1.6,1,2.6v2.6c0,0.2,0,0.3,0.1,0.5
				c0.1,0.1,0.2,0.2,0.4,0.1v1.8c-0.3,0.1-0.6,0.1-1,0.1s-0.6-0.1-1-0.3c-0.2-0.2-0.3-0.4-0.4-0.7v-0.4c-0.3,0.4-0.9,0.9-1.4,1.1
				C146.2,122.7,145.6,122.9,145,122.8z M145.6,121.3c0.3,0,0.7-0.1,1.1-0.2c0.3-0.1,0.5-0.3,0.7-0.5c0.2-0.1,0.3-0.3,0.3-0.6v-1
				c-0.3-0.1-0.5-0.2-0.9-0.2c-0.3-0.1-0.5-0.1-0.9-0.1c-0.5,0-1,0.1-1.4,0.4c-0.3,0.2-0.5,0.5-0.5,1c0,0.3,0.1,0.6,0.4,1
				C144.9,121.2,145.3,121.3,145.6,121.3L145.6,121.3z"/>
			<path class="st5" d="M152.4,111h2.1v9c0,0.2,0.1,0.5,0.2,0.7c0.2,0.2,0.4,0.3,0.6,0.2c0.1,0,0.3,0,0.4-0.1c0.1,0,0.3-0.1,0.4-0.1
				l0.3,1.6c-0.3,0.1-0.6,0.2-1,0.3c-0.3,0.1-0.7,0.1-1.1,0.1c-0.5,0-1.2-0.1-1.6-0.5c-0.4-0.4-0.6-1-0.5-1.5V111z"/>
			<path class="st5" d="M167.1,122.8c-0.7,0-1.6-0.1-2.2-0.5c-0.6-0.3-1.3-0.7-1.7-1.3c-0.5-0.5-0.9-1.2-1.2-1.8
				c-0.2-0.6-0.4-1.4-0.4-2.1s0.1-1.5,0.4-2.1c0.3-0.6,0.6-1.3,1.2-1.8c0.5-0.5,1.1-1,1.8-1.3c0.7-0.3,1.5-0.4,2.2-0.4
				c0.7,0,1.6,0.2,2.2,0.5s1.3,0.7,1.7,1.3c0.5,0.5,0.9,1.2,1.2,1.8c0.2,0.6,0.4,1.4,0.4,2.1s-0.1,1.5-0.4,2.1s-0.6,1.3-1.2,1.8
				c-0.5,0.5-1.1,1-1.7,1.3C168.7,122.6,167.9,122.8,167.1,122.8z M163.8,117.1c0,0.5,0.1,1,0.2,1.4c0.1,0.4,0.3,0.9,0.6,1.2
				c0.3,0.3,0.6,0.6,1.1,0.9s1,0.3,1.4,0.3c0.5,0,1-0.1,1.4-0.3c0.4-0.2,0.7-0.5,1.1-0.9c0.3-0.3,0.5-0.7,0.6-1.2
				c0.1-0.4,0.2-1,0.2-1.4c0-0.5-0.1-1-0.2-1.4c-0.1-0.4-0.3-0.9-0.6-1.2c-0.3-0.3-0.6-0.6-1.1-0.9c-0.4-0.2-1-0.3-1.4-0.3
				c-0.5,0-1,0.1-1.4,0.3s-0.7,0.5-1.1,0.9c-0.3,0.3-0.5,0.7-0.6,1.2C163.8,116.1,163.8,116.5,163.8,117.1z"/>
			<path class="st5" d="M182.5,122.7h-2.1V118c0-0.5-0.1-1.1-0.4-1.5c-0.2-0.3-0.6-0.5-1.1-0.4c-0.2,0-0.4,0-0.6,0.1
				c-0.2,0.1-0.4,0.2-0.6,0.3c-0.2,0.2-0.4,0.3-0.5,0.5s-0.3,0.4-0.3,0.7v4.9h-2.1v-11.6h2.1v4.8c0.3-0.5,0.7-1,1.3-1.3
				c0.5-0.3,1.2-0.4,1.7-0.4c0.4,0,1,0.1,1.3,0.3c0.3,0.2,0.6,0.4,0.9,0.7c0.2,0.3,0.3,0.6,0.4,1.1c0.1,0.4,0.1,0.9,0.1,1.2
				L182.5,122.7z"/>
			<path class="st5" d="M184.9,113.1V111h2.1v2.1H184.9z M184.9,122.7v-8.4h2.1v8.4H184.9z"/>
			<path class="st5" d="M193.4,122.8c-0.6,0-1.3-0.1-1.8-0.3c-0.5-0.2-1-0.5-1.4-1c-0.4-0.4-0.6-0.9-0.9-1.4
				c-0.2-0.5-0.3-1.1-0.3-1.6c0-0.5,0.1-1.2,0.3-1.7c0.2-0.5,0.5-1,0.9-1.4c0.4-0.4,0.9-0.7,1.4-1s1.2-0.3,1.8-0.3
				c0.6,0,1.3,0.1,1.8,0.3c1.1,0.4,1.8,1.3,2.2,2.4c0.2,0.5,0.3,1.1,0.3,1.7c0,0.5-0.1,1.1-0.3,1.6c-0.2,0.5-0.5,1-0.9,1.4
				c-0.4,0.4-0.9,0.7-1.4,1C194.7,122.7,194.1,122.8,193.4,122.8z M191.3,118.6c0,0.3,0,0.7,0.2,1.1c0.1,0.3,0.2,0.5,0.4,0.7
				s0.4,0.4,0.7,0.5c0.5,0.2,1.2,0.2,1.7,0c0.2-0.1,0.5-0.3,0.6-0.5c0.2-0.2,0.3-0.5,0.4-0.9c0.1-0.3,0.2-0.7,0.1-1.1
				c0-0.3,0-0.6-0.1-1c-0.1-0.3-0.2-0.5-0.4-0.9c-0.2-0.2-0.4-0.4-0.6-0.5c-0.3-0.1-0.5-0.2-0.9-0.2s-0.6,0.1-0.9,0.2
				c-0.2,0.1-0.5,0.3-0.7,0.5c-0.2,0.2-0.3,0.5-0.4,0.9C191.3,117.8,191.3,118.2,191.3,118.6z"/>
			<text transform="matrix(1 0 0 1 96.5552 78.8887)" class="st6 st7">Ronald McDonald</text>
			<text transform="matrix(1 0 0 1 96.555 102.5766)" class="st6 st7">House Charities</text>
		</g>
	</g>
</g>
</svg>
