<svg id="Layer_1" data-name="Layer 1" xmlns="http://www.w3.org/2000/svg" viewBox="0 0 139.83 110.01"><defs><style>.cls-1{fill:#da291c;}</style></defs><title>medcare</title><g id="Group_288" data-name="Group 288"><g id="Layer_6_Image" data-name="Layer 6 Image"><path id="Path_984" data-name="Path 984" class="cls-1" d="M35.66.07h10.4c3.69,0,7.38.06,11.07,0a11.52,11.52,0,0,1,5.45,1.3c1.05.54,2.19.93,3.38,1.43.53-.85,1-1.81,1.52-2.71h2.14q28.08,0,56.15,0a15.09,15.09,0,0,1,7.43,2.19A10.93,10.93,0,0,1,138,7.72c.21.51.36,1,.61,1.53a3.8,3.8,0,0,1-.14,3.67c-2.1,4.4-4.1,8.86-6.13,13.3,0,.08-.1.16-.13.24-.63,1.49-.54,1.94.81,2.72s2.75,1.49,4.14,2.22c.65.34,1.31.66,1.9,1a4.46,4.46,0,0,1,.42,2.76c.12,12.54.27,25.07.3,37.61,0,8.11-.19,16.23-.24,24.34a8.88,8.88,0,0,1-1.34,5.24c-.51.75-.76,1.68-1.2,2.49-1.6,2.93-4.35,3.82-7.24,2.14A100.37,100.37,0,0,0,116,100.8c-1.2-.48-2.37-1-3.54-1.55a7.31,7.31,0,0,0-4-1,2.29,2.29,0,0,1-1.29-.4A20.11,20.11,0,0,0,102.86,96c-1.25-.44-2.73-.64-3.19-2.32-.11-.39-.83-.72-1.32-.87-1.57-.49-3.17-.88-4.81-1.32-3.55,5.57-5.36,11.78-7.76,17.85-.61.12-1.22.2-1.84.26-3.78.14-7.55.3-11.33.36a9.12,9.12,0,0,1-3-.44Q53,104,36.41,98.24a7.47,7.47,0,0,1-1-.38,2.91,2.91,0,0,1-1.6-3.43c.3-1.07.69-2.1,1.06-3.14q3.88-10.8,7.79-21.58c.27-.76.51-1.54.82-2.47-.83-.4-1.53-.8-2.28-1.1-6.59-2.62-13.2-5.2-19.79-7.83-1.45-.58-2.87-1.25-4.26-2A3.63,3.63,0,0,1,15,52.26a17,17,0,0,1,.63-2.4c1.38-4.6,3.34-9,5.16-13.4l14-34C35.05,1.71,35.31.81,35.66.07Z" transform="translate(0.01 0)"/></g><g id="Layer_5_Image" data-name="Layer 5 Image"><path id="Path_985" data-name="Path 985" d="M26.19,0c-.36.75-.69,1.33-.93,2-.37,1-.65,2-1,3-.46,1.25-1,2.47-1.44,3.71-.75,2-1.45,3.95-2.22,5.91s-1.53,3.74-2.27,5.62c-.49,1.26-.89,2.54-1.37,3.8-.88,2.27-1.79,4.51-2.67,6.77-.44,1.12-.81,2.27-1.25,3.38-.83,2.13-1.7,4.24-2.54,6.36-.36.9-.68,1.8-1,2.71-.43,1.14-.84,2.27-1.28,3.41-.7,1.82-1.41,3.65-2.12,5.47l-.5,1.23c.94.36,1.89.72,2.82,1.1s1.88.81,2.83,1.21L17,58l4.78,1.93c2.78,1.11,5.57,2.2,8.34,3.34,1.75.71,3.47,1.51,5.21,2.24.77.33,1.57.58,2.36.87L26.15,97.45l33.14,11.78,0,.15a5.29,5.29,0,0,1-.56.05c-2.79,0-5.58,0-8.36,0a8.62,8.62,0,0,1-2.45-.6c-2.46-.86-4.9-1.77-7.35-2.66l-8-3c-2.05-.76-4.08-1.55-6.15-2.23a8.6,8.6,0,0,1-4.6-3.85c-.52-.8-.17-1.48.13-2.19.6-1.38,1.22-2.75,1.81-4.13,1-2.21,1.92-4.43,2.85-6.66,1.08-2.57,2.1-5.17,3.18-7.75.74-1.79,1.53-3.55,2.29-5.33a7.22,7.22,0,0,0,.48-1.24.75.75,0,0,0-.23-.65A8.85,8.85,0,0,0,31,68.59c-1.37-.53-2.74-1-4.1-1.59-1-.38-1.94-.79-2.91-1.17-1.29-.5-2.59-1-3.87-1.48-.8-.31-1.57-.66-2.36-1-1.66-.65-3.33-1.27-5-1.92-1.22-.48-2.42-1-3.64-1.48-.77-.3-1.56-.54-2.33-.84-1-.4-2-.82-3.06-1.23l-2.51-1a1.24,1.24,0,0,0-.65-.15c-.69-.26-.59-.31-.46-.7.46-1.28.91-2.57,1.4-3.85,1.12-2.86,2.26-5.72,3.39-8.58.52-1.31,1-2.63,1.55-3.95S7.56,36.9,8.1,35.5c.66-1.7,1.28-3.42,1.94-5.12.5-1.27,1-2.53,1.55-3.8.73-1.87,1.45-3.75,2.18-5.62.42-1.08.85-2.17,1.28-3.26q1.11-2.75,2.2-5.5c.59-1.46,1.16-2.92,1.74-4.39s1.15-2.9,1.74-4.35c.39-1,.81-1.9,1.2-2.85A.83.83,0,0,1,22.81,0C23.87,0,24.92,0,26.19,0Z" transform="translate(0.01 0)"/><path id="Path_986" data-name="Path 986" d="M134.4,105.32l5.23-10.95a5.51,5.51,0,0,1,.06.57c0,1.84,0,3.69-.06,5.53a2.26,2.26,0,0,1-.29,1c-.7,1.24-1.45,2.46-2.19,3.68a2.22,2.22,0,0,1-.47.59,14.59,14.59,0,0,1-4,2.49,1.25,1.25,0,0,1-.74-.08c-1.35-.52-2.68-1.08-4-1.58-2.5-.93-5-1.82-7.53-2.74-1.68-.63-3.36-1.29-5-1.92-1.4-.53-2.82-1-4.21-1.57-1.58-.62-3.15-1.27-4.72-1.89l-3.14-1.25c-1.07-.42-2.14-.82-3.2-1.26-.44-.18-.63-.19-.82.36-1,2.8-2,5.57-3,8.36-.53,1.47-1,3-1.55,4.41-.06.16-.27.39-.41.39-1.65,0-3.3,0-5,0,.51-1.4,1-2.69,1.46-4,.72-1.93,1.45-3.85,2.17-5.78.57-1.54,1.15-3.08,1.69-4.62.41-1.16.79-2.33,1.13-3.52.15-.52.11-1.13,1-.89.07,0,.18-.12.28-.2l.09.59.47-.73c1.23.55,2.46,1.13,3.71,1.66.83.35,1.69.63,2.54,1l1.77.68L108.81,95l4,1.63c1.74.71,3.5,1.39,5.23,2.12,2,.82,3.94,1.69,5.92,2.51.85.36,1.72.64,2.58,1s1.84.81,2.78,1.16c.69.26,1.43.37,2.12.62C132.34,104.41,133.26,104.84,134.4,105.32Z" transform="translate(0.01 0)"/><path id="Path_987" data-name="Path 987" d="M113.07.23c2.47,0,5-.1,7.43.06a10.3,10.3,0,0,1,3,1.1c1.26.52,2.5,1.08,3.76,1.62a5.3,5.3,0,0,1,3,4.1,1.62,1.62,0,0,1-.17.78,19.68,19.68,0,0,0-1.24,3.5A27.82,27.82,0,0,1,127.5,16c-.61,1.89-1.36,3.73-2,5.6s-1.41,3.92-2.1,5.88-1.36,4-2,6c0,.09,0,.18-.09.39,1.27.55,2.55,1.09,3.81,1.65,1,.42,1.94.89,2.9,1.31,2.54,1.12,5.09,2.22,7.63,3.33,1.26.55,2.52,1.11,3.77,1.68a.58.58,0,0,1,.31.39c0,1.15,0,2.3,0,3.52-.91-.32-1.78-.59-2.62-.93s-1.55-.74-2.34-1.07c-1.13-.46-2.27-.9-3.4-1.34-2-.8-4.09-1.64-6.15-2.41-2.39-.9-4.79-1.72-7.18-2.6a11.72,11.72,0,0,1-1.5-.76c-.63-.35-.34-1-.42-1.53a1.84,1.84,0,0,1,.59-1.82c.31-.26.34-.82.5-1.24l1-2.67c.36-.94.72-1.88,1.07-2.82l1.64-4.4q.87-2.32,1.75-4.64c1.06-2.76,2.11-5.53,3.19-8.28a24.23,24.23,0,0,1,1-2.26c.21-.43.06-.6-.33-.77-3.89-1.68-7.76-3.38-11.64-5.08-.65-.29-1.31-.55-2-.82Z" transform="translate(0.01 0)"/><path id="Path_988" data-name="Path 988" d="M64.38,0c-1,2.65-2.2,5.47-3.18,8.11-.37,1-.7,2-1.06,3-.15.41-.35.59-.86.38-1.73-.73-3.49-1.39-5.23-2.08-2.17-.86-4.33-1.71-6.49-2.59C45.71,6.07,43.89,5.26,42,4.51c-1.18-.49-2.39-.9-3.58-1.37s-2.63-1-3.94-1.58A27.56,27.56,0,0,1,31.82,0c1.07,0,2.33,0,3.4,0,1.52,0,3,.16,4.5,0A9.15,9.15,0,0,1,44.3,1.16c1.39.59,2.76,1.21,4.14,1.83l4.72,2.14c1.18.55,2.34,1.13,3.53,1.62.16.07.6-.2.7-.41C58,5.09,58.47,3.8,59,2.53c.27-.63.51-1.26.8-1.88C59.87.48,60,0,60.15,0,61.47,0,63,0,64.38,0Z" transform="translate(0.01 0)"/></g></g></svg>