<svg xmlns="http://www.w3.org/2000/svg" width="163.152" height="110.536" viewBox="0 0 163.152 110.536">
  <g id="Group_293" data-name="Group 293" transform="translate(-818.173 -1151.31)">
    <g id="Layer_2_Image" data-name="Layer 2 Image" transform="translate(816.173 1151.31)">
      <path id="Path_991" data-name="Path 991" d="M1010.337,1201.183a9.148,9.148,0,0,1,.157,1.2c.008,5.55.019,11.1-.009,16.65-.011,2.12-.4,2.548-2.586,2.945a35.211,35.211,0,0,1-3.729.473,296.992,296.992,0,0,1-31.483.572c-5.237-.175-10.493.179-15.741.215q-15.242.107-30.484.116a35.592,35.592,0,0,1-4.445-.22,110.426,110.426,0,0,0-17.1-.425,19.12,19.12,0,0,1-3.391-.254,5.783,5.783,0,0,1-1.482-.7c.266-.4.37-.743.616-.884a6.306,6.306,0,0,1,1.557-.622,15.327,15.327,0,0,0,8.016-4.442,7.986,7.986,0,0,1,4.047-2.21c4.492-1.166,8.964-2.405,13.5-3.427a82.683,82.683,0,0,0,17.838-6.195c2.22-1.073,4.222-1.384,6.444-.26a7.409,7.409,0,0,0,1.6.528c2,.484,2.839.137,3.861-1.586.368-.62.7-1.259,1.127-2.033l-3.433-.712a11.568,11.568,0,0,1-.266-2.124c.159-2.763.4-5.521.6-8.281a8.773,8.773,0,0,0,.091-1.844,16.922,16.922,0,0,1,.305-5.511c.376-2.027-.856-6.17-2.212-7.913-.26-.335-.593-.625-.866-.954a5.169,5.169,0,0,1-1.358-4.865,5.327,5.327,0,0,0,.178-3.514,11.666,11.666,0,0,0-2.2.659c-3.583,1.933-7.742,2.432-11.55,3.8a7.646,7.646,0,0,1-2.368.209,44.27,44.27,0,0,0-16.844,3.64,38.7,38.7,0,0,1-7.448,2.243,6.226,6.226,0,0,1-1.685.136c-1.065-.076-1.98-1.118-1.555-1.986,1.167-2.384,1.059-5.041,2.116-7.434a70.139,70.139,0,0,1,3.106-6.838,58.288,58.288,0,0,1,4.43-6.205,5.1,5.1,0,0,1,4.44-1.828c9.477.069,18.954.024,28.431.02q19.868-.008,39.736-.02a43.939,43.939,0,0,1,11.474,1.477,11.773,11.773,0,0,1,7.009,5.087,11.592,11.592,0,0,1,2,6.753c-.163,9.042-.189,18.087-.258,27.131C1010.517,1194.108,1008.66,1200.4,1010.337,1201.183Z" transform="translate(-846.296 -1151.31)" fill="#da291c"/>
      <path id="Path_992" data-name="Path 992" d="M1004.3,1267.639c0,2.329.006,4.35,0,6.372-.017,4.955-.174,9.914-.022,14.863a18.519,18.519,0,0,1-4.9,13.289,8.174,8.174,0,0,1-6.872,3.117c-1.585-.1-3.183.008-4.776.013l-99.977.343c-1.018,0-2.037,0-3.06,0-1.255-1.581-1.388-3.447-1.665-5.163-1.113-6.89-2.568-13.75-2.424-20.789.018-.894-.253-1.8-.226-2.688a13.592,13.592,0,0,1,.408-2.981,2.632,2.632,0,0,1,2.388-2.106,51.9,51.9,0,0,1,5.764-.4c6.025.092,12.051.482,18.072.415,6.591-.074,13.182-.451,19.765-.839,9.081-.535,18.154-1.211,27.231-1.811,7.6-.5,15.2-1.1,22.807-1.443s15.233-.422,22.85-.588A14.251,14.251,0,0,1,1004.3,1267.639Z" transform="translate(-840.191 -1195.17)" fill="#da291c"/>
      <path id="Path_993" data-name="Path 993" d="M817.626,1289.312c0-.76-.044-1.555.006-2.344.39-6.044.82-12.085,1.192-18.129a47.169,47.169,0,0,0-1.441-14.037c-.457-1.889-.711-3.828-1.039-5.748a12.091,12.091,0,0,1,2.761-9.769c4.477-5.75,14.044-9.155,21.692-6.551a14.558,14.558,0,0,1,8.824,7.548,16.044,16.044,0,0,1-.031,15.331,47.7,47.7,0,0,0-1.968,4.822,10.868,10.868,0,0,0-.019,6.959,71.055,71.055,0,0,1,2.306,15.18c.075,1.126.229,2.246.317,3.371.08,1.012.121,2.026.183,3.108a5.934,5.934,0,0,1-1.255.433C845.611,1289.783,819.714,1289.646,817.626,1289.312Z" transform="translate(-814.173 -1179.114)" fill="#da291c"/>
      <path id="Path_994" data-name="Path 994" d="M876.995,1238.781c-.173-.734-.516-1.339-.4-1.836.66-2.8-.381-5.265-1.323-7.765-.108-.288-.278-.552-.382-.841-1.671-4.646-5.344-6.8-9.847-7.92a8.922,8.922,0,0,1-2.047-.595,2.254,2.254,0,0,1-.263-3.846,4.859,4.859,0,0,1,1.362-.687,80.154,80.154,0,0,0,10.385-4.662c2.474-1.244,5.026-2.335,7.557-3.464a4.1,4.1,0,0,1,1.472-.362,1.894,1.894,0,0,1,1.947,1.231,3.848,3.848,0,0,1,.35,1.485c-.092,3.449,1.1,6.657,1.78,9.962a23.274,23.274,0,0,1,.25,10.082,5.419,5.419,0,0,1-2.189,3.55c-1.357.925-2.7,1.877-4.069,2.777C880.136,1236.835,878.663,1237.731,876.995,1238.781Z" transform="translate(-829.961 -1171.156)" fill="#da291c"/>
      <path id="Path_995" data-name="Path 995" d="M906.563,1221.307c-.732-.945-.725-1.95-.385-3.386A4.906,4.906,0,0,1,906.563,1221.307Z" transform="translate(-844.155 -1175.133)" fill="#da291c"/>
    </g>
    <g id="Layer_4_Image" data-name="Layer 4 Image" transform="translate(820.744 1152.22)">
      <path id="Path_997" data-name="Path 997" d="M931.671,1201.6c-.048,1.179,1.063,1.22,1.341,1.84a1.469,1.469,0,0,1,.09,1.135,1.388,1.388,0,0,1-1.008.622,18.088,18.088,0,0,1-2.618-.243,13.886,13.886,0,0,1-1.945-.351c-3.624-1.021-6.687.189-9.637,2-2.113,1.3-4.272,2.535-6.423,3.779a23.9,23.9,0,0,1-15.912,2.686,31.192,31.192,0,0,0-4.936-.265,7.405,7.405,0,0,0-6.387,3.249c-.466.684-1.029,1.311-1.649,2.091-1.875-.681-3.344.066-4.863,1-3.4,2.1-6.884,4.068-10.325,6.1a12.489,12.489,0,0,0-1.151.854c.182.791.726.6,1.1.587q18.681-.682,37.36-1.4c1.433-.054,2.864-.128,4.3-.173q35.55-1.122,71.1-2.236c.551-.017,1.1-.053,1.653-.028.965.044,1.114.329.954,1.9-.7.082-1.43.223-2.168.245-16.427.483-32.855.926-49.28,1.432q-27.946.859-55.888,1.806c-3.858.126-7.714.311-11.572.444a5.789,5.789,0,0,1-3.946-.732,18.1,18.1,0,0,0-.785,2.544,13.792,13.792,0,0,0,.721,6.076,106.051,106.051,0,0,1,3.926,22.144,8.146,8.146,0,0,1,0,1.231,4.509,4.509,0,0,1-.219.771c-.52.113-1.13.283-1.754.371-.532.075-1.078.055-1.73.082a4.336,4.336,0,0,1-.254-1.223c.558-5.39-.414-10.659-1.461-15.914-.583-2.926-1.26-5.841-2.053-8.723a10.643,10.643,0,0,1,.928-8.654,43.726,43.726,0,0,0,2.132-3.826,24.557,24.557,0,0,0,2.183-5.453c.754-3.953-.091-7.543-3.729-10.216-3.141-2.307-6.391-4.386-10.365-5.253a25.836,25.836,0,0,0-9.839-.425c-6.407,1.068-10.644,5.239-11.317,11.231a8.272,8.272,0,0,0,.264,3.344,58,58,0,0,0,2.458,6.359,34.079,34.079,0,0,1,2.6,7.287,15.532,15.532,0,0,1,.064,6.121,118.111,118.111,0,0,0-2.057,20.528c-.029,1.527,0,3.055,0,4.626a3,3,0,0,1-2.71.295c-.192-.207-.385-.338-.46-.513a2.616,2.616,0,0,1-.234-.888c-.346-6.987-.768-14.014,1.474-20.8,1.335-4.043.906-7.93-.239-11.821a76.236,76.236,0,0,0-3-8.147,12.418,12.418,0,0,1,1.234-12.371c.346-.525.737-1.028,1.036-1.576a12.973,12.973,0,0,1,5.885-5.192c14.007-7.18,27.947-14.473,41.907-21.734a10.109,10.109,0,0,0,.95-.661l-.719-2.5c.115-.818,1.013-.7,1.552-1.2.2-1.721.417-3.547.635-5.371A37.218,37.218,0,0,1,880,1158.484a22.122,22.122,0,0,1,2.615-3.908c1.248-1.748,2.905-2.349,5.247-1.4-1.033,1.256-2.115,2.4-2.979,3.668a36.163,36.163,0,0,0-2.481,4.342,31.634,31.634,0,0,0-1.773,4.311c-.5,1.569-.78,3.2-1.2,4.794a9.225,9.225,0,0,0-.267,4.478,12.845,12.845,0,0,0,6.279.083c2.231-.566,4.43-1.246,6.622-1.932,3.238-1.013,6.444-2.114,9.689-3.106a30.987,30.987,0,0,1,9.472-1.2c4.95.065,8.887-2.008,12.675-4.575.445-.3.861-.643,1.3-.959a1.6,1.6,0,0,1,1.834-.162,1.484,1.484,0,0,1,.714,1.606c-.082.714-.185,1.43-.336,2.134a7.689,7.689,0,0,0,1.169,6.47,11.633,11.633,0,0,1,2.033,7.049c-.121,5.236-.306,10.471-.453,15.707-.028,1.014,0,2.029,0,3.23a13.694,13.694,0,0,0,1.844.308c2.094.075,4.191.158,6.285.124q13.9-.222,27.789-.516c4.3-.092,8.6-.27,12.9-.391,1.205-.034,2.412-.006,3.591-.006a5.594,5.594,0,0,1,.539.879c.063.167-.036.387-.09.774m-104.332-22.974c.349.787.57,1.231.745,1.689.923,2.411,2.022,4.781,2.706,7.25a40.864,40.864,0,0,1,1.209,12.52,22.66,22.66,0,0,0,1.008,7.909c.348,1.073.51,2.2.76,3.3.106.466-.061,1.049.757,1.345a22.733,22.733,0,0,1,10.913-.67,19.966,19.966,0,0,0,12.18-1.845c2.211-1.141,4.35-2.409,6.5-3.654,1.214-.7,2.381-1.48,3.572-2.22a8.986,8.986,0,0,1,5.666-1.27c.972.083,1.943.175,3.056.276.067-1.738.13-3.358.192-4.979.194-5.125.405-10.249.574-15.375a11.149,11.149,0,0,0-2.341-7.534,7.2,7.2,0,0,1-1.633-5.512,4.239,4.239,0,0,0-.174-1.062,6.417,6.417,0,0,0-1.543.476,17.723,17.723,0,0,1-9.7,2.452,36.177,36.177,0,0,0-7.844.888,113.053,113.053,0,0,0-11.323,3.332c-4.372,1.524-8.763,2.737-13.488,2.564C880.04,1177.171,879.6,1177.244,878.685,1177.311ZM840.743,1198.9c9.672,1.169,10.412,1.847,16.655,4.845a14.769,14.769,0,0,1,6.151,5.456c2.57,4.044,3.336,8.233.55,12.517-.8,1.228-1.612,2.449-2.4,3.684-.2.31-.33.657-.807,1.63,7.113-4.424,13.592-8.456,20.076-12.481a2.356,2.356,0,0,0,1.08-1.815,11.856,11.856,0,0,0-.465-5.776,31.286,31.286,0,0,1-2.069-11.477,33.818,33.818,0,0,0-.374-6.143,67.073,67.073,0,0,0-1.46-6.608,6.476,6.476,0,0,0-.925-1.552C865.168,1187.571,853.749,1193.893,840.743,1198.9Z" transform="translate(-823.288 -1152.728)" stroke="#000" stroke-linecap="round" stroke-linejoin="round" stroke-width="1.5"/>
      <path id="Path_998" data-name="Path 998" d="M928.2,1196.932c-.527-.416-.759-.587-.977-.773s-.419-.488-.683-.591a.979.979,0,0,0-.823.046.889.889,0,0,0-.267.793c.506,1.087,1.091,2.138,1.629,3.16-.3.565-.565,1-.774,1.467a.914.914,0,0,0,.339,1.316,1.01,1.01,0,0,0,1.335-.378c.294-.375.609-.733.895-1.075a21.422,21.422,0,0,0,2.039,1.07.873.873,0,0,0,.764-.308.926.926,0,0,0,.082-.848c-.608-.794-1.3-1.524-1.9-2.215.259-1.262.522-2.352.689-3.455.073-.48.053-1.075-.631-1.181-.649-.1-.874.436-1.062.893C928.627,1195.406,928.49,1196,928.2,1196.932Z" transform="translate(-846.511 -1160.939)" fill="#fff" stroke="#707070" stroke-linecap="round" stroke-linejoin="round" stroke-width="1"/>
      <path id="Path_999" data-name="Path 999" d="M940.341,1207.1c.287-.934.425-1.526.653-2.079.188-.457.412-.993,1.062-.893.684.105.7.7.631,1.181-.167,1.1-.43,2.193-.689,3.455.605.691,1.295,1.421,1.9,2.215a.926.926,0,0,1-.082.848.872.872,0,0,1-.764.308,21.415,21.415,0,0,1-2.039-1.07c-.286.342-.6.7-.895,1.075a1.01,1.01,0,0,1-1.335.379.914.914,0,0,1-.339-1.316c.209-.464.473-.9.774-1.467-.538-1.022-1.123-2.072-1.629-3.16a.889.889,0,0,1,.267-.793.979.979,0,0,1,.823-.046c.264.1.452.394.683.591S939.813,1206.684,940.341,1207.1Z" transform="translate(-858.523 -1171.106)" stroke="#000" stroke-linecap="round" stroke-linejoin="round" stroke-width="1"/>
    </g>
  </g>
</svg>
