<svg xmlns="http://www.w3.org/2000/svg" width="187.881" height="100.994" viewBox="0 0 187.881 75.994">
  <g id="Group_303" data-name="Group 303" transform="translate(-5.3 -25.325)">
    <g id="Layer_2" data-name="Layer 2" transform="translate(27.978 25.325)">
      <path id="Path_1013" data-name="Path 1013" d="M170.744,52.435c-14.631-6.767-39.991-14.6-47.369-16.862-6.949,1.486-16.822,6.6-23.663,11.407-12.97,8.534-21.62,17.259-25.345,20.082-8.51-3.257-16.605-7.109-32.6-8.691S13.34,57.865,10.4,60.735c-.416,2.5,39.086,30.657,41.07,32.442,15.563-.613,8.924-.547,22.894,0,20.711.816,23.915,4.551,43.182,15.931,2.075,1.227,4.1,1.154,5.826-1.038a213.412,213.412,0,0,1,39.413-38.88C171.161,65.91,167.727,63.242,170.744,52.435Z" transform="translate(-10.401 -35.573)" fill="#ffc829"/>
    </g>
    <g id="Layer_1" data-name="Layer 1" transform="translate(5.3 31.155)">
      <g id="Group_302" data-name="Group 302" transform="translate(0)">
        <path id="Path_1014" data-name="Path 1014" d="M191.218,95.07c2.274-2.9,1.85-7.73,1.85-7.73V67.925L178.06,64.1c12.97-5.686,15.008-5.725,15.008-5.725h0s.017-4.942,0-5.542c-.017-.561,0-5.18,0-5.18l-49.048-16.5-.774.27c-1.554.544-36.9,13.135-46.327,34.648-40.326-17.229-72.8-12.586-79.005-11.451a2.71,2.71,0,0,0-.51,5.173l10.9,4.477c-8.6,1.351-13.492,5.05-13.771,5.269a2.1,2.1,0,0,0-.192.224l-.866.643.152,1.39a51.865,51.865,0,0,1,.334,8.26l-6.412.713a2.65,2.65,0,0,0-.878,5l30.075,15.156c60.1.06,90.2.606,95.245.3.329.2,3.6-.279,4,0,2.928.125,8.338,0,8.338,0s4.841-.159,8.3,0c1.015-1.226,1.072-1.3,1.563-1.3C157.637,99.924,188.944,97.968,191.218,95.07Zm1.85-5.35c-5.114,2.861-11.817,4.2-30.9,4.535C176.447,89.036,189.884,87.688,193.068,89.72Zm0-12.593v5.958c-10.483.116-26.124,1.544-39.406,9.915-.584-.2-1.272-.506-1.986-.824-.315-.14-.642-.284-.979-.431C163.974,77.6,185.44,77.2,193.068,77.127Zm-1.85-4.841c-13.412,1.317-32.332,4.98-42.895,15.054,4.3-8.41,13.36-15.033,22.922-20Zm-172.185,8.6a2.258,2.258,0,0,0-.325-.385,34.273,34.273,0,0,0,.038-5.313L65.193,94.474l.77-.2c.443-.111,42.176-10.389,68.419-.424l-.137.075c-17.64-2.769-46.677,3.505-61.087,7.088-3.147.782-12.94-.222-12.94-.222S27.092,84.485,19.032,80.882ZM144.076,36.251l48.992,16.581c-14.812,4.354-44.372,15.955-50.94,36.888-.81-.564-1.919-1.3-3.338-2.153a233.169,233.169,0,0,0-37.433-19.642C109.274,50,138.944,38.178,144.076,36.251Zm-46.7,35.258c4.052,1.582,7.968,3.29,11.678,5.033-.726-.135-1.462-.26-2.21-.381a170.971,170.971,0,0,0-27.01-2.269,101.968,101.968,0,0,0-13.509.778l-39.706-16.3C39.737,57.3,66.179,57.63,97.374,71.509Zm-31.625,8.13.676-.113c.152-.024,15.4-2.5,39.658,1.39a88.251,88.251,0,0,1,19.574,5.517c-24.764-4.886-54.708,1.712-60.081,2.986L21.586,71.152a35,35,0,0,1,18.035-2.235ZM47.635,101.017,15.355,84.749l.414-.046C20.251,86.645,37.963,94.9,51,101.018c9.67-.038,28.742.045,45.8-.1,10.194-1.8,21.637-3.2,30.908-2.783-3.668.558-9.006,1.444-17.12,2.885Zm101.09-2.725c-1.109,1.341-4.389,1.633-4.389,1.633s-4.06.149-5.8-1.064c-.539-.376-1.029-.7-1.508-.98.358-.214.717-.436,1.085-.674a20.951,20.951,0,0,1,2.4-1.4,2.344,2.344,0,0,0,.3-.137,8.332,8.332,0,0,1,3.124-.715,7.515,7.515,0,0,1,2.051.229,1.7,1.7,0,0,0,.243.058,23.691,23.691,0,0,1,3.506,1.339c.135.06.267.118.4.176A15.171,15.171,0,0,0,148.725,98.291Zm-32.5-32.76a2.393,2.393,0,0,0,1.823-.838c5.454-6.351,14.687-12.562,25.339-17.041a2.409,2.409,0,0,0-1.866-4.441c-6.65,2.8-19.014,8.9-27.118,18.339a2.41,2.41,0,0,0,1.823,3.981Zm8.692,1.712a2.405,2.405,0,1,0,3.644,3.14c6.164-7.177,18.843-15.644,28.867-19.276a2.408,2.408,0,0,0-1.633-4.53C144.925,50.515,131.649,59.4,124.915,67.243Zm10.83,5.905a2.405,2.405,0,1,0,3.643,3.14,73.445,73.445,0,0,1,31.37-20.434,2.407,2.407,0,0,0-1.453-4.59A77.455,77.455,0,0,0,135.745,73.149Z" transform="translate(-5.218 -31.155)"/>
        <g id="Group_301" data-name="Group 301" transform="translate(9.856 4.983)">
          <path id="Path_1018" data-name="Path 1018" d="M107.778,51.038a112.888,112.888,0,0,0-26.089,5.387,55.551,55.551,0,0,0-11.842,5.645c-.79.515-3.9,2.835-3.914,2.815-.412-.732,4.1-5.508,4.557-6,4.318-4.6,9.549-7.991,14.946-11.16,2.791-1.64,3.714-1.057,6.775-.3L107.7,51.255c.178.043.686-.1.313-.2l-8.851-2.187c-3.164-.78-7.668-2.868-10.939-2.7-2.757.14-6.257,3.092-8.484,4.564C73.6,54.788,68.2,59.681,64.609,66.167c-.1.183.479.176.578.087,11.442-10.346,27.867-13.443,42.74-14.98C108.334,51.233,108.038,51.009,107.778,51.038Z" transform="translate(68.289 -15.008)"/>
          <path id="Path_1020" data-name="Path 1020" d="M87.989,33.436l27.975,9.325,17.4,5.8c.9.3,2.752.7,3.422,1.431.264.289-3.54,1.58-4.908,2.045C116.937,57.1,100.4,64.416,90.752,77.462c-1.052,1.426-3.612,8.27-5.207,8.675-1.642.417-9.3-5.8-10.931-6.76q-5.809-3.41-11.8-6.5c-3.165-1.628-16.7-6.136-16.263-9.631.479-3.863,6.813-9.029,9.513-11.394a83.744,83.744,0,0,1,12.615-8.971,126.928,126.928,0,0,1,19.678-9.45c.291-.111-.272-.243-.419-.188-15.955,6.033-35.226,15.6-42.858,31.725-.029.06.019.1.072.12A225.64,225.64,0,0,1,85.933,86.857c.118.079.5.14.564-.039,7.162-20.947,30.426-31.055,49.856-36.825.176-.053-48.05-16.755-48.05-16.755C88.124,33.18,87.621,33.313,87.989,33.436Z" transform="translate(40.788 -33.224)"/>
          <path id="Path_1021" data-name="Path 1021" d="M84.929,55.956c2.522,1,5.631,1.83,7.914,3.3,4.089,2.642-.655.759-2.731.477-4.747-.643-9.518-1.11-14.3-1.368-3.528-.188-7.064-.267-10.6-.207-3.345.058-7.341,1.072-10.633.682-2.526-.3-5.407-1.968-7.813-2.953L30.544,49.242,16.865,43.636a14.332,14.332,0,0,1-2.319-.951c0,.034,9.376-.2,9.665-.2,20.962.048,41.563,5.118,60.718,13.467.142.06.715-.031.433-.154-22.315-9.725-46.75-15.054-71.146-13.176-.1.007-.352.108-.142.2L47.2,56.4c2.526,1.036,5.05,2.548,7.745,2.661,6,.248,12.147-.795,18.214-.568a178.747,178.747,0,0,1,23.592,2.534c.1.017.576-.063.3-.19Q91.273,58.159,85.362,55.8C85.22,55.747,84.644,55.843,84.929,55.956Z" transform="translate(-2.717 -20.509)"/>
          <path id="Path_1022" data-name="Path 1022" d="M56.566,57.88c16.877-2.825,36.568-.826,52.708,4.251,1,.313,8.212,1.98,3.369,1.657-2.317-.157-4.626-.59-6.948-.771A132.528,132.528,0,0,0,89.955,62.8a186.892,186.892,0,0,0-26.566,3.112c-3.8.713-6.136,1.886-9.6.448L37.729,59.706l-17.59-7.295c-1.917-.8-3.988-1.455-5.828-2.418-2.574-1.349-1.3-1,1.717-1.847,10.086-2.837,16.128-.154,24.924,3.449L56.2,57.846c.142.058.718-.039.433-.154L34.983,48.82c-7.562-3.1-15.3-2.695-23,.368-.1.041-.12.123-.007.171L53.06,66.4c4.5,1.864,7.516.282,12.456-.595,16.687-2.962,34.058-4.215,50.81-1.125.1.017.58-.079.3-.19C98.435,57.227,75.758,54.4,56.273,57.659,55.89,57.724,56.388,57.909,56.566,57.88Z" transform="translate(-5.66 -14.269)"/>
          <path id="Path_1025" data-name="Path 1025" d="M52.943,58.777c2.839-.607,4.643-3.781,6.758-5.6a70.81,70.81,0,0,1,13.788-9.147c1.768-.91,9.583-2.692,8.094-6.389A2.733,2.733,0,0,0,79.34,36.06c-1.763-.265-3.935,1.279-5.448,1.994a88.194,88.194,0,0,0-12.032,6.832c-2.88,1.968-16.829,11.049-9.282,13.857.142.053.718-.048.433-.154l-1.753-3.861,1.248-1.392c.874-1.368,2.839-2.784,4.056-3.834a67.034,67.034,0,0,1,7.3-5.467c2.124-1.378,4.316-2.652,6.553-3.839,1.3-.689,5.672-3.682,6.878-3.314l.508,4.67-1.946.9c-.2.178-1.707.831-1.953.956A83.126,83.126,0,0,0,65.926,48a64.645,64.645,0,0,0-6.794,5.05c-1.63,1.4-4.448,5.077-6.483,5.51C52.268,58.638,52.762,58.816,52.943,58.777Z" transform="translate(48.333 -29.274)"/>
          <path id="Path_1026" data-name="Path 1026" d="M55.2,58.355c-2.288,4.785,2.941,4.318,5.2,2.141A86.766,86.766,0,0,1,74.77,49.12c2.355-1.469,4.776-2.844,7.263-4.075,1.811-.9,6.009-1.623,7.3-3.434a2.545,2.545,0,0,0-1.455-4.058c-1.825-.576-4.361,1.125-5.857,1.792A79.954,79.954,0,0,0,55.2,58.355c-.1.108.455.224.578.087A74.412,74.412,0,0,1,71.326,45.579c2.5-1.6,5.082-3.085,7.731-4.426.857-.436,4.925-3.239,5.912-2.7l1.341,4.3q-1.189.47-2.348,1a83.881,83.881,0,0,0-13.624,7.8,77.648,77.648,0,0,0-7.047,5.5c-.414.366-.853.761-1.257,1.142-.578.537-1.139,1.089-1.681,1.662q-1.752,2.334-4.576-1.418C55.858,58.276,55.273,58.2,55.2,58.355Z" transform="translate(54.319 -27.294)"/>
          <path id="Path_1027" data-name="Path 1027" d="M59.614,61.521c-.869,1.816-.453,4.012,2.028,4.135,1.8.089,2.813-1.64,3.9-2.782a75.276,75.276,0,0,1,24.03-16.439c1.7-.718,5.561-1.2,6.724-2.789a2.566,2.566,0,0,0-1.4-4.128c-2.909-.824-7.608,2.242-10.04,3.369A76.91,76.91,0,0,0,59.614,61.521c-.1.111.458.224.578.087A74.443,74.443,0,0,1,74.507,49.16a79.349,79.349,0,0,1,9.91-5.66c1.445-.691,3.786-2.312,5.46-2.382q2.727-2.074,2.442,1.5,1.835,2.771-1.329,2.888c-1.688,1.416-5.161,2.218-7.165,3.27a77.419,77.419,0,0,0-9.385,5.838q-2.713,1.965-5.245,4.164c-1.122.973-2.218,1.984-3.27,3.034l-.956.978q-1.832,2.883-4.776-1.18C60.272,61.442,59.687,61.37,59.614,61.521Z" transform="translate(60.688 -24.554)"/>
        </g>
      </g>
    </g>
  </g>
</svg>
