<?xml version="1.0" encoding="utf-8"?>
<!-- Generator: Adobe Illustrator 23.0.6, SVG Export Plug-In . SVG Version: 6.00 Build 0)  -->
<svg version="1.1" id="Layer_1" width="163.152" height="110.536" xmlns="http://www.w3.org/2000/svg" xmlns:xlink="http://www.w3.org/1999/xlink" x="0px" y="0px"
	 viewBox="0 0 142.3 110" enable-background="new 0 0 142.3 110" xml:space="preserve">
<g transform="matrix(1, 0, 0, 1, 0, 0)">
	<path id="Rectangle_32-2" fill="#FFFFFF" d="M5.2,0h131.9c2.9,0,5.2,5.4,5.2,12v86c0,6.6-2.3,12-5.2,12H5.2C2.3,110,0,104.6,0,98
		V12C0,5.4,2.3,0,5.2,0z"/>
</g>
<g id="Group_304" transform="translate(227 15)">
	<path id="Path_1028" fill="#638DC9" stroke="#638DC9" stroke-linecap="round" stroke-linejoin="round" d="M-153.1,11.6
		c-0.7-9.2-6.2-13.8-13.5-17.4c-1.3,5.2-1.6,10.1,0.1,14.9c1.6,4.9,5,7.9,9.4,10.1c-3.9,7.1-3.4,14.2-0.5,21.7
		c-3.8,0.6-6.1,3.4-8.3,6.4c-1.4,1.9-3.4,2.5-5.4,3.3c-1.8,0.7-3.7,1.1-5.4,2.9l5.5,3.8c5.4-0.6,10.9-1.4,16.4-1.7
		c4.8-0.3,9.4-1.9,13.4-4.8c1.2-0.8,2.5-1.5,4.4-2.6c-2-0.5-3.4-0.8-4.7-1c-1.9-0.2-3.6-1-5-2.2c-2.6-2.6-5.4-4.5-9.1-4.1
		c-0.9-3.4-1.3-6.9-1.1-10.4c5.5,1.8,10.8,2.1,15.6-1.5c3.2-2.5,5.7-5.7,7.3-9.4c-5.1-3.7-12.9-3-19.8,1.8l5.1-10.5
		c4,0.9,8,1.1,11.6-1.5c3.2-2.4,5.3-5.7,6.7-9.8c-6.3-1.5-12.1-1.5-16.9,4.6c-0.1-3.8-0.4-7.1-2.1-10.2
		C-148.9,0.3-149.7,6.2-153.1,11.6z"/>
	<path id="Path_1029" d="M-133.2,71.4c-0.5,0.1-1,0.2-1.5,0.2c-1.7-0.2-3.4-0.5-5.1-1c-3.9-1-8-1.3-12-1c-5.3,0.3-10.7,0.7-16.6,1
		c1,0.8,1.6,1.3,2.2,1.7c3.6,2.5,7.3,4.9,10.9,7.5c3.2,2.4,7.4,3,11.2,1.7c8-2.4,16-4.7,23.9-7.2c7.5-2.3,13.9-0.9,19.5,4.7
		c4.2,4.1,8.5,8.1,12.7,12.1c1.4-1.7,2.4-3.7,3-5.8c0-1.3,0-9.2,0-18c-0.5-0.4-1.5-1-2.1-1.4c-5.3-3.6-10.7-7.2-16-10.8
		c-4.9-3.4-10.8-5.2-16.8-5.1c-1.5,0-3.1,0.1-4.6,0c-5.9-0.3-11.7,1.1-16.7,4.3c-4.5,2.8-9.6,4.3-14.9,4.5c-5.6,0.3-11.3,1-16.9,1.6
		c-2.8,0.3-4.5,2.2-4.4,4.7c0.1,2.6,2.2,4.4,5.2,4.2c6.5-0.3,13-0.4,19.5-1.2c6.4-0.7,12.4,0.9,18.5,2c0.3,0.1,0.7,0.3,0.9,0.6
		L-133.2,71.4z"/>
	
		<path id="Path_1030" fill="none" stroke="#000000" stroke-width="1.75" stroke-linecap="round" stroke-linejoin="round" stroke-miterlimit="10" d="
		M-153.6,15c-0.8-8.8-6.5-13.3-14.1-16.8c-1.3,5-1.6,9.7,0.1,14.3c1.7,4.7,5.3,7.6,9.9,9.7c-4.1,6.8-3.6,13.7-0.5,20.8
		c-4,0.5-6.4,3.3-8.7,6.2c-1.4,1.8-3.6,2.4-5.7,3.2c-1.9,0.6-3.9,1-5.6,2.8l5.8,3.6c5.7-0.6,11.4-1.3,17.1-1.6c5-0.3,9.8-1.8,14-4.6
		c1.3-0.8,2.7-1.4,4.7-2.5c-2.1-0.4-3.5-0.8-5-1c-1.9-0.2-3.8-0.9-5.2-2.2c-2.7-2.4-5.6-4.3-9.5-3.9c-1-3.2-1.4-6.6-1.1-10
		c5.8,1.8,11.3,2,16.3-1.4c3.3-2.3,5.9-5.4,7.7-9.1c-5.4-3.5-13.5-2.9-20.7,1.7l5.4-10.1c4.2,0.9,8.3,1.1,12.1-1.5
		c3.3-2.3,5.8-5.6,7-9.4c-6.6-1.5-12.7-1.4-17.7,4.4c-0.2-3.6-0.4-6.9-2.2-9.8C-149.1,4.2-150,9.9-153.6,15z"/>
	<path id="Path_1031" d="M-179.1,63.5c0.4-0.9,0.9-1.8,1.6-2.6c0.6-0.7,1.3-1.3,2.2-1.8c-0.4-0.4-0.8-0.7-1.3-1
		c-4.7-2.9-9.5-5.8-14.3-8.7c-0.5-0.3-1-0.6-1.5-0.8c-1.1-0.5-2.4,0-3,1.1c-0.6,0.9-0.4,2.2,0.4,2.9c0.2,0.2,0.4,0.4,0.7,0.5
		C-189.2,56.6-179.3,63.9-179.1,63.5z"/>
	<path id="Path_1032" stroke="#000000" stroke-linecap="round" stroke-linejoin="round" d="M-180,53.9c0.2-0.4,0.4-0.8,0.7-1.1
		c0.4-0.2,0.7-0.4,1-0.6c-1-1.8-8.7-6-9.6-3.8C-187.7,49.2-180,53.9-180,53.9z"/>
</g>
</svg>
