<?xml version="1.0" encoding="utf-8"?>
<!-- Generator: Adobe Illustrator 23.0.6, SVG Export Plug-In . SVG Version: 6.00 Build 0)  -->
<svg version="1.1" id="Layer_1" xmlns="http://www.w3.org/2000/svg" xmlns:xlink="http://www.w3.org/1999/xlink" x="0px" y="0px"
	 viewBox="0 0 206.3 110" enable-background="new 0 0 206.3 110" xml:space="preserve">
<g transform="matrix(1, 0, 0, 1, 0, 0)">
	<path id="Path_1063-2" fill="#FFFFFF" d="M-110.9-0.4h305c6.6,0,12,5.4,12,12v86c0,6.6-5.4,12-12,12h-305c-6.6,0-12-5.4-12-12v-86
		C-122.9,5-117.5-0.4-110.9-0.4z"/>
</g>
<g id="Group_303" transform="translate(144.84 15.039)">
	<g transform="translate(27.978 25.325)">
		<path id="Path_1013" fill="#FFC829" d="M28.4,10.4C13.8,3.7-11.6-4.2-18.9-6.4C-25.9-4.9-35.8,0.2-42.6,5
			c-13,8.5-21.6,17.3-25.3,20.1c-8.5-3.3-16.6-7.1-32.6-8.7s-28.4-0.5-31.4,2.4c-0.4,2.5,39.1,30.7,41.1,32.4
			c15.6-0.6,8.9-0.5,22.9,0C-47.2,52-44,55.7-24.8,67.1c2.1,1.2,4.1,1.2,5.8-1C-7.5,51.5,5.7,38.4,20.5,27.2
			C28.8,23.9,25.4,21.3,28.4,10.4z"/>
	</g>
	<g transform="translate(5.3 31.155)">
		<g id="Group_302" transform="translate(0)">
			<path id="Path_1014" d="M54.1,57.5c2.3-2.9,1.9-7.7,1.9-7.7V30.4l-15-3.8c13-5.7,15-5.7,15-5.7l0,0c0,0,0-4.9,0-5.5
				c0-0.6,0-5.2,0-5.2L6.9-6.4L6.1-6.1C4.6-5.6-30.8,7-40.2,28.5c-40.3-17.2-72.8-12.6-79-11.5c-1.5,0.3-2.4,1.7-2.2,3.2
				c0.2,0.9,0.8,1.7,1.6,2l10.9,4.5c-8.6,1.4-13.5,5.1-13.8,5.3c-0.1,0.1-0.1,0.1-0.2,0.2l-0.9,0.6l0.2,1.4c0.3,2.7,0.4,5.5,0.3,8.3
				l-6.4,0.7c-1.5,0.2-2.5,1.5-2.3,2.9c0.1,0.9,0.6,1.7,1.4,2.1l30.1,15.2c60.1,0.1,90.2,0.6,95.2,0.3c0.3,0.2,3.6-0.3,4,0
				c2.9,0.1,8.3,0,8.3,0s4.8-0.2,8.3,0c1-1.2,1.1-1.3,1.6-1.3C20.5,62.4,51.8,60.4,54.1,57.5z M55.9,52.1C50.8,55,44.1,56.3,25,56.7
				C39.3,51.5,52.8,50.1,55.9,52.1L55.9,52.1z M55.9,39.6v6c-10.5,0.1-26.1,1.5-39.4,9.9c-0.6-0.2-1.3-0.5-2-0.8
				c-0.3-0.1-0.6-0.3-1-0.4C26.8,40,48.3,39.6,55.9,39.6L55.9,39.6z M54.1,34.7c-13.4,1.3-32.3,5-42.9,15.1c4.3-8.4,13.4-15,22.9-20
				L54.1,34.7z M-118.1,43.3c-0.1-0.1-0.2-0.3-0.3-0.4c0.2-1.8,0.2-3.5,0-5.3l46.4,19.3l0.8-0.2c0.4-0.1,42.2-10.4,68.4-0.4
				l-0.1,0.1c-17.6-2.8-46.7,3.5-61.1,7.1c-3.1,0.8-12.9-0.2-12.9-0.2S-110,46.9-118.1,43.3L-118.1,43.3z M6.9-1.3l49,16.6
				C41.1,19.6,11.6,31.2,5,52.1c-0.8-0.6-1.9-1.3-3.3-2.2c-11.9-7.7-24.4-14.2-37.4-19.6C-27.9,12.4,1.8,0.6,6.9-1.3z M-39.8,33.9
				c4.1,1.6,8,3.3,11.7,5c-0.7-0.1-1.5-0.3-2.2-0.4c-8.9-1.5-18-2.2-27-2.3c-4.5,0-9,0.2-13.5,0.8l-39.7-16.3
				C-97.4,19.7-71,20.1-39.8,33.9L-39.8,33.9z M-71.4,42.1l0.7-0.1c0.2,0,15.4-2.5,39.7,1.4c6.7,1.1,13.3,2.9,19.6,5.5
				c-24.8-4.9-54.7,1.7-60.1,3l-44-18.3c5.7-2.3,11.9-3.1,18-2.2L-71.4,42.1z M-89.5,63.4l-32.3-16.3l0.4,0
				c4.5,1.9,22.2,10.2,35.2,16.3c9.7,0,28.7,0,45.8-0.1c10.2-1.8,21.6-3.2,30.9-2.8c-3.7,0.6-9,1.4-17.1,2.9L-89.5,63.4z M11.6,60.7
				c-1.1,1.3-4.4,1.6-4.4,1.6s-4.1,0.1-5.8-1.1c-0.5-0.4-1-0.7-1.5-1c0.4-0.2,0.7-0.4,1.1-0.7c0.8-0.5,1.6-1,2.4-1.4
				c0.1,0,0.2-0.1,0.3-0.1c1-0.4,2-0.7,3.1-0.7c0.7,0,1.4,0.1,2.1,0.2c0.1,0,0.2,0,0.2,0.1c1.2,0.4,2.4,0.8,3.5,1.3
				c0.1,0.1,0.3,0.1,0.4,0.2C12.5,59.7,12,60.2,11.6,60.7L11.6,60.7z M-20.9,28c0.7,0,1.4-0.3,1.8-0.8c5.5-6.4,14.7-12.6,25.3-17
				c1.2-0.5,1.8-2,1.2-3.2C7,5.7,5.6,5.2,4.4,5.6c-6.6,2.8-19,8.9-27.1,18.3c-0.9,1-0.8,2.5,0.3,3.4C-22,27.8-21.5,28-20.9,28
				L-20.9,28z M-12.2,29.7c-0.9,1-0.8,2.5,0.3,3.4s2.5,0.8,3.4-0.3c6.2-7.2,18.8-15.6,28.9-19.3c1.2-0.5,1.9-1.9,1.4-3.1
				c-0.5-1.2-1.8-1.8-3-1.4C7.8,12.9-5.5,21.8-12.2,29.7L-12.2,29.7z M-1.4,35.6c-0.9,1-0.8,2.5,0.2,3.4c1,0.9,2.5,0.8,3.4-0.2
				c0,0,0,0,0-0.1c8.5-9.4,19.3-16.4,31.4-20.4c1.3-0.4,2-1.8,1.6-3c-0.4-1.3-1.8-2-3-1.6C19.3,17.9,7.7,25.5-1.4,35.6L-1.4,35.6z"
				/>
			<g id="Group_301" transform="translate(9.856 4.983)">
				<path id="Path_1018" d="M44.2,29.6c-8.9,0.8-17.6,2.6-26.1,5.4c-4.2,1.4-8.1,3.3-11.8,5.6c-0.8,0.5-3.9,2.8-3.9,2.8
					c-0.4-0.7,4.1-5.5,4.6-6c4.3-4.6,9.5-8,14.9-11.2c2.8-1.6,3.7-1.1,6.8-0.3l15.5,3.8c0.2,0,0.7-0.1,0.3-0.2l-8.9-2.2
					c-3.2-0.8-7.7-2.9-10.9-2.7c-2.8,0.1-6.3,3.1-8.5,4.6C10,33.4,4.6,38.3,1,44.7c-0.1,0.2,0.5,0.2,0.6,0.1
					c11.4-10.3,27.9-13.4,42.7-15C44.7,29.8,44.4,29.6,44.2,29.6z"/>
				<path id="Path_1020" d="M-3.1-6.2l28,9.3l17.4,5.8c0.9,0.3,2.8,0.7,3.4,1.4c0.3,0.3-3.5,1.6-4.9,2C25.8,17.5,9.3,24.8-0.4,37.8
					c-1.1,1.4-3.6,8.3-5.2,8.7c-1.6,0.4-9.3-5.8-10.9-6.8c-3.9-2.3-7.8-4.4-11.8-6.5c-3.2-1.6-16.7-6.1-16.3-9.6
					c0.5-3.9,6.8-9,9.5-11.4c3.9-3.4,8.1-6.4,12.6-9c6.3-3.7,12.9-6.9,19.7-9.5C-2.5-6.3-3-6.5-3.2-6.4c-16,6-35.2,15.6-42.9,31.7
					c0,0.1,0,0.1,0.1,0.1c14.3,5.8,28,13.1,40.8,21.8c0.1,0.1,0.5,0.1,0.6,0c7.2-20.9,30.4-31.1,49.9-36.8
					C45.4,10.3-2.8-6.4-2.8-6.4C-3-6.5-3.5-6.3-3.1-6.2z"/>
				<path id="Path_1021" d="M-49.7,29c2.5,1,5.6,1.8,7.9,3.3c4.1,2.6-0.7,0.8-2.7,0.5c-4.7-0.6-9.5-1.1-14.3-1.4
					c-3.5-0.2-7.1-0.3-10.6-0.2c-3.3,0.1-7.3,1.1-10.6,0.7c-2.5-0.3-5.4-2-7.8-3l-16.2-6.6l-13.7-5.6c-0.8-0.2-1.6-0.6-2.3-1
					c0,0,9.4-0.2,9.7-0.2C-89.5,15.6-68.9,20.7-49.7,29c0.1,0.1,0.7,0,0.4-0.2c-22.3-9.7-46.8-15.1-71.1-13.2
					c-0.1,0-0.4,0.1-0.1,0.2l33.1,13.6c2.5,1,5.1,2.5,7.7,2.7c6,0.2,12.1-0.8,18.2-0.6c7.9,0.3,15.8,1.2,23.6,2.5
					c0.1,0,0.6-0.1,0.3-0.2c-3.9-1.8-7.7-3.5-11.7-5C-49.4,28.8-50,28.9-49.7,29z"/>
				<path id="Path_1022" d="M-81,37.2c16.9-2.8,36.6-0.8,52.7,4.3c1,0.3,8.2,2,3.4,1.7c-2.3-0.2-4.6-0.6-6.9-0.8
					c-5.2-0.4-10.5-0.5-15.7-0.2c-8.9,0.4-17.8,1.4-26.6,3.1c-3.8,0.7-6.1,1.9-9.6,0.4L-99.8,39l-17.6-7.3c-1.9-0.8-4-1.5-5.8-2.4
					c-2.6-1.3-1.3-1,1.7-1.8c10.1-2.8,16.1-0.2,24.9,3.4l15.2,6.3c0.1,0.1,0.7,0,0.4-0.2l-21.6-8.9c-7.6-3.1-15.3-2.7-23,0.4
					c-0.1,0-0.1,0.1,0,0.2l41.1,17c4.5,1.9,7.5,0.3,12.5-0.6c16.7-3,34.1-4.2,50.8-1.1c0.1,0,0.6-0.1,0.3-0.2
					c-18.2-7.3-40.9-10.1-60.4-6.8C-81.7,37-81.2,37.2-81,37.2z"/>
				<path id="Path_1025" d="M-30.6,23.1c2.8-0.6,4.6-3.8,6.8-5.6c4.2-3.6,8.9-6.6,13.8-9.1C-8.3,7.4-0.5,5.6-2,2
					c-0.4-0.9-1.3-1.5-2.2-1.6c-1.8-0.3-3.9,1.3-5.4,2c-4.2,2-8.2,4.2-12,6.8c-2.9,2-16.8,11-9.3,13.9c0.1,0.1,0.7,0,0.4-0.2
					l-1.8-3.9l1.2-1.4c0.9-1.4,2.8-2.8,4.1-3.8c2.3-2,4.7-3.8,7.3-5.5c2.1-1.4,4.3-2.7,6.6-3.8c1.3-0.7,5.7-3.7,6.9-3.3l0.5,4.7
					l-1.9,0.9c-0.2,0.2-1.7,0.8-2,1c-2.7,1.4-5.4,2.9-8,4.6c-2.4,1.5-4.6,3.2-6.8,5c-1.6,1.4-4.4,5.1-6.5,5.5
					C-31.3,22.9-30.8,23.1-30.6,23.1z"/>
				<path id="Path_1026" d="M-22.4,24.6c-2.3,4.8,2.9,4.3,5.2,2.1c4.4-4.3,9.2-8.1,14.4-11.4c2.4-1.5,4.8-2.8,7.3-4.1
					c1.8-0.9,6-1.6,7.3-3.4c0.9-1.1,0.7-2.7-0.4-3.6c-0.3-0.2-0.7-0.4-1-0.5C8.5,3.3,5.9,5,4.4,5.6C-5.7,10-14.9,16.5-22.4,24.6
					c-0.1,0.1,0.5,0.2,0.6,0.1c4.6-5,9.8-9.3,15.5-12.9c2.5-1.6,5.1-3.1,7.7-4.4C2.3,7,6.4,4.2,7.4,4.7L8.7,9
					c-0.8,0.3-1.6,0.6-2.3,1C1.6,12.2-3,14.8-7.3,17.8c-2.5,1.7-4.8,3.5-7,5.5c-0.4,0.4-0.9,0.8-1.3,1.1c-0.6,0.5-1.1,1.1-1.7,1.7
					c-1.2,1.6-2.7,1.1-4.6-1.4C-21.7,24.6-22.3,24.5-22.4,24.6z"/>
				<path id="Path_1027" d="M-11.6,30.6c-0.9,1.8-0.5,4,2,4.1c1.8,0.1,2.8-1.6,3.9-2.8c6.9-7,15-12.6,24-16.4
					c1.7-0.7,5.6-1.2,6.7-2.8c0.9-1.1,0.7-2.7-0.4-3.6c-0.3-0.3-0.7-0.4-1-0.5c-2.9-0.8-7.6,2.2-10,3.4C4,16.3-4.6,22.7-11.6,30.6
					c-0.1,0.1,0.5,0.2,0.6,0.1c4.2-4.7,9-8.9,14.3-12.4c3.2-2.1,6.5-4,9.9-5.7c1.4-0.7,3.8-2.3,5.5-2.4c1.8-1.4,2.6-0.9,2.4,1.5
					c1.2,1.8,0.8,2.8-1.3,2.9c-1.7,1.4-5.2,2.2-7.2,3.3c-3.3,1.7-6.4,3.7-9.4,5.8C1.4,25-0.3,26.3-2,27.8c-1.1,1-2.2,2-3.3,3l-1,1
					c-1.2,1.9-2.8,1.5-4.8-1.2C-11,30.5-11.5,30.4-11.6,30.6z"/>
			</g>
		</g>
	</g>
</g>
<path id="Path_1062" fill="none" d="M-110.9-0.4h305c6.6,0,12,5.4,12,12v86c0,6.6-5.4,12-12,12h-305c-6.6,0-12-5.4-12-12v-86
	C-122.9,5-117.5-0.4-110.9-0.4z"/>
</svg>
