<svg xmlns="http://www.w3.org/2000/svg" width="110.815" height="97.637" viewBox="0 0 110.815 97.637">
  <g id="Group_304" data-name="Group 304" transform="translate(0 0.5)">
    <path id="Path_1028" data-name="Path 1028" d="M66.245,26.942C65.5,17.731,60,13.122,52.763,9.5c-1.281,5.232-1.555,10.072.058,14.926,1.629,4.9,5.032,7.943,9.428,10.138-3.947,7.119-3.41,14.217-.459,21.694-3.85.553-6.091,3.413-8.286,6.413-1.368,1.867-3.443,2.535-5.442,3.3-1.769.674-3.677,1.09-5.356,2.9l5.547,3.775c5.443-.575,10.893-1.4,16.366-1.655a25.243,25.243,0,0,0,13.354-4.766c1.215-.834,2.535-1.485,4.446-2.589-2.013-.45-3.368-.847-4.746-1.036a8.4,8.4,0,0,1-4.993-2.245C70.1,57.8,67.311,55.828,63.61,56.3a31.853,31.853,0,0,1-1.081-10.39c5.516,1.828,10.765,2.133,15.613-1.488a23.921,23.921,0,0,0,7.325-9.447c-5.144-3.669-12.905-2.971-19.795,1.777L70.8,26.288c3.99.895,7.962,1.106,11.585-1.514,3.25-2.35,5.32-5.669,6.731-9.82-6.316-1.544-12.11-1.471-16.9,4.6-.145-3.8-.384-7.144-2.111-10.194C70.493,15.664,69.619,21.6,66.245,26.942Z" transform="translate(-23.662 -9.362)" fill="#638dc9" stroke="#638dc9" stroke-linecap="round" stroke-linejoin="round" stroke-width="1"/>
    <path id="Path_1029" data-name="Path 1029" d="M47.857,77.939a5.26,5.26,0,0,1-1.489.205,48.186,48.186,0,0,1-5.079-.955,37.025,37.025,0,0,0-11.978-.957c-5.343.343-10.688.661-16.562,1.023,1.006.807,1.557,1.305,2.162,1.724,3.622,2.511,7.312,4.931,10.875,7.524a11.885,11.885,0,0,0,11.162,1.7c7.96-2.444,15.968-4.736,23.918-7.216,7.479-2.333,13.928-.859,19.539,4.653,4.172,4.1,8.486,8.05,12.743,12.061a16.87,16.87,0,0,0,2.99-5.811c.041-1.251-.018-9.234,0-18.011-.514-.39-1.516-.975-2.139-1.4-5.317-3.6-10.652-7.171-15.96-10.782a28.375,28.375,0,0,0-16.765-5.1c-1.534.024-3.072.061-4.6-.007a28.351,28.351,0,0,0-16.73,4.275A29.611,29.611,0,0,1,25.069,65.36c-5.639.267-11.255,1.044-16.876,1.649-2.792.3-4.543,2.238-4.41,4.722.139,2.592,2.208,4.369,5.169,4.226,6.51-.311,13.049-.426,19.515-1.162,6.376-.726,12.37.872,18.473,1.992a3.309,3.309,0,0,1,.948.553Z" transform="translate(14.663 -0.562)"/>
    <path id="Path_1030" data-name="Path 1030" d="M65.99,29.711c-.78-8.845-6.54-13.27-14.115-16.75-1.342,5.025-1.629,9.671.059,14.332C53.64,32,57.2,34.921,61.8,37.028c-4.132,6.836-3.569,13.652-.481,20.833-4.03.53-6.376,3.278-8.675,6.156-1.432,1.794-3.6,2.436-5.7,3.167-1.851.647-3.85,1.046-5.607,2.782l5.808,3.625c5.7-.552,11.4-1.342,17.134-1.587a27.987,27.987,0,0,0,13.98-4.577c1.273-.8,2.656-1.427,4.656-2.487-2.108-.431-3.526-.813-4.969-.994a9.186,9.186,0,0,1-5.228-2.156c-2.7-2.442-5.619-4.34-9.493-3.883A28.174,28.174,0,0,1,62.1,47.928c5.774,1.757,11.27,2.05,16.345-1.427a23.366,23.366,0,0,0,7.67-9.072C80.728,33.906,72.6,34.575,65.39,39.135l5.371-10.053c4.176.859,8.335,1.062,12.127-1.453a18.391,18.391,0,0,0,7.046-9.43c-6.612-1.482-12.677-1.413-17.689,4.42-.151-3.648-.4-6.86-2.209-9.788C70.437,18.881,69.522,24.581,65.99,29.711Z" transform="translate(-23.864 -8.715)" fill="none" stroke="#000" stroke-linecap="round" stroke-linejoin="round" stroke-miterlimit="10" stroke-width="1.75"/>
    <path id="Path_1031" data-name="Path 1031" d="M96.509,70.328a12.046,12.046,0,0,1,1.567-2.642,9.1,9.1,0,0,1,2.151-1.823,6.872,6.872,0,0,0-1.265-.986q-7.115-4.353-14.252-8.671a9.389,9.389,0,0,0-1.5-.846,2.271,2.271,0,0,0-2.96,1.062,2.219,2.219,0,0,0,.4,2.885,3.863,3.863,0,0,0,.661.548C86.44,63.392,96.294,70.735,96.509,70.328Z" transform="translate(-79.884 -0.821)"/>
    <path id="Path_1032" data-name="Path 1032" d="M90.787,61.32a3.87,3.87,0,0,1,.652-1.1,4.672,4.672,0,0,0,.979-.62c-.979-1.84-8.734-6.008-9.6-3.839C83.181,56.645,90.787,61.32,90.787,61.32Z" transform="translate(-75.128 -1.413)" stroke="#000" stroke-linecap="round" stroke-linejoin="round" stroke-width="1"/>
  </g>
</svg>
